G04 #@! TF.FileFunction,Copper,L4,Bot,Signal*
%FSLAX46Y46*%
G04 Gerber Fmt 4.6, Leading zero omitted, Abs format (unit mm)*
G04 Created by KiCad (PCBNEW 4.0.2-stable) date 4/9/2016 9:23:23 PM*
%MOMM*%
G01*
G04 APERTURE LIST*
%ADD10C,0.100000*%
%ADD11C,5.400000*%
%ADD12R,1.727200X1.727200*%
%ADD13O,1.727200X1.727200*%
%ADD14R,0.900000X1.200000*%
%ADD15R,1.200000X0.900000*%
%ADD16R,2.032000X2.032000*%
%ADD17O,2.032000X2.032000*%
%ADD18R,1.727200X2.032000*%
%ADD19O,1.727200X2.032000*%
%ADD20R,2.032000X1.727200*%
%ADD21O,2.032000X1.727200*%
%ADD22C,0.600000*%
%ADD23C,0.250000*%
%ADD24C,0.300000*%
%ADD25C,0.254000*%
G04 APERTURE END LIST*
D10*
D11*
X84000000Y-124000000D03*
X116000000Y-124000000D03*
X116000000Y-89000000D03*
D12*
X109199680Y-89468960D03*
D13*
X109199680Y-86928960D03*
X106659680Y-89468960D03*
X106659680Y-86928960D03*
X104119680Y-89468960D03*
X104119680Y-86928960D03*
X101579680Y-89468960D03*
X101579680Y-86928960D03*
X99039680Y-89468960D03*
X99039680Y-86928960D03*
D14*
X95050000Y-117800000D03*
X95050000Y-115600000D03*
D15*
X99125000Y-114525000D03*
X96925000Y-114525000D03*
D14*
X93275000Y-117800000D03*
X93275000Y-115600000D03*
D16*
X87150000Y-97500000D03*
D17*
X87150000Y-100040000D03*
D18*
X105481120Y-93817440D03*
D19*
X108021120Y-93817440D03*
X110561120Y-93817440D03*
D20*
X82500000Y-118000000D03*
D21*
X82500000Y-115460000D03*
X82500000Y-112920000D03*
X82500000Y-110380000D03*
X82500000Y-107840000D03*
X82500000Y-105300000D03*
X82500000Y-102760000D03*
X82500000Y-100220000D03*
X82500000Y-97680000D03*
D11*
X84000000Y-89000000D03*
D20*
X117124480Y-118000000D03*
D21*
X117124480Y-115460000D03*
X117124480Y-112920000D03*
X117124480Y-110380000D03*
X117124480Y-107840000D03*
X117124480Y-105300000D03*
X117124480Y-102760000D03*
X117124480Y-100220000D03*
X117124480Y-97680000D03*
D22*
X87625000Y-112800000D03*
X100949740Y-117790260D03*
X102610000Y-112640000D03*
X103500000Y-109740000D03*
X103140000Y-103570000D03*
X99530000Y-97450000D03*
X112620000Y-99890000D03*
X110900000Y-99900000D03*
X98014000Y-107180000D03*
X102078000Y-100068000D03*
X115286000Y-107434000D03*
X105634000Y-120642000D03*
X103348000Y-116070000D03*
X106904000Y-113022000D03*
X111476000Y-112260000D03*
X104872000Y-98290000D03*
X91156000Y-89908000D03*
X93442000Y-116832000D03*
X96744000Y-116070000D03*
X93696000Y-122420000D03*
X87092000Y-119880000D03*
X102880000Y-105580000D03*
X99240000Y-112710000D03*
X88550000Y-117510000D03*
X111630000Y-101880000D03*
X94458000Y-100068000D03*
X112660000Y-106150000D03*
X95220000Y-119118000D03*
X97375000Y-109300000D03*
X96325000Y-109275000D03*
X98450000Y-92775000D03*
X97150000Y-100100000D03*
X101325000Y-96550000D03*
X98725000Y-102900000D03*
X106825000Y-101950000D03*
X107625000Y-101875000D03*
X108575000Y-101975000D03*
X113000000Y-107180000D03*
X106220000Y-106520000D03*
X106550000Y-107500000D03*
X106275000Y-108325000D03*
X103700000Y-108300000D03*
X87550000Y-111425000D03*
X90325000Y-90950000D03*
X97975000Y-105675000D03*
X94325000Y-114075000D03*
X109190000Y-109810000D03*
X112950000Y-105100000D03*
X93250000Y-110900000D03*
X108260000Y-109710000D03*
X107700000Y-104950000D03*
X105888000Y-110990000D03*
X95700000Y-110825000D03*
X108140000Y-108600000D03*
X107300000Y-110290000D03*
X106750000Y-104850000D03*
X96950000Y-110875000D03*
X101625000Y-113550000D03*
X99250000Y-118025000D03*
X100675000Y-113550000D03*
X97275000Y-118050000D03*
D23*
X83790000Y-115460000D02*
X82500000Y-115460000D01*
X84325000Y-114925000D02*
X83790000Y-115460000D01*
X84325000Y-113075000D02*
X84325000Y-114925000D01*
X84600000Y-112800000D02*
X84325000Y-113075000D01*
X87625000Y-112800000D02*
X84600000Y-112800000D01*
D24*
X102610000Y-113950000D02*
X102610000Y-112640000D01*
X102280000Y-114280000D02*
X102610000Y-113950000D01*
X102280000Y-117020000D02*
X102280000Y-114280000D01*
X101510000Y-117790000D02*
X102280000Y-117020000D01*
X100950000Y-117790000D02*
X101510000Y-117790000D01*
X100950000Y-117790000D02*
X100949740Y-117790260D01*
D23*
X99590000Y-97490000D02*
X99610000Y-97510000D01*
X99570000Y-97490000D02*
X99590000Y-97490000D01*
X99530000Y-97450000D02*
X99570000Y-97490000D01*
X110900000Y-99900000D02*
X110920000Y-99880000D01*
X93275000Y-116999000D02*
X93275000Y-117800000D01*
X93442000Y-116832000D02*
X93275000Y-116999000D01*
D24*
X102870000Y-105570000D02*
X102870000Y-105520000D01*
X102880000Y-105580000D02*
X102870000Y-105570000D01*
X99125000Y-114525000D02*
X99125000Y-112825000D01*
X99125000Y-112825000D02*
X99240000Y-112710000D01*
X111580000Y-101930000D02*
X111580000Y-102040000D01*
X111630000Y-101880000D02*
X111580000Y-101930000D01*
X95050000Y-117800000D02*
X95050000Y-118948000D01*
X95050000Y-118948000D02*
X95220000Y-119118000D01*
D23*
X109021040Y-86928960D02*
X109199680Y-86928960D01*
X109046040Y-86928960D02*
X109199680Y-86928960D01*
X89150000Y-97500000D02*
X87150000Y-97500000D01*
X89500000Y-97850000D02*
X89150000Y-97500000D01*
X89500000Y-98500000D02*
X89500000Y-97850000D01*
X92800000Y-101800000D02*
X89500000Y-98500000D01*
X96000000Y-101800000D02*
X92800000Y-101800000D01*
X96625000Y-102425000D02*
X96000000Y-101800000D01*
X96625000Y-108550000D02*
X96625000Y-102425000D01*
X97375000Y-109300000D02*
X96625000Y-108550000D01*
X90250000Y-100125000D02*
X87235000Y-100125000D01*
X92375002Y-102250002D02*
X90250000Y-100125000D01*
X95750002Y-102250002D02*
X92375002Y-102250002D01*
X96075000Y-102575000D02*
X95750002Y-102250002D01*
X96075000Y-109025000D02*
X96075000Y-102575000D01*
X96325000Y-109275000D02*
X96075000Y-109025000D01*
X87235000Y-100125000D02*
X87150000Y-100040000D01*
X98600000Y-92925000D02*
X98450000Y-92775000D01*
X98600000Y-98650000D02*
X98600000Y-92925000D01*
X97150000Y-100100000D02*
X98600000Y-98650000D01*
X100725000Y-97325000D02*
X100725000Y-97150000D01*
X100725000Y-97150000D02*
X101325000Y-96550000D01*
X100725000Y-101575000D02*
X100725000Y-97325000D01*
X100725000Y-97325000D02*
X100725000Y-97275000D01*
X99825000Y-102475000D02*
X100725000Y-101575000D01*
X99150000Y-102475000D02*
X99825000Y-102475000D01*
X98725000Y-102900000D02*
X99150000Y-102475000D01*
X106825000Y-101950000D02*
X106825000Y-100155000D01*
X102870000Y-88240000D02*
X101579680Y-86949680D01*
X102870000Y-90780000D02*
X102870000Y-88240000D01*
X104380004Y-92290004D02*
X102870000Y-90780000D01*
X111405810Y-92290004D02*
X104380004Y-92290004D01*
X113297903Y-94182097D02*
X111405810Y-92290004D01*
X113297903Y-96872097D02*
X113297903Y-94182097D01*
X112770004Y-97399996D02*
X113297903Y-96872097D01*
X109580004Y-97399996D02*
X112770004Y-97399996D01*
X106825000Y-100155000D02*
X109580004Y-97399996D01*
X101579680Y-86949680D02*
X101579680Y-86928960D01*
X107625000Y-101875000D02*
X107625000Y-100165000D01*
X105360000Y-88169280D02*
X104119680Y-86928960D01*
X105360000Y-90760000D02*
X105360000Y-88169280D01*
X106440002Y-91840002D02*
X105360000Y-90760000D01*
X111592206Y-91840002D02*
X106440002Y-91840002D01*
X113799998Y-94047794D02*
X111592206Y-91840002D01*
X113799998Y-97263604D02*
X113799998Y-94047794D01*
X113213604Y-97849998D02*
X113799998Y-97263604D01*
X109940002Y-97849998D02*
X113213604Y-97849998D01*
X107625000Y-100165000D02*
X109940002Y-97849998D01*
X108575000Y-101975000D02*
X108575000Y-100505000D01*
X107980000Y-88150000D02*
X106758960Y-86928960D01*
X107980000Y-91140000D02*
X107980000Y-88150000D01*
X108230000Y-91390000D02*
X107980000Y-91140000D01*
X111778602Y-91390000D02*
X108230000Y-91390000D01*
X114250000Y-93861398D02*
X111778602Y-91390000D01*
X114250000Y-97450000D02*
X114250000Y-93861398D01*
X113400000Y-98300000D02*
X114250000Y-97450000D01*
X110780000Y-98300000D02*
X113400000Y-98300000D01*
X108575000Y-100505000D02*
X110780000Y-98300000D01*
X106758960Y-86928960D02*
X106659680Y-86928960D01*
X108575000Y-101975000D02*
X108600000Y-101975000D01*
X113635000Y-107815000D02*
X114270000Y-108450000D01*
X114270000Y-108450000D02*
X116514480Y-108450000D01*
X116514480Y-108450000D02*
X117124480Y-107840000D01*
X113660000Y-107840000D02*
X113635000Y-107815000D01*
X113635000Y-107815000D02*
X113000000Y-107180000D01*
X113000000Y-107180000D02*
X113000000Y-107230000D01*
X106220000Y-106520000D02*
X105345000Y-106520000D01*
X105250000Y-106425000D02*
X105117097Y-106292097D01*
X105117097Y-106292097D02*
X105117097Y-106017091D01*
X105117097Y-106017091D02*
X105117097Y-104507905D01*
X117124480Y-105300000D02*
X115225000Y-105300000D01*
X114100000Y-104175000D02*
X115225000Y-105300000D01*
X105450002Y-104175000D02*
X114100000Y-104175000D01*
X105117097Y-104507905D02*
X105450002Y-104175000D01*
X105345000Y-106520000D02*
X105250000Y-106425000D01*
X104825004Y-106975000D02*
X104825004Y-106975004D01*
X104825004Y-106975000D02*
X104600004Y-106750000D01*
X104600004Y-106750000D02*
X104600004Y-106525000D01*
X117124480Y-102760000D02*
X114690000Y-102760000D01*
X113750000Y-103700000D02*
X114690000Y-102760000D01*
X105147796Y-103700000D02*
X113750000Y-103700000D01*
X104600004Y-104247792D02*
X105147796Y-103700000D01*
X104600004Y-106525000D02*
X104600004Y-104247792D01*
X105350000Y-107500000D02*
X106550000Y-107500000D01*
X104825004Y-106975004D02*
X105350000Y-107500000D01*
X106550000Y-107500000D02*
X106575000Y-107500000D01*
X106575000Y-107500000D02*
X106550000Y-107525000D01*
X105800000Y-108375000D02*
X106225000Y-108375000D01*
X106225000Y-108375000D02*
X106275000Y-108325000D01*
X104150002Y-107300000D02*
X104150002Y-107700002D01*
X117124480Y-100220000D02*
X115730000Y-100220000D01*
X115250002Y-100699998D02*
X115730000Y-100220000D01*
X115250002Y-101511396D02*
X115250002Y-100699998D01*
X113561396Y-103200002D02*
X115250002Y-101511396D01*
X105011396Y-103200002D02*
X113561396Y-103200002D01*
X104150002Y-104061396D02*
X105011396Y-103200002D01*
X104150002Y-107300000D02*
X104150002Y-104061396D01*
X104825000Y-108375000D02*
X105800000Y-108375000D01*
X105800000Y-108375000D02*
X105850000Y-108375000D01*
X104150002Y-107700002D02*
X104825000Y-108375000D01*
X114800000Y-98725000D02*
X115845000Y-97680000D01*
X114800000Y-101325000D02*
X114800000Y-98725000D01*
X113400000Y-102725000D02*
X114800000Y-101325000D01*
X104850000Y-102725000D02*
X113400000Y-102725000D01*
X103700000Y-103875000D02*
X104850000Y-102725000D01*
X103700000Y-107975000D02*
X103700000Y-103875000D01*
X115845000Y-97680000D02*
X117124480Y-97680000D01*
X103700000Y-108300000D02*
X103700000Y-107975000D01*
X109199680Y-89468960D02*
X110493960Y-89468960D01*
X117124480Y-96099480D02*
X117124480Y-97680000D01*
X110493960Y-89468960D02*
X117124480Y-96099480D01*
X84070000Y-111350000D02*
X82500000Y-112920000D01*
X87475000Y-111350000D02*
X84070000Y-111350000D01*
X87550000Y-111425000D02*
X87475000Y-111350000D01*
X90350000Y-90925000D02*
X90325000Y-90950000D01*
X95525000Y-90925000D02*
X90350000Y-90925000D01*
X98075000Y-93475000D02*
X95525000Y-90925000D01*
X98075000Y-98175000D02*
X98075000Y-93475000D01*
X96375000Y-99875000D02*
X98075000Y-98175000D01*
X96375000Y-101050000D02*
X96375000Y-99875000D01*
X98000000Y-102675000D02*
X96375000Y-101050000D01*
X98000000Y-105650000D02*
X98000000Y-102675000D01*
X97975000Y-105675000D02*
X98000000Y-105650000D01*
X93275000Y-114700000D02*
X93900000Y-114075000D01*
X93900000Y-114075000D02*
X94325000Y-114075000D01*
X93275000Y-115600000D02*
X93275000Y-114700000D01*
X109750000Y-109440000D02*
X109380000Y-109810000D01*
X109380000Y-109810000D02*
X109190000Y-109810000D01*
X109750000Y-109440000D02*
X109750000Y-108930000D01*
X109750000Y-108930000D02*
X109750000Y-106150000D01*
X109750000Y-106150000D02*
X110800000Y-105100000D01*
X110800000Y-105100000D02*
X112950000Y-105100000D01*
X109750000Y-108955000D02*
X109750000Y-108930000D01*
X93250000Y-114375000D02*
X93250000Y-115575000D01*
X93250000Y-115575000D02*
X93275000Y-115600000D01*
X93250000Y-110900000D02*
X93250000Y-114375000D01*
X93250000Y-114375000D02*
X93250000Y-114400000D01*
X105888000Y-110990000D02*
X98415000Y-110990000D01*
X98415000Y-110990000D02*
X97849998Y-110424998D01*
X97833500Y-110408500D02*
X97849998Y-110424998D01*
X97600000Y-110175000D02*
X97833500Y-110408500D01*
X96325000Y-110175000D02*
X97600000Y-110175000D01*
X95700000Y-110800000D02*
X96325000Y-110175000D01*
X95700000Y-110800000D02*
X95700000Y-110825000D01*
X109299998Y-108660002D02*
X108450000Y-109510000D01*
X108450000Y-109510000D02*
X108450000Y-109520000D01*
X108450000Y-109520000D02*
X108260000Y-109710000D01*
X109299998Y-106049998D02*
X109299998Y-107825002D01*
X108225000Y-104975000D02*
X109299998Y-106049998D01*
X107575000Y-104975000D02*
X108225000Y-104975000D01*
X107700000Y-105100000D02*
X107575000Y-104975000D01*
X107700000Y-104950000D02*
X107700000Y-105100000D01*
X109299998Y-107825002D02*
X109299998Y-108660002D01*
X105913000Y-111015000D02*
X105913000Y-111070000D01*
X105888000Y-110990000D02*
X105913000Y-111015000D01*
X95025000Y-115575000D02*
X95025000Y-114400000D01*
X95775000Y-113650000D02*
X95025000Y-114400000D01*
X95775000Y-110900000D02*
X95775000Y-113650000D01*
X95775000Y-110900000D02*
X95700000Y-110825000D01*
X95025000Y-115575000D02*
X95050000Y-115600000D01*
X106975000Y-110875000D02*
X106975000Y-111173000D01*
X108849996Y-107920004D02*
X108170000Y-108600000D01*
X108170000Y-108600000D02*
X108140000Y-108600000D01*
X107300000Y-110290000D02*
X107275000Y-110315000D01*
X107275000Y-110315000D02*
X107275000Y-110575000D01*
X107275000Y-110575000D02*
X107300000Y-110550000D01*
X106975000Y-110875000D02*
X107300000Y-110550000D01*
X108849996Y-107520000D02*
X108849996Y-107920004D01*
X98124000Y-111642000D02*
X96800000Y-112966000D01*
X106506000Y-111642000D02*
X98124000Y-111642000D01*
X106975000Y-111173000D02*
X106506000Y-111642000D01*
X108849996Y-106236394D02*
X108849996Y-107520000D01*
X108849996Y-107520000D02*
X108849996Y-107575004D01*
X108213602Y-105600000D02*
X108849996Y-106236394D01*
X107350000Y-105600000D02*
X108213602Y-105600000D01*
X107125000Y-105375000D02*
X107350000Y-105600000D01*
X107125000Y-105225000D02*
X107125000Y-105375000D01*
X106750000Y-104850000D02*
X107125000Y-105225000D01*
X96800000Y-111025000D02*
X96800000Y-112966000D01*
X96950000Y-110875000D02*
X96800000Y-111025000D01*
X96800000Y-112966000D02*
X96800000Y-114400000D01*
X101625000Y-113600000D02*
X101625000Y-113550000D01*
X101325000Y-113900000D02*
X101625000Y-113600000D01*
X101325000Y-115950000D02*
X101325000Y-113900000D01*
X100125000Y-117150000D02*
X101325000Y-115950000D01*
X99250000Y-118025000D02*
X100125000Y-117150000D01*
X100775000Y-113650000D02*
X100675000Y-113550000D01*
X100800000Y-113650000D02*
X100775000Y-113650000D01*
X100874998Y-113724998D02*
X100800000Y-113650000D01*
X100874998Y-115763604D02*
X100874998Y-113724998D01*
X99263602Y-117375000D02*
X100874998Y-115763604D01*
X98125000Y-117375000D02*
X99263602Y-117375000D01*
X97450000Y-118050000D02*
X98125000Y-117375000D01*
X97275000Y-118050000D02*
X97450000Y-118050000D01*
D25*
G36*
X119099041Y-86169387D02*
X119122902Y-86203602D01*
X119122509Y-87824156D01*
X118830883Y-87116284D01*
X118823659Y-87105472D01*
X118380191Y-86799414D01*
X116179605Y-89000000D01*
X118380191Y-91200586D01*
X118823659Y-90894528D01*
X119121938Y-90178294D01*
X119114027Y-122803569D01*
X118830883Y-122116284D01*
X118823659Y-122105472D01*
X118380191Y-121799414D01*
X116179605Y-124000000D01*
X118380191Y-126200586D01*
X118823659Y-125894528D01*
X119113447Y-125198684D01*
X119113154Y-126407700D01*
X119000374Y-126557870D01*
X118530939Y-126835415D01*
X117978456Y-126913976D01*
X117681463Y-126914206D01*
X117883716Y-126830883D01*
X117894528Y-126823659D01*
X118200586Y-126380191D01*
X116000000Y-124179605D01*
X113799414Y-126380191D01*
X114105472Y-126823659D01*
X114329128Y-126916802D01*
X97281179Y-126930000D01*
X85643126Y-126930000D01*
X85883716Y-126830883D01*
X85894528Y-126823659D01*
X86200586Y-126380191D01*
X84000000Y-124179605D01*
X81799414Y-126380191D01*
X82105472Y-126823659D01*
X82360820Y-126930000D01*
X81324683Y-126930000D01*
X80963346Y-126864101D01*
X80730961Y-126714133D01*
X80618259Y-126551154D01*
X80622853Y-124656995D01*
X80663738Y-124656995D01*
X81169117Y-125883716D01*
X81176341Y-125894528D01*
X81619809Y-126200586D01*
X83820395Y-124000000D01*
X84179605Y-124000000D01*
X86380191Y-126200586D01*
X86823659Y-125894528D01*
X87333725Y-124669748D01*
X87333749Y-124656995D01*
X112663738Y-124656995D01*
X113169117Y-125883716D01*
X113176341Y-125894528D01*
X113619809Y-126200586D01*
X115820395Y-124000000D01*
X113619809Y-121799414D01*
X113176341Y-122105472D01*
X112666275Y-123330252D01*
X112663738Y-124656995D01*
X87333749Y-124656995D01*
X87336262Y-123343005D01*
X86830883Y-122116284D01*
X86823659Y-122105472D01*
X86380191Y-121799414D01*
X84179605Y-124000000D01*
X83820395Y-124000000D01*
X81619809Y-121799414D01*
X81176341Y-122105472D01*
X80666275Y-123330252D01*
X80663738Y-124656995D01*
X80622853Y-124656995D01*
X80630219Y-121619809D01*
X81799414Y-121619809D01*
X84000000Y-123820395D01*
X86200586Y-121619809D01*
X113799414Y-121619809D01*
X116000000Y-123820395D01*
X118200586Y-121619809D01*
X117894528Y-121176341D01*
X116669748Y-120666275D01*
X115343005Y-120663738D01*
X114116284Y-121169117D01*
X114105472Y-121176341D01*
X113799414Y-121619809D01*
X86200586Y-121619809D01*
X85894528Y-121176341D01*
X84669748Y-120666275D01*
X83343005Y-120663738D01*
X82116284Y-121169117D01*
X82105472Y-121176341D01*
X81799414Y-121619809D01*
X80630219Y-121619809D01*
X80638306Y-118285750D01*
X80849000Y-118285750D01*
X80849000Y-118989910D01*
X80945673Y-119223299D01*
X81124302Y-119401927D01*
X81357691Y-119498600D01*
X82214250Y-119498600D01*
X82373000Y-119339850D01*
X82373000Y-118127000D01*
X82627000Y-118127000D01*
X82627000Y-119339850D01*
X82785750Y-119498600D01*
X83642309Y-119498600D01*
X83875698Y-119401927D01*
X84054327Y-119223299D01*
X84151000Y-118989910D01*
X84151000Y-118285750D01*
X83992250Y-118127000D01*
X82627000Y-118127000D01*
X82373000Y-118127000D01*
X81007750Y-118127000D01*
X80849000Y-118285750D01*
X80638306Y-118285750D01*
X80688284Y-97680000D01*
X80816655Y-97680000D01*
X80930729Y-98253489D01*
X81255585Y-98739670D01*
X81570366Y-98950000D01*
X81255585Y-99160330D01*
X80930729Y-99646511D01*
X80816655Y-100220000D01*
X80930729Y-100793489D01*
X81255585Y-101279670D01*
X81570366Y-101490000D01*
X81255585Y-101700330D01*
X80930729Y-102186511D01*
X80816655Y-102760000D01*
X80930729Y-103333489D01*
X81255585Y-103819670D01*
X81570366Y-104030000D01*
X81255585Y-104240330D01*
X80930729Y-104726511D01*
X80816655Y-105300000D01*
X80930729Y-105873489D01*
X81255585Y-106359670D01*
X81570366Y-106570000D01*
X81255585Y-106780330D01*
X80930729Y-107266511D01*
X80816655Y-107840000D01*
X80930729Y-108413489D01*
X81255585Y-108899670D01*
X81570366Y-109110000D01*
X81255585Y-109320330D01*
X80930729Y-109806511D01*
X80816655Y-110380000D01*
X80930729Y-110953489D01*
X81255585Y-111439670D01*
X81570366Y-111650000D01*
X81255585Y-111860330D01*
X80930729Y-112346511D01*
X80816655Y-112920000D01*
X80930729Y-113493489D01*
X81255585Y-113979670D01*
X81570366Y-114190000D01*
X81255585Y-114400330D01*
X80930729Y-114886511D01*
X80816655Y-115460000D01*
X80930729Y-116033489D01*
X81255585Y-116519670D01*
X81277780Y-116534500D01*
X81124302Y-116598073D01*
X80945673Y-116776701D01*
X80849000Y-117010090D01*
X80849000Y-117714250D01*
X81007750Y-117873000D01*
X82373000Y-117873000D01*
X82373000Y-117853000D01*
X82627000Y-117853000D01*
X82627000Y-117873000D01*
X83992250Y-117873000D01*
X84151000Y-117714250D01*
X84151000Y-117695167D01*
X87614838Y-117695167D01*
X87756883Y-118038943D01*
X88019673Y-118302192D01*
X88363201Y-118444838D01*
X88735167Y-118445162D01*
X89078943Y-118303117D01*
X89296689Y-118085750D01*
X92190000Y-118085750D01*
X92190000Y-118526309D01*
X92286673Y-118759698D01*
X92465301Y-118938327D01*
X92698690Y-119035000D01*
X92989250Y-119035000D01*
X93148000Y-118876250D01*
X93148000Y-117927000D01*
X92348750Y-117927000D01*
X92190000Y-118085750D01*
X89296689Y-118085750D01*
X89342192Y-118040327D01*
X89484838Y-117696799D01*
X89485162Y-117324833D01*
X89343117Y-116981057D01*
X89080327Y-116717808D01*
X88736799Y-116575162D01*
X88364833Y-116574838D01*
X88021057Y-116716883D01*
X87757808Y-116979673D01*
X87615162Y-117323201D01*
X87614838Y-117695167D01*
X84151000Y-117695167D01*
X84151000Y-117010090D01*
X84054327Y-116776701D01*
X83875698Y-116598073D01*
X83722220Y-116534500D01*
X83744415Y-116519670D01*
X83968353Y-116184523D01*
X84080839Y-116162148D01*
X84327401Y-115997401D01*
X84862401Y-115462401D01*
X85027148Y-115215840D01*
X85085000Y-114925000D01*
X85085000Y-113560000D01*
X87062537Y-113560000D01*
X87094673Y-113592192D01*
X87438201Y-113734838D01*
X87810167Y-113735162D01*
X88153943Y-113593117D01*
X88417192Y-113330327D01*
X88559838Y-112986799D01*
X88560162Y-112614833D01*
X88418117Y-112271057D01*
X88222356Y-112074954D01*
X88342192Y-111955327D01*
X88484838Y-111611799D01*
X88485162Y-111239833D01*
X88343117Y-110896057D01*
X88080327Y-110632808D01*
X87736799Y-110490162D01*
X87364833Y-110489838D01*
X87122422Y-110590000D01*
X84141573Y-110590000D01*
X84183345Y-110380000D01*
X84069271Y-109806511D01*
X83744415Y-109320330D01*
X83429634Y-109110000D01*
X83744415Y-108899670D01*
X84069271Y-108413489D01*
X84183345Y-107840000D01*
X84069271Y-107266511D01*
X83744415Y-106780330D01*
X83429634Y-106570000D01*
X83744415Y-106359670D01*
X84069271Y-105873489D01*
X84183345Y-105300000D01*
X84069271Y-104726511D01*
X83744415Y-104240330D01*
X83429634Y-104030000D01*
X83744415Y-103819670D01*
X84069271Y-103333489D01*
X84183345Y-102760000D01*
X84069271Y-102186511D01*
X83744415Y-101700330D01*
X83429634Y-101490000D01*
X83744415Y-101279670D01*
X84069271Y-100793489D01*
X84183345Y-100220000D01*
X84069271Y-99646511D01*
X83744415Y-99160330D01*
X83429634Y-98950000D01*
X83744415Y-98739670D01*
X84069271Y-98253489D01*
X84183345Y-97680000D01*
X84069271Y-97106511D01*
X83744415Y-96620330D01*
X83258234Y-96295474D01*
X82684745Y-96181400D01*
X82315255Y-96181400D01*
X81741766Y-96295474D01*
X81255585Y-96620330D01*
X80930729Y-97106511D01*
X80816655Y-97680000D01*
X80688284Y-97680000D01*
X80703563Y-91380191D01*
X81799414Y-91380191D01*
X82105472Y-91823659D01*
X83330252Y-92333725D01*
X84656995Y-92336262D01*
X85883716Y-91830883D01*
X85894528Y-91823659D01*
X86200586Y-91380191D01*
X84000000Y-89179605D01*
X81799414Y-91380191D01*
X80703563Y-91380191D01*
X80707486Y-89763185D01*
X81169117Y-90883716D01*
X81176341Y-90894528D01*
X81619809Y-91200586D01*
X83820395Y-89000000D01*
X84179605Y-89000000D01*
X86380191Y-91200586D01*
X86823659Y-90894528D01*
X87333725Y-89669748D01*
X87336262Y-88343005D01*
X86830883Y-87116284D01*
X86823659Y-87105472D01*
X86380191Y-86799414D01*
X84179605Y-89000000D01*
X83820395Y-89000000D01*
X81619809Y-86799414D01*
X81176341Y-87105472D01*
X80711223Y-88222322D01*
X80716608Y-86001827D01*
X80760923Y-85966937D01*
X82611703Y-85965017D01*
X82116284Y-86169117D01*
X82105472Y-86176341D01*
X81799414Y-86619809D01*
X84000000Y-88820395D01*
X86200586Y-86619809D01*
X85894528Y-86176341D01*
X85380194Y-85962144D01*
X97944022Y-85949108D01*
X97756992Y-86154013D01*
X97584722Y-86569934D01*
X97705863Y-86801960D01*
X98912680Y-86801960D01*
X98912680Y-86781960D01*
X99166680Y-86781960D01*
X99166680Y-86801960D01*
X99186680Y-86801960D01*
X99186680Y-87055960D01*
X99166680Y-87055960D01*
X99166680Y-87075960D01*
X98912680Y-87075960D01*
X98912680Y-87055960D01*
X97705863Y-87055960D01*
X97584722Y-87287986D01*
X97756992Y-87703907D01*
X98151190Y-88135781D01*
X98273908Y-88193296D01*
X97950651Y-88409290D01*
X97625795Y-88895471D01*
X97511721Y-89468960D01*
X97625795Y-90042449D01*
X97950651Y-90528630D01*
X98436832Y-90853486D01*
X99010321Y-90967560D01*
X99069039Y-90967560D01*
X99642528Y-90853486D01*
X100128709Y-90528630D01*
X100309680Y-90257788D01*
X100490651Y-90528630D01*
X100976832Y-90853486D01*
X101550321Y-90967560D01*
X101609039Y-90967560D01*
X102126822Y-90864567D01*
X102167852Y-91070839D01*
X102332599Y-91317401D01*
X103842603Y-92827405D01*
X103970080Y-92912582D01*
X103970080Y-94833440D01*
X104014358Y-95068757D01*
X104153430Y-95284881D01*
X104365630Y-95429871D01*
X104617520Y-95480880D01*
X106344720Y-95480880D01*
X106580037Y-95436602D01*
X106796161Y-95297530D01*
X106941151Y-95085330D01*
X106949520Y-95044001D01*
X106961450Y-95061855D01*
X107447631Y-95386711D01*
X108021120Y-95500785D01*
X108594609Y-95386711D01*
X109080790Y-95061855D01*
X109287581Y-94752371D01*
X109659084Y-95168172D01*
X110186329Y-95422149D01*
X110202094Y-95424798D01*
X110434120Y-95303657D01*
X110434120Y-93944440D01*
X110414120Y-93944440D01*
X110414120Y-93690440D01*
X110434120Y-93690440D01*
X110434120Y-93670440D01*
X110688120Y-93670440D01*
X110688120Y-93690440D01*
X110708120Y-93690440D01*
X110708120Y-93944440D01*
X110688120Y-93944440D01*
X110688120Y-95303657D01*
X110920146Y-95424798D01*
X110935911Y-95422149D01*
X111463156Y-95168172D01*
X111853074Y-94731760D01*
X112046304Y-94179353D01*
X111902045Y-93944442D01*
X111985446Y-93944442D01*
X112537903Y-94496899D01*
X112537903Y-96557295D01*
X112455202Y-96639996D01*
X109580004Y-96639996D01*
X109289165Y-96697848D01*
X109042603Y-96862595D01*
X106287599Y-99617599D01*
X106122852Y-99864161D01*
X106065000Y-100155000D01*
X106065000Y-101387537D01*
X106032808Y-101419673D01*
X105890162Y-101763201D01*
X105889986Y-101965000D01*
X104850000Y-101965000D01*
X104559161Y-102022852D01*
X104312599Y-102187599D01*
X103162599Y-103337599D01*
X102997852Y-103584161D01*
X102940000Y-103875000D01*
X102940000Y-104645052D01*
X102694833Y-104644838D01*
X102351057Y-104786883D01*
X102087808Y-105049673D01*
X101945162Y-105393201D01*
X101944838Y-105765167D01*
X102086883Y-106108943D01*
X102349673Y-106372192D01*
X102693201Y-106514838D01*
X102940000Y-106515053D01*
X102940000Y-107737537D01*
X102907808Y-107769673D01*
X102765162Y-108113201D01*
X102764838Y-108485167D01*
X102906883Y-108828943D01*
X103169673Y-109092192D01*
X103513201Y-109234838D01*
X103885167Y-109235162D01*
X104228943Y-109093117D01*
X104360907Y-108961384D01*
X104534160Y-109077148D01*
X104825000Y-109135000D01*
X105787559Y-109135000D01*
X106088201Y-109259838D01*
X106460167Y-109260162D01*
X106803943Y-109118117D01*
X107067192Y-108855327D01*
X107205066Y-108523291D01*
X107204838Y-108785167D01*
X107346883Y-109128943D01*
X107447161Y-109229396D01*
X107394971Y-109355082D01*
X107114833Y-109354838D01*
X106771057Y-109496883D01*
X106507808Y-109759673D01*
X106365162Y-110103201D01*
X106365099Y-110175706D01*
X106074799Y-110055162D01*
X105702833Y-110054838D01*
X105359057Y-110196883D01*
X105325882Y-110230000D01*
X98729803Y-110230000D01*
X98387399Y-109887597D01*
X98214999Y-109715197D01*
X98309838Y-109486799D01*
X98310162Y-109114833D01*
X98168117Y-108771057D01*
X97905327Y-108507808D01*
X97561799Y-108365162D01*
X97514923Y-108365121D01*
X97385000Y-108235198D01*
X97385000Y-106407415D01*
X97444673Y-106467192D01*
X97788201Y-106609838D01*
X98160167Y-106610162D01*
X98503943Y-106468117D01*
X98767192Y-106205327D01*
X98909838Y-105861799D01*
X98910162Y-105489833D01*
X98768117Y-105146057D01*
X98760000Y-105137926D01*
X98760000Y-103835031D01*
X98910167Y-103835162D01*
X99253943Y-103693117D01*
X99517192Y-103430327D01*
X99598299Y-103235000D01*
X99825000Y-103235000D01*
X100115839Y-103177148D01*
X100362401Y-103012401D01*
X101262401Y-102112401D01*
X101427148Y-101865840D01*
X101485000Y-101575000D01*
X101485000Y-97485140D01*
X101510167Y-97485162D01*
X101853943Y-97343117D01*
X102117192Y-97080327D01*
X102259838Y-96736799D01*
X102260162Y-96364833D01*
X102118117Y-96021057D01*
X101855327Y-95757808D01*
X101511799Y-95615162D01*
X101139833Y-95614838D01*
X100796057Y-95756883D01*
X100532808Y-96019673D01*
X100390162Y-96363201D01*
X100390121Y-96410077D01*
X100187599Y-96612599D01*
X100022852Y-96859161D01*
X99965000Y-97150000D01*
X99965000Y-101260198D01*
X99510198Y-101715000D01*
X99150000Y-101715000D01*
X98859161Y-101772852D01*
X98612599Y-101937599D01*
X98585320Y-101964878D01*
X98539833Y-101964838D01*
X98415863Y-102016061D01*
X97405785Y-101005983D01*
X97678943Y-100893117D01*
X97942192Y-100630327D01*
X98084838Y-100286799D01*
X98084879Y-100239923D01*
X99137401Y-99187401D01*
X99302148Y-98940839D01*
X99360000Y-98650000D01*
X99360000Y-93021615D01*
X99384838Y-92961799D01*
X99385162Y-92589833D01*
X99243117Y-92246057D01*
X98980327Y-91982808D01*
X98636799Y-91840162D01*
X98264833Y-91839838D01*
X97921057Y-91981883D01*
X97788756Y-92113954D01*
X96062401Y-90387599D01*
X95815839Y-90222852D01*
X95525000Y-90165000D01*
X90862506Y-90165000D01*
X90855327Y-90157808D01*
X90511799Y-90015162D01*
X90139833Y-90014838D01*
X89796057Y-90156883D01*
X89532808Y-90419673D01*
X89390162Y-90763201D01*
X89389838Y-91135167D01*
X89531883Y-91478943D01*
X89794673Y-91742192D01*
X90138201Y-91884838D01*
X90510167Y-91885162D01*
X90853943Y-91743117D01*
X90912162Y-91685000D01*
X95210198Y-91685000D01*
X97315000Y-93789802D01*
X97315000Y-97860198D01*
X95837599Y-99337599D01*
X95672852Y-99584161D01*
X95615000Y-99875000D01*
X95615000Y-101040000D01*
X93114802Y-101040000D01*
X92327969Y-100253167D01*
X93522838Y-100253167D01*
X93664883Y-100596943D01*
X93927673Y-100860192D01*
X94271201Y-101002838D01*
X94643167Y-101003162D01*
X94986943Y-100861117D01*
X95250192Y-100598327D01*
X95392838Y-100254799D01*
X95393162Y-99882833D01*
X95251117Y-99539057D01*
X94988327Y-99275808D01*
X94644799Y-99133162D01*
X94272833Y-99132838D01*
X93929057Y-99274883D01*
X93665808Y-99537673D01*
X93523162Y-99881201D01*
X93522838Y-100253167D01*
X92327969Y-100253167D01*
X90260000Y-98185198D01*
X90260000Y-97850000D01*
X90202148Y-97559161D01*
X90037401Y-97312599D01*
X89687401Y-96962599D01*
X89440839Y-96797852D01*
X89150000Y-96740000D01*
X88813440Y-96740000D01*
X88813440Y-96484000D01*
X88769162Y-96248683D01*
X88630090Y-96032559D01*
X88417890Y-95887569D01*
X88166000Y-95836560D01*
X86134000Y-95836560D01*
X85898683Y-95880838D01*
X85682559Y-96019910D01*
X85537569Y-96232110D01*
X85486560Y-96484000D01*
X85486560Y-98516000D01*
X85530838Y-98751317D01*
X85669910Y-98967441D01*
X85826206Y-99074233D01*
X85624675Y-99375845D01*
X85499000Y-100007655D01*
X85499000Y-100072345D01*
X85624675Y-100704155D01*
X85982567Y-101239778D01*
X86518190Y-101597670D01*
X87150000Y-101723345D01*
X87781810Y-101597670D01*
X88317433Y-101239778D01*
X88554488Y-100885000D01*
X89935198Y-100885000D01*
X91837601Y-102787403D01*
X92084163Y-102952150D01*
X92375002Y-103010002D01*
X95315000Y-103010002D01*
X95315000Y-109025000D01*
X95372852Y-109315839D01*
X95389941Y-109341415D01*
X95389838Y-109460167D01*
X95531883Y-109803943D01*
X95576530Y-109848668D01*
X95535342Y-109889856D01*
X95514833Y-109889838D01*
X95171057Y-110031883D01*
X94907808Y-110294673D01*
X94765162Y-110638201D01*
X94764838Y-111010167D01*
X94906883Y-111353943D01*
X95015000Y-111462249D01*
X95015000Y-113335198D01*
X94961266Y-113388932D01*
X94855327Y-113282808D01*
X94511799Y-113140162D01*
X94139833Y-113139838D01*
X94010000Y-113193484D01*
X94010000Y-111462463D01*
X94042192Y-111430327D01*
X94184838Y-111086799D01*
X94185162Y-110714833D01*
X94043117Y-110371057D01*
X93780327Y-110107808D01*
X93436799Y-109965162D01*
X93064833Y-109964838D01*
X92721057Y-110106883D01*
X92457808Y-110369673D01*
X92315162Y-110713201D01*
X92314838Y-111085167D01*
X92456883Y-111428943D01*
X92490000Y-111462118D01*
X92490000Y-114460982D01*
X92373559Y-114535910D01*
X92228569Y-114748110D01*
X92177560Y-115000000D01*
X92177560Y-116200000D01*
X92221838Y-116435317D01*
X92360910Y-116651441D01*
X92429006Y-116697969D01*
X92286673Y-116840302D01*
X92190000Y-117073691D01*
X92190000Y-117514250D01*
X92348750Y-117673000D01*
X93148000Y-117673000D01*
X93148000Y-117653000D01*
X93402000Y-117653000D01*
X93402000Y-117673000D01*
X93422000Y-117673000D01*
X93422000Y-117927000D01*
X93402000Y-117927000D01*
X93402000Y-118876250D01*
X93560750Y-119035000D01*
X93851310Y-119035000D01*
X94084699Y-118938327D01*
X94157104Y-118865922D01*
X94265000Y-118939644D01*
X94265000Y-118948000D01*
X94285060Y-119048845D01*
X94284838Y-119303167D01*
X94426883Y-119646943D01*
X94689673Y-119910192D01*
X95033201Y-120052838D01*
X95405167Y-120053162D01*
X95748943Y-119911117D01*
X96012192Y-119648327D01*
X96154838Y-119304799D01*
X96155162Y-118932833D01*
X96060692Y-118704196D01*
X96096431Y-118651890D01*
X96147440Y-118400000D01*
X96147440Y-117200000D01*
X96103162Y-116964683D01*
X95964090Y-116748559D01*
X95894289Y-116700866D01*
X95951441Y-116664090D01*
X96096431Y-116451890D01*
X96147440Y-116200000D01*
X96147440Y-115586483D01*
X96325000Y-115622440D01*
X97525000Y-115622440D01*
X97760317Y-115578162D01*
X97976441Y-115439090D01*
X98024134Y-115369289D01*
X98060910Y-115426441D01*
X98273110Y-115571431D01*
X98525000Y-115622440D01*
X99725000Y-115622440D01*
X99960317Y-115578162D01*
X100031340Y-115532460D01*
X98948800Y-116615000D01*
X98125000Y-116615000D01*
X97834161Y-116672852D01*
X97587599Y-116837599D01*
X97310168Y-117115030D01*
X97089833Y-117114838D01*
X96746057Y-117256883D01*
X96482808Y-117519673D01*
X96340162Y-117863201D01*
X96339838Y-118235167D01*
X96481883Y-118578943D01*
X96744673Y-118842192D01*
X97088201Y-118984838D01*
X97460167Y-118985162D01*
X97803943Y-118843117D01*
X98067192Y-118580327D01*
X98118828Y-118455974D01*
X98329398Y-118245404D01*
X98456883Y-118553943D01*
X98719673Y-118817192D01*
X99063201Y-118959838D01*
X99435167Y-118960162D01*
X99778943Y-118818117D01*
X100042192Y-118555327D01*
X100148452Y-118299427D01*
X100156623Y-118319203D01*
X100419413Y-118582452D01*
X100762941Y-118725098D01*
X101134907Y-118725422D01*
X101478683Y-118583377D01*
X101487075Y-118575000D01*
X101510000Y-118575000D01*
X101810407Y-118515245D01*
X102065079Y-118345079D01*
X102124408Y-118285750D01*
X115473480Y-118285750D01*
X115473480Y-118989910D01*
X115570153Y-119223299D01*
X115748782Y-119401927D01*
X115982171Y-119498600D01*
X116838730Y-119498600D01*
X116997480Y-119339850D01*
X116997480Y-118127000D01*
X117251480Y-118127000D01*
X117251480Y-119339850D01*
X117410230Y-119498600D01*
X118266789Y-119498600D01*
X118500178Y-119401927D01*
X118678807Y-119223299D01*
X118775480Y-118989910D01*
X118775480Y-118285750D01*
X118616730Y-118127000D01*
X117251480Y-118127000D01*
X116997480Y-118127000D01*
X115632230Y-118127000D01*
X115473480Y-118285750D01*
X102124408Y-118285750D01*
X102835079Y-117575079D01*
X102875723Y-117514250D01*
X103005245Y-117320406D01*
X103065000Y-117020000D01*
X103065000Y-114605157D01*
X103165076Y-114505081D01*
X103165079Y-114505079D01*
X103335245Y-114250406D01*
X103395000Y-113950000D01*
X103395000Y-113177506D01*
X103402192Y-113170327D01*
X103544838Y-112826799D01*
X103545162Y-112454833D01*
X103523332Y-112402000D01*
X106506000Y-112402000D01*
X106796839Y-112344148D01*
X107043401Y-112179401D01*
X107512401Y-111710401D01*
X107677148Y-111463839D01*
X107730828Y-111193974D01*
X107837401Y-111087401D01*
X107862940Y-111049179D01*
X108092192Y-110820327D01*
X108165029Y-110644918D01*
X108445167Y-110645162D01*
X108627402Y-110569864D01*
X108659673Y-110602192D01*
X109003201Y-110744838D01*
X109375167Y-110745162D01*
X109718943Y-110603117D01*
X109982192Y-110340327D01*
X110023177Y-110241625D01*
X110287401Y-109977401D01*
X110452148Y-109730839D01*
X110510000Y-109440000D01*
X110510000Y-106464802D01*
X111114802Y-105860000D01*
X111768015Y-105860000D01*
X111725162Y-105963201D01*
X111724838Y-106335167D01*
X111866883Y-106678943D01*
X112099072Y-106911537D01*
X112065162Y-106993201D01*
X112064838Y-107365167D01*
X112206883Y-107708943D01*
X112469673Y-107972192D01*
X112813201Y-108114838D01*
X112860077Y-108114879D01*
X113732599Y-108987401D01*
X113979161Y-109152148D01*
X114270000Y-109210000D01*
X116045185Y-109210000D01*
X115880065Y-109320330D01*
X115555209Y-109806511D01*
X115441135Y-110380000D01*
X115555209Y-110953489D01*
X115880065Y-111439670D01*
X116194846Y-111650000D01*
X115880065Y-111860330D01*
X115555209Y-112346511D01*
X115441135Y-112920000D01*
X115555209Y-113493489D01*
X115880065Y-113979670D01*
X116194846Y-114190000D01*
X115880065Y-114400330D01*
X115555209Y-114886511D01*
X115441135Y-115460000D01*
X115555209Y-116033489D01*
X115880065Y-116519670D01*
X115902260Y-116534500D01*
X115748782Y-116598073D01*
X115570153Y-116776701D01*
X115473480Y-117010090D01*
X115473480Y-117714250D01*
X115632230Y-117873000D01*
X116997480Y-117873000D01*
X116997480Y-117853000D01*
X117251480Y-117853000D01*
X117251480Y-117873000D01*
X118616730Y-117873000D01*
X118775480Y-117714250D01*
X118775480Y-117010090D01*
X118678807Y-116776701D01*
X118500178Y-116598073D01*
X118346700Y-116534500D01*
X118368895Y-116519670D01*
X118693751Y-116033489D01*
X118807825Y-115460000D01*
X118693751Y-114886511D01*
X118368895Y-114400330D01*
X118054114Y-114190000D01*
X118368895Y-113979670D01*
X118693751Y-113493489D01*
X118807825Y-112920000D01*
X118693751Y-112346511D01*
X118368895Y-111860330D01*
X118054114Y-111650000D01*
X118368895Y-111439670D01*
X118693751Y-110953489D01*
X118807825Y-110380000D01*
X118693751Y-109806511D01*
X118368895Y-109320330D01*
X118054114Y-109110000D01*
X118368895Y-108899670D01*
X118693751Y-108413489D01*
X118807825Y-107840000D01*
X118693751Y-107266511D01*
X118368895Y-106780330D01*
X118054114Y-106570000D01*
X118368895Y-106359670D01*
X118693751Y-105873489D01*
X118807825Y-105300000D01*
X118693751Y-104726511D01*
X118368895Y-104240330D01*
X118054114Y-104030000D01*
X118368895Y-103819670D01*
X118693751Y-103333489D01*
X118807825Y-102760000D01*
X118693751Y-102186511D01*
X118368895Y-101700330D01*
X118054114Y-101490000D01*
X118368895Y-101279670D01*
X118693751Y-100793489D01*
X118807825Y-100220000D01*
X118693751Y-99646511D01*
X118368895Y-99160330D01*
X118054114Y-98950000D01*
X118368895Y-98739670D01*
X118693751Y-98253489D01*
X118807825Y-97680000D01*
X118693751Y-97106511D01*
X118368895Y-96620330D01*
X117884480Y-96296654D01*
X117884480Y-96099480D01*
X117826628Y-95808640D01*
X117661881Y-95562079D01*
X113479993Y-91380191D01*
X113799414Y-91380191D01*
X114105472Y-91823659D01*
X115330252Y-92333725D01*
X116656995Y-92336262D01*
X117883716Y-91830883D01*
X117894528Y-91823659D01*
X118200586Y-91380191D01*
X116000000Y-89179605D01*
X113799414Y-91380191D01*
X113479993Y-91380191D01*
X111756797Y-89656995D01*
X112663738Y-89656995D01*
X113169117Y-90883716D01*
X113176341Y-90894528D01*
X113619809Y-91200586D01*
X115820395Y-89000000D01*
X113619809Y-86799414D01*
X113176341Y-87105472D01*
X112666275Y-88330252D01*
X112663738Y-89656995D01*
X111756797Y-89656995D01*
X111031361Y-88931559D01*
X110784799Y-88766812D01*
X110710720Y-88752077D01*
X110710720Y-88605360D01*
X110666442Y-88370043D01*
X110527370Y-88153919D01*
X110315170Y-88008929D01*
X110271549Y-88000096D01*
X110288709Y-87988630D01*
X110613565Y-87502449D01*
X110727639Y-86928960D01*
X110613565Y-86355471D01*
X110333452Y-85936252D01*
X114692503Y-85931729D01*
X114116284Y-86169117D01*
X114105472Y-86176341D01*
X113799414Y-86619809D01*
X116000000Y-88820395D01*
X118200586Y-86619809D01*
X117894528Y-86176341D01*
X117300663Y-85929023D01*
X118721018Y-85927549D01*
X119099041Y-86169387D01*
X119099041Y-86169387D01*
G37*
X119099041Y-86169387D02*
X119122902Y-86203602D01*
X119122509Y-87824156D01*
X118830883Y-87116284D01*
X118823659Y-87105472D01*
X118380191Y-86799414D01*
X116179605Y-89000000D01*
X118380191Y-91200586D01*
X118823659Y-90894528D01*
X119121938Y-90178294D01*
X119114027Y-122803569D01*
X118830883Y-122116284D01*
X118823659Y-122105472D01*
X118380191Y-121799414D01*
X116179605Y-124000000D01*
X118380191Y-126200586D01*
X118823659Y-125894528D01*
X119113447Y-125198684D01*
X119113154Y-126407700D01*
X119000374Y-126557870D01*
X118530939Y-126835415D01*
X117978456Y-126913976D01*
X117681463Y-126914206D01*
X117883716Y-126830883D01*
X117894528Y-126823659D01*
X118200586Y-126380191D01*
X116000000Y-124179605D01*
X113799414Y-126380191D01*
X114105472Y-126823659D01*
X114329128Y-126916802D01*
X97281179Y-126930000D01*
X85643126Y-126930000D01*
X85883716Y-126830883D01*
X85894528Y-126823659D01*
X86200586Y-126380191D01*
X84000000Y-124179605D01*
X81799414Y-126380191D01*
X82105472Y-126823659D01*
X82360820Y-126930000D01*
X81324683Y-126930000D01*
X80963346Y-126864101D01*
X80730961Y-126714133D01*
X80618259Y-126551154D01*
X80622853Y-124656995D01*
X80663738Y-124656995D01*
X81169117Y-125883716D01*
X81176341Y-125894528D01*
X81619809Y-126200586D01*
X83820395Y-124000000D01*
X84179605Y-124000000D01*
X86380191Y-126200586D01*
X86823659Y-125894528D01*
X87333725Y-124669748D01*
X87333749Y-124656995D01*
X112663738Y-124656995D01*
X113169117Y-125883716D01*
X113176341Y-125894528D01*
X113619809Y-126200586D01*
X115820395Y-124000000D01*
X113619809Y-121799414D01*
X113176341Y-122105472D01*
X112666275Y-123330252D01*
X112663738Y-124656995D01*
X87333749Y-124656995D01*
X87336262Y-123343005D01*
X86830883Y-122116284D01*
X86823659Y-122105472D01*
X86380191Y-121799414D01*
X84179605Y-124000000D01*
X83820395Y-124000000D01*
X81619809Y-121799414D01*
X81176341Y-122105472D01*
X80666275Y-123330252D01*
X80663738Y-124656995D01*
X80622853Y-124656995D01*
X80630219Y-121619809D01*
X81799414Y-121619809D01*
X84000000Y-123820395D01*
X86200586Y-121619809D01*
X113799414Y-121619809D01*
X116000000Y-123820395D01*
X118200586Y-121619809D01*
X117894528Y-121176341D01*
X116669748Y-120666275D01*
X115343005Y-120663738D01*
X114116284Y-121169117D01*
X114105472Y-121176341D01*
X113799414Y-121619809D01*
X86200586Y-121619809D01*
X85894528Y-121176341D01*
X84669748Y-120666275D01*
X83343005Y-120663738D01*
X82116284Y-121169117D01*
X82105472Y-121176341D01*
X81799414Y-121619809D01*
X80630219Y-121619809D01*
X80638306Y-118285750D01*
X80849000Y-118285750D01*
X80849000Y-118989910D01*
X80945673Y-119223299D01*
X81124302Y-119401927D01*
X81357691Y-119498600D01*
X82214250Y-119498600D01*
X82373000Y-119339850D01*
X82373000Y-118127000D01*
X82627000Y-118127000D01*
X82627000Y-119339850D01*
X82785750Y-119498600D01*
X83642309Y-119498600D01*
X83875698Y-119401927D01*
X84054327Y-119223299D01*
X84151000Y-118989910D01*
X84151000Y-118285750D01*
X83992250Y-118127000D01*
X82627000Y-118127000D01*
X82373000Y-118127000D01*
X81007750Y-118127000D01*
X80849000Y-118285750D01*
X80638306Y-118285750D01*
X80688284Y-97680000D01*
X80816655Y-97680000D01*
X80930729Y-98253489D01*
X81255585Y-98739670D01*
X81570366Y-98950000D01*
X81255585Y-99160330D01*
X80930729Y-99646511D01*
X80816655Y-100220000D01*
X80930729Y-100793489D01*
X81255585Y-101279670D01*
X81570366Y-101490000D01*
X81255585Y-101700330D01*
X80930729Y-102186511D01*
X80816655Y-102760000D01*
X80930729Y-103333489D01*
X81255585Y-103819670D01*
X81570366Y-104030000D01*
X81255585Y-104240330D01*
X80930729Y-104726511D01*
X80816655Y-105300000D01*
X80930729Y-105873489D01*
X81255585Y-106359670D01*
X81570366Y-106570000D01*
X81255585Y-106780330D01*
X80930729Y-107266511D01*
X80816655Y-107840000D01*
X80930729Y-108413489D01*
X81255585Y-108899670D01*
X81570366Y-109110000D01*
X81255585Y-109320330D01*
X80930729Y-109806511D01*
X80816655Y-110380000D01*
X80930729Y-110953489D01*
X81255585Y-111439670D01*
X81570366Y-111650000D01*
X81255585Y-111860330D01*
X80930729Y-112346511D01*
X80816655Y-112920000D01*
X80930729Y-113493489D01*
X81255585Y-113979670D01*
X81570366Y-114190000D01*
X81255585Y-114400330D01*
X80930729Y-114886511D01*
X80816655Y-115460000D01*
X80930729Y-116033489D01*
X81255585Y-116519670D01*
X81277780Y-116534500D01*
X81124302Y-116598073D01*
X80945673Y-116776701D01*
X80849000Y-117010090D01*
X80849000Y-117714250D01*
X81007750Y-117873000D01*
X82373000Y-117873000D01*
X82373000Y-117853000D01*
X82627000Y-117853000D01*
X82627000Y-117873000D01*
X83992250Y-117873000D01*
X84151000Y-117714250D01*
X84151000Y-117695167D01*
X87614838Y-117695167D01*
X87756883Y-118038943D01*
X88019673Y-118302192D01*
X88363201Y-118444838D01*
X88735167Y-118445162D01*
X89078943Y-118303117D01*
X89296689Y-118085750D01*
X92190000Y-118085750D01*
X92190000Y-118526309D01*
X92286673Y-118759698D01*
X92465301Y-118938327D01*
X92698690Y-119035000D01*
X92989250Y-119035000D01*
X93148000Y-118876250D01*
X93148000Y-117927000D01*
X92348750Y-117927000D01*
X92190000Y-118085750D01*
X89296689Y-118085750D01*
X89342192Y-118040327D01*
X89484838Y-117696799D01*
X89485162Y-117324833D01*
X89343117Y-116981057D01*
X89080327Y-116717808D01*
X88736799Y-116575162D01*
X88364833Y-116574838D01*
X88021057Y-116716883D01*
X87757808Y-116979673D01*
X87615162Y-117323201D01*
X87614838Y-117695167D01*
X84151000Y-117695167D01*
X84151000Y-117010090D01*
X84054327Y-116776701D01*
X83875698Y-116598073D01*
X83722220Y-116534500D01*
X83744415Y-116519670D01*
X83968353Y-116184523D01*
X84080839Y-116162148D01*
X84327401Y-115997401D01*
X84862401Y-115462401D01*
X85027148Y-115215840D01*
X85085000Y-114925000D01*
X85085000Y-113560000D01*
X87062537Y-113560000D01*
X87094673Y-113592192D01*
X87438201Y-113734838D01*
X87810167Y-113735162D01*
X88153943Y-113593117D01*
X88417192Y-113330327D01*
X88559838Y-112986799D01*
X88560162Y-112614833D01*
X88418117Y-112271057D01*
X88222356Y-112074954D01*
X88342192Y-111955327D01*
X88484838Y-111611799D01*
X88485162Y-111239833D01*
X88343117Y-110896057D01*
X88080327Y-110632808D01*
X87736799Y-110490162D01*
X87364833Y-110489838D01*
X87122422Y-110590000D01*
X84141573Y-110590000D01*
X84183345Y-110380000D01*
X84069271Y-109806511D01*
X83744415Y-109320330D01*
X83429634Y-109110000D01*
X83744415Y-108899670D01*
X84069271Y-108413489D01*
X84183345Y-107840000D01*
X84069271Y-107266511D01*
X83744415Y-106780330D01*
X83429634Y-106570000D01*
X83744415Y-106359670D01*
X84069271Y-105873489D01*
X84183345Y-105300000D01*
X84069271Y-104726511D01*
X83744415Y-104240330D01*
X83429634Y-104030000D01*
X83744415Y-103819670D01*
X84069271Y-103333489D01*
X84183345Y-102760000D01*
X84069271Y-102186511D01*
X83744415Y-101700330D01*
X83429634Y-101490000D01*
X83744415Y-101279670D01*
X84069271Y-100793489D01*
X84183345Y-100220000D01*
X84069271Y-99646511D01*
X83744415Y-99160330D01*
X83429634Y-98950000D01*
X83744415Y-98739670D01*
X84069271Y-98253489D01*
X84183345Y-97680000D01*
X84069271Y-97106511D01*
X83744415Y-96620330D01*
X83258234Y-96295474D01*
X82684745Y-96181400D01*
X82315255Y-96181400D01*
X81741766Y-96295474D01*
X81255585Y-96620330D01*
X80930729Y-97106511D01*
X80816655Y-97680000D01*
X80688284Y-97680000D01*
X80703563Y-91380191D01*
X81799414Y-91380191D01*
X82105472Y-91823659D01*
X83330252Y-92333725D01*
X84656995Y-92336262D01*
X85883716Y-91830883D01*
X85894528Y-91823659D01*
X86200586Y-91380191D01*
X84000000Y-89179605D01*
X81799414Y-91380191D01*
X80703563Y-91380191D01*
X80707486Y-89763185D01*
X81169117Y-90883716D01*
X81176341Y-90894528D01*
X81619809Y-91200586D01*
X83820395Y-89000000D01*
X84179605Y-89000000D01*
X86380191Y-91200586D01*
X86823659Y-90894528D01*
X87333725Y-89669748D01*
X87336262Y-88343005D01*
X86830883Y-87116284D01*
X86823659Y-87105472D01*
X86380191Y-86799414D01*
X84179605Y-89000000D01*
X83820395Y-89000000D01*
X81619809Y-86799414D01*
X81176341Y-87105472D01*
X80711223Y-88222322D01*
X80716608Y-86001827D01*
X80760923Y-85966937D01*
X82611703Y-85965017D01*
X82116284Y-86169117D01*
X82105472Y-86176341D01*
X81799414Y-86619809D01*
X84000000Y-88820395D01*
X86200586Y-86619809D01*
X85894528Y-86176341D01*
X85380194Y-85962144D01*
X97944022Y-85949108D01*
X97756992Y-86154013D01*
X97584722Y-86569934D01*
X97705863Y-86801960D01*
X98912680Y-86801960D01*
X98912680Y-86781960D01*
X99166680Y-86781960D01*
X99166680Y-86801960D01*
X99186680Y-86801960D01*
X99186680Y-87055960D01*
X99166680Y-87055960D01*
X99166680Y-87075960D01*
X98912680Y-87075960D01*
X98912680Y-87055960D01*
X97705863Y-87055960D01*
X97584722Y-87287986D01*
X97756992Y-87703907D01*
X98151190Y-88135781D01*
X98273908Y-88193296D01*
X97950651Y-88409290D01*
X97625795Y-88895471D01*
X97511721Y-89468960D01*
X97625795Y-90042449D01*
X97950651Y-90528630D01*
X98436832Y-90853486D01*
X99010321Y-90967560D01*
X99069039Y-90967560D01*
X99642528Y-90853486D01*
X100128709Y-90528630D01*
X100309680Y-90257788D01*
X100490651Y-90528630D01*
X100976832Y-90853486D01*
X101550321Y-90967560D01*
X101609039Y-90967560D01*
X102126822Y-90864567D01*
X102167852Y-91070839D01*
X102332599Y-91317401D01*
X103842603Y-92827405D01*
X103970080Y-92912582D01*
X103970080Y-94833440D01*
X104014358Y-95068757D01*
X104153430Y-95284881D01*
X104365630Y-95429871D01*
X104617520Y-95480880D01*
X106344720Y-95480880D01*
X106580037Y-95436602D01*
X106796161Y-95297530D01*
X106941151Y-95085330D01*
X106949520Y-95044001D01*
X106961450Y-95061855D01*
X107447631Y-95386711D01*
X108021120Y-95500785D01*
X108594609Y-95386711D01*
X109080790Y-95061855D01*
X109287581Y-94752371D01*
X109659084Y-95168172D01*
X110186329Y-95422149D01*
X110202094Y-95424798D01*
X110434120Y-95303657D01*
X110434120Y-93944440D01*
X110414120Y-93944440D01*
X110414120Y-93690440D01*
X110434120Y-93690440D01*
X110434120Y-93670440D01*
X110688120Y-93670440D01*
X110688120Y-93690440D01*
X110708120Y-93690440D01*
X110708120Y-93944440D01*
X110688120Y-93944440D01*
X110688120Y-95303657D01*
X110920146Y-95424798D01*
X110935911Y-95422149D01*
X111463156Y-95168172D01*
X111853074Y-94731760D01*
X112046304Y-94179353D01*
X111902045Y-93944442D01*
X111985446Y-93944442D01*
X112537903Y-94496899D01*
X112537903Y-96557295D01*
X112455202Y-96639996D01*
X109580004Y-96639996D01*
X109289165Y-96697848D01*
X109042603Y-96862595D01*
X106287599Y-99617599D01*
X106122852Y-99864161D01*
X106065000Y-100155000D01*
X106065000Y-101387537D01*
X106032808Y-101419673D01*
X105890162Y-101763201D01*
X105889986Y-101965000D01*
X104850000Y-101965000D01*
X104559161Y-102022852D01*
X104312599Y-102187599D01*
X103162599Y-103337599D01*
X102997852Y-103584161D01*
X102940000Y-103875000D01*
X102940000Y-104645052D01*
X102694833Y-104644838D01*
X102351057Y-104786883D01*
X102087808Y-105049673D01*
X101945162Y-105393201D01*
X101944838Y-105765167D01*
X102086883Y-106108943D01*
X102349673Y-106372192D01*
X102693201Y-106514838D01*
X102940000Y-106515053D01*
X102940000Y-107737537D01*
X102907808Y-107769673D01*
X102765162Y-108113201D01*
X102764838Y-108485167D01*
X102906883Y-108828943D01*
X103169673Y-109092192D01*
X103513201Y-109234838D01*
X103885167Y-109235162D01*
X104228943Y-109093117D01*
X104360907Y-108961384D01*
X104534160Y-109077148D01*
X104825000Y-109135000D01*
X105787559Y-109135000D01*
X106088201Y-109259838D01*
X106460167Y-109260162D01*
X106803943Y-109118117D01*
X107067192Y-108855327D01*
X107205066Y-108523291D01*
X107204838Y-108785167D01*
X107346883Y-109128943D01*
X107447161Y-109229396D01*
X107394971Y-109355082D01*
X107114833Y-109354838D01*
X106771057Y-109496883D01*
X106507808Y-109759673D01*
X106365162Y-110103201D01*
X106365099Y-110175706D01*
X106074799Y-110055162D01*
X105702833Y-110054838D01*
X105359057Y-110196883D01*
X105325882Y-110230000D01*
X98729803Y-110230000D01*
X98387399Y-109887597D01*
X98214999Y-109715197D01*
X98309838Y-109486799D01*
X98310162Y-109114833D01*
X98168117Y-108771057D01*
X97905327Y-108507808D01*
X97561799Y-108365162D01*
X97514923Y-108365121D01*
X97385000Y-108235198D01*
X97385000Y-106407415D01*
X97444673Y-106467192D01*
X97788201Y-106609838D01*
X98160167Y-106610162D01*
X98503943Y-106468117D01*
X98767192Y-106205327D01*
X98909838Y-105861799D01*
X98910162Y-105489833D01*
X98768117Y-105146057D01*
X98760000Y-105137926D01*
X98760000Y-103835031D01*
X98910167Y-103835162D01*
X99253943Y-103693117D01*
X99517192Y-103430327D01*
X99598299Y-103235000D01*
X99825000Y-103235000D01*
X100115839Y-103177148D01*
X100362401Y-103012401D01*
X101262401Y-102112401D01*
X101427148Y-101865840D01*
X101485000Y-101575000D01*
X101485000Y-97485140D01*
X101510167Y-97485162D01*
X101853943Y-97343117D01*
X102117192Y-97080327D01*
X102259838Y-96736799D01*
X102260162Y-96364833D01*
X102118117Y-96021057D01*
X101855327Y-95757808D01*
X101511799Y-95615162D01*
X101139833Y-95614838D01*
X100796057Y-95756883D01*
X100532808Y-96019673D01*
X100390162Y-96363201D01*
X100390121Y-96410077D01*
X100187599Y-96612599D01*
X100022852Y-96859161D01*
X99965000Y-97150000D01*
X99965000Y-101260198D01*
X99510198Y-101715000D01*
X99150000Y-101715000D01*
X98859161Y-101772852D01*
X98612599Y-101937599D01*
X98585320Y-101964878D01*
X98539833Y-101964838D01*
X98415863Y-102016061D01*
X97405785Y-101005983D01*
X97678943Y-100893117D01*
X97942192Y-100630327D01*
X98084838Y-100286799D01*
X98084879Y-100239923D01*
X99137401Y-99187401D01*
X99302148Y-98940839D01*
X99360000Y-98650000D01*
X99360000Y-93021615D01*
X99384838Y-92961799D01*
X99385162Y-92589833D01*
X99243117Y-92246057D01*
X98980327Y-91982808D01*
X98636799Y-91840162D01*
X98264833Y-91839838D01*
X97921057Y-91981883D01*
X97788756Y-92113954D01*
X96062401Y-90387599D01*
X95815839Y-90222852D01*
X95525000Y-90165000D01*
X90862506Y-90165000D01*
X90855327Y-90157808D01*
X90511799Y-90015162D01*
X90139833Y-90014838D01*
X89796057Y-90156883D01*
X89532808Y-90419673D01*
X89390162Y-90763201D01*
X89389838Y-91135167D01*
X89531883Y-91478943D01*
X89794673Y-91742192D01*
X90138201Y-91884838D01*
X90510167Y-91885162D01*
X90853943Y-91743117D01*
X90912162Y-91685000D01*
X95210198Y-91685000D01*
X97315000Y-93789802D01*
X97315000Y-97860198D01*
X95837599Y-99337599D01*
X95672852Y-99584161D01*
X95615000Y-99875000D01*
X95615000Y-101040000D01*
X93114802Y-101040000D01*
X92327969Y-100253167D01*
X93522838Y-100253167D01*
X93664883Y-100596943D01*
X93927673Y-100860192D01*
X94271201Y-101002838D01*
X94643167Y-101003162D01*
X94986943Y-100861117D01*
X95250192Y-100598327D01*
X95392838Y-100254799D01*
X95393162Y-99882833D01*
X95251117Y-99539057D01*
X94988327Y-99275808D01*
X94644799Y-99133162D01*
X94272833Y-99132838D01*
X93929057Y-99274883D01*
X93665808Y-99537673D01*
X93523162Y-99881201D01*
X93522838Y-100253167D01*
X92327969Y-100253167D01*
X90260000Y-98185198D01*
X90260000Y-97850000D01*
X90202148Y-97559161D01*
X90037401Y-97312599D01*
X89687401Y-96962599D01*
X89440839Y-96797852D01*
X89150000Y-96740000D01*
X88813440Y-96740000D01*
X88813440Y-96484000D01*
X88769162Y-96248683D01*
X88630090Y-96032559D01*
X88417890Y-95887569D01*
X88166000Y-95836560D01*
X86134000Y-95836560D01*
X85898683Y-95880838D01*
X85682559Y-96019910D01*
X85537569Y-96232110D01*
X85486560Y-96484000D01*
X85486560Y-98516000D01*
X85530838Y-98751317D01*
X85669910Y-98967441D01*
X85826206Y-99074233D01*
X85624675Y-99375845D01*
X85499000Y-100007655D01*
X85499000Y-100072345D01*
X85624675Y-100704155D01*
X85982567Y-101239778D01*
X86518190Y-101597670D01*
X87150000Y-101723345D01*
X87781810Y-101597670D01*
X88317433Y-101239778D01*
X88554488Y-100885000D01*
X89935198Y-100885000D01*
X91837601Y-102787403D01*
X92084163Y-102952150D01*
X92375002Y-103010002D01*
X95315000Y-103010002D01*
X95315000Y-109025000D01*
X95372852Y-109315839D01*
X95389941Y-109341415D01*
X95389838Y-109460167D01*
X95531883Y-109803943D01*
X95576530Y-109848668D01*
X95535342Y-109889856D01*
X95514833Y-109889838D01*
X95171057Y-110031883D01*
X94907808Y-110294673D01*
X94765162Y-110638201D01*
X94764838Y-111010167D01*
X94906883Y-111353943D01*
X95015000Y-111462249D01*
X95015000Y-113335198D01*
X94961266Y-113388932D01*
X94855327Y-113282808D01*
X94511799Y-113140162D01*
X94139833Y-113139838D01*
X94010000Y-113193484D01*
X94010000Y-111462463D01*
X94042192Y-111430327D01*
X94184838Y-111086799D01*
X94185162Y-110714833D01*
X94043117Y-110371057D01*
X93780327Y-110107808D01*
X93436799Y-109965162D01*
X93064833Y-109964838D01*
X92721057Y-110106883D01*
X92457808Y-110369673D01*
X92315162Y-110713201D01*
X92314838Y-111085167D01*
X92456883Y-111428943D01*
X92490000Y-111462118D01*
X92490000Y-114460982D01*
X92373559Y-114535910D01*
X92228569Y-114748110D01*
X92177560Y-115000000D01*
X92177560Y-116200000D01*
X92221838Y-116435317D01*
X92360910Y-116651441D01*
X92429006Y-116697969D01*
X92286673Y-116840302D01*
X92190000Y-117073691D01*
X92190000Y-117514250D01*
X92348750Y-117673000D01*
X93148000Y-117673000D01*
X93148000Y-117653000D01*
X93402000Y-117653000D01*
X93402000Y-117673000D01*
X93422000Y-117673000D01*
X93422000Y-117927000D01*
X93402000Y-117927000D01*
X93402000Y-118876250D01*
X93560750Y-119035000D01*
X93851310Y-119035000D01*
X94084699Y-118938327D01*
X94157104Y-118865922D01*
X94265000Y-118939644D01*
X94265000Y-118948000D01*
X94285060Y-119048845D01*
X94284838Y-119303167D01*
X94426883Y-119646943D01*
X94689673Y-119910192D01*
X95033201Y-120052838D01*
X95405167Y-120053162D01*
X95748943Y-119911117D01*
X96012192Y-119648327D01*
X96154838Y-119304799D01*
X96155162Y-118932833D01*
X96060692Y-118704196D01*
X96096431Y-118651890D01*
X96147440Y-118400000D01*
X96147440Y-117200000D01*
X96103162Y-116964683D01*
X95964090Y-116748559D01*
X95894289Y-116700866D01*
X95951441Y-116664090D01*
X96096431Y-116451890D01*
X96147440Y-116200000D01*
X96147440Y-115586483D01*
X96325000Y-115622440D01*
X97525000Y-115622440D01*
X97760317Y-115578162D01*
X97976441Y-115439090D01*
X98024134Y-115369289D01*
X98060910Y-115426441D01*
X98273110Y-115571431D01*
X98525000Y-115622440D01*
X99725000Y-115622440D01*
X99960317Y-115578162D01*
X100031340Y-115532460D01*
X98948800Y-116615000D01*
X98125000Y-116615000D01*
X97834161Y-116672852D01*
X97587599Y-116837599D01*
X97310168Y-117115030D01*
X97089833Y-117114838D01*
X96746057Y-117256883D01*
X96482808Y-117519673D01*
X96340162Y-117863201D01*
X96339838Y-118235167D01*
X96481883Y-118578943D01*
X96744673Y-118842192D01*
X97088201Y-118984838D01*
X97460167Y-118985162D01*
X97803943Y-118843117D01*
X98067192Y-118580327D01*
X98118828Y-118455974D01*
X98329398Y-118245404D01*
X98456883Y-118553943D01*
X98719673Y-118817192D01*
X99063201Y-118959838D01*
X99435167Y-118960162D01*
X99778943Y-118818117D01*
X100042192Y-118555327D01*
X100148452Y-118299427D01*
X100156623Y-118319203D01*
X100419413Y-118582452D01*
X100762941Y-118725098D01*
X101134907Y-118725422D01*
X101478683Y-118583377D01*
X101487075Y-118575000D01*
X101510000Y-118575000D01*
X101810407Y-118515245D01*
X102065079Y-118345079D01*
X102124408Y-118285750D01*
X115473480Y-118285750D01*
X115473480Y-118989910D01*
X115570153Y-119223299D01*
X115748782Y-119401927D01*
X115982171Y-119498600D01*
X116838730Y-119498600D01*
X116997480Y-119339850D01*
X116997480Y-118127000D01*
X117251480Y-118127000D01*
X117251480Y-119339850D01*
X117410230Y-119498600D01*
X118266789Y-119498600D01*
X118500178Y-119401927D01*
X118678807Y-119223299D01*
X118775480Y-118989910D01*
X118775480Y-118285750D01*
X118616730Y-118127000D01*
X117251480Y-118127000D01*
X116997480Y-118127000D01*
X115632230Y-118127000D01*
X115473480Y-118285750D01*
X102124408Y-118285750D01*
X102835079Y-117575079D01*
X102875723Y-117514250D01*
X103005245Y-117320406D01*
X103065000Y-117020000D01*
X103065000Y-114605157D01*
X103165076Y-114505081D01*
X103165079Y-114505079D01*
X103335245Y-114250406D01*
X103395000Y-113950000D01*
X103395000Y-113177506D01*
X103402192Y-113170327D01*
X103544838Y-112826799D01*
X103545162Y-112454833D01*
X103523332Y-112402000D01*
X106506000Y-112402000D01*
X106796839Y-112344148D01*
X107043401Y-112179401D01*
X107512401Y-111710401D01*
X107677148Y-111463839D01*
X107730828Y-111193974D01*
X107837401Y-111087401D01*
X107862940Y-111049179D01*
X108092192Y-110820327D01*
X108165029Y-110644918D01*
X108445167Y-110645162D01*
X108627402Y-110569864D01*
X108659673Y-110602192D01*
X109003201Y-110744838D01*
X109375167Y-110745162D01*
X109718943Y-110603117D01*
X109982192Y-110340327D01*
X110023177Y-110241625D01*
X110287401Y-109977401D01*
X110452148Y-109730839D01*
X110510000Y-109440000D01*
X110510000Y-106464802D01*
X111114802Y-105860000D01*
X111768015Y-105860000D01*
X111725162Y-105963201D01*
X111724838Y-106335167D01*
X111866883Y-106678943D01*
X112099072Y-106911537D01*
X112065162Y-106993201D01*
X112064838Y-107365167D01*
X112206883Y-107708943D01*
X112469673Y-107972192D01*
X112813201Y-108114838D01*
X112860077Y-108114879D01*
X113732599Y-108987401D01*
X113979161Y-109152148D01*
X114270000Y-109210000D01*
X116045185Y-109210000D01*
X115880065Y-109320330D01*
X115555209Y-109806511D01*
X115441135Y-110380000D01*
X115555209Y-110953489D01*
X115880065Y-111439670D01*
X116194846Y-111650000D01*
X115880065Y-111860330D01*
X115555209Y-112346511D01*
X115441135Y-112920000D01*
X115555209Y-113493489D01*
X115880065Y-113979670D01*
X116194846Y-114190000D01*
X115880065Y-114400330D01*
X115555209Y-114886511D01*
X115441135Y-115460000D01*
X115555209Y-116033489D01*
X115880065Y-116519670D01*
X115902260Y-116534500D01*
X115748782Y-116598073D01*
X115570153Y-116776701D01*
X115473480Y-117010090D01*
X115473480Y-117714250D01*
X115632230Y-117873000D01*
X116997480Y-117873000D01*
X116997480Y-117853000D01*
X117251480Y-117853000D01*
X117251480Y-117873000D01*
X118616730Y-117873000D01*
X118775480Y-117714250D01*
X118775480Y-117010090D01*
X118678807Y-116776701D01*
X118500178Y-116598073D01*
X118346700Y-116534500D01*
X118368895Y-116519670D01*
X118693751Y-116033489D01*
X118807825Y-115460000D01*
X118693751Y-114886511D01*
X118368895Y-114400330D01*
X118054114Y-114190000D01*
X118368895Y-113979670D01*
X118693751Y-113493489D01*
X118807825Y-112920000D01*
X118693751Y-112346511D01*
X118368895Y-111860330D01*
X118054114Y-111650000D01*
X118368895Y-111439670D01*
X118693751Y-110953489D01*
X118807825Y-110380000D01*
X118693751Y-109806511D01*
X118368895Y-109320330D01*
X118054114Y-109110000D01*
X118368895Y-108899670D01*
X118693751Y-108413489D01*
X118807825Y-107840000D01*
X118693751Y-107266511D01*
X118368895Y-106780330D01*
X118054114Y-106570000D01*
X118368895Y-106359670D01*
X118693751Y-105873489D01*
X118807825Y-105300000D01*
X118693751Y-104726511D01*
X118368895Y-104240330D01*
X118054114Y-104030000D01*
X118368895Y-103819670D01*
X118693751Y-103333489D01*
X118807825Y-102760000D01*
X118693751Y-102186511D01*
X118368895Y-101700330D01*
X118054114Y-101490000D01*
X118368895Y-101279670D01*
X118693751Y-100793489D01*
X118807825Y-100220000D01*
X118693751Y-99646511D01*
X118368895Y-99160330D01*
X118054114Y-98950000D01*
X118368895Y-98739670D01*
X118693751Y-98253489D01*
X118807825Y-97680000D01*
X118693751Y-97106511D01*
X118368895Y-96620330D01*
X117884480Y-96296654D01*
X117884480Y-96099480D01*
X117826628Y-95808640D01*
X117661881Y-95562079D01*
X113479993Y-91380191D01*
X113799414Y-91380191D01*
X114105472Y-91823659D01*
X115330252Y-92333725D01*
X116656995Y-92336262D01*
X117883716Y-91830883D01*
X117894528Y-91823659D01*
X118200586Y-91380191D01*
X116000000Y-89179605D01*
X113799414Y-91380191D01*
X113479993Y-91380191D01*
X111756797Y-89656995D01*
X112663738Y-89656995D01*
X113169117Y-90883716D01*
X113176341Y-90894528D01*
X113619809Y-91200586D01*
X115820395Y-89000000D01*
X113619809Y-86799414D01*
X113176341Y-87105472D01*
X112666275Y-88330252D01*
X112663738Y-89656995D01*
X111756797Y-89656995D01*
X111031361Y-88931559D01*
X110784799Y-88766812D01*
X110710720Y-88752077D01*
X110710720Y-88605360D01*
X110666442Y-88370043D01*
X110527370Y-88153919D01*
X110315170Y-88008929D01*
X110271549Y-88000096D01*
X110288709Y-87988630D01*
X110613565Y-87502449D01*
X110727639Y-86928960D01*
X110613565Y-86355471D01*
X110333452Y-85936252D01*
X114692503Y-85931729D01*
X114116284Y-86169117D01*
X114105472Y-86176341D01*
X113799414Y-86619809D01*
X116000000Y-88820395D01*
X118200586Y-86619809D01*
X117894528Y-86176341D01*
X117300663Y-85929023D01*
X118721018Y-85927549D01*
X119099041Y-86169387D01*
G36*
X114687599Y-105837401D02*
X114934160Y-106002148D01*
X115225000Y-106060000D01*
X115679832Y-106060000D01*
X115880065Y-106359670D01*
X116194846Y-106570000D01*
X115880065Y-106780330D01*
X115555209Y-107266511D01*
X115470972Y-107690000D01*
X114584802Y-107690000D01*
X113935122Y-107040320D01*
X113935162Y-106994833D01*
X113793117Y-106651057D01*
X113560928Y-106418463D01*
X113594838Y-106336799D01*
X113595162Y-105964833D01*
X113540245Y-105831922D01*
X113742192Y-105630327D01*
X113884838Y-105286799D01*
X113885057Y-105034859D01*
X114687599Y-105837401D01*
X114687599Y-105837401D01*
G37*
X114687599Y-105837401D02*
X114934160Y-106002148D01*
X115225000Y-106060000D01*
X115679832Y-106060000D01*
X115880065Y-106359670D01*
X116194846Y-106570000D01*
X115880065Y-106780330D01*
X115555209Y-107266511D01*
X115470972Y-107690000D01*
X114584802Y-107690000D01*
X113935122Y-107040320D01*
X113935162Y-106994833D01*
X113793117Y-106651057D01*
X113560928Y-106418463D01*
X113594838Y-106336799D01*
X113595162Y-105964833D01*
X113540245Y-105831922D01*
X113742192Y-105630327D01*
X113884838Y-105286799D01*
X113885057Y-105034859D01*
X114687599Y-105837401D01*
G36*
X114040000Y-101010198D02*
X113085198Y-101965000D01*
X112564927Y-101965000D01*
X112565162Y-101694833D01*
X112423117Y-101351057D01*
X112160327Y-101087808D01*
X111816799Y-100945162D01*
X111444833Y-100944838D01*
X111101057Y-101086883D01*
X110837808Y-101349673D01*
X110695162Y-101693201D01*
X110694925Y-101965000D01*
X109510009Y-101965000D01*
X109510162Y-101789833D01*
X109368117Y-101446057D01*
X109335000Y-101412882D01*
X109335000Y-100819802D01*
X111094802Y-99060000D01*
X113400000Y-99060000D01*
X113690839Y-99002148D01*
X113937401Y-98837401D01*
X114040000Y-98734802D01*
X114040000Y-101010198D01*
X114040000Y-101010198D01*
G37*
X114040000Y-101010198D02*
X113085198Y-101965000D01*
X112564927Y-101965000D01*
X112565162Y-101694833D01*
X112423117Y-101351057D01*
X112160327Y-101087808D01*
X111816799Y-100945162D01*
X111444833Y-100944838D01*
X111101057Y-101086883D01*
X110837808Y-101349673D01*
X110695162Y-101693201D01*
X110694925Y-101965000D01*
X109510009Y-101965000D01*
X109510162Y-101789833D01*
X109368117Y-101446057D01*
X109335000Y-101412882D01*
X109335000Y-100819802D01*
X111094802Y-99060000D01*
X113400000Y-99060000D01*
X113690839Y-99002148D01*
X113937401Y-98837401D01*
X114040000Y-98734802D01*
X114040000Y-101010198D01*
M02*
