M48
;DRILL file {KiCad 4.0.2-stable} date 4/9/2016 9:23:25 PM
;FORMAT={-:-/ absolute / inch / decimal}
FMAT,2
INCH,TZ
T1C0.016
T2C0.040
T3C0.106
%
G90
G05
M72
T1
X3.4288Y-4.7197
X3.4469Y-4.3868
X3.4498Y-4.4409
X3.4862Y-4.6264
X3.5561Y-3.5807
X3.5888Y-3.5397
X3.6713Y-4.3661
X3.6788Y-4.5997
X3.6888Y-4.8197
X3.7136Y-4.4911
X3.7188Y-3.9397
X3.7488Y-4.6897
X3.7677Y-4.3632
X3.7923Y-4.3022
X3.8088Y-4.5697
X3.8169Y-4.3652
X3.8248Y-3.9409
X3.8297Y-4.6476
X3.8337Y-4.3031
X3.8573Y-4.1604
X3.8588Y-4.2197
X3.876Y-3.6526
X3.8868Y-4.0512
X3.9071Y-4.4374
X3.9075Y-4.6467
X3.9185Y-3.8366
X3.9636Y-4.4705
X3.9744Y-4.6374
X3.9892Y-3.8012
X4.001Y-4.4705
X4.0188Y-3.9397
X4.0398Y-4.4346
X4.0504Y-4.1567
X4.0606Y-4.0776
X4.0688Y-4.5697
X4.0748Y-4.3205
X4.0827Y-4.2638
X4.1288Y-3.8697
X4.1588Y-4.7497
X4.1688Y-4.3697
X4.1819Y-4.1937
X4.1841Y-4.2648
X4.1949Y-4.2323
X4.2028Y-4.128
X4.2057Y-4.0138
X4.2088Y-4.4497
X4.2244Y-4.3421
X4.2372Y-4.0108
X4.2402Y-4.1319
X4.2575Y-4.2756
X4.2622Y-4.3193
X4.2746Y-4.0148
X4.2988Y-4.3232
X4.3661Y-3.9331
X4.3888Y-4.4197
X4.3949Y-4.011
X4.4339Y-3.9327
X4.4354Y-4.1791
X4.4469Y-4.1378
X4.4488Y-4.2197
X4.5388Y-4.2297
T2
X3.248Y-3.8457
X3.248Y-3.9457
X3.248Y-4.0457
X3.248Y-4.1457
X3.248Y-4.2457
X3.248Y-4.3457
X3.248Y-4.4457
X3.248Y-4.5457
X3.248Y-4.6457
X3.4311Y-3.8386
X3.4311Y-3.9386
X3.8992Y-3.4224
X3.8992Y-3.5224
X3.9992Y-3.4224
X3.9992Y-3.5224
X4.0992Y-3.4224
X4.0992Y-3.5224
X4.1528Y-3.6936
X4.1992Y-3.4224
X4.1992Y-3.5224
X4.2528Y-3.6936
X4.2992Y-3.4224
X4.2992Y-3.5224
X4.3528Y-3.6936
X4.6112Y-3.8457
X4.6112Y-3.9457
X4.6112Y-4.0457
X4.6112Y-4.1457
X4.6112Y-4.2457
X4.6112Y-4.3457
X4.6112Y-4.4457
X4.6112Y-4.5457
X4.6112Y-4.6457
T3
X3.3071Y-3.5039
X3.3071Y-4.8819
X4.5669Y-3.5039
X4.5669Y-4.8819
T0
M30
