G04 #@! TF.FileFunction,Legend,Bot*
%FSLAX46Y46*%
G04 Gerber Fmt 4.6, Leading zero omitted, Abs format (unit mm)*
G04 Created by KiCad (PCBNEW 4.0.2-stable) date 4/9/2016 9:23:23 PM*
%MOMM*%
G01*
G04 APERTURE LIST*
%ADD10C,0.100000*%
%ADD11C,0.300000*%
%ADD12C,0.150000*%
G04 APERTURE END LIST*
D10*
D11*
X89678571Y-90337143D02*
X90892857Y-90337143D01*
X91035714Y-90408571D01*
X91107143Y-90480000D01*
X91178571Y-90622857D01*
X91178571Y-90908571D01*
X91107143Y-91051429D01*
X91035714Y-91122857D01*
X90892857Y-91194286D01*
X89678571Y-91194286D01*
X91107143Y-91837143D02*
X91178571Y-92051429D01*
X91178571Y-92408572D01*
X91107143Y-92551429D01*
X91035714Y-92622858D01*
X90892857Y-92694286D01*
X90750000Y-92694286D01*
X90607143Y-92622858D01*
X90535714Y-92551429D01*
X90464286Y-92408572D01*
X90392857Y-92122858D01*
X90321429Y-91980000D01*
X90250000Y-91908572D01*
X90107143Y-91837143D01*
X89964286Y-91837143D01*
X89821429Y-91908572D01*
X89750000Y-91980000D01*
X89678571Y-92122858D01*
X89678571Y-92480000D01*
X89750000Y-92694286D01*
X90392857Y-93837143D02*
X90464286Y-94051429D01*
X90535714Y-94122857D01*
X90678571Y-94194286D01*
X90892857Y-94194286D01*
X91035714Y-94122857D01*
X91107143Y-94051429D01*
X91178571Y-93908571D01*
X91178571Y-93337143D01*
X89678571Y-93337143D01*
X89678571Y-93837143D01*
X89750000Y-93980000D01*
X89821429Y-94051429D01*
X89964286Y-94122857D01*
X90107143Y-94122857D01*
X90250000Y-94051429D01*
X90321429Y-93980000D01*
X90392857Y-93837143D01*
X90392857Y-93337143D01*
X91178571Y-94837143D02*
X89678571Y-94837143D01*
X90392857Y-94837143D02*
X90392857Y-95694286D01*
X91178571Y-95694286D02*
X89678571Y-95694286D01*
X91178571Y-96408572D02*
X89678571Y-96408572D01*
X91178571Y-97122858D02*
X89678571Y-97122858D01*
X89678571Y-97480001D01*
X89750000Y-97694286D01*
X89892857Y-97837144D01*
X90035714Y-97908572D01*
X90321429Y-97980001D01*
X90535714Y-97980001D01*
X90821429Y-97908572D01*
X90964286Y-97837144D01*
X91107143Y-97694286D01*
X91178571Y-97480001D01*
X91178571Y-97122858D01*
X90392857Y-100265715D02*
X90464286Y-100480001D01*
X90535714Y-100551429D01*
X90678571Y-100622858D01*
X90892857Y-100622858D01*
X91035714Y-100551429D01*
X91107143Y-100480001D01*
X91178571Y-100337143D01*
X91178571Y-99765715D01*
X89678571Y-99765715D01*
X89678571Y-100265715D01*
X89750000Y-100408572D01*
X89821429Y-100480001D01*
X89964286Y-100551429D01*
X90107143Y-100551429D01*
X90250000Y-100480001D01*
X90321429Y-100408572D01*
X90392857Y-100265715D01*
X90392857Y-99765715D01*
X90178571Y-101908572D02*
X91178571Y-101908572D01*
X90178571Y-101265715D02*
X90964286Y-101265715D01*
X91107143Y-101337143D01*
X91178571Y-101480001D01*
X91178571Y-101694286D01*
X91107143Y-101837143D01*
X91035714Y-101908572D01*
X91178571Y-103265715D02*
X89678571Y-103265715D01*
X91107143Y-103265715D02*
X91178571Y-103122858D01*
X91178571Y-102837144D01*
X91107143Y-102694286D01*
X91035714Y-102622858D01*
X90892857Y-102551429D01*
X90464286Y-102551429D01*
X90321429Y-102622858D01*
X90250000Y-102694286D01*
X90178571Y-102837144D01*
X90178571Y-103122858D01*
X90250000Y-103265715D01*
X91178571Y-104622858D02*
X89678571Y-104622858D01*
X91107143Y-104622858D02*
X91178571Y-104480001D01*
X91178571Y-104194287D01*
X91107143Y-104051429D01*
X91035714Y-103980001D01*
X90892857Y-103908572D01*
X90464286Y-103908572D01*
X90321429Y-103980001D01*
X90250000Y-104051429D01*
X90178571Y-104194287D01*
X90178571Y-104480001D01*
X90250000Y-104622858D01*
X90178571Y-105194287D02*
X91178571Y-105551430D01*
X90178571Y-105908572D02*
X91178571Y-105551430D01*
X91535714Y-105408572D01*
X91607143Y-105337144D01*
X91678571Y-105194287D01*
X90178571Y-107480001D02*
X91178571Y-107837144D01*
X90178571Y-108194286D01*
X89678571Y-109051429D02*
X89678571Y-109194286D01*
X89750000Y-109337143D01*
X89821429Y-109408572D01*
X89964286Y-109480001D01*
X90250000Y-109551429D01*
X90607143Y-109551429D01*
X90892857Y-109480001D01*
X91035714Y-109408572D01*
X91107143Y-109337143D01*
X91178571Y-109194286D01*
X91178571Y-109051429D01*
X91107143Y-108908572D01*
X91035714Y-108837143D01*
X90892857Y-108765715D01*
X90607143Y-108694286D01*
X90250000Y-108694286D01*
X89964286Y-108765715D01*
X89821429Y-108837143D01*
X89750000Y-108908572D01*
X89678571Y-109051429D01*
X91035714Y-110194286D02*
X91107143Y-110265714D01*
X91178571Y-110194286D01*
X91107143Y-110122857D01*
X91035714Y-110194286D01*
X91178571Y-110194286D01*
X91178571Y-111694286D02*
X91178571Y-110837143D01*
X91178571Y-111265715D02*
X89678571Y-111265715D01*
X89892857Y-111122858D01*
X90035714Y-110980000D01*
X90107143Y-110837143D01*
X93578571Y-94230001D02*
X92078571Y-94230001D01*
X93578571Y-95087144D01*
X92078571Y-95087144D01*
X93578571Y-96515716D02*
X93578571Y-95801430D01*
X92078571Y-95801430D01*
X93507143Y-96944287D02*
X93578571Y-97158573D01*
X93578571Y-97515716D01*
X93507143Y-97658573D01*
X93435714Y-97730002D01*
X93292857Y-97801430D01*
X93150000Y-97801430D01*
X93007143Y-97730002D01*
X92935714Y-97658573D01*
X92864286Y-97515716D01*
X92792857Y-97230002D01*
X92721429Y-97087144D01*
X92650000Y-97015716D01*
X92507143Y-96944287D01*
X92364286Y-96944287D01*
X92221429Y-97015716D01*
X92150000Y-97087144D01*
X92078571Y-97230002D01*
X92078571Y-97587144D01*
X92150000Y-97801430D01*
X92578571Y-100230001D02*
X93578571Y-100230001D01*
X92007143Y-99872858D02*
X93078571Y-99515715D01*
X93078571Y-100444287D01*
X92007143Y-102087143D02*
X93935714Y-100801429D01*
X93578571Y-102658572D02*
X93578571Y-102944287D01*
X93507143Y-103087144D01*
X93435714Y-103158572D01*
X93221429Y-103301430D01*
X92935714Y-103372858D01*
X92364286Y-103372858D01*
X92221429Y-103301430D01*
X92150000Y-103230001D01*
X92078571Y-103087144D01*
X92078571Y-102801430D01*
X92150000Y-102658572D01*
X92221429Y-102587144D01*
X92364286Y-102515715D01*
X92721429Y-102515715D01*
X92864286Y-102587144D01*
X92935714Y-102658572D01*
X93007143Y-102801430D01*
X93007143Y-103087144D01*
X92935714Y-103230001D01*
X92864286Y-103301430D01*
X92721429Y-103372858D01*
X92007143Y-105087143D02*
X93935714Y-103801429D01*
X93578571Y-106372858D02*
X93578571Y-105515715D01*
X93578571Y-105944287D02*
X92078571Y-105944287D01*
X92292857Y-105801430D01*
X92435714Y-105658572D01*
X92507143Y-105515715D01*
X92078571Y-107658572D02*
X92078571Y-107372858D01*
X92150000Y-107230001D01*
X92221429Y-107158572D01*
X92435714Y-107015715D01*
X92721429Y-106944286D01*
X93292857Y-106944286D01*
X93435714Y-107015715D01*
X93507143Y-107087143D01*
X93578571Y-107230001D01*
X93578571Y-107515715D01*
X93507143Y-107658572D01*
X93435714Y-107730001D01*
X93292857Y-107801429D01*
X92935714Y-107801429D01*
X92792857Y-107730001D01*
X92721429Y-107658572D01*
X92650000Y-107515715D01*
X92650000Y-107230001D01*
X92721429Y-107087143D01*
X92792857Y-107015715D01*
X92935714Y-106944286D01*
D12*
X94375000Y-116200000D02*
X94375000Y-117200000D01*
X95725000Y-117200000D02*
X95725000Y-116200000D01*
X97525000Y-115200000D02*
X98525000Y-115200000D01*
X98525000Y-113850000D02*
X97525000Y-113850000D01*
X92600000Y-116200000D02*
X92600000Y-117200000D01*
X93950000Y-117200000D02*
X93950000Y-116200000D01*
X95552381Y-119783334D02*
X95076190Y-119450000D01*
X95552381Y-119211905D02*
X94552381Y-119211905D01*
X94552381Y-119592858D01*
X94600000Y-119688096D01*
X94647619Y-119735715D01*
X94742857Y-119783334D01*
X94885714Y-119783334D01*
X94980952Y-119735715D01*
X95028571Y-119688096D01*
X95076190Y-119592858D01*
X95076190Y-119211905D01*
X94552381Y-120116667D02*
X94552381Y-120783334D01*
X95552381Y-120354762D01*
X102371177Y-114852921D02*
X102704511Y-114376730D01*
X102942606Y-114852921D02*
X102942606Y-113852921D01*
X102561653Y-113852921D01*
X102466415Y-113900540D01*
X102418796Y-113948159D01*
X102371177Y-114043397D01*
X102371177Y-114186254D01*
X102418796Y-114281492D01*
X102466415Y-114329111D01*
X102561653Y-114376730D01*
X102942606Y-114376730D01*
X101418796Y-114852921D02*
X101990225Y-114852921D01*
X101704511Y-114852921D02*
X101704511Y-113852921D01*
X101799749Y-113995778D01*
X101894987Y-114091016D01*
X101990225Y-114138635D01*
X100799749Y-113852921D02*
X100704510Y-113852921D01*
X100609272Y-113900540D01*
X100561653Y-113948159D01*
X100514034Y-114043397D01*
X100466415Y-114233873D01*
X100466415Y-114471969D01*
X100514034Y-114662445D01*
X100561653Y-114757683D01*
X100609272Y-114805302D01*
X100704510Y-114852921D01*
X100799749Y-114852921D01*
X100894987Y-114805302D01*
X100942606Y-114757683D01*
X100990225Y-114662445D01*
X101037844Y-114471969D01*
X101037844Y-114233873D01*
X100990225Y-114043397D01*
X100942606Y-113948159D01*
X100894987Y-113900540D01*
X100799749Y-113852921D01*
X93714681Y-119783323D02*
X93238490Y-119449989D01*
X93714681Y-119211894D02*
X92714681Y-119211894D01*
X92714681Y-119592847D01*
X92762300Y-119688085D01*
X92809919Y-119735704D01*
X92905157Y-119783323D01*
X93048014Y-119783323D01*
X93143252Y-119735704D01*
X93190871Y-119688085D01*
X93238490Y-119592847D01*
X93238490Y-119211894D01*
X93714681Y-120735704D02*
X93714681Y-120164275D01*
X93714681Y-120449989D02*
X92714681Y-120449989D01*
X92857538Y-120354751D01*
X92952776Y-120259513D01*
X93000395Y-120164275D01*
X93714681Y-121688085D02*
X93714681Y-121116656D01*
X93714681Y-121402370D02*
X92714681Y-121402370D01*
X92857538Y-121307132D01*
X92952776Y-121211894D01*
X93000395Y-121116656D01*
M02*
