G04 #@! TF.FileFunction,Soldermask,Top*
%FSLAX46Y46*%
G04 Gerber Fmt 4.6, Leading zero omitted, Abs format (unit mm)*
G04 Created by KiCad (PCBNEW 4.0.2-stable) date 4/9/2016 9:23:23 PM*
%MOMM*%
G01*
G04 APERTURE LIST*
%ADD10C,0.100000*%
%ADD11C,5.800000*%
%ADD12R,1.150000X1.600000*%
%ADD13R,1.650000X1.900000*%
%ADD14R,1.900000X1.650000*%
%ADD15R,1.600000X1.150000*%
%ADD16R,2.127200X2.127200*%
%ADD17O,2.127200X2.127200*%
%ADD18R,1.600000X1.300000*%
%ADD19R,1.300000X1.600000*%
%ADD20R,1.460000X1.050000*%
%ADD21R,1.700000X0.650000*%
%ADD22R,0.650000X1.700000*%
%ADD23R,1.850000X0.850000*%
%ADD24R,1.200100X1.200100*%
%ADD25R,0.850000X1.780000*%
%ADD26R,1.875000X2.500000*%
%ADD27R,1.575000X2.300000*%
%ADD28R,2.775000X2.300000*%
%ADD29R,1.050000X1.250000*%
%ADD30R,2.432000X2.432000*%
%ADD31O,2.432000X2.432000*%
%ADD32R,2.127200X2.432000*%
%ADD33O,2.127200X2.432000*%
%ADD34R,2.400000X0.740000*%
%ADD35R,2.432000X2.127200*%
%ADD36O,2.432000X2.127200*%
%ADD37R,1.800000X2.400000*%
%ADD38R,1.700000X1.400000*%
%ADD39R,1.700000X1.000000*%
G04 APERTURE END LIST*
D10*
D11*
X84000000Y-124000000D03*
X116000000Y-124000000D03*
X116000000Y-89000000D03*
D12*
X92435680Y-119933680D03*
X92435680Y-121833680D03*
D13*
X102138480Y-118979000D03*
X102138480Y-116479000D03*
D12*
X90220800Y-119893040D03*
X90220800Y-121793040D03*
D13*
X112510000Y-117960000D03*
X112510000Y-120460000D03*
D14*
X110120000Y-115930000D03*
X107620000Y-115930000D03*
D15*
X94744580Y-90246200D03*
X92844580Y-90246200D03*
X109915920Y-111048800D03*
X111815920Y-111048800D03*
D12*
X113200000Y-103000000D03*
X113200000Y-101100000D03*
D13*
X105350000Y-115650000D03*
X105350000Y-113150000D03*
D15*
X109280000Y-97120000D03*
X111180000Y-97120000D03*
X109280000Y-98850000D03*
X111180000Y-98850000D03*
D16*
X109199680Y-89468960D03*
D17*
X109199680Y-86928960D03*
X106659680Y-89468960D03*
X106659680Y-86928960D03*
X104119680Y-89468960D03*
X104119680Y-86928960D03*
X101579680Y-89468960D03*
X101579680Y-86928960D03*
X99039680Y-89468960D03*
X99039680Y-86928960D03*
D18*
X99344300Y-101092000D03*
X101544300Y-101092000D03*
X94929780Y-92062300D03*
X97129780Y-92062300D03*
X90571140Y-92090240D03*
X92771140Y-92090240D03*
D19*
X114175000Y-105050000D03*
X114175000Y-107250000D03*
X85912960Y-119504640D03*
X85912960Y-117304640D03*
X86095840Y-110355200D03*
X86095840Y-112555200D03*
D18*
X97043420Y-101099620D03*
X94843420Y-101099620D03*
D20*
X92418080Y-117993200D03*
X92418080Y-117043200D03*
X92418080Y-116093200D03*
X90218080Y-116093200D03*
X90218080Y-117993200D03*
D21*
X99422200Y-110395200D03*
X99422200Y-109895200D03*
X99422200Y-109395200D03*
X99422200Y-108895200D03*
X99422200Y-108395200D03*
X99422200Y-107895200D03*
X99422200Y-107395200D03*
X99422200Y-106895200D03*
X99422200Y-106395200D03*
X99422200Y-105895200D03*
X99422200Y-105395200D03*
X99422200Y-104895200D03*
D22*
X97822200Y-103295200D03*
X97322200Y-103295200D03*
X96822200Y-103295200D03*
X96322200Y-103295200D03*
X95822200Y-103295200D03*
X95322200Y-103295200D03*
X94822200Y-103295200D03*
X94322200Y-103295200D03*
X93822200Y-103295200D03*
X93322200Y-103295200D03*
X92822200Y-103295200D03*
X92322200Y-103295200D03*
D21*
X90722200Y-104895200D03*
X90722200Y-105395200D03*
X90722200Y-105895200D03*
X90722200Y-106395200D03*
X90722200Y-106895200D03*
X90722200Y-107395200D03*
X90722200Y-107895200D03*
X90722200Y-108395200D03*
X90722200Y-108895200D03*
X90722200Y-109395200D03*
X90722200Y-109895200D03*
X90722200Y-110395200D03*
D22*
X92322200Y-111995200D03*
X92822200Y-111995200D03*
X93322200Y-111995200D03*
X93822200Y-111995200D03*
X94322200Y-111995200D03*
X94822200Y-111995200D03*
X95322200Y-111995200D03*
X95822200Y-111995200D03*
X96322200Y-111995200D03*
X96822200Y-111995200D03*
X97322200Y-111995200D03*
X97822200Y-111995200D03*
D23*
X105030480Y-103287640D03*
X105030480Y-103937640D03*
X105030480Y-104587640D03*
X105030480Y-105237640D03*
X105030480Y-105887640D03*
X105030480Y-106537640D03*
X105030480Y-107187640D03*
X105030480Y-107837640D03*
X105030480Y-108487640D03*
X105030480Y-109137640D03*
X110930480Y-109137640D03*
X110930480Y-108487640D03*
X110930480Y-107837640D03*
X110930480Y-107187640D03*
X110930480Y-106537640D03*
X110930480Y-105887640D03*
X110930480Y-105237640D03*
X110930480Y-104587640D03*
X110930480Y-103937640D03*
X110930480Y-103287640D03*
D24*
X104896880Y-100589080D03*
X106796880Y-100589080D03*
X105846880Y-98590100D03*
D25*
X101700640Y-123652280D03*
X101050640Y-123652280D03*
X100400640Y-123652280D03*
X99750640Y-123652280D03*
X99100640Y-123652280D03*
D26*
X102872540Y-124007880D03*
X97919540Y-124007880D03*
D27*
X99545140Y-126315280D03*
X101224540Y-126315280D03*
D28*
X97462340Y-126315280D03*
X103317040Y-126315280D03*
D29*
X85818380Y-115531900D03*
X85818380Y-114455600D03*
X87101680Y-115519200D03*
X87101680Y-114455600D03*
D30*
X87150000Y-97500000D03*
D31*
X87150000Y-100040000D03*
D32*
X105481120Y-93817440D03*
D33*
X108021120Y-93817440D03*
X110561120Y-93817440D03*
D34*
X108901360Y-117909700D03*
X105901360Y-117909700D03*
X108901360Y-118559700D03*
X105901360Y-118559700D03*
X108901360Y-119209700D03*
X105901360Y-119209700D03*
X108901360Y-119859700D03*
X105901360Y-119859700D03*
D35*
X82500000Y-118000000D03*
D36*
X82500000Y-115460000D03*
X82500000Y-112920000D03*
X82500000Y-110380000D03*
X82500000Y-107840000D03*
X82500000Y-105300000D03*
X82500000Y-102760000D03*
X82500000Y-100220000D03*
X82500000Y-97680000D03*
D37*
X97487280Y-96867980D03*
X93175280Y-96867980D03*
D11*
X84000000Y-89000000D03*
D35*
X117124480Y-118000000D03*
D36*
X117124480Y-115460000D03*
X117124480Y-112920000D03*
X117124480Y-110380000D03*
X117124480Y-107840000D03*
X117124480Y-105300000D03*
X117124480Y-102760000D03*
X117124480Y-100220000D03*
X117124480Y-97680000D03*
D38*
X97043240Y-117006700D03*
D39*
X99251340Y-118757700D03*
X99251340Y-116814600D03*
X97043240Y-118757700D03*
M02*
