G04 #@! TF.FileFunction,Legend,Top*
%FSLAX46Y46*%
G04 Gerber Fmt 4.6, Leading zero omitted, Abs format (unit mm)*
G04 Created by KiCad (PCBNEW 4.0.2-stable) date 4/9/2016 9:23:23 PM*
%MOMM*%
G01*
G04 APERTURE LIST*
%ADD10C,0.100000*%
%ADD11C,0.150000*%
G04 APERTURE END LIST*
D10*
D11*
X93035680Y-120533680D02*
X93035680Y-121233680D01*
X91835680Y-121233680D02*
X91835680Y-120533680D01*
X101288480Y-117229000D02*
X101288480Y-118229000D01*
X102988480Y-118229000D02*
X102988480Y-117229000D01*
X90820800Y-120493040D02*
X90820800Y-121193040D01*
X89620800Y-121193040D02*
X89620800Y-120493040D01*
X113360000Y-119710000D02*
X113360000Y-118710000D01*
X111660000Y-118710000D02*
X111660000Y-119710000D01*
X108370000Y-116780000D02*
X109370000Y-116780000D01*
X109370000Y-115080000D02*
X108370000Y-115080000D01*
X94144580Y-90846200D02*
X93444580Y-90846200D01*
X93444580Y-89646200D02*
X94144580Y-89646200D01*
X110515920Y-110448800D02*
X111215920Y-110448800D01*
X111215920Y-111648800D02*
X110515920Y-111648800D01*
X112600000Y-102400000D02*
X112600000Y-101700000D01*
X113800000Y-101700000D02*
X113800000Y-102400000D01*
X104500000Y-113900000D02*
X104500000Y-114900000D01*
X106200000Y-114900000D02*
X106200000Y-113900000D01*
X109880000Y-96520000D02*
X110580000Y-96520000D01*
X110580000Y-97720000D02*
X109880000Y-97720000D01*
X109880000Y-98250000D02*
X110580000Y-98250000D01*
X110580000Y-99450000D02*
X109880000Y-99450000D01*
X97769680Y-85658960D02*
X97769680Y-76828960D01*
X100309680Y-85658960D02*
X97769680Y-85658960D01*
X100309680Y-76828960D02*
X97769680Y-76828960D01*
X97769680Y-76828960D02*
X97769680Y-85658960D01*
X100309680Y-76828960D02*
X100309680Y-85658960D01*
X102849680Y-76828960D02*
X100309680Y-76828960D01*
X102849680Y-85658960D02*
X100309680Y-85658960D01*
X100309680Y-85658960D02*
X100309680Y-76828960D01*
X102849680Y-85658960D02*
X102849680Y-76828960D01*
X105389680Y-85658960D02*
X102849680Y-85658960D01*
X105389680Y-76828960D02*
X102849680Y-76828960D01*
X102849680Y-76828960D02*
X102849680Y-85658960D01*
X105389680Y-76828960D02*
X105389680Y-85658960D01*
X107929680Y-76828960D02*
X105389680Y-76828960D01*
X107929680Y-85658960D02*
X105389680Y-85658960D01*
X105389680Y-85658960D02*
X105389680Y-76828960D01*
X107929680Y-85658960D02*
X107929680Y-76828960D01*
X110469680Y-85658960D02*
X107929680Y-85658960D01*
X109199680Y-90618960D02*
X110749680Y-90618960D01*
X110749680Y-90618960D02*
X110749680Y-89468960D01*
X110469680Y-85658960D02*
X110469680Y-76828960D01*
X110469680Y-76828960D02*
X107929680Y-76828960D01*
X107929680Y-76828960D02*
X107929680Y-85658960D01*
X100944300Y-101767000D02*
X99944300Y-101767000D01*
X99944300Y-100417000D02*
X100944300Y-100417000D01*
X96529780Y-92737300D02*
X95529780Y-92737300D01*
X95529780Y-91387300D02*
X96529780Y-91387300D01*
X92171140Y-92765240D02*
X91171140Y-92765240D01*
X91171140Y-91415240D02*
X92171140Y-91415240D01*
X113500000Y-106650000D02*
X113500000Y-105650000D01*
X114850000Y-105650000D02*
X114850000Y-106650000D01*
X86587960Y-117904640D02*
X86587960Y-118904640D01*
X85237960Y-118904640D02*
X85237960Y-117904640D01*
X85420840Y-111955200D02*
X85420840Y-110955200D01*
X86770840Y-110955200D02*
X86770840Y-111955200D01*
X95443420Y-100424620D02*
X96443420Y-100424620D01*
X96443420Y-101774620D02*
X95443420Y-101774620D01*
X91718080Y-118743200D02*
G75*
G03X91718080Y-118743200I-100000J0D01*
G01*
X91068080Y-118493200D02*
X91568080Y-118493200D01*
X91068080Y-115593200D02*
X91068080Y-118493200D01*
X91568080Y-115593200D02*
X91068080Y-115593200D01*
X91568080Y-118493200D02*
X91568080Y-115593200D01*
X98697200Y-111270200D02*
X98697200Y-110745200D01*
X91447200Y-111270200D02*
X91447200Y-110745200D01*
X91447200Y-104020200D02*
X91447200Y-104545200D01*
X98697200Y-104020200D02*
X98697200Y-104545200D01*
X98697200Y-111270200D02*
X98172200Y-111270200D01*
X98697200Y-104020200D02*
X98172200Y-104020200D01*
X91447200Y-104020200D02*
X91972200Y-104020200D01*
X91447200Y-111270200D02*
X91972200Y-111270200D01*
X98697200Y-110745200D02*
X100072200Y-110745200D01*
X105755480Y-109587640D02*
X110205480Y-109587640D01*
X104230480Y-102837640D02*
X110205480Y-102837640D01*
X107146040Y-98938080D02*
X107097780Y-98938080D01*
X104347060Y-99639120D02*
X104347060Y-98938080D01*
X104347060Y-98938080D02*
X104595980Y-98938080D01*
X107146040Y-98938080D02*
X107346700Y-98938080D01*
X107346700Y-98938080D02*
X107346700Y-99639120D01*
X95976440Y-122445780D02*
X105285540Y-122445780D01*
X95989140Y-122864880D02*
X95989140Y-122471180D01*
X105310940Y-122433080D02*
X105310940Y-127487680D01*
X105310940Y-127487680D02*
X96065340Y-127487680D01*
X95989140Y-127462280D02*
X95989140Y-122763280D01*
X85387180Y-113893600D02*
X87533480Y-113893600D01*
X87533480Y-113893600D02*
X87520780Y-113919000D01*
X85387180Y-116090700D02*
X85387180Y-113881400D01*
X87533480Y-116090700D02*
X85412580Y-116090700D01*
X87533480Y-113919000D02*
X87533480Y-116103400D01*
X85600000Y-95950000D02*
X85600000Y-97500000D01*
X85880000Y-101310000D02*
X85880000Y-98770000D01*
X85880000Y-98770000D02*
X88420000Y-98770000D01*
X88700000Y-97500000D02*
X88700000Y-95950000D01*
X88700000Y-95950000D02*
X85600000Y-95950000D01*
X88420000Y-98770000D02*
X88420000Y-101310000D01*
X88420000Y-101310000D02*
X85880000Y-101310000D01*
X105481120Y-92267440D02*
X103931120Y-92267440D01*
X103931120Y-92267440D02*
X103931120Y-95367440D01*
X103931120Y-95367440D02*
X105481120Y-95367440D01*
X106751120Y-92547440D02*
X111831120Y-92547440D01*
X111831120Y-92547440D02*
X111831120Y-95087440D01*
X111831120Y-95087440D02*
X106751120Y-95087440D01*
X106751120Y-95087440D02*
X106751120Y-92547440D01*
X110401360Y-118239700D02*
X109401360Y-117239700D01*
X109401360Y-117239700D02*
X104401360Y-117239700D01*
X104401360Y-117239700D02*
X104401360Y-120529700D01*
X104401360Y-120529700D02*
X110401360Y-120529700D01*
X110401360Y-120529700D02*
X110401360Y-118239700D01*
X81230000Y-116730000D02*
X81230000Y-96410000D01*
X81230000Y-96410000D02*
X83770000Y-96410000D01*
X83770000Y-96410000D02*
X83770000Y-116730000D01*
X80950000Y-119550000D02*
X80950000Y-118000000D01*
X81230000Y-116730000D02*
X83770000Y-116730000D01*
X84050000Y-118000000D02*
X84050000Y-119550000D01*
X84050000Y-119550000D02*
X80950000Y-119550000D01*
X90175080Y-93337380D02*
X90175080Y-99153980D01*
X90187780Y-99153980D02*
X100423980Y-99153980D01*
X100423980Y-93337380D02*
X100423980Y-99153980D01*
X90149680Y-93337380D02*
X100385880Y-93337380D01*
X115854480Y-116730000D02*
X115854480Y-96410000D01*
X115854480Y-96410000D02*
X118394480Y-96410000D01*
X118394480Y-96410000D02*
X118394480Y-116730000D01*
X115574480Y-119550000D02*
X115574480Y-118000000D01*
X115854480Y-116730000D02*
X118394480Y-116730000D01*
X118674480Y-118000000D02*
X118674480Y-119550000D01*
X118674480Y-119550000D02*
X115574480Y-119550000D01*
X95811340Y-116039900D02*
X95811340Y-119532400D01*
X95862140Y-119557800D02*
X100294440Y-119557800D01*
X100294440Y-116065300D02*
X100294440Y-119557800D01*
X95811340Y-116052600D02*
X100243640Y-116052600D01*
X87044476Y-122364381D02*
X87044476Y-121364381D01*
X87377810Y-122078667D01*
X87711143Y-121364381D01*
X87711143Y-122364381D01*
X88139714Y-121459619D02*
X88187333Y-121412000D01*
X88282571Y-121364381D01*
X88520667Y-121364381D01*
X88615905Y-121412000D01*
X88663524Y-121459619D01*
X88711143Y-121554857D01*
X88711143Y-121650095D01*
X88663524Y-121792952D01*
X88092095Y-122364381D01*
X88711143Y-122364381D01*
X110870476Y-123992381D02*
X110870476Y-122992381D01*
X111203810Y-123706667D01*
X111537143Y-122992381D01*
X111537143Y-123992381D01*
X112537143Y-123992381D02*
X111965714Y-123992381D01*
X112251428Y-123992381D02*
X112251428Y-122992381D01*
X112156190Y-123135238D01*
X112060952Y-123230476D01*
X111965714Y-123278095D01*
X116210476Y-93432381D02*
X116210476Y-92432381D01*
X116543810Y-93146667D01*
X116877143Y-92432381D01*
X116877143Y-93432381D01*
X117258095Y-92432381D02*
X117877143Y-92432381D01*
X117543809Y-92813333D01*
X117686667Y-92813333D01*
X117781905Y-92860952D01*
X117829524Y-92908571D01*
X117877143Y-93003810D01*
X117877143Y-93241905D01*
X117829524Y-93337143D01*
X117781905Y-93384762D01*
X117686667Y-93432381D01*
X117400952Y-93432381D01*
X117305714Y-93384762D01*
X117258095Y-93337143D01*
X92869023Y-124072946D02*
X92916642Y-124120565D01*
X92964261Y-124263422D01*
X92964261Y-124358660D01*
X92916642Y-124501518D01*
X92821404Y-124596756D01*
X92726166Y-124644375D01*
X92535690Y-124691994D01*
X92392832Y-124691994D01*
X92202356Y-124644375D01*
X92107118Y-124596756D01*
X92011880Y-124501518D01*
X91964261Y-124358660D01*
X91964261Y-124263422D01*
X92011880Y-124120565D01*
X92059499Y-124072946D01*
X92964261Y-123120565D02*
X92964261Y-123691994D01*
X92964261Y-123406280D02*
X91964261Y-123406280D01*
X92107118Y-123501518D01*
X92202356Y-123596756D01*
X92249975Y-123691994D01*
X102437143Y-121396666D02*
X102484762Y-121444285D01*
X102532381Y-121587142D01*
X102532381Y-121682380D01*
X102484762Y-121825238D01*
X102389524Y-121920476D01*
X102294286Y-121968095D01*
X102103810Y-122015714D01*
X101960952Y-122015714D01*
X101770476Y-121968095D01*
X101675238Y-121920476D01*
X101580000Y-121825238D01*
X101532381Y-121682380D01*
X101532381Y-121587142D01*
X101580000Y-121444285D01*
X101627619Y-121396666D01*
X101627619Y-121015714D02*
X101580000Y-120968095D01*
X101532381Y-120872857D01*
X101532381Y-120634761D01*
X101580000Y-120539523D01*
X101627619Y-120491904D01*
X101722857Y-120444285D01*
X101818095Y-120444285D01*
X101960952Y-120491904D01*
X102532381Y-121063333D01*
X102532381Y-120444285D01*
X90679543Y-124108506D02*
X90727162Y-124156125D01*
X90774781Y-124298982D01*
X90774781Y-124394220D01*
X90727162Y-124537078D01*
X90631924Y-124632316D01*
X90536686Y-124679935D01*
X90346210Y-124727554D01*
X90203352Y-124727554D01*
X90012876Y-124679935D01*
X89917638Y-124632316D01*
X89822400Y-124537078D01*
X89774781Y-124394220D01*
X89774781Y-124298982D01*
X89822400Y-124156125D01*
X89870019Y-124108506D01*
X89774781Y-123775173D02*
X89774781Y-123156125D01*
X90155733Y-123489459D01*
X90155733Y-123346601D01*
X90203352Y-123251363D01*
X90250971Y-123203744D01*
X90346210Y-123156125D01*
X90584305Y-123156125D01*
X90679543Y-123203744D01*
X90727162Y-123251363D01*
X90774781Y-123346601D01*
X90774781Y-123632316D01*
X90727162Y-123727554D01*
X90679543Y-123775173D01*
X112943343Y-115642866D02*
X112990962Y-115690485D01*
X113038581Y-115833342D01*
X113038581Y-115928580D01*
X112990962Y-116071438D01*
X112895724Y-116166676D01*
X112800486Y-116214295D01*
X112610010Y-116261914D01*
X112467152Y-116261914D01*
X112276676Y-116214295D01*
X112181438Y-116166676D01*
X112086200Y-116071438D01*
X112038581Y-115928580D01*
X112038581Y-115833342D01*
X112086200Y-115690485D01*
X112133819Y-115642866D01*
X112371914Y-114785723D02*
X113038581Y-114785723D01*
X111990962Y-115023819D02*
X112705248Y-115261914D01*
X112705248Y-114642866D01*
X110059694Y-114082423D02*
X110012075Y-114130042D01*
X109869218Y-114177661D01*
X109773980Y-114177661D01*
X109631122Y-114130042D01*
X109535884Y-114034804D01*
X109488265Y-113939566D01*
X109440646Y-113749090D01*
X109440646Y-113606232D01*
X109488265Y-113415756D01*
X109535884Y-113320518D01*
X109631122Y-113225280D01*
X109773980Y-113177661D01*
X109869218Y-113177661D01*
X110012075Y-113225280D01*
X110059694Y-113272899D01*
X110964456Y-113177661D02*
X110488265Y-113177661D01*
X110440646Y-113653851D01*
X110488265Y-113606232D01*
X110583503Y-113558613D01*
X110821599Y-113558613D01*
X110916837Y-113606232D01*
X110964456Y-113653851D01*
X111012075Y-113749090D01*
X111012075Y-113987185D01*
X110964456Y-114082423D01*
X110916837Y-114130042D01*
X110821599Y-114177661D01*
X110583503Y-114177661D01*
X110488265Y-114130042D01*
X110440646Y-114082423D01*
X93573334Y-88847143D02*
X93525715Y-88894762D01*
X93382858Y-88942381D01*
X93287620Y-88942381D01*
X93144762Y-88894762D01*
X93049524Y-88799524D01*
X93001905Y-88704286D01*
X92954286Y-88513810D01*
X92954286Y-88370952D01*
X93001905Y-88180476D01*
X93049524Y-88085238D01*
X93144762Y-87990000D01*
X93287620Y-87942381D01*
X93382858Y-87942381D01*
X93525715Y-87990000D01*
X93573334Y-88037619D01*
X94430477Y-87942381D02*
X94240000Y-87942381D01*
X94144762Y-87990000D01*
X94097143Y-88037619D01*
X94001905Y-88180476D01*
X93954286Y-88370952D01*
X93954286Y-88751905D01*
X94001905Y-88847143D01*
X94049524Y-88894762D01*
X94144762Y-88942381D01*
X94335239Y-88942381D01*
X94430477Y-88894762D01*
X94478096Y-88847143D01*
X94525715Y-88751905D01*
X94525715Y-88513810D01*
X94478096Y-88418571D01*
X94430477Y-88370952D01*
X94335239Y-88323333D01*
X94144762Y-88323333D01*
X94049524Y-88370952D01*
X94001905Y-88418571D01*
X93954286Y-88513810D01*
X107498854Y-111494843D02*
X107451235Y-111542462D01*
X107308378Y-111590081D01*
X107213140Y-111590081D01*
X107070282Y-111542462D01*
X106975044Y-111447224D01*
X106927425Y-111351986D01*
X106879806Y-111161510D01*
X106879806Y-111018652D01*
X106927425Y-110828176D01*
X106975044Y-110732938D01*
X107070282Y-110637700D01*
X107213140Y-110590081D01*
X107308378Y-110590081D01*
X107451235Y-110637700D01*
X107498854Y-110685319D01*
X107832187Y-110590081D02*
X108498854Y-110590081D01*
X108070282Y-111590081D01*
X113413334Y-99297143D02*
X113365715Y-99344762D01*
X113222858Y-99392381D01*
X113127620Y-99392381D01*
X112984762Y-99344762D01*
X112889524Y-99249524D01*
X112841905Y-99154286D01*
X112794286Y-98963810D01*
X112794286Y-98820952D01*
X112841905Y-98630476D01*
X112889524Y-98535238D01*
X112984762Y-98440000D01*
X113127620Y-98392381D01*
X113222858Y-98392381D01*
X113365715Y-98440000D01*
X113413334Y-98487619D01*
X113984762Y-98820952D02*
X113889524Y-98773333D01*
X113841905Y-98725714D01*
X113794286Y-98630476D01*
X113794286Y-98582857D01*
X113841905Y-98487619D01*
X113889524Y-98440000D01*
X113984762Y-98392381D01*
X114175239Y-98392381D01*
X114270477Y-98440000D01*
X114318096Y-98487619D01*
X114365715Y-98582857D01*
X114365715Y-98630476D01*
X114318096Y-98725714D01*
X114270477Y-98773333D01*
X114175239Y-98820952D01*
X113984762Y-98820952D01*
X113889524Y-98868571D01*
X113841905Y-98916190D01*
X113794286Y-99011429D01*
X113794286Y-99201905D01*
X113841905Y-99297143D01*
X113889524Y-99344762D01*
X113984762Y-99392381D01*
X114175239Y-99392381D01*
X114270477Y-99344762D01*
X114318096Y-99297143D01*
X114365715Y-99201905D01*
X114365715Y-99011429D01*
X114318096Y-98916190D01*
X114270477Y-98868571D01*
X114175239Y-98820952D01*
X103482143Y-113541666D02*
X103529762Y-113589285D01*
X103577381Y-113732142D01*
X103577381Y-113827380D01*
X103529762Y-113970238D01*
X103434524Y-114065476D01*
X103339286Y-114113095D01*
X103148810Y-114160714D01*
X103005952Y-114160714D01*
X102815476Y-114113095D01*
X102720238Y-114065476D01*
X102625000Y-113970238D01*
X102577381Y-113827380D01*
X102577381Y-113732142D01*
X102625000Y-113589285D01*
X102672619Y-113541666D01*
X103577381Y-113065476D02*
X103577381Y-112875000D01*
X103529762Y-112779761D01*
X103482143Y-112732142D01*
X103339286Y-112636904D01*
X103148810Y-112589285D01*
X102767857Y-112589285D01*
X102672619Y-112636904D01*
X102625000Y-112684523D01*
X102577381Y-112779761D01*
X102577381Y-112970238D01*
X102625000Y-113065476D01*
X102672619Y-113113095D01*
X102767857Y-113160714D01*
X103005952Y-113160714D01*
X103101190Y-113113095D01*
X103148810Y-113065476D01*
X103196429Y-112970238D01*
X103196429Y-112779761D01*
X103148810Y-112684523D01*
X103101190Y-112636904D01*
X103005952Y-112589285D01*
X105627143Y-97327143D02*
X105579524Y-97374762D01*
X105436667Y-97422381D01*
X105341429Y-97422381D01*
X105198571Y-97374762D01*
X105103333Y-97279524D01*
X105055714Y-97184286D01*
X105008095Y-96993810D01*
X105008095Y-96850952D01*
X105055714Y-96660476D01*
X105103333Y-96565238D01*
X105198571Y-96470000D01*
X105341429Y-96422381D01*
X105436667Y-96422381D01*
X105579524Y-96470000D01*
X105627143Y-96517619D01*
X106579524Y-97422381D02*
X106008095Y-97422381D01*
X106293809Y-97422381D02*
X106293809Y-96422381D01*
X106198571Y-96565238D01*
X106103333Y-96660476D01*
X106008095Y-96708095D01*
X106912857Y-96422381D02*
X107531905Y-96422381D01*
X107198571Y-96803333D01*
X107341429Y-96803333D01*
X107436667Y-96850952D01*
X107484286Y-96898571D01*
X107531905Y-96993810D01*
X107531905Y-97231905D01*
X107484286Y-97327143D01*
X107436667Y-97374762D01*
X107341429Y-97422381D01*
X107055714Y-97422381D01*
X106960476Y-97374762D01*
X106912857Y-97327143D01*
X113117143Y-97487143D02*
X113069524Y-97534762D01*
X112926667Y-97582381D01*
X112831429Y-97582381D01*
X112688571Y-97534762D01*
X112593333Y-97439524D01*
X112545714Y-97344286D01*
X112498095Y-97153810D01*
X112498095Y-97010952D01*
X112545714Y-96820476D01*
X112593333Y-96725238D01*
X112688571Y-96630000D01*
X112831429Y-96582381D01*
X112926667Y-96582381D01*
X113069524Y-96630000D01*
X113117143Y-96677619D01*
X114069524Y-97582381D02*
X113498095Y-97582381D01*
X113783809Y-97582381D02*
X113783809Y-96582381D01*
X113688571Y-96725238D01*
X113593333Y-96820476D01*
X113498095Y-96868095D01*
X114926667Y-96915714D02*
X114926667Y-97582381D01*
X114688571Y-96534762D02*
X114450476Y-97249048D01*
X115069524Y-97249048D01*
X112432381Y-89088095D02*
X111432381Y-89088095D01*
X111432381Y-88707142D01*
X111480000Y-88611904D01*
X111527619Y-88564285D01*
X111622857Y-88516666D01*
X111765714Y-88516666D01*
X111860952Y-88564285D01*
X111908571Y-88611904D01*
X111956190Y-88707142D01*
X111956190Y-89088095D01*
X111432381Y-87659523D02*
X111432381Y-87850000D01*
X111480000Y-87945238D01*
X111527619Y-87992857D01*
X111670476Y-88088095D01*
X111860952Y-88135714D01*
X112241905Y-88135714D01*
X112337143Y-88088095D01*
X112384762Y-88040476D01*
X112432381Y-87945238D01*
X112432381Y-87754761D01*
X112384762Y-87659523D01*
X112337143Y-87611904D01*
X112241905Y-87564285D01*
X112003810Y-87564285D01*
X111908571Y-87611904D01*
X111860952Y-87659523D01*
X111813333Y-87754761D01*
X111813333Y-87945238D01*
X111860952Y-88040476D01*
X111908571Y-88088095D01*
X112003810Y-88135714D01*
X102169934Y-99829881D02*
X101836600Y-99353690D01*
X101598505Y-99829881D02*
X101598505Y-98829881D01*
X101979458Y-98829881D01*
X102074696Y-98877500D01*
X102122315Y-98925119D01*
X102169934Y-99020357D01*
X102169934Y-99163214D01*
X102122315Y-99258452D01*
X102074696Y-99306071D01*
X101979458Y-99353690D01*
X101598505Y-99353690D01*
X103122315Y-99829881D02*
X102550886Y-99829881D01*
X102836600Y-99829881D02*
X102836600Y-98829881D01*
X102741362Y-98972738D01*
X102646124Y-99067976D01*
X102550886Y-99115595D01*
X99510554Y-92540081D02*
X99177220Y-92063890D01*
X98939125Y-92540081D02*
X98939125Y-91540081D01*
X99320078Y-91540081D01*
X99415316Y-91587700D01*
X99462935Y-91635319D01*
X99510554Y-91730557D01*
X99510554Y-91873414D01*
X99462935Y-91968652D01*
X99415316Y-92016271D01*
X99320078Y-92063890D01*
X98939125Y-92063890D01*
X99891506Y-91635319D02*
X99939125Y-91587700D01*
X100034363Y-91540081D01*
X100272459Y-91540081D01*
X100367697Y-91587700D01*
X100415316Y-91635319D01*
X100462935Y-91730557D01*
X100462935Y-91825795D01*
X100415316Y-91968652D01*
X99843887Y-92540081D01*
X100462935Y-92540081D01*
X88083334Y-92582381D02*
X87750000Y-92106190D01*
X87511905Y-92582381D02*
X87511905Y-91582381D01*
X87892858Y-91582381D01*
X87988096Y-91630000D01*
X88035715Y-91677619D01*
X88083334Y-91772857D01*
X88083334Y-91915714D01*
X88035715Y-92010952D01*
X87988096Y-92058571D01*
X87892858Y-92106190D01*
X87511905Y-92106190D01*
X88416667Y-91582381D02*
X89035715Y-91582381D01*
X88702381Y-91963333D01*
X88845239Y-91963333D01*
X88940477Y-92010952D01*
X88988096Y-92058571D01*
X89035715Y-92153810D01*
X89035715Y-92391905D01*
X88988096Y-92487143D01*
X88940477Y-92534762D01*
X88845239Y-92582381D01*
X88559524Y-92582381D01*
X88464286Y-92534762D01*
X88416667Y-92487143D01*
X114589281Y-109567866D02*
X114113090Y-109901200D01*
X114589281Y-110139295D02*
X113589281Y-110139295D01*
X113589281Y-109758342D01*
X113636900Y-109663104D01*
X113684519Y-109615485D01*
X113779757Y-109567866D01*
X113922614Y-109567866D01*
X114017852Y-109615485D01*
X114065471Y-109663104D01*
X114113090Y-109758342D01*
X114113090Y-110139295D01*
X113922614Y-108710723D02*
X114589281Y-108710723D01*
X113541662Y-108948819D02*
X114255948Y-109186914D01*
X114255948Y-108567866D01*
X88132381Y-118326666D02*
X87656190Y-118660000D01*
X88132381Y-118898095D02*
X87132381Y-118898095D01*
X87132381Y-118517142D01*
X87180000Y-118421904D01*
X87227619Y-118374285D01*
X87322857Y-118326666D01*
X87465714Y-118326666D01*
X87560952Y-118374285D01*
X87608571Y-118421904D01*
X87656190Y-118517142D01*
X87656190Y-118898095D01*
X87560952Y-117755238D02*
X87513333Y-117850476D01*
X87465714Y-117898095D01*
X87370476Y-117945714D01*
X87322857Y-117945714D01*
X87227619Y-117898095D01*
X87180000Y-117850476D01*
X87132381Y-117755238D01*
X87132381Y-117564761D01*
X87180000Y-117469523D01*
X87227619Y-117421904D01*
X87322857Y-117374285D01*
X87370476Y-117374285D01*
X87465714Y-117421904D01*
X87513333Y-117469523D01*
X87560952Y-117564761D01*
X87560952Y-117755238D01*
X87608571Y-117850476D01*
X87656190Y-117898095D01*
X87751429Y-117945714D01*
X87941905Y-117945714D01*
X88037143Y-117898095D01*
X88084762Y-117850476D01*
X88132381Y-117755238D01*
X88132381Y-117564761D01*
X88084762Y-117469523D01*
X88037143Y-117421904D01*
X87941905Y-117374285D01*
X87751429Y-117374285D01*
X87656190Y-117421904D01*
X87608571Y-117469523D01*
X87560952Y-117564761D01*
X86649821Y-108167466D02*
X86173630Y-108500800D01*
X86649821Y-108738895D02*
X85649821Y-108738895D01*
X85649821Y-108357942D01*
X85697440Y-108262704D01*
X85745059Y-108215085D01*
X85840297Y-108167466D01*
X85983154Y-108167466D01*
X86078392Y-108215085D01*
X86126011Y-108262704D01*
X86173630Y-108357942D01*
X86173630Y-108738895D01*
X86649821Y-107691276D02*
X86649821Y-107500800D01*
X86602202Y-107405561D01*
X86554583Y-107357942D01*
X86411726Y-107262704D01*
X86221250Y-107215085D01*
X85840297Y-107215085D01*
X85745059Y-107262704D01*
X85697440Y-107310323D01*
X85649821Y-107405561D01*
X85649821Y-107596038D01*
X85697440Y-107691276D01*
X85745059Y-107738895D01*
X85840297Y-107786514D01*
X86078392Y-107786514D01*
X86173630Y-107738895D01*
X86221250Y-107691276D01*
X86268869Y-107596038D01*
X86268869Y-107405561D01*
X86221250Y-107310323D01*
X86173630Y-107262704D01*
X86078392Y-107215085D01*
X91554063Y-101539301D02*
X91220729Y-101063110D01*
X90982634Y-101539301D02*
X90982634Y-100539301D01*
X91363587Y-100539301D01*
X91458825Y-100586920D01*
X91506444Y-100634539D01*
X91554063Y-100729777D01*
X91554063Y-100872634D01*
X91506444Y-100967872D01*
X91458825Y-101015491D01*
X91363587Y-101063110D01*
X90982634Y-101063110D01*
X92506444Y-101539301D02*
X91935015Y-101539301D01*
X92220729Y-101539301D02*
X92220729Y-100539301D01*
X92125491Y-100682158D01*
X92030253Y-100777396D01*
X91935015Y-100825015D01*
X92887396Y-100634539D02*
X92935015Y-100586920D01*
X93030253Y-100539301D01*
X93268349Y-100539301D01*
X93363587Y-100586920D01*
X93411206Y-100634539D01*
X93458825Y-100729777D01*
X93458825Y-100825015D01*
X93411206Y-100967872D01*
X92839777Y-101539301D01*
X93458825Y-101539301D01*
X90688095Y-114052381D02*
X90688095Y-114861905D01*
X90735714Y-114957143D01*
X90783333Y-115004762D01*
X90878571Y-115052381D01*
X91069048Y-115052381D01*
X91164286Y-115004762D01*
X91211905Y-114957143D01*
X91259524Y-114861905D01*
X91259524Y-114052381D01*
X92259524Y-115052381D02*
X91688095Y-115052381D01*
X91973809Y-115052381D02*
X91973809Y-114052381D01*
X91878571Y-114195238D01*
X91783333Y-114290476D01*
X91688095Y-114338095D01*
X98488095Y-111577381D02*
X98488095Y-112386905D01*
X98535714Y-112482143D01*
X98583333Y-112529762D01*
X98678571Y-112577381D01*
X98869048Y-112577381D01*
X98964286Y-112529762D01*
X99011905Y-112482143D01*
X99059524Y-112386905D01*
X99059524Y-111577381D01*
X99488095Y-111672619D02*
X99535714Y-111625000D01*
X99630952Y-111577381D01*
X99869048Y-111577381D01*
X99964286Y-111625000D01*
X100011905Y-111672619D01*
X100059524Y-111767857D01*
X100059524Y-111863095D01*
X100011905Y-112005952D01*
X99440476Y-112577381D01*
X100059524Y-112577381D01*
X102748175Y-109983021D02*
X102748175Y-110792545D01*
X102795794Y-110887783D01*
X102843413Y-110935402D01*
X102938651Y-110983021D01*
X103129128Y-110983021D01*
X103224366Y-110935402D01*
X103271985Y-110887783D01*
X103319604Y-110792545D01*
X103319604Y-109983021D01*
X103700556Y-109983021D02*
X104319604Y-109983021D01*
X103986270Y-110363973D01*
X104129128Y-110363973D01*
X104224366Y-110411592D01*
X104271985Y-110459211D01*
X104319604Y-110554450D01*
X104319604Y-110792545D01*
X104271985Y-110887783D01*
X104224366Y-110935402D01*
X104129128Y-110983021D01*
X103843413Y-110983021D01*
X103748175Y-110935402D01*
X103700556Y-110887783D01*
X102708095Y-96662381D02*
X102708095Y-97471905D01*
X102755714Y-97567143D01*
X102803333Y-97614762D01*
X102898571Y-97662381D01*
X103089048Y-97662381D01*
X103184286Y-97614762D01*
X103231905Y-97567143D01*
X103279524Y-97471905D01*
X103279524Y-96662381D01*
X104231905Y-96662381D02*
X103755714Y-96662381D01*
X103708095Y-97138571D01*
X103755714Y-97090952D01*
X103850952Y-97043333D01*
X104089048Y-97043333D01*
X104184286Y-97090952D01*
X104231905Y-97138571D01*
X104279524Y-97233810D01*
X104279524Y-97471905D01*
X104231905Y-97567143D01*
X104184286Y-97614762D01*
X104089048Y-97662381D01*
X103850952Y-97662381D01*
X103755714Y-97614762D01*
X103708095Y-97567143D01*
X105952381Y-126528095D02*
X106761905Y-126528095D01*
X106857143Y-126480476D01*
X106904762Y-126432857D01*
X106952381Y-126337619D01*
X106952381Y-126147142D01*
X106904762Y-126051904D01*
X106857143Y-126004285D01*
X106761905Y-125956666D01*
X105952381Y-125956666D01*
X106904762Y-125528095D02*
X106952381Y-125385238D01*
X106952381Y-125147142D01*
X106904762Y-125051904D01*
X106857143Y-125004285D01*
X106761905Y-124956666D01*
X106666667Y-124956666D01*
X106571429Y-125004285D01*
X106523810Y-125051904D01*
X106476190Y-125147142D01*
X106428571Y-125337619D01*
X106380952Y-125432857D01*
X106333333Y-125480476D01*
X106238095Y-125528095D01*
X106142857Y-125528095D01*
X106047619Y-125480476D01*
X106000000Y-125432857D01*
X105952381Y-125337619D01*
X105952381Y-125099523D01*
X106000000Y-124956666D01*
X106428571Y-124194761D02*
X106476190Y-124051904D01*
X106523810Y-124004285D01*
X106619048Y-123956666D01*
X106761905Y-123956666D01*
X106857143Y-124004285D01*
X106904762Y-124051904D01*
X106952381Y-124147142D01*
X106952381Y-124528095D01*
X105952381Y-124528095D01*
X105952381Y-124194761D01*
X106000000Y-124099523D01*
X106047619Y-124051904D01*
X106142857Y-124004285D01*
X106238095Y-124004285D01*
X106333333Y-124051904D01*
X106380952Y-124099523D01*
X106428571Y-124194761D01*
X106428571Y-124528095D01*
X106952381Y-123004285D02*
X106952381Y-123575714D01*
X106952381Y-123290000D02*
X105952381Y-123290000D01*
X106095238Y-123385238D01*
X106190476Y-123480476D01*
X106238095Y-123575714D01*
X88660166Y-115906829D02*
X87910166Y-115906829D01*
X87910166Y-115728257D01*
X87945880Y-115621114D01*
X88017309Y-115549686D01*
X88088737Y-115513971D01*
X88231594Y-115478257D01*
X88338737Y-115478257D01*
X88481594Y-115513971D01*
X88553023Y-115549686D01*
X88624451Y-115621114D01*
X88660166Y-115728257D01*
X88660166Y-115906829D01*
X88660166Y-115156829D02*
X87910166Y-115156829D01*
X88660166Y-114728257D01*
X87910166Y-114728257D01*
X88660166Y-113978257D02*
X88660166Y-114406829D01*
X88660166Y-114192543D02*
X87910166Y-114192543D01*
X88017309Y-114263972D01*
X88088737Y-114335400D01*
X88124451Y-114406829D01*
X87702381Y-95048095D02*
X86702381Y-95048095D01*
X86702381Y-94667142D01*
X86750000Y-94571904D01*
X86797619Y-94524285D01*
X86892857Y-94476666D01*
X87035714Y-94476666D01*
X87130952Y-94524285D01*
X87178571Y-94571904D01*
X87226190Y-94667142D01*
X87226190Y-95048095D01*
X87702381Y-93524285D02*
X87702381Y-94095714D01*
X87702381Y-93810000D02*
X86702381Y-93810000D01*
X86845238Y-93905238D01*
X86940476Y-94000476D01*
X86988095Y-94095714D01*
X103088701Y-94784135D02*
X102088701Y-94784135D01*
X102088701Y-94403182D01*
X102136320Y-94307944D01*
X102183939Y-94260325D01*
X102279177Y-94212706D01*
X102422034Y-94212706D01*
X102517272Y-94260325D01*
X102564891Y-94307944D01*
X102612510Y-94403182D01*
X102612510Y-94784135D01*
X102183939Y-93831754D02*
X102136320Y-93784135D01*
X102088701Y-93688897D01*
X102088701Y-93450801D01*
X102136320Y-93355563D01*
X102183939Y-93307944D01*
X102279177Y-93260325D01*
X102374415Y-93260325D01*
X102517272Y-93307944D01*
X103088701Y-93879373D01*
X103088701Y-93260325D01*
X108435714Y-121032857D02*
X108435714Y-122004286D01*
X108492857Y-122118571D01*
X108550000Y-122175714D01*
X108664286Y-122232857D01*
X108892857Y-122232857D01*
X109007143Y-122175714D01*
X109064286Y-122118571D01*
X109121429Y-122004286D01*
X109121429Y-121032857D01*
X110207143Y-121432857D02*
X110207143Y-122232857D01*
X109921429Y-120975714D02*
X109635714Y-121832857D01*
X110378572Y-121832857D01*
X81781905Y-95222381D02*
X81781905Y-94222381D01*
X82162858Y-94222381D01*
X82258096Y-94270000D01*
X82305715Y-94317619D01*
X82353334Y-94412857D01*
X82353334Y-94555714D01*
X82305715Y-94650952D01*
X82258096Y-94698571D01*
X82162858Y-94746190D01*
X81781905Y-94746190D01*
X83258096Y-94222381D02*
X82781905Y-94222381D01*
X82734286Y-94698571D01*
X82781905Y-94650952D01*
X82877143Y-94603333D01*
X83115239Y-94603333D01*
X83210477Y-94650952D01*
X83258096Y-94698571D01*
X83305715Y-94793810D01*
X83305715Y-95031905D01*
X83258096Y-95127143D01*
X83210477Y-95174762D01*
X83115239Y-95222381D01*
X82877143Y-95222381D01*
X82781905Y-95174762D01*
X82734286Y-95127143D01*
X101938722Y-97893973D02*
X101986341Y-97751116D01*
X101986341Y-97513020D01*
X101938722Y-97417782D01*
X101891103Y-97370163D01*
X101795865Y-97322544D01*
X101700627Y-97322544D01*
X101605389Y-97370163D01*
X101557770Y-97417782D01*
X101510150Y-97513020D01*
X101462531Y-97703497D01*
X101414912Y-97798735D01*
X101367293Y-97846354D01*
X101272055Y-97893973D01*
X101176817Y-97893973D01*
X101081579Y-97846354D01*
X101033960Y-97798735D01*
X100986341Y-97703497D01*
X100986341Y-97465401D01*
X101033960Y-97322544D01*
X100986341Y-96989211D02*
X101986341Y-96751116D01*
X101272055Y-96560639D01*
X101986341Y-96370163D01*
X100986341Y-96132068D01*
X101986341Y-95227306D02*
X101986341Y-95798735D01*
X101986341Y-95513021D02*
X100986341Y-95513021D01*
X101129198Y-95608259D01*
X101224436Y-95703497D01*
X101272055Y-95798735D01*
X88210476Y-88052381D02*
X88210476Y-87052381D01*
X88543810Y-87766667D01*
X88877143Y-87052381D01*
X88877143Y-88052381D01*
X89781905Y-87385714D02*
X89781905Y-88052381D01*
X89543809Y-87004762D02*
X89305714Y-87719048D01*
X89924762Y-87719048D01*
X114832381Y-120238095D02*
X113832381Y-120238095D01*
X113832381Y-119857142D01*
X113880000Y-119761904D01*
X113927619Y-119714285D01*
X114022857Y-119666666D01*
X114165714Y-119666666D01*
X114260952Y-119714285D01*
X114308571Y-119761904D01*
X114356190Y-119857142D01*
X114356190Y-120238095D01*
X114165714Y-118809523D02*
X114832381Y-118809523D01*
X113784762Y-119047619D02*
X114499048Y-119285714D01*
X114499048Y-118666666D01*
X95036901Y-118571235D02*
X94036901Y-118571235D01*
X94036901Y-118333140D01*
X94084520Y-118190282D01*
X94179758Y-118095044D01*
X94274996Y-118047425D01*
X94465472Y-117999806D01*
X94608330Y-117999806D01*
X94798806Y-118047425D01*
X94894044Y-118095044D01*
X94989282Y-118190282D01*
X95036901Y-118333140D01*
X95036901Y-118571235D01*
X95036901Y-117047425D02*
X95036901Y-117618854D01*
X95036901Y-117333140D02*
X94036901Y-117333140D01*
X94179758Y-117428378D01*
X94274996Y-117523616D01*
X94322615Y-117618854D01*
M02*
