G04 #@! TF.FileFunction,Copper,L3,Inr,Mixed*
%FSLAX46Y46*%
G04 Gerber Fmt 4.6, Leading zero omitted, Abs format (unit mm)*
G04 Created by KiCad (PCBNEW 4.0.2-stable) date 4/9/2016 9:23:23 PM*
%MOMM*%
G01*
G04 APERTURE LIST*
%ADD10C,0.100000*%
%ADD11C,5.400000*%
%ADD12R,1.727200X1.727200*%
%ADD13O,1.727200X1.727200*%
%ADD14R,2.032000X2.032000*%
%ADD15O,2.032000X2.032000*%
%ADD16R,1.727200X2.032000*%
%ADD17O,1.727200X2.032000*%
%ADD18R,2.032000X1.727200*%
%ADD19O,2.032000X1.727200*%
%ADD20C,0.600000*%
%ADD21C,0.254000*%
G04 APERTURE END LIST*
D10*
D11*
X84000000Y-124000000D03*
X116000000Y-124000000D03*
X116000000Y-89000000D03*
D12*
X109199680Y-89468960D03*
D13*
X109199680Y-86928960D03*
X106659680Y-89468960D03*
X106659680Y-86928960D03*
X104119680Y-89468960D03*
X104119680Y-86928960D03*
X101579680Y-89468960D03*
X101579680Y-86928960D03*
X99039680Y-89468960D03*
X99039680Y-86928960D03*
D14*
X87150000Y-97500000D03*
D15*
X87150000Y-100040000D03*
D16*
X105481120Y-93817440D03*
D17*
X108021120Y-93817440D03*
X110561120Y-93817440D03*
D18*
X82500000Y-118000000D03*
D19*
X82500000Y-115460000D03*
X82500000Y-112920000D03*
X82500000Y-110380000D03*
X82500000Y-107840000D03*
X82500000Y-105300000D03*
X82500000Y-102760000D03*
X82500000Y-100220000D03*
X82500000Y-97680000D03*
D11*
X84000000Y-89000000D03*
D18*
X117124480Y-118000000D03*
D19*
X117124480Y-115460000D03*
X117124480Y-112920000D03*
X117124480Y-110380000D03*
X117124480Y-107840000D03*
X117124480Y-105300000D03*
X117124480Y-102760000D03*
X117124480Y-100220000D03*
X117124480Y-97680000D03*
D20*
X87625000Y-112800000D03*
X100949740Y-117790260D03*
X102610000Y-112640000D03*
X103500000Y-109740000D03*
X103140000Y-103570000D03*
X99530000Y-97450000D03*
X112620000Y-99890000D03*
X110900000Y-99900000D03*
X98014000Y-107180000D03*
X102078000Y-100068000D03*
X115286000Y-107434000D03*
X105634000Y-120642000D03*
X103348000Y-116070000D03*
X106904000Y-113022000D03*
X111476000Y-112260000D03*
X104872000Y-98290000D03*
X91156000Y-89908000D03*
X93442000Y-116832000D03*
X96744000Y-116070000D03*
X93696000Y-122420000D03*
X87092000Y-119880000D03*
X102880000Y-105580000D03*
X99240000Y-112710000D03*
X88550000Y-117510000D03*
X111630000Y-101880000D03*
X94458000Y-100068000D03*
X112660000Y-106150000D03*
X95220000Y-119118000D03*
X97375000Y-109300000D03*
X96325000Y-109275000D03*
X98450000Y-92775000D03*
X97150000Y-100100000D03*
X101325000Y-96550000D03*
X98725000Y-102900000D03*
X106825000Y-101950000D03*
X107625000Y-101875000D03*
X108575000Y-101975000D03*
X113000000Y-107180000D03*
X106220000Y-106520000D03*
X106550000Y-107500000D03*
X106275000Y-108325000D03*
X103700000Y-108300000D03*
X87550000Y-111425000D03*
X90325000Y-90950000D03*
X97975000Y-105675000D03*
X94325000Y-114075000D03*
X109190000Y-109810000D03*
X112950000Y-105100000D03*
X93250000Y-110900000D03*
X108260000Y-109710000D03*
X107700000Y-104950000D03*
X105888000Y-110990000D03*
X95700000Y-110825000D03*
X108140000Y-108600000D03*
X107300000Y-110290000D03*
X106750000Y-104850000D03*
X96950000Y-110875000D03*
X101625000Y-113550000D03*
X99250000Y-118025000D03*
X100675000Y-113550000D03*
X97275000Y-118050000D03*
D21*
G36*
X114113342Y-86171076D02*
X113174373Y-87108407D01*
X112665580Y-88333717D01*
X112664422Y-89660462D01*
X113171076Y-90886658D01*
X114108407Y-91825627D01*
X115333717Y-92334420D01*
X116660462Y-92335578D01*
X117886658Y-91828924D01*
X118825627Y-90891593D01*
X119121938Y-90177996D01*
X119114028Y-122803345D01*
X118828924Y-122113342D01*
X117891593Y-121174373D01*
X116666283Y-120665580D01*
X115339538Y-120664422D01*
X114113342Y-121171076D01*
X113174373Y-122108407D01*
X112665580Y-123333717D01*
X112664422Y-124660462D01*
X113171076Y-125886658D01*
X114108407Y-126825627D01*
X114327982Y-126916803D01*
X97281179Y-126930000D01*
X85642035Y-126930000D01*
X85886658Y-126828924D01*
X86825627Y-125891593D01*
X87334420Y-124666283D01*
X87335578Y-123339538D01*
X87032143Y-122605167D01*
X92760838Y-122605167D01*
X92902883Y-122948943D01*
X93165673Y-123212192D01*
X93509201Y-123354838D01*
X93881167Y-123355162D01*
X94224943Y-123213117D01*
X94488192Y-122950327D01*
X94630838Y-122606799D01*
X94631162Y-122234833D01*
X94489117Y-121891057D01*
X94226327Y-121627808D01*
X93882799Y-121485162D01*
X93510833Y-121484838D01*
X93167057Y-121626883D01*
X92903808Y-121889673D01*
X92761162Y-122233201D01*
X92760838Y-122605167D01*
X87032143Y-122605167D01*
X86828924Y-122113342D01*
X85891593Y-121174373D01*
X85055428Y-120827167D01*
X104698838Y-120827167D01*
X104840883Y-121170943D01*
X105103673Y-121434192D01*
X105447201Y-121576838D01*
X105819167Y-121577162D01*
X106162943Y-121435117D01*
X106426192Y-121172327D01*
X106568838Y-120828799D01*
X106569162Y-120456833D01*
X106427117Y-120113057D01*
X106164327Y-119849808D01*
X105820799Y-119707162D01*
X105448833Y-119706838D01*
X105105057Y-119848883D01*
X104841808Y-120111673D01*
X104699162Y-120455201D01*
X104698838Y-120827167D01*
X85055428Y-120827167D01*
X84666283Y-120665580D01*
X83339538Y-120664422D01*
X82113342Y-121171076D01*
X81174373Y-122108407D01*
X80665580Y-123333717D01*
X80664422Y-124660462D01*
X81171076Y-125886658D01*
X82108407Y-126825627D01*
X82359765Y-126930000D01*
X81324683Y-126930000D01*
X80963346Y-126864101D01*
X80730961Y-126714133D01*
X80618259Y-126551154D01*
X80633990Y-120065167D01*
X86156838Y-120065167D01*
X86298883Y-120408943D01*
X86561673Y-120672192D01*
X86905201Y-120814838D01*
X87277167Y-120815162D01*
X87620943Y-120673117D01*
X87884192Y-120410327D01*
X88026838Y-120066799D01*
X88027162Y-119694833D01*
X87885117Y-119351057D01*
X87622327Y-119087808D01*
X87278799Y-118945162D01*
X86906833Y-118944838D01*
X86563057Y-119086883D01*
X86299808Y-119349673D01*
X86157162Y-119693201D01*
X86156838Y-120065167D01*
X80633990Y-120065167D01*
X80688283Y-97680000D01*
X80816655Y-97680000D01*
X80930729Y-98253489D01*
X81255585Y-98739670D01*
X81570366Y-98950000D01*
X81255585Y-99160330D01*
X80930729Y-99646511D01*
X80816655Y-100220000D01*
X80930729Y-100793489D01*
X81255585Y-101279670D01*
X81570366Y-101490000D01*
X81255585Y-101700330D01*
X80930729Y-102186511D01*
X80816655Y-102760000D01*
X80930729Y-103333489D01*
X81255585Y-103819670D01*
X81570366Y-104030000D01*
X81255585Y-104240330D01*
X80930729Y-104726511D01*
X80816655Y-105300000D01*
X80930729Y-105873489D01*
X81255585Y-106359670D01*
X81570366Y-106570000D01*
X81255585Y-106780330D01*
X80930729Y-107266511D01*
X80816655Y-107840000D01*
X80930729Y-108413489D01*
X81255585Y-108899670D01*
X81570366Y-109110000D01*
X81255585Y-109320330D01*
X80930729Y-109806511D01*
X80816655Y-110380000D01*
X80930729Y-110953489D01*
X81255585Y-111439670D01*
X81570366Y-111650000D01*
X81255585Y-111860330D01*
X80930729Y-112346511D01*
X80816655Y-112920000D01*
X80930729Y-113493489D01*
X81255585Y-113979670D01*
X81570366Y-114190000D01*
X81255585Y-114400330D01*
X80930729Y-114886511D01*
X80816655Y-115460000D01*
X80930729Y-116033489D01*
X81255585Y-116519670D01*
X81269913Y-116529243D01*
X81248683Y-116533238D01*
X81032559Y-116672310D01*
X80887569Y-116884510D01*
X80836560Y-117136400D01*
X80836560Y-118863600D01*
X80880838Y-119098917D01*
X81019910Y-119315041D01*
X81232110Y-119460031D01*
X81484000Y-119511040D01*
X83516000Y-119511040D01*
X83751317Y-119466762D01*
X83967441Y-119327690D01*
X84112431Y-119115490D01*
X84163440Y-118863600D01*
X84163440Y-118235167D01*
X96339838Y-118235167D01*
X96481883Y-118578943D01*
X96744673Y-118842192D01*
X97088201Y-118984838D01*
X97460167Y-118985162D01*
X97803943Y-118843117D01*
X98067192Y-118580327D01*
X98209838Y-118236799D01*
X98209861Y-118210167D01*
X98314838Y-118210167D01*
X98456883Y-118553943D01*
X98719673Y-118817192D01*
X99063201Y-118959838D01*
X99435167Y-118960162D01*
X99778943Y-118818117D01*
X100042192Y-118555327D01*
X100148452Y-118299427D01*
X100156623Y-118319203D01*
X100419413Y-118582452D01*
X100762941Y-118725098D01*
X101134907Y-118725422D01*
X101478683Y-118583377D01*
X101741932Y-118320587D01*
X101884578Y-117977059D01*
X101884902Y-117605093D01*
X101742857Y-117261317D01*
X101480067Y-116998068D01*
X101136539Y-116855422D01*
X100764573Y-116855098D01*
X100420797Y-116997143D01*
X100157548Y-117259933D01*
X100051288Y-117515833D01*
X100043117Y-117496057D01*
X99780327Y-117232808D01*
X99436799Y-117090162D01*
X99064833Y-117089838D01*
X98721057Y-117231883D01*
X98457808Y-117494673D01*
X98315162Y-117838201D01*
X98314838Y-118210167D01*
X98209861Y-118210167D01*
X98210162Y-117864833D01*
X98068117Y-117521057D01*
X97805327Y-117257808D01*
X97461799Y-117115162D01*
X97089833Y-117114838D01*
X96746057Y-117256883D01*
X96482808Y-117519673D01*
X96340162Y-117863201D01*
X96339838Y-118235167D01*
X84163440Y-118235167D01*
X84163440Y-117136400D01*
X84141005Y-117017167D01*
X92506838Y-117017167D01*
X92648883Y-117360943D01*
X92911673Y-117624192D01*
X93255201Y-117766838D01*
X93627167Y-117767162D01*
X93970943Y-117625117D01*
X94234192Y-117362327D01*
X94376838Y-117018799D01*
X94377162Y-116646833D01*
X94235117Y-116303057D01*
X94187311Y-116255167D01*
X95808838Y-116255167D01*
X95950883Y-116598943D01*
X96213673Y-116862192D01*
X96557201Y-117004838D01*
X96929167Y-117005162D01*
X97272943Y-116863117D01*
X97536192Y-116600327D01*
X97678838Y-116256799D01*
X97678839Y-116255167D01*
X102412838Y-116255167D01*
X102554883Y-116598943D01*
X102817673Y-116862192D01*
X103161201Y-117004838D01*
X103533167Y-117005162D01*
X103876943Y-116863117D01*
X104140192Y-116600327D01*
X104282838Y-116256799D01*
X104283162Y-115884833D01*
X104141117Y-115541057D01*
X103878327Y-115277808D01*
X103534799Y-115135162D01*
X103162833Y-115134838D01*
X102819057Y-115276883D01*
X102555808Y-115539673D01*
X102413162Y-115883201D01*
X102412838Y-116255167D01*
X97678839Y-116255167D01*
X97679162Y-115884833D01*
X97537117Y-115541057D01*
X97274327Y-115277808D01*
X96930799Y-115135162D01*
X96558833Y-115134838D01*
X96215057Y-115276883D01*
X95951808Y-115539673D01*
X95809162Y-115883201D01*
X95808838Y-116255167D01*
X94187311Y-116255167D01*
X93972327Y-116039808D01*
X93628799Y-115897162D01*
X93256833Y-115896838D01*
X92913057Y-116038883D01*
X92649808Y-116301673D01*
X92507162Y-116645201D01*
X92506838Y-117017167D01*
X84141005Y-117017167D01*
X84119162Y-116901083D01*
X83980090Y-116684959D01*
X83767890Y-116539969D01*
X83726561Y-116531600D01*
X83744415Y-116519670D01*
X84069271Y-116033489D01*
X84183345Y-115460000D01*
X84069271Y-114886511D01*
X83744415Y-114400330D01*
X83534647Y-114260167D01*
X93389838Y-114260167D01*
X93531883Y-114603943D01*
X93794673Y-114867192D01*
X94138201Y-115009838D01*
X94510167Y-115010162D01*
X94853943Y-114868117D01*
X95117192Y-114605327D01*
X95259838Y-114261799D01*
X95260162Y-113889833D01*
X95196256Y-113735167D01*
X99739838Y-113735167D01*
X99881883Y-114078943D01*
X100144673Y-114342192D01*
X100488201Y-114484838D01*
X100860167Y-114485162D01*
X101150290Y-114365286D01*
X101438201Y-114484838D01*
X101810167Y-114485162D01*
X102153943Y-114343117D01*
X102417192Y-114080327D01*
X102559838Y-113736799D01*
X102559979Y-113574957D01*
X102795167Y-113575162D01*
X103138943Y-113433117D01*
X103365287Y-113207167D01*
X105968838Y-113207167D01*
X106110883Y-113550943D01*
X106373673Y-113814192D01*
X106717201Y-113956838D01*
X107089167Y-113957162D01*
X107432943Y-113815117D01*
X107696192Y-113552327D01*
X107838838Y-113208799D01*
X107839162Y-112836833D01*
X107697117Y-112493057D01*
X107649311Y-112445167D01*
X110540838Y-112445167D01*
X110682883Y-112788943D01*
X110945673Y-113052192D01*
X111289201Y-113194838D01*
X111661167Y-113195162D01*
X112004943Y-113053117D01*
X112268192Y-112790327D01*
X112410838Y-112446799D01*
X112411162Y-112074833D01*
X112269117Y-111731057D01*
X112006327Y-111467808D01*
X111662799Y-111325162D01*
X111290833Y-111324838D01*
X110947057Y-111466883D01*
X110683808Y-111729673D01*
X110541162Y-112073201D01*
X110540838Y-112445167D01*
X107649311Y-112445167D01*
X107434327Y-112229808D01*
X107090799Y-112087162D01*
X106718833Y-112086838D01*
X106375057Y-112228883D01*
X106111808Y-112491673D01*
X105969162Y-112835201D01*
X105968838Y-113207167D01*
X103365287Y-113207167D01*
X103402192Y-113170327D01*
X103544838Y-112826799D01*
X103545162Y-112454833D01*
X103403117Y-112111057D01*
X103140327Y-111847808D01*
X102796799Y-111705162D01*
X102424833Y-111704838D01*
X102081057Y-111846883D01*
X101817808Y-112109673D01*
X101675162Y-112453201D01*
X101675021Y-112615043D01*
X101439833Y-112614838D01*
X101149710Y-112734714D01*
X100861799Y-112615162D01*
X100489833Y-112614838D01*
X100146057Y-112756883D01*
X99882808Y-113019673D01*
X99740162Y-113363201D01*
X99739838Y-113735167D01*
X95196256Y-113735167D01*
X95118117Y-113546057D01*
X94855327Y-113282808D01*
X94511799Y-113140162D01*
X94139833Y-113139838D01*
X93796057Y-113281883D01*
X93532808Y-113544673D01*
X93390162Y-113888201D01*
X93389838Y-114260167D01*
X83534647Y-114260167D01*
X83429634Y-114190000D01*
X83744415Y-113979670D01*
X84069271Y-113493489D01*
X84183345Y-112920000D01*
X84069271Y-112346511D01*
X83744415Y-111860330D01*
X83429634Y-111650000D01*
X83489248Y-111610167D01*
X86614838Y-111610167D01*
X86756883Y-111953943D01*
X86952644Y-112150046D01*
X86832808Y-112269673D01*
X86690162Y-112613201D01*
X86689838Y-112985167D01*
X86831883Y-113328943D01*
X87094673Y-113592192D01*
X87438201Y-113734838D01*
X87810167Y-113735162D01*
X88153943Y-113593117D01*
X88417192Y-113330327D01*
X88559838Y-112986799D01*
X88560162Y-112614833D01*
X88418117Y-112271057D01*
X88222356Y-112074954D01*
X88342192Y-111955327D01*
X88484838Y-111611799D01*
X88485162Y-111239833D01*
X88421256Y-111085167D01*
X92314838Y-111085167D01*
X92456883Y-111428943D01*
X92719673Y-111692192D01*
X93063201Y-111834838D01*
X93435167Y-111835162D01*
X93778943Y-111693117D01*
X94042192Y-111430327D01*
X94184838Y-111086799D01*
X94184904Y-111010167D01*
X94764838Y-111010167D01*
X94906883Y-111353943D01*
X95169673Y-111617192D01*
X95513201Y-111759838D01*
X95885167Y-111760162D01*
X96228943Y-111618117D01*
X96299937Y-111547247D01*
X96419673Y-111667192D01*
X96763201Y-111809838D01*
X97135167Y-111810162D01*
X97478943Y-111668117D01*
X97742192Y-111405327D01*
X97837763Y-111175167D01*
X104952838Y-111175167D01*
X105094883Y-111518943D01*
X105357673Y-111782192D01*
X105701201Y-111924838D01*
X106073167Y-111925162D01*
X106416943Y-111783117D01*
X106680192Y-111520327D01*
X106822838Y-111176799D01*
X106822901Y-111104294D01*
X107113201Y-111224838D01*
X107485167Y-111225162D01*
X107828943Y-111083117D01*
X108092192Y-110820327D01*
X108165029Y-110644918D01*
X108445167Y-110645162D01*
X108627402Y-110569864D01*
X108659673Y-110602192D01*
X109003201Y-110744838D01*
X109375167Y-110745162D01*
X109718943Y-110603117D01*
X109982192Y-110340327D01*
X110124838Y-109996799D01*
X110125162Y-109624833D01*
X109983117Y-109281057D01*
X109720327Y-109017808D01*
X109376799Y-108875162D01*
X109038269Y-108874867D01*
X109074838Y-108786799D01*
X109075162Y-108414833D01*
X108933117Y-108071057D01*
X108670327Y-107807808D01*
X108326799Y-107665162D01*
X107954833Y-107664838D01*
X107611057Y-107806883D01*
X107347808Y-108069673D01*
X107209934Y-108401709D01*
X107210143Y-108162146D01*
X107342192Y-108030327D01*
X107484838Y-107686799D01*
X107485118Y-107365167D01*
X112064838Y-107365167D01*
X112206883Y-107708943D01*
X112469673Y-107972192D01*
X112813201Y-108114838D01*
X113185167Y-108115162D01*
X113528943Y-107973117D01*
X113792192Y-107710327D01*
X113830045Y-107619167D01*
X114350838Y-107619167D01*
X114492883Y-107962943D01*
X114755673Y-108226192D01*
X115099201Y-108368838D01*
X115471167Y-108369162D01*
X115540679Y-108340440D01*
X115555209Y-108413489D01*
X115880065Y-108899670D01*
X116194846Y-109110000D01*
X115880065Y-109320330D01*
X115555209Y-109806511D01*
X115441135Y-110380000D01*
X115555209Y-110953489D01*
X115880065Y-111439670D01*
X116194846Y-111650000D01*
X115880065Y-111860330D01*
X115555209Y-112346511D01*
X115441135Y-112920000D01*
X115555209Y-113493489D01*
X115880065Y-113979670D01*
X116194846Y-114190000D01*
X115880065Y-114400330D01*
X115555209Y-114886511D01*
X115441135Y-115460000D01*
X115555209Y-116033489D01*
X115880065Y-116519670D01*
X115894393Y-116529243D01*
X115873163Y-116533238D01*
X115657039Y-116672310D01*
X115512049Y-116884510D01*
X115461040Y-117136400D01*
X115461040Y-118863600D01*
X115505318Y-119098917D01*
X115644390Y-119315041D01*
X115856590Y-119460031D01*
X116108480Y-119511040D01*
X118140480Y-119511040D01*
X118375797Y-119466762D01*
X118591921Y-119327690D01*
X118736911Y-119115490D01*
X118787920Y-118863600D01*
X118787920Y-117136400D01*
X118743642Y-116901083D01*
X118604570Y-116684959D01*
X118392370Y-116539969D01*
X118351041Y-116531600D01*
X118368895Y-116519670D01*
X118693751Y-116033489D01*
X118807825Y-115460000D01*
X118693751Y-114886511D01*
X118368895Y-114400330D01*
X118054114Y-114190000D01*
X118368895Y-113979670D01*
X118693751Y-113493489D01*
X118807825Y-112920000D01*
X118693751Y-112346511D01*
X118368895Y-111860330D01*
X118054114Y-111650000D01*
X118368895Y-111439670D01*
X118693751Y-110953489D01*
X118807825Y-110380000D01*
X118693751Y-109806511D01*
X118368895Y-109320330D01*
X118054114Y-109110000D01*
X118368895Y-108899670D01*
X118693751Y-108413489D01*
X118807825Y-107840000D01*
X118693751Y-107266511D01*
X118368895Y-106780330D01*
X118054114Y-106570000D01*
X118368895Y-106359670D01*
X118693751Y-105873489D01*
X118807825Y-105300000D01*
X118693751Y-104726511D01*
X118368895Y-104240330D01*
X118054114Y-104030000D01*
X118368895Y-103819670D01*
X118693751Y-103333489D01*
X118807825Y-102760000D01*
X118693751Y-102186511D01*
X118368895Y-101700330D01*
X118054114Y-101490000D01*
X118368895Y-101279670D01*
X118693751Y-100793489D01*
X118807825Y-100220000D01*
X118693751Y-99646511D01*
X118368895Y-99160330D01*
X118054114Y-98950000D01*
X118368895Y-98739670D01*
X118693751Y-98253489D01*
X118807825Y-97680000D01*
X118693751Y-97106511D01*
X118368895Y-96620330D01*
X117882714Y-96295474D01*
X117309225Y-96181400D01*
X116939735Y-96181400D01*
X116366246Y-96295474D01*
X115880065Y-96620330D01*
X115555209Y-97106511D01*
X115441135Y-97680000D01*
X115555209Y-98253489D01*
X115880065Y-98739670D01*
X116194846Y-98950000D01*
X115880065Y-99160330D01*
X115555209Y-99646511D01*
X115441135Y-100220000D01*
X115555209Y-100793489D01*
X115880065Y-101279670D01*
X116194846Y-101490000D01*
X115880065Y-101700330D01*
X115555209Y-102186511D01*
X115441135Y-102760000D01*
X115555209Y-103333489D01*
X115880065Y-103819670D01*
X116194846Y-104030000D01*
X115880065Y-104240330D01*
X115555209Y-104726511D01*
X115441135Y-105300000D01*
X115555209Y-105873489D01*
X115880065Y-106359670D01*
X116194846Y-106570000D01*
X115924781Y-106750452D01*
X115816327Y-106641808D01*
X115472799Y-106499162D01*
X115100833Y-106498838D01*
X114757057Y-106640883D01*
X114493808Y-106903673D01*
X114351162Y-107247201D01*
X114350838Y-107619167D01*
X113830045Y-107619167D01*
X113934838Y-107366799D01*
X113935162Y-106994833D01*
X113793117Y-106651057D01*
X113530327Y-106387808D01*
X113186799Y-106245162D01*
X112814833Y-106244838D01*
X112471057Y-106386883D01*
X112207808Y-106649673D01*
X112065162Y-106993201D01*
X112064838Y-107365167D01*
X107485118Y-107365167D01*
X107485162Y-107314833D01*
X107343117Y-106971057D01*
X107132653Y-106760226D01*
X107154838Y-106706799D01*
X107155162Y-106334833D01*
X107013117Y-105991057D01*
X106807470Y-105785051D01*
X106935167Y-105785162D01*
X107131561Y-105704014D01*
X107169673Y-105742192D01*
X107513201Y-105884838D01*
X107885167Y-105885162D01*
X108228943Y-105743117D01*
X108492192Y-105480327D01*
X108573229Y-105285167D01*
X112014838Y-105285167D01*
X112156883Y-105628943D01*
X112419673Y-105892192D01*
X112763201Y-106034838D01*
X113135167Y-106035162D01*
X113478943Y-105893117D01*
X113742192Y-105630327D01*
X113884838Y-105286799D01*
X113885162Y-104914833D01*
X113743117Y-104571057D01*
X113480327Y-104307808D01*
X113136799Y-104165162D01*
X112764833Y-104164838D01*
X112421057Y-104306883D01*
X112157808Y-104569673D01*
X112015162Y-104913201D01*
X112014838Y-105285167D01*
X108573229Y-105285167D01*
X108634838Y-105136799D01*
X108635162Y-104764833D01*
X108493117Y-104421057D01*
X108230327Y-104157808D01*
X107886799Y-104015162D01*
X107514833Y-104014838D01*
X107318439Y-104095986D01*
X107280327Y-104057808D01*
X106936799Y-103915162D01*
X106564833Y-103914838D01*
X106221057Y-104056883D01*
X105957808Y-104319673D01*
X105815162Y-104663201D01*
X105814838Y-105035167D01*
X105956883Y-105378943D01*
X106162530Y-105584949D01*
X106034833Y-105584838D01*
X105691057Y-105726883D01*
X105427808Y-105989673D01*
X105285162Y-106333201D01*
X105284838Y-106705167D01*
X105426883Y-107048943D01*
X105637347Y-107259774D01*
X105615162Y-107313201D01*
X105614857Y-107662854D01*
X105482808Y-107794673D01*
X105340162Y-108138201D01*
X105339838Y-108510167D01*
X105481883Y-108853943D01*
X105744673Y-109117192D01*
X106088201Y-109259838D01*
X106460167Y-109260162D01*
X106803943Y-109118117D01*
X107067192Y-108855327D01*
X107205066Y-108523291D01*
X107204838Y-108785167D01*
X107346883Y-109128943D01*
X107447161Y-109229396D01*
X107394971Y-109355082D01*
X107114833Y-109354838D01*
X106771057Y-109496883D01*
X106507808Y-109759673D01*
X106365162Y-110103201D01*
X106365099Y-110175706D01*
X106074799Y-110055162D01*
X105702833Y-110054838D01*
X105359057Y-110196883D01*
X105095808Y-110459673D01*
X104953162Y-110803201D01*
X104952838Y-111175167D01*
X97837763Y-111175167D01*
X97884838Y-111061799D01*
X97885162Y-110689833D01*
X97743117Y-110346057D01*
X97611317Y-110214027D01*
X97903943Y-110093117D01*
X98072186Y-109925167D01*
X102564838Y-109925167D01*
X102706883Y-110268943D01*
X102969673Y-110532192D01*
X103313201Y-110674838D01*
X103685167Y-110675162D01*
X104028943Y-110533117D01*
X104292192Y-110270327D01*
X104434838Y-109926799D01*
X104435162Y-109554833D01*
X104293117Y-109211057D01*
X104191023Y-109108785D01*
X104228943Y-109093117D01*
X104492192Y-108830327D01*
X104634838Y-108486799D01*
X104635162Y-108114833D01*
X104493117Y-107771057D01*
X104230327Y-107507808D01*
X103886799Y-107365162D01*
X103514833Y-107364838D01*
X103171057Y-107506883D01*
X102907808Y-107769673D01*
X102765162Y-108113201D01*
X102764838Y-108485167D01*
X102906883Y-108828943D01*
X103008977Y-108931215D01*
X102971057Y-108946883D01*
X102707808Y-109209673D01*
X102565162Y-109553201D01*
X102564838Y-109925167D01*
X98072186Y-109925167D01*
X98167192Y-109830327D01*
X98309838Y-109486799D01*
X98310162Y-109114833D01*
X98168117Y-108771057D01*
X97905327Y-108507808D01*
X97561799Y-108365162D01*
X97189833Y-108364838D01*
X96869635Y-108497141D01*
X96855327Y-108482808D01*
X96511799Y-108340162D01*
X96139833Y-108339838D01*
X95796057Y-108481883D01*
X95532808Y-108744673D01*
X95390162Y-109088201D01*
X95389838Y-109460167D01*
X95531883Y-109803943D01*
X95617718Y-109889928D01*
X95514833Y-109889838D01*
X95171057Y-110031883D01*
X94907808Y-110294673D01*
X94765162Y-110638201D01*
X94764838Y-111010167D01*
X94184904Y-111010167D01*
X94185162Y-110714833D01*
X94043117Y-110371057D01*
X93780327Y-110107808D01*
X93436799Y-109965162D01*
X93064833Y-109964838D01*
X92721057Y-110106883D01*
X92457808Y-110369673D01*
X92315162Y-110713201D01*
X92314838Y-111085167D01*
X88421256Y-111085167D01*
X88343117Y-110896057D01*
X88080327Y-110632808D01*
X87736799Y-110490162D01*
X87364833Y-110489838D01*
X87021057Y-110631883D01*
X86757808Y-110894673D01*
X86615162Y-111238201D01*
X86614838Y-111610167D01*
X83489248Y-111610167D01*
X83744415Y-111439670D01*
X84069271Y-110953489D01*
X84183345Y-110380000D01*
X84069271Y-109806511D01*
X83744415Y-109320330D01*
X83429634Y-109110000D01*
X83744415Y-108899670D01*
X84069271Y-108413489D01*
X84183345Y-107840000D01*
X84069271Y-107266511D01*
X83744415Y-106780330D01*
X83429634Y-106570000D01*
X83744415Y-106359670D01*
X84069271Y-105873489D01*
X84071920Y-105860167D01*
X97039838Y-105860167D01*
X97181883Y-106203943D01*
X97424675Y-106447159D01*
X97221808Y-106649673D01*
X97079162Y-106993201D01*
X97078838Y-107365167D01*
X97220883Y-107708943D01*
X97483673Y-107972192D01*
X97827201Y-108114838D01*
X98199167Y-108115162D01*
X98542943Y-107973117D01*
X98806192Y-107710327D01*
X98948838Y-107366799D01*
X98949162Y-106994833D01*
X98807117Y-106651057D01*
X98564325Y-106407841D01*
X98767192Y-106205327D01*
X98909838Y-105861799D01*
X98910162Y-105489833D01*
X98768117Y-105146057D01*
X98505327Y-104882808D01*
X98161799Y-104740162D01*
X97789833Y-104739838D01*
X97446057Y-104881883D01*
X97182808Y-105144673D01*
X97040162Y-105488201D01*
X97039838Y-105860167D01*
X84071920Y-105860167D01*
X84183345Y-105300000D01*
X84069271Y-104726511D01*
X83744415Y-104240330D01*
X83429634Y-104030000D01*
X83744415Y-103819670D01*
X84069271Y-103333489D01*
X84118665Y-103085167D01*
X97789838Y-103085167D01*
X97931883Y-103428943D01*
X98194673Y-103692192D01*
X98538201Y-103834838D01*
X98910167Y-103835162D01*
X99103770Y-103755167D01*
X102204838Y-103755167D01*
X102346883Y-104098943D01*
X102609673Y-104362192D01*
X102953201Y-104504838D01*
X103325167Y-104505162D01*
X103668943Y-104363117D01*
X103932192Y-104100327D01*
X104074838Y-103756799D01*
X104075162Y-103384833D01*
X103933117Y-103041057D01*
X103670327Y-102777808D01*
X103326799Y-102635162D01*
X102954833Y-102634838D01*
X102611057Y-102776883D01*
X102347808Y-103039673D01*
X102205162Y-103383201D01*
X102204838Y-103755167D01*
X99103770Y-103755167D01*
X99253943Y-103693117D01*
X99517192Y-103430327D01*
X99659838Y-103086799D01*
X99660162Y-102714833D01*
X99518117Y-102371057D01*
X99282639Y-102135167D01*
X105889838Y-102135167D01*
X106031883Y-102478943D01*
X106294673Y-102742192D01*
X106638201Y-102884838D01*
X107010167Y-102885162D01*
X107315637Y-102758945D01*
X107438201Y-102809838D01*
X107810167Y-102810162D01*
X108006561Y-102729014D01*
X108044673Y-102767192D01*
X108388201Y-102909838D01*
X108760167Y-102910162D01*
X109103943Y-102768117D01*
X109367192Y-102505327D01*
X109509838Y-102161799D01*
X109510162Y-101789833D01*
X109368117Y-101446057D01*
X109105327Y-101182808D01*
X108761799Y-101040162D01*
X108389833Y-101039838D01*
X108193439Y-101120986D01*
X108155327Y-101082808D01*
X107811799Y-100940162D01*
X107439833Y-100939838D01*
X107134363Y-101066055D01*
X107011799Y-101015162D01*
X106639833Y-101014838D01*
X106296057Y-101156883D01*
X106032808Y-101419673D01*
X105890162Y-101763201D01*
X105889838Y-102135167D01*
X99282639Y-102135167D01*
X99255327Y-102107808D01*
X98911799Y-101965162D01*
X98539833Y-101964838D01*
X98196057Y-102106883D01*
X97932808Y-102369673D01*
X97790162Y-102713201D01*
X97789838Y-103085167D01*
X84118665Y-103085167D01*
X84183345Y-102760000D01*
X84069271Y-102186511D01*
X83744415Y-101700330D01*
X83429634Y-101490000D01*
X83744415Y-101279670D01*
X84069271Y-100793489D01*
X84183345Y-100220000D01*
X84069271Y-99646511D01*
X83744415Y-99160330D01*
X83429634Y-98950000D01*
X83744415Y-98739670D01*
X84069271Y-98253489D01*
X84183345Y-97680000D01*
X84069271Y-97106511D01*
X83744415Y-96620330D01*
X83540383Y-96484000D01*
X85486560Y-96484000D01*
X85486560Y-98516000D01*
X85530838Y-98751317D01*
X85669910Y-98967441D01*
X85826206Y-99074233D01*
X85624675Y-99375845D01*
X85499000Y-100007655D01*
X85499000Y-100072345D01*
X85624675Y-100704155D01*
X85982567Y-101239778D01*
X86518190Y-101597670D01*
X87150000Y-101723345D01*
X87781810Y-101597670D01*
X88317433Y-101239778D01*
X88675325Y-100704155D01*
X88758667Y-100285167D01*
X96214838Y-100285167D01*
X96356883Y-100628943D01*
X96619673Y-100892192D01*
X96963201Y-101034838D01*
X97335167Y-101035162D01*
X97678943Y-100893117D01*
X97942192Y-100630327D01*
X98084838Y-100286799D01*
X98084867Y-100253167D01*
X101142838Y-100253167D01*
X101284883Y-100596943D01*
X101547673Y-100860192D01*
X101891201Y-101002838D01*
X102263167Y-101003162D01*
X102606943Y-100861117D01*
X102870192Y-100598327D01*
X103012838Y-100254799D01*
X103012985Y-100085167D01*
X109964838Y-100085167D01*
X110106883Y-100428943D01*
X110369673Y-100692192D01*
X110713201Y-100834838D01*
X111085167Y-100835162D01*
X111428943Y-100693117D01*
X111692192Y-100430327D01*
X111762062Y-100262063D01*
X111826883Y-100418943D01*
X112089673Y-100682192D01*
X112433201Y-100824838D01*
X112805167Y-100825162D01*
X113148943Y-100683117D01*
X113412192Y-100420327D01*
X113554838Y-100076799D01*
X113555162Y-99704833D01*
X113413117Y-99361057D01*
X113150327Y-99097808D01*
X112806799Y-98955162D01*
X112434833Y-98954838D01*
X112091057Y-99096883D01*
X111827808Y-99359673D01*
X111757938Y-99527937D01*
X111693117Y-99371057D01*
X111430327Y-99107808D01*
X111086799Y-98965162D01*
X110714833Y-98964838D01*
X110371057Y-99106883D01*
X110107808Y-99369673D01*
X109965162Y-99713201D01*
X109964838Y-100085167D01*
X103012985Y-100085167D01*
X103013162Y-99882833D01*
X102871117Y-99539057D01*
X102608327Y-99275808D01*
X102264799Y-99133162D01*
X101892833Y-99132838D01*
X101549057Y-99274883D01*
X101285808Y-99537673D01*
X101143162Y-99881201D01*
X101142838Y-100253167D01*
X98084867Y-100253167D01*
X98085162Y-99914833D01*
X97943117Y-99571057D01*
X97680327Y-99307808D01*
X97336799Y-99165162D01*
X96964833Y-99164838D01*
X96621057Y-99306883D01*
X96357808Y-99569673D01*
X96215162Y-99913201D01*
X96214838Y-100285167D01*
X88758667Y-100285167D01*
X88801000Y-100072345D01*
X88801000Y-100007655D01*
X88675325Y-99375845D01*
X88472996Y-99073038D01*
X88617441Y-98980090D01*
X88762431Y-98767890D01*
X88813440Y-98516000D01*
X88813440Y-98475167D01*
X103936838Y-98475167D01*
X104078883Y-98818943D01*
X104341673Y-99082192D01*
X104685201Y-99224838D01*
X105057167Y-99225162D01*
X105400943Y-99083117D01*
X105664192Y-98820327D01*
X105806838Y-98476799D01*
X105807162Y-98104833D01*
X105665117Y-97761057D01*
X105402327Y-97497808D01*
X105058799Y-97355162D01*
X104686833Y-97354838D01*
X104343057Y-97496883D01*
X104079808Y-97759673D01*
X103937162Y-98103201D01*
X103936838Y-98475167D01*
X88813440Y-98475167D01*
X88813440Y-97635167D01*
X98594838Y-97635167D01*
X98736883Y-97978943D01*
X98999673Y-98242192D01*
X99343201Y-98384838D01*
X99715167Y-98385162D01*
X100058943Y-98243117D01*
X100322192Y-97980327D01*
X100464838Y-97636799D01*
X100465162Y-97264833D01*
X100323117Y-96921057D01*
X100137552Y-96735167D01*
X100389838Y-96735167D01*
X100531883Y-97078943D01*
X100794673Y-97342192D01*
X101138201Y-97484838D01*
X101510167Y-97485162D01*
X101853943Y-97343117D01*
X102117192Y-97080327D01*
X102259838Y-96736799D01*
X102260162Y-96364833D01*
X102118117Y-96021057D01*
X101855327Y-95757808D01*
X101511799Y-95615162D01*
X101139833Y-95614838D01*
X100796057Y-95756883D01*
X100532808Y-96019673D01*
X100390162Y-96363201D01*
X100389838Y-96735167D01*
X100137552Y-96735167D01*
X100060327Y-96657808D01*
X99716799Y-96515162D01*
X99344833Y-96514838D01*
X99001057Y-96656883D01*
X98737808Y-96919673D01*
X98595162Y-97263201D01*
X98594838Y-97635167D01*
X88813440Y-97635167D01*
X88813440Y-96484000D01*
X88769162Y-96248683D01*
X88630090Y-96032559D01*
X88417890Y-95887569D01*
X88166000Y-95836560D01*
X86134000Y-95836560D01*
X85898683Y-95880838D01*
X85682559Y-96019910D01*
X85537569Y-96232110D01*
X85486560Y-96484000D01*
X83540383Y-96484000D01*
X83258234Y-96295474D01*
X82684745Y-96181400D01*
X82315255Y-96181400D01*
X81741766Y-96295474D01*
X81255585Y-96620330D01*
X80930729Y-97106511D01*
X80816655Y-97680000D01*
X80688283Y-97680000D01*
X80699731Y-92960167D01*
X97514838Y-92960167D01*
X97656883Y-93303943D01*
X97919673Y-93567192D01*
X98263201Y-93709838D01*
X98635167Y-93710162D01*
X98978943Y-93568117D01*
X99242192Y-93305327D01*
X99384838Y-92961799D01*
X99384977Y-92801440D01*
X103970080Y-92801440D01*
X103970080Y-94833440D01*
X104014358Y-95068757D01*
X104153430Y-95284881D01*
X104365630Y-95429871D01*
X104617520Y-95480880D01*
X106344720Y-95480880D01*
X106580037Y-95436602D01*
X106796161Y-95297530D01*
X106941151Y-95085330D01*
X106949520Y-95044001D01*
X106961450Y-95061855D01*
X107447631Y-95386711D01*
X108021120Y-95500785D01*
X108594609Y-95386711D01*
X109080790Y-95061855D01*
X109291120Y-94747074D01*
X109501450Y-95061855D01*
X109987631Y-95386711D01*
X110561120Y-95500785D01*
X111134609Y-95386711D01*
X111620790Y-95061855D01*
X111945646Y-94575674D01*
X112059720Y-94002185D01*
X112059720Y-93632695D01*
X111945646Y-93059206D01*
X111620790Y-92573025D01*
X111134609Y-92248169D01*
X110561120Y-92134095D01*
X109987631Y-92248169D01*
X109501450Y-92573025D01*
X109291120Y-92887806D01*
X109080790Y-92573025D01*
X108594609Y-92248169D01*
X108021120Y-92134095D01*
X107447631Y-92248169D01*
X106961450Y-92573025D01*
X106951877Y-92587353D01*
X106947882Y-92566123D01*
X106808810Y-92349999D01*
X106596610Y-92205009D01*
X106344720Y-92154000D01*
X104617520Y-92154000D01*
X104382203Y-92198278D01*
X104166079Y-92337350D01*
X104021089Y-92549550D01*
X103970080Y-92801440D01*
X99384977Y-92801440D01*
X99385162Y-92589833D01*
X99243117Y-92246057D01*
X98980327Y-91982808D01*
X98636799Y-91840162D01*
X98264833Y-91839838D01*
X97921057Y-91981883D01*
X97657808Y-92244673D01*
X97515162Y-92588201D01*
X97514838Y-92960167D01*
X80699731Y-92960167D01*
X80707482Y-89764675D01*
X81171076Y-90886658D01*
X82108407Y-91825627D01*
X83333717Y-92334420D01*
X84660462Y-92335578D01*
X85886658Y-91828924D01*
X86581627Y-91135167D01*
X89389838Y-91135167D01*
X89531883Y-91478943D01*
X89794673Y-91742192D01*
X90138201Y-91884838D01*
X90510167Y-91885162D01*
X90853943Y-91743117D01*
X91117192Y-91480327D01*
X91259838Y-91136799D01*
X91260094Y-90843091D01*
X91341167Y-90843162D01*
X91684943Y-90701117D01*
X91948192Y-90438327D01*
X92090838Y-90094799D01*
X92091162Y-89722833D01*
X91949117Y-89379057D01*
X91686327Y-89115808D01*
X91342799Y-88973162D01*
X90970833Y-88972838D01*
X90627057Y-89114883D01*
X90363808Y-89377673D01*
X90221162Y-89721201D01*
X90220906Y-90014909D01*
X90139833Y-90014838D01*
X89796057Y-90156883D01*
X89532808Y-90419673D01*
X89390162Y-90763201D01*
X89389838Y-91135167D01*
X86581627Y-91135167D01*
X86825627Y-90891593D01*
X87334420Y-89666283D01*
X87335578Y-88339538D01*
X86828924Y-87113342D01*
X85891593Y-86174373D01*
X85380488Y-85962144D01*
X97897286Y-85949156D01*
X97625795Y-86355471D01*
X97511721Y-86928960D01*
X97625795Y-87502449D01*
X97950651Y-87988630D01*
X98265432Y-88198960D01*
X97950651Y-88409290D01*
X97625795Y-88895471D01*
X97511721Y-89468960D01*
X97625795Y-90042449D01*
X97950651Y-90528630D01*
X98436832Y-90853486D01*
X99010321Y-90967560D01*
X99069039Y-90967560D01*
X99642528Y-90853486D01*
X100128709Y-90528630D01*
X100309680Y-90257788D01*
X100490651Y-90528630D01*
X100976832Y-90853486D01*
X101550321Y-90967560D01*
X101609039Y-90967560D01*
X102182528Y-90853486D01*
X102668709Y-90528630D01*
X102849680Y-90257788D01*
X103030651Y-90528630D01*
X103516832Y-90853486D01*
X104090321Y-90967560D01*
X104149039Y-90967560D01*
X104722528Y-90853486D01*
X105208709Y-90528630D01*
X105389680Y-90257788D01*
X105570651Y-90528630D01*
X106056832Y-90853486D01*
X106630321Y-90967560D01*
X106689039Y-90967560D01*
X107262528Y-90853486D01*
X107728122Y-90542386D01*
X107732918Y-90567877D01*
X107871990Y-90784001D01*
X108084190Y-90928991D01*
X108336080Y-90980000D01*
X110063280Y-90980000D01*
X110298597Y-90935722D01*
X110514721Y-90796650D01*
X110659711Y-90584450D01*
X110710720Y-90332560D01*
X110710720Y-88605360D01*
X110666442Y-88370043D01*
X110527370Y-88153919D01*
X110315170Y-88008929D01*
X110221305Y-87989921D01*
X110482368Y-87703907D01*
X110654638Y-87287986D01*
X110533497Y-87055960D01*
X109326680Y-87055960D01*
X109326680Y-87075960D01*
X109072680Y-87075960D01*
X109072680Y-87055960D01*
X109052680Y-87055960D01*
X109052680Y-86801960D01*
X109072680Y-86801960D01*
X109072680Y-86781960D01*
X109326680Y-86781960D01*
X109326680Y-86801960D01*
X110533497Y-86801960D01*
X110654638Y-86569934D01*
X110482368Y-86154013D01*
X110283652Y-85936304D01*
X114692606Y-85931729D01*
X114113342Y-86171076D01*
X114113342Y-86171076D01*
G37*
X114113342Y-86171076D02*
X113174373Y-87108407D01*
X112665580Y-88333717D01*
X112664422Y-89660462D01*
X113171076Y-90886658D01*
X114108407Y-91825627D01*
X115333717Y-92334420D01*
X116660462Y-92335578D01*
X117886658Y-91828924D01*
X118825627Y-90891593D01*
X119121938Y-90177996D01*
X119114028Y-122803345D01*
X118828924Y-122113342D01*
X117891593Y-121174373D01*
X116666283Y-120665580D01*
X115339538Y-120664422D01*
X114113342Y-121171076D01*
X113174373Y-122108407D01*
X112665580Y-123333717D01*
X112664422Y-124660462D01*
X113171076Y-125886658D01*
X114108407Y-126825627D01*
X114327982Y-126916803D01*
X97281179Y-126930000D01*
X85642035Y-126930000D01*
X85886658Y-126828924D01*
X86825627Y-125891593D01*
X87334420Y-124666283D01*
X87335578Y-123339538D01*
X87032143Y-122605167D01*
X92760838Y-122605167D01*
X92902883Y-122948943D01*
X93165673Y-123212192D01*
X93509201Y-123354838D01*
X93881167Y-123355162D01*
X94224943Y-123213117D01*
X94488192Y-122950327D01*
X94630838Y-122606799D01*
X94631162Y-122234833D01*
X94489117Y-121891057D01*
X94226327Y-121627808D01*
X93882799Y-121485162D01*
X93510833Y-121484838D01*
X93167057Y-121626883D01*
X92903808Y-121889673D01*
X92761162Y-122233201D01*
X92760838Y-122605167D01*
X87032143Y-122605167D01*
X86828924Y-122113342D01*
X85891593Y-121174373D01*
X85055428Y-120827167D01*
X104698838Y-120827167D01*
X104840883Y-121170943D01*
X105103673Y-121434192D01*
X105447201Y-121576838D01*
X105819167Y-121577162D01*
X106162943Y-121435117D01*
X106426192Y-121172327D01*
X106568838Y-120828799D01*
X106569162Y-120456833D01*
X106427117Y-120113057D01*
X106164327Y-119849808D01*
X105820799Y-119707162D01*
X105448833Y-119706838D01*
X105105057Y-119848883D01*
X104841808Y-120111673D01*
X104699162Y-120455201D01*
X104698838Y-120827167D01*
X85055428Y-120827167D01*
X84666283Y-120665580D01*
X83339538Y-120664422D01*
X82113342Y-121171076D01*
X81174373Y-122108407D01*
X80665580Y-123333717D01*
X80664422Y-124660462D01*
X81171076Y-125886658D01*
X82108407Y-126825627D01*
X82359765Y-126930000D01*
X81324683Y-126930000D01*
X80963346Y-126864101D01*
X80730961Y-126714133D01*
X80618259Y-126551154D01*
X80633990Y-120065167D01*
X86156838Y-120065167D01*
X86298883Y-120408943D01*
X86561673Y-120672192D01*
X86905201Y-120814838D01*
X87277167Y-120815162D01*
X87620943Y-120673117D01*
X87884192Y-120410327D01*
X88026838Y-120066799D01*
X88027162Y-119694833D01*
X87885117Y-119351057D01*
X87622327Y-119087808D01*
X87278799Y-118945162D01*
X86906833Y-118944838D01*
X86563057Y-119086883D01*
X86299808Y-119349673D01*
X86157162Y-119693201D01*
X86156838Y-120065167D01*
X80633990Y-120065167D01*
X80688283Y-97680000D01*
X80816655Y-97680000D01*
X80930729Y-98253489D01*
X81255585Y-98739670D01*
X81570366Y-98950000D01*
X81255585Y-99160330D01*
X80930729Y-99646511D01*
X80816655Y-100220000D01*
X80930729Y-100793489D01*
X81255585Y-101279670D01*
X81570366Y-101490000D01*
X81255585Y-101700330D01*
X80930729Y-102186511D01*
X80816655Y-102760000D01*
X80930729Y-103333489D01*
X81255585Y-103819670D01*
X81570366Y-104030000D01*
X81255585Y-104240330D01*
X80930729Y-104726511D01*
X80816655Y-105300000D01*
X80930729Y-105873489D01*
X81255585Y-106359670D01*
X81570366Y-106570000D01*
X81255585Y-106780330D01*
X80930729Y-107266511D01*
X80816655Y-107840000D01*
X80930729Y-108413489D01*
X81255585Y-108899670D01*
X81570366Y-109110000D01*
X81255585Y-109320330D01*
X80930729Y-109806511D01*
X80816655Y-110380000D01*
X80930729Y-110953489D01*
X81255585Y-111439670D01*
X81570366Y-111650000D01*
X81255585Y-111860330D01*
X80930729Y-112346511D01*
X80816655Y-112920000D01*
X80930729Y-113493489D01*
X81255585Y-113979670D01*
X81570366Y-114190000D01*
X81255585Y-114400330D01*
X80930729Y-114886511D01*
X80816655Y-115460000D01*
X80930729Y-116033489D01*
X81255585Y-116519670D01*
X81269913Y-116529243D01*
X81248683Y-116533238D01*
X81032559Y-116672310D01*
X80887569Y-116884510D01*
X80836560Y-117136400D01*
X80836560Y-118863600D01*
X80880838Y-119098917D01*
X81019910Y-119315041D01*
X81232110Y-119460031D01*
X81484000Y-119511040D01*
X83516000Y-119511040D01*
X83751317Y-119466762D01*
X83967441Y-119327690D01*
X84112431Y-119115490D01*
X84163440Y-118863600D01*
X84163440Y-118235167D01*
X96339838Y-118235167D01*
X96481883Y-118578943D01*
X96744673Y-118842192D01*
X97088201Y-118984838D01*
X97460167Y-118985162D01*
X97803943Y-118843117D01*
X98067192Y-118580327D01*
X98209838Y-118236799D01*
X98209861Y-118210167D01*
X98314838Y-118210167D01*
X98456883Y-118553943D01*
X98719673Y-118817192D01*
X99063201Y-118959838D01*
X99435167Y-118960162D01*
X99778943Y-118818117D01*
X100042192Y-118555327D01*
X100148452Y-118299427D01*
X100156623Y-118319203D01*
X100419413Y-118582452D01*
X100762941Y-118725098D01*
X101134907Y-118725422D01*
X101478683Y-118583377D01*
X101741932Y-118320587D01*
X101884578Y-117977059D01*
X101884902Y-117605093D01*
X101742857Y-117261317D01*
X101480067Y-116998068D01*
X101136539Y-116855422D01*
X100764573Y-116855098D01*
X100420797Y-116997143D01*
X100157548Y-117259933D01*
X100051288Y-117515833D01*
X100043117Y-117496057D01*
X99780327Y-117232808D01*
X99436799Y-117090162D01*
X99064833Y-117089838D01*
X98721057Y-117231883D01*
X98457808Y-117494673D01*
X98315162Y-117838201D01*
X98314838Y-118210167D01*
X98209861Y-118210167D01*
X98210162Y-117864833D01*
X98068117Y-117521057D01*
X97805327Y-117257808D01*
X97461799Y-117115162D01*
X97089833Y-117114838D01*
X96746057Y-117256883D01*
X96482808Y-117519673D01*
X96340162Y-117863201D01*
X96339838Y-118235167D01*
X84163440Y-118235167D01*
X84163440Y-117136400D01*
X84141005Y-117017167D01*
X92506838Y-117017167D01*
X92648883Y-117360943D01*
X92911673Y-117624192D01*
X93255201Y-117766838D01*
X93627167Y-117767162D01*
X93970943Y-117625117D01*
X94234192Y-117362327D01*
X94376838Y-117018799D01*
X94377162Y-116646833D01*
X94235117Y-116303057D01*
X94187311Y-116255167D01*
X95808838Y-116255167D01*
X95950883Y-116598943D01*
X96213673Y-116862192D01*
X96557201Y-117004838D01*
X96929167Y-117005162D01*
X97272943Y-116863117D01*
X97536192Y-116600327D01*
X97678838Y-116256799D01*
X97678839Y-116255167D01*
X102412838Y-116255167D01*
X102554883Y-116598943D01*
X102817673Y-116862192D01*
X103161201Y-117004838D01*
X103533167Y-117005162D01*
X103876943Y-116863117D01*
X104140192Y-116600327D01*
X104282838Y-116256799D01*
X104283162Y-115884833D01*
X104141117Y-115541057D01*
X103878327Y-115277808D01*
X103534799Y-115135162D01*
X103162833Y-115134838D01*
X102819057Y-115276883D01*
X102555808Y-115539673D01*
X102413162Y-115883201D01*
X102412838Y-116255167D01*
X97678839Y-116255167D01*
X97679162Y-115884833D01*
X97537117Y-115541057D01*
X97274327Y-115277808D01*
X96930799Y-115135162D01*
X96558833Y-115134838D01*
X96215057Y-115276883D01*
X95951808Y-115539673D01*
X95809162Y-115883201D01*
X95808838Y-116255167D01*
X94187311Y-116255167D01*
X93972327Y-116039808D01*
X93628799Y-115897162D01*
X93256833Y-115896838D01*
X92913057Y-116038883D01*
X92649808Y-116301673D01*
X92507162Y-116645201D01*
X92506838Y-117017167D01*
X84141005Y-117017167D01*
X84119162Y-116901083D01*
X83980090Y-116684959D01*
X83767890Y-116539969D01*
X83726561Y-116531600D01*
X83744415Y-116519670D01*
X84069271Y-116033489D01*
X84183345Y-115460000D01*
X84069271Y-114886511D01*
X83744415Y-114400330D01*
X83534647Y-114260167D01*
X93389838Y-114260167D01*
X93531883Y-114603943D01*
X93794673Y-114867192D01*
X94138201Y-115009838D01*
X94510167Y-115010162D01*
X94853943Y-114868117D01*
X95117192Y-114605327D01*
X95259838Y-114261799D01*
X95260162Y-113889833D01*
X95196256Y-113735167D01*
X99739838Y-113735167D01*
X99881883Y-114078943D01*
X100144673Y-114342192D01*
X100488201Y-114484838D01*
X100860167Y-114485162D01*
X101150290Y-114365286D01*
X101438201Y-114484838D01*
X101810167Y-114485162D01*
X102153943Y-114343117D01*
X102417192Y-114080327D01*
X102559838Y-113736799D01*
X102559979Y-113574957D01*
X102795167Y-113575162D01*
X103138943Y-113433117D01*
X103365287Y-113207167D01*
X105968838Y-113207167D01*
X106110883Y-113550943D01*
X106373673Y-113814192D01*
X106717201Y-113956838D01*
X107089167Y-113957162D01*
X107432943Y-113815117D01*
X107696192Y-113552327D01*
X107838838Y-113208799D01*
X107839162Y-112836833D01*
X107697117Y-112493057D01*
X107649311Y-112445167D01*
X110540838Y-112445167D01*
X110682883Y-112788943D01*
X110945673Y-113052192D01*
X111289201Y-113194838D01*
X111661167Y-113195162D01*
X112004943Y-113053117D01*
X112268192Y-112790327D01*
X112410838Y-112446799D01*
X112411162Y-112074833D01*
X112269117Y-111731057D01*
X112006327Y-111467808D01*
X111662799Y-111325162D01*
X111290833Y-111324838D01*
X110947057Y-111466883D01*
X110683808Y-111729673D01*
X110541162Y-112073201D01*
X110540838Y-112445167D01*
X107649311Y-112445167D01*
X107434327Y-112229808D01*
X107090799Y-112087162D01*
X106718833Y-112086838D01*
X106375057Y-112228883D01*
X106111808Y-112491673D01*
X105969162Y-112835201D01*
X105968838Y-113207167D01*
X103365287Y-113207167D01*
X103402192Y-113170327D01*
X103544838Y-112826799D01*
X103545162Y-112454833D01*
X103403117Y-112111057D01*
X103140327Y-111847808D01*
X102796799Y-111705162D01*
X102424833Y-111704838D01*
X102081057Y-111846883D01*
X101817808Y-112109673D01*
X101675162Y-112453201D01*
X101675021Y-112615043D01*
X101439833Y-112614838D01*
X101149710Y-112734714D01*
X100861799Y-112615162D01*
X100489833Y-112614838D01*
X100146057Y-112756883D01*
X99882808Y-113019673D01*
X99740162Y-113363201D01*
X99739838Y-113735167D01*
X95196256Y-113735167D01*
X95118117Y-113546057D01*
X94855327Y-113282808D01*
X94511799Y-113140162D01*
X94139833Y-113139838D01*
X93796057Y-113281883D01*
X93532808Y-113544673D01*
X93390162Y-113888201D01*
X93389838Y-114260167D01*
X83534647Y-114260167D01*
X83429634Y-114190000D01*
X83744415Y-113979670D01*
X84069271Y-113493489D01*
X84183345Y-112920000D01*
X84069271Y-112346511D01*
X83744415Y-111860330D01*
X83429634Y-111650000D01*
X83489248Y-111610167D01*
X86614838Y-111610167D01*
X86756883Y-111953943D01*
X86952644Y-112150046D01*
X86832808Y-112269673D01*
X86690162Y-112613201D01*
X86689838Y-112985167D01*
X86831883Y-113328943D01*
X87094673Y-113592192D01*
X87438201Y-113734838D01*
X87810167Y-113735162D01*
X88153943Y-113593117D01*
X88417192Y-113330327D01*
X88559838Y-112986799D01*
X88560162Y-112614833D01*
X88418117Y-112271057D01*
X88222356Y-112074954D01*
X88342192Y-111955327D01*
X88484838Y-111611799D01*
X88485162Y-111239833D01*
X88421256Y-111085167D01*
X92314838Y-111085167D01*
X92456883Y-111428943D01*
X92719673Y-111692192D01*
X93063201Y-111834838D01*
X93435167Y-111835162D01*
X93778943Y-111693117D01*
X94042192Y-111430327D01*
X94184838Y-111086799D01*
X94184904Y-111010167D01*
X94764838Y-111010167D01*
X94906883Y-111353943D01*
X95169673Y-111617192D01*
X95513201Y-111759838D01*
X95885167Y-111760162D01*
X96228943Y-111618117D01*
X96299937Y-111547247D01*
X96419673Y-111667192D01*
X96763201Y-111809838D01*
X97135167Y-111810162D01*
X97478943Y-111668117D01*
X97742192Y-111405327D01*
X97837763Y-111175167D01*
X104952838Y-111175167D01*
X105094883Y-111518943D01*
X105357673Y-111782192D01*
X105701201Y-111924838D01*
X106073167Y-111925162D01*
X106416943Y-111783117D01*
X106680192Y-111520327D01*
X106822838Y-111176799D01*
X106822901Y-111104294D01*
X107113201Y-111224838D01*
X107485167Y-111225162D01*
X107828943Y-111083117D01*
X108092192Y-110820327D01*
X108165029Y-110644918D01*
X108445167Y-110645162D01*
X108627402Y-110569864D01*
X108659673Y-110602192D01*
X109003201Y-110744838D01*
X109375167Y-110745162D01*
X109718943Y-110603117D01*
X109982192Y-110340327D01*
X110124838Y-109996799D01*
X110125162Y-109624833D01*
X109983117Y-109281057D01*
X109720327Y-109017808D01*
X109376799Y-108875162D01*
X109038269Y-108874867D01*
X109074838Y-108786799D01*
X109075162Y-108414833D01*
X108933117Y-108071057D01*
X108670327Y-107807808D01*
X108326799Y-107665162D01*
X107954833Y-107664838D01*
X107611057Y-107806883D01*
X107347808Y-108069673D01*
X107209934Y-108401709D01*
X107210143Y-108162146D01*
X107342192Y-108030327D01*
X107484838Y-107686799D01*
X107485118Y-107365167D01*
X112064838Y-107365167D01*
X112206883Y-107708943D01*
X112469673Y-107972192D01*
X112813201Y-108114838D01*
X113185167Y-108115162D01*
X113528943Y-107973117D01*
X113792192Y-107710327D01*
X113830045Y-107619167D01*
X114350838Y-107619167D01*
X114492883Y-107962943D01*
X114755673Y-108226192D01*
X115099201Y-108368838D01*
X115471167Y-108369162D01*
X115540679Y-108340440D01*
X115555209Y-108413489D01*
X115880065Y-108899670D01*
X116194846Y-109110000D01*
X115880065Y-109320330D01*
X115555209Y-109806511D01*
X115441135Y-110380000D01*
X115555209Y-110953489D01*
X115880065Y-111439670D01*
X116194846Y-111650000D01*
X115880065Y-111860330D01*
X115555209Y-112346511D01*
X115441135Y-112920000D01*
X115555209Y-113493489D01*
X115880065Y-113979670D01*
X116194846Y-114190000D01*
X115880065Y-114400330D01*
X115555209Y-114886511D01*
X115441135Y-115460000D01*
X115555209Y-116033489D01*
X115880065Y-116519670D01*
X115894393Y-116529243D01*
X115873163Y-116533238D01*
X115657039Y-116672310D01*
X115512049Y-116884510D01*
X115461040Y-117136400D01*
X115461040Y-118863600D01*
X115505318Y-119098917D01*
X115644390Y-119315041D01*
X115856590Y-119460031D01*
X116108480Y-119511040D01*
X118140480Y-119511040D01*
X118375797Y-119466762D01*
X118591921Y-119327690D01*
X118736911Y-119115490D01*
X118787920Y-118863600D01*
X118787920Y-117136400D01*
X118743642Y-116901083D01*
X118604570Y-116684959D01*
X118392370Y-116539969D01*
X118351041Y-116531600D01*
X118368895Y-116519670D01*
X118693751Y-116033489D01*
X118807825Y-115460000D01*
X118693751Y-114886511D01*
X118368895Y-114400330D01*
X118054114Y-114190000D01*
X118368895Y-113979670D01*
X118693751Y-113493489D01*
X118807825Y-112920000D01*
X118693751Y-112346511D01*
X118368895Y-111860330D01*
X118054114Y-111650000D01*
X118368895Y-111439670D01*
X118693751Y-110953489D01*
X118807825Y-110380000D01*
X118693751Y-109806511D01*
X118368895Y-109320330D01*
X118054114Y-109110000D01*
X118368895Y-108899670D01*
X118693751Y-108413489D01*
X118807825Y-107840000D01*
X118693751Y-107266511D01*
X118368895Y-106780330D01*
X118054114Y-106570000D01*
X118368895Y-106359670D01*
X118693751Y-105873489D01*
X118807825Y-105300000D01*
X118693751Y-104726511D01*
X118368895Y-104240330D01*
X118054114Y-104030000D01*
X118368895Y-103819670D01*
X118693751Y-103333489D01*
X118807825Y-102760000D01*
X118693751Y-102186511D01*
X118368895Y-101700330D01*
X118054114Y-101490000D01*
X118368895Y-101279670D01*
X118693751Y-100793489D01*
X118807825Y-100220000D01*
X118693751Y-99646511D01*
X118368895Y-99160330D01*
X118054114Y-98950000D01*
X118368895Y-98739670D01*
X118693751Y-98253489D01*
X118807825Y-97680000D01*
X118693751Y-97106511D01*
X118368895Y-96620330D01*
X117882714Y-96295474D01*
X117309225Y-96181400D01*
X116939735Y-96181400D01*
X116366246Y-96295474D01*
X115880065Y-96620330D01*
X115555209Y-97106511D01*
X115441135Y-97680000D01*
X115555209Y-98253489D01*
X115880065Y-98739670D01*
X116194846Y-98950000D01*
X115880065Y-99160330D01*
X115555209Y-99646511D01*
X115441135Y-100220000D01*
X115555209Y-100793489D01*
X115880065Y-101279670D01*
X116194846Y-101490000D01*
X115880065Y-101700330D01*
X115555209Y-102186511D01*
X115441135Y-102760000D01*
X115555209Y-103333489D01*
X115880065Y-103819670D01*
X116194846Y-104030000D01*
X115880065Y-104240330D01*
X115555209Y-104726511D01*
X115441135Y-105300000D01*
X115555209Y-105873489D01*
X115880065Y-106359670D01*
X116194846Y-106570000D01*
X115924781Y-106750452D01*
X115816327Y-106641808D01*
X115472799Y-106499162D01*
X115100833Y-106498838D01*
X114757057Y-106640883D01*
X114493808Y-106903673D01*
X114351162Y-107247201D01*
X114350838Y-107619167D01*
X113830045Y-107619167D01*
X113934838Y-107366799D01*
X113935162Y-106994833D01*
X113793117Y-106651057D01*
X113530327Y-106387808D01*
X113186799Y-106245162D01*
X112814833Y-106244838D01*
X112471057Y-106386883D01*
X112207808Y-106649673D01*
X112065162Y-106993201D01*
X112064838Y-107365167D01*
X107485118Y-107365167D01*
X107485162Y-107314833D01*
X107343117Y-106971057D01*
X107132653Y-106760226D01*
X107154838Y-106706799D01*
X107155162Y-106334833D01*
X107013117Y-105991057D01*
X106807470Y-105785051D01*
X106935167Y-105785162D01*
X107131561Y-105704014D01*
X107169673Y-105742192D01*
X107513201Y-105884838D01*
X107885167Y-105885162D01*
X108228943Y-105743117D01*
X108492192Y-105480327D01*
X108573229Y-105285167D01*
X112014838Y-105285167D01*
X112156883Y-105628943D01*
X112419673Y-105892192D01*
X112763201Y-106034838D01*
X113135167Y-106035162D01*
X113478943Y-105893117D01*
X113742192Y-105630327D01*
X113884838Y-105286799D01*
X113885162Y-104914833D01*
X113743117Y-104571057D01*
X113480327Y-104307808D01*
X113136799Y-104165162D01*
X112764833Y-104164838D01*
X112421057Y-104306883D01*
X112157808Y-104569673D01*
X112015162Y-104913201D01*
X112014838Y-105285167D01*
X108573229Y-105285167D01*
X108634838Y-105136799D01*
X108635162Y-104764833D01*
X108493117Y-104421057D01*
X108230327Y-104157808D01*
X107886799Y-104015162D01*
X107514833Y-104014838D01*
X107318439Y-104095986D01*
X107280327Y-104057808D01*
X106936799Y-103915162D01*
X106564833Y-103914838D01*
X106221057Y-104056883D01*
X105957808Y-104319673D01*
X105815162Y-104663201D01*
X105814838Y-105035167D01*
X105956883Y-105378943D01*
X106162530Y-105584949D01*
X106034833Y-105584838D01*
X105691057Y-105726883D01*
X105427808Y-105989673D01*
X105285162Y-106333201D01*
X105284838Y-106705167D01*
X105426883Y-107048943D01*
X105637347Y-107259774D01*
X105615162Y-107313201D01*
X105614857Y-107662854D01*
X105482808Y-107794673D01*
X105340162Y-108138201D01*
X105339838Y-108510167D01*
X105481883Y-108853943D01*
X105744673Y-109117192D01*
X106088201Y-109259838D01*
X106460167Y-109260162D01*
X106803943Y-109118117D01*
X107067192Y-108855327D01*
X107205066Y-108523291D01*
X107204838Y-108785167D01*
X107346883Y-109128943D01*
X107447161Y-109229396D01*
X107394971Y-109355082D01*
X107114833Y-109354838D01*
X106771057Y-109496883D01*
X106507808Y-109759673D01*
X106365162Y-110103201D01*
X106365099Y-110175706D01*
X106074799Y-110055162D01*
X105702833Y-110054838D01*
X105359057Y-110196883D01*
X105095808Y-110459673D01*
X104953162Y-110803201D01*
X104952838Y-111175167D01*
X97837763Y-111175167D01*
X97884838Y-111061799D01*
X97885162Y-110689833D01*
X97743117Y-110346057D01*
X97611317Y-110214027D01*
X97903943Y-110093117D01*
X98072186Y-109925167D01*
X102564838Y-109925167D01*
X102706883Y-110268943D01*
X102969673Y-110532192D01*
X103313201Y-110674838D01*
X103685167Y-110675162D01*
X104028943Y-110533117D01*
X104292192Y-110270327D01*
X104434838Y-109926799D01*
X104435162Y-109554833D01*
X104293117Y-109211057D01*
X104191023Y-109108785D01*
X104228943Y-109093117D01*
X104492192Y-108830327D01*
X104634838Y-108486799D01*
X104635162Y-108114833D01*
X104493117Y-107771057D01*
X104230327Y-107507808D01*
X103886799Y-107365162D01*
X103514833Y-107364838D01*
X103171057Y-107506883D01*
X102907808Y-107769673D01*
X102765162Y-108113201D01*
X102764838Y-108485167D01*
X102906883Y-108828943D01*
X103008977Y-108931215D01*
X102971057Y-108946883D01*
X102707808Y-109209673D01*
X102565162Y-109553201D01*
X102564838Y-109925167D01*
X98072186Y-109925167D01*
X98167192Y-109830327D01*
X98309838Y-109486799D01*
X98310162Y-109114833D01*
X98168117Y-108771057D01*
X97905327Y-108507808D01*
X97561799Y-108365162D01*
X97189833Y-108364838D01*
X96869635Y-108497141D01*
X96855327Y-108482808D01*
X96511799Y-108340162D01*
X96139833Y-108339838D01*
X95796057Y-108481883D01*
X95532808Y-108744673D01*
X95390162Y-109088201D01*
X95389838Y-109460167D01*
X95531883Y-109803943D01*
X95617718Y-109889928D01*
X95514833Y-109889838D01*
X95171057Y-110031883D01*
X94907808Y-110294673D01*
X94765162Y-110638201D01*
X94764838Y-111010167D01*
X94184904Y-111010167D01*
X94185162Y-110714833D01*
X94043117Y-110371057D01*
X93780327Y-110107808D01*
X93436799Y-109965162D01*
X93064833Y-109964838D01*
X92721057Y-110106883D01*
X92457808Y-110369673D01*
X92315162Y-110713201D01*
X92314838Y-111085167D01*
X88421256Y-111085167D01*
X88343117Y-110896057D01*
X88080327Y-110632808D01*
X87736799Y-110490162D01*
X87364833Y-110489838D01*
X87021057Y-110631883D01*
X86757808Y-110894673D01*
X86615162Y-111238201D01*
X86614838Y-111610167D01*
X83489248Y-111610167D01*
X83744415Y-111439670D01*
X84069271Y-110953489D01*
X84183345Y-110380000D01*
X84069271Y-109806511D01*
X83744415Y-109320330D01*
X83429634Y-109110000D01*
X83744415Y-108899670D01*
X84069271Y-108413489D01*
X84183345Y-107840000D01*
X84069271Y-107266511D01*
X83744415Y-106780330D01*
X83429634Y-106570000D01*
X83744415Y-106359670D01*
X84069271Y-105873489D01*
X84071920Y-105860167D01*
X97039838Y-105860167D01*
X97181883Y-106203943D01*
X97424675Y-106447159D01*
X97221808Y-106649673D01*
X97079162Y-106993201D01*
X97078838Y-107365167D01*
X97220883Y-107708943D01*
X97483673Y-107972192D01*
X97827201Y-108114838D01*
X98199167Y-108115162D01*
X98542943Y-107973117D01*
X98806192Y-107710327D01*
X98948838Y-107366799D01*
X98949162Y-106994833D01*
X98807117Y-106651057D01*
X98564325Y-106407841D01*
X98767192Y-106205327D01*
X98909838Y-105861799D01*
X98910162Y-105489833D01*
X98768117Y-105146057D01*
X98505327Y-104882808D01*
X98161799Y-104740162D01*
X97789833Y-104739838D01*
X97446057Y-104881883D01*
X97182808Y-105144673D01*
X97040162Y-105488201D01*
X97039838Y-105860167D01*
X84071920Y-105860167D01*
X84183345Y-105300000D01*
X84069271Y-104726511D01*
X83744415Y-104240330D01*
X83429634Y-104030000D01*
X83744415Y-103819670D01*
X84069271Y-103333489D01*
X84118665Y-103085167D01*
X97789838Y-103085167D01*
X97931883Y-103428943D01*
X98194673Y-103692192D01*
X98538201Y-103834838D01*
X98910167Y-103835162D01*
X99103770Y-103755167D01*
X102204838Y-103755167D01*
X102346883Y-104098943D01*
X102609673Y-104362192D01*
X102953201Y-104504838D01*
X103325167Y-104505162D01*
X103668943Y-104363117D01*
X103932192Y-104100327D01*
X104074838Y-103756799D01*
X104075162Y-103384833D01*
X103933117Y-103041057D01*
X103670327Y-102777808D01*
X103326799Y-102635162D01*
X102954833Y-102634838D01*
X102611057Y-102776883D01*
X102347808Y-103039673D01*
X102205162Y-103383201D01*
X102204838Y-103755167D01*
X99103770Y-103755167D01*
X99253943Y-103693117D01*
X99517192Y-103430327D01*
X99659838Y-103086799D01*
X99660162Y-102714833D01*
X99518117Y-102371057D01*
X99282639Y-102135167D01*
X105889838Y-102135167D01*
X106031883Y-102478943D01*
X106294673Y-102742192D01*
X106638201Y-102884838D01*
X107010167Y-102885162D01*
X107315637Y-102758945D01*
X107438201Y-102809838D01*
X107810167Y-102810162D01*
X108006561Y-102729014D01*
X108044673Y-102767192D01*
X108388201Y-102909838D01*
X108760167Y-102910162D01*
X109103943Y-102768117D01*
X109367192Y-102505327D01*
X109509838Y-102161799D01*
X109510162Y-101789833D01*
X109368117Y-101446057D01*
X109105327Y-101182808D01*
X108761799Y-101040162D01*
X108389833Y-101039838D01*
X108193439Y-101120986D01*
X108155327Y-101082808D01*
X107811799Y-100940162D01*
X107439833Y-100939838D01*
X107134363Y-101066055D01*
X107011799Y-101015162D01*
X106639833Y-101014838D01*
X106296057Y-101156883D01*
X106032808Y-101419673D01*
X105890162Y-101763201D01*
X105889838Y-102135167D01*
X99282639Y-102135167D01*
X99255327Y-102107808D01*
X98911799Y-101965162D01*
X98539833Y-101964838D01*
X98196057Y-102106883D01*
X97932808Y-102369673D01*
X97790162Y-102713201D01*
X97789838Y-103085167D01*
X84118665Y-103085167D01*
X84183345Y-102760000D01*
X84069271Y-102186511D01*
X83744415Y-101700330D01*
X83429634Y-101490000D01*
X83744415Y-101279670D01*
X84069271Y-100793489D01*
X84183345Y-100220000D01*
X84069271Y-99646511D01*
X83744415Y-99160330D01*
X83429634Y-98950000D01*
X83744415Y-98739670D01*
X84069271Y-98253489D01*
X84183345Y-97680000D01*
X84069271Y-97106511D01*
X83744415Y-96620330D01*
X83540383Y-96484000D01*
X85486560Y-96484000D01*
X85486560Y-98516000D01*
X85530838Y-98751317D01*
X85669910Y-98967441D01*
X85826206Y-99074233D01*
X85624675Y-99375845D01*
X85499000Y-100007655D01*
X85499000Y-100072345D01*
X85624675Y-100704155D01*
X85982567Y-101239778D01*
X86518190Y-101597670D01*
X87150000Y-101723345D01*
X87781810Y-101597670D01*
X88317433Y-101239778D01*
X88675325Y-100704155D01*
X88758667Y-100285167D01*
X96214838Y-100285167D01*
X96356883Y-100628943D01*
X96619673Y-100892192D01*
X96963201Y-101034838D01*
X97335167Y-101035162D01*
X97678943Y-100893117D01*
X97942192Y-100630327D01*
X98084838Y-100286799D01*
X98084867Y-100253167D01*
X101142838Y-100253167D01*
X101284883Y-100596943D01*
X101547673Y-100860192D01*
X101891201Y-101002838D01*
X102263167Y-101003162D01*
X102606943Y-100861117D01*
X102870192Y-100598327D01*
X103012838Y-100254799D01*
X103012985Y-100085167D01*
X109964838Y-100085167D01*
X110106883Y-100428943D01*
X110369673Y-100692192D01*
X110713201Y-100834838D01*
X111085167Y-100835162D01*
X111428943Y-100693117D01*
X111692192Y-100430327D01*
X111762062Y-100262063D01*
X111826883Y-100418943D01*
X112089673Y-100682192D01*
X112433201Y-100824838D01*
X112805167Y-100825162D01*
X113148943Y-100683117D01*
X113412192Y-100420327D01*
X113554838Y-100076799D01*
X113555162Y-99704833D01*
X113413117Y-99361057D01*
X113150327Y-99097808D01*
X112806799Y-98955162D01*
X112434833Y-98954838D01*
X112091057Y-99096883D01*
X111827808Y-99359673D01*
X111757938Y-99527937D01*
X111693117Y-99371057D01*
X111430327Y-99107808D01*
X111086799Y-98965162D01*
X110714833Y-98964838D01*
X110371057Y-99106883D01*
X110107808Y-99369673D01*
X109965162Y-99713201D01*
X109964838Y-100085167D01*
X103012985Y-100085167D01*
X103013162Y-99882833D01*
X102871117Y-99539057D01*
X102608327Y-99275808D01*
X102264799Y-99133162D01*
X101892833Y-99132838D01*
X101549057Y-99274883D01*
X101285808Y-99537673D01*
X101143162Y-99881201D01*
X101142838Y-100253167D01*
X98084867Y-100253167D01*
X98085162Y-99914833D01*
X97943117Y-99571057D01*
X97680327Y-99307808D01*
X97336799Y-99165162D01*
X96964833Y-99164838D01*
X96621057Y-99306883D01*
X96357808Y-99569673D01*
X96215162Y-99913201D01*
X96214838Y-100285167D01*
X88758667Y-100285167D01*
X88801000Y-100072345D01*
X88801000Y-100007655D01*
X88675325Y-99375845D01*
X88472996Y-99073038D01*
X88617441Y-98980090D01*
X88762431Y-98767890D01*
X88813440Y-98516000D01*
X88813440Y-98475167D01*
X103936838Y-98475167D01*
X104078883Y-98818943D01*
X104341673Y-99082192D01*
X104685201Y-99224838D01*
X105057167Y-99225162D01*
X105400943Y-99083117D01*
X105664192Y-98820327D01*
X105806838Y-98476799D01*
X105807162Y-98104833D01*
X105665117Y-97761057D01*
X105402327Y-97497808D01*
X105058799Y-97355162D01*
X104686833Y-97354838D01*
X104343057Y-97496883D01*
X104079808Y-97759673D01*
X103937162Y-98103201D01*
X103936838Y-98475167D01*
X88813440Y-98475167D01*
X88813440Y-97635167D01*
X98594838Y-97635167D01*
X98736883Y-97978943D01*
X98999673Y-98242192D01*
X99343201Y-98384838D01*
X99715167Y-98385162D01*
X100058943Y-98243117D01*
X100322192Y-97980327D01*
X100464838Y-97636799D01*
X100465162Y-97264833D01*
X100323117Y-96921057D01*
X100137552Y-96735167D01*
X100389838Y-96735167D01*
X100531883Y-97078943D01*
X100794673Y-97342192D01*
X101138201Y-97484838D01*
X101510167Y-97485162D01*
X101853943Y-97343117D01*
X102117192Y-97080327D01*
X102259838Y-96736799D01*
X102260162Y-96364833D01*
X102118117Y-96021057D01*
X101855327Y-95757808D01*
X101511799Y-95615162D01*
X101139833Y-95614838D01*
X100796057Y-95756883D01*
X100532808Y-96019673D01*
X100390162Y-96363201D01*
X100389838Y-96735167D01*
X100137552Y-96735167D01*
X100060327Y-96657808D01*
X99716799Y-96515162D01*
X99344833Y-96514838D01*
X99001057Y-96656883D01*
X98737808Y-96919673D01*
X98595162Y-97263201D01*
X98594838Y-97635167D01*
X88813440Y-97635167D01*
X88813440Y-96484000D01*
X88769162Y-96248683D01*
X88630090Y-96032559D01*
X88417890Y-95887569D01*
X88166000Y-95836560D01*
X86134000Y-95836560D01*
X85898683Y-95880838D01*
X85682559Y-96019910D01*
X85537569Y-96232110D01*
X85486560Y-96484000D01*
X83540383Y-96484000D01*
X83258234Y-96295474D01*
X82684745Y-96181400D01*
X82315255Y-96181400D01*
X81741766Y-96295474D01*
X81255585Y-96620330D01*
X80930729Y-97106511D01*
X80816655Y-97680000D01*
X80688283Y-97680000D01*
X80699731Y-92960167D01*
X97514838Y-92960167D01*
X97656883Y-93303943D01*
X97919673Y-93567192D01*
X98263201Y-93709838D01*
X98635167Y-93710162D01*
X98978943Y-93568117D01*
X99242192Y-93305327D01*
X99384838Y-92961799D01*
X99384977Y-92801440D01*
X103970080Y-92801440D01*
X103970080Y-94833440D01*
X104014358Y-95068757D01*
X104153430Y-95284881D01*
X104365630Y-95429871D01*
X104617520Y-95480880D01*
X106344720Y-95480880D01*
X106580037Y-95436602D01*
X106796161Y-95297530D01*
X106941151Y-95085330D01*
X106949520Y-95044001D01*
X106961450Y-95061855D01*
X107447631Y-95386711D01*
X108021120Y-95500785D01*
X108594609Y-95386711D01*
X109080790Y-95061855D01*
X109291120Y-94747074D01*
X109501450Y-95061855D01*
X109987631Y-95386711D01*
X110561120Y-95500785D01*
X111134609Y-95386711D01*
X111620790Y-95061855D01*
X111945646Y-94575674D01*
X112059720Y-94002185D01*
X112059720Y-93632695D01*
X111945646Y-93059206D01*
X111620790Y-92573025D01*
X111134609Y-92248169D01*
X110561120Y-92134095D01*
X109987631Y-92248169D01*
X109501450Y-92573025D01*
X109291120Y-92887806D01*
X109080790Y-92573025D01*
X108594609Y-92248169D01*
X108021120Y-92134095D01*
X107447631Y-92248169D01*
X106961450Y-92573025D01*
X106951877Y-92587353D01*
X106947882Y-92566123D01*
X106808810Y-92349999D01*
X106596610Y-92205009D01*
X106344720Y-92154000D01*
X104617520Y-92154000D01*
X104382203Y-92198278D01*
X104166079Y-92337350D01*
X104021089Y-92549550D01*
X103970080Y-92801440D01*
X99384977Y-92801440D01*
X99385162Y-92589833D01*
X99243117Y-92246057D01*
X98980327Y-91982808D01*
X98636799Y-91840162D01*
X98264833Y-91839838D01*
X97921057Y-91981883D01*
X97657808Y-92244673D01*
X97515162Y-92588201D01*
X97514838Y-92960167D01*
X80699731Y-92960167D01*
X80707482Y-89764675D01*
X81171076Y-90886658D01*
X82108407Y-91825627D01*
X83333717Y-92334420D01*
X84660462Y-92335578D01*
X85886658Y-91828924D01*
X86581627Y-91135167D01*
X89389838Y-91135167D01*
X89531883Y-91478943D01*
X89794673Y-91742192D01*
X90138201Y-91884838D01*
X90510167Y-91885162D01*
X90853943Y-91743117D01*
X91117192Y-91480327D01*
X91259838Y-91136799D01*
X91260094Y-90843091D01*
X91341167Y-90843162D01*
X91684943Y-90701117D01*
X91948192Y-90438327D01*
X92090838Y-90094799D01*
X92091162Y-89722833D01*
X91949117Y-89379057D01*
X91686327Y-89115808D01*
X91342799Y-88973162D01*
X90970833Y-88972838D01*
X90627057Y-89114883D01*
X90363808Y-89377673D01*
X90221162Y-89721201D01*
X90220906Y-90014909D01*
X90139833Y-90014838D01*
X89796057Y-90156883D01*
X89532808Y-90419673D01*
X89390162Y-90763201D01*
X89389838Y-91135167D01*
X86581627Y-91135167D01*
X86825627Y-90891593D01*
X87334420Y-89666283D01*
X87335578Y-88339538D01*
X86828924Y-87113342D01*
X85891593Y-86174373D01*
X85380488Y-85962144D01*
X97897286Y-85949156D01*
X97625795Y-86355471D01*
X97511721Y-86928960D01*
X97625795Y-87502449D01*
X97950651Y-87988630D01*
X98265432Y-88198960D01*
X97950651Y-88409290D01*
X97625795Y-88895471D01*
X97511721Y-89468960D01*
X97625795Y-90042449D01*
X97950651Y-90528630D01*
X98436832Y-90853486D01*
X99010321Y-90967560D01*
X99069039Y-90967560D01*
X99642528Y-90853486D01*
X100128709Y-90528630D01*
X100309680Y-90257788D01*
X100490651Y-90528630D01*
X100976832Y-90853486D01*
X101550321Y-90967560D01*
X101609039Y-90967560D01*
X102182528Y-90853486D01*
X102668709Y-90528630D01*
X102849680Y-90257788D01*
X103030651Y-90528630D01*
X103516832Y-90853486D01*
X104090321Y-90967560D01*
X104149039Y-90967560D01*
X104722528Y-90853486D01*
X105208709Y-90528630D01*
X105389680Y-90257788D01*
X105570651Y-90528630D01*
X106056832Y-90853486D01*
X106630321Y-90967560D01*
X106689039Y-90967560D01*
X107262528Y-90853486D01*
X107728122Y-90542386D01*
X107732918Y-90567877D01*
X107871990Y-90784001D01*
X108084190Y-90928991D01*
X108336080Y-90980000D01*
X110063280Y-90980000D01*
X110298597Y-90935722D01*
X110514721Y-90796650D01*
X110659711Y-90584450D01*
X110710720Y-90332560D01*
X110710720Y-88605360D01*
X110666442Y-88370043D01*
X110527370Y-88153919D01*
X110315170Y-88008929D01*
X110221305Y-87989921D01*
X110482368Y-87703907D01*
X110654638Y-87287986D01*
X110533497Y-87055960D01*
X109326680Y-87055960D01*
X109326680Y-87075960D01*
X109072680Y-87075960D01*
X109072680Y-87055960D01*
X109052680Y-87055960D01*
X109052680Y-86801960D01*
X109072680Y-86801960D01*
X109072680Y-86781960D01*
X109326680Y-86781960D01*
X109326680Y-86801960D01*
X110533497Y-86801960D01*
X110654638Y-86569934D01*
X110482368Y-86154013D01*
X110283652Y-85936304D01*
X114692606Y-85931729D01*
X114113342Y-86171076D01*
M02*
