G04 #@! TF.FileFunction,Copper,L2,Bot,Signal*
%FSLAX46Y46*%
G04 Gerber Fmt 4.6, Leading zero omitted, Abs format (unit mm)*
G04 Created by KiCad (PCBNEW 4.0.2-stable) date 8/15/2016 9:55:29 PM*
%MOMM*%
G01*
G04 APERTURE LIST*
%ADD10C,0.100000*%
%ADD11R,1.727200X1.727200*%
%ADD12O,1.727200X1.727200*%
%ADD13R,0.900000X1.200000*%
%ADD14R,1.200000X0.900000*%
%ADD15R,2.032000X2.032000*%
%ADD16O,2.032000X2.032000*%
%ADD17R,2.032000X1.727200*%
%ADD18O,2.032000X1.727200*%
%ADD19C,6.400000*%
%ADD20C,0.600000*%
%ADD21C,0.250000*%
%ADD22C,0.300000*%
%ADD23C,0.254000*%
G04 APERTURE END LIST*
D10*
D11*
X102950000Y-78000000D03*
D12*
X105490000Y-78000000D03*
X102950000Y-75460000D03*
X105490000Y-75460000D03*
X102950000Y-72920000D03*
X105490000Y-72920000D03*
X102950000Y-70380000D03*
X105490000Y-70380000D03*
X102950000Y-67840000D03*
X105490000Y-67840000D03*
D13*
X75192100Y-71526200D03*
X75192100Y-69326200D03*
X73249000Y-71526200D03*
X73249000Y-69326200D03*
D14*
X89294000Y-73652000D03*
X91494000Y-73652000D03*
D15*
X63520800Y-63492000D03*
D16*
X66060800Y-63492000D03*
D17*
X60549000Y-82542000D03*
D18*
X60549000Y-85082000D03*
X60549000Y-87622000D03*
D19*
X51000000Y-58520000D03*
X51000000Y-89000000D03*
X108150000Y-89000000D03*
X108150000Y-58520000D03*
D20*
X88235000Y-64635000D03*
X73122000Y-64635000D03*
X70328000Y-74977000D03*
X75154000Y-85209000D03*
X77382000Y-81526000D03*
X90394000Y-82288000D03*
X82520000Y-62476000D03*
X54580000Y-72255000D03*
X88870000Y-89456000D03*
X96998000Y-84828000D03*
X65121000Y-84066000D03*
X73630000Y-81816000D03*
X74519000Y-80546000D03*
X55219900Y-75811000D03*
X53310000Y-75876500D03*
X88362000Y-70985000D03*
X86838000Y-77208000D03*
X92934000Y-82542000D03*
X87854000Y-80637000D03*
X84933000Y-77716000D03*
X89886000Y-61460000D03*
X80488000Y-59936000D03*
X94712000Y-68755300D03*
X98903000Y-75938000D03*
X96236000Y-69842000D03*
X69947000Y-71239000D03*
X53056000Y-65505000D03*
X95292000Y-89654000D03*
X66772000Y-89939000D03*
X73503000Y-60444000D03*
X76678000Y-60317000D03*
X88108000Y-61587000D03*
X91791000Y-66286000D03*
X76297000Y-72382000D03*
X95220000Y-73012600D03*
X92426000Y-77589000D03*
X84298000Y-75557000D03*
X76805000Y-78097000D03*
X72106000Y-76700000D03*
X89290110Y-65526247D03*
X74265000Y-65397000D03*
X86711000Y-67419010D03*
X89965100Y-67810000D03*
X90648000Y-67175000D03*
X86203000Y-68572000D03*
X90267000Y-78478000D03*
X89505000Y-77843000D03*
X88870000Y-77208000D03*
X87981000Y-76686300D03*
X92426000Y-73525000D03*
X87727000Y-66159000D03*
X75027000Y-68191000D03*
X92934000Y-67683000D03*
X76424000Y-70604000D03*
X73376000Y-68191000D03*
X92426000Y-70731000D03*
X77313000Y-70223000D03*
X91283000Y-70477000D03*
X60041000Y-75049000D03*
X58898000Y-73117900D03*
X53288600Y-73165400D03*
X58898000Y-74414000D03*
X53183000Y-74160000D03*
D21*
X87981000Y-64381000D02*
X88235000Y-64635000D01*
X84679000Y-64381000D02*
X87981000Y-64381000D01*
X73376000Y-64381000D02*
X73122000Y-64635000D01*
X84679000Y-64381000D02*
X73376000Y-64381000D01*
D22*
X61565000Y-74414000D02*
X70455000Y-74414000D01*
X70328000Y-74541000D02*
X70455000Y-74414000D01*
X70455000Y-74414000D02*
X71471000Y-74414000D01*
X70328000Y-74977000D02*
X70328000Y-74541000D01*
X75916000Y-85209000D02*
X75154000Y-85209000D01*
X77382000Y-83743000D02*
X75916000Y-85209000D01*
X77382000Y-81526000D02*
X77382000Y-83743000D01*
X71471000Y-74414000D02*
X84425000Y-74414000D01*
X73965001Y-81226001D02*
X71455999Y-78716999D01*
X71455999Y-78716999D02*
X71455999Y-74429001D01*
X71455999Y-74429001D02*
X71471000Y-74414000D01*
X77382000Y-81526000D02*
X77082001Y-81226001D01*
X77082001Y-81226001D02*
X73965001Y-81226001D01*
X57120000Y-71955001D02*
X59106001Y-71955001D01*
X88521990Y-81341755D02*
X89468235Y-82288000D01*
X59106001Y-71955001D02*
X61565000Y-74414000D01*
X84425000Y-74414000D02*
X85060000Y-75049000D01*
X88521990Y-80071754D02*
X88521990Y-81341755D01*
X85060000Y-75049000D02*
X85060000Y-76827000D01*
X85060000Y-76827000D02*
X87288755Y-79055755D01*
X87288755Y-79055755D02*
X87505990Y-79055755D01*
X87505990Y-79055755D02*
X88521990Y-80071754D01*
X89468235Y-82288000D02*
X90394000Y-82288000D01*
X82520000Y-58793000D02*
X82520000Y-62476000D01*
X81631000Y-57904000D02*
X82520000Y-58793000D01*
X73884000Y-57904000D02*
X81631000Y-57904000D01*
X71740001Y-60047999D02*
X73884000Y-57904000D01*
X57120000Y-64889000D02*
X61961001Y-60047999D01*
X61961001Y-60047999D02*
X71740001Y-60047999D01*
X54879999Y-71955001D02*
X57120000Y-71955001D01*
X57120000Y-71955001D02*
X57120000Y-64889000D01*
X54580000Y-72255000D02*
X54879999Y-71955001D01*
D21*
X88362000Y-70985000D02*
X88362000Y-72870000D01*
X88362000Y-72870000D02*
X89144000Y-73652000D01*
X89144000Y-73652000D02*
X89294000Y-73652000D01*
X86838000Y-74541000D02*
X86838000Y-77208000D01*
X87727000Y-73652000D02*
X86838000Y-74541000D01*
X89294000Y-73652000D02*
X87727000Y-73652000D01*
D22*
X91791000Y-66286000D02*
X88108000Y-62603000D01*
X88108000Y-62603000D02*
X88108000Y-62349000D01*
X88108000Y-62349000D02*
X88108000Y-61587000D01*
X76297000Y-71881100D02*
X76297000Y-72382000D01*
X75192100Y-71526200D02*
X75942100Y-71526200D01*
X75942100Y-71526200D02*
X76297000Y-71881100D01*
X73249000Y-71526200D02*
X75192100Y-71526200D01*
D21*
X76251001Y-77543001D02*
X76805000Y-78097000D01*
X75489001Y-77543001D02*
X76251001Y-77543001D01*
X73965001Y-77543001D02*
X75489001Y-77543001D01*
X72949001Y-77543001D02*
X72106000Y-76700000D01*
X73965001Y-77543001D02*
X72949001Y-77543001D01*
X88108000Y-65524000D02*
X89287863Y-65524000D01*
X89287863Y-65524000D02*
X89290110Y-65526247D01*
X87415010Y-64831010D02*
X88108000Y-65524000D01*
X84492600Y-64831010D02*
X87415010Y-64831010D01*
X74830990Y-64831010D02*
X84492600Y-64831010D01*
X74265000Y-65397000D02*
X74830990Y-64831010D01*
X88606010Y-67419010D02*
X88997000Y-67810000D01*
X88997000Y-67810000D02*
X89965100Y-67810000D01*
X86711000Y-67419010D02*
X88606010Y-67419010D01*
X90648000Y-68064000D02*
X90648000Y-67175000D01*
X90276999Y-68435001D02*
X90648000Y-68064000D01*
X86883999Y-68272001D02*
X87046999Y-68435001D01*
X87046999Y-68435001D02*
X90276999Y-68435001D01*
X86203000Y-68572000D02*
X86502999Y-68272001D01*
X86502999Y-68272001D02*
X86883999Y-68272001D01*
X90267000Y-78478000D02*
X90648000Y-78859000D01*
X90648000Y-78859000D02*
X90648000Y-79748000D01*
X90902000Y-80002000D02*
X99157000Y-80002000D01*
X90648000Y-79748000D02*
X90902000Y-80002000D01*
X99157000Y-80002000D02*
X100173000Y-78986000D01*
X100173000Y-78986000D02*
X100173000Y-73906000D01*
X100173000Y-73906000D02*
X101159000Y-72920000D01*
X101159000Y-72920000D02*
X102950000Y-72920000D01*
X103705000Y-72920000D02*
X102483686Y-72920000D01*
X102483686Y-72920000D02*
X102078000Y-73325686D01*
X100623010Y-75995990D02*
X101159000Y-75460000D01*
X101159000Y-75460000D02*
X102950000Y-75460000D01*
X100623010Y-79172400D02*
X100623010Y-75995990D01*
X99168020Y-80625980D02*
X99341990Y-80452010D01*
X99341990Y-80452010D02*
X99343401Y-80452009D01*
X99343401Y-80452009D02*
X100623010Y-79172400D01*
X103705000Y-75460000D02*
X102175000Y-75460000D01*
X90013000Y-80383000D02*
X90013000Y-79494000D01*
X99168020Y-80625980D02*
X90255980Y-80625980D01*
X90255980Y-80625980D02*
X90013000Y-80383000D01*
X90013000Y-79494000D02*
X89505000Y-78986000D01*
X89505000Y-78986000D02*
X89505000Y-77843000D01*
X99480010Y-81075990D02*
X89689990Y-81075990D01*
X100427000Y-80129000D02*
X99480010Y-81075990D01*
X104582314Y-80129000D02*
X100427000Y-80129000D01*
X105490000Y-78000000D02*
X105490000Y-79221314D01*
X105490000Y-79221314D02*
X104582314Y-80129000D01*
X88870000Y-77208000D02*
X88570001Y-77507999D01*
X88570001Y-77507999D02*
X88570001Y-78811591D01*
X88570001Y-78811591D02*
X89447010Y-79688600D01*
X89447010Y-79688600D02*
X89447010Y-80833010D01*
X89447010Y-80833010D02*
X89689990Y-81075990D01*
X105490000Y-75460000D02*
X106711314Y-75460000D01*
X106711314Y-75460000D02*
X107031000Y-75779686D01*
X107031000Y-75779686D02*
X107031000Y-79621000D01*
X107031000Y-79621000D02*
X106072990Y-80579010D01*
X89378000Y-81526000D02*
X88997000Y-81145000D01*
X106072990Y-80579010D02*
X100613400Y-80579010D01*
X88997000Y-79875000D02*
X87981000Y-78859000D01*
X100613400Y-80579010D02*
X99666410Y-81526000D01*
X99666410Y-81526000D02*
X89378000Y-81526000D01*
X88997000Y-81145000D02*
X88997000Y-79875000D01*
X87981000Y-78859000D02*
X87981000Y-76686300D01*
X92426000Y-73525000D02*
X91621000Y-73525000D01*
X91621000Y-73525000D02*
X91494000Y-73652000D01*
X87727000Y-66159000D02*
X87981000Y-66413000D01*
X87981000Y-66413000D02*
X90775000Y-66413000D01*
X90775000Y-66413000D02*
X91419999Y-67057999D01*
X91419999Y-67057999D02*
X93705999Y-67057999D01*
X93705999Y-67057999D02*
X93950000Y-67302000D01*
X93950000Y-67302000D02*
X93950000Y-67937000D01*
X93950000Y-67937000D02*
X93442000Y-68445000D01*
X93442000Y-68445000D02*
X93442000Y-71004000D01*
X93442000Y-71004000D02*
X91494000Y-72952000D01*
X91494000Y-72952000D02*
X91494000Y-73652000D01*
X75192100Y-69326200D02*
X90022210Y-69326200D01*
X90022210Y-69326200D02*
X91098009Y-68250401D01*
X91098009Y-68250401D02*
X91098009Y-68121991D01*
X91098009Y-68121991D02*
X92495009Y-68121991D01*
X92495009Y-68121991D02*
X92934000Y-67683000D01*
X75027000Y-68191000D02*
X75027000Y-69161100D01*
X75027000Y-69161100D02*
X75192100Y-69326200D01*
X76424000Y-70604000D02*
X76723999Y-70903999D01*
X76723999Y-70903999D02*
X77521001Y-70903999D01*
X77521001Y-70903999D02*
X78198780Y-70226220D01*
X78198780Y-70226220D02*
X89635220Y-70226220D01*
X89635220Y-70226220D02*
X90511001Y-71102001D01*
X90511001Y-71102001D02*
X92054999Y-71102001D01*
X92054999Y-71102001D02*
X92426000Y-70731000D01*
X73376000Y-68191000D02*
X73376000Y-69199200D01*
X73376000Y-69199200D02*
X73249000Y-69326200D01*
X77313000Y-70223000D02*
X77759790Y-69776210D01*
X77759790Y-69776210D02*
X89947210Y-69776210D01*
X89947210Y-69776210D02*
X90648000Y-70477000D01*
X90648000Y-70477000D02*
X91283000Y-70477000D01*
X60041000Y-75049000D02*
X60041000Y-74260900D01*
X60041000Y-74260900D02*
X58898000Y-73117900D01*
X58368600Y-73165400D02*
X58416100Y-73117900D01*
X58416100Y-73117900D02*
X58898000Y-73117900D01*
X53288600Y-73165400D02*
X58368600Y-73165400D01*
X58644000Y-74160000D02*
X58898000Y-74414000D01*
X53183000Y-74160000D02*
X58644000Y-74160000D01*
D23*
G36*
X104900741Y-56344811D02*
X104315667Y-57753825D01*
X104314336Y-59279482D01*
X104896950Y-60689515D01*
X105974811Y-61769259D01*
X107383825Y-62354333D01*
X108909482Y-62355664D01*
X110319515Y-61773050D01*
X110868000Y-61225522D01*
X110868000Y-86294500D01*
X110325189Y-85750741D01*
X108916175Y-85165667D01*
X107390518Y-85164336D01*
X105980485Y-85746950D01*
X104900741Y-86824811D01*
X104315667Y-88233825D01*
X104314336Y-89759482D01*
X104896950Y-91169515D01*
X105312709Y-91586000D01*
X53837730Y-91586000D01*
X54249259Y-91175189D01*
X54834333Y-89766175D01*
X54834442Y-89641167D01*
X87934838Y-89641167D01*
X88076883Y-89984943D01*
X88339673Y-90248192D01*
X88683201Y-90390838D01*
X89055167Y-90391162D01*
X89398943Y-90249117D01*
X89662192Y-89986327D01*
X89804838Y-89642799D01*
X89805162Y-89270833D01*
X89663117Y-88927057D01*
X89400327Y-88663808D01*
X89056799Y-88521162D01*
X88684833Y-88520838D01*
X88341057Y-88662883D01*
X88077808Y-88925673D01*
X87935162Y-89269201D01*
X87934838Y-89641167D01*
X54834442Y-89641167D01*
X54835664Y-88240518D01*
X54253050Y-86830485D01*
X53175189Y-85750741D01*
X51766175Y-85165667D01*
X50240518Y-85164336D01*
X48830485Y-85746950D01*
X48457000Y-86119784D01*
X48457000Y-85082000D01*
X58865655Y-85082000D01*
X58979729Y-85655489D01*
X59304585Y-86141670D01*
X59619366Y-86352000D01*
X59304585Y-86562330D01*
X58979729Y-87048511D01*
X58865655Y-87622000D01*
X58979729Y-88195489D01*
X59304585Y-88681670D01*
X59790766Y-89006526D01*
X60364255Y-89120600D01*
X60733745Y-89120600D01*
X61307234Y-89006526D01*
X61793415Y-88681670D01*
X62118271Y-88195489D01*
X62232345Y-87622000D01*
X62118271Y-87048511D01*
X61793415Y-86562330D01*
X61478634Y-86352000D01*
X61793415Y-86141670D01*
X62118271Y-85655489D01*
X62232345Y-85082000D01*
X62118271Y-84508511D01*
X61946320Y-84251167D01*
X64185838Y-84251167D01*
X64327883Y-84594943D01*
X64590673Y-84858192D01*
X64934201Y-85000838D01*
X65306167Y-85001162D01*
X65649943Y-84859117D01*
X65913192Y-84596327D01*
X66055838Y-84252799D01*
X66056162Y-83880833D01*
X65914117Y-83537057D01*
X65651327Y-83273808D01*
X65307799Y-83131162D01*
X64935833Y-83130838D01*
X64592057Y-83272883D01*
X64328808Y-83535673D01*
X64186162Y-83879201D01*
X64185838Y-84251167D01*
X61946320Y-84251167D01*
X61793415Y-84022330D01*
X61779087Y-84012757D01*
X61800317Y-84008762D01*
X62016441Y-83869690D01*
X62161431Y-83657490D01*
X62212440Y-83405600D01*
X62212440Y-81678400D01*
X62168162Y-81443083D01*
X62029090Y-81226959D01*
X61816890Y-81081969D01*
X61565000Y-81030960D01*
X59533000Y-81030960D01*
X59297683Y-81075238D01*
X59081559Y-81214310D01*
X58936569Y-81426510D01*
X58885560Y-81678400D01*
X58885560Y-83405600D01*
X58929838Y-83640917D01*
X59068910Y-83857041D01*
X59281110Y-84002031D01*
X59322439Y-84010400D01*
X59304585Y-84022330D01*
X58979729Y-84508511D01*
X58865655Y-85082000D01*
X48457000Y-85082000D01*
X48457000Y-74345167D01*
X52247838Y-74345167D01*
X52389883Y-74688943D01*
X52652673Y-74952192D01*
X52875068Y-75044539D01*
X52781057Y-75083383D01*
X52517808Y-75346173D01*
X52375162Y-75689701D01*
X52374838Y-76061667D01*
X52516883Y-76405443D01*
X52779673Y-76668692D01*
X53123201Y-76811338D01*
X53495167Y-76811662D01*
X53838943Y-76669617D01*
X54102192Y-76406827D01*
X54244838Y-76063299D01*
X54245162Y-75691333D01*
X54103117Y-75347557D01*
X53840327Y-75084308D01*
X53617932Y-74991961D01*
X53711943Y-74953117D01*
X53745118Y-74920000D01*
X54927853Y-74920000D01*
X54690957Y-75017883D01*
X54427708Y-75280673D01*
X54285062Y-75624201D01*
X54284738Y-75996167D01*
X54426783Y-76339943D01*
X54689573Y-76603192D01*
X55033101Y-76745838D01*
X55405067Y-76746162D01*
X55748843Y-76604117D01*
X56012092Y-76341327D01*
X56154738Y-75997799D01*
X56155062Y-75625833D01*
X56013017Y-75282057D01*
X55750227Y-75018808D01*
X55512272Y-74920000D01*
X58095403Y-74920000D01*
X58104883Y-74942943D01*
X58367673Y-75206192D01*
X58711201Y-75348838D01*
X59083167Y-75349162D01*
X59143118Y-75324391D01*
X59247883Y-75577943D01*
X59510673Y-75841192D01*
X59854201Y-75983838D01*
X60226167Y-75984162D01*
X60569943Y-75842117D01*
X60833192Y-75579327D01*
X60975838Y-75235799D01*
X60976100Y-74935258D01*
X61009921Y-74969079D01*
X61264594Y-75139245D01*
X61565000Y-75199000D01*
X69408057Y-75199000D01*
X69534883Y-75505943D01*
X69797673Y-75769192D01*
X70141201Y-75911838D01*
X70513167Y-75912162D01*
X70670999Y-75846947D01*
X70670999Y-78716999D01*
X70730754Y-79017406D01*
X70900920Y-79272078D01*
X72876195Y-81247353D01*
X72837808Y-81285673D01*
X72695162Y-81629201D01*
X72694838Y-82001167D01*
X72836883Y-82344943D01*
X73099673Y-82608192D01*
X73443201Y-82750838D01*
X73815167Y-82751162D01*
X74158943Y-82609117D01*
X74422192Y-82346327D01*
X74561432Y-82011001D01*
X76570727Y-82011001D01*
X76588883Y-82054943D01*
X76597000Y-82063074D01*
X76597000Y-83417842D01*
X75623353Y-84391489D01*
X75340799Y-84274162D01*
X74968833Y-84273838D01*
X74625057Y-84415883D01*
X74361808Y-84678673D01*
X74219162Y-85022201D01*
X74218838Y-85394167D01*
X74360883Y-85737943D01*
X74623673Y-86001192D01*
X74967201Y-86143838D01*
X75339167Y-86144162D01*
X75682943Y-86002117D01*
X75691074Y-85994000D01*
X75916000Y-85994000D01*
X76216407Y-85934245D01*
X76471079Y-85764079D01*
X77221991Y-85013167D01*
X96062838Y-85013167D01*
X96204883Y-85356943D01*
X96467673Y-85620192D01*
X96811201Y-85762838D01*
X97183167Y-85763162D01*
X97526943Y-85621117D01*
X97790192Y-85358327D01*
X97932838Y-85014799D01*
X97933162Y-84642833D01*
X97791117Y-84299057D01*
X97528327Y-84035808D01*
X97184799Y-83893162D01*
X96812833Y-83892838D01*
X96469057Y-84034883D01*
X96205808Y-84297673D01*
X96063162Y-84641201D01*
X96062838Y-85013167D01*
X77221991Y-85013167D01*
X77937079Y-84298079D01*
X78107245Y-84043407D01*
X78167000Y-83743000D01*
X78167000Y-82063506D01*
X78174192Y-82056327D01*
X78316838Y-81712799D01*
X78317162Y-81340833D01*
X78175117Y-80997057D01*
X77912327Y-80733808D01*
X77568799Y-80591162D01*
X77517644Y-80591117D01*
X77382408Y-80500756D01*
X77082001Y-80441001D01*
X75454092Y-80441001D01*
X75454162Y-80360833D01*
X75312117Y-80017057D01*
X75049327Y-79753808D01*
X74705799Y-79611162D01*
X74333833Y-79610838D01*
X73990057Y-79752883D01*
X73795880Y-79946722D01*
X72240999Y-78391841D01*
X72240999Y-77909801D01*
X72411600Y-78080402D01*
X72658161Y-78245149D01*
X72706415Y-78254747D01*
X72949001Y-78303001D01*
X75878446Y-78303001D01*
X76011883Y-78625943D01*
X76274673Y-78889192D01*
X76618201Y-79031838D01*
X76990167Y-79032162D01*
X77333943Y-78890117D01*
X77597192Y-78627327D01*
X77739838Y-78283799D01*
X77740162Y-77911833D01*
X77598117Y-77568057D01*
X77335327Y-77304808D01*
X76991799Y-77162162D01*
X76944923Y-77162121D01*
X76788402Y-77005600D01*
X76541840Y-76840853D01*
X76251001Y-76783001D01*
X73263803Y-76783001D01*
X73041122Y-76560320D01*
X73041162Y-76514833D01*
X72899117Y-76171057D01*
X72636327Y-75907808D01*
X72292799Y-75765162D01*
X72240999Y-75765117D01*
X72240999Y-75199000D01*
X83434251Y-75199000D01*
X83363162Y-75370201D01*
X83362838Y-75742167D01*
X83504883Y-76085943D01*
X83767673Y-76349192D01*
X84111201Y-76491838D01*
X84275000Y-76491981D01*
X84275000Y-76827000D01*
X84312294Y-77014486D01*
X84140808Y-77185673D01*
X83998162Y-77529201D01*
X83997838Y-77901167D01*
X84139883Y-78244943D01*
X84402673Y-78508192D01*
X84746201Y-78650838D01*
X85118167Y-78651162D01*
X85461943Y-78509117D01*
X85547025Y-78424183D01*
X86733676Y-79610834D01*
X86988349Y-79781000D01*
X87154035Y-79813958D01*
X87254447Y-79914370D01*
X87061808Y-80106673D01*
X86919162Y-80450201D01*
X86918838Y-80822167D01*
X87060883Y-81165943D01*
X87323673Y-81429192D01*
X87667201Y-81571838D01*
X87782777Y-81571939D01*
X87796745Y-81642162D01*
X87966911Y-81896834D01*
X88913154Y-82843076D01*
X88913156Y-82843079D01*
X89085149Y-82958000D01*
X89167829Y-83013245D01*
X89468235Y-83073001D01*
X89468240Y-83073000D01*
X89856494Y-83073000D01*
X89863673Y-83080192D01*
X90207201Y-83222838D01*
X90579167Y-83223162D01*
X90922943Y-83081117D01*
X91186192Y-82818327D01*
X91328838Y-82474799D01*
X91329002Y-82286000D01*
X92027897Y-82286000D01*
X91999162Y-82355201D01*
X91998838Y-82727167D01*
X92140883Y-83070943D01*
X92403673Y-83334192D01*
X92747201Y-83476838D01*
X93119167Y-83477162D01*
X93462943Y-83335117D01*
X93726192Y-83072327D01*
X93868838Y-82728799D01*
X93869162Y-82356833D01*
X93839894Y-82286000D01*
X99666410Y-82286000D01*
X99957249Y-82228148D01*
X100203811Y-82063401D01*
X100928202Y-81339010D01*
X106072990Y-81339010D01*
X106363829Y-81281158D01*
X106610391Y-81116411D01*
X107568401Y-80158401D01*
X107733148Y-79911839D01*
X107791000Y-79621000D01*
X107791000Y-75779686D01*
X107773101Y-75689701D01*
X107733148Y-75488846D01*
X107568401Y-75242285D01*
X107248715Y-74922599D01*
X107002153Y-74757852D01*
X106778442Y-74713353D01*
X106549670Y-74370971D01*
X106278828Y-74190000D01*
X106549670Y-74009029D01*
X106874526Y-73522848D01*
X106988600Y-72949359D01*
X106988600Y-72890641D01*
X106874526Y-72317152D01*
X106549670Y-71830971D01*
X106278828Y-71650000D01*
X106549670Y-71469029D01*
X106874526Y-70982848D01*
X106988600Y-70409359D01*
X106988600Y-70350641D01*
X106874526Y-69777152D01*
X106549670Y-69290971D01*
X106278839Y-69110008D01*
X106696821Y-68728490D01*
X106944968Y-68199027D01*
X106824469Y-67967000D01*
X105617000Y-67967000D01*
X105617000Y-67987000D01*
X105363000Y-67987000D01*
X105363000Y-67967000D01*
X105343000Y-67967000D01*
X105343000Y-67713000D01*
X105363000Y-67713000D01*
X105363000Y-66506183D01*
X105617000Y-66506183D01*
X105617000Y-67713000D01*
X106824469Y-67713000D01*
X106944968Y-67480973D01*
X106696821Y-66951510D01*
X106264947Y-66557312D01*
X105849026Y-66385042D01*
X105617000Y-66506183D01*
X105363000Y-66506183D01*
X105130974Y-66385042D01*
X104715053Y-66557312D01*
X104283179Y-66951510D01*
X104225664Y-67074228D01*
X104009670Y-66750971D01*
X103523489Y-66426115D01*
X102950000Y-66312041D01*
X102376511Y-66426115D01*
X101890330Y-66750971D01*
X101565474Y-67237152D01*
X101451400Y-67810641D01*
X101451400Y-67869359D01*
X101565474Y-68442848D01*
X101890330Y-68929029D01*
X102161172Y-69110000D01*
X101890330Y-69290971D01*
X101565474Y-69777152D01*
X101451400Y-70350641D01*
X101451400Y-70409359D01*
X101565474Y-70982848D01*
X101890330Y-71469029D01*
X102161172Y-71650000D01*
X101890330Y-71830971D01*
X101670480Y-72160000D01*
X101159000Y-72160000D01*
X100868161Y-72217852D01*
X100621599Y-72382599D01*
X99635599Y-73368599D01*
X99470852Y-73615161D01*
X99413000Y-73906000D01*
X99413000Y-75137367D01*
X99089799Y-75003162D01*
X98717833Y-75002838D01*
X98374057Y-75144883D01*
X98110808Y-75407673D01*
X97968162Y-75751201D01*
X97967838Y-76123167D01*
X98109883Y-76466943D01*
X98372673Y-76730192D01*
X98716201Y-76872838D01*
X99088167Y-76873162D01*
X99413000Y-76738944D01*
X99413000Y-78671198D01*
X98842198Y-79242000D01*
X91408000Y-79242000D01*
X91408000Y-78859000D01*
X91366594Y-78650838D01*
X91350148Y-78568160D01*
X91202115Y-78346613D01*
X91202162Y-78292833D01*
X91060117Y-77949057D01*
X90797327Y-77685808D01*
X90453799Y-77543162D01*
X90392759Y-77543109D01*
X90298117Y-77314057D01*
X90035327Y-77050808D01*
X89771446Y-76941235D01*
X89663117Y-76679057D01*
X89400327Y-76415808D01*
X89056799Y-76273162D01*
X88821882Y-76272957D01*
X88774117Y-76157357D01*
X88511327Y-75894108D01*
X88167799Y-75751462D01*
X87795833Y-75751138D01*
X87598000Y-75832881D01*
X87598000Y-74855802D01*
X88041802Y-74412000D01*
X88138895Y-74412000D01*
X88229910Y-74553441D01*
X88442110Y-74698431D01*
X88694000Y-74749440D01*
X89894000Y-74749440D01*
X90129317Y-74705162D01*
X90345441Y-74566090D01*
X90393134Y-74496289D01*
X90429910Y-74553441D01*
X90642110Y-74698431D01*
X90894000Y-74749440D01*
X92094000Y-74749440D01*
X92329317Y-74705162D01*
X92545441Y-74566090D01*
X92620435Y-74456333D01*
X92954943Y-74318117D01*
X93218192Y-74055327D01*
X93360838Y-73711799D01*
X93361162Y-73339833D01*
X93219117Y-72996057D01*
X92956327Y-72732808D01*
X92837384Y-72683418D01*
X93979401Y-71541401D01*
X94144148Y-71294839D01*
X94202000Y-71004000D01*
X94202000Y-69555933D01*
X94525201Y-69690138D01*
X94897167Y-69690462D01*
X95240943Y-69548417D01*
X95419529Y-69370142D01*
X95301162Y-69655201D01*
X95300838Y-70027167D01*
X95442883Y-70370943D01*
X95705673Y-70634192D01*
X96049201Y-70776838D01*
X96421167Y-70777162D01*
X96764943Y-70635117D01*
X97028192Y-70372327D01*
X97170838Y-70028799D01*
X97171162Y-69656833D01*
X97029117Y-69313057D01*
X96766327Y-69049808D01*
X96422799Y-68907162D01*
X96050833Y-68906838D01*
X95707057Y-69048883D01*
X95528471Y-69227158D01*
X95646838Y-68942099D01*
X95647162Y-68570133D01*
X95505117Y-68226357D01*
X95242327Y-67963108D01*
X94898799Y-67820462D01*
X94710000Y-67820298D01*
X94710000Y-67302000D01*
X94652148Y-67011161D01*
X94487401Y-66764599D01*
X94243400Y-66520598D01*
X93996838Y-66355851D01*
X93705999Y-66297999D01*
X91734801Y-66297999D01*
X91312401Y-65875599D01*
X91065839Y-65710852D01*
X90775000Y-65653000D01*
X90225000Y-65653000D01*
X90225272Y-65341080D01*
X90083227Y-64997304D01*
X89820437Y-64734055D01*
X89476909Y-64591409D01*
X89170039Y-64591142D01*
X89170162Y-64449833D01*
X89028117Y-64106057D01*
X88765327Y-63842808D01*
X88421799Y-63700162D01*
X88303578Y-63700059D01*
X88271839Y-63678852D01*
X87981000Y-63621000D01*
X73376000Y-63621000D01*
X73085160Y-63678852D01*
X73053600Y-63699940D01*
X72936833Y-63699838D01*
X72593057Y-63841883D01*
X72329808Y-64104673D01*
X72187162Y-64448201D01*
X72186838Y-64820167D01*
X72328883Y-65163943D01*
X72591673Y-65427192D01*
X72935201Y-65569838D01*
X73307167Y-65570162D01*
X73329857Y-65560787D01*
X73329838Y-65582167D01*
X73471883Y-65925943D01*
X73734673Y-66189192D01*
X74078201Y-66331838D01*
X74450167Y-66332162D01*
X74793943Y-66190117D01*
X75057192Y-65927327D01*
X75196844Y-65591010D01*
X86972537Y-65591010D01*
X86934808Y-65628673D01*
X86792162Y-65972201D01*
X86791838Y-66344167D01*
X86849669Y-66484130D01*
X86525833Y-66483848D01*
X86182057Y-66625893D01*
X85918808Y-66888683D01*
X85776162Y-67232211D01*
X85775838Y-67604177D01*
X85822655Y-67717484D01*
X85674057Y-67778883D01*
X85410808Y-68041673D01*
X85268162Y-68385201D01*
X85268004Y-68566200D01*
X76259434Y-68566200D01*
X76245262Y-68490883D01*
X76106190Y-68274759D01*
X75962014Y-68176247D01*
X75962162Y-68005833D01*
X75820117Y-67662057D01*
X75557327Y-67398808D01*
X75213799Y-67256162D01*
X74841833Y-67255838D01*
X74498057Y-67397883D01*
X74234808Y-67660673D01*
X74201595Y-67740659D01*
X74169117Y-67662057D01*
X73906327Y-67398808D01*
X73562799Y-67256162D01*
X73190833Y-67255838D01*
X72847057Y-67397883D01*
X72583808Y-67660673D01*
X72441162Y-68004201D01*
X72440990Y-68201989D01*
X72347559Y-68262110D01*
X72202569Y-68474310D01*
X72151560Y-68726200D01*
X72151560Y-69926200D01*
X72195838Y-70161517D01*
X72334910Y-70377641D01*
X72403006Y-70424169D01*
X72260673Y-70566502D01*
X72164000Y-70799891D01*
X72164000Y-71240450D01*
X72322750Y-71399200D01*
X73122000Y-71399200D01*
X73122000Y-71379200D01*
X73376000Y-71379200D01*
X73376000Y-71399200D01*
X74175250Y-71399200D01*
X74220550Y-71353900D01*
X74265850Y-71399200D01*
X75065100Y-71399200D01*
X75065100Y-71379200D01*
X75319100Y-71379200D01*
X75319100Y-71399200D01*
X75339100Y-71399200D01*
X75339100Y-71653200D01*
X75319100Y-71653200D01*
X75319100Y-72602450D01*
X75477850Y-72761200D01*
X75768410Y-72761200D01*
X76001799Y-72664527D01*
X76180427Y-72485898D01*
X76277100Y-72252509D01*
X76277100Y-71811950D01*
X76118352Y-71653202D01*
X76277100Y-71653202D01*
X76277100Y-71538873D01*
X76332549Y-71538921D01*
X76433160Y-71606147D01*
X76723999Y-71663999D01*
X77521001Y-71663999D01*
X77811840Y-71606147D01*
X78058402Y-71441400D01*
X78513582Y-70986220D01*
X87426998Y-70986220D01*
X87426838Y-71170167D01*
X87568883Y-71513943D01*
X87602000Y-71547118D01*
X87602000Y-72870000D01*
X87610967Y-72915081D01*
X87436161Y-72949852D01*
X87189599Y-73114599D01*
X86300599Y-74003599D01*
X86135852Y-74250161D01*
X86078000Y-74541000D01*
X86078000Y-76645537D01*
X86045808Y-76677673D01*
X86038480Y-76695322D01*
X85845000Y-76501842D01*
X85845000Y-75049005D01*
X85845001Y-75049000D01*
X85785245Y-74748594D01*
X85615079Y-74493921D01*
X84980079Y-73858921D01*
X84725407Y-73688755D01*
X84425000Y-73629000D01*
X71471005Y-73629000D01*
X71471000Y-73628999D01*
X71470995Y-73629000D01*
X61890158Y-73629000D01*
X59685325Y-71424167D01*
X69011838Y-71424167D01*
X69153883Y-71767943D01*
X69416673Y-72031192D01*
X69760201Y-72173838D01*
X70132167Y-72174162D01*
X70475943Y-72032117D01*
X70696494Y-71811950D01*
X72164000Y-71811950D01*
X72164000Y-72252509D01*
X72260673Y-72485898D01*
X72439301Y-72664527D01*
X72672690Y-72761200D01*
X72963250Y-72761200D01*
X73122000Y-72602450D01*
X73122000Y-71653200D01*
X73376000Y-71653200D01*
X73376000Y-72602450D01*
X73534750Y-72761200D01*
X73825310Y-72761200D01*
X74058699Y-72664527D01*
X74220550Y-72502675D01*
X74382401Y-72664527D01*
X74615790Y-72761200D01*
X74906350Y-72761200D01*
X75065100Y-72602450D01*
X75065100Y-71653200D01*
X74265850Y-71653200D01*
X74220550Y-71698500D01*
X74175250Y-71653200D01*
X73376000Y-71653200D01*
X73122000Y-71653200D01*
X72322750Y-71653200D01*
X72164000Y-71811950D01*
X70696494Y-71811950D01*
X70739192Y-71769327D01*
X70881838Y-71425799D01*
X70882162Y-71053833D01*
X70740117Y-70710057D01*
X70477327Y-70446808D01*
X70133799Y-70304162D01*
X69761833Y-70303838D01*
X69418057Y-70445883D01*
X69154808Y-70708673D01*
X69012162Y-71052201D01*
X69011838Y-71424167D01*
X59685325Y-71424167D01*
X59661080Y-71399922D01*
X59406408Y-71229756D01*
X59106001Y-71170001D01*
X57905000Y-71170001D01*
X57905000Y-65214158D01*
X60643158Y-62476000D01*
X61857360Y-62476000D01*
X61857360Y-64508000D01*
X61901638Y-64743317D01*
X62040710Y-64959441D01*
X62252910Y-65104431D01*
X62504800Y-65155440D01*
X64536800Y-65155440D01*
X64772117Y-65111162D01*
X64988241Y-64972090D01*
X65095033Y-64815794D01*
X65396645Y-65017325D01*
X66028455Y-65143000D01*
X66093145Y-65143000D01*
X66724955Y-65017325D01*
X67260578Y-64659433D01*
X67618470Y-64123810D01*
X67744145Y-63492000D01*
X67618470Y-62860190D01*
X67260578Y-62324567D01*
X66724955Y-61966675D01*
X66093145Y-61841000D01*
X66028455Y-61841000D01*
X65396645Y-61966675D01*
X65093838Y-62169004D01*
X65000890Y-62024559D01*
X64788690Y-61879569D01*
X64536800Y-61828560D01*
X62504800Y-61828560D01*
X62269483Y-61872838D01*
X62053359Y-62011910D01*
X61908369Y-62224110D01*
X61857360Y-62476000D01*
X60643158Y-62476000D01*
X62286159Y-60832999D01*
X71740001Y-60832999D01*
X72040408Y-60773244D01*
X72295080Y-60603078D01*
X72776990Y-60121167D01*
X79552838Y-60121167D01*
X79694883Y-60464943D01*
X79957673Y-60728192D01*
X80301201Y-60870838D01*
X80673167Y-60871162D01*
X81016943Y-60729117D01*
X81280192Y-60466327D01*
X81422838Y-60122799D01*
X81423162Y-59750833D01*
X81281117Y-59407057D01*
X81018327Y-59143808D01*
X80674799Y-59001162D01*
X80302833Y-59000838D01*
X79959057Y-59142883D01*
X79695808Y-59405673D01*
X79553162Y-59749201D01*
X79552838Y-60121167D01*
X72776990Y-60121167D01*
X74209157Y-58689000D01*
X81305842Y-58689000D01*
X81735000Y-59118158D01*
X81735000Y-61938494D01*
X81727808Y-61945673D01*
X81585162Y-62289201D01*
X81584838Y-62661167D01*
X81726883Y-63004943D01*
X81989673Y-63268192D01*
X82333201Y-63410838D01*
X82705167Y-63411162D01*
X83048943Y-63269117D01*
X83312192Y-63006327D01*
X83454838Y-62662799D01*
X83455162Y-62290833D01*
X83313117Y-61947057D01*
X83305000Y-61938926D01*
X83305000Y-61645167D01*
X88950838Y-61645167D01*
X89092883Y-61988943D01*
X89355673Y-62252192D01*
X89699201Y-62394838D01*
X90071167Y-62395162D01*
X90414943Y-62253117D01*
X90678192Y-61990327D01*
X90820838Y-61646799D01*
X90821162Y-61274833D01*
X90679117Y-60931057D01*
X90416327Y-60667808D01*
X90072799Y-60525162D01*
X89700833Y-60524838D01*
X89357057Y-60666883D01*
X89093808Y-60929673D01*
X88951162Y-61273201D01*
X88950838Y-61645167D01*
X83305000Y-61645167D01*
X83305000Y-58793000D01*
X83245245Y-58492594D01*
X83075079Y-58237921D01*
X82186079Y-57348921D01*
X81931407Y-57178755D01*
X81631000Y-57119000D01*
X73884000Y-57119000D01*
X73583594Y-57178755D01*
X73328921Y-57348921D01*
X73328919Y-57348924D01*
X71414843Y-59262999D01*
X61961001Y-59262999D01*
X61660594Y-59322754D01*
X61405922Y-59492920D01*
X56564921Y-64333921D01*
X56394755Y-64588593D01*
X56394195Y-64591409D01*
X56335000Y-64889000D01*
X56335000Y-71170001D01*
X54879999Y-71170001D01*
X54579593Y-71229756D01*
X54444710Y-71319881D01*
X54394833Y-71319838D01*
X54051057Y-71461883D01*
X53787808Y-71724673D01*
X53645162Y-72068201D01*
X53644959Y-72300970D01*
X53475399Y-72230562D01*
X53103433Y-72230238D01*
X52759657Y-72372283D01*
X52496408Y-72635073D01*
X52353762Y-72978601D01*
X52353438Y-73350567D01*
X52445998Y-73574579D01*
X52390808Y-73629673D01*
X52248162Y-73973201D01*
X52247838Y-74345167D01*
X48457000Y-74345167D01*
X48457000Y-65690167D01*
X52120838Y-65690167D01*
X52262883Y-66033943D01*
X52525673Y-66297192D01*
X52869201Y-66439838D01*
X53241167Y-66440162D01*
X53584943Y-66298117D01*
X53848192Y-66035327D01*
X53990838Y-65691799D01*
X53991162Y-65319833D01*
X53849117Y-64976057D01*
X53586327Y-64712808D01*
X53242799Y-64570162D01*
X52870833Y-64569838D01*
X52527057Y-64711883D01*
X52263808Y-64974673D01*
X52121162Y-65318201D01*
X52120838Y-65690167D01*
X48457000Y-65690167D01*
X48457000Y-61400805D01*
X48824811Y-61769259D01*
X50233825Y-62354333D01*
X51759482Y-62355664D01*
X53169515Y-61773050D01*
X54249259Y-60695189D01*
X54834333Y-59286175D01*
X54835664Y-57760518D01*
X54253050Y-56350485D01*
X53875225Y-55972000D01*
X105274203Y-55972000D01*
X104900741Y-56344811D01*
X104900741Y-56344811D01*
G37*
X104900741Y-56344811D02*
X104315667Y-57753825D01*
X104314336Y-59279482D01*
X104896950Y-60689515D01*
X105974811Y-61769259D01*
X107383825Y-62354333D01*
X108909482Y-62355664D01*
X110319515Y-61773050D01*
X110868000Y-61225522D01*
X110868000Y-86294500D01*
X110325189Y-85750741D01*
X108916175Y-85165667D01*
X107390518Y-85164336D01*
X105980485Y-85746950D01*
X104900741Y-86824811D01*
X104315667Y-88233825D01*
X104314336Y-89759482D01*
X104896950Y-91169515D01*
X105312709Y-91586000D01*
X53837730Y-91586000D01*
X54249259Y-91175189D01*
X54834333Y-89766175D01*
X54834442Y-89641167D01*
X87934838Y-89641167D01*
X88076883Y-89984943D01*
X88339673Y-90248192D01*
X88683201Y-90390838D01*
X89055167Y-90391162D01*
X89398943Y-90249117D01*
X89662192Y-89986327D01*
X89804838Y-89642799D01*
X89805162Y-89270833D01*
X89663117Y-88927057D01*
X89400327Y-88663808D01*
X89056799Y-88521162D01*
X88684833Y-88520838D01*
X88341057Y-88662883D01*
X88077808Y-88925673D01*
X87935162Y-89269201D01*
X87934838Y-89641167D01*
X54834442Y-89641167D01*
X54835664Y-88240518D01*
X54253050Y-86830485D01*
X53175189Y-85750741D01*
X51766175Y-85165667D01*
X50240518Y-85164336D01*
X48830485Y-85746950D01*
X48457000Y-86119784D01*
X48457000Y-85082000D01*
X58865655Y-85082000D01*
X58979729Y-85655489D01*
X59304585Y-86141670D01*
X59619366Y-86352000D01*
X59304585Y-86562330D01*
X58979729Y-87048511D01*
X58865655Y-87622000D01*
X58979729Y-88195489D01*
X59304585Y-88681670D01*
X59790766Y-89006526D01*
X60364255Y-89120600D01*
X60733745Y-89120600D01*
X61307234Y-89006526D01*
X61793415Y-88681670D01*
X62118271Y-88195489D01*
X62232345Y-87622000D01*
X62118271Y-87048511D01*
X61793415Y-86562330D01*
X61478634Y-86352000D01*
X61793415Y-86141670D01*
X62118271Y-85655489D01*
X62232345Y-85082000D01*
X62118271Y-84508511D01*
X61946320Y-84251167D01*
X64185838Y-84251167D01*
X64327883Y-84594943D01*
X64590673Y-84858192D01*
X64934201Y-85000838D01*
X65306167Y-85001162D01*
X65649943Y-84859117D01*
X65913192Y-84596327D01*
X66055838Y-84252799D01*
X66056162Y-83880833D01*
X65914117Y-83537057D01*
X65651327Y-83273808D01*
X65307799Y-83131162D01*
X64935833Y-83130838D01*
X64592057Y-83272883D01*
X64328808Y-83535673D01*
X64186162Y-83879201D01*
X64185838Y-84251167D01*
X61946320Y-84251167D01*
X61793415Y-84022330D01*
X61779087Y-84012757D01*
X61800317Y-84008762D01*
X62016441Y-83869690D01*
X62161431Y-83657490D01*
X62212440Y-83405600D01*
X62212440Y-81678400D01*
X62168162Y-81443083D01*
X62029090Y-81226959D01*
X61816890Y-81081969D01*
X61565000Y-81030960D01*
X59533000Y-81030960D01*
X59297683Y-81075238D01*
X59081559Y-81214310D01*
X58936569Y-81426510D01*
X58885560Y-81678400D01*
X58885560Y-83405600D01*
X58929838Y-83640917D01*
X59068910Y-83857041D01*
X59281110Y-84002031D01*
X59322439Y-84010400D01*
X59304585Y-84022330D01*
X58979729Y-84508511D01*
X58865655Y-85082000D01*
X48457000Y-85082000D01*
X48457000Y-74345167D01*
X52247838Y-74345167D01*
X52389883Y-74688943D01*
X52652673Y-74952192D01*
X52875068Y-75044539D01*
X52781057Y-75083383D01*
X52517808Y-75346173D01*
X52375162Y-75689701D01*
X52374838Y-76061667D01*
X52516883Y-76405443D01*
X52779673Y-76668692D01*
X53123201Y-76811338D01*
X53495167Y-76811662D01*
X53838943Y-76669617D01*
X54102192Y-76406827D01*
X54244838Y-76063299D01*
X54245162Y-75691333D01*
X54103117Y-75347557D01*
X53840327Y-75084308D01*
X53617932Y-74991961D01*
X53711943Y-74953117D01*
X53745118Y-74920000D01*
X54927853Y-74920000D01*
X54690957Y-75017883D01*
X54427708Y-75280673D01*
X54285062Y-75624201D01*
X54284738Y-75996167D01*
X54426783Y-76339943D01*
X54689573Y-76603192D01*
X55033101Y-76745838D01*
X55405067Y-76746162D01*
X55748843Y-76604117D01*
X56012092Y-76341327D01*
X56154738Y-75997799D01*
X56155062Y-75625833D01*
X56013017Y-75282057D01*
X55750227Y-75018808D01*
X55512272Y-74920000D01*
X58095403Y-74920000D01*
X58104883Y-74942943D01*
X58367673Y-75206192D01*
X58711201Y-75348838D01*
X59083167Y-75349162D01*
X59143118Y-75324391D01*
X59247883Y-75577943D01*
X59510673Y-75841192D01*
X59854201Y-75983838D01*
X60226167Y-75984162D01*
X60569943Y-75842117D01*
X60833192Y-75579327D01*
X60975838Y-75235799D01*
X60976100Y-74935258D01*
X61009921Y-74969079D01*
X61264594Y-75139245D01*
X61565000Y-75199000D01*
X69408057Y-75199000D01*
X69534883Y-75505943D01*
X69797673Y-75769192D01*
X70141201Y-75911838D01*
X70513167Y-75912162D01*
X70670999Y-75846947D01*
X70670999Y-78716999D01*
X70730754Y-79017406D01*
X70900920Y-79272078D01*
X72876195Y-81247353D01*
X72837808Y-81285673D01*
X72695162Y-81629201D01*
X72694838Y-82001167D01*
X72836883Y-82344943D01*
X73099673Y-82608192D01*
X73443201Y-82750838D01*
X73815167Y-82751162D01*
X74158943Y-82609117D01*
X74422192Y-82346327D01*
X74561432Y-82011001D01*
X76570727Y-82011001D01*
X76588883Y-82054943D01*
X76597000Y-82063074D01*
X76597000Y-83417842D01*
X75623353Y-84391489D01*
X75340799Y-84274162D01*
X74968833Y-84273838D01*
X74625057Y-84415883D01*
X74361808Y-84678673D01*
X74219162Y-85022201D01*
X74218838Y-85394167D01*
X74360883Y-85737943D01*
X74623673Y-86001192D01*
X74967201Y-86143838D01*
X75339167Y-86144162D01*
X75682943Y-86002117D01*
X75691074Y-85994000D01*
X75916000Y-85994000D01*
X76216407Y-85934245D01*
X76471079Y-85764079D01*
X77221991Y-85013167D01*
X96062838Y-85013167D01*
X96204883Y-85356943D01*
X96467673Y-85620192D01*
X96811201Y-85762838D01*
X97183167Y-85763162D01*
X97526943Y-85621117D01*
X97790192Y-85358327D01*
X97932838Y-85014799D01*
X97933162Y-84642833D01*
X97791117Y-84299057D01*
X97528327Y-84035808D01*
X97184799Y-83893162D01*
X96812833Y-83892838D01*
X96469057Y-84034883D01*
X96205808Y-84297673D01*
X96063162Y-84641201D01*
X96062838Y-85013167D01*
X77221991Y-85013167D01*
X77937079Y-84298079D01*
X78107245Y-84043407D01*
X78167000Y-83743000D01*
X78167000Y-82063506D01*
X78174192Y-82056327D01*
X78316838Y-81712799D01*
X78317162Y-81340833D01*
X78175117Y-80997057D01*
X77912327Y-80733808D01*
X77568799Y-80591162D01*
X77517644Y-80591117D01*
X77382408Y-80500756D01*
X77082001Y-80441001D01*
X75454092Y-80441001D01*
X75454162Y-80360833D01*
X75312117Y-80017057D01*
X75049327Y-79753808D01*
X74705799Y-79611162D01*
X74333833Y-79610838D01*
X73990057Y-79752883D01*
X73795880Y-79946722D01*
X72240999Y-78391841D01*
X72240999Y-77909801D01*
X72411600Y-78080402D01*
X72658161Y-78245149D01*
X72706415Y-78254747D01*
X72949001Y-78303001D01*
X75878446Y-78303001D01*
X76011883Y-78625943D01*
X76274673Y-78889192D01*
X76618201Y-79031838D01*
X76990167Y-79032162D01*
X77333943Y-78890117D01*
X77597192Y-78627327D01*
X77739838Y-78283799D01*
X77740162Y-77911833D01*
X77598117Y-77568057D01*
X77335327Y-77304808D01*
X76991799Y-77162162D01*
X76944923Y-77162121D01*
X76788402Y-77005600D01*
X76541840Y-76840853D01*
X76251001Y-76783001D01*
X73263803Y-76783001D01*
X73041122Y-76560320D01*
X73041162Y-76514833D01*
X72899117Y-76171057D01*
X72636327Y-75907808D01*
X72292799Y-75765162D01*
X72240999Y-75765117D01*
X72240999Y-75199000D01*
X83434251Y-75199000D01*
X83363162Y-75370201D01*
X83362838Y-75742167D01*
X83504883Y-76085943D01*
X83767673Y-76349192D01*
X84111201Y-76491838D01*
X84275000Y-76491981D01*
X84275000Y-76827000D01*
X84312294Y-77014486D01*
X84140808Y-77185673D01*
X83998162Y-77529201D01*
X83997838Y-77901167D01*
X84139883Y-78244943D01*
X84402673Y-78508192D01*
X84746201Y-78650838D01*
X85118167Y-78651162D01*
X85461943Y-78509117D01*
X85547025Y-78424183D01*
X86733676Y-79610834D01*
X86988349Y-79781000D01*
X87154035Y-79813958D01*
X87254447Y-79914370D01*
X87061808Y-80106673D01*
X86919162Y-80450201D01*
X86918838Y-80822167D01*
X87060883Y-81165943D01*
X87323673Y-81429192D01*
X87667201Y-81571838D01*
X87782777Y-81571939D01*
X87796745Y-81642162D01*
X87966911Y-81896834D01*
X88913154Y-82843076D01*
X88913156Y-82843079D01*
X89085149Y-82958000D01*
X89167829Y-83013245D01*
X89468235Y-83073001D01*
X89468240Y-83073000D01*
X89856494Y-83073000D01*
X89863673Y-83080192D01*
X90207201Y-83222838D01*
X90579167Y-83223162D01*
X90922943Y-83081117D01*
X91186192Y-82818327D01*
X91328838Y-82474799D01*
X91329002Y-82286000D01*
X92027897Y-82286000D01*
X91999162Y-82355201D01*
X91998838Y-82727167D01*
X92140883Y-83070943D01*
X92403673Y-83334192D01*
X92747201Y-83476838D01*
X93119167Y-83477162D01*
X93462943Y-83335117D01*
X93726192Y-83072327D01*
X93868838Y-82728799D01*
X93869162Y-82356833D01*
X93839894Y-82286000D01*
X99666410Y-82286000D01*
X99957249Y-82228148D01*
X100203811Y-82063401D01*
X100928202Y-81339010D01*
X106072990Y-81339010D01*
X106363829Y-81281158D01*
X106610391Y-81116411D01*
X107568401Y-80158401D01*
X107733148Y-79911839D01*
X107791000Y-79621000D01*
X107791000Y-75779686D01*
X107773101Y-75689701D01*
X107733148Y-75488846D01*
X107568401Y-75242285D01*
X107248715Y-74922599D01*
X107002153Y-74757852D01*
X106778442Y-74713353D01*
X106549670Y-74370971D01*
X106278828Y-74190000D01*
X106549670Y-74009029D01*
X106874526Y-73522848D01*
X106988600Y-72949359D01*
X106988600Y-72890641D01*
X106874526Y-72317152D01*
X106549670Y-71830971D01*
X106278828Y-71650000D01*
X106549670Y-71469029D01*
X106874526Y-70982848D01*
X106988600Y-70409359D01*
X106988600Y-70350641D01*
X106874526Y-69777152D01*
X106549670Y-69290971D01*
X106278839Y-69110008D01*
X106696821Y-68728490D01*
X106944968Y-68199027D01*
X106824469Y-67967000D01*
X105617000Y-67967000D01*
X105617000Y-67987000D01*
X105363000Y-67987000D01*
X105363000Y-67967000D01*
X105343000Y-67967000D01*
X105343000Y-67713000D01*
X105363000Y-67713000D01*
X105363000Y-66506183D01*
X105617000Y-66506183D01*
X105617000Y-67713000D01*
X106824469Y-67713000D01*
X106944968Y-67480973D01*
X106696821Y-66951510D01*
X106264947Y-66557312D01*
X105849026Y-66385042D01*
X105617000Y-66506183D01*
X105363000Y-66506183D01*
X105130974Y-66385042D01*
X104715053Y-66557312D01*
X104283179Y-66951510D01*
X104225664Y-67074228D01*
X104009670Y-66750971D01*
X103523489Y-66426115D01*
X102950000Y-66312041D01*
X102376511Y-66426115D01*
X101890330Y-66750971D01*
X101565474Y-67237152D01*
X101451400Y-67810641D01*
X101451400Y-67869359D01*
X101565474Y-68442848D01*
X101890330Y-68929029D01*
X102161172Y-69110000D01*
X101890330Y-69290971D01*
X101565474Y-69777152D01*
X101451400Y-70350641D01*
X101451400Y-70409359D01*
X101565474Y-70982848D01*
X101890330Y-71469029D01*
X102161172Y-71650000D01*
X101890330Y-71830971D01*
X101670480Y-72160000D01*
X101159000Y-72160000D01*
X100868161Y-72217852D01*
X100621599Y-72382599D01*
X99635599Y-73368599D01*
X99470852Y-73615161D01*
X99413000Y-73906000D01*
X99413000Y-75137367D01*
X99089799Y-75003162D01*
X98717833Y-75002838D01*
X98374057Y-75144883D01*
X98110808Y-75407673D01*
X97968162Y-75751201D01*
X97967838Y-76123167D01*
X98109883Y-76466943D01*
X98372673Y-76730192D01*
X98716201Y-76872838D01*
X99088167Y-76873162D01*
X99413000Y-76738944D01*
X99413000Y-78671198D01*
X98842198Y-79242000D01*
X91408000Y-79242000D01*
X91408000Y-78859000D01*
X91366594Y-78650838D01*
X91350148Y-78568160D01*
X91202115Y-78346613D01*
X91202162Y-78292833D01*
X91060117Y-77949057D01*
X90797327Y-77685808D01*
X90453799Y-77543162D01*
X90392759Y-77543109D01*
X90298117Y-77314057D01*
X90035327Y-77050808D01*
X89771446Y-76941235D01*
X89663117Y-76679057D01*
X89400327Y-76415808D01*
X89056799Y-76273162D01*
X88821882Y-76272957D01*
X88774117Y-76157357D01*
X88511327Y-75894108D01*
X88167799Y-75751462D01*
X87795833Y-75751138D01*
X87598000Y-75832881D01*
X87598000Y-74855802D01*
X88041802Y-74412000D01*
X88138895Y-74412000D01*
X88229910Y-74553441D01*
X88442110Y-74698431D01*
X88694000Y-74749440D01*
X89894000Y-74749440D01*
X90129317Y-74705162D01*
X90345441Y-74566090D01*
X90393134Y-74496289D01*
X90429910Y-74553441D01*
X90642110Y-74698431D01*
X90894000Y-74749440D01*
X92094000Y-74749440D01*
X92329317Y-74705162D01*
X92545441Y-74566090D01*
X92620435Y-74456333D01*
X92954943Y-74318117D01*
X93218192Y-74055327D01*
X93360838Y-73711799D01*
X93361162Y-73339833D01*
X93219117Y-72996057D01*
X92956327Y-72732808D01*
X92837384Y-72683418D01*
X93979401Y-71541401D01*
X94144148Y-71294839D01*
X94202000Y-71004000D01*
X94202000Y-69555933D01*
X94525201Y-69690138D01*
X94897167Y-69690462D01*
X95240943Y-69548417D01*
X95419529Y-69370142D01*
X95301162Y-69655201D01*
X95300838Y-70027167D01*
X95442883Y-70370943D01*
X95705673Y-70634192D01*
X96049201Y-70776838D01*
X96421167Y-70777162D01*
X96764943Y-70635117D01*
X97028192Y-70372327D01*
X97170838Y-70028799D01*
X97171162Y-69656833D01*
X97029117Y-69313057D01*
X96766327Y-69049808D01*
X96422799Y-68907162D01*
X96050833Y-68906838D01*
X95707057Y-69048883D01*
X95528471Y-69227158D01*
X95646838Y-68942099D01*
X95647162Y-68570133D01*
X95505117Y-68226357D01*
X95242327Y-67963108D01*
X94898799Y-67820462D01*
X94710000Y-67820298D01*
X94710000Y-67302000D01*
X94652148Y-67011161D01*
X94487401Y-66764599D01*
X94243400Y-66520598D01*
X93996838Y-66355851D01*
X93705999Y-66297999D01*
X91734801Y-66297999D01*
X91312401Y-65875599D01*
X91065839Y-65710852D01*
X90775000Y-65653000D01*
X90225000Y-65653000D01*
X90225272Y-65341080D01*
X90083227Y-64997304D01*
X89820437Y-64734055D01*
X89476909Y-64591409D01*
X89170039Y-64591142D01*
X89170162Y-64449833D01*
X89028117Y-64106057D01*
X88765327Y-63842808D01*
X88421799Y-63700162D01*
X88303578Y-63700059D01*
X88271839Y-63678852D01*
X87981000Y-63621000D01*
X73376000Y-63621000D01*
X73085160Y-63678852D01*
X73053600Y-63699940D01*
X72936833Y-63699838D01*
X72593057Y-63841883D01*
X72329808Y-64104673D01*
X72187162Y-64448201D01*
X72186838Y-64820167D01*
X72328883Y-65163943D01*
X72591673Y-65427192D01*
X72935201Y-65569838D01*
X73307167Y-65570162D01*
X73329857Y-65560787D01*
X73329838Y-65582167D01*
X73471883Y-65925943D01*
X73734673Y-66189192D01*
X74078201Y-66331838D01*
X74450167Y-66332162D01*
X74793943Y-66190117D01*
X75057192Y-65927327D01*
X75196844Y-65591010D01*
X86972537Y-65591010D01*
X86934808Y-65628673D01*
X86792162Y-65972201D01*
X86791838Y-66344167D01*
X86849669Y-66484130D01*
X86525833Y-66483848D01*
X86182057Y-66625893D01*
X85918808Y-66888683D01*
X85776162Y-67232211D01*
X85775838Y-67604177D01*
X85822655Y-67717484D01*
X85674057Y-67778883D01*
X85410808Y-68041673D01*
X85268162Y-68385201D01*
X85268004Y-68566200D01*
X76259434Y-68566200D01*
X76245262Y-68490883D01*
X76106190Y-68274759D01*
X75962014Y-68176247D01*
X75962162Y-68005833D01*
X75820117Y-67662057D01*
X75557327Y-67398808D01*
X75213799Y-67256162D01*
X74841833Y-67255838D01*
X74498057Y-67397883D01*
X74234808Y-67660673D01*
X74201595Y-67740659D01*
X74169117Y-67662057D01*
X73906327Y-67398808D01*
X73562799Y-67256162D01*
X73190833Y-67255838D01*
X72847057Y-67397883D01*
X72583808Y-67660673D01*
X72441162Y-68004201D01*
X72440990Y-68201989D01*
X72347559Y-68262110D01*
X72202569Y-68474310D01*
X72151560Y-68726200D01*
X72151560Y-69926200D01*
X72195838Y-70161517D01*
X72334910Y-70377641D01*
X72403006Y-70424169D01*
X72260673Y-70566502D01*
X72164000Y-70799891D01*
X72164000Y-71240450D01*
X72322750Y-71399200D01*
X73122000Y-71399200D01*
X73122000Y-71379200D01*
X73376000Y-71379200D01*
X73376000Y-71399200D01*
X74175250Y-71399200D01*
X74220550Y-71353900D01*
X74265850Y-71399200D01*
X75065100Y-71399200D01*
X75065100Y-71379200D01*
X75319100Y-71379200D01*
X75319100Y-71399200D01*
X75339100Y-71399200D01*
X75339100Y-71653200D01*
X75319100Y-71653200D01*
X75319100Y-72602450D01*
X75477850Y-72761200D01*
X75768410Y-72761200D01*
X76001799Y-72664527D01*
X76180427Y-72485898D01*
X76277100Y-72252509D01*
X76277100Y-71811950D01*
X76118352Y-71653202D01*
X76277100Y-71653202D01*
X76277100Y-71538873D01*
X76332549Y-71538921D01*
X76433160Y-71606147D01*
X76723999Y-71663999D01*
X77521001Y-71663999D01*
X77811840Y-71606147D01*
X78058402Y-71441400D01*
X78513582Y-70986220D01*
X87426998Y-70986220D01*
X87426838Y-71170167D01*
X87568883Y-71513943D01*
X87602000Y-71547118D01*
X87602000Y-72870000D01*
X87610967Y-72915081D01*
X87436161Y-72949852D01*
X87189599Y-73114599D01*
X86300599Y-74003599D01*
X86135852Y-74250161D01*
X86078000Y-74541000D01*
X86078000Y-76645537D01*
X86045808Y-76677673D01*
X86038480Y-76695322D01*
X85845000Y-76501842D01*
X85845000Y-75049005D01*
X85845001Y-75049000D01*
X85785245Y-74748594D01*
X85615079Y-74493921D01*
X84980079Y-73858921D01*
X84725407Y-73688755D01*
X84425000Y-73629000D01*
X71471005Y-73629000D01*
X71471000Y-73628999D01*
X71470995Y-73629000D01*
X61890158Y-73629000D01*
X59685325Y-71424167D01*
X69011838Y-71424167D01*
X69153883Y-71767943D01*
X69416673Y-72031192D01*
X69760201Y-72173838D01*
X70132167Y-72174162D01*
X70475943Y-72032117D01*
X70696494Y-71811950D01*
X72164000Y-71811950D01*
X72164000Y-72252509D01*
X72260673Y-72485898D01*
X72439301Y-72664527D01*
X72672690Y-72761200D01*
X72963250Y-72761200D01*
X73122000Y-72602450D01*
X73122000Y-71653200D01*
X73376000Y-71653200D01*
X73376000Y-72602450D01*
X73534750Y-72761200D01*
X73825310Y-72761200D01*
X74058699Y-72664527D01*
X74220550Y-72502675D01*
X74382401Y-72664527D01*
X74615790Y-72761200D01*
X74906350Y-72761200D01*
X75065100Y-72602450D01*
X75065100Y-71653200D01*
X74265850Y-71653200D01*
X74220550Y-71698500D01*
X74175250Y-71653200D01*
X73376000Y-71653200D01*
X73122000Y-71653200D01*
X72322750Y-71653200D01*
X72164000Y-71811950D01*
X70696494Y-71811950D01*
X70739192Y-71769327D01*
X70881838Y-71425799D01*
X70882162Y-71053833D01*
X70740117Y-70710057D01*
X70477327Y-70446808D01*
X70133799Y-70304162D01*
X69761833Y-70303838D01*
X69418057Y-70445883D01*
X69154808Y-70708673D01*
X69012162Y-71052201D01*
X69011838Y-71424167D01*
X59685325Y-71424167D01*
X59661080Y-71399922D01*
X59406408Y-71229756D01*
X59106001Y-71170001D01*
X57905000Y-71170001D01*
X57905000Y-65214158D01*
X60643158Y-62476000D01*
X61857360Y-62476000D01*
X61857360Y-64508000D01*
X61901638Y-64743317D01*
X62040710Y-64959441D01*
X62252910Y-65104431D01*
X62504800Y-65155440D01*
X64536800Y-65155440D01*
X64772117Y-65111162D01*
X64988241Y-64972090D01*
X65095033Y-64815794D01*
X65396645Y-65017325D01*
X66028455Y-65143000D01*
X66093145Y-65143000D01*
X66724955Y-65017325D01*
X67260578Y-64659433D01*
X67618470Y-64123810D01*
X67744145Y-63492000D01*
X67618470Y-62860190D01*
X67260578Y-62324567D01*
X66724955Y-61966675D01*
X66093145Y-61841000D01*
X66028455Y-61841000D01*
X65396645Y-61966675D01*
X65093838Y-62169004D01*
X65000890Y-62024559D01*
X64788690Y-61879569D01*
X64536800Y-61828560D01*
X62504800Y-61828560D01*
X62269483Y-61872838D01*
X62053359Y-62011910D01*
X61908369Y-62224110D01*
X61857360Y-62476000D01*
X60643158Y-62476000D01*
X62286159Y-60832999D01*
X71740001Y-60832999D01*
X72040408Y-60773244D01*
X72295080Y-60603078D01*
X72776990Y-60121167D01*
X79552838Y-60121167D01*
X79694883Y-60464943D01*
X79957673Y-60728192D01*
X80301201Y-60870838D01*
X80673167Y-60871162D01*
X81016943Y-60729117D01*
X81280192Y-60466327D01*
X81422838Y-60122799D01*
X81423162Y-59750833D01*
X81281117Y-59407057D01*
X81018327Y-59143808D01*
X80674799Y-59001162D01*
X80302833Y-59000838D01*
X79959057Y-59142883D01*
X79695808Y-59405673D01*
X79553162Y-59749201D01*
X79552838Y-60121167D01*
X72776990Y-60121167D01*
X74209157Y-58689000D01*
X81305842Y-58689000D01*
X81735000Y-59118158D01*
X81735000Y-61938494D01*
X81727808Y-61945673D01*
X81585162Y-62289201D01*
X81584838Y-62661167D01*
X81726883Y-63004943D01*
X81989673Y-63268192D01*
X82333201Y-63410838D01*
X82705167Y-63411162D01*
X83048943Y-63269117D01*
X83312192Y-63006327D01*
X83454838Y-62662799D01*
X83455162Y-62290833D01*
X83313117Y-61947057D01*
X83305000Y-61938926D01*
X83305000Y-61645167D01*
X88950838Y-61645167D01*
X89092883Y-61988943D01*
X89355673Y-62252192D01*
X89699201Y-62394838D01*
X90071167Y-62395162D01*
X90414943Y-62253117D01*
X90678192Y-61990327D01*
X90820838Y-61646799D01*
X90821162Y-61274833D01*
X90679117Y-60931057D01*
X90416327Y-60667808D01*
X90072799Y-60525162D01*
X89700833Y-60524838D01*
X89357057Y-60666883D01*
X89093808Y-60929673D01*
X88951162Y-61273201D01*
X88950838Y-61645167D01*
X83305000Y-61645167D01*
X83305000Y-58793000D01*
X83245245Y-58492594D01*
X83075079Y-58237921D01*
X82186079Y-57348921D01*
X81931407Y-57178755D01*
X81631000Y-57119000D01*
X73884000Y-57119000D01*
X73583594Y-57178755D01*
X73328921Y-57348921D01*
X73328919Y-57348924D01*
X71414843Y-59262999D01*
X61961001Y-59262999D01*
X61660594Y-59322754D01*
X61405922Y-59492920D01*
X56564921Y-64333921D01*
X56394755Y-64588593D01*
X56394195Y-64591409D01*
X56335000Y-64889000D01*
X56335000Y-71170001D01*
X54879999Y-71170001D01*
X54579593Y-71229756D01*
X54444710Y-71319881D01*
X54394833Y-71319838D01*
X54051057Y-71461883D01*
X53787808Y-71724673D01*
X53645162Y-72068201D01*
X53644959Y-72300970D01*
X53475399Y-72230562D01*
X53103433Y-72230238D01*
X52759657Y-72372283D01*
X52496408Y-72635073D01*
X52353762Y-72978601D01*
X52353438Y-73350567D01*
X52445998Y-73574579D01*
X52390808Y-73629673D01*
X52248162Y-73973201D01*
X52247838Y-74345167D01*
X48457000Y-74345167D01*
X48457000Y-65690167D01*
X52120838Y-65690167D01*
X52262883Y-66033943D01*
X52525673Y-66297192D01*
X52869201Y-66439838D01*
X53241167Y-66440162D01*
X53584943Y-66298117D01*
X53848192Y-66035327D01*
X53990838Y-65691799D01*
X53991162Y-65319833D01*
X53849117Y-64976057D01*
X53586327Y-64712808D01*
X53242799Y-64570162D01*
X52870833Y-64569838D01*
X52527057Y-64711883D01*
X52263808Y-64974673D01*
X52121162Y-65318201D01*
X52120838Y-65690167D01*
X48457000Y-65690167D01*
X48457000Y-61400805D01*
X48824811Y-61769259D01*
X50233825Y-62354333D01*
X51759482Y-62355664D01*
X53169515Y-61773050D01*
X54249259Y-60695189D01*
X54834333Y-59286175D01*
X54835664Y-57760518D01*
X54253050Y-56350485D01*
X53875225Y-55972000D01*
X105274203Y-55972000D01*
X104900741Y-56344811D01*
M02*
