M48
;DRILL file {KiCad 4.0.2-stable} date 8/15/2016 9:55:35 PM
;FORMAT={-:-/ absolute / inch / decimal}
FMAT,2
INCH,TZ
T1C0.016
T2C0.040
T3C0.126
%
G90
G05
M72
T1
X2.0888Y-2.5789
X2.0938Y-2.9197
X2.098Y-2.8805
X2.0988Y-2.9873
X2.1488Y-2.8447
X2.174Y-2.9847
X2.3188Y-2.8787
X2.3188Y-2.9297
X2.3638Y-2.9547
X2.5638Y-3.3097
X2.6288Y-3.5409
X2.7538Y-2.8047
X2.7688Y-2.9519
X2.8388Y-3.0197
X2.8788Y-2.5447
X2.8888Y-2.6847
X2.8938Y-2.3797
X2.8988Y-3.2211
X2.9238Y-2.5747
X2.9338Y-3.1711
X2.9538Y-2.6847
X2.9588Y-3.3547
X3.0038Y-2.8497
X3.0088Y-2.7797
X3.0188Y-2.3747
X3.0238Y-3.0747
X3.0438Y-2.7647
X3.0465Y-3.2097
X3.1688Y-2.3597
X3.2488Y-2.4597
X3.3188Y-2.9747
X3.3438Y-3.0597
X3.3938Y-2.6997
X3.4138Y-2.6543
X3.4188Y-3.0397
X3.4538Y-2.6047
X3.4588Y-3.1747
X3.4638Y-3.0191
X3.4688Y-2.4247
X3.4738Y-2.5447
X3.4788Y-2.7947
X3.4988Y-3.0397
X3.4988Y-3.5219
X3.5154Y-2.5798
X3.5238Y-3.0647
X3.5388Y-2.4197
X3.5419Y-2.6697
X3.5538Y-3.0897
X3.5588Y-3.2397
X3.5688Y-2.6447
X3.5938Y-2.7747
X3.6138Y-2.6097
X3.6388Y-2.7847
X3.6388Y-2.8947
X3.6388Y-3.0547
X3.6588Y-2.6647
X3.6588Y-3.2497
X3.7288Y-2.7069
X3.7488Y-2.8745
X3.7517Y-3.5297
X3.7888Y-2.7497
X3.8188Y-3.3397
X3.8938Y-2.9897
T2
X2.3838Y-3.2497
X2.3838Y-3.3497
X2.3838Y-3.4497
X2.5008Y-2.4997
X2.6008Y-2.4997
X4.0531Y-2.6709
X4.0531Y-2.7709
X4.0531Y-2.8709
X4.0531Y-2.9709
X4.0531Y-3.0709
X4.1531Y-2.6709
X4.1531Y-2.7709
X4.1531Y-2.8709
X4.1531Y-2.9709
X4.1531Y-3.0709
T3
X2.0079Y-2.3039
X2.0079Y-3.5039
X4.2579Y-2.3039
X4.2579Y-3.5039
T0
M30
