G04 #@! TF.FileFunction,Copper,L1,Top,Signal*
%FSLAX46Y46*%
G04 Gerber Fmt 4.6, Leading zero omitted, Abs format (unit mm)*
G04 Created by KiCad (PCBNEW 4.0.2-stable) date 8/15/2016 9:55:29 PM*
%MOMM*%
G01*
G04 APERTURE LIST*
%ADD10C,0.100000*%
%ADD11R,1.727200X1.727200*%
%ADD12O,1.727200X1.727200*%
%ADD13R,0.750000X1.200000*%
%ADD14R,1.250000X1.500000*%
%ADD15R,1.200000X0.750000*%
%ADD16R,1.500000X1.250000*%
%ADD17R,0.900000X1.200000*%
%ADD18R,1.200000X0.900000*%
%ADD19R,1.060000X0.650000*%
%ADD20R,1.300000X0.250000*%
%ADD21R,0.250000X1.300000*%
%ADD22R,0.450000X1.450000*%
%ADD23R,0.800100X0.800100*%
%ADD24R,0.850000X0.650000*%
%ADD25R,2.032000X2.032000*%
%ADD26O,2.032000X2.032000*%
%ADD27R,2.032000X1.727200*%
%ADD28O,2.032000X1.727200*%
%ADD29R,0.797560X0.797560*%
%ADD30R,1.400000X2.000000*%
%ADD31R,1.380000X0.450000*%
%ADD32R,2.100000X1.475000*%
%ADD33R,1.900000X2.375000*%
%ADD34R,1.000000X0.600000*%
%ADD35R,1.300000X0.900000*%
%ADD36R,0.340000X2.500000*%
%ADD37C,6.400000*%
%ADD38R,0.800000X0.750000*%
%ADD39R,1.900000X1.100000*%
%ADD40C,0.600000*%
%ADD41C,0.250000*%
%ADD42C,0.300000*%
%ADD43C,0.254000*%
G04 APERTURE END LIST*
D10*
D11*
X102950000Y-78000000D03*
D12*
X105490000Y-78000000D03*
X102950000Y-75460000D03*
X105490000Y-75460000D03*
X102950000Y-72920000D03*
X105490000Y-72920000D03*
X102950000Y-70380000D03*
X105490000Y-70380000D03*
X102950000Y-67840000D03*
X105490000Y-67840000D03*
D13*
X81504000Y-62410000D03*
X81504000Y-60510000D03*
D14*
X73376000Y-85570000D03*
X73376000Y-83070000D03*
D15*
X88174000Y-60444000D03*
X90074000Y-60444000D03*
D16*
X78436000Y-90035000D03*
X75936000Y-90035000D03*
D14*
X81123000Y-86586000D03*
X81123000Y-84086000D03*
D15*
X91090000Y-88511000D03*
X89190000Y-88511000D03*
D13*
X86012500Y-75496000D03*
X86012500Y-77396000D03*
X96007400Y-72900200D03*
X96007400Y-71000200D03*
D16*
X78436000Y-80129000D03*
X75936000Y-80129000D03*
D13*
X94077000Y-79775900D03*
X94077000Y-81675900D03*
X96147100Y-79775900D03*
X96147100Y-81675900D03*
D17*
X69312000Y-76911000D03*
X69312000Y-74711000D03*
D18*
X88446000Y-85844000D03*
X86246000Y-85844000D03*
X96329800Y-77169900D03*
X98529800Y-77169900D03*
D17*
X72106000Y-59979000D03*
X72106000Y-62179000D03*
X78329000Y-59979000D03*
X78329000Y-62179000D03*
D19*
X83663000Y-60449000D03*
X83663000Y-61399000D03*
X83663000Y-62349000D03*
X85863000Y-62349000D03*
X85863000Y-60449000D03*
D20*
X71591400Y-68590600D03*
X71591400Y-69090600D03*
X71591400Y-69590600D03*
X71591400Y-70090600D03*
X71591400Y-70590600D03*
X71591400Y-71090600D03*
X71591400Y-71590600D03*
X71591400Y-72090600D03*
X71591400Y-72590600D03*
X71591400Y-73090600D03*
X71591400Y-73590600D03*
X71591400Y-74090600D03*
D21*
X73191400Y-75690600D03*
X73691400Y-75690600D03*
X74191400Y-75690600D03*
X74691400Y-75690600D03*
X75191400Y-75690600D03*
X75691400Y-75690600D03*
X76191400Y-75690600D03*
X76691400Y-75690600D03*
X77191400Y-75690600D03*
X77691400Y-75690600D03*
X78191400Y-75690600D03*
X78691400Y-75690600D03*
D20*
X80291400Y-74090600D03*
X80291400Y-73590600D03*
X80291400Y-73090600D03*
X80291400Y-72590600D03*
X80291400Y-72090600D03*
X80291400Y-71590600D03*
X80291400Y-71090600D03*
X80291400Y-70590600D03*
X80291400Y-70090600D03*
X80291400Y-69590600D03*
X80291400Y-69090600D03*
X80291400Y-68590600D03*
D21*
X78691400Y-66990600D03*
X78191400Y-66990600D03*
X77691400Y-66990600D03*
X77191400Y-66990600D03*
X76691400Y-66990600D03*
X76191400Y-66990600D03*
X75691400Y-66990600D03*
X75191400Y-66990600D03*
X74691400Y-66990600D03*
X74191400Y-66990600D03*
X73691400Y-66990600D03*
X73191400Y-66990600D03*
D22*
X93865100Y-69127200D03*
X93215100Y-69127200D03*
X92565100Y-69127200D03*
X91915100Y-69127200D03*
X91265100Y-69127200D03*
X90615100Y-69127200D03*
X89965100Y-69127200D03*
X89315100Y-69127200D03*
X88665100Y-69127200D03*
X88015100Y-69127200D03*
X88015100Y-75027200D03*
X88665100Y-75027200D03*
X89315100Y-75027200D03*
X89965100Y-75027200D03*
X90615100Y-75027200D03*
X91265100Y-75027200D03*
X91915100Y-75027200D03*
X92565100Y-75027200D03*
X93215100Y-75027200D03*
X93865100Y-75027200D03*
D23*
X91267760Y-81714000D03*
X91267760Y-79814000D03*
X89268780Y-80764000D03*
D24*
X75725500Y-63429100D03*
X74649200Y-63429100D03*
X75712800Y-62145800D03*
X74649200Y-62145800D03*
D25*
X63520800Y-63492000D03*
D26*
X66060800Y-63492000D03*
D27*
X60549000Y-82542000D03*
D28*
X60549000Y-85082000D03*
X60549000Y-87622000D03*
D29*
X55723000Y-68559300D03*
X55723000Y-67060700D03*
D18*
X55553000Y-64508000D03*
X53353000Y-64508000D03*
D30*
X95457000Y-85860000D03*
X91145000Y-85860000D03*
D18*
X95685000Y-88511000D03*
X93485000Y-88511000D03*
D31*
X51608900Y-75115400D03*
X51608900Y-74465400D03*
X51608900Y-73815400D03*
X51608900Y-73165400D03*
X51608900Y-72515400D03*
D32*
X51253300Y-76287300D03*
X51253300Y-71334300D03*
D33*
X48945900Y-70877100D03*
X48945900Y-76731800D03*
D34*
X55750300Y-72917000D03*
X57755000Y-74668000D03*
X57755000Y-72724900D03*
D35*
X55750300Y-74580600D03*
D36*
X78288000Y-86832000D03*
X78288000Y-83332000D03*
X77638000Y-86832000D03*
X77638000Y-83332000D03*
X76988000Y-86832000D03*
X76988000Y-83332000D03*
X76338000Y-86832000D03*
X76338000Y-83332000D03*
D37*
X51000000Y-58520000D03*
X51000000Y-89000000D03*
X108150000Y-89000000D03*
X108150000Y-58520000D03*
D38*
X61958000Y-71747000D03*
X63458000Y-71747000D03*
X61958000Y-69207000D03*
X63458000Y-69207000D03*
D18*
X67069000Y-88892000D03*
X69269000Y-88892000D03*
D30*
X64983000Y-85860000D03*
X69295000Y-85860000D03*
D39*
X66010000Y-69207000D03*
X66010000Y-71707000D03*
D40*
X88235000Y-64635000D03*
X73122000Y-64635000D03*
X70328000Y-74977000D03*
X75154000Y-85209000D03*
X77382000Y-81526000D03*
X90394000Y-82288000D03*
X82520000Y-62476000D03*
X54580000Y-72255000D03*
X88870000Y-89456000D03*
X96998000Y-84828000D03*
X65121000Y-84066000D03*
X73630000Y-81816000D03*
X74519000Y-80546000D03*
X55219900Y-75811000D03*
X53310000Y-75876500D03*
X88362000Y-70985000D03*
X86838000Y-77208000D03*
X92934000Y-82542000D03*
X87854000Y-80637000D03*
X84933000Y-77716000D03*
X89886000Y-61460000D03*
X80488000Y-59936000D03*
X94712000Y-68755300D03*
X98903000Y-75938000D03*
X96236000Y-69842000D03*
X69947000Y-71239000D03*
X53056000Y-65505000D03*
X95292000Y-89654000D03*
X66772000Y-89939000D03*
X73503000Y-60444000D03*
X76678000Y-60317000D03*
X88108000Y-61587000D03*
X91791000Y-66286000D03*
X76297000Y-72382000D03*
X95220000Y-73012600D03*
X92426000Y-77589000D03*
X84298000Y-75557000D03*
X76805000Y-78097000D03*
X72106000Y-76700000D03*
X89290110Y-65526247D03*
X74265000Y-65397000D03*
X86711000Y-67419010D03*
X89965100Y-67810000D03*
X90648000Y-67175000D03*
X86203000Y-68572000D03*
X90267000Y-78478000D03*
X89505000Y-77843000D03*
X88870000Y-77208000D03*
X87981000Y-76686300D03*
X92426000Y-73525000D03*
X87727000Y-66159000D03*
X75027000Y-68191000D03*
X92934000Y-67683000D03*
X76424000Y-70604000D03*
X73376000Y-68191000D03*
X92426000Y-70731000D03*
X77313000Y-70223000D03*
X91283000Y-70477000D03*
X60041000Y-75049000D03*
X58898000Y-73117900D03*
X53288600Y-73165400D03*
X58898000Y-74414000D03*
X53183000Y-74160000D03*
D41*
X88235000Y-64635000D02*
X89870999Y-62999001D01*
X89870999Y-62999001D02*
X106411001Y-62999001D01*
X106411001Y-62999001D02*
X107735010Y-64323010D01*
X107735010Y-70674990D02*
X105490000Y-72920000D01*
X107735010Y-64323010D02*
X107735010Y-70674990D01*
X88235000Y-64635000D02*
X88235000Y-65059264D01*
X88235000Y-65059264D02*
X88665100Y-65489364D01*
X88665100Y-65489364D02*
X88665100Y-69127200D01*
X73122000Y-64635000D02*
X73122000Y-66921200D01*
X73122000Y-66921200D02*
X73191400Y-66990600D01*
D42*
X69312000Y-74711000D02*
X70062000Y-74711000D01*
X70062000Y-74711000D02*
X70328000Y-74977000D01*
X76765002Y-85209000D02*
X75154000Y-85209000D01*
X75154000Y-85209000D02*
X74662000Y-85209000D01*
X77638000Y-83332000D02*
X77638000Y-81782000D01*
X77638000Y-81782000D02*
X77382000Y-81526000D01*
X76988000Y-86832000D02*
X76988000Y-85431998D01*
X76988000Y-85431998D02*
X76765002Y-85209000D01*
X74662000Y-85209000D02*
X74301000Y-85570000D01*
X74301000Y-85570000D02*
X73376000Y-85570000D01*
X71591400Y-73590600D02*
X70432400Y-73590600D01*
X70432400Y-73590600D02*
X69312000Y-74711000D01*
X83663000Y-60449000D02*
X84493000Y-60449000D01*
X84493000Y-60449000D02*
X84806000Y-60762000D01*
X84806000Y-60762000D02*
X84806000Y-62036000D01*
X84806000Y-62036000D02*
X84493000Y-62349000D01*
X84493000Y-62349000D02*
X83663000Y-62349000D01*
X55964300Y-72763000D02*
X55088000Y-72763000D01*
X55088000Y-72763000D02*
X54580000Y-72255000D01*
X90394000Y-82288000D02*
X90693760Y-82288000D01*
X90693760Y-82288000D02*
X91267760Y-81714000D01*
X82520000Y-62476000D02*
X81570000Y-62476000D01*
X81570000Y-62476000D02*
X81504000Y-62410000D01*
X83663000Y-62349000D02*
X81565000Y-62349000D01*
X81565000Y-62349000D02*
X81504000Y-62410000D01*
X54319601Y-72515399D02*
X54580000Y-72255000D01*
X52598901Y-72515399D02*
X54319601Y-72515399D01*
X77638000Y-83582000D02*
X77638000Y-82282000D01*
X55723000Y-68559300D02*
X55723000Y-72521700D01*
X55723000Y-72521700D02*
X55964300Y-72763000D01*
X51608900Y-72515400D02*
X52598901Y-72515399D01*
D41*
X89190000Y-88511000D02*
X89190000Y-89136000D01*
X89190000Y-89136000D02*
X88870000Y-89456000D01*
X96998000Y-85269000D02*
X96998000Y-84828000D01*
X95457000Y-85860000D02*
X96407000Y-85860000D01*
X96407000Y-85860000D02*
X96998000Y-85269000D01*
X64983000Y-84204000D02*
X65121000Y-84066000D01*
X64983000Y-85860000D02*
X64983000Y-84204000D01*
X73376000Y-83070000D02*
X73376000Y-82070000D01*
X73376000Y-82070000D02*
X73630000Y-81816000D01*
X75936000Y-80129000D02*
X74936000Y-80129000D01*
X74936000Y-80129000D02*
X74519000Y-80546000D01*
X76338000Y-83332000D02*
X76338000Y-80531000D01*
X76338000Y-80531000D02*
X75936000Y-80129000D01*
X76338000Y-83332000D02*
X73638000Y-83332000D01*
X73638000Y-83332000D02*
X73376000Y-83070000D01*
X55750300Y-74580600D02*
X55750300Y-75280600D01*
X55750300Y-75280600D02*
X55219900Y-75811000D01*
X51608900Y-75115400D02*
X52548900Y-75115400D01*
X52548900Y-75115400D02*
X53310000Y-75876500D01*
X88015100Y-70638100D02*
X88362000Y-70985000D01*
X88015100Y-69127200D02*
X88015100Y-70638100D01*
X86838000Y-77208000D02*
X86200500Y-77208000D01*
X86200500Y-77208000D02*
X86012500Y-77396000D01*
X86078500Y-77462000D02*
X86012500Y-77396000D01*
X92934000Y-82193900D02*
X92934000Y-82542000D01*
X94077000Y-81675900D02*
X93452000Y-81675900D01*
X93452000Y-81675900D02*
X92934000Y-82193900D01*
X94077000Y-81675900D02*
X96147100Y-81675900D01*
X87981000Y-80764000D02*
X87854000Y-80637000D01*
X89268780Y-80764000D02*
X87981000Y-80764000D01*
X85253000Y-77396000D02*
X84933000Y-77716000D01*
X86012500Y-77396000D02*
X85253000Y-77396000D01*
X82393000Y-60909000D02*
X82393000Y-60774000D01*
X82393000Y-60774000D02*
X82129000Y-60510000D01*
X82129000Y-60510000D02*
X81504000Y-60510000D01*
X83663000Y-61399000D02*
X82883000Y-61399000D01*
X82883000Y-61399000D02*
X82393000Y-60909000D01*
X89886000Y-61257000D02*
X89886000Y-61460000D01*
X90074000Y-60444000D02*
X90074000Y-61069000D01*
X90074000Y-61069000D02*
X89886000Y-61257000D01*
X80488000Y-60119000D02*
X80488000Y-59936000D01*
X81504000Y-60510000D02*
X80879000Y-60510000D01*
X80879000Y-60510000D02*
X80488000Y-60119000D01*
X93865100Y-69127200D02*
X94340100Y-69127200D01*
X94340100Y-69127200D02*
X94712000Y-68755300D01*
X98903000Y-76096700D02*
X98903000Y-75938000D01*
X98529800Y-77169900D02*
X98529800Y-76469900D01*
X98529800Y-76469900D02*
X98903000Y-76096700D01*
X96007400Y-70070600D02*
X96236000Y-69842000D01*
X96007400Y-71000200D02*
X96007400Y-70070600D01*
X70298600Y-71590600D02*
X69947000Y-71239000D01*
X71591400Y-71590600D02*
X70298600Y-71590600D01*
X53353000Y-64508000D02*
X53353000Y-65208000D01*
X53353000Y-65208000D02*
X53056000Y-65505000D01*
D42*
X95685000Y-88511000D02*
X95685000Y-89261000D01*
X95685000Y-89261000D02*
X95292000Y-89654000D01*
X67069000Y-88892000D02*
X67069000Y-89642000D01*
X67069000Y-89642000D02*
X66772000Y-89939000D01*
X73038000Y-59979000D02*
X73503000Y-60444000D01*
X72106000Y-59979000D02*
X73038000Y-59979000D01*
X78329000Y-59979000D02*
X77016000Y-59979000D01*
X77016000Y-59979000D02*
X76678000Y-60317000D01*
X91410000Y-67957300D02*
X91410000Y-66667000D01*
X91410000Y-66667000D02*
X91791000Y-66286000D01*
X91265100Y-69127200D02*
X91265100Y-68102200D01*
X91265100Y-68102200D02*
X91410000Y-67957300D01*
X88108000Y-61587000D02*
X88108000Y-60510000D01*
X88108000Y-60510000D02*
X88174000Y-60444000D01*
X88174000Y-60444000D02*
X85868000Y-60444000D01*
X85868000Y-60444000D02*
X85863000Y-60449000D01*
X96007400Y-72900200D02*
X95332400Y-72900200D01*
X95332400Y-72900200D02*
X95220000Y-73012600D01*
X91915100Y-77078100D02*
X92426000Y-77589000D01*
X91915100Y-75027200D02*
X91915100Y-77078100D01*
X94860800Y-75027200D02*
X96007400Y-73880600D01*
X96007400Y-73880600D02*
X96007400Y-72900200D01*
X93865100Y-75027200D02*
X94860800Y-75027200D01*
D41*
X77638000Y-86832000D02*
X77638000Y-89237000D01*
X77638000Y-89237000D02*
X78436000Y-90035000D01*
X76338000Y-86832000D02*
X76338000Y-89633000D01*
X76338000Y-89633000D02*
X75936000Y-90035000D01*
X81123000Y-86586000D02*
X78534000Y-86586000D01*
X78534000Y-86586000D02*
X78288000Y-86832000D01*
X78292000Y-86586000D02*
X78288000Y-86582000D01*
X77440000Y-85082000D02*
X79252000Y-85082000D01*
X79252000Y-85082000D02*
X80248000Y-84086000D01*
X80248000Y-84086000D02*
X81123000Y-84086000D01*
X76988000Y-84630000D02*
X77440000Y-85082000D01*
X76988000Y-83332000D02*
X76988000Y-84630000D01*
X93485000Y-88511000D02*
X91090000Y-88511000D01*
X91145000Y-85860000D02*
X91145000Y-88456000D01*
X91145000Y-88456000D02*
X91090000Y-88511000D01*
X91145000Y-85860000D02*
X88462000Y-85860000D01*
X88462000Y-85860000D02*
X88446000Y-85844000D01*
D42*
X78436000Y-80129000D02*
X78436000Y-79204000D01*
X78436000Y-79204000D02*
X78091000Y-78859000D01*
X78091000Y-78859000D02*
X75916000Y-78859000D01*
X80488000Y-75557000D02*
X84298000Y-75557000D01*
X75916000Y-78859000D02*
X75408000Y-78351000D01*
X75408000Y-78351000D02*
X75408000Y-77589000D01*
X79817235Y-76227765D02*
X80488000Y-75557000D01*
X75408000Y-77589000D02*
X75694990Y-77302010D01*
X78651755Y-77302010D02*
X79726000Y-76227765D01*
X75694990Y-77302010D02*
X78651755Y-77302010D01*
X79726000Y-76227765D02*
X79817235Y-76227765D01*
X78288000Y-83332000D02*
X78288000Y-80277000D01*
X78288000Y-80277000D02*
X78436000Y-80129000D01*
X86012500Y-75496000D02*
X84359000Y-75496000D01*
X84359000Y-75496000D02*
X84298000Y-75557000D01*
X88015100Y-75027200D02*
X86481300Y-75027200D01*
X86481300Y-75027200D02*
X86012500Y-75496000D01*
D41*
X96147100Y-79775900D02*
X94077000Y-79775900D01*
X94077000Y-79775900D02*
X91305860Y-79775900D01*
X91305860Y-79775900D02*
X91267760Y-79814000D01*
X91265100Y-75027200D02*
X91265100Y-79811340D01*
X91265100Y-79811340D02*
X91267760Y-79814000D01*
X71591400Y-69090600D02*
X68814600Y-69090600D01*
X64020100Y-67175000D02*
X63520800Y-66675700D01*
X68814600Y-69090600D02*
X66899000Y-67175000D01*
X66899000Y-67175000D02*
X64020100Y-67175000D01*
X63520800Y-66675700D02*
X63520800Y-65409700D01*
X63520800Y-65409700D02*
X63520800Y-63492000D01*
X66060800Y-65409700D02*
X66060800Y-63492000D01*
X69203600Y-68590600D02*
X69203600Y-68552500D01*
X69203600Y-68552500D02*
X66060800Y-65409700D01*
X71591400Y-68590600D02*
X69203600Y-68590600D01*
X76805000Y-78097000D02*
X83536000Y-78097000D01*
X83536000Y-78097000D02*
X85187000Y-79748000D01*
X86246000Y-85144000D02*
X86246000Y-85844000D01*
X85187000Y-79748000D02*
X85187000Y-84085000D01*
X85187000Y-84085000D02*
X86246000Y-85144000D01*
X72106000Y-76700000D02*
X73082000Y-76700000D01*
X73082000Y-76700000D02*
X73191400Y-76590600D01*
X63089000Y-78097000D02*
X60549000Y-80637000D01*
X60549000Y-80637000D02*
X60549000Y-82542000D01*
X71685000Y-78097000D02*
X63089000Y-78097000D01*
X73191400Y-75690600D02*
X73191400Y-76590600D01*
X73191400Y-76590600D02*
X71685000Y-78097000D01*
X63275400Y-78547010D02*
X72036990Y-78547010D01*
X72036990Y-78547010D02*
X73691400Y-76892600D01*
X73691400Y-76892600D02*
X73691400Y-76590600D01*
X73691400Y-76590600D02*
X73691400Y-75690600D01*
X62327000Y-79495410D02*
X63275400Y-78547010D01*
X62327000Y-84570000D02*
X62327000Y-79495410D01*
X60549000Y-85082000D02*
X61815000Y-85082000D01*
X61815000Y-85082000D02*
X62327000Y-84570000D01*
X105490000Y-70380000D02*
X106353599Y-69516401D01*
X106353599Y-69516401D02*
X107102599Y-69516401D01*
X107102599Y-69516401D02*
X107285000Y-69334000D01*
X107285000Y-64635000D02*
X107285000Y-69334000D01*
X106199990Y-63549990D02*
X107285000Y-64635000D01*
X104745000Y-63549990D02*
X90842103Y-63549990D01*
X104929990Y-63549990D02*
X104745000Y-63549990D01*
X104745000Y-63549990D02*
X106199990Y-63549990D01*
X89290110Y-65101983D02*
X89290110Y-65526247D01*
X90842103Y-63549990D02*
X89290110Y-65101983D01*
X89290110Y-65526247D02*
X89290110Y-69102210D01*
X89290110Y-69102210D02*
X89315100Y-69127200D01*
X73930001Y-65731999D02*
X74265000Y-65397000D01*
X73930001Y-65768001D02*
X73930001Y-65731999D01*
X73691400Y-66990600D02*
X73691400Y-66006602D01*
X73691400Y-66006602D02*
X73930001Y-65768001D01*
X92807000Y-65143000D02*
X93823000Y-64127000D01*
X102950000Y-67840000D02*
X102086401Y-66976401D01*
X102086401Y-66976401D02*
X102086401Y-65659401D01*
X102086401Y-65659401D02*
X100484990Y-64057990D01*
X100484990Y-64057990D02*
X93892010Y-64057990D01*
X93892010Y-64057990D02*
X93823000Y-64127000D01*
X86711000Y-67419010D02*
X86286736Y-67419010D01*
X86286736Y-67419010D02*
X85115146Y-68590600D01*
X85115146Y-68590600D02*
X84660400Y-68590600D01*
X80291400Y-68590600D02*
X84660400Y-68590600D01*
X86593990Y-67302000D02*
X86711000Y-67419010D01*
X89965100Y-67810000D02*
X89965100Y-65317900D01*
X89965100Y-69127200D02*
X89965100Y-67810000D01*
X89965100Y-65317900D02*
X90140000Y-65143000D01*
X90140000Y-65143000D02*
X92807000Y-65143000D01*
X102950000Y-70380000D02*
X101600000Y-70380000D01*
X94204000Y-64508000D02*
X93118990Y-65593010D01*
X90832990Y-65593010D02*
X90648000Y-65778000D01*
X101600000Y-70380000D02*
X100935000Y-69715000D01*
X99792000Y-64508000D02*
X94204000Y-64508000D01*
X100935000Y-69715000D02*
X100935000Y-65651000D01*
X100935000Y-65651000D02*
X99792000Y-64508000D01*
X93118990Y-65593010D02*
X90832990Y-65593010D01*
X90648000Y-65778000D02*
X90648000Y-67175000D01*
X90615100Y-69127200D02*
X90615100Y-67207900D01*
X90615100Y-67207900D02*
X90648000Y-67175000D01*
X85770156Y-68572000D02*
X86203000Y-68572000D01*
X80291400Y-69090600D02*
X85251556Y-69090600D01*
X85251556Y-69090600D02*
X85770156Y-68572000D01*
X80291400Y-69590600D02*
X82907830Y-69590600D01*
X82907830Y-69590600D02*
X85492201Y-72174971D01*
X85492201Y-72174971D02*
X88792792Y-72174972D01*
X88792792Y-72174972D02*
X90615100Y-73997280D01*
X90615100Y-73997280D02*
X90615100Y-75027200D01*
X90615100Y-74052200D02*
X90615100Y-75027200D01*
X90615100Y-78256900D02*
X90394000Y-78478000D01*
X90394000Y-78478000D02*
X90267000Y-78478000D01*
X90615100Y-75027200D02*
X90615100Y-78256900D01*
X80291400Y-70090600D02*
X82771420Y-70090600D01*
X82771420Y-70090600D02*
X85305800Y-72624980D01*
X89965100Y-74052200D02*
X89965100Y-75027200D01*
X85305800Y-72624980D02*
X88606391Y-72624981D01*
X88606391Y-72624981D02*
X89965100Y-73983690D01*
X89965100Y-73983690D02*
X89965100Y-74052200D01*
X89965100Y-77382900D02*
X89505000Y-77843000D01*
X89965100Y-75027200D02*
X89965100Y-77382900D01*
X80291400Y-70590600D02*
X82635010Y-70590600D01*
X82635010Y-70590600D02*
X85119400Y-73074990D01*
X89315100Y-73970100D02*
X89315100Y-75027200D01*
X85119400Y-73074990D02*
X88419990Y-73074990D01*
X88419990Y-73074990D02*
X89315100Y-73970100D01*
X88870000Y-76447300D02*
X88870000Y-77208000D01*
X89315100Y-75027200D02*
X89315100Y-76002200D01*
X89315100Y-76002200D02*
X88870000Y-76447300D01*
X80291400Y-71090600D02*
X82498600Y-71090600D01*
X82498600Y-71090600D02*
X84933000Y-73525000D01*
X84933000Y-73525000D02*
X88137900Y-73525000D01*
X88137900Y-73525000D02*
X88665100Y-74052200D01*
X88665100Y-74052200D02*
X88665100Y-75027200D01*
X88665100Y-75027200D02*
X88665100Y-76002200D01*
X88665100Y-76002200D02*
X87981000Y-76686300D01*
X70625000Y-76911000D02*
X71591400Y-75944600D01*
X71591400Y-75944600D02*
X71591400Y-74090600D01*
X69312000Y-76911000D02*
X70625000Y-76911000D01*
X92565100Y-73664100D02*
X92426000Y-73525000D01*
X92565100Y-74052200D02*
X92565100Y-73664100D01*
X86838000Y-64254000D02*
X87727000Y-65143000D01*
X87727000Y-65143000D02*
X87727000Y-66159000D01*
X78202000Y-64254000D02*
X86838000Y-64254000D01*
X77691400Y-64764600D02*
X78202000Y-64254000D01*
X77691400Y-66990600D02*
X77691400Y-64764600D01*
X92565100Y-75027200D02*
X92565100Y-74052200D01*
X92565100Y-74052200D02*
X92553000Y-74040100D01*
X92565100Y-76458100D02*
X93276900Y-77169900D01*
X93276900Y-77169900D02*
X96329800Y-77169900D01*
X92565100Y-75027200D02*
X92565100Y-76458100D01*
X75191400Y-68026600D02*
X75027000Y-68191000D01*
X75191400Y-66990600D02*
X75191400Y-68026600D01*
X93215100Y-67964100D02*
X92934000Y-67683000D01*
X93215100Y-69127200D02*
X93215100Y-67964100D01*
X77191400Y-65089700D02*
X77191400Y-65270000D01*
X77191400Y-65270000D02*
X77191400Y-66090600D01*
X75725500Y-63429100D02*
X75825500Y-63429100D01*
X75825500Y-63429100D02*
X77191400Y-64795000D01*
X77191400Y-64795000D02*
X77191400Y-65270000D01*
X77191400Y-66090600D02*
X77191400Y-66990600D01*
X75408000Y-65016000D02*
X74649200Y-64257200D01*
X74649200Y-64257200D02*
X74649200Y-63429100D01*
X76170000Y-65016000D02*
X75408000Y-65016000D01*
X76691400Y-65537400D02*
X76170000Y-65016000D01*
X76691400Y-66990600D02*
X76691400Y-65537400D01*
X74011000Y-68191000D02*
X76424000Y-70604000D01*
X73851002Y-68191000D02*
X74011000Y-68191000D01*
X73851002Y-68191000D02*
X73376000Y-68191000D01*
X74191400Y-66990600D02*
X74191400Y-67850602D01*
X74191400Y-67850602D02*
X73851002Y-68191000D01*
X92565100Y-70591900D02*
X92426000Y-70731000D01*
X92565100Y-69127200D02*
X92565100Y-70591900D01*
X78329000Y-62179000D02*
X75746000Y-62179000D01*
X75746000Y-62179000D02*
X75712800Y-62145800D01*
X74649200Y-62145800D02*
X72139200Y-62145800D01*
X72139200Y-62145800D02*
X72106000Y-62179000D01*
X77313000Y-69551998D02*
X77313000Y-70223000D01*
X76753800Y-68953000D02*
X77313000Y-69512200D01*
X77313000Y-69512200D02*
X77313000Y-69551998D01*
X75691400Y-66990600D02*
X75691400Y-67890600D01*
X75691400Y-67890600D02*
X76753800Y-68953000D01*
X91540300Y-70477000D02*
X91283000Y-70477000D01*
X91915100Y-69127200D02*
X91915100Y-70102200D01*
X91915100Y-70102200D02*
X91540300Y-70477000D01*
X65883000Y-75049000D02*
X60041000Y-75049000D01*
X66519410Y-74922000D02*
X66010000Y-74922000D01*
X66010000Y-74922000D02*
X65883000Y-75049000D01*
X68850810Y-72590600D02*
X66519410Y-74922000D01*
X71591400Y-72590600D02*
X68850810Y-72590600D01*
X57755000Y-72724900D02*
X58505000Y-72724900D01*
X58505000Y-72724900D02*
X58898000Y-73117900D01*
X51608900Y-73165400D02*
X53288600Y-73165400D01*
X58898000Y-74414000D02*
X58009000Y-74414000D01*
X58009000Y-74414000D02*
X57755000Y-74668000D01*
X58898000Y-74414000D02*
X66391000Y-74414000D01*
X66391000Y-74414000D02*
X68714400Y-72090600D01*
X68714400Y-72090600D02*
X71591400Y-72090600D01*
X52838400Y-73815400D02*
X53183000Y-74160000D01*
X51608900Y-73815400D02*
X52838400Y-73815400D01*
X55553000Y-64508000D02*
X55553000Y-66890700D01*
X55553000Y-66890700D02*
X55723000Y-67060700D01*
X66010000Y-71707000D02*
X63498000Y-71707000D01*
X63498000Y-71707000D02*
X63458000Y-71747000D01*
X71591400Y-70090600D02*
X68026400Y-70090600D01*
X68026400Y-70090600D02*
X66410000Y-71707000D01*
X66410000Y-71707000D02*
X66010000Y-71707000D01*
X66010000Y-69207000D02*
X63458000Y-69207000D01*
X71591400Y-69590600D02*
X66393600Y-69590600D01*
X66393600Y-69590600D02*
X66010000Y-69207000D01*
X69295000Y-85860000D02*
X69295000Y-84610000D01*
X69295000Y-84610000D02*
X69312000Y-84593000D01*
X75153000Y-76954000D02*
X75280000Y-76827000D01*
X69312000Y-84593000D02*
X69312000Y-79875000D01*
X69312000Y-79875000D02*
X70074000Y-79113000D01*
X70074000Y-79113000D02*
X72107410Y-79113000D01*
X72107410Y-79113000D02*
X74266410Y-76954000D01*
X78641401Y-76600601D02*
X78681399Y-76600601D01*
X78681399Y-76600601D02*
X78691400Y-76590600D01*
X74266410Y-76954000D02*
X75153000Y-76954000D01*
X75280000Y-76827000D02*
X78455000Y-76827000D01*
X78455000Y-76827000D02*
X78641401Y-76640599D01*
X78641401Y-76640599D02*
X78641401Y-76600601D01*
X78691400Y-76590600D02*
X78691400Y-75690600D01*
X69295000Y-85860000D02*
X69295000Y-88866000D01*
X69295000Y-88866000D02*
X69269000Y-88892000D01*
D43*
G36*
X104900741Y-56344811D02*
X104315667Y-57753825D01*
X104314336Y-59279482D01*
X104896950Y-60689515D01*
X105974811Y-61769259D01*
X107383825Y-62354333D01*
X108909482Y-62355664D01*
X110319515Y-61773050D01*
X110868000Y-61225522D01*
X110868000Y-86294500D01*
X110325189Y-85750741D01*
X108916175Y-85165667D01*
X107390518Y-85164336D01*
X105980485Y-85746950D01*
X104900741Y-86824811D01*
X104315667Y-88233825D01*
X104314336Y-89759482D01*
X104896950Y-91169515D01*
X105312709Y-91586000D01*
X53837730Y-91586000D01*
X54249259Y-91175189D01*
X54834333Y-89766175D01*
X54835664Y-88240518D01*
X54728445Y-87981026D01*
X58941642Y-87981026D01*
X58944291Y-87996791D01*
X59198268Y-88524036D01*
X59634680Y-88913954D01*
X60187087Y-89107184D01*
X60422000Y-88962924D01*
X60422000Y-87749000D01*
X60676000Y-87749000D01*
X60676000Y-88962924D01*
X60910913Y-89107184D01*
X61463320Y-88913954D01*
X61899732Y-88524036D01*
X62153709Y-87996791D01*
X62156358Y-87981026D01*
X62035217Y-87749000D01*
X60676000Y-87749000D01*
X60422000Y-87749000D01*
X59062783Y-87749000D01*
X58941642Y-87981026D01*
X54728445Y-87981026D01*
X54253050Y-86830485D01*
X53175189Y-85750741D01*
X51766175Y-85165667D01*
X50240518Y-85164336D01*
X48830485Y-85746950D01*
X48457000Y-86119784D01*
X48457000Y-78566740D01*
X49895900Y-78566740D01*
X50131217Y-78522462D01*
X50347341Y-78383390D01*
X50492331Y-78171190D01*
X50543340Y-77919300D01*
X50543340Y-77672240D01*
X52303300Y-77672240D01*
X52538617Y-77627962D01*
X52754741Y-77488890D01*
X52899731Y-77276690D01*
X52950740Y-77024800D01*
X52950740Y-75549800D01*
X52933900Y-75460303D01*
X52933900Y-75386650D01*
X52916829Y-75369579D01*
X52906462Y-75314483D01*
X52777722Y-75114416D01*
X52836430Y-75028495D01*
X52996201Y-75094838D01*
X53368167Y-75095162D01*
X53711943Y-74953117D01*
X53798861Y-74866350D01*
X54465300Y-74866350D01*
X54465300Y-75156910D01*
X54561973Y-75390299D01*
X54740602Y-75568927D01*
X54973991Y-75665600D01*
X55464550Y-75665600D01*
X55623300Y-75506850D01*
X55623300Y-74707600D01*
X54624050Y-74707600D01*
X54465300Y-74866350D01*
X53798861Y-74866350D01*
X53975192Y-74690327D01*
X54117838Y-74346799D01*
X54118162Y-73974833D01*
X54025602Y-73750821D01*
X54080792Y-73695727D01*
X54223438Y-73352199D01*
X54223483Y-73300399D01*
X54319601Y-73300399D01*
X54482783Y-73267940D01*
X54532919Y-73318076D01*
X54532921Y-73318079D01*
X54634672Y-73386066D01*
X54647138Y-73452317D01*
X54738530Y-73594345D01*
X54561973Y-73770901D01*
X54465300Y-74004290D01*
X54465300Y-74294850D01*
X54624050Y-74453600D01*
X55623300Y-74453600D01*
X55623300Y-74433600D01*
X55877300Y-74433600D01*
X55877300Y-74453600D01*
X55897300Y-74453600D01*
X55897300Y-74707600D01*
X55877300Y-74707600D01*
X55877300Y-75506850D01*
X56036050Y-75665600D01*
X56526609Y-75665600D01*
X56759998Y-75568927D01*
X56861353Y-75467573D01*
X57003110Y-75564431D01*
X57255000Y-75615440D01*
X58255000Y-75615440D01*
X58490317Y-75571162D01*
X58706441Y-75432090D01*
X58763294Y-75348883D01*
X59083167Y-75349162D01*
X59143118Y-75324391D01*
X59247883Y-75577943D01*
X59510673Y-75841192D01*
X59854201Y-75983838D01*
X60226167Y-75984162D01*
X60569943Y-75842117D01*
X60603118Y-75809000D01*
X65883000Y-75809000D01*
X66173839Y-75751148D01*
X66277327Y-75682000D01*
X66519410Y-75682000D01*
X66810249Y-75624148D01*
X67056811Y-75459401D01*
X68214560Y-74301652D01*
X68214560Y-75311000D01*
X68258838Y-75546317D01*
X68397910Y-75762441D01*
X68467711Y-75810134D01*
X68410559Y-75846910D01*
X68265569Y-76059110D01*
X68214560Y-76311000D01*
X68214560Y-77337000D01*
X63089000Y-77337000D01*
X62858247Y-77382900D01*
X62798160Y-77394852D01*
X62551599Y-77559599D01*
X60011599Y-80099599D01*
X59846852Y-80346161D01*
X59789000Y-80637000D01*
X59789000Y-81030960D01*
X59533000Y-81030960D01*
X59297683Y-81075238D01*
X59081559Y-81214310D01*
X58936569Y-81426510D01*
X58885560Y-81678400D01*
X58885560Y-83405600D01*
X58929838Y-83640917D01*
X59068910Y-83857041D01*
X59281110Y-84002031D01*
X59322439Y-84010400D01*
X59304585Y-84022330D01*
X58979729Y-84508511D01*
X58865655Y-85082000D01*
X58979729Y-85655489D01*
X59304585Y-86141670D01*
X59614069Y-86348461D01*
X59198268Y-86719964D01*
X58944291Y-87247209D01*
X58941642Y-87262974D01*
X59062783Y-87495000D01*
X60422000Y-87495000D01*
X60422000Y-87475000D01*
X60676000Y-87475000D01*
X60676000Y-87495000D01*
X62035217Y-87495000D01*
X62156358Y-87262974D01*
X62153709Y-87247209D01*
X61899732Y-86719964D01*
X61483931Y-86348461D01*
X61787308Y-86145750D01*
X63648000Y-86145750D01*
X63648000Y-86986310D01*
X63744673Y-87219699D01*
X63923302Y-87398327D01*
X64156691Y-87495000D01*
X64697250Y-87495000D01*
X64856000Y-87336250D01*
X64856000Y-85987000D01*
X65110000Y-85987000D01*
X65110000Y-87336250D01*
X65268750Y-87495000D01*
X65809309Y-87495000D01*
X66042698Y-87398327D01*
X66221327Y-87219699D01*
X66318000Y-86986310D01*
X66318000Y-86145750D01*
X66159250Y-85987000D01*
X65110000Y-85987000D01*
X64856000Y-85987000D01*
X63806750Y-85987000D01*
X63648000Y-86145750D01*
X61787308Y-86145750D01*
X61793415Y-86141670D01*
X62021032Y-85801017D01*
X62105839Y-85784148D01*
X62352401Y-85619401D01*
X62864401Y-85107401D01*
X63029148Y-84860840D01*
X63054439Y-84733690D01*
X63648000Y-84733690D01*
X63648000Y-85574250D01*
X63806750Y-85733000D01*
X64856000Y-85733000D01*
X64856000Y-84383750D01*
X65110000Y-84383750D01*
X65110000Y-85733000D01*
X66159250Y-85733000D01*
X66318000Y-85574250D01*
X66318000Y-84733690D01*
X66221327Y-84500301D01*
X66042698Y-84321673D01*
X65809309Y-84225000D01*
X65268750Y-84225000D01*
X65110000Y-84383750D01*
X64856000Y-84383750D01*
X64697250Y-84225000D01*
X64156691Y-84225000D01*
X63923302Y-84321673D01*
X63744673Y-84500301D01*
X63648000Y-84733690D01*
X63054439Y-84733690D01*
X63087000Y-84570000D01*
X63087000Y-79810212D01*
X63590202Y-79307010D01*
X68805188Y-79307010D01*
X68774599Y-79337599D01*
X68609852Y-79584161D01*
X68552000Y-79875000D01*
X68552000Y-84220651D01*
X68359683Y-84256838D01*
X68143559Y-84395910D01*
X67998569Y-84608110D01*
X67947560Y-84860000D01*
X67947560Y-86860000D01*
X67991838Y-87095317D01*
X68130910Y-87311441D01*
X68343110Y-87456431D01*
X68535000Y-87495290D01*
X68535000Y-87819774D01*
X68433683Y-87838838D01*
X68217559Y-87977910D01*
X68169866Y-88047711D01*
X68133090Y-87990559D01*
X67920890Y-87845569D01*
X67669000Y-87794560D01*
X66469000Y-87794560D01*
X66233683Y-87838838D01*
X66017559Y-87977910D01*
X65872569Y-88190110D01*
X65821560Y-88442000D01*
X65821560Y-89342000D01*
X65865838Y-89577317D01*
X65892546Y-89618822D01*
X65837162Y-89752201D01*
X65836838Y-90124167D01*
X65978883Y-90467943D01*
X66241673Y-90731192D01*
X66585201Y-90873838D01*
X66957167Y-90874162D01*
X67300943Y-90732117D01*
X67564192Y-90469327D01*
X67706838Y-90125799D01*
X67706884Y-90073152D01*
X67732376Y-90035000D01*
X67776310Y-89969248D01*
X67904317Y-89945162D01*
X68120441Y-89806090D01*
X68168134Y-89736289D01*
X68204910Y-89793441D01*
X68417110Y-89938431D01*
X68669000Y-89989440D01*
X69869000Y-89989440D01*
X70104317Y-89945162D01*
X70320441Y-89806090D01*
X70465431Y-89593890D01*
X70516440Y-89342000D01*
X70516440Y-88442000D01*
X70472162Y-88206683D01*
X70333090Y-87990559D01*
X70120890Y-87845569D01*
X70055000Y-87832226D01*
X70055000Y-87496150D01*
X70230317Y-87463162D01*
X70446441Y-87324090D01*
X70591431Y-87111890D01*
X70642440Y-86860000D01*
X70642440Y-84860000D01*
X70598162Y-84624683D01*
X70459090Y-84408559D01*
X70246890Y-84263569D01*
X70072000Y-84228153D01*
X70072000Y-82193691D01*
X72116000Y-82193691D01*
X72116000Y-82784250D01*
X72274750Y-82943000D01*
X73249000Y-82943000D01*
X73249000Y-81843750D01*
X73503000Y-81843750D01*
X73503000Y-82943000D01*
X74477250Y-82943000D01*
X74636000Y-82784250D01*
X74636000Y-82193691D01*
X74539327Y-81960302D01*
X74360699Y-81781673D01*
X74127310Y-81685000D01*
X73661750Y-81685000D01*
X73503000Y-81843750D01*
X73249000Y-81843750D01*
X73090250Y-81685000D01*
X72624690Y-81685000D01*
X72391301Y-81781673D01*
X72212673Y-81960302D01*
X72116000Y-82193691D01*
X70072000Y-82193691D01*
X70072000Y-80414750D01*
X74551000Y-80414750D01*
X74551000Y-80880310D01*
X74647673Y-81113699D01*
X74826302Y-81292327D01*
X75059691Y-81389000D01*
X75650250Y-81389000D01*
X75809000Y-81230250D01*
X75809000Y-80256000D01*
X74709750Y-80256000D01*
X74551000Y-80414750D01*
X70072000Y-80414750D01*
X70072000Y-80189802D01*
X70388802Y-79873000D01*
X72107410Y-79873000D01*
X72398249Y-79815148D01*
X72644811Y-79650401D01*
X74581212Y-77714000D01*
X74623000Y-77714000D01*
X74623000Y-78351000D01*
X74682755Y-78651407D01*
X74852921Y-78906079D01*
X74887264Y-78940422D01*
X74826302Y-78965673D01*
X74647673Y-79144301D01*
X74551000Y-79377690D01*
X74551000Y-79843250D01*
X74709750Y-80002000D01*
X75809000Y-80002000D01*
X75809000Y-79982000D01*
X76063000Y-79982000D01*
X76063000Y-80002000D01*
X76083000Y-80002000D01*
X76083000Y-80256000D01*
X76063000Y-80256000D01*
X76063000Y-81230250D01*
X76221750Y-81389000D01*
X76447119Y-81389000D01*
X76446964Y-81566171D01*
X76366559Y-81617910D01*
X76253000Y-81784109D01*
X76253000Y-81605750D01*
X76094250Y-81447000D01*
X76041691Y-81447000D01*
X75808302Y-81543673D01*
X75629673Y-81722301D01*
X75533000Y-81955690D01*
X75533000Y-83046250D01*
X75691750Y-83205000D01*
X76170560Y-83205000D01*
X76170560Y-83459000D01*
X75691750Y-83459000D01*
X75533000Y-83617750D01*
X75533000Y-84353971D01*
X75340799Y-84274162D01*
X74968833Y-84273838D01*
X74625057Y-84415883D01*
X74605709Y-84435197D01*
X74519061Y-84452432D01*
X74465090Y-84368559D01*
X74396994Y-84322031D01*
X74539327Y-84179698D01*
X74636000Y-83946309D01*
X74636000Y-83355750D01*
X74477250Y-83197000D01*
X73503000Y-83197000D01*
X73503000Y-83217000D01*
X73249000Y-83217000D01*
X73249000Y-83197000D01*
X72274750Y-83197000D01*
X72116000Y-83355750D01*
X72116000Y-83946309D01*
X72212673Y-84179698D01*
X72353910Y-84320936D01*
X72299559Y-84355910D01*
X72154569Y-84568110D01*
X72103560Y-84820000D01*
X72103560Y-86320000D01*
X72147838Y-86555317D01*
X72286910Y-86771441D01*
X72499110Y-86916431D01*
X72751000Y-86967440D01*
X74001000Y-86967440D01*
X74236317Y-86923162D01*
X74452441Y-86784090D01*
X74597431Y-86571890D01*
X74648440Y-86320000D01*
X74648440Y-86263819D01*
X74856079Y-86125079D01*
X74875428Y-86105730D01*
X74967201Y-86143838D01*
X75339167Y-86144162D01*
X75520560Y-86069212D01*
X75520560Y-88082000D01*
X75564838Y-88317317D01*
X75578000Y-88337771D01*
X75578000Y-88762560D01*
X75186000Y-88762560D01*
X74950683Y-88806838D01*
X74734559Y-88945910D01*
X74589569Y-89158110D01*
X74538560Y-89410000D01*
X74538560Y-90660000D01*
X74582838Y-90895317D01*
X74721910Y-91111441D01*
X74934110Y-91256431D01*
X75186000Y-91307440D01*
X76686000Y-91307440D01*
X76921317Y-91263162D01*
X77137441Y-91124090D01*
X77185134Y-91054289D01*
X77221910Y-91111441D01*
X77434110Y-91256431D01*
X77686000Y-91307440D01*
X79186000Y-91307440D01*
X79421317Y-91263162D01*
X79637441Y-91124090D01*
X79782431Y-90911890D01*
X79833440Y-90660000D01*
X79833440Y-89410000D01*
X79789162Y-89174683D01*
X79650090Y-88958559D01*
X79437890Y-88813569D01*
X79354836Y-88796750D01*
X87955000Y-88796750D01*
X87955000Y-89012310D01*
X88051673Y-89245699D01*
X88230302Y-89424327D01*
X88463691Y-89521000D01*
X88904250Y-89521000D01*
X89063000Y-89362250D01*
X89063000Y-88638000D01*
X88113750Y-88638000D01*
X87955000Y-88796750D01*
X79354836Y-88796750D01*
X79186000Y-88762560D01*
X78398000Y-88762560D01*
X78398000Y-88729440D01*
X78458000Y-88729440D01*
X78693317Y-88685162D01*
X78909441Y-88546090D01*
X79054431Y-88333890D01*
X79105440Y-88082000D01*
X79105440Y-88009690D01*
X87955000Y-88009690D01*
X87955000Y-88225250D01*
X88113750Y-88384000D01*
X89063000Y-88384000D01*
X89063000Y-87659750D01*
X88904250Y-87501000D01*
X88463691Y-87501000D01*
X88230302Y-87597673D01*
X88051673Y-87776301D01*
X87955000Y-88009690D01*
X79105440Y-88009690D01*
X79105440Y-87346000D01*
X79852442Y-87346000D01*
X79894838Y-87571317D01*
X80033910Y-87787441D01*
X80246110Y-87932431D01*
X80498000Y-87983440D01*
X81748000Y-87983440D01*
X81983317Y-87939162D01*
X82199441Y-87800090D01*
X82344431Y-87587890D01*
X82395440Y-87336000D01*
X82395440Y-85836000D01*
X82351162Y-85600683D01*
X82212090Y-85384559D01*
X82142289Y-85336866D01*
X82199441Y-85300090D01*
X82344431Y-85087890D01*
X82395440Y-84836000D01*
X82395440Y-83336000D01*
X82351162Y-83100683D01*
X82212090Y-82884559D01*
X81999890Y-82739569D01*
X81748000Y-82688560D01*
X80498000Y-82688560D01*
X80262683Y-82732838D01*
X80046559Y-82871910D01*
X79901569Y-83084110D01*
X79850560Y-83336000D01*
X79850560Y-83455080D01*
X79710599Y-83548599D01*
X79105440Y-84153758D01*
X79105440Y-82082000D01*
X79073000Y-81909596D01*
X79073000Y-81401440D01*
X79186000Y-81401440D01*
X79421317Y-81357162D01*
X79637441Y-81218090D01*
X79782431Y-81005890D01*
X79833440Y-80754000D01*
X79833440Y-79504000D01*
X79789162Y-79268683D01*
X79650090Y-79052559D01*
X79437890Y-78907569D01*
X79188173Y-78857000D01*
X83221198Y-78857000D01*
X84427000Y-80062802D01*
X84427000Y-84085000D01*
X84484852Y-84375839D01*
X84649599Y-84622401D01*
X85098173Y-85070975D01*
X85049569Y-85142110D01*
X84998560Y-85394000D01*
X84998560Y-86294000D01*
X85042838Y-86529317D01*
X85181910Y-86745441D01*
X85394110Y-86890431D01*
X85646000Y-86941440D01*
X86846000Y-86941440D01*
X87081317Y-86897162D01*
X87297441Y-86758090D01*
X87345134Y-86688289D01*
X87381910Y-86745441D01*
X87594110Y-86890431D01*
X87846000Y-86941440D01*
X89046000Y-86941440D01*
X89281317Y-86897162D01*
X89497441Y-86758090D01*
X89591794Y-86620000D01*
X89797560Y-86620000D01*
X89797560Y-86860000D01*
X89841838Y-87095317D01*
X89980910Y-87311441D01*
X90193110Y-87456431D01*
X90385000Y-87495290D01*
X90385000Y-87508317D01*
X90254683Y-87532838D01*
X90151354Y-87599329D01*
X90149698Y-87597673D01*
X89916309Y-87501000D01*
X89475750Y-87501000D01*
X89317000Y-87659750D01*
X89317000Y-88384000D01*
X89337000Y-88384000D01*
X89337000Y-88638000D01*
X89317000Y-88638000D01*
X89317000Y-89362250D01*
X89475750Y-89521000D01*
X89916309Y-89521000D01*
X90149698Y-89424327D01*
X90151068Y-89422957D01*
X90238110Y-89482431D01*
X90490000Y-89533440D01*
X91690000Y-89533440D01*
X91925317Y-89489162D01*
X92141441Y-89350090D01*
X92195481Y-89271000D01*
X92329895Y-89271000D01*
X92420910Y-89412441D01*
X92633110Y-89557431D01*
X92885000Y-89608440D01*
X94085000Y-89608440D01*
X94320317Y-89564162D01*
X94357098Y-89540494D01*
X94356838Y-89839167D01*
X94498883Y-90182943D01*
X94761673Y-90446192D01*
X95105201Y-90588838D01*
X95477167Y-90589162D01*
X95820943Y-90447117D01*
X96084192Y-90184327D01*
X96226838Y-89840799D01*
X96226848Y-89829310D01*
X96240079Y-89816079D01*
X96392310Y-89588248D01*
X96520317Y-89564162D01*
X96736441Y-89425090D01*
X96881431Y-89212890D01*
X96932440Y-88961000D01*
X96932440Y-88061000D01*
X96888162Y-87825683D01*
X96749090Y-87609559D01*
X96536890Y-87464569D01*
X96415918Y-87440072D01*
X96516698Y-87398327D01*
X96695327Y-87219699D01*
X96792000Y-86986310D01*
X96792000Y-86145750D01*
X96633250Y-85987000D01*
X95584000Y-85987000D01*
X95584000Y-86007000D01*
X95330000Y-86007000D01*
X95330000Y-85987000D01*
X94280750Y-85987000D01*
X94122000Y-86145750D01*
X94122000Y-86986310D01*
X94218673Y-87219699D01*
X94397302Y-87398327D01*
X94630691Y-87495000D01*
X94791932Y-87495000D01*
X94633559Y-87596910D01*
X94585866Y-87666711D01*
X94549090Y-87609559D01*
X94336890Y-87464569D01*
X94085000Y-87413560D01*
X92885000Y-87413560D01*
X92649683Y-87457838D01*
X92433559Y-87596910D01*
X92328274Y-87751000D01*
X92196844Y-87751000D01*
X92154090Y-87684559D01*
X91941890Y-87539569D01*
X91905000Y-87532099D01*
X91905000Y-87496150D01*
X92080317Y-87463162D01*
X92296441Y-87324090D01*
X92441431Y-87111890D01*
X92492440Y-86860000D01*
X92492440Y-84860000D01*
X92468674Y-84733690D01*
X94122000Y-84733690D01*
X94122000Y-85574250D01*
X94280750Y-85733000D01*
X95330000Y-85733000D01*
X95330000Y-84383750D01*
X95584000Y-84383750D01*
X95584000Y-85733000D01*
X96633250Y-85733000D01*
X96792000Y-85574250D01*
X96792000Y-84733690D01*
X96695327Y-84500301D01*
X96516698Y-84321673D01*
X96283309Y-84225000D01*
X95742750Y-84225000D01*
X95584000Y-84383750D01*
X95330000Y-84383750D01*
X95171250Y-84225000D01*
X94630691Y-84225000D01*
X94397302Y-84321673D01*
X94218673Y-84500301D01*
X94122000Y-84733690D01*
X92468674Y-84733690D01*
X92448162Y-84624683D01*
X92309090Y-84408559D01*
X92096890Y-84263569D01*
X91845000Y-84212560D01*
X90445000Y-84212560D01*
X90209683Y-84256838D01*
X89993559Y-84395910D01*
X89848569Y-84608110D01*
X89797560Y-84860000D01*
X89797560Y-85100000D01*
X89611401Y-85100000D01*
X89510090Y-84942559D01*
X89297890Y-84797569D01*
X89046000Y-84746560D01*
X87846000Y-84746560D01*
X87610683Y-84790838D01*
X87394559Y-84929910D01*
X87346866Y-84999711D01*
X87310090Y-84942559D01*
X87097890Y-84797569D01*
X86881758Y-84753801D01*
X86783401Y-84606599D01*
X85947000Y-83770198D01*
X85947000Y-81049750D01*
X88233730Y-81049750D01*
X88233730Y-81290359D01*
X88330403Y-81523748D01*
X88509031Y-81702377D01*
X88742420Y-81799050D01*
X88983030Y-81799050D01*
X89141780Y-81640300D01*
X89141780Y-80891000D01*
X88392480Y-80891000D01*
X88233730Y-81049750D01*
X85947000Y-81049750D01*
X85947000Y-80237641D01*
X88233730Y-80237641D01*
X88233730Y-80478250D01*
X88392480Y-80637000D01*
X89141780Y-80637000D01*
X89141780Y-79887700D01*
X88983030Y-79728950D01*
X88742420Y-79728950D01*
X88509031Y-79825623D01*
X88330403Y-80004252D01*
X88233730Y-80237641D01*
X85947000Y-80237641D01*
X85947000Y-79748000D01*
X85889148Y-79457161D01*
X85724401Y-79210599D01*
X84195552Y-77681750D01*
X85002500Y-77681750D01*
X85002500Y-78122309D01*
X85099173Y-78355698D01*
X85277801Y-78534327D01*
X85511190Y-78631000D01*
X85726750Y-78631000D01*
X85885500Y-78472250D01*
X85885500Y-77523000D01*
X86139500Y-77523000D01*
X86139500Y-78472250D01*
X86298250Y-78631000D01*
X86513810Y-78631000D01*
X86747199Y-78534327D01*
X86925827Y-78355698D01*
X87022500Y-78122309D01*
X87022500Y-77681750D01*
X86863750Y-77523000D01*
X86139500Y-77523000D01*
X85885500Y-77523000D01*
X85161250Y-77523000D01*
X85002500Y-77681750D01*
X84195552Y-77681750D01*
X84073401Y-77559599D01*
X83826839Y-77394852D01*
X83536000Y-77337000D01*
X79726923Y-77337000D01*
X80109242Y-76954681D01*
X80117642Y-76953010D01*
X80372314Y-76782844D01*
X80813158Y-76342000D01*
X83760494Y-76342000D01*
X83767673Y-76349192D01*
X84111201Y-76491838D01*
X84483167Y-76492162D01*
X84826943Y-76350117D01*
X84896181Y-76281000D01*
X85024870Y-76281000D01*
X85034338Y-76331317D01*
X85100829Y-76434646D01*
X85099173Y-76436302D01*
X85002500Y-76669691D01*
X85002500Y-77110250D01*
X85161250Y-77269000D01*
X85885500Y-77269000D01*
X85885500Y-77249000D01*
X86139500Y-77249000D01*
X86139500Y-77269000D01*
X86863750Y-77269000D01*
X87022500Y-77110250D01*
X87022500Y-76669691D01*
X86925827Y-76436302D01*
X86924457Y-76434932D01*
X86983931Y-76347890D01*
X87034940Y-76096000D01*
X87034940Y-75812200D01*
X87153950Y-75812200D01*
X87186938Y-75987517D01*
X87253671Y-76091223D01*
X87188808Y-76155973D01*
X87046162Y-76499501D01*
X87045838Y-76871467D01*
X87187883Y-77215243D01*
X87450673Y-77478492D01*
X87794201Y-77621138D01*
X88029118Y-77621343D01*
X88076883Y-77736943D01*
X88339673Y-78000192D01*
X88603554Y-78109765D01*
X88711883Y-78371943D01*
X88974673Y-78635192D01*
X89318201Y-78777838D01*
X89379241Y-78777891D01*
X89473883Y-79006943D01*
X89736673Y-79270192D01*
X90080201Y-79412838D01*
X90220470Y-79412960D01*
X90220270Y-79413950D01*
X90220270Y-80035910D01*
X90207157Y-80004252D01*
X90028529Y-79825623D01*
X89795140Y-79728950D01*
X89554530Y-79728950D01*
X89395780Y-79887700D01*
X89395780Y-80637000D01*
X90145080Y-80637000D01*
X90291237Y-80490843D01*
X90403620Y-80665491D01*
X90548717Y-80764632D01*
X90416269Y-80849860D01*
X90289489Y-81035409D01*
X90145080Y-80891000D01*
X89395780Y-80891000D01*
X89395780Y-81640300D01*
X89554530Y-81799050D01*
X89584627Y-81799050D01*
X89459162Y-82101201D01*
X89458838Y-82473167D01*
X89600883Y-82816943D01*
X89863673Y-83080192D01*
X90207201Y-83222838D01*
X90579167Y-83223162D01*
X90922943Y-83081117D01*
X90990129Y-83014048D01*
X90994167Y-83013245D01*
X91248839Y-82843079D01*
X91330428Y-82761490D01*
X91667810Y-82761490D01*
X91903127Y-82717212D01*
X92119251Y-82578140D01*
X92264241Y-82365940D01*
X92315250Y-82114050D01*
X92315250Y-81961650D01*
X93067000Y-81961650D01*
X93067000Y-82402209D01*
X93163673Y-82635598D01*
X93342301Y-82814227D01*
X93575690Y-82910900D01*
X93791250Y-82910900D01*
X93950000Y-82752150D01*
X93950000Y-81802900D01*
X94204000Y-81802900D01*
X94204000Y-82752150D01*
X94362750Y-82910900D01*
X94578310Y-82910900D01*
X94811699Y-82814227D01*
X94990327Y-82635598D01*
X95087000Y-82402209D01*
X95087000Y-81961650D01*
X95137100Y-81961650D01*
X95137100Y-82402209D01*
X95233773Y-82635598D01*
X95412401Y-82814227D01*
X95645790Y-82910900D01*
X95861350Y-82910900D01*
X96020100Y-82752150D01*
X96020100Y-81802900D01*
X96274100Y-81802900D01*
X96274100Y-82752150D01*
X96432850Y-82910900D01*
X96648410Y-82910900D01*
X96881799Y-82814227D01*
X97060427Y-82635598D01*
X97157100Y-82402209D01*
X97157100Y-81961650D01*
X96998350Y-81802900D01*
X96274100Y-81802900D01*
X96020100Y-81802900D01*
X95295850Y-81802900D01*
X95137100Y-81961650D01*
X95087000Y-81961650D01*
X94928250Y-81802900D01*
X94204000Y-81802900D01*
X93950000Y-81802900D01*
X93225750Y-81802900D01*
X93067000Y-81961650D01*
X92315250Y-81961650D01*
X92315250Y-81313950D01*
X92270972Y-81078633D01*
X92131900Y-80862509D01*
X91986803Y-80763368D01*
X92119251Y-80678140D01*
X92216439Y-80535900D01*
X93084666Y-80535900D01*
X93098838Y-80611217D01*
X93165329Y-80714546D01*
X93163673Y-80716202D01*
X93067000Y-80949591D01*
X93067000Y-81390150D01*
X93225750Y-81548900D01*
X93950000Y-81548900D01*
X93950000Y-81528900D01*
X94204000Y-81528900D01*
X94204000Y-81548900D01*
X94928250Y-81548900D01*
X95087000Y-81390150D01*
X95087000Y-80949591D01*
X94990327Y-80716202D01*
X94988957Y-80714832D01*
X95048431Y-80627790D01*
X95067039Y-80535900D01*
X95154766Y-80535900D01*
X95168938Y-80611217D01*
X95235429Y-80714546D01*
X95233773Y-80716202D01*
X95137100Y-80949591D01*
X95137100Y-81390150D01*
X95295850Y-81548900D01*
X96020100Y-81548900D01*
X96020100Y-81528900D01*
X96274100Y-81528900D01*
X96274100Y-81548900D01*
X96998350Y-81548900D01*
X97157100Y-81390150D01*
X97157100Y-80949591D01*
X97060427Y-80716202D01*
X97059057Y-80714832D01*
X97118531Y-80627790D01*
X97169540Y-80375900D01*
X97169540Y-79175900D01*
X97125262Y-78940583D01*
X96986190Y-78724459D01*
X96773990Y-78579469D01*
X96522100Y-78528460D01*
X95772100Y-78528460D01*
X95536783Y-78572738D01*
X95320659Y-78711810D01*
X95175669Y-78924010D01*
X95157061Y-79015900D01*
X95069334Y-79015900D01*
X95055162Y-78940583D01*
X94916090Y-78724459D01*
X94703890Y-78579469D01*
X94452000Y-78528460D01*
X93702000Y-78528460D01*
X93466683Y-78572738D01*
X93250559Y-78711810D01*
X93105569Y-78924010D01*
X93086961Y-79015900D01*
X92166256Y-79015900D01*
X92131900Y-78962509D01*
X92025100Y-78889536D01*
X92025100Y-78434935D01*
X92239201Y-78523838D01*
X92611167Y-78524162D01*
X92954943Y-78382117D01*
X93051478Y-78285750D01*
X101451400Y-78285750D01*
X101451400Y-78989909D01*
X101548073Y-79223298D01*
X101726701Y-79401927D01*
X101960090Y-79498600D01*
X102664250Y-79498600D01*
X102823000Y-79339850D01*
X102823000Y-78127000D01*
X101610150Y-78127000D01*
X101451400Y-78285750D01*
X93051478Y-78285750D01*
X93218192Y-78119327D01*
X93296849Y-77929900D01*
X95174695Y-77929900D01*
X95265710Y-78071341D01*
X95477910Y-78216331D01*
X95729800Y-78267340D01*
X96929800Y-78267340D01*
X97165117Y-78223062D01*
X97381241Y-78083990D01*
X97427769Y-78015894D01*
X97570102Y-78158227D01*
X97803491Y-78254900D01*
X98244050Y-78254900D01*
X98402800Y-78096150D01*
X98402800Y-77296900D01*
X98656800Y-77296900D01*
X98656800Y-78096150D01*
X98815550Y-78254900D01*
X99256109Y-78254900D01*
X99489498Y-78158227D01*
X99668127Y-77979599D01*
X99764800Y-77746210D01*
X99764800Y-77455650D01*
X99606050Y-77296900D01*
X98656800Y-77296900D01*
X98402800Y-77296900D01*
X98382800Y-77296900D01*
X98382800Y-77042900D01*
X98402800Y-77042900D01*
X98402800Y-76243650D01*
X98656800Y-76243650D01*
X98656800Y-77042900D01*
X99606050Y-77042900D01*
X99764800Y-76884150D01*
X99764800Y-76593590D01*
X99668127Y-76360201D01*
X99489498Y-76181573D01*
X99256109Y-76084900D01*
X98815550Y-76084900D01*
X98656800Y-76243650D01*
X98402800Y-76243650D01*
X98244050Y-76084900D01*
X97803491Y-76084900D01*
X97570102Y-76181573D01*
X97428864Y-76322810D01*
X97393890Y-76268459D01*
X97181690Y-76123469D01*
X96929800Y-76072460D01*
X95729800Y-76072460D01*
X95494483Y-76116738D01*
X95278359Y-76255810D01*
X95173074Y-76409900D01*
X93591702Y-76409900D01*
X93566547Y-76384745D01*
X93640100Y-76399640D01*
X94090100Y-76399640D01*
X94325417Y-76355362D01*
X94541541Y-76216290D01*
X94686531Y-76004090D01*
X94725390Y-75812200D01*
X94860800Y-75812200D01*
X95161207Y-75752445D01*
X95415879Y-75582279D01*
X96562479Y-74435679D01*
X96732645Y-74181007D01*
X96767226Y-74007155D01*
X96833841Y-73964290D01*
X96978831Y-73752090D01*
X97029840Y-73500200D01*
X97029840Y-72300200D01*
X96985562Y-72064883D01*
X96919071Y-71961554D01*
X96920727Y-71959898D01*
X97017400Y-71726509D01*
X97017400Y-71285950D01*
X96858650Y-71127200D01*
X96134400Y-71127200D01*
X96134400Y-71147200D01*
X95880400Y-71147200D01*
X95880400Y-71127200D01*
X95156150Y-71127200D01*
X94997400Y-71285950D01*
X94997400Y-71726509D01*
X95094073Y-71959898D01*
X95095443Y-71961268D01*
X95035969Y-72048310D01*
X95029636Y-72079586D01*
X94691057Y-72219483D01*
X94427808Y-72482273D01*
X94285162Y-72825801D01*
X94284838Y-73197767D01*
X94426883Y-73541543D01*
X94689673Y-73804792D01*
X94889906Y-73887936D01*
X94696065Y-74081777D01*
X94693262Y-74066883D01*
X94554190Y-73850759D01*
X94341990Y-73705769D01*
X94090100Y-73654760D01*
X93640100Y-73654760D01*
X93536429Y-73674267D01*
X93440100Y-73654760D01*
X93360888Y-73654760D01*
X93361162Y-73339833D01*
X93219117Y-72996057D01*
X92956327Y-72732808D01*
X92612799Y-72590162D01*
X92240833Y-72589838D01*
X91897057Y-72731883D01*
X91633808Y-72994673D01*
X91491162Y-73338201D01*
X91490886Y-73654919D01*
X91490100Y-73654760D01*
X91282716Y-73654760D01*
X91152501Y-73459879D01*
X89330193Y-71637571D01*
X89083631Y-71472824D01*
X88792792Y-71414972D01*
X85807003Y-71414971D01*
X84242632Y-69850600D01*
X85251556Y-69850600D01*
X85542395Y-69792748D01*
X85788957Y-69628001D01*
X85941245Y-69475713D01*
X86016201Y-69506838D01*
X86388167Y-69507162D01*
X86731943Y-69365117D01*
X86995192Y-69102327D01*
X87137838Y-68758799D01*
X87138162Y-68386833D01*
X87091345Y-68273526D01*
X87169447Y-68241255D01*
X87155100Y-68275891D01*
X87155100Y-68841450D01*
X87313850Y-69000200D01*
X87792660Y-69000200D01*
X87792660Y-69254200D01*
X87313850Y-69254200D01*
X87155100Y-69412950D01*
X87155100Y-69978509D01*
X87251773Y-70211898D01*
X87430401Y-70390527D01*
X87663790Y-70487200D01*
X87743850Y-70487200D01*
X87902600Y-70328450D01*
X87902600Y-70189559D01*
X87976010Y-70303641D01*
X88188210Y-70448631D01*
X88262908Y-70463758D01*
X88286350Y-70487200D01*
X88366410Y-70487200D01*
X88370435Y-70485533D01*
X88440100Y-70499640D01*
X88890100Y-70499640D01*
X88993771Y-70480133D01*
X89090100Y-70499640D01*
X89540100Y-70499640D01*
X89643771Y-70480133D01*
X89740100Y-70499640D01*
X90190100Y-70499640D01*
X90293771Y-70480133D01*
X90347987Y-70491112D01*
X90347838Y-70662167D01*
X90489883Y-71005943D01*
X90752673Y-71269192D01*
X91096201Y-71411838D01*
X91468167Y-71412162D01*
X91692363Y-71319526D01*
X91895673Y-71523192D01*
X92239201Y-71665838D01*
X92611167Y-71666162D01*
X92954943Y-71524117D01*
X93218192Y-71261327D01*
X93360838Y-70917799D01*
X93361162Y-70545833D01*
X93342075Y-70499640D01*
X93440100Y-70499640D01*
X93511423Y-70486220D01*
X93513790Y-70487200D01*
X93593850Y-70487200D01*
X93614162Y-70466888D01*
X93675417Y-70455362D01*
X93891541Y-70316290D01*
X93977600Y-70190338D01*
X93977600Y-70328450D01*
X94136350Y-70487200D01*
X94216410Y-70487200D01*
X94449799Y-70390527D01*
X94566434Y-70273891D01*
X94997400Y-70273891D01*
X94997400Y-70714450D01*
X95156150Y-70873200D01*
X95880400Y-70873200D01*
X95880400Y-69923950D01*
X96134400Y-69923950D01*
X96134400Y-70873200D01*
X96858650Y-70873200D01*
X97017400Y-70714450D01*
X97017400Y-70273891D01*
X96920727Y-70040502D01*
X96742099Y-69861873D01*
X96508710Y-69765200D01*
X96293150Y-69765200D01*
X96134400Y-69923950D01*
X95880400Y-69923950D01*
X95721650Y-69765200D01*
X95506090Y-69765200D01*
X95272701Y-69861873D01*
X95094073Y-70040502D01*
X94997400Y-70273891D01*
X94566434Y-70273891D01*
X94628427Y-70211898D01*
X94725100Y-69978509D01*
X94725100Y-69412950D01*
X94566350Y-69254200D01*
X94087540Y-69254200D01*
X94087540Y-69000200D01*
X94566350Y-69000200D01*
X94725100Y-68841450D01*
X94725100Y-68275891D01*
X94628427Y-68042502D01*
X94449799Y-67863873D01*
X94216410Y-67767200D01*
X94136350Y-67767200D01*
X93992102Y-67911448D01*
X93992102Y-67767200D01*
X93935934Y-67767200D01*
X93917248Y-67673261D01*
X93917248Y-67673260D01*
X93869072Y-67601160D01*
X93869162Y-67497833D01*
X93727117Y-67154057D01*
X93464327Y-66890808D01*
X93120799Y-66748162D01*
X92748833Y-66747838D01*
X92583216Y-66816269D01*
X92725838Y-66472799D01*
X92725942Y-66353010D01*
X93118990Y-66353010D01*
X93409829Y-66295158D01*
X93656391Y-66130411D01*
X94518802Y-65268000D01*
X99477198Y-65268000D01*
X100175000Y-65965802D01*
X100175000Y-69715000D01*
X100232852Y-70005839D01*
X100397599Y-70252401D01*
X101062599Y-70917401D01*
X101309161Y-71082148D01*
X101600000Y-71140000D01*
X101670480Y-71140000D01*
X101890330Y-71469029D01*
X102161172Y-71650000D01*
X101890330Y-71830971D01*
X101565474Y-72317152D01*
X101451400Y-72890641D01*
X101451400Y-72949359D01*
X101565474Y-73522848D01*
X101890330Y-74009029D01*
X102161172Y-74190000D01*
X101890330Y-74370971D01*
X101565474Y-74857152D01*
X101451400Y-75430641D01*
X101451400Y-75489359D01*
X101565474Y-76062848D01*
X101880526Y-76534356D01*
X101726701Y-76598073D01*
X101548073Y-76776702D01*
X101451400Y-77010091D01*
X101451400Y-77714250D01*
X101610150Y-77873000D01*
X102823000Y-77873000D01*
X102823000Y-77853000D01*
X103077000Y-77853000D01*
X103077000Y-77873000D01*
X103097000Y-77873000D01*
X103097000Y-78127000D01*
X103077000Y-78127000D01*
X103077000Y-79339850D01*
X103235750Y-79498600D01*
X103939910Y-79498600D01*
X104173299Y-79401927D01*
X104351927Y-79223298D01*
X104416263Y-79067977D01*
X104430330Y-79089029D01*
X104916511Y-79413885D01*
X105490000Y-79527959D01*
X106063489Y-79413885D01*
X106549670Y-79089029D01*
X106874526Y-78602848D01*
X106988600Y-78029359D01*
X106988600Y-77970641D01*
X106874526Y-77397152D01*
X106549670Y-76910971D01*
X106278828Y-76730000D01*
X106549670Y-76549029D01*
X106874526Y-76062848D01*
X106988600Y-75489359D01*
X106988600Y-75430641D01*
X106874526Y-74857152D01*
X106549670Y-74370971D01*
X106278828Y-74190000D01*
X106549670Y-74009029D01*
X106874526Y-73522848D01*
X106988600Y-72949359D01*
X106988600Y-72890641D01*
X106923158Y-72561644D01*
X108272411Y-71212391D01*
X108437158Y-70965829D01*
X108495010Y-70674990D01*
X108495010Y-64323010D01*
X108437158Y-64032171D01*
X108272411Y-63785609D01*
X106948402Y-62461600D01*
X106701840Y-62296853D01*
X106411001Y-62239001D01*
X89870999Y-62239001D01*
X89580160Y-62296853D01*
X89333598Y-62461600D01*
X88095320Y-63699878D01*
X88049833Y-63699838D01*
X87706057Y-63841883D01*
X87603281Y-63944479D01*
X87375401Y-63716599D01*
X87128839Y-63551852D01*
X86838000Y-63494000D01*
X82299500Y-63494000D01*
X82330441Y-63474090D01*
X82373635Y-63410873D01*
X82705167Y-63411162D01*
X82991608Y-63292807D01*
X83133000Y-63321440D01*
X84193000Y-63321440D01*
X84428317Y-63277162D01*
X84644441Y-63138090D01*
X84671495Y-63098495D01*
X84793407Y-63074245D01*
X84823170Y-63054358D01*
X84868910Y-63125441D01*
X85081110Y-63270431D01*
X85333000Y-63321440D01*
X86393000Y-63321440D01*
X86628317Y-63277162D01*
X86844441Y-63138090D01*
X86989431Y-62925890D01*
X87040440Y-62674000D01*
X87040440Y-62024000D01*
X86996162Y-61788683D01*
X86857090Y-61572559D01*
X86644890Y-61427569D01*
X86507880Y-61399824D01*
X86628317Y-61377162D01*
X86844441Y-61238090D01*
X86850652Y-61229000D01*
X87083243Y-61229000D01*
X87109910Y-61270441D01*
X87201155Y-61332786D01*
X87173162Y-61400201D01*
X87172838Y-61772167D01*
X87314883Y-62115943D01*
X87577673Y-62379192D01*
X87921201Y-62521838D01*
X88293167Y-62522162D01*
X88636943Y-62380117D01*
X88900192Y-62117327D01*
X89042838Y-61773799D01*
X89043162Y-61401833D01*
X89042689Y-61400688D01*
X89112646Y-61355671D01*
X89114302Y-61357327D01*
X89347691Y-61454000D01*
X89788250Y-61454000D01*
X89947000Y-61295250D01*
X89947000Y-60571000D01*
X90201000Y-60571000D01*
X90201000Y-61295250D01*
X90359750Y-61454000D01*
X90800309Y-61454000D01*
X91033698Y-61357327D01*
X91212327Y-61178699D01*
X91309000Y-60945310D01*
X91309000Y-60729750D01*
X91150250Y-60571000D01*
X90201000Y-60571000D01*
X89947000Y-60571000D01*
X89927000Y-60571000D01*
X89927000Y-60317000D01*
X89947000Y-60317000D01*
X89947000Y-59592750D01*
X90201000Y-59592750D01*
X90201000Y-60317000D01*
X91150250Y-60317000D01*
X91309000Y-60158250D01*
X91309000Y-59942690D01*
X91212327Y-59709301D01*
X91033698Y-59530673D01*
X90800309Y-59434000D01*
X90359750Y-59434000D01*
X90201000Y-59592750D01*
X89947000Y-59592750D01*
X89788250Y-59434000D01*
X89347691Y-59434000D01*
X89114302Y-59530673D01*
X89112932Y-59532043D01*
X89025890Y-59472569D01*
X88774000Y-59421560D01*
X87574000Y-59421560D01*
X87338683Y-59465838D01*
X87122559Y-59604910D01*
X87085601Y-59659000D01*
X86837246Y-59659000D01*
X86644890Y-59527569D01*
X86393000Y-59476560D01*
X85333000Y-59476560D01*
X85097683Y-59520838D01*
X84881559Y-59659910D01*
X84823978Y-59744182D01*
X84793407Y-59723755D01*
X84674860Y-59700174D01*
X84657090Y-59672559D01*
X84444890Y-59527569D01*
X84193000Y-59476560D01*
X83133000Y-59476560D01*
X82897683Y-59520838D01*
X82681559Y-59659910D01*
X82536569Y-59872110D01*
X82514000Y-59983559D01*
X82514000Y-59783691D01*
X82417327Y-59550302D01*
X82238699Y-59371673D01*
X82005310Y-59275000D01*
X81789750Y-59275000D01*
X81631000Y-59433750D01*
X81631000Y-60383000D01*
X81651000Y-60383000D01*
X81651000Y-60637000D01*
X81631000Y-60637000D01*
X81631000Y-60657000D01*
X81377000Y-60657000D01*
X81377000Y-60637000D01*
X80652750Y-60637000D01*
X80494000Y-60795750D01*
X80494000Y-61236309D01*
X80590673Y-61469698D01*
X80592043Y-61471068D01*
X80532569Y-61558110D01*
X80481560Y-61810000D01*
X80481560Y-63010000D01*
X80525838Y-63245317D01*
X80664910Y-63461441D01*
X80712562Y-63494000D01*
X78202000Y-63494000D01*
X77988833Y-63536402D01*
X77911160Y-63551852D01*
X77664599Y-63716599D01*
X77426200Y-63954998D01*
X76797940Y-63326738D01*
X76797940Y-63104100D01*
X76766874Y-62939000D01*
X77261666Y-62939000D01*
X77275838Y-63014317D01*
X77414910Y-63230441D01*
X77627110Y-63375431D01*
X77879000Y-63426440D01*
X78779000Y-63426440D01*
X79014317Y-63382162D01*
X79230441Y-63243090D01*
X79375431Y-63030890D01*
X79426440Y-62779000D01*
X79426440Y-61579000D01*
X79382162Y-61343683D01*
X79243090Y-61127559D01*
X79173289Y-61079866D01*
X79230441Y-61043090D01*
X79375431Y-60830890D01*
X79426440Y-60579000D01*
X79426440Y-59783691D01*
X80494000Y-59783691D01*
X80494000Y-60224250D01*
X80652750Y-60383000D01*
X81377000Y-60383000D01*
X81377000Y-59433750D01*
X81218250Y-59275000D01*
X81002690Y-59275000D01*
X80769301Y-59371673D01*
X80590673Y-59550302D01*
X80494000Y-59783691D01*
X79426440Y-59783691D01*
X79426440Y-59379000D01*
X79382162Y-59143683D01*
X79243090Y-58927559D01*
X79030890Y-58782569D01*
X78779000Y-58731560D01*
X77879000Y-58731560D01*
X77643683Y-58775838D01*
X77427559Y-58914910D01*
X77282569Y-59127110D01*
X77269023Y-59194000D01*
X77016000Y-59194000D01*
X76715593Y-59253755D01*
X76523862Y-59381865D01*
X76492833Y-59381838D01*
X76149057Y-59523883D01*
X75885808Y-59786673D01*
X75743162Y-60130201D01*
X75742838Y-60502167D01*
X75884883Y-60845943D01*
X76147673Y-61109192D01*
X76491201Y-61251838D01*
X76863167Y-61252162D01*
X77206943Y-61110117D01*
X77364787Y-60952548D01*
X77414910Y-61030441D01*
X77484711Y-61078134D01*
X77427559Y-61114910D01*
X77282569Y-61327110D01*
X77263961Y-61419000D01*
X76633833Y-61419000D01*
X76601890Y-61369359D01*
X76389690Y-61224369D01*
X76137800Y-61173360D01*
X75287800Y-61173360D01*
X75177079Y-61194194D01*
X75074200Y-61173360D01*
X74224200Y-61173360D01*
X74065990Y-61203129D01*
X74295192Y-60974327D01*
X74437838Y-60630799D01*
X74438162Y-60258833D01*
X74296117Y-59915057D01*
X74033327Y-59651808D01*
X73689799Y-59509162D01*
X73678310Y-59509152D01*
X73593079Y-59423921D01*
X73338407Y-59253755D01*
X73173709Y-59220994D01*
X73159162Y-59143683D01*
X73020090Y-58927559D01*
X72807890Y-58782569D01*
X72556000Y-58731560D01*
X71656000Y-58731560D01*
X71420683Y-58775838D01*
X71204559Y-58914910D01*
X71059569Y-59127110D01*
X71008560Y-59379000D01*
X71008560Y-60579000D01*
X71052838Y-60814317D01*
X71191910Y-61030441D01*
X71261711Y-61078134D01*
X71204559Y-61114910D01*
X71059569Y-61327110D01*
X71008560Y-61579000D01*
X71008560Y-62779000D01*
X71052838Y-63014317D01*
X71191910Y-63230441D01*
X71404110Y-63375431D01*
X71656000Y-63426440D01*
X72556000Y-63426440D01*
X72791317Y-63382162D01*
X73007441Y-63243090D01*
X73152431Y-63030890D01*
X73177762Y-62905800D01*
X73616917Y-62905800D01*
X73576760Y-63104100D01*
X73576760Y-63754100D01*
X73588462Y-63816289D01*
X73308799Y-63700162D01*
X72936833Y-63699838D01*
X72593057Y-63841883D01*
X72329808Y-64104673D01*
X72187162Y-64448201D01*
X72186838Y-64820167D01*
X72328883Y-65163943D01*
X72362000Y-65197118D01*
X72362000Y-66921200D01*
X72418960Y-67207555D01*
X72418960Y-67640600D01*
X72460728Y-67862575D01*
X72241400Y-67818160D01*
X70941400Y-67818160D01*
X70875287Y-67830600D01*
X69556502Y-67830600D01*
X66820800Y-65094898D01*
X66820800Y-64953283D01*
X67260578Y-64659433D01*
X67618470Y-64123810D01*
X67744145Y-63492000D01*
X67618470Y-62860190D01*
X67260578Y-62324567D01*
X66724955Y-61966675D01*
X66093145Y-61841000D01*
X66028455Y-61841000D01*
X65396645Y-61966675D01*
X65093838Y-62169004D01*
X65000890Y-62024559D01*
X64788690Y-61879569D01*
X64536800Y-61828560D01*
X62504800Y-61828560D01*
X62269483Y-61872838D01*
X62053359Y-62011910D01*
X61908369Y-62224110D01*
X61857360Y-62476000D01*
X61857360Y-64508000D01*
X61901638Y-64743317D01*
X62040710Y-64959441D01*
X62252910Y-65104431D01*
X62504800Y-65155440D01*
X62760800Y-65155440D01*
X62760800Y-66675700D01*
X62818652Y-66966539D01*
X62983399Y-67213101D01*
X63482699Y-67712401D01*
X63729261Y-67877148D01*
X64020100Y-67935000D01*
X66584198Y-67935000D01*
X66658758Y-68009560D01*
X65060000Y-68009560D01*
X64824683Y-68053838D01*
X64608559Y-68192910D01*
X64463569Y-68405110D01*
X64455086Y-68447000D01*
X64364844Y-68447000D01*
X64322090Y-68380559D01*
X64109890Y-68235569D01*
X63858000Y-68184560D01*
X63058000Y-68184560D01*
X62822683Y-68228838D01*
X62719354Y-68295329D01*
X62717698Y-68293673D01*
X62484309Y-68197000D01*
X62243750Y-68197000D01*
X62085000Y-68355750D01*
X62085000Y-69080000D01*
X62105000Y-69080000D01*
X62105000Y-69334000D01*
X62085000Y-69334000D01*
X62085000Y-70058250D01*
X62243750Y-70217000D01*
X62484309Y-70217000D01*
X62717698Y-70120327D01*
X62719068Y-70118957D01*
X62806110Y-70178431D01*
X63058000Y-70229440D01*
X63858000Y-70229440D01*
X64093317Y-70185162D01*
X64309441Y-70046090D01*
X64363481Y-69967000D01*
X64452074Y-69967000D01*
X64456838Y-69992317D01*
X64595910Y-70208441D01*
X64808110Y-70353431D01*
X65060000Y-70404440D01*
X66637758Y-70404440D01*
X66532638Y-70509560D01*
X65060000Y-70509560D01*
X64824683Y-70553838D01*
X64608559Y-70692910D01*
X64463569Y-70905110D01*
X64455086Y-70947000D01*
X64339104Y-70947000D01*
X64322090Y-70920559D01*
X64109890Y-70775569D01*
X63858000Y-70724560D01*
X63058000Y-70724560D01*
X62822683Y-70768838D01*
X62719354Y-70835329D01*
X62717698Y-70833673D01*
X62484309Y-70737000D01*
X62243750Y-70737000D01*
X62085000Y-70895750D01*
X62085000Y-71620000D01*
X62105000Y-71620000D01*
X62105000Y-71874000D01*
X62085000Y-71874000D01*
X62085000Y-72598250D01*
X62243750Y-72757000D01*
X62484309Y-72757000D01*
X62717698Y-72660327D01*
X62719068Y-72658957D01*
X62806110Y-72718431D01*
X63058000Y-72769440D01*
X63858000Y-72769440D01*
X64093317Y-72725162D01*
X64309441Y-72586090D01*
X64390812Y-72467000D01*
X64452074Y-72467000D01*
X64456838Y-72492317D01*
X64595910Y-72708441D01*
X64808110Y-72853431D01*
X65060000Y-72904440D01*
X66825758Y-72904440D01*
X66076198Y-73654000D01*
X59684409Y-73654000D01*
X59690192Y-73648227D01*
X59832838Y-73304699D01*
X59833162Y-72932733D01*
X59691117Y-72588957D01*
X59428327Y-72325708D01*
X59084799Y-72183062D01*
X59035697Y-72183019D01*
X58810803Y-72032750D01*
X60923000Y-72032750D01*
X60923000Y-72248310D01*
X61019673Y-72481699D01*
X61198302Y-72660327D01*
X61431691Y-72757000D01*
X61672250Y-72757000D01*
X61831000Y-72598250D01*
X61831000Y-71874000D01*
X61081750Y-71874000D01*
X60923000Y-72032750D01*
X58810803Y-72032750D01*
X58795839Y-72022752D01*
X58744199Y-72012480D01*
X58719090Y-71973459D01*
X58506890Y-71828469D01*
X58255000Y-71777460D01*
X57255000Y-71777460D01*
X57019683Y-71821738D01*
X56803559Y-71960810D01*
X56679806Y-72141929D01*
X56508000Y-72024539D01*
X56508000Y-71245690D01*
X60923000Y-71245690D01*
X60923000Y-71461250D01*
X61081750Y-71620000D01*
X61831000Y-71620000D01*
X61831000Y-70895750D01*
X61672250Y-70737000D01*
X61431691Y-70737000D01*
X61198302Y-70833673D01*
X61019673Y-71012301D01*
X60923000Y-71245690D01*
X56508000Y-71245690D01*
X56508000Y-69492750D01*
X60923000Y-69492750D01*
X60923000Y-69708310D01*
X61019673Y-69941699D01*
X61198302Y-70120327D01*
X61431691Y-70217000D01*
X61672250Y-70217000D01*
X61831000Y-70058250D01*
X61831000Y-69334000D01*
X61081750Y-69334000D01*
X60923000Y-69492750D01*
X56508000Y-69492750D01*
X56508000Y-69464139D01*
X56573221Y-69422170D01*
X56718211Y-69209970D01*
X56769220Y-68958080D01*
X56769220Y-68705690D01*
X60923000Y-68705690D01*
X60923000Y-68921250D01*
X61081750Y-69080000D01*
X61831000Y-69080000D01*
X61831000Y-68355750D01*
X61672250Y-68197000D01*
X61431691Y-68197000D01*
X61198302Y-68293673D01*
X61019673Y-68472301D01*
X60923000Y-68705690D01*
X56769220Y-68705690D01*
X56769220Y-68160520D01*
X56724942Y-67925203D01*
X56650815Y-67810007D01*
X56718211Y-67711370D01*
X56769220Y-67459480D01*
X56769220Y-66661920D01*
X56724942Y-66426603D01*
X56585870Y-66210479D01*
X56373670Y-66065489D01*
X56313000Y-66053203D01*
X56313000Y-65575334D01*
X56388317Y-65561162D01*
X56604441Y-65422090D01*
X56749431Y-65209890D01*
X56800440Y-64958000D01*
X56800440Y-64058000D01*
X56756162Y-63822683D01*
X56617090Y-63606559D01*
X56404890Y-63461569D01*
X56153000Y-63410560D01*
X54953000Y-63410560D01*
X54717683Y-63454838D01*
X54501559Y-63593910D01*
X54455031Y-63662006D01*
X54312698Y-63519673D01*
X54079309Y-63423000D01*
X53638750Y-63423000D01*
X53480000Y-63581750D01*
X53480000Y-64381000D01*
X53500000Y-64381000D01*
X53500000Y-64635000D01*
X53480000Y-64635000D01*
X53480000Y-65434250D01*
X53638750Y-65593000D01*
X54079309Y-65593000D01*
X54312698Y-65496327D01*
X54453936Y-65355090D01*
X54488910Y-65409441D01*
X54701110Y-65554431D01*
X54793000Y-65573039D01*
X54793000Y-66314590D01*
X54727789Y-66410030D01*
X54676780Y-66661920D01*
X54676780Y-67459480D01*
X54721058Y-67694797D01*
X54795185Y-67809993D01*
X54727789Y-67908630D01*
X54676780Y-68160520D01*
X54676780Y-68958080D01*
X54721058Y-69193397D01*
X54860130Y-69409521D01*
X54938000Y-69462727D01*
X54938000Y-71391251D01*
X54766799Y-71320162D01*
X54394833Y-71319838D01*
X54051057Y-71461883D01*
X53787808Y-71724673D01*
X53785430Y-71730399D01*
X52950740Y-71730399D01*
X52950740Y-70596800D01*
X52906462Y-70361483D01*
X52767390Y-70145359D01*
X52555190Y-70000369D01*
X52303300Y-69949360D01*
X50543340Y-69949360D01*
X50543340Y-69689600D01*
X50499062Y-69454283D01*
X50359990Y-69238159D01*
X50147790Y-69093169D01*
X49895900Y-69042160D01*
X48457000Y-69042160D01*
X48457000Y-64793750D01*
X52118000Y-64793750D01*
X52118000Y-65084310D01*
X52214673Y-65317699D01*
X52393302Y-65496327D01*
X52626691Y-65593000D01*
X53067250Y-65593000D01*
X53226000Y-65434250D01*
X53226000Y-64635000D01*
X52276750Y-64635000D01*
X52118000Y-64793750D01*
X48457000Y-64793750D01*
X48457000Y-63931690D01*
X52118000Y-63931690D01*
X52118000Y-64222250D01*
X52276750Y-64381000D01*
X53226000Y-64381000D01*
X53226000Y-63581750D01*
X53067250Y-63423000D01*
X52626691Y-63423000D01*
X52393302Y-63519673D01*
X52214673Y-63698301D01*
X52118000Y-63931690D01*
X48457000Y-63931690D01*
X48457000Y-61400805D01*
X48824811Y-61769259D01*
X50233825Y-62354333D01*
X51759482Y-62355664D01*
X53169515Y-61773050D01*
X54249259Y-60695189D01*
X54834333Y-59286175D01*
X54835664Y-57760518D01*
X54253050Y-56350485D01*
X53875225Y-55972000D01*
X105274203Y-55972000D01*
X104900741Y-56344811D01*
X104900741Y-56344811D01*
G37*
X104900741Y-56344811D02*
X104315667Y-57753825D01*
X104314336Y-59279482D01*
X104896950Y-60689515D01*
X105974811Y-61769259D01*
X107383825Y-62354333D01*
X108909482Y-62355664D01*
X110319515Y-61773050D01*
X110868000Y-61225522D01*
X110868000Y-86294500D01*
X110325189Y-85750741D01*
X108916175Y-85165667D01*
X107390518Y-85164336D01*
X105980485Y-85746950D01*
X104900741Y-86824811D01*
X104315667Y-88233825D01*
X104314336Y-89759482D01*
X104896950Y-91169515D01*
X105312709Y-91586000D01*
X53837730Y-91586000D01*
X54249259Y-91175189D01*
X54834333Y-89766175D01*
X54835664Y-88240518D01*
X54728445Y-87981026D01*
X58941642Y-87981026D01*
X58944291Y-87996791D01*
X59198268Y-88524036D01*
X59634680Y-88913954D01*
X60187087Y-89107184D01*
X60422000Y-88962924D01*
X60422000Y-87749000D01*
X60676000Y-87749000D01*
X60676000Y-88962924D01*
X60910913Y-89107184D01*
X61463320Y-88913954D01*
X61899732Y-88524036D01*
X62153709Y-87996791D01*
X62156358Y-87981026D01*
X62035217Y-87749000D01*
X60676000Y-87749000D01*
X60422000Y-87749000D01*
X59062783Y-87749000D01*
X58941642Y-87981026D01*
X54728445Y-87981026D01*
X54253050Y-86830485D01*
X53175189Y-85750741D01*
X51766175Y-85165667D01*
X50240518Y-85164336D01*
X48830485Y-85746950D01*
X48457000Y-86119784D01*
X48457000Y-78566740D01*
X49895900Y-78566740D01*
X50131217Y-78522462D01*
X50347341Y-78383390D01*
X50492331Y-78171190D01*
X50543340Y-77919300D01*
X50543340Y-77672240D01*
X52303300Y-77672240D01*
X52538617Y-77627962D01*
X52754741Y-77488890D01*
X52899731Y-77276690D01*
X52950740Y-77024800D01*
X52950740Y-75549800D01*
X52933900Y-75460303D01*
X52933900Y-75386650D01*
X52916829Y-75369579D01*
X52906462Y-75314483D01*
X52777722Y-75114416D01*
X52836430Y-75028495D01*
X52996201Y-75094838D01*
X53368167Y-75095162D01*
X53711943Y-74953117D01*
X53798861Y-74866350D01*
X54465300Y-74866350D01*
X54465300Y-75156910D01*
X54561973Y-75390299D01*
X54740602Y-75568927D01*
X54973991Y-75665600D01*
X55464550Y-75665600D01*
X55623300Y-75506850D01*
X55623300Y-74707600D01*
X54624050Y-74707600D01*
X54465300Y-74866350D01*
X53798861Y-74866350D01*
X53975192Y-74690327D01*
X54117838Y-74346799D01*
X54118162Y-73974833D01*
X54025602Y-73750821D01*
X54080792Y-73695727D01*
X54223438Y-73352199D01*
X54223483Y-73300399D01*
X54319601Y-73300399D01*
X54482783Y-73267940D01*
X54532919Y-73318076D01*
X54532921Y-73318079D01*
X54634672Y-73386066D01*
X54647138Y-73452317D01*
X54738530Y-73594345D01*
X54561973Y-73770901D01*
X54465300Y-74004290D01*
X54465300Y-74294850D01*
X54624050Y-74453600D01*
X55623300Y-74453600D01*
X55623300Y-74433600D01*
X55877300Y-74433600D01*
X55877300Y-74453600D01*
X55897300Y-74453600D01*
X55897300Y-74707600D01*
X55877300Y-74707600D01*
X55877300Y-75506850D01*
X56036050Y-75665600D01*
X56526609Y-75665600D01*
X56759998Y-75568927D01*
X56861353Y-75467573D01*
X57003110Y-75564431D01*
X57255000Y-75615440D01*
X58255000Y-75615440D01*
X58490317Y-75571162D01*
X58706441Y-75432090D01*
X58763294Y-75348883D01*
X59083167Y-75349162D01*
X59143118Y-75324391D01*
X59247883Y-75577943D01*
X59510673Y-75841192D01*
X59854201Y-75983838D01*
X60226167Y-75984162D01*
X60569943Y-75842117D01*
X60603118Y-75809000D01*
X65883000Y-75809000D01*
X66173839Y-75751148D01*
X66277327Y-75682000D01*
X66519410Y-75682000D01*
X66810249Y-75624148D01*
X67056811Y-75459401D01*
X68214560Y-74301652D01*
X68214560Y-75311000D01*
X68258838Y-75546317D01*
X68397910Y-75762441D01*
X68467711Y-75810134D01*
X68410559Y-75846910D01*
X68265569Y-76059110D01*
X68214560Y-76311000D01*
X68214560Y-77337000D01*
X63089000Y-77337000D01*
X62858247Y-77382900D01*
X62798160Y-77394852D01*
X62551599Y-77559599D01*
X60011599Y-80099599D01*
X59846852Y-80346161D01*
X59789000Y-80637000D01*
X59789000Y-81030960D01*
X59533000Y-81030960D01*
X59297683Y-81075238D01*
X59081559Y-81214310D01*
X58936569Y-81426510D01*
X58885560Y-81678400D01*
X58885560Y-83405600D01*
X58929838Y-83640917D01*
X59068910Y-83857041D01*
X59281110Y-84002031D01*
X59322439Y-84010400D01*
X59304585Y-84022330D01*
X58979729Y-84508511D01*
X58865655Y-85082000D01*
X58979729Y-85655489D01*
X59304585Y-86141670D01*
X59614069Y-86348461D01*
X59198268Y-86719964D01*
X58944291Y-87247209D01*
X58941642Y-87262974D01*
X59062783Y-87495000D01*
X60422000Y-87495000D01*
X60422000Y-87475000D01*
X60676000Y-87475000D01*
X60676000Y-87495000D01*
X62035217Y-87495000D01*
X62156358Y-87262974D01*
X62153709Y-87247209D01*
X61899732Y-86719964D01*
X61483931Y-86348461D01*
X61787308Y-86145750D01*
X63648000Y-86145750D01*
X63648000Y-86986310D01*
X63744673Y-87219699D01*
X63923302Y-87398327D01*
X64156691Y-87495000D01*
X64697250Y-87495000D01*
X64856000Y-87336250D01*
X64856000Y-85987000D01*
X65110000Y-85987000D01*
X65110000Y-87336250D01*
X65268750Y-87495000D01*
X65809309Y-87495000D01*
X66042698Y-87398327D01*
X66221327Y-87219699D01*
X66318000Y-86986310D01*
X66318000Y-86145750D01*
X66159250Y-85987000D01*
X65110000Y-85987000D01*
X64856000Y-85987000D01*
X63806750Y-85987000D01*
X63648000Y-86145750D01*
X61787308Y-86145750D01*
X61793415Y-86141670D01*
X62021032Y-85801017D01*
X62105839Y-85784148D01*
X62352401Y-85619401D01*
X62864401Y-85107401D01*
X63029148Y-84860840D01*
X63054439Y-84733690D01*
X63648000Y-84733690D01*
X63648000Y-85574250D01*
X63806750Y-85733000D01*
X64856000Y-85733000D01*
X64856000Y-84383750D01*
X65110000Y-84383750D01*
X65110000Y-85733000D01*
X66159250Y-85733000D01*
X66318000Y-85574250D01*
X66318000Y-84733690D01*
X66221327Y-84500301D01*
X66042698Y-84321673D01*
X65809309Y-84225000D01*
X65268750Y-84225000D01*
X65110000Y-84383750D01*
X64856000Y-84383750D01*
X64697250Y-84225000D01*
X64156691Y-84225000D01*
X63923302Y-84321673D01*
X63744673Y-84500301D01*
X63648000Y-84733690D01*
X63054439Y-84733690D01*
X63087000Y-84570000D01*
X63087000Y-79810212D01*
X63590202Y-79307010D01*
X68805188Y-79307010D01*
X68774599Y-79337599D01*
X68609852Y-79584161D01*
X68552000Y-79875000D01*
X68552000Y-84220651D01*
X68359683Y-84256838D01*
X68143559Y-84395910D01*
X67998569Y-84608110D01*
X67947560Y-84860000D01*
X67947560Y-86860000D01*
X67991838Y-87095317D01*
X68130910Y-87311441D01*
X68343110Y-87456431D01*
X68535000Y-87495290D01*
X68535000Y-87819774D01*
X68433683Y-87838838D01*
X68217559Y-87977910D01*
X68169866Y-88047711D01*
X68133090Y-87990559D01*
X67920890Y-87845569D01*
X67669000Y-87794560D01*
X66469000Y-87794560D01*
X66233683Y-87838838D01*
X66017559Y-87977910D01*
X65872569Y-88190110D01*
X65821560Y-88442000D01*
X65821560Y-89342000D01*
X65865838Y-89577317D01*
X65892546Y-89618822D01*
X65837162Y-89752201D01*
X65836838Y-90124167D01*
X65978883Y-90467943D01*
X66241673Y-90731192D01*
X66585201Y-90873838D01*
X66957167Y-90874162D01*
X67300943Y-90732117D01*
X67564192Y-90469327D01*
X67706838Y-90125799D01*
X67706884Y-90073152D01*
X67732376Y-90035000D01*
X67776310Y-89969248D01*
X67904317Y-89945162D01*
X68120441Y-89806090D01*
X68168134Y-89736289D01*
X68204910Y-89793441D01*
X68417110Y-89938431D01*
X68669000Y-89989440D01*
X69869000Y-89989440D01*
X70104317Y-89945162D01*
X70320441Y-89806090D01*
X70465431Y-89593890D01*
X70516440Y-89342000D01*
X70516440Y-88442000D01*
X70472162Y-88206683D01*
X70333090Y-87990559D01*
X70120890Y-87845569D01*
X70055000Y-87832226D01*
X70055000Y-87496150D01*
X70230317Y-87463162D01*
X70446441Y-87324090D01*
X70591431Y-87111890D01*
X70642440Y-86860000D01*
X70642440Y-84860000D01*
X70598162Y-84624683D01*
X70459090Y-84408559D01*
X70246890Y-84263569D01*
X70072000Y-84228153D01*
X70072000Y-82193691D01*
X72116000Y-82193691D01*
X72116000Y-82784250D01*
X72274750Y-82943000D01*
X73249000Y-82943000D01*
X73249000Y-81843750D01*
X73503000Y-81843750D01*
X73503000Y-82943000D01*
X74477250Y-82943000D01*
X74636000Y-82784250D01*
X74636000Y-82193691D01*
X74539327Y-81960302D01*
X74360699Y-81781673D01*
X74127310Y-81685000D01*
X73661750Y-81685000D01*
X73503000Y-81843750D01*
X73249000Y-81843750D01*
X73090250Y-81685000D01*
X72624690Y-81685000D01*
X72391301Y-81781673D01*
X72212673Y-81960302D01*
X72116000Y-82193691D01*
X70072000Y-82193691D01*
X70072000Y-80414750D01*
X74551000Y-80414750D01*
X74551000Y-80880310D01*
X74647673Y-81113699D01*
X74826302Y-81292327D01*
X75059691Y-81389000D01*
X75650250Y-81389000D01*
X75809000Y-81230250D01*
X75809000Y-80256000D01*
X74709750Y-80256000D01*
X74551000Y-80414750D01*
X70072000Y-80414750D01*
X70072000Y-80189802D01*
X70388802Y-79873000D01*
X72107410Y-79873000D01*
X72398249Y-79815148D01*
X72644811Y-79650401D01*
X74581212Y-77714000D01*
X74623000Y-77714000D01*
X74623000Y-78351000D01*
X74682755Y-78651407D01*
X74852921Y-78906079D01*
X74887264Y-78940422D01*
X74826302Y-78965673D01*
X74647673Y-79144301D01*
X74551000Y-79377690D01*
X74551000Y-79843250D01*
X74709750Y-80002000D01*
X75809000Y-80002000D01*
X75809000Y-79982000D01*
X76063000Y-79982000D01*
X76063000Y-80002000D01*
X76083000Y-80002000D01*
X76083000Y-80256000D01*
X76063000Y-80256000D01*
X76063000Y-81230250D01*
X76221750Y-81389000D01*
X76447119Y-81389000D01*
X76446964Y-81566171D01*
X76366559Y-81617910D01*
X76253000Y-81784109D01*
X76253000Y-81605750D01*
X76094250Y-81447000D01*
X76041691Y-81447000D01*
X75808302Y-81543673D01*
X75629673Y-81722301D01*
X75533000Y-81955690D01*
X75533000Y-83046250D01*
X75691750Y-83205000D01*
X76170560Y-83205000D01*
X76170560Y-83459000D01*
X75691750Y-83459000D01*
X75533000Y-83617750D01*
X75533000Y-84353971D01*
X75340799Y-84274162D01*
X74968833Y-84273838D01*
X74625057Y-84415883D01*
X74605709Y-84435197D01*
X74519061Y-84452432D01*
X74465090Y-84368559D01*
X74396994Y-84322031D01*
X74539327Y-84179698D01*
X74636000Y-83946309D01*
X74636000Y-83355750D01*
X74477250Y-83197000D01*
X73503000Y-83197000D01*
X73503000Y-83217000D01*
X73249000Y-83217000D01*
X73249000Y-83197000D01*
X72274750Y-83197000D01*
X72116000Y-83355750D01*
X72116000Y-83946309D01*
X72212673Y-84179698D01*
X72353910Y-84320936D01*
X72299559Y-84355910D01*
X72154569Y-84568110D01*
X72103560Y-84820000D01*
X72103560Y-86320000D01*
X72147838Y-86555317D01*
X72286910Y-86771441D01*
X72499110Y-86916431D01*
X72751000Y-86967440D01*
X74001000Y-86967440D01*
X74236317Y-86923162D01*
X74452441Y-86784090D01*
X74597431Y-86571890D01*
X74648440Y-86320000D01*
X74648440Y-86263819D01*
X74856079Y-86125079D01*
X74875428Y-86105730D01*
X74967201Y-86143838D01*
X75339167Y-86144162D01*
X75520560Y-86069212D01*
X75520560Y-88082000D01*
X75564838Y-88317317D01*
X75578000Y-88337771D01*
X75578000Y-88762560D01*
X75186000Y-88762560D01*
X74950683Y-88806838D01*
X74734559Y-88945910D01*
X74589569Y-89158110D01*
X74538560Y-89410000D01*
X74538560Y-90660000D01*
X74582838Y-90895317D01*
X74721910Y-91111441D01*
X74934110Y-91256431D01*
X75186000Y-91307440D01*
X76686000Y-91307440D01*
X76921317Y-91263162D01*
X77137441Y-91124090D01*
X77185134Y-91054289D01*
X77221910Y-91111441D01*
X77434110Y-91256431D01*
X77686000Y-91307440D01*
X79186000Y-91307440D01*
X79421317Y-91263162D01*
X79637441Y-91124090D01*
X79782431Y-90911890D01*
X79833440Y-90660000D01*
X79833440Y-89410000D01*
X79789162Y-89174683D01*
X79650090Y-88958559D01*
X79437890Y-88813569D01*
X79354836Y-88796750D01*
X87955000Y-88796750D01*
X87955000Y-89012310D01*
X88051673Y-89245699D01*
X88230302Y-89424327D01*
X88463691Y-89521000D01*
X88904250Y-89521000D01*
X89063000Y-89362250D01*
X89063000Y-88638000D01*
X88113750Y-88638000D01*
X87955000Y-88796750D01*
X79354836Y-88796750D01*
X79186000Y-88762560D01*
X78398000Y-88762560D01*
X78398000Y-88729440D01*
X78458000Y-88729440D01*
X78693317Y-88685162D01*
X78909441Y-88546090D01*
X79054431Y-88333890D01*
X79105440Y-88082000D01*
X79105440Y-88009690D01*
X87955000Y-88009690D01*
X87955000Y-88225250D01*
X88113750Y-88384000D01*
X89063000Y-88384000D01*
X89063000Y-87659750D01*
X88904250Y-87501000D01*
X88463691Y-87501000D01*
X88230302Y-87597673D01*
X88051673Y-87776301D01*
X87955000Y-88009690D01*
X79105440Y-88009690D01*
X79105440Y-87346000D01*
X79852442Y-87346000D01*
X79894838Y-87571317D01*
X80033910Y-87787441D01*
X80246110Y-87932431D01*
X80498000Y-87983440D01*
X81748000Y-87983440D01*
X81983317Y-87939162D01*
X82199441Y-87800090D01*
X82344431Y-87587890D01*
X82395440Y-87336000D01*
X82395440Y-85836000D01*
X82351162Y-85600683D01*
X82212090Y-85384559D01*
X82142289Y-85336866D01*
X82199441Y-85300090D01*
X82344431Y-85087890D01*
X82395440Y-84836000D01*
X82395440Y-83336000D01*
X82351162Y-83100683D01*
X82212090Y-82884559D01*
X81999890Y-82739569D01*
X81748000Y-82688560D01*
X80498000Y-82688560D01*
X80262683Y-82732838D01*
X80046559Y-82871910D01*
X79901569Y-83084110D01*
X79850560Y-83336000D01*
X79850560Y-83455080D01*
X79710599Y-83548599D01*
X79105440Y-84153758D01*
X79105440Y-82082000D01*
X79073000Y-81909596D01*
X79073000Y-81401440D01*
X79186000Y-81401440D01*
X79421317Y-81357162D01*
X79637441Y-81218090D01*
X79782431Y-81005890D01*
X79833440Y-80754000D01*
X79833440Y-79504000D01*
X79789162Y-79268683D01*
X79650090Y-79052559D01*
X79437890Y-78907569D01*
X79188173Y-78857000D01*
X83221198Y-78857000D01*
X84427000Y-80062802D01*
X84427000Y-84085000D01*
X84484852Y-84375839D01*
X84649599Y-84622401D01*
X85098173Y-85070975D01*
X85049569Y-85142110D01*
X84998560Y-85394000D01*
X84998560Y-86294000D01*
X85042838Y-86529317D01*
X85181910Y-86745441D01*
X85394110Y-86890431D01*
X85646000Y-86941440D01*
X86846000Y-86941440D01*
X87081317Y-86897162D01*
X87297441Y-86758090D01*
X87345134Y-86688289D01*
X87381910Y-86745441D01*
X87594110Y-86890431D01*
X87846000Y-86941440D01*
X89046000Y-86941440D01*
X89281317Y-86897162D01*
X89497441Y-86758090D01*
X89591794Y-86620000D01*
X89797560Y-86620000D01*
X89797560Y-86860000D01*
X89841838Y-87095317D01*
X89980910Y-87311441D01*
X90193110Y-87456431D01*
X90385000Y-87495290D01*
X90385000Y-87508317D01*
X90254683Y-87532838D01*
X90151354Y-87599329D01*
X90149698Y-87597673D01*
X89916309Y-87501000D01*
X89475750Y-87501000D01*
X89317000Y-87659750D01*
X89317000Y-88384000D01*
X89337000Y-88384000D01*
X89337000Y-88638000D01*
X89317000Y-88638000D01*
X89317000Y-89362250D01*
X89475750Y-89521000D01*
X89916309Y-89521000D01*
X90149698Y-89424327D01*
X90151068Y-89422957D01*
X90238110Y-89482431D01*
X90490000Y-89533440D01*
X91690000Y-89533440D01*
X91925317Y-89489162D01*
X92141441Y-89350090D01*
X92195481Y-89271000D01*
X92329895Y-89271000D01*
X92420910Y-89412441D01*
X92633110Y-89557431D01*
X92885000Y-89608440D01*
X94085000Y-89608440D01*
X94320317Y-89564162D01*
X94357098Y-89540494D01*
X94356838Y-89839167D01*
X94498883Y-90182943D01*
X94761673Y-90446192D01*
X95105201Y-90588838D01*
X95477167Y-90589162D01*
X95820943Y-90447117D01*
X96084192Y-90184327D01*
X96226838Y-89840799D01*
X96226848Y-89829310D01*
X96240079Y-89816079D01*
X96392310Y-89588248D01*
X96520317Y-89564162D01*
X96736441Y-89425090D01*
X96881431Y-89212890D01*
X96932440Y-88961000D01*
X96932440Y-88061000D01*
X96888162Y-87825683D01*
X96749090Y-87609559D01*
X96536890Y-87464569D01*
X96415918Y-87440072D01*
X96516698Y-87398327D01*
X96695327Y-87219699D01*
X96792000Y-86986310D01*
X96792000Y-86145750D01*
X96633250Y-85987000D01*
X95584000Y-85987000D01*
X95584000Y-86007000D01*
X95330000Y-86007000D01*
X95330000Y-85987000D01*
X94280750Y-85987000D01*
X94122000Y-86145750D01*
X94122000Y-86986310D01*
X94218673Y-87219699D01*
X94397302Y-87398327D01*
X94630691Y-87495000D01*
X94791932Y-87495000D01*
X94633559Y-87596910D01*
X94585866Y-87666711D01*
X94549090Y-87609559D01*
X94336890Y-87464569D01*
X94085000Y-87413560D01*
X92885000Y-87413560D01*
X92649683Y-87457838D01*
X92433559Y-87596910D01*
X92328274Y-87751000D01*
X92196844Y-87751000D01*
X92154090Y-87684559D01*
X91941890Y-87539569D01*
X91905000Y-87532099D01*
X91905000Y-87496150D01*
X92080317Y-87463162D01*
X92296441Y-87324090D01*
X92441431Y-87111890D01*
X92492440Y-86860000D01*
X92492440Y-84860000D01*
X92468674Y-84733690D01*
X94122000Y-84733690D01*
X94122000Y-85574250D01*
X94280750Y-85733000D01*
X95330000Y-85733000D01*
X95330000Y-84383750D01*
X95584000Y-84383750D01*
X95584000Y-85733000D01*
X96633250Y-85733000D01*
X96792000Y-85574250D01*
X96792000Y-84733690D01*
X96695327Y-84500301D01*
X96516698Y-84321673D01*
X96283309Y-84225000D01*
X95742750Y-84225000D01*
X95584000Y-84383750D01*
X95330000Y-84383750D01*
X95171250Y-84225000D01*
X94630691Y-84225000D01*
X94397302Y-84321673D01*
X94218673Y-84500301D01*
X94122000Y-84733690D01*
X92468674Y-84733690D01*
X92448162Y-84624683D01*
X92309090Y-84408559D01*
X92096890Y-84263569D01*
X91845000Y-84212560D01*
X90445000Y-84212560D01*
X90209683Y-84256838D01*
X89993559Y-84395910D01*
X89848569Y-84608110D01*
X89797560Y-84860000D01*
X89797560Y-85100000D01*
X89611401Y-85100000D01*
X89510090Y-84942559D01*
X89297890Y-84797569D01*
X89046000Y-84746560D01*
X87846000Y-84746560D01*
X87610683Y-84790838D01*
X87394559Y-84929910D01*
X87346866Y-84999711D01*
X87310090Y-84942559D01*
X87097890Y-84797569D01*
X86881758Y-84753801D01*
X86783401Y-84606599D01*
X85947000Y-83770198D01*
X85947000Y-81049750D01*
X88233730Y-81049750D01*
X88233730Y-81290359D01*
X88330403Y-81523748D01*
X88509031Y-81702377D01*
X88742420Y-81799050D01*
X88983030Y-81799050D01*
X89141780Y-81640300D01*
X89141780Y-80891000D01*
X88392480Y-80891000D01*
X88233730Y-81049750D01*
X85947000Y-81049750D01*
X85947000Y-80237641D01*
X88233730Y-80237641D01*
X88233730Y-80478250D01*
X88392480Y-80637000D01*
X89141780Y-80637000D01*
X89141780Y-79887700D01*
X88983030Y-79728950D01*
X88742420Y-79728950D01*
X88509031Y-79825623D01*
X88330403Y-80004252D01*
X88233730Y-80237641D01*
X85947000Y-80237641D01*
X85947000Y-79748000D01*
X85889148Y-79457161D01*
X85724401Y-79210599D01*
X84195552Y-77681750D01*
X85002500Y-77681750D01*
X85002500Y-78122309D01*
X85099173Y-78355698D01*
X85277801Y-78534327D01*
X85511190Y-78631000D01*
X85726750Y-78631000D01*
X85885500Y-78472250D01*
X85885500Y-77523000D01*
X86139500Y-77523000D01*
X86139500Y-78472250D01*
X86298250Y-78631000D01*
X86513810Y-78631000D01*
X86747199Y-78534327D01*
X86925827Y-78355698D01*
X87022500Y-78122309D01*
X87022500Y-77681750D01*
X86863750Y-77523000D01*
X86139500Y-77523000D01*
X85885500Y-77523000D01*
X85161250Y-77523000D01*
X85002500Y-77681750D01*
X84195552Y-77681750D01*
X84073401Y-77559599D01*
X83826839Y-77394852D01*
X83536000Y-77337000D01*
X79726923Y-77337000D01*
X80109242Y-76954681D01*
X80117642Y-76953010D01*
X80372314Y-76782844D01*
X80813158Y-76342000D01*
X83760494Y-76342000D01*
X83767673Y-76349192D01*
X84111201Y-76491838D01*
X84483167Y-76492162D01*
X84826943Y-76350117D01*
X84896181Y-76281000D01*
X85024870Y-76281000D01*
X85034338Y-76331317D01*
X85100829Y-76434646D01*
X85099173Y-76436302D01*
X85002500Y-76669691D01*
X85002500Y-77110250D01*
X85161250Y-77269000D01*
X85885500Y-77269000D01*
X85885500Y-77249000D01*
X86139500Y-77249000D01*
X86139500Y-77269000D01*
X86863750Y-77269000D01*
X87022500Y-77110250D01*
X87022500Y-76669691D01*
X86925827Y-76436302D01*
X86924457Y-76434932D01*
X86983931Y-76347890D01*
X87034940Y-76096000D01*
X87034940Y-75812200D01*
X87153950Y-75812200D01*
X87186938Y-75987517D01*
X87253671Y-76091223D01*
X87188808Y-76155973D01*
X87046162Y-76499501D01*
X87045838Y-76871467D01*
X87187883Y-77215243D01*
X87450673Y-77478492D01*
X87794201Y-77621138D01*
X88029118Y-77621343D01*
X88076883Y-77736943D01*
X88339673Y-78000192D01*
X88603554Y-78109765D01*
X88711883Y-78371943D01*
X88974673Y-78635192D01*
X89318201Y-78777838D01*
X89379241Y-78777891D01*
X89473883Y-79006943D01*
X89736673Y-79270192D01*
X90080201Y-79412838D01*
X90220470Y-79412960D01*
X90220270Y-79413950D01*
X90220270Y-80035910D01*
X90207157Y-80004252D01*
X90028529Y-79825623D01*
X89795140Y-79728950D01*
X89554530Y-79728950D01*
X89395780Y-79887700D01*
X89395780Y-80637000D01*
X90145080Y-80637000D01*
X90291237Y-80490843D01*
X90403620Y-80665491D01*
X90548717Y-80764632D01*
X90416269Y-80849860D01*
X90289489Y-81035409D01*
X90145080Y-80891000D01*
X89395780Y-80891000D01*
X89395780Y-81640300D01*
X89554530Y-81799050D01*
X89584627Y-81799050D01*
X89459162Y-82101201D01*
X89458838Y-82473167D01*
X89600883Y-82816943D01*
X89863673Y-83080192D01*
X90207201Y-83222838D01*
X90579167Y-83223162D01*
X90922943Y-83081117D01*
X90990129Y-83014048D01*
X90994167Y-83013245D01*
X91248839Y-82843079D01*
X91330428Y-82761490D01*
X91667810Y-82761490D01*
X91903127Y-82717212D01*
X92119251Y-82578140D01*
X92264241Y-82365940D01*
X92315250Y-82114050D01*
X92315250Y-81961650D01*
X93067000Y-81961650D01*
X93067000Y-82402209D01*
X93163673Y-82635598D01*
X93342301Y-82814227D01*
X93575690Y-82910900D01*
X93791250Y-82910900D01*
X93950000Y-82752150D01*
X93950000Y-81802900D01*
X94204000Y-81802900D01*
X94204000Y-82752150D01*
X94362750Y-82910900D01*
X94578310Y-82910900D01*
X94811699Y-82814227D01*
X94990327Y-82635598D01*
X95087000Y-82402209D01*
X95087000Y-81961650D01*
X95137100Y-81961650D01*
X95137100Y-82402209D01*
X95233773Y-82635598D01*
X95412401Y-82814227D01*
X95645790Y-82910900D01*
X95861350Y-82910900D01*
X96020100Y-82752150D01*
X96020100Y-81802900D01*
X96274100Y-81802900D01*
X96274100Y-82752150D01*
X96432850Y-82910900D01*
X96648410Y-82910900D01*
X96881799Y-82814227D01*
X97060427Y-82635598D01*
X97157100Y-82402209D01*
X97157100Y-81961650D01*
X96998350Y-81802900D01*
X96274100Y-81802900D01*
X96020100Y-81802900D01*
X95295850Y-81802900D01*
X95137100Y-81961650D01*
X95087000Y-81961650D01*
X94928250Y-81802900D01*
X94204000Y-81802900D01*
X93950000Y-81802900D01*
X93225750Y-81802900D01*
X93067000Y-81961650D01*
X92315250Y-81961650D01*
X92315250Y-81313950D01*
X92270972Y-81078633D01*
X92131900Y-80862509D01*
X91986803Y-80763368D01*
X92119251Y-80678140D01*
X92216439Y-80535900D01*
X93084666Y-80535900D01*
X93098838Y-80611217D01*
X93165329Y-80714546D01*
X93163673Y-80716202D01*
X93067000Y-80949591D01*
X93067000Y-81390150D01*
X93225750Y-81548900D01*
X93950000Y-81548900D01*
X93950000Y-81528900D01*
X94204000Y-81528900D01*
X94204000Y-81548900D01*
X94928250Y-81548900D01*
X95087000Y-81390150D01*
X95087000Y-80949591D01*
X94990327Y-80716202D01*
X94988957Y-80714832D01*
X95048431Y-80627790D01*
X95067039Y-80535900D01*
X95154766Y-80535900D01*
X95168938Y-80611217D01*
X95235429Y-80714546D01*
X95233773Y-80716202D01*
X95137100Y-80949591D01*
X95137100Y-81390150D01*
X95295850Y-81548900D01*
X96020100Y-81548900D01*
X96020100Y-81528900D01*
X96274100Y-81528900D01*
X96274100Y-81548900D01*
X96998350Y-81548900D01*
X97157100Y-81390150D01*
X97157100Y-80949591D01*
X97060427Y-80716202D01*
X97059057Y-80714832D01*
X97118531Y-80627790D01*
X97169540Y-80375900D01*
X97169540Y-79175900D01*
X97125262Y-78940583D01*
X96986190Y-78724459D01*
X96773990Y-78579469D01*
X96522100Y-78528460D01*
X95772100Y-78528460D01*
X95536783Y-78572738D01*
X95320659Y-78711810D01*
X95175669Y-78924010D01*
X95157061Y-79015900D01*
X95069334Y-79015900D01*
X95055162Y-78940583D01*
X94916090Y-78724459D01*
X94703890Y-78579469D01*
X94452000Y-78528460D01*
X93702000Y-78528460D01*
X93466683Y-78572738D01*
X93250559Y-78711810D01*
X93105569Y-78924010D01*
X93086961Y-79015900D01*
X92166256Y-79015900D01*
X92131900Y-78962509D01*
X92025100Y-78889536D01*
X92025100Y-78434935D01*
X92239201Y-78523838D01*
X92611167Y-78524162D01*
X92954943Y-78382117D01*
X93051478Y-78285750D01*
X101451400Y-78285750D01*
X101451400Y-78989909D01*
X101548073Y-79223298D01*
X101726701Y-79401927D01*
X101960090Y-79498600D01*
X102664250Y-79498600D01*
X102823000Y-79339850D01*
X102823000Y-78127000D01*
X101610150Y-78127000D01*
X101451400Y-78285750D01*
X93051478Y-78285750D01*
X93218192Y-78119327D01*
X93296849Y-77929900D01*
X95174695Y-77929900D01*
X95265710Y-78071341D01*
X95477910Y-78216331D01*
X95729800Y-78267340D01*
X96929800Y-78267340D01*
X97165117Y-78223062D01*
X97381241Y-78083990D01*
X97427769Y-78015894D01*
X97570102Y-78158227D01*
X97803491Y-78254900D01*
X98244050Y-78254900D01*
X98402800Y-78096150D01*
X98402800Y-77296900D01*
X98656800Y-77296900D01*
X98656800Y-78096150D01*
X98815550Y-78254900D01*
X99256109Y-78254900D01*
X99489498Y-78158227D01*
X99668127Y-77979599D01*
X99764800Y-77746210D01*
X99764800Y-77455650D01*
X99606050Y-77296900D01*
X98656800Y-77296900D01*
X98402800Y-77296900D01*
X98382800Y-77296900D01*
X98382800Y-77042900D01*
X98402800Y-77042900D01*
X98402800Y-76243650D01*
X98656800Y-76243650D01*
X98656800Y-77042900D01*
X99606050Y-77042900D01*
X99764800Y-76884150D01*
X99764800Y-76593590D01*
X99668127Y-76360201D01*
X99489498Y-76181573D01*
X99256109Y-76084900D01*
X98815550Y-76084900D01*
X98656800Y-76243650D01*
X98402800Y-76243650D01*
X98244050Y-76084900D01*
X97803491Y-76084900D01*
X97570102Y-76181573D01*
X97428864Y-76322810D01*
X97393890Y-76268459D01*
X97181690Y-76123469D01*
X96929800Y-76072460D01*
X95729800Y-76072460D01*
X95494483Y-76116738D01*
X95278359Y-76255810D01*
X95173074Y-76409900D01*
X93591702Y-76409900D01*
X93566547Y-76384745D01*
X93640100Y-76399640D01*
X94090100Y-76399640D01*
X94325417Y-76355362D01*
X94541541Y-76216290D01*
X94686531Y-76004090D01*
X94725390Y-75812200D01*
X94860800Y-75812200D01*
X95161207Y-75752445D01*
X95415879Y-75582279D01*
X96562479Y-74435679D01*
X96732645Y-74181007D01*
X96767226Y-74007155D01*
X96833841Y-73964290D01*
X96978831Y-73752090D01*
X97029840Y-73500200D01*
X97029840Y-72300200D01*
X96985562Y-72064883D01*
X96919071Y-71961554D01*
X96920727Y-71959898D01*
X97017400Y-71726509D01*
X97017400Y-71285950D01*
X96858650Y-71127200D01*
X96134400Y-71127200D01*
X96134400Y-71147200D01*
X95880400Y-71147200D01*
X95880400Y-71127200D01*
X95156150Y-71127200D01*
X94997400Y-71285950D01*
X94997400Y-71726509D01*
X95094073Y-71959898D01*
X95095443Y-71961268D01*
X95035969Y-72048310D01*
X95029636Y-72079586D01*
X94691057Y-72219483D01*
X94427808Y-72482273D01*
X94285162Y-72825801D01*
X94284838Y-73197767D01*
X94426883Y-73541543D01*
X94689673Y-73804792D01*
X94889906Y-73887936D01*
X94696065Y-74081777D01*
X94693262Y-74066883D01*
X94554190Y-73850759D01*
X94341990Y-73705769D01*
X94090100Y-73654760D01*
X93640100Y-73654760D01*
X93536429Y-73674267D01*
X93440100Y-73654760D01*
X93360888Y-73654760D01*
X93361162Y-73339833D01*
X93219117Y-72996057D01*
X92956327Y-72732808D01*
X92612799Y-72590162D01*
X92240833Y-72589838D01*
X91897057Y-72731883D01*
X91633808Y-72994673D01*
X91491162Y-73338201D01*
X91490886Y-73654919D01*
X91490100Y-73654760D01*
X91282716Y-73654760D01*
X91152501Y-73459879D01*
X89330193Y-71637571D01*
X89083631Y-71472824D01*
X88792792Y-71414972D01*
X85807003Y-71414971D01*
X84242632Y-69850600D01*
X85251556Y-69850600D01*
X85542395Y-69792748D01*
X85788957Y-69628001D01*
X85941245Y-69475713D01*
X86016201Y-69506838D01*
X86388167Y-69507162D01*
X86731943Y-69365117D01*
X86995192Y-69102327D01*
X87137838Y-68758799D01*
X87138162Y-68386833D01*
X87091345Y-68273526D01*
X87169447Y-68241255D01*
X87155100Y-68275891D01*
X87155100Y-68841450D01*
X87313850Y-69000200D01*
X87792660Y-69000200D01*
X87792660Y-69254200D01*
X87313850Y-69254200D01*
X87155100Y-69412950D01*
X87155100Y-69978509D01*
X87251773Y-70211898D01*
X87430401Y-70390527D01*
X87663790Y-70487200D01*
X87743850Y-70487200D01*
X87902600Y-70328450D01*
X87902600Y-70189559D01*
X87976010Y-70303641D01*
X88188210Y-70448631D01*
X88262908Y-70463758D01*
X88286350Y-70487200D01*
X88366410Y-70487200D01*
X88370435Y-70485533D01*
X88440100Y-70499640D01*
X88890100Y-70499640D01*
X88993771Y-70480133D01*
X89090100Y-70499640D01*
X89540100Y-70499640D01*
X89643771Y-70480133D01*
X89740100Y-70499640D01*
X90190100Y-70499640D01*
X90293771Y-70480133D01*
X90347987Y-70491112D01*
X90347838Y-70662167D01*
X90489883Y-71005943D01*
X90752673Y-71269192D01*
X91096201Y-71411838D01*
X91468167Y-71412162D01*
X91692363Y-71319526D01*
X91895673Y-71523192D01*
X92239201Y-71665838D01*
X92611167Y-71666162D01*
X92954943Y-71524117D01*
X93218192Y-71261327D01*
X93360838Y-70917799D01*
X93361162Y-70545833D01*
X93342075Y-70499640D01*
X93440100Y-70499640D01*
X93511423Y-70486220D01*
X93513790Y-70487200D01*
X93593850Y-70487200D01*
X93614162Y-70466888D01*
X93675417Y-70455362D01*
X93891541Y-70316290D01*
X93977600Y-70190338D01*
X93977600Y-70328450D01*
X94136350Y-70487200D01*
X94216410Y-70487200D01*
X94449799Y-70390527D01*
X94566434Y-70273891D01*
X94997400Y-70273891D01*
X94997400Y-70714450D01*
X95156150Y-70873200D01*
X95880400Y-70873200D01*
X95880400Y-69923950D01*
X96134400Y-69923950D01*
X96134400Y-70873200D01*
X96858650Y-70873200D01*
X97017400Y-70714450D01*
X97017400Y-70273891D01*
X96920727Y-70040502D01*
X96742099Y-69861873D01*
X96508710Y-69765200D01*
X96293150Y-69765200D01*
X96134400Y-69923950D01*
X95880400Y-69923950D01*
X95721650Y-69765200D01*
X95506090Y-69765200D01*
X95272701Y-69861873D01*
X95094073Y-70040502D01*
X94997400Y-70273891D01*
X94566434Y-70273891D01*
X94628427Y-70211898D01*
X94725100Y-69978509D01*
X94725100Y-69412950D01*
X94566350Y-69254200D01*
X94087540Y-69254200D01*
X94087540Y-69000200D01*
X94566350Y-69000200D01*
X94725100Y-68841450D01*
X94725100Y-68275891D01*
X94628427Y-68042502D01*
X94449799Y-67863873D01*
X94216410Y-67767200D01*
X94136350Y-67767200D01*
X93992102Y-67911448D01*
X93992102Y-67767200D01*
X93935934Y-67767200D01*
X93917248Y-67673261D01*
X93917248Y-67673260D01*
X93869072Y-67601160D01*
X93869162Y-67497833D01*
X93727117Y-67154057D01*
X93464327Y-66890808D01*
X93120799Y-66748162D01*
X92748833Y-66747838D01*
X92583216Y-66816269D01*
X92725838Y-66472799D01*
X92725942Y-66353010D01*
X93118990Y-66353010D01*
X93409829Y-66295158D01*
X93656391Y-66130411D01*
X94518802Y-65268000D01*
X99477198Y-65268000D01*
X100175000Y-65965802D01*
X100175000Y-69715000D01*
X100232852Y-70005839D01*
X100397599Y-70252401D01*
X101062599Y-70917401D01*
X101309161Y-71082148D01*
X101600000Y-71140000D01*
X101670480Y-71140000D01*
X101890330Y-71469029D01*
X102161172Y-71650000D01*
X101890330Y-71830971D01*
X101565474Y-72317152D01*
X101451400Y-72890641D01*
X101451400Y-72949359D01*
X101565474Y-73522848D01*
X101890330Y-74009029D01*
X102161172Y-74190000D01*
X101890330Y-74370971D01*
X101565474Y-74857152D01*
X101451400Y-75430641D01*
X101451400Y-75489359D01*
X101565474Y-76062848D01*
X101880526Y-76534356D01*
X101726701Y-76598073D01*
X101548073Y-76776702D01*
X101451400Y-77010091D01*
X101451400Y-77714250D01*
X101610150Y-77873000D01*
X102823000Y-77873000D01*
X102823000Y-77853000D01*
X103077000Y-77853000D01*
X103077000Y-77873000D01*
X103097000Y-77873000D01*
X103097000Y-78127000D01*
X103077000Y-78127000D01*
X103077000Y-79339850D01*
X103235750Y-79498600D01*
X103939910Y-79498600D01*
X104173299Y-79401927D01*
X104351927Y-79223298D01*
X104416263Y-79067977D01*
X104430330Y-79089029D01*
X104916511Y-79413885D01*
X105490000Y-79527959D01*
X106063489Y-79413885D01*
X106549670Y-79089029D01*
X106874526Y-78602848D01*
X106988600Y-78029359D01*
X106988600Y-77970641D01*
X106874526Y-77397152D01*
X106549670Y-76910971D01*
X106278828Y-76730000D01*
X106549670Y-76549029D01*
X106874526Y-76062848D01*
X106988600Y-75489359D01*
X106988600Y-75430641D01*
X106874526Y-74857152D01*
X106549670Y-74370971D01*
X106278828Y-74190000D01*
X106549670Y-74009029D01*
X106874526Y-73522848D01*
X106988600Y-72949359D01*
X106988600Y-72890641D01*
X106923158Y-72561644D01*
X108272411Y-71212391D01*
X108437158Y-70965829D01*
X108495010Y-70674990D01*
X108495010Y-64323010D01*
X108437158Y-64032171D01*
X108272411Y-63785609D01*
X106948402Y-62461600D01*
X106701840Y-62296853D01*
X106411001Y-62239001D01*
X89870999Y-62239001D01*
X89580160Y-62296853D01*
X89333598Y-62461600D01*
X88095320Y-63699878D01*
X88049833Y-63699838D01*
X87706057Y-63841883D01*
X87603281Y-63944479D01*
X87375401Y-63716599D01*
X87128839Y-63551852D01*
X86838000Y-63494000D01*
X82299500Y-63494000D01*
X82330441Y-63474090D01*
X82373635Y-63410873D01*
X82705167Y-63411162D01*
X82991608Y-63292807D01*
X83133000Y-63321440D01*
X84193000Y-63321440D01*
X84428317Y-63277162D01*
X84644441Y-63138090D01*
X84671495Y-63098495D01*
X84793407Y-63074245D01*
X84823170Y-63054358D01*
X84868910Y-63125441D01*
X85081110Y-63270431D01*
X85333000Y-63321440D01*
X86393000Y-63321440D01*
X86628317Y-63277162D01*
X86844441Y-63138090D01*
X86989431Y-62925890D01*
X87040440Y-62674000D01*
X87040440Y-62024000D01*
X86996162Y-61788683D01*
X86857090Y-61572559D01*
X86644890Y-61427569D01*
X86507880Y-61399824D01*
X86628317Y-61377162D01*
X86844441Y-61238090D01*
X86850652Y-61229000D01*
X87083243Y-61229000D01*
X87109910Y-61270441D01*
X87201155Y-61332786D01*
X87173162Y-61400201D01*
X87172838Y-61772167D01*
X87314883Y-62115943D01*
X87577673Y-62379192D01*
X87921201Y-62521838D01*
X88293167Y-62522162D01*
X88636943Y-62380117D01*
X88900192Y-62117327D01*
X89042838Y-61773799D01*
X89043162Y-61401833D01*
X89042689Y-61400688D01*
X89112646Y-61355671D01*
X89114302Y-61357327D01*
X89347691Y-61454000D01*
X89788250Y-61454000D01*
X89947000Y-61295250D01*
X89947000Y-60571000D01*
X90201000Y-60571000D01*
X90201000Y-61295250D01*
X90359750Y-61454000D01*
X90800309Y-61454000D01*
X91033698Y-61357327D01*
X91212327Y-61178699D01*
X91309000Y-60945310D01*
X91309000Y-60729750D01*
X91150250Y-60571000D01*
X90201000Y-60571000D01*
X89947000Y-60571000D01*
X89927000Y-60571000D01*
X89927000Y-60317000D01*
X89947000Y-60317000D01*
X89947000Y-59592750D01*
X90201000Y-59592750D01*
X90201000Y-60317000D01*
X91150250Y-60317000D01*
X91309000Y-60158250D01*
X91309000Y-59942690D01*
X91212327Y-59709301D01*
X91033698Y-59530673D01*
X90800309Y-59434000D01*
X90359750Y-59434000D01*
X90201000Y-59592750D01*
X89947000Y-59592750D01*
X89788250Y-59434000D01*
X89347691Y-59434000D01*
X89114302Y-59530673D01*
X89112932Y-59532043D01*
X89025890Y-59472569D01*
X88774000Y-59421560D01*
X87574000Y-59421560D01*
X87338683Y-59465838D01*
X87122559Y-59604910D01*
X87085601Y-59659000D01*
X86837246Y-59659000D01*
X86644890Y-59527569D01*
X86393000Y-59476560D01*
X85333000Y-59476560D01*
X85097683Y-59520838D01*
X84881559Y-59659910D01*
X84823978Y-59744182D01*
X84793407Y-59723755D01*
X84674860Y-59700174D01*
X84657090Y-59672559D01*
X84444890Y-59527569D01*
X84193000Y-59476560D01*
X83133000Y-59476560D01*
X82897683Y-59520838D01*
X82681559Y-59659910D01*
X82536569Y-59872110D01*
X82514000Y-59983559D01*
X82514000Y-59783691D01*
X82417327Y-59550302D01*
X82238699Y-59371673D01*
X82005310Y-59275000D01*
X81789750Y-59275000D01*
X81631000Y-59433750D01*
X81631000Y-60383000D01*
X81651000Y-60383000D01*
X81651000Y-60637000D01*
X81631000Y-60637000D01*
X81631000Y-60657000D01*
X81377000Y-60657000D01*
X81377000Y-60637000D01*
X80652750Y-60637000D01*
X80494000Y-60795750D01*
X80494000Y-61236309D01*
X80590673Y-61469698D01*
X80592043Y-61471068D01*
X80532569Y-61558110D01*
X80481560Y-61810000D01*
X80481560Y-63010000D01*
X80525838Y-63245317D01*
X80664910Y-63461441D01*
X80712562Y-63494000D01*
X78202000Y-63494000D01*
X77988833Y-63536402D01*
X77911160Y-63551852D01*
X77664599Y-63716599D01*
X77426200Y-63954998D01*
X76797940Y-63326738D01*
X76797940Y-63104100D01*
X76766874Y-62939000D01*
X77261666Y-62939000D01*
X77275838Y-63014317D01*
X77414910Y-63230441D01*
X77627110Y-63375431D01*
X77879000Y-63426440D01*
X78779000Y-63426440D01*
X79014317Y-63382162D01*
X79230441Y-63243090D01*
X79375431Y-63030890D01*
X79426440Y-62779000D01*
X79426440Y-61579000D01*
X79382162Y-61343683D01*
X79243090Y-61127559D01*
X79173289Y-61079866D01*
X79230441Y-61043090D01*
X79375431Y-60830890D01*
X79426440Y-60579000D01*
X79426440Y-59783691D01*
X80494000Y-59783691D01*
X80494000Y-60224250D01*
X80652750Y-60383000D01*
X81377000Y-60383000D01*
X81377000Y-59433750D01*
X81218250Y-59275000D01*
X81002690Y-59275000D01*
X80769301Y-59371673D01*
X80590673Y-59550302D01*
X80494000Y-59783691D01*
X79426440Y-59783691D01*
X79426440Y-59379000D01*
X79382162Y-59143683D01*
X79243090Y-58927559D01*
X79030890Y-58782569D01*
X78779000Y-58731560D01*
X77879000Y-58731560D01*
X77643683Y-58775838D01*
X77427559Y-58914910D01*
X77282569Y-59127110D01*
X77269023Y-59194000D01*
X77016000Y-59194000D01*
X76715593Y-59253755D01*
X76523862Y-59381865D01*
X76492833Y-59381838D01*
X76149057Y-59523883D01*
X75885808Y-59786673D01*
X75743162Y-60130201D01*
X75742838Y-60502167D01*
X75884883Y-60845943D01*
X76147673Y-61109192D01*
X76491201Y-61251838D01*
X76863167Y-61252162D01*
X77206943Y-61110117D01*
X77364787Y-60952548D01*
X77414910Y-61030441D01*
X77484711Y-61078134D01*
X77427559Y-61114910D01*
X77282569Y-61327110D01*
X77263961Y-61419000D01*
X76633833Y-61419000D01*
X76601890Y-61369359D01*
X76389690Y-61224369D01*
X76137800Y-61173360D01*
X75287800Y-61173360D01*
X75177079Y-61194194D01*
X75074200Y-61173360D01*
X74224200Y-61173360D01*
X74065990Y-61203129D01*
X74295192Y-60974327D01*
X74437838Y-60630799D01*
X74438162Y-60258833D01*
X74296117Y-59915057D01*
X74033327Y-59651808D01*
X73689799Y-59509162D01*
X73678310Y-59509152D01*
X73593079Y-59423921D01*
X73338407Y-59253755D01*
X73173709Y-59220994D01*
X73159162Y-59143683D01*
X73020090Y-58927559D01*
X72807890Y-58782569D01*
X72556000Y-58731560D01*
X71656000Y-58731560D01*
X71420683Y-58775838D01*
X71204559Y-58914910D01*
X71059569Y-59127110D01*
X71008560Y-59379000D01*
X71008560Y-60579000D01*
X71052838Y-60814317D01*
X71191910Y-61030441D01*
X71261711Y-61078134D01*
X71204559Y-61114910D01*
X71059569Y-61327110D01*
X71008560Y-61579000D01*
X71008560Y-62779000D01*
X71052838Y-63014317D01*
X71191910Y-63230441D01*
X71404110Y-63375431D01*
X71656000Y-63426440D01*
X72556000Y-63426440D01*
X72791317Y-63382162D01*
X73007441Y-63243090D01*
X73152431Y-63030890D01*
X73177762Y-62905800D01*
X73616917Y-62905800D01*
X73576760Y-63104100D01*
X73576760Y-63754100D01*
X73588462Y-63816289D01*
X73308799Y-63700162D01*
X72936833Y-63699838D01*
X72593057Y-63841883D01*
X72329808Y-64104673D01*
X72187162Y-64448201D01*
X72186838Y-64820167D01*
X72328883Y-65163943D01*
X72362000Y-65197118D01*
X72362000Y-66921200D01*
X72418960Y-67207555D01*
X72418960Y-67640600D01*
X72460728Y-67862575D01*
X72241400Y-67818160D01*
X70941400Y-67818160D01*
X70875287Y-67830600D01*
X69556502Y-67830600D01*
X66820800Y-65094898D01*
X66820800Y-64953283D01*
X67260578Y-64659433D01*
X67618470Y-64123810D01*
X67744145Y-63492000D01*
X67618470Y-62860190D01*
X67260578Y-62324567D01*
X66724955Y-61966675D01*
X66093145Y-61841000D01*
X66028455Y-61841000D01*
X65396645Y-61966675D01*
X65093838Y-62169004D01*
X65000890Y-62024559D01*
X64788690Y-61879569D01*
X64536800Y-61828560D01*
X62504800Y-61828560D01*
X62269483Y-61872838D01*
X62053359Y-62011910D01*
X61908369Y-62224110D01*
X61857360Y-62476000D01*
X61857360Y-64508000D01*
X61901638Y-64743317D01*
X62040710Y-64959441D01*
X62252910Y-65104431D01*
X62504800Y-65155440D01*
X62760800Y-65155440D01*
X62760800Y-66675700D01*
X62818652Y-66966539D01*
X62983399Y-67213101D01*
X63482699Y-67712401D01*
X63729261Y-67877148D01*
X64020100Y-67935000D01*
X66584198Y-67935000D01*
X66658758Y-68009560D01*
X65060000Y-68009560D01*
X64824683Y-68053838D01*
X64608559Y-68192910D01*
X64463569Y-68405110D01*
X64455086Y-68447000D01*
X64364844Y-68447000D01*
X64322090Y-68380559D01*
X64109890Y-68235569D01*
X63858000Y-68184560D01*
X63058000Y-68184560D01*
X62822683Y-68228838D01*
X62719354Y-68295329D01*
X62717698Y-68293673D01*
X62484309Y-68197000D01*
X62243750Y-68197000D01*
X62085000Y-68355750D01*
X62085000Y-69080000D01*
X62105000Y-69080000D01*
X62105000Y-69334000D01*
X62085000Y-69334000D01*
X62085000Y-70058250D01*
X62243750Y-70217000D01*
X62484309Y-70217000D01*
X62717698Y-70120327D01*
X62719068Y-70118957D01*
X62806110Y-70178431D01*
X63058000Y-70229440D01*
X63858000Y-70229440D01*
X64093317Y-70185162D01*
X64309441Y-70046090D01*
X64363481Y-69967000D01*
X64452074Y-69967000D01*
X64456838Y-69992317D01*
X64595910Y-70208441D01*
X64808110Y-70353431D01*
X65060000Y-70404440D01*
X66637758Y-70404440D01*
X66532638Y-70509560D01*
X65060000Y-70509560D01*
X64824683Y-70553838D01*
X64608559Y-70692910D01*
X64463569Y-70905110D01*
X64455086Y-70947000D01*
X64339104Y-70947000D01*
X64322090Y-70920559D01*
X64109890Y-70775569D01*
X63858000Y-70724560D01*
X63058000Y-70724560D01*
X62822683Y-70768838D01*
X62719354Y-70835329D01*
X62717698Y-70833673D01*
X62484309Y-70737000D01*
X62243750Y-70737000D01*
X62085000Y-70895750D01*
X62085000Y-71620000D01*
X62105000Y-71620000D01*
X62105000Y-71874000D01*
X62085000Y-71874000D01*
X62085000Y-72598250D01*
X62243750Y-72757000D01*
X62484309Y-72757000D01*
X62717698Y-72660327D01*
X62719068Y-72658957D01*
X62806110Y-72718431D01*
X63058000Y-72769440D01*
X63858000Y-72769440D01*
X64093317Y-72725162D01*
X64309441Y-72586090D01*
X64390812Y-72467000D01*
X64452074Y-72467000D01*
X64456838Y-72492317D01*
X64595910Y-72708441D01*
X64808110Y-72853431D01*
X65060000Y-72904440D01*
X66825758Y-72904440D01*
X66076198Y-73654000D01*
X59684409Y-73654000D01*
X59690192Y-73648227D01*
X59832838Y-73304699D01*
X59833162Y-72932733D01*
X59691117Y-72588957D01*
X59428327Y-72325708D01*
X59084799Y-72183062D01*
X59035697Y-72183019D01*
X58810803Y-72032750D01*
X60923000Y-72032750D01*
X60923000Y-72248310D01*
X61019673Y-72481699D01*
X61198302Y-72660327D01*
X61431691Y-72757000D01*
X61672250Y-72757000D01*
X61831000Y-72598250D01*
X61831000Y-71874000D01*
X61081750Y-71874000D01*
X60923000Y-72032750D01*
X58810803Y-72032750D01*
X58795839Y-72022752D01*
X58744199Y-72012480D01*
X58719090Y-71973459D01*
X58506890Y-71828469D01*
X58255000Y-71777460D01*
X57255000Y-71777460D01*
X57019683Y-71821738D01*
X56803559Y-71960810D01*
X56679806Y-72141929D01*
X56508000Y-72024539D01*
X56508000Y-71245690D01*
X60923000Y-71245690D01*
X60923000Y-71461250D01*
X61081750Y-71620000D01*
X61831000Y-71620000D01*
X61831000Y-70895750D01*
X61672250Y-70737000D01*
X61431691Y-70737000D01*
X61198302Y-70833673D01*
X61019673Y-71012301D01*
X60923000Y-71245690D01*
X56508000Y-71245690D01*
X56508000Y-69492750D01*
X60923000Y-69492750D01*
X60923000Y-69708310D01*
X61019673Y-69941699D01*
X61198302Y-70120327D01*
X61431691Y-70217000D01*
X61672250Y-70217000D01*
X61831000Y-70058250D01*
X61831000Y-69334000D01*
X61081750Y-69334000D01*
X60923000Y-69492750D01*
X56508000Y-69492750D01*
X56508000Y-69464139D01*
X56573221Y-69422170D01*
X56718211Y-69209970D01*
X56769220Y-68958080D01*
X56769220Y-68705690D01*
X60923000Y-68705690D01*
X60923000Y-68921250D01*
X61081750Y-69080000D01*
X61831000Y-69080000D01*
X61831000Y-68355750D01*
X61672250Y-68197000D01*
X61431691Y-68197000D01*
X61198302Y-68293673D01*
X61019673Y-68472301D01*
X60923000Y-68705690D01*
X56769220Y-68705690D01*
X56769220Y-68160520D01*
X56724942Y-67925203D01*
X56650815Y-67810007D01*
X56718211Y-67711370D01*
X56769220Y-67459480D01*
X56769220Y-66661920D01*
X56724942Y-66426603D01*
X56585870Y-66210479D01*
X56373670Y-66065489D01*
X56313000Y-66053203D01*
X56313000Y-65575334D01*
X56388317Y-65561162D01*
X56604441Y-65422090D01*
X56749431Y-65209890D01*
X56800440Y-64958000D01*
X56800440Y-64058000D01*
X56756162Y-63822683D01*
X56617090Y-63606559D01*
X56404890Y-63461569D01*
X56153000Y-63410560D01*
X54953000Y-63410560D01*
X54717683Y-63454838D01*
X54501559Y-63593910D01*
X54455031Y-63662006D01*
X54312698Y-63519673D01*
X54079309Y-63423000D01*
X53638750Y-63423000D01*
X53480000Y-63581750D01*
X53480000Y-64381000D01*
X53500000Y-64381000D01*
X53500000Y-64635000D01*
X53480000Y-64635000D01*
X53480000Y-65434250D01*
X53638750Y-65593000D01*
X54079309Y-65593000D01*
X54312698Y-65496327D01*
X54453936Y-65355090D01*
X54488910Y-65409441D01*
X54701110Y-65554431D01*
X54793000Y-65573039D01*
X54793000Y-66314590D01*
X54727789Y-66410030D01*
X54676780Y-66661920D01*
X54676780Y-67459480D01*
X54721058Y-67694797D01*
X54795185Y-67809993D01*
X54727789Y-67908630D01*
X54676780Y-68160520D01*
X54676780Y-68958080D01*
X54721058Y-69193397D01*
X54860130Y-69409521D01*
X54938000Y-69462727D01*
X54938000Y-71391251D01*
X54766799Y-71320162D01*
X54394833Y-71319838D01*
X54051057Y-71461883D01*
X53787808Y-71724673D01*
X53785430Y-71730399D01*
X52950740Y-71730399D01*
X52950740Y-70596800D01*
X52906462Y-70361483D01*
X52767390Y-70145359D01*
X52555190Y-70000369D01*
X52303300Y-69949360D01*
X50543340Y-69949360D01*
X50543340Y-69689600D01*
X50499062Y-69454283D01*
X50359990Y-69238159D01*
X50147790Y-69093169D01*
X49895900Y-69042160D01*
X48457000Y-69042160D01*
X48457000Y-64793750D01*
X52118000Y-64793750D01*
X52118000Y-65084310D01*
X52214673Y-65317699D01*
X52393302Y-65496327D01*
X52626691Y-65593000D01*
X53067250Y-65593000D01*
X53226000Y-65434250D01*
X53226000Y-64635000D01*
X52276750Y-64635000D01*
X52118000Y-64793750D01*
X48457000Y-64793750D01*
X48457000Y-63931690D01*
X52118000Y-63931690D01*
X52118000Y-64222250D01*
X52276750Y-64381000D01*
X53226000Y-64381000D01*
X53226000Y-63581750D01*
X53067250Y-63423000D01*
X52626691Y-63423000D01*
X52393302Y-63519673D01*
X52214673Y-63698301D01*
X52118000Y-63931690D01*
X48457000Y-63931690D01*
X48457000Y-61400805D01*
X48824811Y-61769259D01*
X50233825Y-62354333D01*
X51759482Y-62355664D01*
X53169515Y-61773050D01*
X54249259Y-60695189D01*
X54834333Y-59286175D01*
X54835664Y-57760518D01*
X54253050Y-56350485D01*
X53875225Y-55972000D01*
X105274203Y-55972000D01*
X104900741Y-56344811D01*
G36*
X70293960Y-70965600D02*
X70293960Y-71215600D01*
X70313850Y-71321305D01*
X70310000Y-71330600D01*
X68714400Y-71330600D01*
X68423561Y-71388452D01*
X68176999Y-71553199D01*
X67607440Y-72122758D01*
X67607440Y-71584362D01*
X68341202Y-70850600D01*
X70317248Y-70850600D01*
X70293960Y-70965600D01*
X70293960Y-70965600D01*
G37*
X70293960Y-70965600D02*
X70293960Y-71215600D01*
X70313850Y-71321305D01*
X70310000Y-71330600D01*
X68714400Y-71330600D01*
X68423561Y-71388452D01*
X68176999Y-71553199D01*
X67607440Y-72122758D01*
X67607440Y-71584362D01*
X68341202Y-70850600D01*
X70317248Y-70850600D01*
X70293960Y-70965600D01*
G36*
X82656750Y-61272000D02*
X82737051Y-61272000D01*
X82881110Y-61370431D01*
X83018120Y-61398176D01*
X82897683Y-61420838D01*
X82734257Y-61526000D01*
X82656750Y-61526000D01*
X82641645Y-61541105D01*
X82460454Y-61540947D01*
X82415671Y-61471354D01*
X82417327Y-61469698D01*
X82514000Y-61236309D01*
X82514000Y-61129250D01*
X82656750Y-61272000D01*
X82656750Y-61272000D01*
G37*
X82656750Y-61272000D02*
X82737051Y-61272000D01*
X82881110Y-61370431D01*
X83018120Y-61398176D01*
X82897683Y-61420838D01*
X82734257Y-61526000D01*
X82656750Y-61526000D01*
X82641645Y-61541105D01*
X82460454Y-61540947D01*
X82415671Y-61471354D01*
X82417327Y-61469698D01*
X82514000Y-61236309D01*
X82514000Y-61129250D01*
X82656750Y-61272000D01*
M02*
