G04 #@! TF.FileFunction,Soldermask,Top*
%FSLAX46Y46*%
G04 Gerber Fmt 4.6, Leading zero omitted, Abs format (unit mm)*
G04 Created by KiCad (PCBNEW 4.0.2-stable) date 8/15/2016 9:55:29 PM*
%MOMM*%
G01*
G04 APERTURE LIST*
%ADD10C,0.100000*%
%ADD11R,2.127200X2.127200*%
%ADD12O,2.127200X2.127200*%
%ADD13R,1.150000X1.600000*%
%ADD14R,1.650000X1.900000*%
%ADD15R,1.600000X1.150000*%
%ADD16R,1.900000X1.650000*%
%ADD17R,1.300000X1.600000*%
%ADD18R,1.600000X1.300000*%
%ADD19R,1.460000X1.050000*%
%ADD20R,1.700000X0.650000*%
%ADD21R,0.650000X1.700000*%
%ADD22R,0.850000X1.850000*%
%ADD23R,1.200100X1.200100*%
%ADD24R,1.250000X1.050000*%
%ADD25R,2.432000X2.432000*%
%ADD26O,2.432000X2.432000*%
%ADD27R,2.432000X2.127200*%
%ADD28O,2.432000X2.127200*%
%ADD29R,1.197560X1.197560*%
%ADD30R,1.800000X2.400000*%
%ADD31R,1.780000X0.850000*%
%ADD32R,2.500000X1.875000*%
%ADD33R,2.300000X2.775000*%
%ADD34R,1.400000X1.000000*%
%ADD35R,1.700000X1.300000*%
%ADD36R,0.740000X2.900000*%
%ADD37C,6.800000*%
%ADD38R,1.200000X1.150000*%
%ADD39R,2.300000X1.500000*%
G04 APERTURE END LIST*
D10*
D11*
X102950000Y-78000000D03*
D12*
X105490000Y-78000000D03*
X102950000Y-75460000D03*
X105490000Y-75460000D03*
X102950000Y-72920000D03*
X105490000Y-72920000D03*
X102950000Y-70380000D03*
X105490000Y-70380000D03*
X102950000Y-67840000D03*
X105490000Y-67840000D03*
D13*
X81504000Y-62410000D03*
X81504000Y-60510000D03*
D14*
X73376000Y-85570000D03*
X73376000Y-83070000D03*
D15*
X88174000Y-60444000D03*
X90074000Y-60444000D03*
D16*
X78436000Y-90035000D03*
X75936000Y-90035000D03*
D14*
X81123000Y-86586000D03*
X81123000Y-84086000D03*
D15*
X91090000Y-88511000D03*
X89190000Y-88511000D03*
D13*
X86012500Y-75496000D03*
X86012500Y-77396000D03*
X96007400Y-72900200D03*
X96007400Y-71000200D03*
D16*
X78436000Y-80129000D03*
X75936000Y-80129000D03*
D13*
X94077000Y-79775900D03*
X94077000Y-81675900D03*
X96147100Y-79775900D03*
X96147100Y-81675900D03*
D17*
X69312000Y-76911000D03*
X69312000Y-74711000D03*
D18*
X88446000Y-85844000D03*
X86246000Y-85844000D03*
X96329800Y-77169900D03*
X98529800Y-77169900D03*
D17*
X72106000Y-59979000D03*
X72106000Y-62179000D03*
X78329000Y-59979000D03*
X78329000Y-62179000D03*
D19*
X83663000Y-60449000D03*
X83663000Y-61399000D03*
X83663000Y-62349000D03*
X85863000Y-62349000D03*
X85863000Y-60449000D03*
D20*
X71591400Y-68590600D03*
X71591400Y-69090600D03*
X71591400Y-69590600D03*
X71591400Y-70090600D03*
X71591400Y-70590600D03*
X71591400Y-71090600D03*
X71591400Y-71590600D03*
X71591400Y-72090600D03*
X71591400Y-72590600D03*
X71591400Y-73090600D03*
X71591400Y-73590600D03*
X71591400Y-74090600D03*
D21*
X73191400Y-75690600D03*
X73691400Y-75690600D03*
X74191400Y-75690600D03*
X74691400Y-75690600D03*
X75191400Y-75690600D03*
X75691400Y-75690600D03*
X76191400Y-75690600D03*
X76691400Y-75690600D03*
X77191400Y-75690600D03*
X77691400Y-75690600D03*
X78191400Y-75690600D03*
X78691400Y-75690600D03*
D20*
X80291400Y-74090600D03*
X80291400Y-73590600D03*
X80291400Y-73090600D03*
X80291400Y-72590600D03*
X80291400Y-72090600D03*
X80291400Y-71590600D03*
X80291400Y-71090600D03*
X80291400Y-70590600D03*
X80291400Y-70090600D03*
X80291400Y-69590600D03*
X80291400Y-69090600D03*
X80291400Y-68590600D03*
D21*
X78691400Y-66990600D03*
X78191400Y-66990600D03*
X77691400Y-66990600D03*
X77191400Y-66990600D03*
X76691400Y-66990600D03*
X76191400Y-66990600D03*
X75691400Y-66990600D03*
X75191400Y-66990600D03*
X74691400Y-66990600D03*
X74191400Y-66990600D03*
X73691400Y-66990600D03*
X73191400Y-66990600D03*
D22*
X93865100Y-69127200D03*
X93215100Y-69127200D03*
X92565100Y-69127200D03*
X91915100Y-69127200D03*
X91265100Y-69127200D03*
X90615100Y-69127200D03*
X89965100Y-69127200D03*
X89315100Y-69127200D03*
X88665100Y-69127200D03*
X88015100Y-69127200D03*
X88015100Y-75027200D03*
X88665100Y-75027200D03*
X89315100Y-75027200D03*
X89965100Y-75027200D03*
X90615100Y-75027200D03*
X91265100Y-75027200D03*
X91915100Y-75027200D03*
X92565100Y-75027200D03*
X93215100Y-75027200D03*
X93865100Y-75027200D03*
D23*
X91267760Y-81714000D03*
X91267760Y-79814000D03*
X89268780Y-80764000D03*
D24*
X75725500Y-63429100D03*
X74649200Y-63429100D03*
X75712800Y-62145800D03*
X74649200Y-62145800D03*
D25*
X63520800Y-63492000D03*
D26*
X66060800Y-63492000D03*
D27*
X60549000Y-82542000D03*
D28*
X60549000Y-85082000D03*
X60549000Y-87622000D03*
D29*
X55723000Y-68559300D03*
X55723000Y-67060700D03*
D18*
X55553000Y-64508000D03*
X53353000Y-64508000D03*
D30*
X95457000Y-85860000D03*
X91145000Y-85860000D03*
D18*
X95685000Y-88511000D03*
X93485000Y-88511000D03*
D31*
X51608900Y-75115400D03*
X51608900Y-74465400D03*
X51608900Y-73815400D03*
X51608900Y-73165400D03*
X51608900Y-72515400D03*
D32*
X51253300Y-76287300D03*
X51253300Y-71334300D03*
D33*
X48945900Y-70877100D03*
X48945900Y-76731800D03*
D34*
X55750300Y-72917000D03*
X57755000Y-74668000D03*
X57755000Y-72724900D03*
D35*
X55750300Y-74580600D03*
D36*
X78288000Y-86832000D03*
X78288000Y-83332000D03*
X77638000Y-86832000D03*
X77638000Y-83332000D03*
X76988000Y-86832000D03*
X76988000Y-83332000D03*
X76338000Y-86832000D03*
X76338000Y-83332000D03*
D37*
X51000000Y-58520000D03*
X51000000Y-89000000D03*
X108150000Y-89000000D03*
X108150000Y-58520000D03*
D38*
X61958000Y-71747000D03*
X63458000Y-71747000D03*
X61958000Y-69207000D03*
X63458000Y-69207000D03*
D18*
X67069000Y-88892000D03*
X69269000Y-88892000D03*
D30*
X64983000Y-85860000D03*
X69295000Y-85860000D03*
D39*
X66010000Y-69207000D03*
X66010000Y-71707000D03*
M02*
