M48
;DRILL file {KiCad 4.0.7} date 12/11/17 20:33:13
;FORMAT={-:-/ absolute / metric / decimal}
FMAT,2
METRIC,TZ
T1C0.400
T2C1.000
T3C1.200
T4C3.200
%
G90
G05
M71
T1
X48.481Y-73.243
X51.831Y-69.83
X52.672Y-69.245
X53.048Y-73.642
X53.149Y-77.77
X53.155Y-74.892
X53.172Y-71.831
X53.398Y-76.893
X54.452Y-80.067
X55.092Y-79.586
X55.227Y-68.661
X55.38Y-67.843
X55.862Y-79.37
X55.893Y-70.934
X56.177Y-69.29
X56.391Y-72.26
X56.491Y-68.087
X57.732Y-79.657
X58.826Y-79.901
X59.235Y-77.902
X59.832Y-67.605
X60.132Y-73.266
X62.53Y-69.759
X63.187Y-72.093
X64.486Y-67.551
X64.773Y-76.116
X64.793Y-73.254
X65.339Y-69.703
X65.722Y-75.725
X66.679Y-75.623
X66.685Y-77.424
X66.896Y-73.729
X67.013Y-76.35
X67.066Y-67.551
X67.12Y-78.56
X67.635Y-69.654
X68.677Y-59.39
X69.571Y-71.44
X70.028Y-73.142
X70.701Y-76.25
X70.957Y-74.912
X71.369Y-79.134
X71.651Y-76.351
X71.662Y-73.806
X71.778Y-77.554
X71.989Y-73.053
X72.146Y-75.322
X72.233Y-78.758
X72.464Y-74.45
X72.669Y-76.525
X72.746Y-71.553
X72.787Y-72.707
X72.893Y-68.095
X73.591Y-79.606
X73.67Y-59.319
X74.43Y-79.886
X74.993Y-74.463
X75.001Y-77.063
X75.009Y-73.163
X76.449Y-73.129
X76.845Y-67.018
X78.392Y-59.319
X78.407Y-69.619
X79.273Y-72.057
X88.487Y-68.071
X88.489Y-69.662
X88.522Y-71.29
X88.557Y-66.467
X88.72Y-78.928
X91.232Y-68.837
X91.387Y-67.338
X91.458Y-65.811
X91.47Y-70.533
X93.391Y-72.012
X94.077Y-72.588
X94.663Y-69.372
X94.689Y-65.725
X94.757Y-71.77
X97.647Y-71.855
X97.815Y-78.974
X97.844Y-66.471
X98.044Y-68.064
X99.294Y-72.7
X99.381Y-71.586
X99.449Y-73.721
X99.659Y-70.546
X100.449Y-64.348
X100.861Y-68.9
X101.521Y-76.759
X102.319Y-72.532
X103.264Y-73.942
X104.135Y-72.664
X104.623Y-71.992
X104.676Y-69.769
X105.161Y-73.589
X105.593Y-71.953
X105.789Y-67.96
X107.77Y-69.177
X108.298Y-76.606
X108.494Y-75.778
X108.666Y-74.882
X110.333Y-68.839
X110.523Y-72.045
X110.884Y-68.259
X111.318Y-67.485
X111.328Y-73.942
X112.037Y-72.702
X112.113Y-69.449
T2
X49.34Y-65.581
X49.34Y-81.855
X51.88Y-65.581
X51.88Y-81.855
X54.419Y-65.581
X54.419Y-81.855
X56.959Y-65.581
X56.959Y-81.855
X59.499Y-65.581
X59.499Y-81.855
X62.039Y-65.581
X62.039Y-81.855
X64.579Y-65.581
X64.579Y-81.855
X67.12Y-65.581
X67.12Y-81.855
X69.659Y-65.581
X69.659Y-81.855
X72.2Y-65.581
X72.2Y-81.855
X74.739Y-65.581
X74.739Y-81.855
X77.279Y-65.581
X77.279Y-81.855
X79.819Y-65.581
X79.819Y-81.855
X82.337Y-68.613
X82.337Y-71.153
X82.337Y-73.693
X82.337Y-76.233
X82.337Y-78.773
X82.359Y-65.581
X82.359Y-81.855
X114.424Y-68.275
X114.424Y-70.815
X114.424Y-73.355
X114.424Y-75.895
X114.424Y-78.435
X116.964Y-68.275
X116.964Y-70.815
X116.964Y-73.355
X116.964Y-75.895
X116.964Y-78.435
T3
X95.108Y-64.057
X95.108Y-82.484
T4
X51.Y-58.52
X51.Y-89.
X108.15Y-58.52
X108.15Y-89.
T0
M30
