G04 #@! TF.FileFunction,Copper,L4,Bot,Signal*
%FSLAX46Y46*%
G04 Gerber Fmt 4.6, Leading zero omitted, Abs format (unit mm)*
G04 Created by KiCad (PCBNEW 4.0.7) date 12/11/17 20:33:10*
%MOMM*%
%LPD*%
G01*
G04 APERTURE LIST*
%ADD10C,0.100000*%
%ADD11C,6.400000*%
%ADD12C,1.200000*%
%ADD13R,1.700000X1.700000*%
%ADD14O,1.700000X1.700000*%
%ADD15C,0.600000*%
%ADD16C,0.203200*%
%ADD17C,0.254000*%
G04 APERTURE END LIST*
D10*
D11*
X108150000Y-58520000D03*
X51000000Y-58520000D03*
X108150000Y-89000000D03*
X51000000Y-89000000D03*
D12*
X95108340Y-82484180D03*
X95108340Y-64057180D03*
D13*
X49339500Y-65580960D03*
D14*
X51879500Y-65580960D03*
X54419500Y-65580960D03*
X56959500Y-65580960D03*
X59499500Y-65580960D03*
X62039500Y-65580960D03*
X64579500Y-65580960D03*
X67119500Y-65580960D03*
X69659500Y-65580960D03*
X72199500Y-65580960D03*
X74739500Y-65580960D03*
X77279500Y-65580960D03*
X79819500Y-65580960D03*
X82359500Y-65580960D03*
D13*
X82359500Y-81854840D03*
D14*
X79819500Y-81854840D03*
X77279500Y-81854840D03*
X74739500Y-81854840D03*
X72199500Y-81854840D03*
X69659500Y-81854840D03*
X67119500Y-81854840D03*
X64579500Y-81854840D03*
X62039500Y-81854840D03*
X59499500Y-81854840D03*
X56959500Y-81854840D03*
X54419500Y-81854840D03*
X51879500Y-81854840D03*
X49339500Y-81854840D03*
D13*
X82336640Y-68613020D03*
D14*
X82336640Y-71153020D03*
X82336640Y-73693020D03*
X82336640Y-76233020D03*
X82336640Y-78773020D03*
D13*
X116964460Y-68275200D03*
D14*
X114424460Y-68275200D03*
X116964460Y-70815200D03*
X114424460Y-70815200D03*
X116964460Y-73355200D03*
X114424460Y-73355200D03*
X116964460Y-75895200D03*
X114424460Y-75895200D03*
X116964460Y-78435200D03*
X114424460Y-78435200D03*
D15*
X72787068Y-72707242D03*
X56390540Y-72260460D03*
X88720420Y-78927960D03*
X101521260Y-76758800D03*
X97815400Y-78973680D03*
X97646664Y-71855396D03*
X94663260Y-69372480D03*
X98044000Y-68064380D03*
X97844460Y-66470680D03*
X88521540Y-71290180D03*
X88488520Y-69662040D03*
X88487200Y-68070680D03*
X88557100Y-66466720D03*
X105789340Y-67960240D03*
X68676520Y-59390280D03*
X76448920Y-73129140D03*
X64792860Y-73253600D03*
X60131860Y-73266300D03*
X48480980Y-73243440D03*
X55892700Y-70933550D03*
X52671980Y-69245480D03*
X107769660Y-69176900D03*
X73670160Y-59319160D03*
X78392020Y-59319160D03*
X72745988Y-71552816D03*
X72892920Y-68094860D03*
X78407260Y-69618860D03*
X65338960Y-69702680D03*
X62529720Y-69758560D03*
X56491400Y-68087240D03*
X110333380Y-68839080D03*
X108666280Y-74881740D03*
X110884397Y-68259095D03*
X108493560Y-75778360D03*
X111318040Y-67485260D03*
X108297980Y-76606400D03*
X55379620Y-67843020D03*
X64485520Y-67550920D03*
X55227220Y-68661280D03*
X67066160Y-67550920D03*
X56177180Y-69290441D03*
X100449380Y-64348360D03*
X100860860Y-68900040D03*
X59832240Y-67604640D03*
X76845160Y-67017900D03*
X69570600Y-71440040D03*
X53172360Y-71831200D03*
X63186940Y-72092820D03*
X79272620Y-72057260D03*
X51831240Y-69829680D03*
X67635120Y-69653980D03*
X74429620Y-79885540D03*
X70027800Y-73141840D03*
X73591420Y-79606140D03*
X70957440Y-74911840D03*
X70701478Y-76250222D03*
X72232520Y-78757679D03*
X71368920Y-79134080D03*
X75001120Y-77062660D03*
X72146264Y-75321919D03*
X74993500Y-74462660D03*
X54452483Y-80066555D03*
X75008740Y-73162660D03*
X58826400Y-79900780D03*
X55091992Y-79585897D03*
X57731660Y-79656940D03*
X55862274Y-79369866D03*
X102318820Y-72532240D03*
X71988680Y-73052940D03*
X64772540Y-76116180D03*
X91457780Y-65811400D03*
X99293680Y-72699880D03*
X104134920Y-72664320D03*
X72669400Y-76525120D03*
X66685160Y-77424280D03*
X91231720Y-68836540D03*
X99448620Y-73720960D03*
X103263700Y-73941680D03*
X112113060Y-69448680D03*
X72463660Y-74449940D03*
X66678819Y-75622917D03*
X91386660Y-67337940D03*
X99381334Y-71586066D03*
X104622600Y-71991680D03*
X91470480Y-70533260D03*
X99659440Y-70545960D03*
X105592880Y-71953120D03*
X71662194Y-73805954D03*
X94688660Y-65725040D03*
X66895980Y-73728580D03*
X53047900Y-73642220D03*
X71650860Y-76351278D03*
X93390720Y-72011540D03*
X65722500Y-75725020D03*
X53154580Y-74891900D03*
X112036860Y-72702420D03*
X71777860Y-77554478D03*
X94076520Y-72588120D03*
X67012820Y-76349860D03*
X53398420Y-76893420D03*
X110523020Y-72044560D03*
X67119500Y-78559660D03*
X94757240Y-71770240D03*
X53149500Y-77769720D03*
X59235340Y-77901800D03*
X104675940Y-69768720D03*
X105161080Y-73588880D03*
X111328200Y-73941680D03*
D16*
X62039500Y-65580960D02*
X62039500Y-64378879D01*
X62039500Y-64378879D02*
X61892141Y-64231520D01*
X58254900Y-66614040D02*
X57627520Y-67241420D01*
X61892141Y-64231520D02*
X58727340Y-64231520D01*
X58727340Y-64231520D02*
X58254900Y-64703960D01*
X58254900Y-64703960D02*
X58254900Y-66614040D01*
X57627520Y-67241420D02*
X56405484Y-67241420D01*
X56405484Y-67241420D02*
X55803884Y-67843020D01*
X55803884Y-67843020D02*
X55379620Y-67843020D01*
X61843920Y-67388740D02*
X64323340Y-67388740D01*
X64323340Y-67388740D02*
X64485520Y-67550920D01*
X60411360Y-67915890D02*
X61316770Y-67915890D01*
X61316770Y-67915890D02*
X61843920Y-67388740D01*
X57146185Y-68292980D02*
X60034270Y-68292980D01*
X60034270Y-68292980D02*
X60411360Y-67915890D01*
X56863359Y-68688841D02*
X56863359Y-68575806D01*
X56863359Y-68575806D02*
X57146185Y-68292980D01*
X55227220Y-68661280D02*
X55651484Y-68661280D01*
X55651484Y-68661280D02*
X55679045Y-68688841D01*
X55679045Y-68688841D02*
X56863359Y-68688841D01*
X65610740Y-67431920D02*
X66947160Y-67431920D01*
X66947160Y-67431920D02*
X67066160Y-67550920D01*
X64890139Y-68152521D02*
X65610740Y-67431920D01*
X61483785Y-68319100D02*
X61650364Y-68152521D01*
X61650364Y-68152521D02*
X64890139Y-68152521D01*
X57617360Y-68696190D02*
X60201285Y-68696190D01*
X60201285Y-68696190D02*
X60578375Y-68319100D01*
X60578375Y-68319100D02*
X61483785Y-68319100D01*
X57023109Y-69290441D02*
X57617360Y-68696190D01*
X56177180Y-69290441D02*
X57023109Y-69290441D01*
X101191060Y-65090040D02*
X100449380Y-64348360D01*
X101191060Y-68145576D02*
X101191060Y-65090040D01*
X100860860Y-68900040D02*
X100860860Y-68475776D01*
X100860860Y-68475776D02*
X101191060Y-68145576D01*
X60416440Y-66949320D02*
X59832240Y-67533520D01*
X59832240Y-67533520D02*
X59832240Y-67604640D01*
X76352316Y-66949320D02*
X60416440Y-66949320D01*
X76845160Y-67017900D02*
X76420896Y-67017900D01*
X76420896Y-67017900D02*
X76352316Y-66949320D01*
X74893790Y-67352530D02*
X70436740Y-67352530D01*
X70436740Y-67352530D02*
X69715380Y-67352530D01*
X70203060Y-71231844D02*
X70203060Y-67513200D01*
X70203060Y-67513200D02*
X70363730Y-67352530D01*
X70363730Y-67352530D02*
X70436740Y-67352530D01*
X69570600Y-71440040D02*
X69994864Y-71440040D01*
X69994864Y-71440040D02*
X70203060Y-71231844D01*
X53721000Y-71340980D02*
X53230780Y-71831200D01*
X53230780Y-71831200D02*
X53172360Y-71831200D01*
X53721000Y-70614540D02*
X53721000Y-71340980D01*
X54406800Y-69928740D02*
X53721000Y-70614540D01*
X54503320Y-69928740D02*
X54406800Y-69928740D01*
X56955034Y-69928740D02*
X54503320Y-69928740D01*
X61273710Y-69099400D02*
X57784374Y-69099400D01*
X57784374Y-69099400D02*
X56955034Y-69928740D01*
X65057154Y-68555731D02*
X61817379Y-68555731D01*
X61817379Y-68555731D02*
X61273710Y-69099400D01*
X66237361Y-68152521D02*
X65460363Y-68152521D01*
X65460363Y-68152521D02*
X65057154Y-68555731D01*
X68753370Y-67352530D02*
X67953379Y-68152521D01*
X67953379Y-68152521D02*
X66237361Y-68152521D01*
X69715380Y-67352530D02*
X68753370Y-67352530D01*
X78969501Y-66887459D02*
X78237459Y-67619501D01*
X78237459Y-67619501D02*
X75160761Y-67619501D01*
X75160761Y-67619501D02*
X74893790Y-67352530D01*
X79819500Y-65580960D02*
X78969501Y-66430959D01*
X78969501Y-66430959D02*
X78969501Y-66887459D01*
X80713580Y-67056000D02*
X80713580Y-67264280D01*
X80713580Y-67264280D02*
X80713580Y-69701416D01*
X70056119Y-72041641D02*
X70606270Y-71491490D01*
X63186940Y-72092820D02*
X63238119Y-72041641D01*
X63238119Y-72041641D02*
X70056119Y-72041641D01*
X70606270Y-71491490D02*
X70606270Y-69761750D01*
X70606270Y-69761750D02*
X71485760Y-68882260D01*
X71485760Y-68882260D02*
X78005940Y-68882260D01*
X78005940Y-68882260D02*
X79623920Y-67264280D01*
X79623920Y-67264280D02*
X80713580Y-67264280D01*
X82359500Y-65580960D02*
X81509501Y-66430959D01*
X81509501Y-66430959D02*
X81338621Y-66430959D01*
X80054480Y-71575900D02*
X79873119Y-71757261D01*
X81338621Y-66430959D02*
X80713580Y-67056000D01*
X80713580Y-69701416D02*
X80054480Y-70360515D01*
X80054480Y-70360515D02*
X80054480Y-71575900D01*
X79873119Y-71757261D02*
X79572619Y-71757261D01*
X79572619Y-71757261D02*
X79272620Y-72057260D01*
X51475640Y-70017640D02*
X51663600Y-69829680D01*
X51663600Y-69829680D02*
X51831240Y-69829680D01*
X51475640Y-71751702D02*
X51475640Y-70017640D01*
X52156739Y-72432801D02*
X51475640Y-71751702D01*
X53465830Y-72428100D02*
X53461129Y-72432801D01*
X53461129Y-72432801D02*
X52156739Y-72432801D01*
X54628430Y-70331950D02*
X54124210Y-70836170D01*
X54124210Y-70836170D02*
X54124210Y-71769720D01*
X54124210Y-71769720D02*
X53465830Y-72428100D01*
X57122049Y-70331950D02*
X54628430Y-70331950D01*
X61440725Y-69502610D02*
X57951388Y-69502610D01*
X57951388Y-69502610D02*
X57122049Y-70331950D01*
X65224169Y-68958941D02*
X61984393Y-68958941D01*
X61984393Y-68958941D02*
X61440725Y-69502610D01*
X67635120Y-69653980D02*
X66536871Y-68555731D01*
X66536871Y-68555731D02*
X65627378Y-68555731D01*
X65627378Y-68555731D02*
X65224169Y-68958941D01*
X76482405Y-80487520D02*
X78452180Y-80487520D01*
X78452180Y-80487520D02*
X79819500Y-81854840D01*
X74429620Y-79885540D02*
X75880425Y-79885540D01*
X75880425Y-79885540D02*
X76482405Y-80487520D01*
X74051076Y-80490060D02*
X75914720Y-80490060D01*
X75914720Y-80490060D02*
X77279500Y-81854840D01*
X73591420Y-79606140D02*
X73591420Y-80030404D01*
X73591420Y-80030404D02*
X74051076Y-80490060D01*
X72232520Y-78757679D02*
X72232520Y-79347860D01*
X72232520Y-79347860D02*
X74739500Y-81854840D01*
X71368920Y-79134080D02*
X71368920Y-81024260D01*
X71368920Y-81024260D02*
X72199500Y-81854840D01*
X64404240Y-83459320D02*
X64579500Y-83284060D01*
X64579500Y-83284060D02*
X64579500Y-81854840D01*
X56713120Y-83459320D02*
X64404240Y-83459320D01*
X56262781Y-83008981D02*
X56713120Y-83459320D01*
X55702200Y-82445860D02*
X56262781Y-83006441D01*
X56262781Y-83006441D02*
X56262781Y-83008981D01*
X55702200Y-81092040D02*
X55702200Y-82445860D01*
X54976714Y-80366554D02*
X55702200Y-81092040D01*
X54452483Y-80066555D02*
X54752482Y-80366554D01*
X54752482Y-80366554D02*
X54976714Y-80366554D01*
X58448319Y-80258541D02*
X58806080Y-79900780D01*
X58806080Y-79900780D02*
X58826400Y-79900780D01*
X57442891Y-80258541D02*
X58448319Y-80258541D01*
X56360493Y-79971467D02*
X56647567Y-80258541D01*
X56647567Y-80258541D02*
X57442891Y-80258541D01*
X55091992Y-79585897D02*
X55477562Y-79971467D01*
X55477562Y-79971467D02*
X56360493Y-79971467D01*
X57500466Y-79369866D02*
X57731660Y-79601060D01*
X57731660Y-79601060D02*
X57731660Y-79656940D01*
X55862274Y-79369866D02*
X57500466Y-79369866D01*
X101221540Y-73781920D02*
X102318820Y-72684640D01*
X102318820Y-72684640D02*
X102318820Y-72532240D01*
X100825300Y-73781920D02*
X101221540Y-73781920D01*
X100256340Y-74350880D02*
X100825300Y-73781920D01*
X95722440Y-74350880D02*
X100256340Y-74350880D01*
X95160450Y-74912870D02*
X95722440Y-74350880D01*
X95160450Y-75399275D02*
X95160450Y-74912870D01*
X86690850Y-76318730D02*
X94240995Y-76318730D01*
X94240995Y-76318730D02*
X95160450Y-75399275D01*
X84140040Y-78773020D02*
X85732620Y-77180440D01*
X85732620Y-77180440D02*
X85829140Y-77180440D01*
X85829140Y-77180440D02*
X86690850Y-76318730D01*
X82336640Y-78773020D02*
X84140040Y-78773020D01*
X64772540Y-76116180D02*
X64772540Y-75691916D01*
X64772540Y-75691916D02*
X65486196Y-74978260D01*
X65486196Y-74978260D02*
X69019420Y-74978260D01*
X69019420Y-74978260D02*
X70215844Y-73781836D01*
X70215844Y-73781836D02*
X70835520Y-73781836D01*
X71988680Y-73052940D02*
X71564416Y-73052940D01*
X71564416Y-73052940D02*
X70835520Y-73781836D01*
X91569540Y-65923160D02*
X91457780Y-65811400D01*
X91569540Y-66268600D02*
X91569540Y-65923160D01*
X93398340Y-68097400D02*
X91569540Y-66268600D01*
X96981004Y-68097400D02*
X93398340Y-68097400D01*
X98261164Y-69377560D02*
X96981004Y-68097400D01*
X100236020Y-69377560D02*
X98261164Y-69377560D01*
X100738290Y-69879830D02*
X100236020Y-69377560D01*
X99293680Y-72699880D02*
X100738290Y-71255270D01*
X100738290Y-71255270D02*
X100738290Y-69879830D01*
X112821720Y-70182740D02*
X112821720Y-69877940D01*
X112821720Y-69877940D02*
X114424460Y-68275200D01*
X112592469Y-70411991D02*
X112821720Y-70182740D01*
X109638460Y-70411991D02*
X112592469Y-70411991D01*
X106793060Y-71146700D02*
X108903751Y-71146700D01*
X108903751Y-71146700D02*
X109638460Y-70411991D01*
X103834921Y-71935619D02*
X104020999Y-71749541D01*
X104020999Y-71749541D02*
X104020999Y-71702911D01*
X104020999Y-71702911D02*
X104775601Y-70948309D01*
X104775601Y-70948309D02*
X106594669Y-70948309D01*
X106594669Y-70948309D02*
X106793060Y-71146700D01*
X104134920Y-72664320D02*
X103834921Y-72364321D01*
X103834921Y-72364321D02*
X103834921Y-71935619D01*
X70004228Y-77385468D02*
X69964300Y-77345540D01*
X69964300Y-77345540D02*
X69809360Y-77190600D01*
X66685160Y-77424280D02*
X66985159Y-77124281D01*
X66985159Y-77124281D02*
X69743041Y-77124281D01*
X69743041Y-77124281D02*
X69964300Y-77345540D01*
X71056500Y-77385468D02*
X70004228Y-77385468D01*
X72241642Y-76952878D02*
X71489091Y-76952877D01*
X71489091Y-76952877D02*
X71056500Y-77385468D01*
X72669400Y-76525120D02*
X72241642Y-76952878D01*
X72656700Y-76537820D02*
X72669400Y-76525120D01*
X91231720Y-69118480D02*
X91231720Y-68836540D01*
X90457020Y-69893180D02*
X91231720Y-69118480D01*
X90457020Y-70863460D02*
X90457020Y-69893180D01*
X90822780Y-71229220D02*
X90457020Y-70863460D01*
X93679005Y-71229220D02*
X90822780Y-71229220D01*
X97393760Y-70751700D02*
X94156525Y-70751700D01*
X94156525Y-70751700D02*
X93679005Y-71229220D01*
X98562160Y-71920100D02*
X97393760Y-70751700D01*
X98562160Y-72858730D02*
X98562160Y-71920100D01*
X99448620Y-73720960D02*
X99148621Y-73420961D01*
X99148621Y-73420961D02*
X99124391Y-73420961D01*
X99124391Y-73420961D02*
X98562160Y-72858730D01*
X103431711Y-73740909D02*
X103263700Y-73908920D01*
X103263700Y-73908920D02*
X103263700Y-73941680D01*
X103853984Y-71299701D02*
X103431711Y-71721974D01*
X103431711Y-71721974D02*
X103431711Y-73740909D01*
X106761684Y-70545099D02*
X104608586Y-70545099D01*
X104608586Y-70545099D02*
X103853984Y-71299701D01*
X108736737Y-70743490D02*
X106960075Y-70743490D01*
X106960075Y-70743490D02*
X106761684Y-70545099D01*
X109077760Y-70402467D02*
X108736737Y-70743490D01*
X111128695Y-70008781D02*
X109471445Y-70008781D01*
X109471445Y-70008781D02*
X109077760Y-70402467D01*
X112113060Y-69448680D02*
X111688796Y-69448680D01*
X111688796Y-69448680D02*
X111128695Y-70008781D01*
X72463660Y-74449940D02*
X71415810Y-74449940D01*
X71415810Y-74449940D02*
X71276110Y-74310240D01*
X69186435Y-75381470D02*
X70257664Y-74310240D01*
X66678819Y-75622917D02*
X67103083Y-75622917D01*
X67103083Y-75622917D02*
X67344530Y-75381470D01*
X67344530Y-75381470D02*
X69186435Y-75381470D01*
X70257664Y-74310240D02*
X71276110Y-74310240D01*
X92511880Y-68562220D02*
X91386660Y-67437000D01*
X91386660Y-67437000D02*
X91386660Y-67337940D01*
X96875600Y-68562220D02*
X92511880Y-68562220D01*
X99818290Y-69814440D02*
X98127820Y-69814440D01*
X98127820Y-69814440D02*
X96875600Y-68562220D01*
X100335080Y-70954900D02*
X100335080Y-70331230D01*
X100335080Y-70331230D02*
X99818290Y-69814440D01*
X100003913Y-71286067D02*
X100335080Y-70954900D01*
X99381334Y-71586066D02*
X99681333Y-71286067D01*
X99681333Y-71286067D02*
X100003913Y-71286067D01*
X109070766Y-71549910D02*
X109312715Y-71307960D01*
X109312715Y-71307960D02*
X109580926Y-71039749D01*
X114424460Y-70815200D02*
X109805475Y-70815200D01*
X109805475Y-70815200D02*
X109312715Y-71307960D01*
X106515550Y-71549910D02*
X109070766Y-71549910D01*
X106317159Y-71351519D02*
X106515550Y-71549910D01*
X104622600Y-71991680D02*
X105262761Y-71351519D01*
X105262761Y-71351519D02*
X106317159Y-71351519D01*
X93804740Y-70533260D02*
X91470480Y-70533260D01*
X94058740Y-70279260D02*
X93804740Y-70533260D01*
X98968476Y-70279260D02*
X94058740Y-70279260D01*
X99659440Y-70545960D02*
X99235176Y-70545960D01*
X99235176Y-70545960D02*
X98968476Y-70279260D01*
X105592880Y-71953120D02*
X109237780Y-71953120D01*
X109237780Y-71953120D02*
X109747941Y-71442959D01*
X109747941Y-71442959D02*
X111948339Y-71442959D01*
X111948339Y-71442959D02*
X112636300Y-72130920D01*
X112636300Y-72130920D02*
X115740180Y-72130920D01*
X115740180Y-72130920D02*
X116964460Y-73355200D01*
X77891640Y-75222100D02*
X79750920Y-75222100D01*
X74612500Y-73784460D02*
X76454000Y-73784460D01*
X76454000Y-73784460D02*
X77891640Y-75222100D01*
X74612500Y-73784460D02*
X71662194Y-73805954D01*
X71640700Y-73784460D02*
X71662194Y-73805954D01*
X94063820Y-65100200D02*
X94688660Y-65725040D01*
X91036140Y-65100200D02*
X94063820Y-65100200D01*
X90688160Y-65448180D02*
X91036140Y-65100200D01*
X90688160Y-68453000D02*
X90688160Y-65448180D01*
X90309700Y-68831460D02*
X90688160Y-68453000D01*
X87988140Y-68831460D02*
X90309700Y-68831460D01*
X86956900Y-69862700D02*
X87988140Y-68831460D01*
X81122520Y-69862700D02*
X86956900Y-69862700D01*
X80457690Y-70527530D02*
X81122520Y-69862700D01*
X79750920Y-75222100D02*
X80457690Y-74515330D01*
X80457690Y-74515330D02*
X80457690Y-70527530D01*
X64996060Y-74551540D02*
X66073020Y-74551540D01*
X66073020Y-74551540D02*
X66895980Y-73728580D01*
X64112140Y-75435460D02*
X64996060Y-74551540D01*
X64112140Y-76276200D02*
X64112140Y-75435460D01*
X63440280Y-76948060D02*
X64112140Y-76276200D01*
X60999400Y-76948060D02*
X63440280Y-76948060D01*
X58314191Y-76493779D02*
X60545119Y-76493779D01*
X60545119Y-76493779D02*
X60999400Y-76948060D01*
X54950300Y-76541660D02*
X58266310Y-76541660D01*
X58266310Y-76541660D02*
X58314191Y-76493779D01*
X54002260Y-75593620D02*
X54950300Y-76541660D01*
X54002260Y-74596580D02*
X54002260Y-75593620D01*
X53047900Y-73642220D02*
X54002260Y-74596580D01*
X66847720Y-73680320D02*
X66895980Y-73728580D01*
X71650860Y-76351278D02*
X72078619Y-75923519D01*
X92976700Y-72410320D02*
X93375480Y-72011540D01*
X72078619Y-75923519D02*
X77015719Y-75923519D01*
X77015719Y-75923519D02*
X77026258Y-75912980D01*
X77026258Y-75912980D02*
X79756000Y-75912980D01*
X79756000Y-75912980D02*
X80860900Y-74808080D01*
X80860900Y-74808080D02*
X80860900Y-73004680D01*
X80860900Y-73004680D02*
X81455260Y-72410320D01*
X81455260Y-72410320D02*
X92976700Y-72410320D01*
X93375480Y-72011540D02*
X93390720Y-72011540D01*
X65722500Y-76276200D02*
X65722500Y-75725020D01*
X64647430Y-77351270D02*
X65722500Y-76276200D01*
X60780310Y-77351270D02*
X64647430Y-77351270D01*
X58481206Y-76896989D02*
X60326029Y-76896989D01*
X60326029Y-76896989D02*
X60780310Y-77351270D01*
X54783286Y-76944870D02*
X58433325Y-76944870D01*
X58433325Y-76944870D02*
X58481206Y-76896989D01*
X53154580Y-74891900D02*
X53154580Y-75316164D01*
X53154580Y-75316164D02*
X54783286Y-76944870D01*
X113532836Y-74622660D02*
X115691920Y-74622660D01*
X115691920Y-74622660D02*
X116964460Y-75895200D01*
X112036860Y-72702420D02*
X112036860Y-73126684D01*
X112036860Y-73126684D02*
X113532836Y-74622660D01*
X72048029Y-77752869D02*
X71849638Y-77554478D01*
X71849638Y-77554478D02*
X71777860Y-77554478D01*
X79605211Y-77752869D02*
X72048029Y-77752869D01*
X94076520Y-74457560D02*
X94076520Y-72588120D01*
X93021770Y-75512310D02*
X94076520Y-74457560D01*
X88715230Y-75512310D02*
X93021770Y-75512310D01*
X81389220Y-74990960D02*
X88193880Y-74990960D01*
X88193880Y-74990960D02*
X88715230Y-75512310D01*
X80345280Y-76034900D02*
X81389220Y-74990960D01*
X80345280Y-77012800D02*
X80345280Y-76034900D01*
X79605211Y-77752869D02*
X80345280Y-77012800D01*
X66583560Y-76715620D02*
X66949320Y-76349860D01*
X66949320Y-76349860D02*
X67012820Y-76349860D01*
X66503450Y-76715620D02*
X66583560Y-76715620D01*
X60093860Y-77754480D02*
X65464590Y-77754480D01*
X65464590Y-77754480D02*
X66503450Y-76715620D01*
X59639579Y-77300199D02*
X60093860Y-77754480D01*
X58600340Y-77348080D02*
X58648221Y-77300199D01*
X58648221Y-77300199D02*
X59639579Y-77300199D01*
X53853080Y-77348080D02*
X58600340Y-77348080D01*
X53398420Y-76893420D02*
X53853080Y-77348080D01*
X110523020Y-72044560D02*
X111633650Y-73155190D01*
X111633650Y-73155190D02*
X111633650Y-73293699D01*
X111633650Y-73293699D02*
X113385153Y-75045201D01*
X113385153Y-75045201D02*
X113574461Y-75045201D01*
X113574461Y-75045201D02*
X114424460Y-75895200D01*
X94757240Y-71770240D02*
X94757240Y-75232260D01*
X94757240Y-75232260D02*
X94073980Y-75915520D01*
X94073980Y-75915520D02*
X86258400Y-75915520D01*
X86258400Y-75915520D02*
X84663280Y-77510640D01*
X84663280Y-77510640D02*
X81523840Y-77510640D01*
X81523840Y-77510640D02*
X81373980Y-77660500D01*
X81373980Y-77660500D02*
X80502760Y-77660500D01*
X80007181Y-78156079D02*
X67523081Y-78156079D01*
X80502760Y-77660500D02*
X80007181Y-78156079D01*
X67523081Y-78156079D02*
X67119500Y-78559660D01*
X58661216Y-77751940D02*
X53167280Y-77751940D01*
X53167280Y-77751940D02*
X53149500Y-77769720D01*
X59235340Y-77901800D02*
X58811076Y-77901800D01*
X58811076Y-77901800D02*
X58661216Y-77751940D01*
X104302560Y-69768720D02*
X104675940Y-69768720D01*
X102956360Y-71114920D02*
X104302560Y-69768720D01*
X102956360Y-72758300D02*
X102956360Y-71114920D01*
X102595680Y-74164030D02*
X102595680Y-73118980D01*
X102595680Y-73118980D02*
X102956360Y-72758300D01*
X103409119Y-74543281D02*
X102974931Y-74543281D01*
X102974931Y-74543281D02*
X102595680Y-74164030D01*
X105161080Y-73588880D02*
X104206679Y-74543281D01*
X104206679Y-74543281D02*
X103409119Y-74543281D01*
X113146840Y-77149960D02*
X115679220Y-77149960D01*
X115679220Y-77149960D02*
X116964460Y-78435200D01*
X112577845Y-76580965D02*
X113146840Y-77149960D01*
X112577845Y-74808117D02*
X112577845Y-76580965D01*
X111328200Y-73941680D02*
X111628199Y-74241679D01*
X111628199Y-74241679D02*
X112011407Y-74241679D01*
X112011407Y-74241679D02*
X112577845Y-74808117D01*
D17*
G36*
X48830485Y-55266950D02*
X47750741Y-56344811D01*
X47165667Y-57753825D01*
X47164336Y-59279482D01*
X47746950Y-60689515D01*
X48824811Y-61769259D01*
X50233825Y-62354333D01*
X51759482Y-62355664D01*
X53169515Y-61773050D01*
X54249259Y-60695189D01*
X54743748Y-59504327D01*
X72734998Y-59504327D01*
X72877043Y-59848103D01*
X73139833Y-60111352D01*
X73483361Y-60253998D01*
X73855327Y-60254322D01*
X74199103Y-60112277D01*
X74462352Y-59849487D01*
X74604998Y-59505959D01*
X74604999Y-59504327D01*
X77456858Y-59504327D01*
X77598903Y-59848103D01*
X77861693Y-60111352D01*
X78205221Y-60253998D01*
X78577187Y-60254322D01*
X78920963Y-60112277D01*
X79184212Y-59849487D01*
X79326858Y-59505959D01*
X79327182Y-59133993D01*
X79185137Y-58790217D01*
X78922347Y-58526968D01*
X78578819Y-58384322D01*
X78206853Y-58383998D01*
X77863077Y-58526043D01*
X77599828Y-58788833D01*
X77457182Y-59132361D01*
X77456858Y-59504327D01*
X74604999Y-59504327D01*
X74605322Y-59133993D01*
X74463277Y-58790217D01*
X74200487Y-58526968D01*
X73856959Y-58384322D01*
X73484993Y-58383998D01*
X73141217Y-58526043D01*
X72877968Y-58788833D01*
X72735322Y-59132361D01*
X72734998Y-59504327D01*
X54743748Y-59504327D01*
X54834333Y-59286175D01*
X54835664Y-57760518D01*
X54253050Y-56350485D01*
X53175189Y-55270741D01*
X53103228Y-55240860D01*
X106043628Y-55240860D01*
X105980485Y-55266950D01*
X104900741Y-56344811D01*
X104315667Y-57753825D01*
X104314336Y-59279482D01*
X104896950Y-60689515D01*
X105974811Y-61769259D01*
X107383825Y-62354333D01*
X108909482Y-62355664D01*
X110319515Y-61773050D01*
X111399259Y-60695189D01*
X111984333Y-59286175D01*
X111985664Y-57760518D01*
X111403050Y-56350485D01*
X110325189Y-55270741D01*
X110253228Y-55240860D01*
X118690720Y-55240860D01*
X118690720Y-92315360D01*
X110168713Y-92315360D01*
X110319515Y-92253050D01*
X111399259Y-91175189D01*
X111984333Y-89766175D01*
X111985664Y-88240518D01*
X111403050Y-86830485D01*
X110325189Y-85750741D01*
X108916175Y-85165667D01*
X107390518Y-85164336D01*
X105980485Y-85746950D01*
X104900741Y-86824811D01*
X104315667Y-88233825D01*
X104314336Y-89759482D01*
X104896950Y-91169515D01*
X105974811Y-92249259D01*
X106134000Y-92315360D01*
X53018713Y-92315360D01*
X53169515Y-92253050D01*
X54249259Y-91175189D01*
X54834333Y-89766175D01*
X54835664Y-88240518D01*
X54253050Y-86830485D01*
X53175189Y-85750741D01*
X51766175Y-85165667D01*
X50240518Y-85164336D01*
X48830485Y-85746950D01*
X47750741Y-86824811D01*
X47165667Y-88233825D01*
X47164336Y-89759482D01*
X47746950Y-91169515D01*
X48824811Y-92249259D01*
X48984000Y-92315360D01*
X44938620Y-92315360D01*
X44938620Y-81825747D01*
X47854500Y-81825747D01*
X47854500Y-81883933D01*
X47967539Y-82452218D01*
X48289446Y-82933987D01*
X48771215Y-83255894D01*
X49339500Y-83368933D01*
X49907785Y-83255894D01*
X50389554Y-82933987D01*
X50617202Y-82593287D01*
X50684317Y-82736198D01*
X51112576Y-83126485D01*
X51522610Y-83296316D01*
X51752500Y-83174995D01*
X51752500Y-81981840D01*
X51732500Y-81981840D01*
X51732500Y-81727840D01*
X51752500Y-81727840D01*
X51752500Y-80534685D01*
X51522610Y-80413364D01*
X51112576Y-80583195D01*
X50684317Y-80973482D01*
X50617202Y-81116393D01*
X50389554Y-80775693D01*
X49907785Y-80453786D01*
X49339500Y-80340747D01*
X48771215Y-80453786D01*
X48289446Y-80775693D01*
X47967539Y-81257462D01*
X47854500Y-81825747D01*
X44938620Y-81825747D01*
X44938620Y-65866710D01*
X47854500Y-65866710D01*
X47854500Y-66557269D01*
X47951173Y-66790658D01*
X48129801Y-66969287D01*
X48363190Y-67065960D01*
X49053750Y-67065960D01*
X49212500Y-66907210D01*
X49212500Y-65707960D01*
X48013250Y-65707960D01*
X47854500Y-65866710D01*
X44938620Y-65866710D01*
X44938620Y-64604651D01*
X47854500Y-64604651D01*
X47854500Y-65295210D01*
X48013250Y-65453960D01*
X49212500Y-65453960D01*
X49212500Y-64254710D01*
X49466500Y-64254710D01*
X49466500Y-65453960D01*
X49486500Y-65453960D01*
X49486500Y-65707960D01*
X49466500Y-65707960D01*
X49466500Y-66907210D01*
X49625250Y-67065960D01*
X50315810Y-67065960D01*
X50549199Y-66969287D01*
X50727827Y-66790658D01*
X50800097Y-66616183D01*
X50829446Y-66660107D01*
X51311215Y-66982014D01*
X51879500Y-67095053D01*
X52447785Y-66982014D01*
X52929554Y-66660107D01*
X53149500Y-66330934D01*
X53369446Y-66660107D01*
X53851215Y-66982014D01*
X54419500Y-67095053D01*
X54987785Y-66982014D01*
X55469554Y-66660107D01*
X55689500Y-66330934D01*
X55909446Y-66660107D01*
X55942278Y-66682045D01*
X55925781Y-66693068D01*
X55884629Y-66720565D01*
X55658695Y-66946499D01*
X55566419Y-66908182D01*
X55194453Y-66907858D01*
X54850677Y-67049903D01*
X54587428Y-67312693D01*
X54444782Y-67656221D01*
X54444458Y-68028187D01*
X54471766Y-68094279D01*
X54435028Y-68130953D01*
X54292382Y-68474481D01*
X54292058Y-68846447D01*
X54434103Y-69190223D01*
X54436017Y-69192140D01*
X54406800Y-69192140D01*
X54124915Y-69248210D01*
X53925756Y-69381284D01*
X53885945Y-69407885D01*
X53200145Y-70093685D01*
X53040470Y-70332655D01*
X52984400Y-70614540D01*
X52984400Y-70897192D01*
X52643417Y-71038083D01*
X52380168Y-71300873D01*
X52288142Y-71522494D01*
X52212240Y-71446592D01*
X52212240Y-70683926D01*
X52360183Y-70622797D01*
X52623432Y-70360007D01*
X52697969Y-70180503D01*
X52857147Y-70180642D01*
X53200923Y-70038597D01*
X53464172Y-69775807D01*
X53606818Y-69432279D01*
X53607142Y-69060313D01*
X53465097Y-68716537D01*
X53202307Y-68453288D01*
X52858779Y-68310642D01*
X52486813Y-68310318D01*
X52143037Y-68452363D01*
X51879788Y-68715153D01*
X51805251Y-68894657D01*
X51646073Y-68894518D01*
X51302297Y-69036563D01*
X51039048Y-69299353D01*
X50958687Y-69492883D01*
X50954785Y-69496785D01*
X50795110Y-69735755D01*
X50739040Y-70017640D01*
X50739040Y-71751702D01*
X50795110Y-72033587D01*
X50954785Y-72272557D01*
X51635884Y-72953656D01*
X51874854Y-73113331D01*
X52156739Y-73169401D01*
X52231828Y-73169401D01*
X52113062Y-73455421D01*
X52112738Y-73827387D01*
X52254783Y-74171163D01*
X52403696Y-74320337D01*
X52362388Y-74361573D01*
X52219742Y-74705101D01*
X52219418Y-75077067D01*
X52361463Y-75420843D01*
X52458047Y-75517596D01*
X52474050Y-75598049D01*
X52633725Y-75837019D01*
X52888959Y-76092253D01*
X52869477Y-76100303D01*
X52606228Y-76363093D01*
X52463582Y-76706621D01*
X52463258Y-77078587D01*
X52479359Y-77117555D01*
X52357308Y-77239393D01*
X52214662Y-77582921D01*
X52214338Y-77954887D01*
X52356383Y-78298663D01*
X52619173Y-78561912D01*
X52962701Y-78704558D01*
X53334667Y-78704882D01*
X53678443Y-78562837D01*
X53752870Y-78488540D01*
X55546814Y-78488540D01*
X55333331Y-78576749D01*
X55258909Y-78651042D01*
X54906825Y-78650735D01*
X54563049Y-78792780D01*
X54299800Y-79055570D01*
X54268315Y-79131394D01*
X54267316Y-79131393D01*
X53923540Y-79273438D01*
X53660291Y-79536228D01*
X53517645Y-79879756D01*
X53517321Y-80251722D01*
X53654987Y-80584901D01*
X53369446Y-80775693D01*
X53141798Y-81116393D01*
X53074683Y-80973482D01*
X52646424Y-80583195D01*
X52236390Y-80413364D01*
X52006500Y-80534685D01*
X52006500Y-81727840D01*
X52026500Y-81727840D01*
X52026500Y-81981840D01*
X52006500Y-81981840D01*
X52006500Y-83174995D01*
X52236390Y-83296316D01*
X52646424Y-83126485D01*
X53074683Y-82736198D01*
X53141798Y-82593287D01*
X53369446Y-82933987D01*
X53851215Y-83255894D01*
X54419500Y-83368933D01*
X54987785Y-83255894D01*
X55277166Y-83062536D01*
X55736811Y-83522181D01*
X55741926Y-83529836D01*
X56192265Y-83980175D01*
X56431236Y-84139851D01*
X56713120Y-84195921D01*
X56713125Y-84195920D01*
X64404240Y-84195920D01*
X64686125Y-84139850D01*
X64925095Y-83980175D01*
X65100355Y-83804915D01*
X65260030Y-83565945D01*
X65316100Y-83284060D01*
X65316100Y-83143430D01*
X65629554Y-82933987D01*
X65849500Y-82604814D01*
X66069446Y-82933987D01*
X66551215Y-83255894D01*
X67119500Y-83368933D01*
X67687785Y-83255894D01*
X68169554Y-82933987D01*
X68389500Y-82604814D01*
X68609446Y-82933987D01*
X69091215Y-83255894D01*
X69659500Y-83368933D01*
X70227785Y-83255894D01*
X70709554Y-82933987D01*
X70929500Y-82604814D01*
X71149446Y-82933987D01*
X71631215Y-83255894D01*
X72199500Y-83368933D01*
X72767785Y-83255894D01*
X73249554Y-82933987D01*
X73469500Y-82604814D01*
X73689446Y-82933987D01*
X74171215Y-83255894D01*
X74739500Y-83368933D01*
X75307785Y-83255894D01*
X75789554Y-82933987D01*
X76009500Y-82604814D01*
X76229446Y-82933987D01*
X76711215Y-83255894D01*
X77279500Y-83368933D01*
X77847785Y-83255894D01*
X78329554Y-82933987D01*
X78549500Y-82604814D01*
X78769446Y-82933987D01*
X79251215Y-83255894D01*
X79819500Y-83368933D01*
X80387785Y-83255894D01*
X80869554Y-82933987D01*
X80897350Y-82892388D01*
X80906338Y-82940157D01*
X81045410Y-83156281D01*
X81257610Y-83301271D01*
X81509500Y-83352280D01*
X83209500Y-83352280D01*
X83444817Y-83308002D01*
X83660941Y-83168930D01*
X83805931Y-82956730D01*
X83852096Y-82728759D01*
X93873126Y-82728759D01*
X94060748Y-83182837D01*
X94407855Y-83530551D01*
X94861606Y-83718965D01*
X95352919Y-83719394D01*
X95806997Y-83531772D01*
X96154711Y-83184665D01*
X96343125Y-82730914D01*
X96343554Y-82239601D01*
X96155932Y-81785523D01*
X95808825Y-81437809D01*
X95355074Y-81249395D01*
X94863761Y-81248966D01*
X94409683Y-81436588D01*
X94061969Y-81783695D01*
X93873555Y-82237446D01*
X93873126Y-82728759D01*
X83852096Y-82728759D01*
X83856940Y-82704840D01*
X83856940Y-81004840D01*
X83812662Y-80769523D01*
X83673590Y-80553399D01*
X83461390Y-80408409D01*
X83209500Y-80357400D01*
X81509500Y-80357400D01*
X81274183Y-80401678D01*
X81058059Y-80540750D01*
X80913069Y-80752950D01*
X80899414Y-80820381D01*
X80869554Y-80775693D01*
X80387785Y-80453786D01*
X79819500Y-80340747D01*
X79425490Y-80419120D01*
X78973035Y-79966665D01*
X78734065Y-79806990D01*
X78452180Y-79750920D01*
X76787515Y-79750920D01*
X76401280Y-79364685D01*
X76162310Y-79205010D01*
X75880425Y-79148940D01*
X75015442Y-79148940D01*
X74959947Y-79093348D01*
X74616419Y-78950702D01*
X74257951Y-78950390D01*
X74200341Y-78892679D01*
X80007181Y-78892679D01*
X80289066Y-78836609D01*
X80528036Y-78676934D01*
X80807870Y-78397100D01*
X80897322Y-78397100D01*
X80822547Y-78773020D01*
X80935586Y-79341305D01*
X81257493Y-79823074D01*
X81739262Y-80144981D01*
X82307547Y-80258020D01*
X82365733Y-80258020D01*
X82934018Y-80144981D01*
X83415787Y-79823074D01*
X83625230Y-79509620D01*
X84140040Y-79509620D01*
X84421925Y-79453550D01*
X84660895Y-79293875D01*
X86089523Y-77865247D01*
X86111025Y-77860970D01*
X86349995Y-77701295D01*
X86995960Y-77055330D01*
X94240995Y-77055330D01*
X94522880Y-76999260D01*
X94761850Y-76839585D01*
X94809868Y-76791567D01*
X107362818Y-76791567D01*
X107504863Y-77135343D01*
X107767653Y-77398592D01*
X108111181Y-77541238D01*
X108483147Y-77541562D01*
X108826923Y-77399517D01*
X109090172Y-77136727D01*
X109232818Y-76793199D01*
X109233142Y-76421233D01*
X109215582Y-76378735D01*
X109285752Y-76308687D01*
X109428398Y-75965159D01*
X109428722Y-75593193D01*
X109384425Y-75485985D01*
X109458472Y-75412067D01*
X109601118Y-75068539D01*
X109601442Y-74696573D01*
X109459397Y-74352797D01*
X109196607Y-74089548D01*
X108853079Y-73946902D01*
X108481113Y-73946578D01*
X108137337Y-74088623D01*
X107874088Y-74351413D01*
X107731442Y-74694941D01*
X107731118Y-75066907D01*
X107775415Y-75174115D01*
X107701368Y-75248033D01*
X107558722Y-75591561D01*
X107558398Y-75963527D01*
X107575958Y-76006025D01*
X107505788Y-76076073D01*
X107363142Y-76419601D01*
X107362818Y-76791567D01*
X94809868Y-76791567D01*
X95681305Y-75920130D01*
X95697963Y-75895200D01*
X95840980Y-75681160D01*
X95897050Y-75399275D01*
X95897050Y-75217980D01*
X96027550Y-75087480D01*
X100256340Y-75087480D01*
X100538225Y-75031410D01*
X100777195Y-74871735D01*
X101130410Y-74518520D01*
X101221540Y-74518520D01*
X101503425Y-74462450D01*
X101742395Y-74302775D01*
X101862740Y-74182430D01*
X101915150Y-74445915D01*
X102074825Y-74684885D01*
X102454076Y-75064136D01*
X102693046Y-75223811D01*
X102974931Y-75279881D01*
X104206679Y-75279881D01*
X104488564Y-75223811D01*
X104727534Y-75064136D01*
X105267696Y-74523974D01*
X105346247Y-74524042D01*
X105690023Y-74381997D01*
X105953272Y-74119207D01*
X106095918Y-73775679D01*
X106096242Y-73403713D01*
X105954197Y-73059937D01*
X105781441Y-72886880D01*
X106121823Y-72746237D01*
X106178439Y-72689720D01*
X109237780Y-72689720D01*
X109519665Y-72633650D01*
X109703893Y-72510553D01*
X109729903Y-72573503D01*
X109992693Y-72836752D01*
X110336221Y-72979398D01*
X110416218Y-72979468D01*
X110692192Y-73255442D01*
X110536008Y-73411353D01*
X110393362Y-73754881D01*
X110393038Y-74126847D01*
X110535083Y-74470623D01*
X110797873Y-74733872D01*
X111141401Y-74876518D01*
X111278111Y-74876637D01*
X111346314Y-74922209D01*
X111628199Y-74978279D01*
X111706297Y-74978279D01*
X111841245Y-75113227D01*
X111841245Y-76580965D01*
X111897315Y-76862850D01*
X112056990Y-77101820D01*
X112625985Y-77670815D01*
X112864955Y-77830490D01*
X113026300Y-77862583D01*
X113023406Y-77866915D01*
X112910367Y-78435200D01*
X113023406Y-79003485D01*
X113345313Y-79485254D01*
X113827082Y-79807161D01*
X114395367Y-79920200D01*
X114453553Y-79920200D01*
X115021838Y-79807161D01*
X115503607Y-79485254D01*
X115694460Y-79199622D01*
X115885313Y-79485254D01*
X116367082Y-79807161D01*
X116935367Y-79920200D01*
X116993553Y-79920200D01*
X117561838Y-79807161D01*
X118043607Y-79485254D01*
X118365514Y-79003485D01*
X118478553Y-78435200D01*
X118365514Y-77866915D01*
X118043607Y-77385146D01*
X117714434Y-77165200D01*
X118043607Y-76945254D01*
X118365514Y-76463485D01*
X118478553Y-75895200D01*
X118365514Y-75326915D01*
X118043607Y-74845146D01*
X117714434Y-74625200D01*
X118043607Y-74405254D01*
X118365514Y-73923485D01*
X118478553Y-73355200D01*
X118365514Y-72786915D01*
X118043607Y-72305146D01*
X117714434Y-72085200D01*
X118043607Y-71865254D01*
X118365514Y-71383485D01*
X118478553Y-70815200D01*
X118365514Y-70246915D01*
X118043607Y-69765146D01*
X117999683Y-69735797D01*
X118174158Y-69663527D01*
X118352787Y-69484899D01*
X118449460Y-69251510D01*
X118449460Y-68560950D01*
X118290710Y-68402200D01*
X117091460Y-68402200D01*
X117091460Y-68422200D01*
X116837460Y-68422200D01*
X116837460Y-68402200D01*
X116817460Y-68402200D01*
X116817460Y-68148200D01*
X116837460Y-68148200D01*
X116837460Y-66948950D01*
X117091460Y-66948950D01*
X117091460Y-68148200D01*
X118290710Y-68148200D01*
X118449460Y-67989450D01*
X118449460Y-67298890D01*
X118352787Y-67065501D01*
X118174158Y-66886873D01*
X117940769Y-66790200D01*
X117250210Y-66790200D01*
X117091460Y-66948950D01*
X116837460Y-66948950D01*
X116678710Y-66790200D01*
X115988151Y-66790200D01*
X115754762Y-66886873D01*
X115576133Y-67065501D01*
X115507557Y-67231058D01*
X115503607Y-67225146D01*
X115021838Y-66903239D01*
X114453553Y-66790200D01*
X114395367Y-66790200D01*
X113827082Y-66903239D01*
X113345313Y-67225146D01*
X113023406Y-67706915D01*
X112910367Y-68275200D01*
X112988740Y-68669210D01*
X112822268Y-68835682D01*
X112643387Y-68656488D01*
X112299859Y-68513842D01*
X111927893Y-68513518D01*
X111762836Y-68581718D01*
X111819235Y-68445894D01*
X111819371Y-68289786D01*
X111846983Y-68278377D01*
X112110232Y-68015587D01*
X112252878Y-67672059D01*
X112253202Y-67300093D01*
X112111157Y-66956317D01*
X111848367Y-66693068D01*
X111504839Y-66550422D01*
X111132873Y-66550098D01*
X110789097Y-66692143D01*
X110525848Y-66954933D01*
X110383202Y-67298461D01*
X110383066Y-67454569D01*
X110355454Y-67465978D01*
X110092205Y-67728768D01*
X109992814Y-67968128D01*
X109804437Y-68045963D01*
X109541188Y-68308753D01*
X109398542Y-68652281D01*
X109398218Y-69024247D01*
X109500662Y-69272181D01*
X109471444Y-69272181D01*
X109189559Y-69328251D01*
X109050909Y-69420895D01*
X108952222Y-69486836D01*
X108950589Y-69487927D01*
X108556905Y-69881612D01*
X108431627Y-70006890D01*
X108209363Y-70006890D01*
X108298603Y-69970017D01*
X108561852Y-69707227D01*
X108704498Y-69363699D01*
X108704822Y-68991733D01*
X108562777Y-68647957D01*
X108299987Y-68384708D01*
X107956459Y-68242062D01*
X107584493Y-68241738D01*
X107240717Y-68383783D01*
X106977468Y-68646573D01*
X106834822Y-68990101D01*
X106834498Y-69362067D01*
X106976543Y-69705843D01*
X107239333Y-69969092D01*
X107330360Y-70006890D01*
X107256567Y-70006890D01*
X107043569Y-69864569D01*
X106761684Y-69808499D01*
X105610906Y-69808499D01*
X105611102Y-69583553D01*
X105469057Y-69239777D01*
X105206267Y-68976528D01*
X104862739Y-68833882D01*
X104490773Y-68833558D01*
X104146997Y-68975603D01*
X104037582Y-69084827D01*
X104020675Y-69088190D01*
X103781705Y-69247865D01*
X102435505Y-70594065D01*
X102275830Y-70833035D01*
X102219760Y-71114920D01*
X102219760Y-71597153D01*
X102133653Y-71597078D01*
X101789877Y-71739123D01*
X101526628Y-72001913D01*
X101383982Y-72345441D01*
X101383779Y-72577971D01*
X100916430Y-73045320D01*
X100825300Y-73045320D01*
X100543415Y-73101390D01*
X100304445Y-73261065D01*
X100280260Y-73285250D01*
X100241737Y-73192017D01*
X100142859Y-73092967D01*
X100228518Y-72886679D01*
X100228588Y-72806682D01*
X101259145Y-71776125D01*
X101418820Y-71537155D01*
X101474890Y-71255270D01*
X101474890Y-69879830D01*
X101429814Y-69653216D01*
X101653052Y-69430367D01*
X101795698Y-69086839D01*
X101796022Y-68714873D01*
X101751517Y-68607162D01*
X101871590Y-68427461D01*
X101927660Y-68145576D01*
X101927660Y-65090040D01*
X101871590Y-64808155D01*
X101711915Y-64569185D01*
X101384474Y-64241744D01*
X101384542Y-64163193D01*
X101242497Y-63819417D01*
X100979707Y-63556168D01*
X100636179Y-63413522D01*
X100264213Y-63413198D01*
X99920437Y-63555243D01*
X99657188Y-63818033D01*
X99514542Y-64161561D01*
X99514218Y-64533527D01*
X99656263Y-64877303D01*
X99919053Y-65140552D01*
X100262581Y-65283198D01*
X100342578Y-65283268D01*
X100454460Y-65395150D01*
X100454460Y-67840466D01*
X100340005Y-67954921D01*
X100180330Y-68193891D01*
X100164358Y-68274190D01*
X100068668Y-68369713D01*
X99956036Y-68640960D01*
X98566274Y-68640960D01*
X97501859Y-67576545D01*
X97262889Y-67416870D01*
X96981004Y-67360800D01*
X93703450Y-67360800D01*
X92377429Y-66034779D01*
X92392618Y-65998199D01*
X92392759Y-65836800D01*
X93753562Y-65836800D01*
X93753498Y-65910207D01*
X93895543Y-66253983D01*
X94158333Y-66517232D01*
X94501861Y-66659878D01*
X94873827Y-66660202D01*
X95217603Y-66518157D01*
X95480852Y-66255367D01*
X95623498Y-65911839D01*
X95623822Y-65539873D01*
X95496972Y-65232872D01*
X95806997Y-65104772D01*
X96154711Y-64757665D01*
X96343125Y-64303914D01*
X96343554Y-63812601D01*
X96155932Y-63358523D01*
X95808825Y-63010809D01*
X95355074Y-62822395D01*
X94863761Y-62821966D01*
X94409683Y-63009588D01*
X94061969Y-63356695D01*
X93873555Y-63810446D01*
X93873126Y-64301759D01*
X93898678Y-64363600D01*
X91036140Y-64363600D01*
X90754255Y-64419670D01*
X90515285Y-64579345D01*
X90167305Y-64927325D01*
X90007630Y-65166295D01*
X89951560Y-65448180D01*
X89951560Y-68094860D01*
X87988140Y-68094860D01*
X87706255Y-68150930D01*
X87585749Y-68231450D01*
X87467285Y-68310605D01*
X86651790Y-69126100D01*
X83834080Y-69126100D01*
X83834080Y-67763020D01*
X83789802Y-67527703D01*
X83650730Y-67311579D01*
X83438530Y-67166589D01*
X83186640Y-67115580D01*
X81770819Y-67115580D01*
X81791386Y-67111489D01*
X81940668Y-67011742D01*
X82359500Y-67095053D01*
X82927785Y-66982014D01*
X83409554Y-66660107D01*
X83731461Y-66178338D01*
X83844500Y-65610053D01*
X83844500Y-65551867D01*
X83731461Y-64983582D01*
X83409554Y-64501813D01*
X82927785Y-64179906D01*
X82359500Y-64066867D01*
X81791215Y-64179906D01*
X81309446Y-64501813D01*
X81089500Y-64830986D01*
X80869554Y-64501813D01*
X80387785Y-64179906D01*
X79819500Y-64066867D01*
X79251215Y-64179906D01*
X78769446Y-64501813D01*
X78549500Y-64830986D01*
X78329554Y-64501813D01*
X77847785Y-64179906D01*
X77279500Y-64066867D01*
X76711215Y-64179906D01*
X76229446Y-64501813D01*
X76009500Y-64830986D01*
X75789554Y-64501813D01*
X75307785Y-64179906D01*
X74739500Y-64066867D01*
X74171215Y-64179906D01*
X73689446Y-64501813D01*
X73469500Y-64830986D01*
X73249554Y-64501813D01*
X72767785Y-64179906D01*
X72199500Y-64066867D01*
X71631215Y-64179906D01*
X71149446Y-64501813D01*
X70929500Y-64830986D01*
X70709554Y-64501813D01*
X70227785Y-64179906D01*
X69659500Y-64066867D01*
X69091215Y-64179906D01*
X68609446Y-64501813D01*
X68389500Y-64830986D01*
X68169554Y-64501813D01*
X67687785Y-64179906D01*
X67119500Y-64066867D01*
X66551215Y-64179906D01*
X66069446Y-64501813D01*
X65849500Y-64830986D01*
X65629554Y-64501813D01*
X65147785Y-64179906D01*
X64579500Y-64066867D01*
X64011215Y-64179906D01*
X63529446Y-64501813D01*
X63309500Y-64830986D01*
X63089554Y-64501813D01*
X62756255Y-64279110D01*
X62720030Y-64096994D01*
X62560355Y-63858024D01*
X62412996Y-63710665D01*
X62174026Y-63550990D01*
X61892141Y-63494920D01*
X58727340Y-63494920D01*
X58445455Y-63550990D01*
X58206485Y-63710665D01*
X57734045Y-64183105D01*
X57671859Y-64276173D01*
X57527785Y-64179906D01*
X56959500Y-64066867D01*
X56391215Y-64179906D01*
X55909446Y-64501813D01*
X55689500Y-64830986D01*
X55469554Y-64501813D01*
X54987785Y-64179906D01*
X54419500Y-64066867D01*
X53851215Y-64179906D01*
X53369446Y-64501813D01*
X53149500Y-64830986D01*
X52929554Y-64501813D01*
X52447785Y-64179906D01*
X51879500Y-64066867D01*
X51311215Y-64179906D01*
X50829446Y-64501813D01*
X50800097Y-64545737D01*
X50727827Y-64371262D01*
X50549199Y-64192633D01*
X50315810Y-64095960D01*
X49625250Y-64095960D01*
X49466500Y-64254710D01*
X49212500Y-64254710D01*
X49053750Y-64095960D01*
X48363190Y-64095960D01*
X48129801Y-64192633D01*
X47951173Y-64371262D01*
X47854500Y-64604651D01*
X44938620Y-64604651D01*
X44938620Y-55240860D01*
X48893628Y-55240860D01*
X48830485Y-55266950D01*
X48830485Y-55266950D01*
G37*
X48830485Y-55266950D02*
X47750741Y-56344811D01*
X47165667Y-57753825D01*
X47164336Y-59279482D01*
X47746950Y-60689515D01*
X48824811Y-61769259D01*
X50233825Y-62354333D01*
X51759482Y-62355664D01*
X53169515Y-61773050D01*
X54249259Y-60695189D01*
X54743748Y-59504327D01*
X72734998Y-59504327D01*
X72877043Y-59848103D01*
X73139833Y-60111352D01*
X73483361Y-60253998D01*
X73855327Y-60254322D01*
X74199103Y-60112277D01*
X74462352Y-59849487D01*
X74604998Y-59505959D01*
X74604999Y-59504327D01*
X77456858Y-59504327D01*
X77598903Y-59848103D01*
X77861693Y-60111352D01*
X78205221Y-60253998D01*
X78577187Y-60254322D01*
X78920963Y-60112277D01*
X79184212Y-59849487D01*
X79326858Y-59505959D01*
X79327182Y-59133993D01*
X79185137Y-58790217D01*
X78922347Y-58526968D01*
X78578819Y-58384322D01*
X78206853Y-58383998D01*
X77863077Y-58526043D01*
X77599828Y-58788833D01*
X77457182Y-59132361D01*
X77456858Y-59504327D01*
X74604999Y-59504327D01*
X74605322Y-59133993D01*
X74463277Y-58790217D01*
X74200487Y-58526968D01*
X73856959Y-58384322D01*
X73484993Y-58383998D01*
X73141217Y-58526043D01*
X72877968Y-58788833D01*
X72735322Y-59132361D01*
X72734998Y-59504327D01*
X54743748Y-59504327D01*
X54834333Y-59286175D01*
X54835664Y-57760518D01*
X54253050Y-56350485D01*
X53175189Y-55270741D01*
X53103228Y-55240860D01*
X106043628Y-55240860D01*
X105980485Y-55266950D01*
X104900741Y-56344811D01*
X104315667Y-57753825D01*
X104314336Y-59279482D01*
X104896950Y-60689515D01*
X105974811Y-61769259D01*
X107383825Y-62354333D01*
X108909482Y-62355664D01*
X110319515Y-61773050D01*
X111399259Y-60695189D01*
X111984333Y-59286175D01*
X111985664Y-57760518D01*
X111403050Y-56350485D01*
X110325189Y-55270741D01*
X110253228Y-55240860D01*
X118690720Y-55240860D01*
X118690720Y-92315360D01*
X110168713Y-92315360D01*
X110319515Y-92253050D01*
X111399259Y-91175189D01*
X111984333Y-89766175D01*
X111985664Y-88240518D01*
X111403050Y-86830485D01*
X110325189Y-85750741D01*
X108916175Y-85165667D01*
X107390518Y-85164336D01*
X105980485Y-85746950D01*
X104900741Y-86824811D01*
X104315667Y-88233825D01*
X104314336Y-89759482D01*
X104896950Y-91169515D01*
X105974811Y-92249259D01*
X106134000Y-92315360D01*
X53018713Y-92315360D01*
X53169515Y-92253050D01*
X54249259Y-91175189D01*
X54834333Y-89766175D01*
X54835664Y-88240518D01*
X54253050Y-86830485D01*
X53175189Y-85750741D01*
X51766175Y-85165667D01*
X50240518Y-85164336D01*
X48830485Y-85746950D01*
X47750741Y-86824811D01*
X47165667Y-88233825D01*
X47164336Y-89759482D01*
X47746950Y-91169515D01*
X48824811Y-92249259D01*
X48984000Y-92315360D01*
X44938620Y-92315360D01*
X44938620Y-81825747D01*
X47854500Y-81825747D01*
X47854500Y-81883933D01*
X47967539Y-82452218D01*
X48289446Y-82933987D01*
X48771215Y-83255894D01*
X49339500Y-83368933D01*
X49907785Y-83255894D01*
X50389554Y-82933987D01*
X50617202Y-82593287D01*
X50684317Y-82736198D01*
X51112576Y-83126485D01*
X51522610Y-83296316D01*
X51752500Y-83174995D01*
X51752500Y-81981840D01*
X51732500Y-81981840D01*
X51732500Y-81727840D01*
X51752500Y-81727840D01*
X51752500Y-80534685D01*
X51522610Y-80413364D01*
X51112576Y-80583195D01*
X50684317Y-80973482D01*
X50617202Y-81116393D01*
X50389554Y-80775693D01*
X49907785Y-80453786D01*
X49339500Y-80340747D01*
X48771215Y-80453786D01*
X48289446Y-80775693D01*
X47967539Y-81257462D01*
X47854500Y-81825747D01*
X44938620Y-81825747D01*
X44938620Y-65866710D01*
X47854500Y-65866710D01*
X47854500Y-66557269D01*
X47951173Y-66790658D01*
X48129801Y-66969287D01*
X48363190Y-67065960D01*
X49053750Y-67065960D01*
X49212500Y-66907210D01*
X49212500Y-65707960D01*
X48013250Y-65707960D01*
X47854500Y-65866710D01*
X44938620Y-65866710D01*
X44938620Y-64604651D01*
X47854500Y-64604651D01*
X47854500Y-65295210D01*
X48013250Y-65453960D01*
X49212500Y-65453960D01*
X49212500Y-64254710D01*
X49466500Y-64254710D01*
X49466500Y-65453960D01*
X49486500Y-65453960D01*
X49486500Y-65707960D01*
X49466500Y-65707960D01*
X49466500Y-66907210D01*
X49625250Y-67065960D01*
X50315810Y-67065960D01*
X50549199Y-66969287D01*
X50727827Y-66790658D01*
X50800097Y-66616183D01*
X50829446Y-66660107D01*
X51311215Y-66982014D01*
X51879500Y-67095053D01*
X52447785Y-66982014D01*
X52929554Y-66660107D01*
X53149500Y-66330934D01*
X53369446Y-66660107D01*
X53851215Y-66982014D01*
X54419500Y-67095053D01*
X54987785Y-66982014D01*
X55469554Y-66660107D01*
X55689500Y-66330934D01*
X55909446Y-66660107D01*
X55942278Y-66682045D01*
X55925781Y-66693068D01*
X55884629Y-66720565D01*
X55658695Y-66946499D01*
X55566419Y-66908182D01*
X55194453Y-66907858D01*
X54850677Y-67049903D01*
X54587428Y-67312693D01*
X54444782Y-67656221D01*
X54444458Y-68028187D01*
X54471766Y-68094279D01*
X54435028Y-68130953D01*
X54292382Y-68474481D01*
X54292058Y-68846447D01*
X54434103Y-69190223D01*
X54436017Y-69192140D01*
X54406800Y-69192140D01*
X54124915Y-69248210D01*
X53925756Y-69381284D01*
X53885945Y-69407885D01*
X53200145Y-70093685D01*
X53040470Y-70332655D01*
X52984400Y-70614540D01*
X52984400Y-70897192D01*
X52643417Y-71038083D01*
X52380168Y-71300873D01*
X52288142Y-71522494D01*
X52212240Y-71446592D01*
X52212240Y-70683926D01*
X52360183Y-70622797D01*
X52623432Y-70360007D01*
X52697969Y-70180503D01*
X52857147Y-70180642D01*
X53200923Y-70038597D01*
X53464172Y-69775807D01*
X53606818Y-69432279D01*
X53607142Y-69060313D01*
X53465097Y-68716537D01*
X53202307Y-68453288D01*
X52858779Y-68310642D01*
X52486813Y-68310318D01*
X52143037Y-68452363D01*
X51879788Y-68715153D01*
X51805251Y-68894657D01*
X51646073Y-68894518D01*
X51302297Y-69036563D01*
X51039048Y-69299353D01*
X50958687Y-69492883D01*
X50954785Y-69496785D01*
X50795110Y-69735755D01*
X50739040Y-70017640D01*
X50739040Y-71751702D01*
X50795110Y-72033587D01*
X50954785Y-72272557D01*
X51635884Y-72953656D01*
X51874854Y-73113331D01*
X52156739Y-73169401D01*
X52231828Y-73169401D01*
X52113062Y-73455421D01*
X52112738Y-73827387D01*
X52254783Y-74171163D01*
X52403696Y-74320337D01*
X52362388Y-74361573D01*
X52219742Y-74705101D01*
X52219418Y-75077067D01*
X52361463Y-75420843D01*
X52458047Y-75517596D01*
X52474050Y-75598049D01*
X52633725Y-75837019D01*
X52888959Y-76092253D01*
X52869477Y-76100303D01*
X52606228Y-76363093D01*
X52463582Y-76706621D01*
X52463258Y-77078587D01*
X52479359Y-77117555D01*
X52357308Y-77239393D01*
X52214662Y-77582921D01*
X52214338Y-77954887D01*
X52356383Y-78298663D01*
X52619173Y-78561912D01*
X52962701Y-78704558D01*
X53334667Y-78704882D01*
X53678443Y-78562837D01*
X53752870Y-78488540D01*
X55546814Y-78488540D01*
X55333331Y-78576749D01*
X55258909Y-78651042D01*
X54906825Y-78650735D01*
X54563049Y-78792780D01*
X54299800Y-79055570D01*
X54268315Y-79131394D01*
X54267316Y-79131393D01*
X53923540Y-79273438D01*
X53660291Y-79536228D01*
X53517645Y-79879756D01*
X53517321Y-80251722D01*
X53654987Y-80584901D01*
X53369446Y-80775693D01*
X53141798Y-81116393D01*
X53074683Y-80973482D01*
X52646424Y-80583195D01*
X52236390Y-80413364D01*
X52006500Y-80534685D01*
X52006500Y-81727840D01*
X52026500Y-81727840D01*
X52026500Y-81981840D01*
X52006500Y-81981840D01*
X52006500Y-83174995D01*
X52236390Y-83296316D01*
X52646424Y-83126485D01*
X53074683Y-82736198D01*
X53141798Y-82593287D01*
X53369446Y-82933987D01*
X53851215Y-83255894D01*
X54419500Y-83368933D01*
X54987785Y-83255894D01*
X55277166Y-83062536D01*
X55736811Y-83522181D01*
X55741926Y-83529836D01*
X56192265Y-83980175D01*
X56431236Y-84139851D01*
X56713120Y-84195921D01*
X56713125Y-84195920D01*
X64404240Y-84195920D01*
X64686125Y-84139850D01*
X64925095Y-83980175D01*
X65100355Y-83804915D01*
X65260030Y-83565945D01*
X65316100Y-83284060D01*
X65316100Y-83143430D01*
X65629554Y-82933987D01*
X65849500Y-82604814D01*
X66069446Y-82933987D01*
X66551215Y-83255894D01*
X67119500Y-83368933D01*
X67687785Y-83255894D01*
X68169554Y-82933987D01*
X68389500Y-82604814D01*
X68609446Y-82933987D01*
X69091215Y-83255894D01*
X69659500Y-83368933D01*
X70227785Y-83255894D01*
X70709554Y-82933987D01*
X70929500Y-82604814D01*
X71149446Y-82933987D01*
X71631215Y-83255894D01*
X72199500Y-83368933D01*
X72767785Y-83255894D01*
X73249554Y-82933987D01*
X73469500Y-82604814D01*
X73689446Y-82933987D01*
X74171215Y-83255894D01*
X74739500Y-83368933D01*
X75307785Y-83255894D01*
X75789554Y-82933987D01*
X76009500Y-82604814D01*
X76229446Y-82933987D01*
X76711215Y-83255894D01*
X77279500Y-83368933D01*
X77847785Y-83255894D01*
X78329554Y-82933987D01*
X78549500Y-82604814D01*
X78769446Y-82933987D01*
X79251215Y-83255894D01*
X79819500Y-83368933D01*
X80387785Y-83255894D01*
X80869554Y-82933987D01*
X80897350Y-82892388D01*
X80906338Y-82940157D01*
X81045410Y-83156281D01*
X81257610Y-83301271D01*
X81509500Y-83352280D01*
X83209500Y-83352280D01*
X83444817Y-83308002D01*
X83660941Y-83168930D01*
X83805931Y-82956730D01*
X83852096Y-82728759D01*
X93873126Y-82728759D01*
X94060748Y-83182837D01*
X94407855Y-83530551D01*
X94861606Y-83718965D01*
X95352919Y-83719394D01*
X95806997Y-83531772D01*
X96154711Y-83184665D01*
X96343125Y-82730914D01*
X96343554Y-82239601D01*
X96155932Y-81785523D01*
X95808825Y-81437809D01*
X95355074Y-81249395D01*
X94863761Y-81248966D01*
X94409683Y-81436588D01*
X94061969Y-81783695D01*
X93873555Y-82237446D01*
X93873126Y-82728759D01*
X83852096Y-82728759D01*
X83856940Y-82704840D01*
X83856940Y-81004840D01*
X83812662Y-80769523D01*
X83673590Y-80553399D01*
X83461390Y-80408409D01*
X83209500Y-80357400D01*
X81509500Y-80357400D01*
X81274183Y-80401678D01*
X81058059Y-80540750D01*
X80913069Y-80752950D01*
X80899414Y-80820381D01*
X80869554Y-80775693D01*
X80387785Y-80453786D01*
X79819500Y-80340747D01*
X79425490Y-80419120D01*
X78973035Y-79966665D01*
X78734065Y-79806990D01*
X78452180Y-79750920D01*
X76787515Y-79750920D01*
X76401280Y-79364685D01*
X76162310Y-79205010D01*
X75880425Y-79148940D01*
X75015442Y-79148940D01*
X74959947Y-79093348D01*
X74616419Y-78950702D01*
X74257951Y-78950390D01*
X74200341Y-78892679D01*
X80007181Y-78892679D01*
X80289066Y-78836609D01*
X80528036Y-78676934D01*
X80807870Y-78397100D01*
X80897322Y-78397100D01*
X80822547Y-78773020D01*
X80935586Y-79341305D01*
X81257493Y-79823074D01*
X81739262Y-80144981D01*
X82307547Y-80258020D01*
X82365733Y-80258020D01*
X82934018Y-80144981D01*
X83415787Y-79823074D01*
X83625230Y-79509620D01*
X84140040Y-79509620D01*
X84421925Y-79453550D01*
X84660895Y-79293875D01*
X86089523Y-77865247D01*
X86111025Y-77860970D01*
X86349995Y-77701295D01*
X86995960Y-77055330D01*
X94240995Y-77055330D01*
X94522880Y-76999260D01*
X94761850Y-76839585D01*
X94809868Y-76791567D01*
X107362818Y-76791567D01*
X107504863Y-77135343D01*
X107767653Y-77398592D01*
X108111181Y-77541238D01*
X108483147Y-77541562D01*
X108826923Y-77399517D01*
X109090172Y-77136727D01*
X109232818Y-76793199D01*
X109233142Y-76421233D01*
X109215582Y-76378735D01*
X109285752Y-76308687D01*
X109428398Y-75965159D01*
X109428722Y-75593193D01*
X109384425Y-75485985D01*
X109458472Y-75412067D01*
X109601118Y-75068539D01*
X109601442Y-74696573D01*
X109459397Y-74352797D01*
X109196607Y-74089548D01*
X108853079Y-73946902D01*
X108481113Y-73946578D01*
X108137337Y-74088623D01*
X107874088Y-74351413D01*
X107731442Y-74694941D01*
X107731118Y-75066907D01*
X107775415Y-75174115D01*
X107701368Y-75248033D01*
X107558722Y-75591561D01*
X107558398Y-75963527D01*
X107575958Y-76006025D01*
X107505788Y-76076073D01*
X107363142Y-76419601D01*
X107362818Y-76791567D01*
X94809868Y-76791567D01*
X95681305Y-75920130D01*
X95697963Y-75895200D01*
X95840980Y-75681160D01*
X95897050Y-75399275D01*
X95897050Y-75217980D01*
X96027550Y-75087480D01*
X100256340Y-75087480D01*
X100538225Y-75031410D01*
X100777195Y-74871735D01*
X101130410Y-74518520D01*
X101221540Y-74518520D01*
X101503425Y-74462450D01*
X101742395Y-74302775D01*
X101862740Y-74182430D01*
X101915150Y-74445915D01*
X102074825Y-74684885D01*
X102454076Y-75064136D01*
X102693046Y-75223811D01*
X102974931Y-75279881D01*
X104206679Y-75279881D01*
X104488564Y-75223811D01*
X104727534Y-75064136D01*
X105267696Y-74523974D01*
X105346247Y-74524042D01*
X105690023Y-74381997D01*
X105953272Y-74119207D01*
X106095918Y-73775679D01*
X106096242Y-73403713D01*
X105954197Y-73059937D01*
X105781441Y-72886880D01*
X106121823Y-72746237D01*
X106178439Y-72689720D01*
X109237780Y-72689720D01*
X109519665Y-72633650D01*
X109703893Y-72510553D01*
X109729903Y-72573503D01*
X109992693Y-72836752D01*
X110336221Y-72979398D01*
X110416218Y-72979468D01*
X110692192Y-73255442D01*
X110536008Y-73411353D01*
X110393362Y-73754881D01*
X110393038Y-74126847D01*
X110535083Y-74470623D01*
X110797873Y-74733872D01*
X111141401Y-74876518D01*
X111278111Y-74876637D01*
X111346314Y-74922209D01*
X111628199Y-74978279D01*
X111706297Y-74978279D01*
X111841245Y-75113227D01*
X111841245Y-76580965D01*
X111897315Y-76862850D01*
X112056990Y-77101820D01*
X112625985Y-77670815D01*
X112864955Y-77830490D01*
X113026300Y-77862583D01*
X113023406Y-77866915D01*
X112910367Y-78435200D01*
X113023406Y-79003485D01*
X113345313Y-79485254D01*
X113827082Y-79807161D01*
X114395367Y-79920200D01*
X114453553Y-79920200D01*
X115021838Y-79807161D01*
X115503607Y-79485254D01*
X115694460Y-79199622D01*
X115885313Y-79485254D01*
X116367082Y-79807161D01*
X116935367Y-79920200D01*
X116993553Y-79920200D01*
X117561838Y-79807161D01*
X118043607Y-79485254D01*
X118365514Y-79003485D01*
X118478553Y-78435200D01*
X118365514Y-77866915D01*
X118043607Y-77385146D01*
X117714434Y-77165200D01*
X118043607Y-76945254D01*
X118365514Y-76463485D01*
X118478553Y-75895200D01*
X118365514Y-75326915D01*
X118043607Y-74845146D01*
X117714434Y-74625200D01*
X118043607Y-74405254D01*
X118365514Y-73923485D01*
X118478553Y-73355200D01*
X118365514Y-72786915D01*
X118043607Y-72305146D01*
X117714434Y-72085200D01*
X118043607Y-71865254D01*
X118365514Y-71383485D01*
X118478553Y-70815200D01*
X118365514Y-70246915D01*
X118043607Y-69765146D01*
X117999683Y-69735797D01*
X118174158Y-69663527D01*
X118352787Y-69484899D01*
X118449460Y-69251510D01*
X118449460Y-68560950D01*
X118290710Y-68402200D01*
X117091460Y-68402200D01*
X117091460Y-68422200D01*
X116837460Y-68422200D01*
X116837460Y-68402200D01*
X116817460Y-68402200D01*
X116817460Y-68148200D01*
X116837460Y-68148200D01*
X116837460Y-66948950D01*
X117091460Y-66948950D01*
X117091460Y-68148200D01*
X118290710Y-68148200D01*
X118449460Y-67989450D01*
X118449460Y-67298890D01*
X118352787Y-67065501D01*
X118174158Y-66886873D01*
X117940769Y-66790200D01*
X117250210Y-66790200D01*
X117091460Y-66948950D01*
X116837460Y-66948950D01*
X116678710Y-66790200D01*
X115988151Y-66790200D01*
X115754762Y-66886873D01*
X115576133Y-67065501D01*
X115507557Y-67231058D01*
X115503607Y-67225146D01*
X115021838Y-66903239D01*
X114453553Y-66790200D01*
X114395367Y-66790200D01*
X113827082Y-66903239D01*
X113345313Y-67225146D01*
X113023406Y-67706915D01*
X112910367Y-68275200D01*
X112988740Y-68669210D01*
X112822268Y-68835682D01*
X112643387Y-68656488D01*
X112299859Y-68513842D01*
X111927893Y-68513518D01*
X111762836Y-68581718D01*
X111819235Y-68445894D01*
X111819371Y-68289786D01*
X111846983Y-68278377D01*
X112110232Y-68015587D01*
X112252878Y-67672059D01*
X112253202Y-67300093D01*
X112111157Y-66956317D01*
X111848367Y-66693068D01*
X111504839Y-66550422D01*
X111132873Y-66550098D01*
X110789097Y-66692143D01*
X110525848Y-66954933D01*
X110383202Y-67298461D01*
X110383066Y-67454569D01*
X110355454Y-67465978D01*
X110092205Y-67728768D01*
X109992814Y-67968128D01*
X109804437Y-68045963D01*
X109541188Y-68308753D01*
X109398542Y-68652281D01*
X109398218Y-69024247D01*
X109500662Y-69272181D01*
X109471444Y-69272181D01*
X109189559Y-69328251D01*
X109050909Y-69420895D01*
X108952222Y-69486836D01*
X108950589Y-69487927D01*
X108556905Y-69881612D01*
X108431627Y-70006890D01*
X108209363Y-70006890D01*
X108298603Y-69970017D01*
X108561852Y-69707227D01*
X108704498Y-69363699D01*
X108704822Y-68991733D01*
X108562777Y-68647957D01*
X108299987Y-68384708D01*
X107956459Y-68242062D01*
X107584493Y-68241738D01*
X107240717Y-68383783D01*
X106977468Y-68646573D01*
X106834822Y-68990101D01*
X106834498Y-69362067D01*
X106976543Y-69705843D01*
X107239333Y-69969092D01*
X107330360Y-70006890D01*
X107256567Y-70006890D01*
X107043569Y-69864569D01*
X106761684Y-69808499D01*
X105610906Y-69808499D01*
X105611102Y-69583553D01*
X105469057Y-69239777D01*
X105206267Y-68976528D01*
X104862739Y-68833882D01*
X104490773Y-68833558D01*
X104146997Y-68975603D01*
X104037582Y-69084827D01*
X104020675Y-69088190D01*
X103781705Y-69247865D01*
X102435505Y-70594065D01*
X102275830Y-70833035D01*
X102219760Y-71114920D01*
X102219760Y-71597153D01*
X102133653Y-71597078D01*
X101789877Y-71739123D01*
X101526628Y-72001913D01*
X101383982Y-72345441D01*
X101383779Y-72577971D01*
X100916430Y-73045320D01*
X100825300Y-73045320D01*
X100543415Y-73101390D01*
X100304445Y-73261065D01*
X100280260Y-73285250D01*
X100241737Y-73192017D01*
X100142859Y-73092967D01*
X100228518Y-72886679D01*
X100228588Y-72806682D01*
X101259145Y-71776125D01*
X101418820Y-71537155D01*
X101474890Y-71255270D01*
X101474890Y-69879830D01*
X101429814Y-69653216D01*
X101653052Y-69430367D01*
X101795698Y-69086839D01*
X101796022Y-68714873D01*
X101751517Y-68607162D01*
X101871590Y-68427461D01*
X101927660Y-68145576D01*
X101927660Y-65090040D01*
X101871590Y-64808155D01*
X101711915Y-64569185D01*
X101384474Y-64241744D01*
X101384542Y-64163193D01*
X101242497Y-63819417D01*
X100979707Y-63556168D01*
X100636179Y-63413522D01*
X100264213Y-63413198D01*
X99920437Y-63555243D01*
X99657188Y-63818033D01*
X99514542Y-64161561D01*
X99514218Y-64533527D01*
X99656263Y-64877303D01*
X99919053Y-65140552D01*
X100262581Y-65283198D01*
X100342578Y-65283268D01*
X100454460Y-65395150D01*
X100454460Y-67840466D01*
X100340005Y-67954921D01*
X100180330Y-68193891D01*
X100164358Y-68274190D01*
X100068668Y-68369713D01*
X99956036Y-68640960D01*
X98566274Y-68640960D01*
X97501859Y-67576545D01*
X97262889Y-67416870D01*
X96981004Y-67360800D01*
X93703450Y-67360800D01*
X92377429Y-66034779D01*
X92392618Y-65998199D01*
X92392759Y-65836800D01*
X93753562Y-65836800D01*
X93753498Y-65910207D01*
X93895543Y-66253983D01*
X94158333Y-66517232D01*
X94501861Y-66659878D01*
X94873827Y-66660202D01*
X95217603Y-66518157D01*
X95480852Y-66255367D01*
X95623498Y-65911839D01*
X95623822Y-65539873D01*
X95496972Y-65232872D01*
X95806997Y-65104772D01*
X96154711Y-64757665D01*
X96343125Y-64303914D01*
X96343554Y-63812601D01*
X96155932Y-63358523D01*
X95808825Y-63010809D01*
X95355074Y-62822395D01*
X94863761Y-62821966D01*
X94409683Y-63009588D01*
X94061969Y-63356695D01*
X93873555Y-63810446D01*
X93873126Y-64301759D01*
X93898678Y-64363600D01*
X91036140Y-64363600D01*
X90754255Y-64419670D01*
X90515285Y-64579345D01*
X90167305Y-64927325D01*
X90007630Y-65166295D01*
X89951560Y-65448180D01*
X89951560Y-68094860D01*
X87988140Y-68094860D01*
X87706255Y-68150930D01*
X87585749Y-68231450D01*
X87467285Y-68310605D01*
X86651790Y-69126100D01*
X83834080Y-69126100D01*
X83834080Y-67763020D01*
X83789802Y-67527703D01*
X83650730Y-67311579D01*
X83438530Y-67166589D01*
X83186640Y-67115580D01*
X81770819Y-67115580D01*
X81791386Y-67111489D01*
X81940668Y-67011742D01*
X82359500Y-67095053D01*
X82927785Y-66982014D01*
X83409554Y-66660107D01*
X83731461Y-66178338D01*
X83844500Y-65610053D01*
X83844500Y-65551867D01*
X83731461Y-64983582D01*
X83409554Y-64501813D01*
X82927785Y-64179906D01*
X82359500Y-64066867D01*
X81791215Y-64179906D01*
X81309446Y-64501813D01*
X81089500Y-64830986D01*
X80869554Y-64501813D01*
X80387785Y-64179906D01*
X79819500Y-64066867D01*
X79251215Y-64179906D01*
X78769446Y-64501813D01*
X78549500Y-64830986D01*
X78329554Y-64501813D01*
X77847785Y-64179906D01*
X77279500Y-64066867D01*
X76711215Y-64179906D01*
X76229446Y-64501813D01*
X76009500Y-64830986D01*
X75789554Y-64501813D01*
X75307785Y-64179906D01*
X74739500Y-64066867D01*
X74171215Y-64179906D01*
X73689446Y-64501813D01*
X73469500Y-64830986D01*
X73249554Y-64501813D01*
X72767785Y-64179906D01*
X72199500Y-64066867D01*
X71631215Y-64179906D01*
X71149446Y-64501813D01*
X70929500Y-64830986D01*
X70709554Y-64501813D01*
X70227785Y-64179906D01*
X69659500Y-64066867D01*
X69091215Y-64179906D01*
X68609446Y-64501813D01*
X68389500Y-64830986D01*
X68169554Y-64501813D01*
X67687785Y-64179906D01*
X67119500Y-64066867D01*
X66551215Y-64179906D01*
X66069446Y-64501813D01*
X65849500Y-64830986D01*
X65629554Y-64501813D01*
X65147785Y-64179906D01*
X64579500Y-64066867D01*
X64011215Y-64179906D01*
X63529446Y-64501813D01*
X63309500Y-64830986D01*
X63089554Y-64501813D01*
X62756255Y-64279110D01*
X62720030Y-64096994D01*
X62560355Y-63858024D01*
X62412996Y-63710665D01*
X62174026Y-63550990D01*
X61892141Y-63494920D01*
X58727340Y-63494920D01*
X58445455Y-63550990D01*
X58206485Y-63710665D01*
X57734045Y-64183105D01*
X57671859Y-64276173D01*
X57527785Y-64179906D01*
X56959500Y-64066867D01*
X56391215Y-64179906D01*
X55909446Y-64501813D01*
X55689500Y-64830986D01*
X55469554Y-64501813D01*
X54987785Y-64179906D01*
X54419500Y-64066867D01*
X53851215Y-64179906D01*
X53369446Y-64501813D01*
X53149500Y-64830986D01*
X52929554Y-64501813D01*
X52447785Y-64179906D01*
X51879500Y-64066867D01*
X51311215Y-64179906D01*
X50829446Y-64501813D01*
X50800097Y-64545737D01*
X50727827Y-64371262D01*
X50549199Y-64192633D01*
X50315810Y-64095960D01*
X49625250Y-64095960D01*
X49466500Y-64254710D01*
X49212500Y-64254710D01*
X49053750Y-64095960D01*
X48363190Y-64095960D01*
X48129801Y-64192633D01*
X47951173Y-64371262D01*
X47854500Y-64604651D01*
X44938620Y-64604651D01*
X44938620Y-55240860D01*
X48893628Y-55240860D01*
X48830485Y-55266950D01*
G36*
X69466460Y-70504949D02*
X69385433Y-70504878D01*
X69041657Y-70646923D01*
X68778408Y-70909713D01*
X68635762Y-71253241D01*
X68635717Y-71305041D01*
X63721672Y-71305041D01*
X63717267Y-71300628D01*
X63373739Y-71157982D01*
X63001773Y-71157658D01*
X62657997Y-71299703D01*
X62394748Y-71562493D01*
X62252102Y-71906021D01*
X62251778Y-72277987D01*
X62393823Y-72621763D01*
X62656613Y-72885012D01*
X63000141Y-73027658D01*
X63372107Y-73027982D01*
X63715883Y-72885937D01*
X63823767Y-72778241D01*
X69166376Y-72778241D01*
X69092962Y-72955041D01*
X69092638Y-73327007D01*
X69234683Y-73670783D01*
X69259913Y-73696057D01*
X68714310Y-74241660D01*
X67695334Y-74241660D01*
X67830818Y-73915379D01*
X67831142Y-73543413D01*
X67689097Y-73199637D01*
X67426307Y-72936388D01*
X67082779Y-72793742D01*
X66710813Y-72793418D01*
X66367037Y-72935463D01*
X66103788Y-73198253D01*
X65961142Y-73541781D01*
X65961072Y-73621778D01*
X65767910Y-73814940D01*
X64996060Y-73814940D01*
X64714175Y-73871010D01*
X64505466Y-74010465D01*
X64475205Y-74030685D01*
X63591285Y-74914605D01*
X63431610Y-75153575D01*
X63375540Y-75435460D01*
X63375540Y-75971090D01*
X63135170Y-76211460D01*
X61304510Y-76211460D01*
X61065974Y-75972924D01*
X60827004Y-75813249D01*
X60545119Y-75757179D01*
X58314191Y-75757179D01*
X58073475Y-75805060D01*
X55255410Y-75805060D01*
X54738860Y-75288510D01*
X54738860Y-74596580D01*
X54682790Y-74314695D01*
X54523115Y-74075725D01*
X53982994Y-73535604D01*
X53983062Y-73457053D01*
X53841017Y-73113277D01*
X53801836Y-73074027D01*
X53981984Y-72953656D01*
X54645065Y-72290575D01*
X54804740Y-72051605D01*
X54860810Y-71769720D01*
X54860810Y-71141280D01*
X54933540Y-71068550D01*
X54957582Y-71068550D01*
X54957538Y-71118717D01*
X55099583Y-71462493D01*
X55362373Y-71725742D01*
X55705901Y-71868388D01*
X56077867Y-71868712D01*
X56421643Y-71726667D01*
X56684892Y-71463877D01*
X56827538Y-71120349D01*
X56827583Y-71068550D01*
X57122049Y-71068550D01*
X57403934Y-71012480D01*
X57642904Y-70852805D01*
X58256498Y-70239210D01*
X61440726Y-70239210D01*
X61695693Y-70188494D01*
X61736603Y-70287503D01*
X61999393Y-70550752D01*
X62342921Y-70693398D01*
X62714887Y-70693722D01*
X63058663Y-70551677D01*
X63321912Y-70288887D01*
X63464558Y-69945359D01*
X63464776Y-69695541D01*
X64403966Y-69695541D01*
X64403798Y-69887847D01*
X64545843Y-70231623D01*
X64808633Y-70494872D01*
X65152161Y-70637518D01*
X65524127Y-70637842D01*
X65867903Y-70495797D01*
X66131152Y-70233007D01*
X66273798Y-69889479D01*
X66274122Y-69517513D01*
X66181079Y-69292331D01*
X66231761Y-69292331D01*
X66700026Y-69760596D01*
X66699958Y-69839147D01*
X66842003Y-70182923D01*
X67104793Y-70446172D01*
X67448321Y-70588818D01*
X67820287Y-70589142D01*
X68164063Y-70447097D01*
X68427312Y-70184307D01*
X68569958Y-69840779D01*
X68570282Y-69468813D01*
X68428237Y-69125037D01*
X68165447Y-68861788D01*
X68141268Y-68851748D01*
X68235264Y-68833051D01*
X68474234Y-68673376D01*
X69058480Y-68089130D01*
X69466460Y-68089130D01*
X69466460Y-70504949D01*
X69466460Y-70504949D01*
G37*
X69466460Y-70504949D02*
X69385433Y-70504878D01*
X69041657Y-70646923D01*
X68778408Y-70909713D01*
X68635762Y-71253241D01*
X68635717Y-71305041D01*
X63721672Y-71305041D01*
X63717267Y-71300628D01*
X63373739Y-71157982D01*
X63001773Y-71157658D01*
X62657997Y-71299703D01*
X62394748Y-71562493D01*
X62252102Y-71906021D01*
X62251778Y-72277987D01*
X62393823Y-72621763D01*
X62656613Y-72885012D01*
X63000141Y-73027658D01*
X63372107Y-73027982D01*
X63715883Y-72885937D01*
X63823767Y-72778241D01*
X69166376Y-72778241D01*
X69092962Y-72955041D01*
X69092638Y-73327007D01*
X69234683Y-73670783D01*
X69259913Y-73696057D01*
X68714310Y-74241660D01*
X67695334Y-74241660D01*
X67830818Y-73915379D01*
X67831142Y-73543413D01*
X67689097Y-73199637D01*
X67426307Y-72936388D01*
X67082779Y-72793742D01*
X66710813Y-72793418D01*
X66367037Y-72935463D01*
X66103788Y-73198253D01*
X65961142Y-73541781D01*
X65961072Y-73621778D01*
X65767910Y-73814940D01*
X64996060Y-73814940D01*
X64714175Y-73871010D01*
X64505466Y-74010465D01*
X64475205Y-74030685D01*
X63591285Y-74914605D01*
X63431610Y-75153575D01*
X63375540Y-75435460D01*
X63375540Y-75971090D01*
X63135170Y-76211460D01*
X61304510Y-76211460D01*
X61065974Y-75972924D01*
X60827004Y-75813249D01*
X60545119Y-75757179D01*
X58314191Y-75757179D01*
X58073475Y-75805060D01*
X55255410Y-75805060D01*
X54738860Y-75288510D01*
X54738860Y-74596580D01*
X54682790Y-74314695D01*
X54523115Y-74075725D01*
X53982994Y-73535604D01*
X53983062Y-73457053D01*
X53841017Y-73113277D01*
X53801836Y-73074027D01*
X53981984Y-72953656D01*
X54645065Y-72290575D01*
X54804740Y-72051605D01*
X54860810Y-71769720D01*
X54860810Y-71141280D01*
X54933540Y-71068550D01*
X54957582Y-71068550D01*
X54957538Y-71118717D01*
X55099583Y-71462493D01*
X55362373Y-71725742D01*
X55705901Y-71868388D01*
X56077867Y-71868712D01*
X56421643Y-71726667D01*
X56684892Y-71463877D01*
X56827538Y-71120349D01*
X56827583Y-71068550D01*
X57122049Y-71068550D01*
X57403934Y-71012480D01*
X57642904Y-70852805D01*
X58256498Y-70239210D01*
X61440726Y-70239210D01*
X61695693Y-70188494D01*
X61736603Y-70287503D01*
X61999393Y-70550752D01*
X62342921Y-70693398D01*
X62714887Y-70693722D01*
X63058663Y-70551677D01*
X63321912Y-70288887D01*
X63464558Y-69945359D01*
X63464776Y-69695541D01*
X64403966Y-69695541D01*
X64403798Y-69887847D01*
X64545843Y-70231623D01*
X64808633Y-70494872D01*
X65152161Y-70637518D01*
X65524127Y-70637842D01*
X65867903Y-70495797D01*
X66131152Y-70233007D01*
X66273798Y-69889479D01*
X66274122Y-69517513D01*
X66181079Y-69292331D01*
X66231761Y-69292331D01*
X66700026Y-69760596D01*
X66699958Y-69839147D01*
X66842003Y-70182923D01*
X67104793Y-70446172D01*
X67448321Y-70588818D01*
X67820287Y-70589142D01*
X68164063Y-70447097D01*
X68427312Y-70184307D01*
X68569958Y-69840779D01*
X68570282Y-69468813D01*
X68428237Y-69125037D01*
X68165447Y-68861788D01*
X68141268Y-68851748D01*
X68235264Y-68833051D01*
X68474234Y-68673376D01*
X69058480Y-68089130D01*
X69466460Y-68089130D01*
X69466460Y-70504949D01*
G36*
X93283403Y-73117063D02*
X93339920Y-73173679D01*
X93339920Y-74152450D01*
X92716660Y-74775710D01*
X89020340Y-74775710D01*
X88714735Y-74470105D01*
X88475765Y-74310430D01*
X88193880Y-74254360D01*
X83693435Y-74254360D01*
X83778116Y-74049910D01*
X83656795Y-73820020D01*
X82463640Y-73820020D01*
X82463640Y-73840020D01*
X82209640Y-73840020D01*
X82209640Y-73820020D01*
X82189640Y-73820020D01*
X82189640Y-73566020D01*
X82209640Y-73566020D01*
X82209640Y-73546020D01*
X82463640Y-73546020D01*
X82463640Y-73566020D01*
X83656795Y-73566020D01*
X83778116Y-73336130D01*
X83699748Y-73146920D01*
X92976700Y-73146920D01*
X93258585Y-73090850D01*
X93269546Y-73083526D01*
X93283403Y-73117063D01*
X93283403Y-73117063D01*
G37*
X93283403Y-73117063D02*
X93339920Y-73173679D01*
X93339920Y-74152450D01*
X92716660Y-74775710D01*
X89020340Y-74775710D01*
X88714735Y-74470105D01*
X88475765Y-74310430D01*
X88193880Y-74254360D01*
X83693435Y-74254360D01*
X83778116Y-74049910D01*
X83656795Y-73820020D01*
X82463640Y-73820020D01*
X82463640Y-73840020D01*
X82209640Y-73840020D01*
X82209640Y-73820020D01*
X82189640Y-73820020D01*
X82189640Y-73566020D01*
X82209640Y-73566020D01*
X82209640Y-73546020D01*
X82463640Y-73546020D01*
X82463640Y-73566020D01*
X83656795Y-73566020D01*
X83778116Y-73336130D01*
X83699748Y-73146920D01*
X92976700Y-73146920D01*
X93258585Y-73090850D01*
X93269546Y-73083526D01*
X93283403Y-73117063D01*
G36*
X89776490Y-69611295D02*
X89720420Y-69893180D01*
X89720420Y-70863460D01*
X89776490Y-71145345D01*
X89936165Y-71384315D01*
X90225570Y-71673720D01*
X83747159Y-71673720D01*
X83850733Y-71153020D01*
X83740591Y-70599300D01*
X86956900Y-70599300D01*
X87238785Y-70543230D01*
X87477755Y-70383555D01*
X88293250Y-69568060D01*
X89805379Y-69568060D01*
X89776490Y-69611295D01*
X89776490Y-69611295D01*
G37*
X89776490Y-69611295D02*
X89720420Y-69893180D01*
X89720420Y-70863460D01*
X89776490Y-71145345D01*
X89936165Y-71384315D01*
X90225570Y-71673720D01*
X83747159Y-71673720D01*
X83850733Y-71153020D01*
X83740591Y-70599300D01*
X86956900Y-70599300D01*
X87238785Y-70543230D01*
X87477755Y-70383555D01*
X88293250Y-69568060D01*
X89805379Y-69568060D01*
X89776490Y-69611295D01*
G36*
X92229995Y-69242750D02*
X92511880Y-69298820D01*
X96570490Y-69298820D01*
X96814330Y-69542660D01*
X94058740Y-69542660D01*
X93776855Y-69598730D01*
X93537885Y-69758405D01*
X93499630Y-69796660D01*
X92056302Y-69796660D01*
X92000807Y-69741068D01*
X91753277Y-69638284D01*
X91758423Y-69630582D01*
X91760663Y-69629657D01*
X92023912Y-69366867D01*
X92109016Y-69161914D01*
X92229995Y-69242750D01*
X92229995Y-69242750D01*
G37*
X92229995Y-69242750D02*
X92511880Y-69298820D01*
X96570490Y-69298820D01*
X96814330Y-69542660D01*
X94058740Y-69542660D01*
X93776855Y-69598730D01*
X93537885Y-69758405D01*
X93499630Y-69796660D01*
X92056302Y-69796660D01*
X92000807Y-69741068D01*
X91753277Y-69638284D01*
X91758423Y-69630582D01*
X91760663Y-69629657D01*
X92023912Y-69366867D01*
X92109016Y-69161914D01*
X92229995Y-69242750D01*
M02*
