G04 #@! TF.FileFunction,Paste,Top*
%FSLAX46Y46*%
G04 Gerber Fmt 4.6, Leading zero omitted, Abs format (unit mm)*
G04 Created by KiCad (PCBNEW 4.0.7) date 12/11/17 20:33:10*
%MOMM*%
%LPD*%
G01*
G04 APERTURE LIST*
%ADD10C,0.100000*%
%ADD11R,1.448000X0.457000*%
%ADD12R,0.750000X1.200000*%
%ADD13R,1.200000X0.900000*%
%ADD14R,1.100000X0.400000*%
%ADD15R,1.060000X0.650000*%
%ADD16R,1.500000X0.450000*%
%ADD17R,0.900000X1.200000*%
G04 APERTURE END LIST*
D10*
D11*
X96162340Y-80870680D03*
X96162340Y-80070680D03*
X96162340Y-79270680D03*
X96162340Y-78470680D03*
X96162340Y-77670680D03*
X96162340Y-76870680D03*
X96163140Y-76070680D03*
X96162340Y-75270680D03*
X96162340Y-74470680D03*
X96162340Y-73670680D03*
X96162340Y-72870680D03*
X96162340Y-72070680D03*
X96162340Y-71270680D03*
X96162340Y-70470680D03*
X96162340Y-69670680D03*
X96162340Y-68870680D03*
X96162340Y-68070680D03*
X96162340Y-67270680D03*
X96162340Y-66470680D03*
X96162340Y-65670680D03*
X89990340Y-80870680D03*
X89990340Y-80070680D03*
X89990340Y-79270680D03*
X89990340Y-78470680D03*
X89990340Y-77670680D03*
X89990340Y-76870680D03*
X89990340Y-76070680D03*
X89990340Y-75270680D03*
X89990340Y-74470680D03*
X89990340Y-73670680D03*
X89990340Y-72870680D03*
X89990340Y-72070680D03*
X89990340Y-71270680D03*
X89990340Y-70470680D03*
X89990340Y-69670680D03*
X89990340Y-68870680D03*
X89990340Y-68070680D03*
X89990340Y-67270680D03*
X89990340Y-66470680D03*
X89990340Y-65670680D03*
D12*
X49499520Y-72994560D03*
X49499520Y-71094560D03*
X65793620Y-72692300D03*
X65793620Y-70792300D03*
X106827320Y-67500460D03*
X106827320Y-69400460D03*
D13*
X59898460Y-68491100D03*
X57698460Y-68491100D03*
X76134320Y-68470780D03*
X73934320Y-68470780D03*
D14*
X51881920Y-70514260D03*
X51881920Y-71164260D03*
X51881920Y-71814260D03*
X51881920Y-72464260D03*
X51881920Y-73114260D03*
X51881920Y-73764260D03*
X51881920Y-74414260D03*
X51881920Y-75064260D03*
X51881920Y-75714260D03*
X51881920Y-76364260D03*
X51881920Y-77014260D03*
X51881920Y-77664260D03*
X57581920Y-77664260D03*
X57581920Y-77014260D03*
X57581920Y-76364260D03*
X57581920Y-75714260D03*
X57581920Y-75064260D03*
X57581920Y-74414260D03*
X57581920Y-73764260D03*
X57581920Y-73114260D03*
X57581920Y-72464260D03*
X57581920Y-71814260D03*
X57581920Y-71164260D03*
X57581920Y-70514260D03*
X68092200Y-70514260D03*
X68092200Y-71164260D03*
X68092200Y-71814260D03*
X68092200Y-72464260D03*
X68092200Y-73114260D03*
X68092200Y-73764260D03*
X68092200Y-74414260D03*
X68092200Y-75064260D03*
X68092200Y-75714260D03*
X68092200Y-76364260D03*
X68092200Y-77014260D03*
X68092200Y-77664260D03*
X73792200Y-77664260D03*
X73792200Y-77014260D03*
X73792200Y-76364260D03*
X73792200Y-75714260D03*
X73792200Y-75064260D03*
X73792200Y-74414260D03*
X73792200Y-73764260D03*
X73792200Y-73114260D03*
X73792200Y-72464260D03*
X73792200Y-71814260D03*
X73792200Y-71164260D03*
X73792200Y-70514260D03*
D15*
X59870160Y-70576400D03*
X59870160Y-71526400D03*
X59870160Y-72476400D03*
X62070160Y-72476400D03*
X62070160Y-70576400D03*
X76014220Y-70482460D03*
X76014220Y-71432460D03*
X76014220Y-72382460D03*
X78214220Y-72382460D03*
X78214220Y-70482460D03*
D16*
X100989340Y-71390080D03*
X100989340Y-72040080D03*
X100989340Y-72690080D03*
X100989340Y-73340080D03*
X100989340Y-73990080D03*
X100989340Y-74640080D03*
X100989340Y-75290080D03*
X100989340Y-75940080D03*
X106889340Y-75940080D03*
X106889340Y-75290080D03*
X106889340Y-74640080D03*
X106889340Y-73990080D03*
X106889340Y-73340080D03*
X106889340Y-72690080D03*
X106889340Y-72040080D03*
X106889340Y-71390080D03*
D17*
X77429360Y-59999700D03*
X77429360Y-62199700D03*
X74714100Y-59999700D03*
X74714100Y-62199700D03*
X69662040Y-62199700D03*
X69662040Y-59999700D03*
M02*
