G04 #@! TF.FileFunction,Legend,Bot*
%FSLAX46Y46*%
G04 Gerber Fmt 4.6, Leading zero omitted, Abs format (unit mm)*
G04 Created by KiCad (PCBNEW 4.0.2-stable) date 7/3/2016 12:03:50 AM*
%MOMM*%
G01*
G04 APERTURE LIST*
%ADD10C,0.100000*%
%ADD11C,0.300000*%
%ADD12C,0.150000*%
G04 APERTURE END LIST*
D10*
D11*
X103449857Y-57279571D02*
X103449857Y-58493857D01*
X103378429Y-58636714D01*
X103307000Y-58708143D01*
X103164143Y-58779571D01*
X102878429Y-58779571D01*
X102735571Y-58708143D01*
X102664143Y-58636714D01*
X102592714Y-58493857D01*
X102592714Y-57279571D01*
X101949857Y-58708143D02*
X101735571Y-58779571D01*
X101378428Y-58779571D01*
X101235571Y-58708143D01*
X101164142Y-58636714D01*
X101092714Y-58493857D01*
X101092714Y-58351000D01*
X101164142Y-58208143D01*
X101235571Y-58136714D01*
X101378428Y-58065286D01*
X101664142Y-57993857D01*
X101807000Y-57922429D01*
X101878428Y-57851000D01*
X101949857Y-57708143D01*
X101949857Y-57565286D01*
X101878428Y-57422429D01*
X101807000Y-57351000D01*
X101664142Y-57279571D01*
X101307000Y-57279571D01*
X101092714Y-57351000D01*
X99949857Y-57993857D02*
X99735571Y-58065286D01*
X99664143Y-58136714D01*
X99592714Y-58279571D01*
X99592714Y-58493857D01*
X99664143Y-58636714D01*
X99735571Y-58708143D01*
X99878429Y-58779571D01*
X100449857Y-58779571D01*
X100449857Y-57279571D01*
X99949857Y-57279571D01*
X99807000Y-57351000D01*
X99735571Y-57422429D01*
X99664143Y-57565286D01*
X99664143Y-57708143D01*
X99735571Y-57851000D01*
X99807000Y-57922429D01*
X99949857Y-57993857D01*
X100449857Y-57993857D01*
X98949857Y-58779571D02*
X98949857Y-57279571D01*
X98949857Y-57993857D02*
X98092714Y-57993857D01*
X98092714Y-58779571D02*
X98092714Y-57279571D01*
X97378428Y-58779571D02*
X97378428Y-57279571D01*
X96664142Y-58779571D02*
X96664142Y-57279571D01*
X96306999Y-57279571D01*
X96092714Y-57351000D01*
X95949856Y-57493857D01*
X95878428Y-57636714D01*
X95806999Y-57922429D01*
X95806999Y-58136714D01*
X95878428Y-58422429D01*
X95949856Y-58565286D01*
X96092714Y-58708143D01*
X96306999Y-58779571D01*
X96664142Y-58779571D01*
X93521285Y-57993857D02*
X93306999Y-58065286D01*
X93235571Y-58136714D01*
X93164142Y-58279571D01*
X93164142Y-58493857D01*
X93235571Y-58636714D01*
X93306999Y-58708143D01*
X93449857Y-58779571D01*
X94021285Y-58779571D01*
X94021285Y-57279571D01*
X93521285Y-57279571D01*
X93378428Y-57351000D01*
X93306999Y-57422429D01*
X93235571Y-57565286D01*
X93235571Y-57708143D01*
X93306999Y-57851000D01*
X93378428Y-57922429D01*
X93521285Y-57993857D01*
X94021285Y-57993857D01*
X91878428Y-57779571D02*
X91878428Y-58779571D01*
X92521285Y-57779571D02*
X92521285Y-58565286D01*
X92449857Y-58708143D01*
X92306999Y-58779571D01*
X92092714Y-58779571D01*
X91949857Y-58708143D01*
X91878428Y-58636714D01*
X90521285Y-58779571D02*
X90521285Y-57279571D01*
X90521285Y-58708143D02*
X90664142Y-58779571D01*
X90949856Y-58779571D01*
X91092714Y-58708143D01*
X91164142Y-58636714D01*
X91235571Y-58493857D01*
X91235571Y-58065286D01*
X91164142Y-57922429D01*
X91092714Y-57851000D01*
X90949856Y-57779571D01*
X90664142Y-57779571D01*
X90521285Y-57851000D01*
X89164142Y-58779571D02*
X89164142Y-57279571D01*
X89164142Y-58708143D02*
X89306999Y-58779571D01*
X89592713Y-58779571D01*
X89735571Y-58708143D01*
X89806999Y-58636714D01*
X89878428Y-58493857D01*
X89878428Y-58065286D01*
X89806999Y-57922429D01*
X89735571Y-57851000D01*
X89592713Y-57779571D01*
X89306999Y-57779571D01*
X89164142Y-57851000D01*
X88592713Y-57779571D02*
X88235570Y-58779571D01*
X87878428Y-57779571D02*
X88235570Y-58779571D01*
X88378428Y-59136714D01*
X88449856Y-59208143D01*
X88592713Y-59279571D01*
X86306999Y-57779571D02*
X85949856Y-58779571D01*
X85592714Y-57779571D01*
X84735571Y-57279571D02*
X84592714Y-57279571D01*
X84449857Y-57351000D01*
X84378428Y-57422429D01*
X84306999Y-57565286D01*
X84235571Y-57851000D01*
X84235571Y-58208143D01*
X84306999Y-58493857D01*
X84378428Y-58636714D01*
X84449857Y-58708143D01*
X84592714Y-58779571D01*
X84735571Y-58779571D01*
X84878428Y-58708143D01*
X84949857Y-58636714D01*
X85021285Y-58493857D01*
X85092714Y-58208143D01*
X85092714Y-57851000D01*
X85021285Y-57565286D01*
X84949857Y-57422429D01*
X84878428Y-57351000D01*
X84735571Y-57279571D01*
X83592714Y-58636714D02*
X83521286Y-58708143D01*
X83592714Y-58779571D01*
X83664143Y-58708143D01*
X83592714Y-58636714D01*
X83592714Y-58779571D01*
X82949857Y-57422429D02*
X82878428Y-57351000D01*
X82735571Y-57279571D01*
X82378428Y-57279571D01*
X82235571Y-57351000D01*
X82164142Y-57422429D01*
X82092714Y-57565286D01*
X82092714Y-57708143D01*
X82164142Y-57922429D01*
X83021285Y-58779571D01*
X82092714Y-58779571D01*
X100985570Y-61179571D02*
X100985570Y-59679571D01*
X100128427Y-61179571D01*
X100128427Y-59679571D01*
X98699855Y-61179571D02*
X99414141Y-61179571D01*
X99414141Y-59679571D01*
X98271284Y-61108143D02*
X98056998Y-61179571D01*
X97699855Y-61179571D01*
X97556998Y-61108143D01*
X97485569Y-61036714D01*
X97414141Y-60893857D01*
X97414141Y-60751000D01*
X97485569Y-60608143D01*
X97556998Y-60536714D01*
X97699855Y-60465286D01*
X97985569Y-60393857D01*
X98128427Y-60322429D01*
X98199855Y-60251000D01*
X98271284Y-60108143D01*
X98271284Y-59965286D01*
X98199855Y-59822429D01*
X98128427Y-59751000D01*
X97985569Y-59679571D01*
X97628427Y-59679571D01*
X97414141Y-59751000D01*
X95771284Y-59679571D02*
X94771284Y-59679571D01*
X95414141Y-61179571D01*
X93128428Y-59608143D02*
X94414142Y-61536714D01*
X92699856Y-59822429D02*
X92628427Y-59751000D01*
X92485570Y-59679571D01*
X92128427Y-59679571D01*
X91985570Y-59751000D01*
X91914141Y-59822429D01*
X91842713Y-59965286D01*
X91842713Y-60108143D01*
X91914141Y-60322429D01*
X92771284Y-61179571D01*
X91842713Y-61179571D01*
X90128428Y-59608143D02*
X91414142Y-61536714D01*
X89699856Y-59822429D02*
X89628427Y-59751000D01*
X89485570Y-59679571D01*
X89128427Y-59679571D01*
X88985570Y-59751000D01*
X88914141Y-59822429D01*
X88842713Y-59965286D01*
X88842713Y-60108143D01*
X88914141Y-60322429D01*
X89771284Y-61179571D01*
X88842713Y-61179571D01*
X87914142Y-59679571D02*
X87771285Y-59679571D01*
X87628428Y-59751000D01*
X87556999Y-59822429D01*
X87485570Y-59965286D01*
X87414142Y-60251000D01*
X87414142Y-60608143D01*
X87485570Y-60893857D01*
X87556999Y-61036714D01*
X87628428Y-61108143D01*
X87771285Y-61179571D01*
X87914142Y-61179571D01*
X88056999Y-61108143D01*
X88128428Y-61036714D01*
X88199856Y-60893857D01*
X88271285Y-60608143D01*
X88271285Y-60251000D01*
X88199856Y-59965286D01*
X88128428Y-59822429D01*
X88056999Y-59751000D01*
X87914142Y-59679571D01*
X85985571Y-61179571D02*
X86842714Y-61179571D01*
X86414142Y-61179571D02*
X86414142Y-59679571D01*
X86556999Y-59893857D01*
X86699857Y-60036714D01*
X86842714Y-60108143D01*
X84699857Y-59679571D02*
X84985571Y-59679571D01*
X85128428Y-59751000D01*
X85199857Y-59822429D01*
X85342714Y-60036714D01*
X85414143Y-60322429D01*
X85414143Y-60893857D01*
X85342714Y-61036714D01*
X85271286Y-61108143D01*
X85128428Y-61179571D01*
X84842714Y-61179571D01*
X84699857Y-61108143D01*
X84628428Y-61036714D01*
X84557000Y-60893857D01*
X84557000Y-60536714D01*
X84628428Y-60393857D01*
X84699857Y-60322429D01*
X84842714Y-60251000D01*
X85128428Y-60251000D01*
X85271286Y-60322429D01*
X85342714Y-60393857D01*
X85414143Y-60536714D01*
D12*
X74517100Y-69926200D02*
X74517100Y-70926200D01*
X75867100Y-70926200D02*
X75867100Y-69926200D01*
X72574000Y-69926200D02*
X72574000Y-70926200D01*
X73924000Y-70926200D02*
X73924000Y-69926200D01*
X90894000Y-72977000D02*
X89894000Y-72977000D01*
X89894000Y-74327000D02*
X90894000Y-74327000D01*
X75694481Y-73509534D02*
X75218290Y-73176200D01*
X75694481Y-72938105D02*
X74694481Y-72938105D01*
X74694481Y-73319058D01*
X74742100Y-73414296D01*
X74789719Y-73461915D01*
X74884957Y-73509534D01*
X75027814Y-73509534D01*
X75123052Y-73461915D01*
X75170671Y-73414296D01*
X75218290Y-73319058D01*
X75218290Y-72938105D01*
X74694481Y-73842867D02*
X74694481Y-74509534D01*
X75694481Y-74080962D01*
X73825841Y-73486663D02*
X73349650Y-73153329D01*
X73825841Y-72915234D02*
X72825841Y-72915234D01*
X72825841Y-73296187D01*
X72873460Y-73391425D01*
X72921079Y-73439044D01*
X73016317Y-73486663D01*
X73159174Y-73486663D01*
X73254412Y-73439044D01*
X73302031Y-73391425D01*
X73349650Y-73296187D01*
X73349650Y-72915234D01*
X73825841Y-74439044D02*
X73825841Y-73867615D01*
X73825841Y-74153329D02*
X72825841Y-74153329D01*
X72968698Y-74058091D01*
X73063936Y-73962853D01*
X73111555Y-73867615D01*
X72825841Y-75058091D02*
X72825841Y-75153330D01*
X72873460Y-75248568D01*
X72921079Y-75296187D01*
X73016317Y-75343806D01*
X73206793Y-75391425D01*
X73444889Y-75391425D01*
X73635365Y-75343806D01*
X73730603Y-75296187D01*
X73778222Y-75248568D01*
X73825841Y-75153330D01*
X73825841Y-75058091D01*
X73778222Y-74962853D01*
X73730603Y-74915234D01*
X73635365Y-74867615D01*
X73444889Y-74819996D01*
X73206793Y-74819996D01*
X73016317Y-74867615D01*
X72921079Y-74915234D01*
X72873460Y-74962853D01*
X72825841Y-75058091D01*
X87310677Y-74091681D02*
X87644011Y-73615490D01*
X87882106Y-74091681D02*
X87882106Y-73091681D01*
X87501153Y-73091681D01*
X87405915Y-73139300D01*
X87358296Y-73186919D01*
X87310677Y-73282157D01*
X87310677Y-73425014D01*
X87358296Y-73520252D01*
X87405915Y-73567871D01*
X87501153Y-73615490D01*
X87882106Y-73615490D01*
X86358296Y-74091681D02*
X86929725Y-74091681D01*
X86644011Y-74091681D02*
X86644011Y-73091681D01*
X86739249Y-73234538D01*
X86834487Y-73329776D01*
X86929725Y-73377395D01*
X85405915Y-74091681D02*
X85977344Y-74091681D01*
X85691630Y-74091681D02*
X85691630Y-73091681D01*
X85786868Y-73234538D01*
X85882106Y-73329776D01*
X85977344Y-73377395D01*
M02*
