G04 #@! TF.FileFunction,Copper,L1,Top,Signal*
%FSLAX46Y46*%
G04 Gerber Fmt 4.6, Leading zero omitted, Abs format (unit mm)*
G04 Created by KiCad (PCBNEW 4.0.2-stable) date 7/3/2016 12:03:50 AM*
%MOMM*%
G01*
G04 APERTURE LIST*
%ADD10C,0.100000*%
%ADD11R,1.727200X1.727200*%
%ADD12O,1.727200X1.727200*%
%ADD13R,0.750000X1.200000*%
%ADD14R,1.250000X1.500000*%
%ADD15R,1.200000X0.750000*%
%ADD16R,1.500000X1.250000*%
%ADD17R,0.900000X1.200000*%
%ADD18R,1.200000X0.900000*%
%ADD19R,1.060000X0.650000*%
%ADD20R,1.300000X0.250000*%
%ADD21R,0.250000X1.300000*%
%ADD22R,0.450000X1.450000*%
%ADD23R,0.800100X0.800100*%
%ADD24R,0.850000X0.650000*%
%ADD25R,2.032000X2.032000*%
%ADD26O,2.032000X2.032000*%
%ADD27R,1.727200X2.032000*%
%ADD28O,1.727200X2.032000*%
%ADD29R,0.340000X2.000000*%
%ADD30R,0.797560X0.797560*%
%ADD31R,1.400000X2.000000*%
%ADD32C,5.400000*%
%ADD33R,1.380000X0.450000*%
%ADD34R,2.100000X1.475000*%
%ADD35R,1.900000X2.375000*%
%ADD36R,1.000000X0.600000*%
%ADD37R,1.300000X0.900000*%
%ADD38C,0.600000*%
%ADD39C,0.250000*%
%ADD40C,0.300000*%
%ADD41C,0.254000*%
G04 APERTURE END LIST*
D10*
D11*
X103705000Y-78000000D03*
D12*
X106245000Y-78000000D03*
X103705000Y-75460000D03*
X106245000Y-75460000D03*
X103705000Y-72920000D03*
X106245000Y-72920000D03*
X103705000Y-70380000D03*
X106245000Y-70380000D03*
X103705000Y-67840000D03*
X106245000Y-67840000D03*
D13*
X81504000Y-62410000D03*
X81504000Y-60510000D03*
D14*
X58771000Y-83919000D03*
X58771000Y-81419000D03*
D15*
X88174000Y-60444000D03*
X90074000Y-60444000D03*
D16*
X63831000Y-88384000D03*
X61331000Y-88384000D03*
D14*
X66518000Y-84935000D03*
X66518000Y-82435000D03*
D15*
X76231000Y-83685000D03*
X74331000Y-83685000D03*
D13*
X86012500Y-75496000D03*
X86012500Y-77396000D03*
X96007400Y-72900200D03*
X96007400Y-71000200D03*
D16*
X63831000Y-78478000D03*
X61331000Y-78478000D03*
D13*
X94077000Y-79775900D03*
X94077000Y-81675900D03*
X96147100Y-79775900D03*
X96147100Y-81675900D03*
D17*
X68931000Y-76403000D03*
X68931000Y-74203000D03*
X73236300Y-80721000D03*
X73236300Y-78521000D03*
D18*
X96329800Y-77169900D03*
X98529800Y-77169900D03*
D17*
X72614000Y-60487000D03*
X72614000Y-62687000D03*
X78138500Y-60372700D03*
X78138500Y-62572700D03*
D19*
X83663000Y-60449000D03*
X83663000Y-61399000D03*
X83663000Y-62349000D03*
X85863000Y-62349000D03*
X85863000Y-60449000D03*
D20*
X71591400Y-68590600D03*
X71591400Y-69090600D03*
X71591400Y-69590600D03*
X71591400Y-70090600D03*
X71591400Y-70590600D03*
X71591400Y-71090600D03*
X71591400Y-71590600D03*
X71591400Y-72090600D03*
X71591400Y-72590600D03*
X71591400Y-73090600D03*
X71591400Y-73590600D03*
X71591400Y-74090600D03*
D21*
X73191400Y-75690600D03*
X73691400Y-75690600D03*
X74191400Y-75690600D03*
X74691400Y-75690600D03*
X75191400Y-75690600D03*
X75691400Y-75690600D03*
X76191400Y-75690600D03*
X76691400Y-75690600D03*
X77191400Y-75690600D03*
X77691400Y-75690600D03*
X78191400Y-75690600D03*
X78691400Y-75690600D03*
D20*
X80291400Y-74090600D03*
X80291400Y-73590600D03*
X80291400Y-73090600D03*
X80291400Y-72590600D03*
X80291400Y-72090600D03*
X80291400Y-71590600D03*
X80291400Y-71090600D03*
X80291400Y-70590600D03*
X80291400Y-70090600D03*
X80291400Y-69590600D03*
X80291400Y-69090600D03*
X80291400Y-68590600D03*
D21*
X78691400Y-66990600D03*
X78191400Y-66990600D03*
X77691400Y-66990600D03*
X77191400Y-66990600D03*
X76691400Y-66990600D03*
X76191400Y-66990600D03*
X75691400Y-66990600D03*
X75191400Y-66990600D03*
X74691400Y-66990600D03*
X74191400Y-66990600D03*
X73691400Y-66990600D03*
X73191400Y-66990600D03*
D22*
X93865100Y-69127200D03*
X93215100Y-69127200D03*
X92565100Y-69127200D03*
X91915100Y-69127200D03*
X91265100Y-69127200D03*
X90615100Y-69127200D03*
X89965100Y-69127200D03*
X89315100Y-69127200D03*
X88665100Y-69127200D03*
X88015100Y-69127200D03*
X88015100Y-75027200D03*
X88665100Y-75027200D03*
X89315100Y-75027200D03*
X89965100Y-75027200D03*
X90615100Y-75027200D03*
X91265100Y-75027200D03*
X91915100Y-75027200D03*
X92565100Y-75027200D03*
X93215100Y-75027200D03*
X93865100Y-75027200D03*
D23*
X91267760Y-81714000D03*
X91267760Y-79814000D03*
X89268780Y-80764000D03*
D24*
X74874600Y-62665900D03*
X75950900Y-62665900D03*
X74887300Y-63949200D03*
X75950900Y-63949200D03*
D25*
X63520800Y-65409700D03*
D26*
X66060800Y-65409700D03*
D27*
X76043000Y-86987000D03*
D28*
X78583000Y-86987000D03*
X81123000Y-86987000D03*
D29*
X63683000Y-84931000D03*
X63683000Y-81931000D03*
X63033000Y-84931000D03*
X63033000Y-81931000D03*
X62383000Y-84931000D03*
X62383000Y-81931000D03*
X61733000Y-84931000D03*
X61733000Y-81931000D03*
D30*
X55723000Y-68559300D03*
X55723000Y-67060700D03*
D18*
X55553000Y-64508000D03*
X53353000Y-64508000D03*
D31*
X81589900Y-80484600D03*
X77277900Y-80484600D03*
D32*
X51000000Y-89000000D03*
X51000000Y-58520000D03*
X108150000Y-58520000D03*
X108150000Y-89000000D03*
D18*
X80699000Y-83685000D03*
X78499000Y-83685000D03*
D33*
X51608900Y-75115400D03*
X51608900Y-74465400D03*
X51608900Y-73815400D03*
X51608900Y-73165400D03*
X51608900Y-72515400D03*
D34*
X51253300Y-76287300D03*
X51253300Y-71334300D03*
D35*
X48945900Y-70877100D03*
X48945900Y-76731800D03*
D36*
X55750300Y-72917000D03*
X57755000Y-74668000D03*
X57755000Y-72724900D03*
D37*
X55750300Y-74580600D03*
D38*
X90394000Y-82288000D03*
X70201000Y-73590600D03*
X82520000Y-62476000D03*
X60295000Y-83558000D03*
X54580000Y-72255000D03*
X62404000Y-80002000D03*
X55219900Y-75811000D03*
X53310000Y-75876500D03*
X88362000Y-70985000D03*
X86838000Y-77208000D03*
X92934000Y-82542000D03*
X87854000Y-80637000D03*
X84933000Y-77716000D03*
X89886000Y-61460000D03*
X80488000Y-59936000D03*
X94712000Y-68755300D03*
X98903000Y-75938000D03*
X73503000Y-84574000D03*
X96236000Y-69842000D03*
X79472000Y-60952000D03*
X74265000Y-60698000D03*
X69947000Y-71239000D03*
X82012000Y-78605000D03*
X60930000Y-81399000D03*
X59406000Y-78986000D03*
X59061000Y-80129000D03*
X53056000Y-65505000D03*
X88108000Y-61587000D03*
X91791000Y-66286000D03*
X76297000Y-72382000D03*
X95220000Y-73012600D03*
X81885000Y-82796000D03*
X92426000Y-77589000D03*
X84298000Y-75557000D03*
X65375000Y-77984000D03*
X74519000Y-78859000D03*
X74646000Y-77843000D03*
X84714385Y-67261512D03*
X89315100Y-67175000D03*
X86711000Y-67419010D03*
X89965100Y-67810000D03*
X90648000Y-67175000D03*
X86203000Y-68572000D03*
X90267000Y-78478000D03*
X89505000Y-77843000D03*
X88870000Y-77208000D03*
X87981000Y-76686300D03*
X92426000Y-73525000D03*
X87727000Y-66159000D03*
X75027000Y-68191000D03*
X92934000Y-67683000D03*
X76424000Y-70604000D03*
X73376000Y-68191000D03*
X92426000Y-70731000D03*
X77313000Y-70223000D03*
X91283000Y-70477000D03*
X58771000Y-72763000D03*
X53288600Y-73165400D03*
X58898000Y-74414000D03*
X53183000Y-74160000D03*
D39*
X108301000Y-70864000D02*
X106245000Y-72920000D01*
X108301000Y-66032000D02*
X108301000Y-70864000D01*
X78191400Y-66990600D02*
X78191400Y-65026600D01*
X78191400Y-65026600D02*
X78456000Y-64762000D01*
X78456000Y-64762000D02*
X85695000Y-64762000D01*
X87092000Y-66794000D02*
X87172999Y-66874999D01*
X85695000Y-64762000D02*
X87092000Y-66159000D01*
X87092000Y-66159000D02*
X87092000Y-66794000D01*
X87172999Y-66874999D02*
X88584101Y-66874999D01*
X88584101Y-66874999D02*
X88665100Y-66794000D01*
X88665100Y-69127200D02*
X88665100Y-66794000D01*
X88665100Y-66794000D02*
X88665100Y-64712900D01*
X105253000Y-62984000D02*
X108301000Y-66032000D01*
X101189000Y-62984000D02*
X101316000Y-62984000D01*
X93569000Y-62984000D02*
X101189000Y-62984000D01*
X101189000Y-62984000D02*
X105253000Y-62984000D01*
X92426000Y-64127000D02*
X93569000Y-62984000D01*
X89251000Y-64127000D02*
X92426000Y-64127000D01*
X88665100Y-64712900D02*
X89251000Y-64127000D01*
D40*
X83663000Y-60449000D02*
X84493000Y-60449000D01*
X84493000Y-60449000D02*
X84806000Y-60762000D01*
X84806000Y-60762000D02*
X84806000Y-62036000D01*
X84806000Y-62036000D02*
X84493000Y-62349000D01*
X84493000Y-62349000D02*
X83663000Y-62349000D01*
X55964300Y-72763000D02*
X55088000Y-72763000D01*
X55088000Y-72763000D02*
X54580000Y-72255000D01*
X90394000Y-82288000D02*
X90693760Y-82288000D01*
X90693760Y-82288000D02*
X91267760Y-81714000D01*
X71591400Y-73590600D02*
X70201000Y-73590600D01*
X70201000Y-73590600D02*
X69543400Y-73590600D01*
X82520000Y-62476000D02*
X81570000Y-62476000D01*
X81570000Y-62476000D02*
X81504000Y-62410000D01*
X83663000Y-62349000D02*
X81565000Y-62349000D01*
X81565000Y-62349000D02*
X81504000Y-62410000D01*
X69543400Y-73590600D02*
X68931000Y-74203000D01*
X62383000Y-84931000D02*
X62383000Y-83707767D01*
X62383000Y-83707767D02*
X62233233Y-83558000D01*
X62233233Y-83558000D02*
X60295000Y-83558000D01*
X59934000Y-83919000D02*
X60295000Y-83558000D01*
X58771000Y-83919000D02*
X59934000Y-83919000D01*
X54319601Y-72515399D02*
X54580000Y-72255000D01*
X52598901Y-72515399D02*
X54319601Y-72515399D01*
X63033000Y-81931000D02*
X63033000Y-80631000D01*
X63033000Y-80631000D02*
X62404000Y-80002000D01*
X55723000Y-68559300D02*
X55723000Y-72521700D01*
X55723000Y-72521700D02*
X55964300Y-72763000D01*
X51608900Y-72515400D02*
X52598901Y-72515399D01*
D39*
X55750300Y-74580600D02*
X55750300Y-75280600D01*
X55750300Y-75280600D02*
X55219900Y-75811000D01*
X51608900Y-75115400D02*
X52548900Y-75115400D01*
X52548900Y-75115400D02*
X53310000Y-75876500D01*
X88015100Y-70638100D02*
X88362000Y-70985000D01*
X88015100Y-69127200D02*
X88015100Y-70638100D01*
X86838000Y-77208000D02*
X86200500Y-77208000D01*
X86200500Y-77208000D02*
X86012500Y-77396000D01*
X86078500Y-77462000D02*
X86012500Y-77396000D01*
X92934000Y-82193900D02*
X92934000Y-82542000D01*
X94077000Y-81675900D02*
X93452000Y-81675900D01*
X93452000Y-81675900D02*
X92934000Y-82193900D01*
X94077000Y-81675900D02*
X96147100Y-81675900D01*
X87981000Y-80764000D02*
X87854000Y-80637000D01*
X89268780Y-80764000D02*
X87981000Y-80764000D01*
X85253000Y-77396000D02*
X84933000Y-77716000D01*
X86012500Y-77396000D02*
X85253000Y-77396000D01*
X82393000Y-60909000D02*
X82393000Y-60774000D01*
X82393000Y-60774000D02*
X82129000Y-60510000D01*
X82129000Y-60510000D02*
X81504000Y-60510000D01*
X83663000Y-61399000D02*
X82883000Y-61399000D01*
X82883000Y-61399000D02*
X82393000Y-60909000D01*
X89886000Y-61257000D02*
X89886000Y-61460000D01*
X90074000Y-60444000D02*
X90074000Y-61069000D01*
X90074000Y-61069000D02*
X89886000Y-61257000D01*
X80488000Y-60119000D02*
X80488000Y-59936000D01*
X81504000Y-60510000D02*
X80879000Y-60510000D01*
X80879000Y-60510000D02*
X80488000Y-60119000D01*
X93865100Y-69127200D02*
X94340100Y-69127200D01*
X94340100Y-69127200D02*
X94712000Y-68755300D01*
X98903000Y-76096700D02*
X98903000Y-75938000D01*
X98529800Y-77169900D02*
X98529800Y-76469900D01*
X98529800Y-76469900D02*
X98903000Y-76096700D01*
X74067000Y-84574000D02*
X73503000Y-84574000D01*
X74331000Y-83685000D02*
X74331000Y-84310000D01*
X74331000Y-84310000D02*
X74067000Y-84574000D01*
X96007400Y-70070600D02*
X96236000Y-69842000D01*
X96007400Y-71000200D02*
X96007400Y-70070600D01*
X78892700Y-60372700D02*
X79472000Y-60952000D01*
X78138500Y-60372700D02*
X78892700Y-60372700D01*
X74054000Y-60487000D02*
X74265000Y-60698000D01*
X72614000Y-60487000D02*
X74054000Y-60487000D01*
X70298600Y-71590600D02*
X69947000Y-71239000D01*
X71591400Y-71590600D02*
X70298600Y-71590600D01*
X81589900Y-79027100D02*
X82012000Y-78605000D01*
X81589900Y-80484600D02*
X81589900Y-79027100D01*
X60930000Y-81548000D02*
X60930000Y-81399000D01*
X61733000Y-81931000D02*
X61313000Y-81931000D01*
X61313000Y-81931000D02*
X60930000Y-81548000D01*
X59914000Y-78478000D02*
X59406000Y-78986000D01*
X61331000Y-78478000D02*
X59914000Y-78478000D01*
X58771000Y-81419000D02*
X58771000Y-80419000D01*
X58771000Y-80419000D02*
X59061000Y-80129000D01*
X53353000Y-64508000D02*
X53353000Y-65208000D01*
X53353000Y-65208000D02*
X53056000Y-65505000D01*
D40*
X91410000Y-67957300D02*
X91410000Y-66667000D01*
X91410000Y-66667000D02*
X91791000Y-66286000D01*
X91265100Y-69127200D02*
X91265100Y-68102200D01*
X91265100Y-68102200D02*
X91410000Y-67957300D01*
X88108000Y-61587000D02*
X88108000Y-60510000D01*
X88108000Y-60510000D02*
X88174000Y-60444000D01*
X88174000Y-60444000D02*
X85868000Y-60444000D01*
X85868000Y-60444000D02*
X85863000Y-60449000D01*
X96007400Y-72900200D02*
X95332400Y-72900200D01*
X95332400Y-72900200D02*
X95220000Y-73012600D01*
X81738000Y-82796000D02*
X81885000Y-82796000D01*
X80699000Y-83685000D02*
X80849000Y-83685000D01*
X80849000Y-83685000D02*
X81738000Y-82796000D01*
X91915100Y-77078100D02*
X92426000Y-77589000D01*
X91915100Y-75027200D02*
X91915100Y-77078100D01*
X94860800Y-75027200D02*
X96007400Y-73880600D01*
X96007400Y-73880600D02*
X96007400Y-72900200D01*
X93865100Y-75027200D02*
X94860800Y-75027200D01*
D39*
X63033000Y-84931000D02*
X63033000Y-87586000D01*
X63033000Y-87586000D02*
X63831000Y-88384000D01*
X61733000Y-84931000D02*
X61733000Y-87982000D01*
X61733000Y-87982000D02*
X61331000Y-88384000D01*
X66518000Y-84935000D02*
X63687000Y-84935000D01*
X63687000Y-84935000D02*
X63683000Y-84931000D01*
X62383000Y-81931000D02*
X62383000Y-83036002D01*
X62383000Y-83036002D02*
X62602999Y-83256001D01*
X62602999Y-83256001D02*
X64787999Y-83256001D01*
X64787999Y-83256001D02*
X65609000Y-82435000D01*
X65609000Y-82435000D02*
X66518000Y-82435000D01*
X73236300Y-80721000D02*
X77041500Y-80721000D01*
X77041500Y-80721000D02*
X77277900Y-80484600D01*
X78499000Y-83685000D02*
X76231000Y-83685000D01*
X77277900Y-80484600D02*
X77277900Y-82613900D01*
X77277900Y-82613900D02*
X78349000Y-83685000D01*
X78349000Y-83685000D02*
X78499000Y-83685000D01*
D40*
X86012500Y-75496000D02*
X84359000Y-75496000D01*
X84359000Y-75496000D02*
X84298000Y-75557000D01*
X63831000Y-78478000D02*
X64881000Y-78478000D01*
X64881000Y-78478000D02*
X65375000Y-77984000D01*
X88015100Y-75027200D02*
X86481300Y-75027200D01*
X86481300Y-75027200D02*
X86012500Y-75496000D01*
X63683000Y-81931000D02*
X63683000Y-78626000D01*
X63683000Y-78626000D02*
X63831000Y-78478000D01*
D39*
X96147100Y-79775900D02*
X94077000Y-79775900D01*
X94077000Y-79775900D02*
X91305860Y-79775900D01*
X91305860Y-79775900D02*
X91267760Y-79814000D01*
X91265100Y-75027200D02*
X91265100Y-79811340D01*
X91265100Y-79811340D02*
X91267760Y-79814000D01*
X63520800Y-66675700D02*
X63520800Y-66540000D01*
X63520800Y-66540000D02*
X63520800Y-65409700D01*
X66899000Y-67175000D02*
X64020100Y-67175000D01*
X64020100Y-67175000D02*
X63520800Y-66675700D01*
X68814600Y-69090600D02*
X66899000Y-67175000D01*
X71591400Y-69090600D02*
X68814600Y-69090600D01*
X69203600Y-68590600D02*
X69203600Y-68552500D01*
X69203600Y-68552500D02*
X66060800Y-65409700D01*
X71591400Y-68590600D02*
X69203600Y-68590600D01*
X73191400Y-75690600D02*
X73191400Y-78476100D01*
X73191400Y-78476100D02*
X73236300Y-78521000D01*
X74181000Y-78521000D02*
X74519000Y-78859000D01*
X73236300Y-78521000D02*
X74181000Y-78521000D01*
X74392000Y-77212200D02*
X74392000Y-77589000D01*
X74392000Y-77589000D02*
X74646000Y-77843000D01*
X73691400Y-75690600D02*
X73691400Y-76511600D01*
X73691400Y-76511600D02*
X74392000Y-77212200D01*
X107666000Y-68959000D02*
X106245000Y-70380000D01*
X107666000Y-66159000D02*
X107666000Y-68959000D01*
X84714385Y-67261512D02*
X84714385Y-65813385D01*
X84714385Y-65813385D02*
X84298000Y-65397000D01*
X84298000Y-65397000D02*
X78837000Y-65397000D01*
X78837000Y-65397000D02*
X78691400Y-65542600D01*
X78691400Y-65542600D02*
X78691400Y-66990600D01*
X84592488Y-67261512D02*
X84714385Y-67261512D01*
X89315100Y-67175000D02*
X89315100Y-65020910D01*
X89315100Y-69127200D02*
X89315100Y-67175000D01*
X89315100Y-65020910D02*
X89759000Y-64577010D01*
X89759000Y-64577010D02*
X92612401Y-64577009D01*
X92612401Y-64577009D02*
X93697410Y-63492000D01*
X93697410Y-63492000D02*
X104999000Y-63492000D01*
X104999000Y-63492000D02*
X107666000Y-66159000D01*
X103705000Y-65881000D02*
X103705000Y-67840000D01*
X86711000Y-67419010D02*
X86286736Y-67419010D01*
X86286736Y-67419010D02*
X85115146Y-68590600D01*
X85115146Y-68590600D02*
X84660400Y-68590600D01*
X80291400Y-68590600D02*
X84660400Y-68590600D01*
X86593990Y-67302000D02*
X86711000Y-67419010D01*
X89965100Y-67810000D02*
X89965100Y-65317900D01*
X89965100Y-69127200D02*
X89965100Y-67810000D01*
X89965100Y-65317900D02*
X90140000Y-65143000D01*
X90140000Y-65143000D02*
X92807000Y-65143000D01*
X92807000Y-65143000D02*
X93950000Y-64000000D01*
X93950000Y-64000000D02*
X101824000Y-64000000D01*
X101824000Y-64000000D02*
X103705000Y-65881000D01*
X103705000Y-70380000D02*
X102078000Y-68753000D01*
X90832990Y-65593010D02*
X90648000Y-65778000D01*
X90648000Y-65778000D02*
X90648000Y-67175000D01*
X102078000Y-68753000D02*
X102078000Y-67175000D01*
X102078000Y-67175000D02*
X99411000Y-64508000D01*
X99411000Y-64508000D02*
X94204000Y-64508000D01*
X94204000Y-64508000D02*
X93118990Y-65593010D01*
X93118990Y-65593010D02*
X90832990Y-65593010D01*
X90615100Y-69127200D02*
X90615100Y-67207900D01*
X90615100Y-67207900D02*
X90648000Y-67175000D01*
X85770156Y-68572000D02*
X86203000Y-68572000D01*
X80291400Y-69090600D02*
X85251556Y-69090600D01*
X85251556Y-69090600D02*
X85770156Y-68572000D01*
X80291400Y-69590600D02*
X82907830Y-69590600D01*
X82907830Y-69590600D02*
X85492201Y-72174971D01*
X85492201Y-72174971D02*
X88792792Y-72174972D01*
X88792792Y-72174972D02*
X90615100Y-73997280D01*
X90615100Y-73997280D02*
X90615100Y-75027200D01*
X90615100Y-74052200D02*
X90615100Y-75027200D01*
X90615100Y-78256900D02*
X90394000Y-78478000D01*
X90394000Y-78478000D02*
X90267000Y-78478000D01*
X90615100Y-75027200D02*
X90615100Y-78256900D01*
X80291400Y-70090600D02*
X82771420Y-70090600D01*
X82771420Y-70090600D02*
X85305800Y-72624980D01*
X89965100Y-74052200D02*
X89965100Y-75027200D01*
X85305800Y-72624980D02*
X88606391Y-72624981D01*
X88606391Y-72624981D02*
X89965100Y-73983690D01*
X89965100Y-73983690D02*
X89965100Y-74052200D01*
X89965100Y-77382900D02*
X89505000Y-77843000D01*
X89965100Y-75027200D02*
X89965100Y-77382900D01*
X80291400Y-70590600D02*
X82635010Y-70590600D01*
X82635010Y-70590600D02*
X85119400Y-73074990D01*
X89315100Y-73970100D02*
X89315100Y-75027200D01*
X85119400Y-73074990D02*
X88419990Y-73074990D01*
X88419990Y-73074990D02*
X89315100Y-73970100D01*
X88870000Y-76447300D02*
X88870000Y-77208000D01*
X89315100Y-75027200D02*
X89315100Y-76002200D01*
X89315100Y-76002200D02*
X88870000Y-76447300D01*
X80291400Y-71090600D02*
X82498600Y-71090600D01*
X82498600Y-71090600D02*
X84933000Y-73525000D01*
X84933000Y-73525000D02*
X88137900Y-73525000D01*
X88137900Y-73525000D02*
X88665100Y-74052200D01*
X88665100Y-74052200D02*
X88665100Y-75027200D01*
X88665100Y-75027200D02*
X88665100Y-76002200D01*
X88665100Y-76002200D02*
X87981000Y-76686300D01*
X71591400Y-74090600D02*
X71591400Y-74465600D01*
X71591400Y-74465600D02*
X69654000Y-76403000D01*
X69654000Y-76403000D02*
X68931000Y-76403000D01*
X92565100Y-73664100D02*
X92426000Y-73525000D01*
X92565100Y-74052200D02*
X92565100Y-73664100D01*
X86838000Y-64254000D02*
X87727000Y-65143000D01*
X87727000Y-65143000D02*
X87727000Y-66159000D01*
X78202000Y-64254000D02*
X86838000Y-64254000D01*
X77691400Y-64764600D02*
X78202000Y-64254000D01*
X77691400Y-66990600D02*
X77691400Y-64764600D01*
X92565100Y-75027200D02*
X92565100Y-74052200D01*
X92565100Y-74052200D02*
X92553000Y-74040100D01*
X92565100Y-76458100D02*
X93276900Y-77169900D01*
X93276900Y-77169900D02*
X96329800Y-77169900D01*
X92565100Y-75027200D02*
X92565100Y-76458100D01*
X75191400Y-68026600D02*
X75027000Y-68191000D01*
X75191400Y-66990600D02*
X75191400Y-68026600D01*
X93215100Y-67964100D02*
X92934000Y-67683000D01*
X93215100Y-69127200D02*
X93215100Y-67964100D01*
X74874600Y-62665900D02*
X72635100Y-62665900D01*
X72635100Y-62665900D02*
X72614000Y-62687000D01*
X75950900Y-62665900D02*
X78045300Y-62665900D01*
X78045300Y-62665900D02*
X78138500Y-62572700D01*
X74011000Y-68191000D02*
X76424000Y-70604000D01*
X73851002Y-68191000D02*
X74011000Y-68191000D01*
X73851002Y-68191000D02*
X73376000Y-68191000D01*
X74191400Y-66990600D02*
X74191400Y-67850602D01*
X74191400Y-67850602D02*
X73851002Y-68191000D01*
X92565100Y-70591900D02*
X92426000Y-70731000D01*
X92565100Y-69127200D02*
X92565100Y-70591900D01*
X75154000Y-65016000D02*
X74887300Y-64749300D01*
X74887300Y-64749300D02*
X74887300Y-63949200D01*
X76170000Y-65016000D02*
X75154000Y-65016000D01*
X76691400Y-65537400D02*
X76170000Y-65016000D01*
X76691400Y-66990600D02*
X76691400Y-65537400D01*
X75950900Y-63949200D02*
X76050900Y-63949200D01*
X76050900Y-63949200D02*
X77191400Y-65089700D01*
X77191400Y-65089700D02*
X77191400Y-66090600D01*
X77191400Y-66090600D02*
X77191400Y-66990600D01*
X77313000Y-69551998D02*
X77313000Y-70223000D01*
X76753800Y-68953000D02*
X77313000Y-69512200D01*
X77313000Y-69512200D02*
X77313000Y-69551998D01*
X75691400Y-66990600D02*
X75691400Y-67890600D01*
X75691400Y-67890600D02*
X76753800Y-68953000D01*
X91540300Y-70477000D02*
X91283000Y-70477000D01*
X91915100Y-69127200D02*
X91915100Y-70102200D01*
X91915100Y-70102200D02*
X91540300Y-70477000D01*
X58771000Y-72763000D02*
X59443400Y-72090600D01*
X59443400Y-72090600D02*
X71591400Y-72090600D01*
X58771000Y-72763000D02*
X57907400Y-72763000D01*
X51608900Y-73165400D02*
X53288600Y-73165400D01*
X64817900Y-74971100D02*
X59660000Y-74971100D01*
X59660000Y-74971100D02*
X59455100Y-74971100D01*
X57755000Y-74668000D02*
X58505000Y-74668000D01*
X58505000Y-74668000D02*
X58808100Y-74971100D01*
X58808100Y-74971100D02*
X59660000Y-74971100D01*
X57755000Y-74668000D02*
X58644000Y-74668000D01*
X58644000Y-74668000D02*
X58898000Y-74414000D01*
X64817900Y-74971100D02*
X67198400Y-72590600D01*
X67198400Y-72590600D02*
X71591400Y-72590600D01*
X52838400Y-73815400D02*
X53183000Y-74160000D01*
X51608900Y-73815400D02*
X52838400Y-73815400D01*
X55553000Y-64508000D02*
X55553000Y-66890700D01*
X55553000Y-66890700D02*
X55723000Y-67060700D01*
D41*
G36*
X105324373Y-56628407D02*
X104815580Y-57853717D01*
X104814422Y-59180462D01*
X105321076Y-60406658D01*
X106258407Y-61345627D01*
X107483717Y-61854420D01*
X108810462Y-61855578D01*
X110036658Y-61348924D01*
X110893000Y-60494076D01*
X110893000Y-87027268D01*
X110041593Y-86174373D01*
X108816283Y-85665580D01*
X107489538Y-85664422D01*
X106263342Y-86171076D01*
X105324373Y-87108407D01*
X104815580Y-88333717D01*
X104814422Y-89660462D01*
X105321076Y-90886658D01*
X106044154Y-91611000D01*
X53104963Y-91611000D01*
X53825627Y-90891593D01*
X54334420Y-89666283D01*
X54335578Y-88339538D01*
X53828924Y-87113342D01*
X52891593Y-86174373D01*
X51666283Y-85665580D01*
X50339538Y-85664422D01*
X49113342Y-86171076D01*
X48432000Y-86851229D01*
X48432000Y-83169000D01*
X57498560Y-83169000D01*
X57498560Y-84669000D01*
X57542838Y-84904317D01*
X57681910Y-85120441D01*
X57894110Y-85265431D01*
X58146000Y-85316440D01*
X59396000Y-85316440D01*
X59631317Y-85272162D01*
X59847441Y-85133090D01*
X59992431Y-84920890D01*
X60040648Y-84682786D01*
X60234407Y-84644245D01*
X60460545Y-84493145D01*
X60480167Y-84493162D01*
X60823943Y-84351117D01*
X60832074Y-84343000D01*
X60915560Y-84343000D01*
X60915560Y-85931000D01*
X60959838Y-86166317D01*
X60973000Y-86186771D01*
X60973000Y-87111560D01*
X60581000Y-87111560D01*
X60345683Y-87155838D01*
X60129559Y-87294910D01*
X59984569Y-87507110D01*
X59933560Y-87759000D01*
X59933560Y-89009000D01*
X59977838Y-89244317D01*
X60116910Y-89460441D01*
X60329110Y-89605431D01*
X60581000Y-89656440D01*
X62081000Y-89656440D01*
X62316317Y-89612162D01*
X62532441Y-89473090D01*
X62580134Y-89403289D01*
X62616910Y-89460441D01*
X62829110Y-89605431D01*
X63081000Y-89656440D01*
X64581000Y-89656440D01*
X64816317Y-89612162D01*
X65032441Y-89473090D01*
X65177431Y-89260890D01*
X65228440Y-89009000D01*
X65228440Y-87759000D01*
X65184162Y-87523683D01*
X65045090Y-87307559D01*
X64832890Y-87162569D01*
X64581000Y-87111560D01*
X63793000Y-87111560D01*
X63793000Y-86578440D01*
X63853000Y-86578440D01*
X64088317Y-86534162D01*
X64304441Y-86395090D01*
X64449431Y-86182890D01*
X64500440Y-85931000D01*
X64500440Y-85695000D01*
X65247442Y-85695000D01*
X65289838Y-85920317D01*
X65428910Y-86136441D01*
X65641110Y-86281431D01*
X65893000Y-86332440D01*
X67143000Y-86332440D01*
X67378317Y-86288162D01*
X67594441Y-86149090D01*
X67716124Y-85971000D01*
X74531960Y-85971000D01*
X74531960Y-88003000D01*
X74576238Y-88238317D01*
X74715310Y-88454441D01*
X74927510Y-88599431D01*
X75179400Y-88650440D01*
X76906600Y-88650440D01*
X77141917Y-88606162D01*
X77358041Y-88467090D01*
X77503031Y-88254890D01*
X77511400Y-88213561D01*
X77523330Y-88231415D01*
X78009511Y-88556271D01*
X78583000Y-88670345D01*
X79156489Y-88556271D01*
X79642670Y-88231415D01*
X79849461Y-87921931D01*
X80220964Y-88337732D01*
X80748209Y-88591709D01*
X80763974Y-88594358D01*
X80996000Y-88473217D01*
X80996000Y-87114000D01*
X81250000Y-87114000D01*
X81250000Y-88473217D01*
X81482026Y-88594358D01*
X81497791Y-88591709D01*
X82025036Y-88337732D01*
X82414954Y-87901320D01*
X82608184Y-87348913D01*
X82463924Y-87114000D01*
X81250000Y-87114000D01*
X80996000Y-87114000D01*
X80976000Y-87114000D01*
X80976000Y-86860000D01*
X80996000Y-86860000D01*
X80996000Y-85500783D01*
X81250000Y-85500783D01*
X81250000Y-86860000D01*
X82463924Y-86860000D01*
X82608184Y-86625087D01*
X82414954Y-86072680D01*
X82025036Y-85636268D01*
X81497791Y-85382291D01*
X81482026Y-85379642D01*
X81250000Y-85500783D01*
X80996000Y-85500783D01*
X80763974Y-85379642D01*
X80748209Y-85382291D01*
X80220964Y-85636268D01*
X79849461Y-86052069D01*
X79642670Y-85742585D01*
X79156489Y-85417729D01*
X78583000Y-85303655D01*
X78009511Y-85417729D01*
X77523330Y-85742585D01*
X77513757Y-85756913D01*
X77509762Y-85735683D01*
X77370690Y-85519559D01*
X77158490Y-85374569D01*
X76906600Y-85323560D01*
X75179400Y-85323560D01*
X74944083Y-85367838D01*
X74727959Y-85506910D01*
X74582969Y-85719110D01*
X74531960Y-85971000D01*
X67716124Y-85971000D01*
X67739431Y-85936890D01*
X67790440Y-85685000D01*
X67790440Y-84185000D01*
X67750127Y-83970750D01*
X73096000Y-83970750D01*
X73096000Y-84186310D01*
X73192673Y-84419699D01*
X73371302Y-84598327D01*
X73604691Y-84695000D01*
X74045250Y-84695000D01*
X74204000Y-84536250D01*
X74204000Y-83812000D01*
X73254750Y-83812000D01*
X73096000Y-83970750D01*
X67750127Y-83970750D01*
X67746162Y-83949683D01*
X67607090Y-83733559D01*
X67537289Y-83685866D01*
X67594441Y-83649090D01*
X67739431Y-83436890D01*
X67790440Y-83185000D01*
X67790440Y-83183690D01*
X73096000Y-83183690D01*
X73096000Y-83399250D01*
X73254750Y-83558000D01*
X74204000Y-83558000D01*
X74204000Y-82833750D01*
X74045250Y-82675000D01*
X73604691Y-82675000D01*
X73371302Y-82771673D01*
X73192673Y-82950301D01*
X73096000Y-83183690D01*
X67790440Y-83183690D01*
X67790440Y-81685000D01*
X67746162Y-81449683D01*
X67607090Y-81233559D01*
X67394890Y-81088569D01*
X67143000Y-81037560D01*
X65893000Y-81037560D01*
X65657683Y-81081838D01*
X65441559Y-81220910D01*
X65296569Y-81433110D01*
X65245560Y-81685000D01*
X65245560Y-81781362D01*
X65071599Y-81897599D01*
X64500440Y-82468758D01*
X64500440Y-80931000D01*
X64468000Y-80758596D01*
X64468000Y-79750440D01*
X64581000Y-79750440D01*
X64816317Y-79706162D01*
X65032441Y-79567090D01*
X65177431Y-79354890D01*
X65212323Y-79182588D01*
X65436079Y-79033079D01*
X65550005Y-78919153D01*
X65560167Y-78919162D01*
X65903943Y-78777117D01*
X66167192Y-78514327D01*
X66309838Y-78170799D01*
X66310162Y-77798833D01*
X66168117Y-77455057D01*
X65905327Y-77191808D01*
X65561799Y-77049162D01*
X65189833Y-77048838D01*
X64846057Y-77190883D01*
X64789133Y-77247708D01*
X64581000Y-77205560D01*
X63081000Y-77205560D01*
X62845683Y-77249838D01*
X62629559Y-77388910D01*
X62583031Y-77457006D01*
X62440698Y-77314673D01*
X62207309Y-77218000D01*
X61616750Y-77218000D01*
X61458000Y-77376750D01*
X61458000Y-78351000D01*
X61478000Y-78351000D01*
X61478000Y-78605000D01*
X61458000Y-78605000D01*
X61458000Y-79579250D01*
X61535116Y-79656366D01*
X61469162Y-79815201D01*
X61468838Y-80187167D01*
X61531098Y-80337848D01*
X61489250Y-80296000D01*
X61436691Y-80296000D01*
X61203302Y-80392673D01*
X61024673Y-80571301D01*
X60928000Y-80804690D01*
X60928000Y-81645250D01*
X61086750Y-81804000D01*
X61565560Y-81804000D01*
X61565560Y-82058000D01*
X61086750Y-82058000D01*
X60928000Y-82216750D01*
X60928000Y-82773000D01*
X60832506Y-82773000D01*
X60825327Y-82765808D01*
X60481799Y-82623162D01*
X60109833Y-82622838D01*
X59864396Y-82724250D01*
X59860090Y-82717559D01*
X59791994Y-82671031D01*
X59934327Y-82528698D01*
X60031000Y-82295309D01*
X60031000Y-81704750D01*
X59872250Y-81546000D01*
X58898000Y-81546000D01*
X58898000Y-81566000D01*
X58644000Y-81566000D01*
X58644000Y-81546000D01*
X57669750Y-81546000D01*
X57511000Y-81704750D01*
X57511000Y-82295309D01*
X57607673Y-82528698D01*
X57748910Y-82669936D01*
X57694559Y-82704910D01*
X57549569Y-82917110D01*
X57498560Y-83169000D01*
X48432000Y-83169000D01*
X48432000Y-80542691D01*
X57511000Y-80542691D01*
X57511000Y-81133250D01*
X57669750Y-81292000D01*
X58644000Y-81292000D01*
X58644000Y-80192750D01*
X58898000Y-80192750D01*
X58898000Y-81292000D01*
X59872250Y-81292000D01*
X60031000Y-81133250D01*
X60031000Y-80542691D01*
X59934327Y-80309302D01*
X59755699Y-80130673D01*
X59522310Y-80034000D01*
X59056750Y-80034000D01*
X58898000Y-80192750D01*
X58644000Y-80192750D01*
X58485250Y-80034000D01*
X58019690Y-80034000D01*
X57786301Y-80130673D01*
X57607673Y-80309302D01*
X57511000Y-80542691D01*
X48432000Y-80542691D01*
X48432000Y-78763750D01*
X59946000Y-78763750D01*
X59946000Y-79229310D01*
X60042673Y-79462699D01*
X60221302Y-79641327D01*
X60454691Y-79738000D01*
X61045250Y-79738000D01*
X61204000Y-79579250D01*
X61204000Y-78605000D01*
X60104750Y-78605000D01*
X59946000Y-78763750D01*
X48432000Y-78763750D01*
X48432000Y-78566740D01*
X49895900Y-78566740D01*
X50131217Y-78522462D01*
X50347341Y-78383390D01*
X50492331Y-78171190D01*
X50543340Y-77919300D01*
X50543340Y-77726690D01*
X59946000Y-77726690D01*
X59946000Y-78192250D01*
X60104750Y-78351000D01*
X61204000Y-78351000D01*
X61204000Y-77376750D01*
X61045250Y-77218000D01*
X60454691Y-77218000D01*
X60221302Y-77314673D01*
X60042673Y-77493301D01*
X59946000Y-77726690D01*
X50543340Y-77726690D01*
X50543340Y-77672240D01*
X52303300Y-77672240D01*
X52538617Y-77627962D01*
X52754741Y-77488890D01*
X52899731Y-77276690D01*
X52950740Y-77024800D01*
X52950740Y-75549800D01*
X52933900Y-75460303D01*
X52933900Y-75386650D01*
X52916829Y-75369579D01*
X52906462Y-75314483D01*
X52777722Y-75114416D01*
X52836430Y-75028495D01*
X52996201Y-75094838D01*
X53368167Y-75095162D01*
X53711943Y-74953117D01*
X53798861Y-74866350D01*
X54465300Y-74866350D01*
X54465300Y-75156910D01*
X54561973Y-75390299D01*
X54740602Y-75568927D01*
X54973991Y-75665600D01*
X55464550Y-75665600D01*
X55623300Y-75506850D01*
X55623300Y-74707600D01*
X54624050Y-74707600D01*
X54465300Y-74866350D01*
X53798861Y-74866350D01*
X53975192Y-74690327D01*
X54117838Y-74346799D01*
X54118162Y-73974833D01*
X54025602Y-73750821D01*
X54080792Y-73695727D01*
X54223438Y-73352199D01*
X54223483Y-73300399D01*
X54319601Y-73300399D01*
X54482783Y-73267940D01*
X54532919Y-73318076D01*
X54532921Y-73318079D01*
X54634672Y-73386066D01*
X54647138Y-73452317D01*
X54738530Y-73594345D01*
X54561973Y-73770901D01*
X54465300Y-74004290D01*
X54465300Y-74294850D01*
X54624050Y-74453600D01*
X55623300Y-74453600D01*
X55623300Y-74433600D01*
X55877300Y-74433600D01*
X55877300Y-74453600D01*
X55897300Y-74453600D01*
X55897300Y-74707600D01*
X55877300Y-74707600D01*
X55877300Y-75506850D01*
X56036050Y-75665600D01*
X56526609Y-75665600D01*
X56759998Y-75568927D01*
X56861353Y-75467573D01*
X57003110Y-75564431D01*
X57255000Y-75615440D01*
X58255000Y-75615440D01*
X58392129Y-75589637D01*
X58517261Y-75673248D01*
X58808100Y-75731100D01*
X64817900Y-75731100D01*
X65108739Y-75673248D01*
X65355301Y-75508501D01*
X67513202Y-73350600D01*
X67884917Y-73350600D01*
X67884569Y-73351110D01*
X67833560Y-73603000D01*
X67833560Y-74803000D01*
X67877838Y-75038317D01*
X68016910Y-75254441D01*
X68086711Y-75302134D01*
X68029559Y-75338910D01*
X67884569Y-75551110D01*
X67833560Y-75803000D01*
X67833560Y-77003000D01*
X67877838Y-77238317D01*
X68016910Y-77454441D01*
X68229110Y-77599431D01*
X68481000Y-77650440D01*
X69381000Y-77650440D01*
X69616317Y-77606162D01*
X69832441Y-77467090D01*
X69977431Y-77254890D01*
X70017600Y-77056531D01*
X70191401Y-76940401D01*
X72128801Y-75003001D01*
X72222320Y-74863040D01*
X72241400Y-74863040D01*
X72463375Y-74821272D01*
X72418960Y-75040600D01*
X72418960Y-76340600D01*
X72431400Y-76406713D01*
X72431400Y-77394788D01*
X72334859Y-77456910D01*
X72189869Y-77669110D01*
X72138860Y-77921000D01*
X72138860Y-79121000D01*
X72183138Y-79356317D01*
X72322210Y-79572441D01*
X72392011Y-79620134D01*
X72334859Y-79656910D01*
X72189869Y-79869110D01*
X72138860Y-80121000D01*
X72138860Y-81321000D01*
X72183138Y-81556317D01*
X72322210Y-81772441D01*
X72534410Y-81917431D01*
X72786300Y-81968440D01*
X73686300Y-81968440D01*
X73921617Y-81924162D01*
X74137741Y-81785090D01*
X74282731Y-81572890D01*
X74301339Y-81481000D01*
X75930460Y-81481000D01*
X75930460Y-81484600D01*
X75974738Y-81719917D01*
X76113810Y-81936041D01*
X76326010Y-82081031D01*
X76517900Y-82119890D01*
X76517900Y-82613900D01*
X76527579Y-82662560D01*
X75631000Y-82662560D01*
X75395683Y-82706838D01*
X75292354Y-82773329D01*
X75290698Y-82771673D01*
X75057309Y-82675000D01*
X74616750Y-82675000D01*
X74458000Y-82833750D01*
X74458000Y-83558000D01*
X74478000Y-83558000D01*
X74478000Y-83812000D01*
X74458000Y-83812000D01*
X74458000Y-84536250D01*
X74616750Y-84695000D01*
X75057309Y-84695000D01*
X75290698Y-84598327D01*
X75292068Y-84596957D01*
X75379110Y-84656431D01*
X75631000Y-84707440D01*
X76831000Y-84707440D01*
X77066317Y-84663162D01*
X77282441Y-84524090D01*
X77336481Y-84445000D01*
X77343895Y-84445000D01*
X77434910Y-84586441D01*
X77647110Y-84731431D01*
X77899000Y-84782440D01*
X79099000Y-84782440D01*
X79334317Y-84738162D01*
X79550441Y-84599090D01*
X79598134Y-84529289D01*
X79634910Y-84586441D01*
X79847110Y-84731431D01*
X80099000Y-84782440D01*
X81299000Y-84782440D01*
X81534317Y-84738162D01*
X81750441Y-84599090D01*
X81895431Y-84386890D01*
X81946440Y-84135000D01*
X81946440Y-83731054D01*
X82070167Y-83731162D01*
X82413943Y-83589117D01*
X82677192Y-83326327D01*
X82819838Y-82982799D01*
X82820162Y-82610833D01*
X82678117Y-82267057D01*
X82497361Y-82085986D01*
X82649598Y-82022927D01*
X82828227Y-81844299D01*
X82924900Y-81610910D01*
X82924900Y-81049750D01*
X88233730Y-81049750D01*
X88233730Y-81290359D01*
X88330403Y-81523748D01*
X88509031Y-81702377D01*
X88742420Y-81799050D01*
X88983030Y-81799050D01*
X89141780Y-81640300D01*
X89141780Y-80891000D01*
X88392480Y-80891000D01*
X88233730Y-81049750D01*
X82924900Y-81049750D01*
X82924900Y-80770350D01*
X82766150Y-80611600D01*
X81716900Y-80611600D01*
X81716900Y-80631600D01*
X81462900Y-80631600D01*
X81462900Y-80611600D01*
X80413650Y-80611600D01*
X80254900Y-80770350D01*
X80254900Y-81610910D01*
X80351573Y-81844299D01*
X80530202Y-82022927D01*
X80763591Y-82119600D01*
X81239136Y-82119600D01*
X81092808Y-82265673D01*
X81046395Y-82377447D01*
X80836282Y-82587560D01*
X80099000Y-82587560D01*
X79863683Y-82631838D01*
X79647559Y-82770910D01*
X79599866Y-82840711D01*
X79563090Y-82783559D01*
X79350890Y-82638569D01*
X79099000Y-82587560D01*
X78326362Y-82587560D01*
X78037900Y-82299098D01*
X78037900Y-82120750D01*
X78213217Y-82087762D01*
X78429341Y-81948690D01*
X78574331Y-81736490D01*
X78625340Y-81484600D01*
X78625340Y-79484600D01*
X78601574Y-79358290D01*
X80254900Y-79358290D01*
X80254900Y-80198850D01*
X80413650Y-80357600D01*
X81462900Y-80357600D01*
X81462900Y-79008350D01*
X81716900Y-79008350D01*
X81716900Y-80357600D01*
X82766150Y-80357600D01*
X82886109Y-80237641D01*
X88233730Y-80237641D01*
X88233730Y-80478250D01*
X88392480Y-80637000D01*
X89141780Y-80637000D01*
X89141780Y-79887700D01*
X88983030Y-79728950D01*
X88742420Y-79728950D01*
X88509031Y-79825623D01*
X88330403Y-80004252D01*
X88233730Y-80237641D01*
X82886109Y-80237641D01*
X82924900Y-80198850D01*
X82924900Y-79358290D01*
X82828227Y-79124901D01*
X82649598Y-78946273D01*
X82416209Y-78849600D01*
X81875650Y-78849600D01*
X81716900Y-79008350D01*
X81462900Y-79008350D01*
X81304150Y-78849600D01*
X80763591Y-78849600D01*
X80530202Y-78946273D01*
X80351573Y-79124901D01*
X80254900Y-79358290D01*
X78601574Y-79358290D01*
X78581062Y-79249283D01*
X78441990Y-79033159D01*
X78229790Y-78888169D01*
X77977900Y-78837160D01*
X76577900Y-78837160D01*
X76342583Y-78881438D01*
X76126459Y-79020510D01*
X75981469Y-79232710D01*
X75930460Y-79484600D01*
X75930460Y-79961000D01*
X74303634Y-79961000D01*
X74289462Y-79885683D01*
X74193228Y-79736131D01*
X74332201Y-79793838D01*
X74704167Y-79794162D01*
X75047943Y-79652117D01*
X75311192Y-79389327D01*
X75453838Y-79045799D01*
X75454162Y-78673833D01*
X75361591Y-78449794D01*
X75438192Y-78373327D01*
X75580838Y-78029799D01*
X75581141Y-77681750D01*
X85002500Y-77681750D01*
X85002500Y-78122309D01*
X85099173Y-78355698D01*
X85277801Y-78534327D01*
X85511190Y-78631000D01*
X85726750Y-78631000D01*
X85885500Y-78472250D01*
X85885500Y-77523000D01*
X86139500Y-77523000D01*
X86139500Y-78472250D01*
X86298250Y-78631000D01*
X86513810Y-78631000D01*
X86747199Y-78534327D01*
X86925827Y-78355698D01*
X87022500Y-78122309D01*
X87022500Y-77681750D01*
X86863750Y-77523000D01*
X86139500Y-77523000D01*
X85885500Y-77523000D01*
X85161250Y-77523000D01*
X85002500Y-77681750D01*
X75581141Y-77681750D01*
X75581162Y-77657833D01*
X75439117Y-77314057D01*
X75176327Y-77050808D01*
X75114816Y-77025266D01*
X75107411Y-76988040D01*
X75316400Y-76988040D01*
X75445989Y-76963656D01*
X75566400Y-76988040D01*
X75816400Y-76988040D01*
X75945989Y-76963656D01*
X76066400Y-76988040D01*
X76316400Y-76988040D01*
X76445989Y-76963656D01*
X76566400Y-76988040D01*
X76816400Y-76988040D01*
X76945989Y-76963656D01*
X77066400Y-76988040D01*
X77316400Y-76988040D01*
X77445989Y-76963656D01*
X77566400Y-76988040D01*
X77816400Y-76988040D01*
X77945989Y-76963656D01*
X78066400Y-76988040D01*
X78316400Y-76988040D01*
X78445989Y-76963656D01*
X78566400Y-76988040D01*
X78816400Y-76988040D01*
X79051717Y-76943762D01*
X79267841Y-76804690D01*
X79412831Y-76592490D01*
X79463840Y-76340600D01*
X79463840Y-75040600D01*
X79422072Y-74818625D01*
X79641400Y-74863040D01*
X80941400Y-74863040D01*
X81176717Y-74818762D01*
X81392841Y-74679690D01*
X81537831Y-74467490D01*
X81588840Y-74215600D01*
X81588840Y-73965600D01*
X81564456Y-73836011D01*
X81588840Y-73715600D01*
X81588840Y-73465600D01*
X81564456Y-73336011D01*
X81588840Y-73215600D01*
X81588840Y-72965600D01*
X81564456Y-72836011D01*
X81588840Y-72715600D01*
X81588840Y-72465600D01*
X81564456Y-72336011D01*
X81588840Y-72215600D01*
X81588840Y-71965600D01*
X81567201Y-71850600D01*
X82183798Y-71850600D01*
X84395598Y-74062401D01*
X84541667Y-74160000D01*
X84642161Y-74227148D01*
X84933000Y-74285000D01*
X85443838Y-74285000D01*
X85402183Y-74292838D01*
X85186059Y-74431910D01*
X85041069Y-74644110D01*
X85027523Y-74711000D01*
X84698744Y-74711000D01*
X84484799Y-74622162D01*
X84112833Y-74621838D01*
X83769057Y-74763883D01*
X83505808Y-75026673D01*
X83363162Y-75370201D01*
X83362838Y-75742167D01*
X83504883Y-76085943D01*
X83767673Y-76349192D01*
X84111201Y-76491838D01*
X84483167Y-76492162D01*
X84826943Y-76350117D01*
X84896181Y-76281000D01*
X85024870Y-76281000D01*
X85034338Y-76331317D01*
X85100829Y-76434646D01*
X85099173Y-76436302D01*
X85002500Y-76669691D01*
X85002500Y-77110250D01*
X85161250Y-77269000D01*
X85885500Y-77269000D01*
X85885500Y-77249000D01*
X86139500Y-77249000D01*
X86139500Y-77269000D01*
X86863750Y-77269000D01*
X87022500Y-77110250D01*
X87022500Y-76669691D01*
X86925827Y-76436302D01*
X86924457Y-76434932D01*
X86983931Y-76347890D01*
X87034940Y-76096000D01*
X87034940Y-75812200D01*
X87153950Y-75812200D01*
X87186938Y-75987517D01*
X87253671Y-76091223D01*
X87188808Y-76155973D01*
X87046162Y-76499501D01*
X87045838Y-76871467D01*
X87187883Y-77215243D01*
X87450673Y-77478492D01*
X87794201Y-77621138D01*
X88029118Y-77621343D01*
X88076883Y-77736943D01*
X88339673Y-78000192D01*
X88603554Y-78109765D01*
X88711883Y-78371943D01*
X88974673Y-78635192D01*
X89318201Y-78777838D01*
X89379241Y-78777891D01*
X89473883Y-79006943D01*
X89736673Y-79270192D01*
X90080201Y-79412838D01*
X90220470Y-79412960D01*
X90220270Y-79413950D01*
X90220270Y-80035910D01*
X90207157Y-80004252D01*
X90028529Y-79825623D01*
X89795140Y-79728950D01*
X89554530Y-79728950D01*
X89395780Y-79887700D01*
X89395780Y-80637000D01*
X90145080Y-80637000D01*
X90291237Y-80490843D01*
X90403620Y-80665491D01*
X90548717Y-80764632D01*
X90416269Y-80849860D01*
X90289489Y-81035409D01*
X90145080Y-80891000D01*
X89395780Y-80891000D01*
X89395780Y-81640300D01*
X89554530Y-81799050D01*
X89584627Y-81799050D01*
X89459162Y-82101201D01*
X89458838Y-82473167D01*
X89600883Y-82816943D01*
X89863673Y-83080192D01*
X90207201Y-83222838D01*
X90579167Y-83223162D01*
X90922943Y-83081117D01*
X90990129Y-83014048D01*
X90994167Y-83013245D01*
X91248839Y-82843079D01*
X91330428Y-82761490D01*
X91667810Y-82761490D01*
X91903127Y-82717212D01*
X92119251Y-82578140D01*
X92264241Y-82365940D01*
X92315250Y-82114050D01*
X92315250Y-81961650D01*
X93067000Y-81961650D01*
X93067000Y-82402209D01*
X93163673Y-82635598D01*
X93342301Y-82814227D01*
X93575690Y-82910900D01*
X93791250Y-82910900D01*
X93950000Y-82752150D01*
X93950000Y-81802900D01*
X94204000Y-81802900D01*
X94204000Y-82752150D01*
X94362750Y-82910900D01*
X94578310Y-82910900D01*
X94811699Y-82814227D01*
X94990327Y-82635598D01*
X95087000Y-82402209D01*
X95087000Y-81961650D01*
X95137100Y-81961650D01*
X95137100Y-82402209D01*
X95233773Y-82635598D01*
X95412401Y-82814227D01*
X95645790Y-82910900D01*
X95861350Y-82910900D01*
X96020100Y-82752150D01*
X96020100Y-81802900D01*
X96274100Y-81802900D01*
X96274100Y-82752150D01*
X96432850Y-82910900D01*
X96648410Y-82910900D01*
X96881799Y-82814227D01*
X97060427Y-82635598D01*
X97157100Y-82402209D01*
X97157100Y-81961650D01*
X96998350Y-81802900D01*
X96274100Y-81802900D01*
X96020100Y-81802900D01*
X95295850Y-81802900D01*
X95137100Y-81961650D01*
X95087000Y-81961650D01*
X94928250Y-81802900D01*
X94204000Y-81802900D01*
X93950000Y-81802900D01*
X93225750Y-81802900D01*
X93067000Y-81961650D01*
X92315250Y-81961650D01*
X92315250Y-81313950D01*
X92270972Y-81078633D01*
X92131900Y-80862509D01*
X91986803Y-80763368D01*
X92119251Y-80678140D01*
X92216439Y-80535900D01*
X93084666Y-80535900D01*
X93098838Y-80611217D01*
X93165329Y-80714546D01*
X93163673Y-80716202D01*
X93067000Y-80949591D01*
X93067000Y-81390150D01*
X93225750Y-81548900D01*
X93950000Y-81548900D01*
X93950000Y-81528900D01*
X94204000Y-81528900D01*
X94204000Y-81548900D01*
X94928250Y-81548900D01*
X95087000Y-81390150D01*
X95087000Y-80949591D01*
X94990327Y-80716202D01*
X94988957Y-80714832D01*
X95048431Y-80627790D01*
X95067039Y-80535900D01*
X95154766Y-80535900D01*
X95168938Y-80611217D01*
X95235429Y-80714546D01*
X95233773Y-80716202D01*
X95137100Y-80949591D01*
X95137100Y-81390150D01*
X95295850Y-81548900D01*
X96020100Y-81548900D01*
X96020100Y-81528900D01*
X96274100Y-81528900D01*
X96274100Y-81548900D01*
X96998350Y-81548900D01*
X97157100Y-81390150D01*
X97157100Y-80949591D01*
X97060427Y-80716202D01*
X97059057Y-80714832D01*
X97118531Y-80627790D01*
X97169540Y-80375900D01*
X97169540Y-79175900D01*
X97125262Y-78940583D01*
X96986190Y-78724459D01*
X96773990Y-78579469D01*
X96522100Y-78528460D01*
X95772100Y-78528460D01*
X95536783Y-78572738D01*
X95320659Y-78711810D01*
X95175669Y-78924010D01*
X95157061Y-79015900D01*
X95069334Y-79015900D01*
X95055162Y-78940583D01*
X94916090Y-78724459D01*
X94703890Y-78579469D01*
X94452000Y-78528460D01*
X93702000Y-78528460D01*
X93466683Y-78572738D01*
X93250559Y-78711810D01*
X93105569Y-78924010D01*
X93086961Y-79015900D01*
X92166256Y-79015900D01*
X92131900Y-78962509D01*
X92025100Y-78889536D01*
X92025100Y-78434935D01*
X92239201Y-78523838D01*
X92611167Y-78524162D01*
X92954943Y-78382117D01*
X93051478Y-78285750D01*
X102206400Y-78285750D01*
X102206400Y-78989909D01*
X102303073Y-79223298D01*
X102481701Y-79401927D01*
X102715090Y-79498600D01*
X103419250Y-79498600D01*
X103578000Y-79339850D01*
X103578000Y-78127000D01*
X102365150Y-78127000D01*
X102206400Y-78285750D01*
X93051478Y-78285750D01*
X93218192Y-78119327D01*
X93296849Y-77929900D01*
X95174695Y-77929900D01*
X95265710Y-78071341D01*
X95477910Y-78216331D01*
X95729800Y-78267340D01*
X96929800Y-78267340D01*
X97165117Y-78223062D01*
X97381241Y-78083990D01*
X97427769Y-78015894D01*
X97570102Y-78158227D01*
X97803491Y-78254900D01*
X98244050Y-78254900D01*
X98402800Y-78096150D01*
X98402800Y-77296900D01*
X98656800Y-77296900D01*
X98656800Y-78096150D01*
X98815550Y-78254900D01*
X99256109Y-78254900D01*
X99489498Y-78158227D01*
X99668127Y-77979599D01*
X99764800Y-77746210D01*
X99764800Y-77455650D01*
X99606050Y-77296900D01*
X98656800Y-77296900D01*
X98402800Y-77296900D01*
X98382800Y-77296900D01*
X98382800Y-77042900D01*
X98402800Y-77042900D01*
X98402800Y-76243650D01*
X98656800Y-76243650D01*
X98656800Y-77042900D01*
X99606050Y-77042900D01*
X99764800Y-76884150D01*
X99764800Y-76593590D01*
X99668127Y-76360201D01*
X99489498Y-76181573D01*
X99256109Y-76084900D01*
X98815550Y-76084900D01*
X98656800Y-76243650D01*
X98402800Y-76243650D01*
X98244050Y-76084900D01*
X97803491Y-76084900D01*
X97570102Y-76181573D01*
X97428864Y-76322810D01*
X97393890Y-76268459D01*
X97181690Y-76123469D01*
X96929800Y-76072460D01*
X95729800Y-76072460D01*
X95494483Y-76116738D01*
X95278359Y-76255810D01*
X95173074Y-76409900D01*
X93591702Y-76409900D01*
X93566547Y-76384745D01*
X93640100Y-76399640D01*
X94090100Y-76399640D01*
X94325417Y-76355362D01*
X94541541Y-76216290D01*
X94686531Y-76004090D01*
X94725390Y-75812200D01*
X94860800Y-75812200D01*
X95161207Y-75752445D01*
X95415879Y-75582279D01*
X96562479Y-74435679D01*
X96732645Y-74181007D01*
X96767226Y-74007155D01*
X96833841Y-73964290D01*
X96978831Y-73752090D01*
X97029840Y-73500200D01*
X97029840Y-72300200D01*
X96985562Y-72064883D01*
X96919071Y-71961554D01*
X96920727Y-71959898D01*
X97017400Y-71726509D01*
X97017400Y-71285950D01*
X96858650Y-71127200D01*
X96134400Y-71127200D01*
X96134400Y-71147200D01*
X95880400Y-71147200D01*
X95880400Y-71127200D01*
X95156150Y-71127200D01*
X94997400Y-71285950D01*
X94997400Y-71726509D01*
X95094073Y-71959898D01*
X95095443Y-71961268D01*
X95035969Y-72048310D01*
X95029636Y-72079586D01*
X94691057Y-72219483D01*
X94427808Y-72482273D01*
X94285162Y-72825801D01*
X94284838Y-73197767D01*
X94426883Y-73541543D01*
X94689673Y-73804792D01*
X94889906Y-73887936D01*
X94696065Y-74081777D01*
X94693262Y-74066883D01*
X94554190Y-73850759D01*
X94341990Y-73705769D01*
X94090100Y-73654760D01*
X93640100Y-73654760D01*
X93536429Y-73674267D01*
X93440100Y-73654760D01*
X93360888Y-73654760D01*
X93361162Y-73339833D01*
X93219117Y-72996057D01*
X92956327Y-72732808D01*
X92612799Y-72590162D01*
X92240833Y-72589838D01*
X91897057Y-72731883D01*
X91633808Y-72994673D01*
X91491162Y-73338201D01*
X91490886Y-73654919D01*
X91490100Y-73654760D01*
X91282716Y-73654760D01*
X91152501Y-73459879D01*
X89330193Y-71637571D01*
X89083631Y-71472824D01*
X88792792Y-71414972D01*
X85807003Y-71414971D01*
X84242632Y-69850600D01*
X85251556Y-69850600D01*
X85542395Y-69792748D01*
X85788957Y-69628001D01*
X85941245Y-69475713D01*
X86016201Y-69506838D01*
X86388167Y-69507162D01*
X86731943Y-69365117D01*
X86995192Y-69102327D01*
X87137838Y-68758799D01*
X87138162Y-68386833D01*
X87091345Y-68273526D01*
X87169447Y-68241255D01*
X87155100Y-68275891D01*
X87155100Y-68841450D01*
X87313850Y-69000200D01*
X87792660Y-69000200D01*
X87792660Y-69254200D01*
X87313850Y-69254200D01*
X87155100Y-69412950D01*
X87155100Y-69978509D01*
X87251773Y-70211898D01*
X87430401Y-70390527D01*
X87663790Y-70487200D01*
X87743850Y-70487200D01*
X87902600Y-70328450D01*
X87902600Y-70189559D01*
X87976010Y-70303641D01*
X88188210Y-70448631D01*
X88262908Y-70463758D01*
X88286350Y-70487200D01*
X88366410Y-70487200D01*
X88370435Y-70485533D01*
X88440100Y-70499640D01*
X88890100Y-70499640D01*
X88993771Y-70480133D01*
X89090100Y-70499640D01*
X89540100Y-70499640D01*
X89643771Y-70480133D01*
X89740100Y-70499640D01*
X90190100Y-70499640D01*
X90293771Y-70480133D01*
X90347987Y-70491112D01*
X90347838Y-70662167D01*
X90489883Y-71005943D01*
X90752673Y-71269192D01*
X91096201Y-71411838D01*
X91468167Y-71412162D01*
X91692363Y-71319526D01*
X91895673Y-71523192D01*
X92239201Y-71665838D01*
X92611167Y-71666162D01*
X92954943Y-71524117D01*
X93218192Y-71261327D01*
X93360838Y-70917799D01*
X93361162Y-70545833D01*
X93342075Y-70499640D01*
X93440100Y-70499640D01*
X93511423Y-70486220D01*
X93513790Y-70487200D01*
X93593850Y-70487200D01*
X93614162Y-70466888D01*
X93675417Y-70455362D01*
X93891541Y-70316290D01*
X93977600Y-70190338D01*
X93977600Y-70328450D01*
X94136350Y-70487200D01*
X94216410Y-70487200D01*
X94449799Y-70390527D01*
X94566434Y-70273891D01*
X94997400Y-70273891D01*
X94997400Y-70714450D01*
X95156150Y-70873200D01*
X95880400Y-70873200D01*
X95880400Y-69923950D01*
X96134400Y-69923950D01*
X96134400Y-70873200D01*
X96858650Y-70873200D01*
X97017400Y-70714450D01*
X97017400Y-70273891D01*
X96920727Y-70040502D01*
X96742099Y-69861873D01*
X96508710Y-69765200D01*
X96293150Y-69765200D01*
X96134400Y-69923950D01*
X95880400Y-69923950D01*
X95721650Y-69765200D01*
X95506090Y-69765200D01*
X95272701Y-69861873D01*
X95094073Y-70040502D01*
X94997400Y-70273891D01*
X94566434Y-70273891D01*
X94628427Y-70211898D01*
X94725100Y-69978509D01*
X94725100Y-69412950D01*
X94566350Y-69254200D01*
X94087540Y-69254200D01*
X94087540Y-69000200D01*
X94566350Y-69000200D01*
X94725100Y-68841450D01*
X94725100Y-68275891D01*
X94628427Y-68042502D01*
X94449799Y-67863873D01*
X94216410Y-67767200D01*
X94136350Y-67767200D01*
X93992102Y-67911448D01*
X93992102Y-67767200D01*
X93935934Y-67767200D01*
X93917248Y-67673261D01*
X93917248Y-67673260D01*
X93869072Y-67601160D01*
X93869162Y-67497833D01*
X93727117Y-67154057D01*
X93464327Y-66890808D01*
X93120799Y-66748162D01*
X92748833Y-66747838D01*
X92583216Y-66816269D01*
X92725838Y-66472799D01*
X92725942Y-66353010D01*
X93118990Y-66353010D01*
X93409829Y-66295158D01*
X93656391Y-66130411D01*
X94518802Y-65268000D01*
X99096198Y-65268000D01*
X101318000Y-67489802D01*
X101318000Y-68753000D01*
X101375852Y-69043839D01*
X101540599Y-69290401D01*
X102271842Y-70021644D01*
X102206400Y-70350641D01*
X102206400Y-70409359D01*
X102320474Y-70982848D01*
X102645330Y-71469029D01*
X102916172Y-71650000D01*
X102645330Y-71830971D01*
X102320474Y-72317152D01*
X102206400Y-72890641D01*
X102206400Y-72949359D01*
X102320474Y-73522848D01*
X102645330Y-74009029D01*
X102916172Y-74190000D01*
X102645330Y-74370971D01*
X102320474Y-74857152D01*
X102206400Y-75430641D01*
X102206400Y-75489359D01*
X102320474Y-76062848D01*
X102635526Y-76534356D01*
X102481701Y-76598073D01*
X102303073Y-76776702D01*
X102206400Y-77010091D01*
X102206400Y-77714250D01*
X102365150Y-77873000D01*
X103578000Y-77873000D01*
X103578000Y-77853000D01*
X103832000Y-77853000D01*
X103832000Y-77873000D01*
X103852000Y-77873000D01*
X103852000Y-78127000D01*
X103832000Y-78127000D01*
X103832000Y-79339850D01*
X103990750Y-79498600D01*
X104694910Y-79498600D01*
X104928299Y-79401927D01*
X105106927Y-79223298D01*
X105171263Y-79067977D01*
X105185330Y-79089029D01*
X105671511Y-79413885D01*
X106245000Y-79527959D01*
X106818489Y-79413885D01*
X107304670Y-79089029D01*
X107629526Y-78602848D01*
X107743600Y-78029359D01*
X107743600Y-77970641D01*
X107629526Y-77397152D01*
X107304670Y-76910971D01*
X107033828Y-76730000D01*
X107304670Y-76549029D01*
X107629526Y-76062848D01*
X107743600Y-75489359D01*
X107743600Y-75430641D01*
X107629526Y-74857152D01*
X107304670Y-74370971D01*
X107033828Y-74190000D01*
X107304670Y-74009029D01*
X107629526Y-73522848D01*
X107743600Y-72949359D01*
X107743600Y-72890641D01*
X107678158Y-72561644D01*
X108838401Y-71401401D01*
X109003148Y-71154839D01*
X109061000Y-70864000D01*
X109061000Y-66032000D01*
X109003148Y-65741161D01*
X108838401Y-65494599D01*
X105790401Y-62446599D01*
X105543839Y-62281852D01*
X105253000Y-62224000D01*
X93569000Y-62224000D01*
X93278161Y-62281852D01*
X93031599Y-62446599D01*
X92111198Y-63367000D01*
X89251000Y-63367000D01*
X88960161Y-63424852D01*
X88713599Y-63589599D01*
X88127699Y-64175499D01*
X88010180Y-64351378D01*
X87375401Y-63716599D01*
X87128839Y-63551852D01*
X86838000Y-63494000D01*
X82299500Y-63494000D01*
X82330441Y-63474090D01*
X82373635Y-63410873D01*
X82705167Y-63411162D01*
X82991608Y-63292807D01*
X83133000Y-63321440D01*
X84193000Y-63321440D01*
X84428317Y-63277162D01*
X84644441Y-63138090D01*
X84671495Y-63098495D01*
X84793407Y-63074245D01*
X84823170Y-63054358D01*
X84868910Y-63125441D01*
X85081110Y-63270431D01*
X85333000Y-63321440D01*
X86393000Y-63321440D01*
X86628317Y-63277162D01*
X86844441Y-63138090D01*
X86989431Y-62925890D01*
X87040440Y-62674000D01*
X87040440Y-62024000D01*
X86996162Y-61788683D01*
X86857090Y-61572559D01*
X86644890Y-61427569D01*
X86507880Y-61399824D01*
X86628317Y-61377162D01*
X86844441Y-61238090D01*
X86850652Y-61229000D01*
X87083243Y-61229000D01*
X87109910Y-61270441D01*
X87201155Y-61332786D01*
X87173162Y-61400201D01*
X87172838Y-61772167D01*
X87314883Y-62115943D01*
X87577673Y-62379192D01*
X87921201Y-62521838D01*
X88293167Y-62522162D01*
X88636943Y-62380117D01*
X88900192Y-62117327D01*
X89042838Y-61773799D01*
X89043162Y-61401833D01*
X89042689Y-61400688D01*
X89112646Y-61355671D01*
X89114302Y-61357327D01*
X89347691Y-61454000D01*
X89788250Y-61454000D01*
X89947000Y-61295250D01*
X89947000Y-60571000D01*
X90201000Y-60571000D01*
X90201000Y-61295250D01*
X90359750Y-61454000D01*
X90800309Y-61454000D01*
X91033698Y-61357327D01*
X91212327Y-61178699D01*
X91309000Y-60945310D01*
X91309000Y-60729750D01*
X91150250Y-60571000D01*
X90201000Y-60571000D01*
X89947000Y-60571000D01*
X89927000Y-60571000D01*
X89927000Y-60317000D01*
X89947000Y-60317000D01*
X89947000Y-59592750D01*
X90201000Y-59592750D01*
X90201000Y-60317000D01*
X91150250Y-60317000D01*
X91309000Y-60158250D01*
X91309000Y-59942690D01*
X91212327Y-59709301D01*
X91033698Y-59530673D01*
X90800309Y-59434000D01*
X90359750Y-59434000D01*
X90201000Y-59592750D01*
X89947000Y-59592750D01*
X89788250Y-59434000D01*
X89347691Y-59434000D01*
X89114302Y-59530673D01*
X89112932Y-59532043D01*
X89025890Y-59472569D01*
X88774000Y-59421560D01*
X87574000Y-59421560D01*
X87338683Y-59465838D01*
X87122559Y-59604910D01*
X87085601Y-59659000D01*
X86837246Y-59659000D01*
X86644890Y-59527569D01*
X86393000Y-59476560D01*
X85333000Y-59476560D01*
X85097683Y-59520838D01*
X84881559Y-59659910D01*
X84823978Y-59744182D01*
X84793407Y-59723755D01*
X84674860Y-59700174D01*
X84657090Y-59672559D01*
X84444890Y-59527569D01*
X84193000Y-59476560D01*
X83133000Y-59476560D01*
X82897683Y-59520838D01*
X82681559Y-59659910D01*
X82536569Y-59872110D01*
X82514000Y-59983559D01*
X82514000Y-59783691D01*
X82417327Y-59550302D01*
X82238699Y-59371673D01*
X82005310Y-59275000D01*
X81789750Y-59275000D01*
X81631000Y-59433750D01*
X81631000Y-60383000D01*
X81651000Y-60383000D01*
X81651000Y-60637000D01*
X81631000Y-60637000D01*
X81631000Y-60657000D01*
X81377000Y-60657000D01*
X81377000Y-60637000D01*
X80652750Y-60637000D01*
X80494000Y-60795750D01*
X80494000Y-61236309D01*
X80590673Y-61469698D01*
X80592043Y-61471068D01*
X80532569Y-61558110D01*
X80481560Y-61810000D01*
X80481560Y-63010000D01*
X80525838Y-63245317D01*
X80664910Y-63461441D01*
X80712562Y-63494000D01*
X79137505Y-63494000D01*
X79184931Y-63424590D01*
X79235940Y-63172700D01*
X79235940Y-61972700D01*
X79191662Y-61737383D01*
X79052590Y-61521259D01*
X78984494Y-61474731D01*
X79126827Y-61332398D01*
X79223500Y-61099009D01*
X79223500Y-60658450D01*
X79064750Y-60499700D01*
X78265500Y-60499700D01*
X78265500Y-60519700D01*
X78011500Y-60519700D01*
X78011500Y-60499700D01*
X77212250Y-60499700D01*
X77053500Y-60658450D01*
X77053500Y-61099009D01*
X77150173Y-61332398D01*
X77291410Y-61473636D01*
X77237059Y-61508610D01*
X77092069Y-61720810D01*
X77054587Y-61905900D01*
X76850569Y-61905900D01*
X76839990Y-61889459D01*
X76627790Y-61744469D01*
X76375900Y-61693460D01*
X75525900Y-61693460D01*
X75408596Y-61715532D01*
X75299600Y-61693460D01*
X74449600Y-61693460D01*
X74214283Y-61737738D01*
X73998159Y-61876810D01*
X73978283Y-61905900D01*
X73677364Y-61905900D01*
X73667162Y-61851683D01*
X73528090Y-61635559D01*
X73459994Y-61589031D01*
X73602327Y-61446698D01*
X73699000Y-61213309D01*
X73699000Y-60772750D01*
X73540250Y-60614000D01*
X72741000Y-60614000D01*
X72741000Y-60634000D01*
X72487000Y-60634000D01*
X72487000Y-60614000D01*
X71687750Y-60614000D01*
X71529000Y-60772750D01*
X71529000Y-61213309D01*
X71625673Y-61446698D01*
X71766910Y-61587936D01*
X71712559Y-61622910D01*
X71567569Y-61835110D01*
X71516560Y-62087000D01*
X71516560Y-63287000D01*
X71560838Y-63522317D01*
X71699910Y-63738441D01*
X71912110Y-63883431D01*
X72164000Y-63934440D01*
X73064000Y-63934440D01*
X73299317Y-63890162D01*
X73515441Y-63751090D01*
X73660431Y-63538890D01*
X73683312Y-63425900D01*
X73855017Y-63425900D01*
X73814860Y-63624200D01*
X73814860Y-64274200D01*
X73859138Y-64509517D01*
X73998210Y-64725641D01*
X74142158Y-64823997D01*
X74185152Y-65040139D01*
X74349899Y-65286701D01*
X74616599Y-65553401D01*
X74829836Y-65695881D01*
X74816400Y-65693160D01*
X74566400Y-65693160D01*
X74436811Y-65717544D01*
X74316400Y-65693160D01*
X74066400Y-65693160D01*
X73936811Y-65717544D01*
X73816400Y-65693160D01*
X73566400Y-65693160D01*
X73436811Y-65717544D01*
X73316400Y-65693160D01*
X73066400Y-65693160D01*
X72831083Y-65737438D01*
X72614959Y-65876510D01*
X72469969Y-66088710D01*
X72418960Y-66340600D01*
X72418960Y-67640600D01*
X72460728Y-67862575D01*
X72241400Y-67818160D01*
X70941400Y-67818160D01*
X70875287Y-67830600D01*
X69556502Y-67830600D01*
X67643181Y-65917279D01*
X67744145Y-65409700D01*
X67618470Y-64777890D01*
X67260578Y-64242267D01*
X66724955Y-63884375D01*
X66093145Y-63758700D01*
X66028455Y-63758700D01*
X65396645Y-63884375D01*
X65093838Y-64086704D01*
X65000890Y-63942259D01*
X64788690Y-63797269D01*
X64536800Y-63746260D01*
X62504800Y-63746260D01*
X62269483Y-63790538D01*
X62053359Y-63929610D01*
X61908369Y-64141810D01*
X61857360Y-64393700D01*
X61857360Y-66425700D01*
X61901638Y-66661017D01*
X62040710Y-66877141D01*
X62252910Y-67022131D01*
X62504800Y-67073140D01*
X62889880Y-67073140D01*
X62983399Y-67213101D01*
X63482699Y-67712401D01*
X63729261Y-67877148D01*
X64020100Y-67935000D01*
X66584198Y-67935000D01*
X68277199Y-69628002D01*
X68430275Y-69730283D01*
X68523761Y-69792748D01*
X68814600Y-69850600D01*
X70317248Y-69850600D01*
X70293960Y-69965600D01*
X70293960Y-70215600D01*
X70318344Y-70345189D01*
X70293960Y-70465600D01*
X70293960Y-70715600D01*
X70318344Y-70845189D01*
X70293960Y-70965600D01*
X70293960Y-71215600D01*
X70313850Y-71321305D01*
X70310000Y-71330600D01*
X59443400Y-71330600D01*
X59152560Y-71388452D01*
X58905999Y-71553199D01*
X58631320Y-71827878D01*
X58585833Y-71827838D01*
X58536063Y-71848402D01*
X58506890Y-71828469D01*
X58255000Y-71777460D01*
X57255000Y-71777460D01*
X57019683Y-71821738D01*
X56803559Y-71960810D01*
X56679806Y-72141929D01*
X56508000Y-72024539D01*
X56508000Y-69464139D01*
X56573221Y-69422170D01*
X56718211Y-69209970D01*
X56769220Y-68958080D01*
X56769220Y-68160520D01*
X56724942Y-67925203D01*
X56650815Y-67810007D01*
X56718211Y-67711370D01*
X56769220Y-67459480D01*
X56769220Y-66661920D01*
X56724942Y-66426603D01*
X56585870Y-66210479D01*
X56373670Y-66065489D01*
X56313000Y-66053203D01*
X56313000Y-65575334D01*
X56388317Y-65561162D01*
X56604441Y-65422090D01*
X56749431Y-65209890D01*
X56800440Y-64958000D01*
X56800440Y-64058000D01*
X56756162Y-63822683D01*
X56617090Y-63606559D01*
X56404890Y-63461569D01*
X56153000Y-63410560D01*
X54953000Y-63410560D01*
X54717683Y-63454838D01*
X54501559Y-63593910D01*
X54455031Y-63662006D01*
X54312698Y-63519673D01*
X54079309Y-63423000D01*
X53638750Y-63423000D01*
X53480000Y-63581750D01*
X53480000Y-64381000D01*
X53500000Y-64381000D01*
X53500000Y-64635000D01*
X53480000Y-64635000D01*
X53480000Y-65434250D01*
X53638750Y-65593000D01*
X54079309Y-65593000D01*
X54312698Y-65496327D01*
X54453936Y-65355090D01*
X54488910Y-65409441D01*
X54701110Y-65554431D01*
X54793000Y-65573039D01*
X54793000Y-66314590D01*
X54727789Y-66410030D01*
X54676780Y-66661920D01*
X54676780Y-67459480D01*
X54721058Y-67694797D01*
X54795185Y-67809993D01*
X54727789Y-67908630D01*
X54676780Y-68160520D01*
X54676780Y-68958080D01*
X54721058Y-69193397D01*
X54860130Y-69409521D01*
X54938000Y-69462727D01*
X54938000Y-71391251D01*
X54766799Y-71320162D01*
X54394833Y-71319838D01*
X54051057Y-71461883D01*
X53787808Y-71724673D01*
X53785430Y-71730399D01*
X52950740Y-71730399D01*
X52950740Y-70596800D01*
X52906462Y-70361483D01*
X52767390Y-70145359D01*
X52555190Y-70000369D01*
X52303300Y-69949360D01*
X50543340Y-69949360D01*
X50543340Y-69689600D01*
X50499062Y-69454283D01*
X50359990Y-69238159D01*
X50147790Y-69093169D01*
X49895900Y-69042160D01*
X48432000Y-69042160D01*
X48432000Y-64793750D01*
X52118000Y-64793750D01*
X52118000Y-65084310D01*
X52214673Y-65317699D01*
X52393302Y-65496327D01*
X52626691Y-65593000D01*
X53067250Y-65593000D01*
X53226000Y-65434250D01*
X53226000Y-64635000D01*
X52276750Y-64635000D01*
X52118000Y-64793750D01*
X48432000Y-64793750D01*
X48432000Y-63931690D01*
X52118000Y-63931690D01*
X52118000Y-64222250D01*
X52276750Y-64381000D01*
X53226000Y-64381000D01*
X53226000Y-63581750D01*
X53067250Y-63423000D01*
X52626691Y-63423000D01*
X52393302Y-63519673D01*
X52214673Y-63698301D01*
X52118000Y-63931690D01*
X48432000Y-63931690D01*
X48432000Y-60668038D01*
X49108407Y-61345627D01*
X50333717Y-61854420D01*
X51660462Y-61855578D01*
X52886658Y-61348924D01*
X53825627Y-60411593D01*
X54095905Y-59760691D01*
X71529000Y-59760691D01*
X71529000Y-60201250D01*
X71687750Y-60360000D01*
X72487000Y-60360000D01*
X72487000Y-59410750D01*
X72741000Y-59410750D01*
X72741000Y-60360000D01*
X73540250Y-60360000D01*
X73699000Y-60201250D01*
X73699000Y-59760691D01*
X73651656Y-59646391D01*
X77053500Y-59646391D01*
X77053500Y-60086950D01*
X77212250Y-60245700D01*
X78011500Y-60245700D01*
X78011500Y-59296450D01*
X78265500Y-59296450D01*
X78265500Y-60245700D01*
X79064750Y-60245700D01*
X79223500Y-60086950D01*
X79223500Y-59783691D01*
X80494000Y-59783691D01*
X80494000Y-60224250D01*
X80652750Y-60383000D01*
X81377000Y-60383000D01*
X81377000Y-59433750D01*
X81218250Y-59275000D01*
X81002690Y-59275000D01*
X80769301Y-59371673D01*
X80590673Y-59550302D01*
X80494000Y-59783691D01*
X79223500Y-59783691D01*
X79223500Y-59646391D01*
X79126827Y-59413002D01*
X78948199Y-59234373D01*
X78714810Y-59137700D01*
X78424250Y-59137700D01*
X78265500Y-59296450D01*
X78011500Y-59296450D01*
X77852750Y-59137700D01*
X77562190Y-59137700D01*
X77328801Y-59234373D01*
X77150173Y-59413002D01*
X77053500Y-59646391D01*
X73651656Y-59646391D01*
X73602327Y-59527302D01*
X73423699Y-59348673D01*
X73190310Y-59252000D01*
X72899750Y-59252000D01*
X72741000Y-59410750D01*
X72487000Y-59410750D01*
X72328250Y-59252000D01*
X72037690Y-59252000D01*
X71804301Y-59348673D01*
X71625673Y-59527302D01*
X71529000Y-59760691D01*
X54095905Y-59760691D01*
X54334420Y-59186283D01*
X54335578Y-57859538D01*
X53828924Y-56633342D01*
X53143779Y-55947000D01*
X106006971Y-55947000D01*
X105324373Y-56628407D01*
X105324373Y-56628407D01*
G37*
X105324373Y-56628407D02*
X104815580Y-57853717D01*
X104814422Y-59180462D01*
X105321076Y-60406658D01*
X106258407Y-61345627D01*
X107483717Y-61854420D01*
X108810462Y-61855578D01*
X110036658Y-61348924D01*
X110893000Y-60494076D01*
X110893000Y-87027268D01*
X110041593Y-86174373D01*
X108816283Y-85665580D01*
X107489538Y-85664422D01*
X106263342Y-86171076D01*
X105324373Y-87108407D01*
X104815580Y-88333717D01*
X104814422Y-89660462D01*
X105321076Y-90886658D01*
X106044154Y-91611000D01*
X53104963Y-91611000D01*
X53825627Y-90891593D01*
X54334420Y-89666283D01*
X54335578Y-88339538D01*
X53828924Y-87113342D01*
X52891593Y-86174373D01*
X51666283Y-85665580D01*
X50339538Y-85664422D01*
X49113342Y-86171076D01*
X48432000Y-86851229D01*
X48432000Y-83169000D01*
X57498560Y-83169000D01*
X57498560Y-84669000D01*
X57542838Y-84904317D01*
X57681910Y-85120441D01*
X57894110Y-85265431D01*
X58146000Y-85316440D01*
X59396000Y-85316440D01*
X59631317Y-85272162D01*
X59847441Y-85133090D01*
X59992431Y-84920890D01*
X60040648Y-84682786D01*
X60234407Y-84644245D01*
X60460545Y-84493145D01*
X60480167Y-84493162D01*
X60823943Y-84351117D01*
X60832074Y-84343000D01*
X60915560Y-84343000D01*
X60915560Y-85931000D01*
X60959838Y-86166317D01*
X60973000Y-86186771D01*
X60973000Y-87111560D01*
X60581000Y-87111560D01*
X60345683Y-87155838D01*
X60129559Y-87294910D01*
X59984569Y-87507110D01*
X59933560Y-87759000D01*
X59933560Y-89009000D01*
X59977838Y-89244317D01*
X60116910Y-89460441D01*
X60329110Y-89605431D01*
X60581000Y-89656440D01*
X62081000Y-89656440D01*
X62316317Y-89612162D01*
X62532441Y-89473090D01*
X62580134Y-89403289D01*
X62616910Y-89460441D01*
X62829110Y-89605431D01*
X63081000Y-89656440D01*
X64581000Y-89656440D01*
X64816317Y-89612162D01*
X65032441Y-89473090D01*
X65177431Y-89260890D01*
X65228440Y-89009000D01*
X65228440Y-87759000D01*
X65184162Y-87523683D01*
X65045090Y-87307559D01*
X64832890Y-87162569D01*
X64581000Y-87111560D01*
X63793000Y-87111560D01*
X63793000Y-86578440D01*
X63853000Y-86578440D01*
X64088317Y-86534162D01*
X64304441Y-86395090D01*
X64449431Y-86182890D01*
X64500440Y-85931000D01*
X64500440Y-85695000D01*
X65247442Y-85695000D01*
X65289838Y-85920317D01*
X65428910Y-86136441D01*
X65641110Y-86281431D01*
X65893000Y-86332440D01*
X67143000Y-86332440D01*
X67378317Y-86288162D01*
X67594441Y-86149090D01*
X67716124Y-85971000D01*
X74531960Y-85971000D01*
X74531960Y-88003000D01*
X74576238Y-88238317D01*
X74715310Y-88454441D01*
X74927510Y-88599431D01*
X75179400Y-88650440D01*
X76906600Y-88650440D01*
X77141917Y-88606162D01*
X77358041Y-88467090D01*
X77503031Y-88254890D01*
X77511400Y-88213561D01*
X77523330Y-88231415D01*
X78009511Y-88556271D01*
X78583000Y-88670345D01*
X79156489Y-88556271D01*
X79642670Y-88231415D01*
X79849461Y-87921931D01*
X80220964Y-88337732D01*
X80748209Y-88591709D01*
X80763974Y-88594358D01*
X80996000Y-88473217D01*
X80996000Y-87114000D01*
X81250000Y-87114000D01*
X81250000Y-88473217D01*
X81482026Y-88594358D01*
X81497791Y-88591709D01*
X82025036Y-88337732D01*
X82414954Y-87901320D01*
X82608184Y-87348913D01*
X82463924Y-87114000D01*
X81250000Y-87114000D01*
X80996000Y-87114000D01*
X80976000Y-87114000D01*
X80976000Y-86860000D01*
X80996000Y-86860000D01*
X80996000Y-85500783D01*
X81250000Y-85500783D01*
X81250000Y-86860000D01*
X82463924Y-86860000D01*
X82608184Y-86625087D01*
X82414954Y-86072680D01*
X82025036Y-85636268D01*
X81497791Y-85382291D01*
X81482026Y-85379642D01*
X81250000Y-85500783D01*
X80996000Y-85500783D01*
X80763974Y-85379642D01*
X80748209Y-85382291D01*
X80220964Y-85636268D01*
X79849461Y-86052069D01*
X79642670Y-85742585D01*
X79156489Y-85417729D01*
X78583000Y-85303655D01*
X78009511Y-85417729D01*
X77523330Y-85742585D01*
X77513757Y-85756913D01*
X77509762Y-85735683D01*
X77370690Y-85519559D01*
X77158490Y-85374569D01*
X76906600Y-85323560D01*
X75179400Y-85323560D01*
X74944083Y-85367838D01*
X74727959Y-85506910D01*
X74582969Y-85719110D01*
X74531960Y-85971000D01*
X67716124Y-85971000D01*
X67739431Y-85936890D01*
X67790440Y-85685000D01*
X67790440Y-84185000D01*
X67750127Y-83970750D01*
X73096000Y-83970750D01*
X73096000Y-84186310D01*
X73192673Y-84419699D01*
X73371302Y-84598327D01*
X73604691Y-84695000D01*
X74045250Y-84695000D01*
X74204000Y-84536250D01*
X74204000Y-83812000D01*
X73254750Y-83812000D01*
X73096000Y-83970750D01*
X67750127Y-83970750D01*
X67746162Y-83949683D01*
X67607090Y-83733559D01*
X67537289Y-83685866D01*
X67594441Y-83649090D01*
X67739431Y-83436890D01*
X67790440Y-83185000D01*
X67790440Y-83183690D01*
X73096000Y-83183690D01*
X73096000Y-83399250D01*
X73254750Y-83558000D01*
X74204000Y-83558000D01*
X74204000Y-82833750D01*
X74045250Y-82675000D01*
X73604691Y-82675000D01*
X73371302Y-82771673D01*
X73192673Y-82950301D01*
X73096000Y-83183690D01*
X67790440Y-83183690D01*
X67790440Y-81685000D01*
X67746162Y-81449683D01*
X67607090Y-81233559D01*
X67394890Y-81088569D01*
X67143000Y-81037560D01*
X65893000Y-81037560D01*
X65657683Y-81081838D01*
X65441559Y-81220910D01*
X65296569Y-81433110D01*
X65245560Y-81685000D01*
X65245560Y-81781362D01*
X65071599Y-81897599D01*
X64500440Y-82468758D01*
X64500440Y-80931000D01*
X64468000Y-80758596D01*
X64468000Y-79750440D01*
X64581000Y-79750440D01*
X64816317Y-79706162D01*
X65032441Y-79567090D01*
X65177431Y-79354890D01*
X65212323Y-79182588D01*
X65436079Y-79033079D01*
X65550005Y-78919153D01*
X65560167Y-78919162D01*
X65903943Y-78777117D01*
X66167192Y-78514327D01*
X66309838Y-78170799D01*
X66310162Y-77798833D01*
X66168117Y-77455057D01*
X65905327Y-77191808D01*
X65561799Y-77049162D01*
X65189833Y-77048838D01*
X64846057Y-77190883D01*
X64789133Y-77247708D01*
X64581000Y-77205560D01*
X63081000Y-77205560D01*
X62845683Y-77249838D01*
X62629559Y-77388910D01*
X62583031Y-77457006D01*
X62440698Y-77314673D01*
X62207309Y-77218000D01*
X61616750Y-77218000D01*
X61458000Y-77376750D01*
X61458000Y-78351000D01*
X61478000Y-78351000D01*
X61478000Y-78605000D01*
X61458000Y-78605000D01*
X61458000Y-79579250D01*
X61535116Y-79656366D01*
X61469162Y-79815201D01*
X61468838Y-80187167D01*
X61531098Y-80337848D01*
X61489250Y-80296000D01*
X61436691Y-80296000D01*
X61203302Y-80392673D01*
X61024673Y-80571301D01*
X60928000Y-80804690D01*
X60928000Y-81645250D01*
X61086750Y-81804000D01*
X61565560Y-81804000D01*
X61565560Y-82058000D01*
X61086750Y-82058000D01*
X60928000Y-82216750D01*
X60928000Y-82773000D01*
X60832506Y-82773000D01*
X60825327Y-82765808D01*
X60481799Y-82623162D01*
X60109833Y-82622838D01*
X59864396Y-82724250D01*
X59860090Y-82717559D01*
X59791994Y-82671031D01*
X59934327Y-82528698D01*
X60031000Y-82295309D01*
X60031000Y-81704750D01*
X59872250Y-81546000D01*
X58898000Y-81546000D01*
X58898000Y-81566000D01*
X58644000Y-81566000D01*
X58644000Y-81546000D01*
X57669750Y-81546000D01*
X57511000Y-81704750D01*
X57511000Y-82295309D01*
X57607673Y-82528698D01*
X57748910Y-82669936D01*
X57694559Y-82704910D01*
X57549569Y-82917110D01*
X57498560Y-83169000D01*
X48432000Y-83169000D01*
X48432000Y-80542691D01*
X57511000Y-80542691D01*
X57511000Y-81133250D01*
X57669750Y-81292000D01*
X58644000Y-81292000D01*
X58644000Y-80192750D01*
X58898000Y-80192750D01*
X58898000Y-81292000D01*
X59872250Y-81292000D01*
X60031000Y-81133250D01*
X60031000Y-80542691D01*
X59934327Y-80309302D01*
X59755699Y-80130673D01*
X59522310Y-80034000D01*
X59056750Y-80034000D01*
X58898000Y-80192750D01*
X58644000Y-80192750D01*
X58485250Y-80034000D01*
X58019690Y-80034000D01*
X57786301Y-80130673D01*
X57607673Y-80309302D01*
X57511000Y-80542691D01*
X48432000Y-80542691D01*
X48432000Y-78763750D01*
X59946000Y-78763750D01*
X59946000Y-79229310D01*
X60042673Y-79462699D01*
X60221302Y-79641327D01*
X60454691Y-79738000D01*
X61045250Y-79738000D01*
X61204000Y-79579250D01*
X61204000Y-78605000D01*
X60104750Y-78605000D01*
X59946000Y-78763750D01*
X48432000Y-78763750D01*
X48432000Y-78566740D01*
X49895900Y-78566740D01*
X50131217Y-78522462D01*
X50347341Y-78383390D01*
X50492331Y-78171190D01*
X50543340Y-77919300D01*
X50543340Y-77726690D01*
X59946000Y-77726690D01*
X59946000Y-78192250D01*
X60104750Y-78351000D01*
X61204000Y-78351000D01*
X61204000Y-77376750D01*
X61045250Y-77218000D01*
X60454691Y-77218000D01*
X60221302Y-77314673D01*
X60042673Y-77493301D01*
X59946000Y-77726690D01*
X50543340Y-77726690D01*
X50543340Y-77672240D01*
X52303300Y-77672240D01*
X52538617Y-77627962D01*
X52754741Y-77488890D01*
X52899731Y-77276690D01*
X52950740Y-77024800D01*
X52950740Y-75549800D01*
X52933900Y-75460303D01*
X52933900Y-75386650D01*
X52916829Y-75369579D01*
X52906462Y-75314483D01*
X52777722Y-75114416D01*
X52836430Y-75028495D01*
X52996201Y-75094838D01*
X53368167Y-75095162D01*
X53711943Y-74953117D01*
X53798861Y-74866350D01*
X54465300Y-74866350D01*
X54465300Y-75156910D01*
X54561973Y-75390299D01*
X54740602Y-75568927D01*
X54973991Y-75665600D01*
X55464550Y-75665600D01*
X55623300Y-75506850D01*
X55623300Y-74707600D01*
X54624050Y-74707600D01*
X54465300Y-74866350D01*
X53798861Y-74866350D01*
X53975192Y-74690327D01*
X54117838Y-74346799D01*
X54118162Y-73974833D01*
X54025602Y-73750821D01*
X54080792Y-73695727D01*
X54223438Y-73352199D01*
X54223483Y-73300399D01*
X54319601Y-73300399D01*
X54482783Y-73267940D01*
X54532919Y-73318076D01*
X54532921Y-73318079D01*
X54634672Y-73386066D01*
X54647138Y-73452317D01*
X54738530Y-73594345D01*
X54561973Y-73770901D01*
X54465300Y-74004290D01*
X54465300Y-74294850D01*
X54624050Y-74453600D01*
X55623300Y-74453600D01*
X55623300Y-74433600D01*
X55877300Y-74433600D01*
X55877300Y-74453600D01*
X55897300Y-74453600D01*
X55897300Y-74707600D01*
X55877300Y-74707600D01*
X55877300Y-75506850D01*
X56036050Y-75665600D01*
X56526609Y-75665600D01*
X56759998Y-75568927D01*
X56861353Y-75467573D01*
X57003110Y-75564431D01*
X57255000Y-75615440D01*
X58255000Y-75615440D01*
X58392129Y-75589637D01*
X58517261Y-75673248D01*
X58808100Y-75731100D01*
X64817900Y-75731100D01*
X65108739Y-75673248D01*
X65355301Y-75508501D01*
X67513202Y-73350600D01*
X67884917Y-73350600D01*
X67884569Y-73351110D01*
X67833560Y-73603000D01*
X67833560Y-74803000D01*
X67877838Y-75038317D01*
X68016910Y-75254441D01*
X68086711Y-75302134D01*
X68029559Y-75338910D01*
X67884569Y-75551110D01*
X67833560Y-75803000D01*
X67833560Y-77003000D01*
X67877838Y-77238317D01*
X68016910Y-77454441D01*
X68229110Y-77599431D01*
X68481000Y-77650440D01*
X69381000Y-77650440D01*
X69616317Y-77606162D01*
X69832441Y-77467090D01*
X69977431Y-77254890D01*
X70017600Y-77056531D01*
X70191401Y-76940401D01*
X72128801Y-75003001D01*
X72222320Y-74863040D01*
X72241400Y-74863040D01*
X72463375Y-74821272D01*
X72418960Y-75040600D01*
X72418960Y-76340600D01*
X72431400Y-76406713D01*
X72431400Y-77394788D01*
X72334859Y-77456910D01*
X72189869Y-77669110D01*
X72138860Y-77921000D01*
X72138860Y-79121000D01*
X72183138Y-79356317D01*
X72322210Y-79572441D01*
X72392011Y-79620134D01*
X72334859Y-79656910D01*
X72189869Y-79869110D01*
X72138860Y-80121000D01*
X72138860Y-81321000D01*
X72183138Y-81556317D01*
X72322210Y-81772441D01*
X72534410Y-81917431D01*
X72786300Y-81968440D01*
X73686300Y-81968440D01*
X73921617Y-81924162D01*
X74137741Y-81785090D01*
X74282731Y-81572890D01*
X74301339Y-81481000D01*
X75930460Y-81481000D01*
X75930460Y-81484600D01*
X75974738Y-81719917D01*
X76113810Y-81936041D01*
X76326010Y-82081031D01*
X76517900Y-82119890D01*
X76517900Y-82613900D01*
X76527579Y-82662560D01*
X75631000Y-82662560D01*
X75395683Y-82706838D01*
X75292354Y-82773329D01*
X75290698Y-82771673D01*
X75057309Y-82675000D01*
X74616750Y-82675000D01*
X74458000Y-82833750D01*
X74458000Y-83558000D01*
X74478000Y-83558000D01*
X74478000Y-83812000D01*
X74458000Y-83812000D01*
X74458000Y-84536250D01*
X74616750Y-84695000D01*
X75057309Y-84695000D01*
X75290698Y-84598327D01*
X75292068Y-84596957D01*
X75379110Y-84656431D01*
X75631000Y-84707440D01*
X76831000Y-84707440D01*
X77066317Y-84663162D01*
X77282441Y-84524090D01*
X77336481Y-84445000D01*
X77343895Y-84445000D01*
X77434910Y-84586441D01*
X77647110Y-84731431D01*
X77899000Y-84782440D01*
X79099000Y-84782440D01*
X79334317Y-84738162D01*
X79550441Y-84599090D01*
X79598134Y-84529289D01*
X79634910Y-84586441D01*
X79847110Y-84731431D01*
X80099000Y-84782440D01*
X81299000Y-84782440D01*
X81534317Y-84738162D01*
X81750441Y-84599090D01*
X81895431Y-84386890D01*
X81946440Y-84135000D01*
X81946440Y-83731054D01*
X82070167Y-83731162D01*
X82413943Y-83589117D01*
X82677192Y-83326327D01*
X82819838Y-82982799D01*
X82820162Y-82610833D01*
X82678117Y-82267057D01*
X82497361Y-82085986D01*
X82649598Y-82022927D01*
X82828227Y-81844299D01*
X82924900Y-81610910D01*
X82924900Y-81049750D01*
X88233730Y-81049750D01*
X88233730Y-81290359D01*
X88330403Y-81523748D01*
X88509031Y-81702377D01*
X88742420Y-81799050D01*
X88983030Y-81799050D01*
X89141780Y-81640300D01*
X89141780Y-80891000D01*
X88392480Y-80891000D01*
X88233730Y-81049750D01*
X82924900Y-81049750D01*
X82924900Y-80770350D01*
X82766150Y-80611600D01*
X81716900Y-80611600D01*
X81716900Y-80631600D01*
X81462900Y-80631600D01*
X81462900Y-80611600D01*
X80413650Y-80611600D01*
X80254900Y-80770350D01*
X80254900Y-81610910D01*
X80351573Y-81844299D01*
X80530202Y-82022927D01*
X80763591Y-82119600D01*
X81239136Y-82119600D01*
X81092808Y-82265673D01*
X81046395Y-82377447D01*
X80836282Y-82587560D01*
X80099000Y-82587560D01*
X79863683Y-82631838D01*
X79647559Y-82770910D01*
X79599866Y-82840711D01*
X79563090Y-82783559D01*
X79350890Y-82638569D01*
X79099000Y-82587560D01*
X78326362Y-82587560D01*
X78037900Y-82299098D01*
X78037900Y-82120750D01*
X78213217Y-82087762D01*
X78429341Y-81948690D01*
X78574331Y-81736490D01*
X78625340Y-81484600D01*
X78625340Y-79484600D01*
X78601574Y-79358290D01*
X80254900Y-79358290D01*
X80254900Y-80198850D01*
X80413650Y-80357600D01*
X81462900Y-80357600D01*
X81462900Y-79008350D01*
X81716900Y-79008350D01*
X81716900Y-80357600D01*
X82766150Y-80357600D01*
X82886109Y-80237641D01*
X88233730Y-80237641D01*
X88233730Y-80478250D01*
X88392480Y-80637000D01*
X89141780Y-80637000D01*
X89141780Y-79887700D01*
X88983030Y-79728950D01*
X88742420Y-79728950D01*
X88509031Y-79825623D01*
X88330403Y-80004252D01*
X88233730Y-80237641D01*
X82886109Y-80237641D01*
X82924900Y-80198850D01*
X82924900Y-79358290D01*
X82828227Y-79124901D01*
X82649598Y-78946273D01*
X82416209Y-78849600D01*
X81875650Y-78849600D01*
X81716900Y-79008350D01*
X81462900Y-79008350D01*
X81304150Y-78849600D01*
X80763591Y-78849600D01*
X80530202Y-78946273D01*
X80351573Y-79124901D01*
X80254900Y-79358290D01*
X78601574Y-79358290D01*
X78581062Y-79249283D01*
X78441990Y-79033159D01*
X78229790Y-78888169D01*
X77977900Y-78837160D01*
X76577900Y-78837160D01*
X76342583Y-78881438D01*
X76126459Y-79020510D01*
X75981469Y-79232710D01*
X75930460Y-79484600D01*
X75930460Y-79961000D01*
X74303634Y-79961000D01*
X74289462Y-79885683D01*
X74193228Y-79736131D01*
X74332201Y-79793838D01*
X74704167Y-79794162D01*
X75047943Y-79652117D01*
X75311192Y-79389327D01*
X75453838Y-79045799D01*
X75454162Y-78673833D01*
X75361591Y-78449794D01*
X75438192Y-78373327D01*
X75580838Y-78029799D01*
X75581141Y-77681750D01*
X85002500Y-77681750D01*
X85002500Y-78122309D01*
X85099173Y-78355698D01*
X85277801Y-78534327D01*
X85511190Y-78631000D01*
X85726750Y-78631000D01*
X85885500Y-78472250D01*
X85885500Y-77523000D01*
X86139500Y-77523000D01*
X86139500Y-78472250D01*
X86298250Y-78631000D01*
X86513810Y-78631000D01*
X86747199Y-78534327D01*
X86925827Y-78355698D01*
X87022500Y-78122309D01*
X87022500Y-77681750D01*
X86863750Y-77523000D01*
X86139500Y-77523000D01*
X85885500Y-77523000D01*
X85161250Y-77523000D01*
X85002500Y-77681750D01*
X75581141Y-77681750D01*
X75581162Y-77657833D01*
X75439117Y-77314057D01*
X75176327Y-77050808D01*
X75114816Y-77025266D01*
X75107411Y-76988040D01*
X75316400Y-76988040D01*
X75445989Y-76963656D01*
X75566400Y-76988040D01*
X75816400Y-76988040D01*
X75945989Y-76963656D01*
X76066400Y-76988040D01*
X76316400Y-76988040D01*
X76445989Y-76963656D01*
X76566400Y-76988040D01*
X76816400Y-76988040D01*
X76945989Y-76963656D01*
X77066400Y-76988040D01*
X77316400Y-76988040D01*
X77445989Y-76963656D01*
X77566400Y-76988040D01*
X77816400Y-76988040D01*
X77945989Y-76963656D01*
X78066400Y-76988040D01*
X78316400Y-76988040D01*
X78445989Y-76963656D01*
X78566400Y-76988040D01*
X78816400Y-76988040D01*
X79051717Y-76943762D01*
X79267841Y-76804690D01*
X79412831Y-76592490D01*
X79463840Y-76340600D01*
X79463840Y-75040600D01*
X79422072Y-74818625D01*
X79641400Y-74863040D01*
X80941400Y-74863040D01*
X81176717Y-74818762D01*
X81392841Y-74679690D01*
X81537831Y-74467490D01*
X81588840Y-74215600D01*
X81588840Y-73965600D01*
X81564456Y-73836011D01*
X81588840Y-73715600D01*
X81588840Y-73465600D01*
X81564456Y-73336011D01*
X81588840Y-73215600D01*
X81588840Y-72965600D01*
X81564456Y-72836011D01*
X81588840Y-72715600D01*
X81588840Y-72465600D01*
X81564456Y-72336011D01*
X81588840Y-72215600D01*
X81588840Y-71965600D01*
X81567201Y-71850600D01*
X82183798Y-71850600D01*
X84395598Y-74062401D01*
X84541667Y-74160000D01*
X84642161Y-74227148D01*
X84933000Y-74285000D01*
X85443838Y-74285000D01*
X85402183Y-74292838D01*
X85186059Y-74431910D01*
X85041069Y-74644110D01*
X85027523Y-74711000D01*
X84698744Y-74711000D01*
X84484799Y-74622162D01*
X84112833Y-74621838D01*
X83769057Y-74763883D01*
X83505808Y-75026673D01*
X83363162Y-75370201D01*
X83362838Y-75742167D01*
X83504883Y-76085943D01*
X83767673Y-76349192D01*
X84111201Y-76491838D01*
X84483167Y-76492162D01*
X84826943Y-76350117D01*
X84896181Y-76281000D01*
X85024870Y-76281000D01*
X85034338Y-76331317D01*
X85100829Y-76434646D01*
X85099173Y-76436302D01*
X85002500Y-76669691D01*
X85002500Y-77110250D01*
X85161250Y-77269000D01*
X85885500Y-77269000D01*
X85885500Y-77249000D01*
X86139500Y-77249000D01*
X86139500Y-77269000D01*
X86863750Y-77269000D01*
X87022500Y-77110250D01*
X87022500Y-76669691D01*
X86925827Y-76436302D01*
X86924457Y-76434932D01*
X86983931Y-76347890D01*
X87034940Y-76096000D01*
X87034940Y-75812200D01*
X87153950Y-75812200D01*
X87186938Y-75987517D01*
X87253671Y-76091223D01*
X87188808Y-76155973D01*
X87046162Y-76499501D01*
X87045838Y-76871467D01*
X87187883Y-77215243D01*
X87450673Y-77478492D01*
X87794201Y-77621138D01*
X88029118Y-77621343D01*
X88076883Y-77736943D01*
X88339673Y-78000192D01*
X88603554Y-78109765D01*
X88711883Y-78371943D01*
X88974673Y-78635192D01*
X89318201Y-78777838D01*
X89379241Y-78777891D01*
X89473883Y-79006943D01*
X89736673Y-79270192D01*
X90080201Y-79412838D01*
X90220470Y-79412960D01*
X90220270Y-79413950D01*
X90220270Y-80035910D01*
X90207157Y-80004252D01*
X90028529Y-79825623D01*
X89795140Y-79728950D01*
X89554530Y-79728950D01*
X89395780Y-79887700D01*
X89395780Y-80637000D01*
X90145080Y-80637000D01*
X90291237Y-80490843D01*
X90403620Y-80665491D01*
X90548717Y-80764632D01*
X90416269Y-80849860D01*
X90289489Y-81035409D01*
X90145080Y-80891000D01*
X89395780Y-80891000D01*
X89395780Y-81640300D01*
X89554530Y-81799050D01*
X89584627Y-81799050D01*
X89459162Y-82101201D01*
X89458838Y-82473167D01*
X89600883Y-82816943D01*
X89863673Y-83080192D01*
X90207201Y-83222838D01*
X90579167Y-83223162D01*
X90922943Y-83081117D01*
X90990129Y-83014048D01*
X90994167Y-83013245D01*
X91248839Y-82843079D01*
X91330428Y-82761490D01*
X91667810Y-82761490D01*
X91903127Y-82717212D01*
X92119251Y-82578140D01*
X92264241Y-82365940D01*
X92315250Y-82114050D01*
X92315250Y-81961650D01*
X93067000Y-81961650D01*
X93067000Y-82402209D01*
X93163673Y-82635598D01*
X93342301Y-82814227D01*
X93575690Y-82910900D01*
X93791250Y-82910900D01*
X93950000Y-82752150D01*
X93950000Y-81802900D01*
X94204000Y-81802900D01*
X94204000Y-82752150D01*
X94362750Y-82910900D01*
X94578310Y-82910900D01*
X94811699Y-82814227D01*
X94990327Y-82635598D01*
X95087000Y-82402209D01*
X95087000Y-81961650D01*
X95137100Y-81961650D01*
X95137100Y-82402209D01*
X95233773Y-82635598D01*
X95412401Y-82814227D01*
X95645790Y-82910900D01*
X95861350Y-82910900D01*
X96020100Y-82752150D01*
X96020100Y-81802900D01*
X96274100Y-81802900D01*
X96274100Y-82752150D01*
X96432850Y-82910900D01*
X96648410Y-82910900D01*
X96881799Y-82814227D01*
X97060427Y-82635598D01*
X97157100Y-82402209D01*
X97157100Y-81961650D01*
X96998350Y-81802900D01*
X96274100Y-81802900D01*
X96020100Y-81802900D01*
X95295850Y-81802900D01*
X95137100Y-81961650D01*
X95087000Y-81961650D01*
X94928250Y-81802900D01*
X94204000Y-81802900D01*
X93950000Y-81802900D01*
X93225750Y-81802900D01*
X93067000Y-81961650D01*
X92315250Y-81961650D01*
X92315250Y-81313950D01*
X92270972Y-81078633D01*
X92131900Y-80862509D01*
X91986803Y-80763368D01*
X92119251Y-80678140D01*
X92216439Y-80535900D01*
X93084666Y-80535900D01*
X93098838Y-80611217D01*
X93165329Y-80714546D01*
X93163673Y-80716202D01*
X93067000Y-80949591D01*
X93067000Y-81390150D01*
X93225750Y-81548900D01*
X93950000Y-81548900D01*
X93950000Y-81528900D01*
X94204000Y-81528900D01*
X94204000Y-81548900D01*
X94928250Y-81548900D01*
X95087000Y-81390150D01*
X95087000Y-80949591D01*
X94990327Y-80716202D01*
X94988957Y-80714832D01*
X95048431Y-80627790D01*
X95067039Y-80535900D01*
X95154766Y-80535900D01*
X95168938Y-80611217D01*
X95235429Y-80714546D01*
X95233773Y-80716202D01*
X95137100Y-80949591D01*
X95137100Y-81390150D01*
X95295850Y-81548900D01*
X96020100Y-81548900D01*
X96020100Y-81528900D01*
X96274100Y-81528900D01*
X96274100Y-81548900D01*
X96998350Y-81548900D01*
X97157100Y-81390150D01*
X97157100Y-80949591D01*
X97060427Y-80716202D01*
X97059057Y-80714832D01*
X97118531Y-80627790D01*
X97169540Y-80375900D01*
X97169540Y-79175900D01*
X97125262Y-78940583D01*
X96986190Y-78724459D01*
X96773990Y-78579469D01*
X96522100Y-78528460D01*
X95772100Y-78528460D01*
X95536783Y-78572738D01*
X95320659Y-78711810D01*
X95175669Y-78924010D01*
X95157061Y-79015900D01*
X95069334Y-79015900D01*
X95055162Y-78940583D01*
X94916090Y-78724459D01*
X94703890Y-78579469D01*
X94452000Y-78528460D01*
X93702000Y-78528460D01*
X93466683Y-78572738D01*
X93250559Y-78711810D01*
X93105569Y-78924010D01*
X93086961Y-79015900D01*
X92166256Y-79015900D01*
X92131900Y-78962509D01*
X92025100Y-78889536D01*
X92025100Y-78434935D01*
X92239201Y-78523838D01*
X92611167Y-78524162D01*
X92954943Y-78382117D01*
X93051478Y-78285750D01*
X102206400Y-78285750D01*
X102206400Y-78989909D01*
X102303073Y-79223298D01*
X102481701Y-79401927D01*
X102715090Y-79498600D01*
X103419250Y-79498600D01*
X103578000Y-79339850D01*
X103578000Y-78127000D01*
X102365150Y-78127000D01*
X102206400Y-78285750D01*
X93051478Y-78285750D01*
X93218192Y-78119327D01*
X93296849Y-77929900D01*
X95174695Y-77929900D01*
X95265710Y-78071341D01*
X95477910Y-78216331D01*
X95729800Y-78267340D01*
X96929800Y-78267340D01*
X97165117Y-78223062D01*
X97381241Y-78083990D01*
X97427769Y-78015894D01*
X97570102Y-78158227D01*
X97803491Y-78254900D01*
X98244050Y-78254900D01*
X98402800Y-78096150D01*
X98402800Y-77296900D01*
X98656800Y-77296900D01*
X98656800Y-78096150D01*
X98815550Y-78254900D01*
X99256109Y-78254900D01*
X99489498Y-78158227D01*
X99668127Y-77979599D01*
X99764800Y-77746210D01*
X99764800Y-77455650D01*
X99606050Y-77296900D01*
X98656800Y-77296900D01*
X98402800Y-77296900D01*
X98382800Y-77296900D01*
X98382800Y-77042900D01*
X98402800Y-77042900D01*
X98402800Y-76243650D01*
X98656800Y-76243650D01*
X98656800Y-77042900D01*
X99606050Y-77042900D01*
X99764800Y-76884150D01*
X99764800Y-76593590D01*
X99668127Y-76360201D01*
X99489498Y-76181573D01*
X99256109Y-76084900D01*
X98815550Y-76084900D01*
X98656800Y-76243650D01*
X98402800Y-76243650D01*
X98244050Y-76084900D01*
X97803491Y-76084900D01*
X97570102Y-76181573D01*
X97428864Y-76322810D01*
X97393890Y-76268459D01*
X97181690Y-76123469D01*
X96929800Y-76072460D01*
X95729800Y-76072460D01*
X95494483Y-76116738D01*
X95278359Y-76255810D01*
X95173074Y-76409900D01*
X93591702Y-76409900D01*
X93566547Y-76384745D01*
X93640100Y-76399640D01*
X94090100Y-76399640D01*
X94325417Y-76355362D01*
X94541541Y-76216290D01*
X94686531Y-76004090D01*
X94725390Y-75812200D01*
X94860800Y-75812200D01*
X95161207Y-75752445D01*
X95415879Y-75582279D01*
X96562479Y-74435679D01*
X96732645Y-74181007D01*
X96767226Y-74007155D01*
X96833841Y-73964290D01*
X96978831Y-73752090D01*
X97029840Y-73500200D01*
X97029840Y-72300200D01*
X96985562Y-72064883D01*
X96919071Y-71961554D01*
X96920727Y-71959898D01*
X97017400Y-71726509D01*
X97017400Y-71285950D01*
X96858650Y-71127200D01*
X96134400Y-71127200D01*
X96134400Y-71147200D01*
X95880400Y-71147200D01*
X95880400Y-71127200D01*
X95156150Y-71127200D01*
X94997400Y-71285950D01*
X94997400Y-71726509D01*
X95094073Y-71959898D01*
X95095443Y-71961268D01*
X95035969Y-72048310D01*
X95029636Y-72079586D01*
X94691057Y-72219483D01*
X94427808Y-72482273D01*
X94285162Y-72825801D01*
X94284838Y-73197767D01*
X94426883Y-73541543D01*
X94689673Y-73804792D01*
X94889906Y-73887936D01*
X94696065Y-74081777D01*
X94693262Y-74066883D01*
X94554190Y-73850759D01*
X94341990Y-73705769D01*
X94090100Y-73654760D01*
X93640100Y-73654760D01*
X93536429Y-73674267D01*
X93440100Y-73654760D01*
X93360888Y-73654760D01*
X93361162Y-73339833D01*
X93219117Y-72996057D01*
X92956327Y-72732808D01*
X92612799Y-72590162D01*
X92240833Y-72589838D01*
X91897057Y-72731883D01*
X91633808Y-72994673D01*
X91491162Y-73338201D01*
X91490886Y-73654919D01*
X91490100Y-73654760D01*
X91282716Y-73654760D01*
X91152501Y-73459879D01*
X89330193Y-71637571D01*
X89083631Y-71472824D01*
X88792792Y-71414972D01*
X85807003Y-71414971D01*
X84242632Y-69850600D01*
X85251556Y-69850600D01*
X85542395Y-69792748D01*
X85788957Y-69628001D01*
X85941245Y-69475713D01*
X86016201Y-69506838D01*
X86388167Y-69507162D01*
X86731943Y-69365117D01*
X86995192Y-69102327D01*
X87137838Y-68758799D01*
X87138162Y-68386833D01*
X87091345Y-68273526D01*
X87169447Y-68241255D01*
X87155100Y-68275891D01*
X87155100Y-68841450D01*
X87313850Y-69000200D01*
X87792660Y-69000200D01*
X87792660Y-69254200D01*
X87313850Y-69254200D01*
X87155100Y-69412950D01*
X87155100Y-69978509D01*
X87251773Y-70211898D01*
X87430401Y-70390527D01*
X87663790Y-70487200D01*
X87743850Y-70487200D01*
X87902600Y-70328450D01*
X87902600Y-70189559D01*
X87976010Y-70303641D01*
X88188210Y-70448631D01*
X88262908Y-70463758D01*
X88286350Y-70487200D01*
X88366410Y-70487200D01*
X88370435Y-70485533D01*
X88440100Y-70499640D01*
X88890100Y-70499640D01*
X88993771Y-70480133D01*
X89090100Y-70499640D01*
X89540100Y-70499640D01*
X89643771Y-70480133D01*
X89740100Y-70499640D01*
X90190100Y-70499640D01*
X90293771Y-70480133D01*
X90347987Y-70491112D01*
X90347838Y-70662167D01*
X90489883Y-71005943D01*
X90752673Y-71269192D01*
X91096201Y-71411838D01*
X91468167Y-71412162D01*
X91692363Y-71319526D01*
X91895673Y-71523192D01*
X92239201Y-71665838D01*
X92611167Y-71666162D01*
X92954943Y-71524117D01*
X93218192Y-71261327D01*
X93360838Y-70917799D01*
X93361162Y-70545833D01*
X93342075Y-70499640D01*
X93440100Y-70499640D01*
X93511423Y-70486220D01*
X93513790Y-70487200D01*
X93593850Y-70487200D01*
X93614162Y-70466888D01*
X93675417Y-70455362D01*
X93891541Y-70316290D01*
X93977600Y-70190338D01*
X93977600Y-70328450D01*
X94136350Y-70487200D01*
X94216410Y-70487200D01*
X94449799Y-70390527D01*
X94566434Y-70273891D01*
X94997400Y-70273891D01*
X94997400Y-70714450D01*
X95156150Y-70873200D01*
X95880400Y-70873200D01*
X95880400Y-69923950D01*
X96134400Y-69923950D01*
X96134400Y-70873200D01*
X96858650Y-70873200D01*
X97017400Y-70714450D01*
X97017400Y-70273891D01*
X96920727Y-70040502D01*
X96742099Y-69861873D01*
X96508710Y-69765200D01*
X96293150Y-69765200D01*
X96134400Y-69923950D01*
X95880400Y-69923950D01*
X95721650Y-69765200D01*
X95506090Y-69765200D01*
X95272701Y-69861873D01*
X95094073Y-70040502D01*
X94997400Y-70273891D01*
X94566434Y-70273891D01*
X94628427Y-70211898D01*
X94725100Y-69978509D01*
X94725100Y-69412950D01*
X94566350Y-69254200D01*
X94087540Y-69254200D01*
X94087540Y-69000200D01*
X94566350Y-69000200D01*
X94725100Y-68841450D01*
X94725100Y-68275891D01*
X94628427Y-68042502D01*
X94449799Y-67863873D01*
X94216410Y-67767200D01*
X94136350Y-67767200D01*
X93992102Y-67911448D01*
X93992102Y-67767200D01*
X93935934Y-67767200D01*
X93917248Y-67673261D01*
X93917248Y-67673260D01*
X93869072Y-67601160D01*
X93869162Y-67497833D01*
X93727117Y-67154057D01*
X93464327Y-66890808D01*
X93120799Y-66748162D01*
X92748833Y-66747838D01*
X92583216Y-66816269D01*
X92725838Y-66472799D01*
X92725942Y-66353010D01*
X93118990Y-66353010D01*
X93409829Y-66295158D01*
X93656391Y-66130411D01*
X94518802Y-65268000D01*
X99096198Y-65268000D01*
X101318000Y-67489802D01*
X101318000Y-68753000D01*
X101375852Y-69043839D01*
X101540599Y-69290401D01*
X102271842Y-70021644D01*
X102206400Y-70350641D01*
X102206400Y-70409359D01*
X102320474Y-70982848D01*
X102645330Y-71469029D01*
X102916172Y-71650000D01*
X102645330Y-71830971D01*
X102320474Y-72317152D01*
X102206400Y-72890641D01*
X102206400Y-72949359D01*
X102320474Y-73522848D01*
X102645330Y-74009029D01*
X102916172Y-74190000D01*
X102645330Y-74370971D01*
X102320474Y-74857152D01*
X102206400Y-75430641D01*
X102206400Y-75489359D01*
X102320474Y-76062848D01*
X102635526Y-76534356D01*
X102481701Y-76598073D01*
X102303073Y-76776702D01*
X102206400Y-77010091D01*
X102206400Y-77714250D01*
X102365150Y-77873000D01*
X103578000Y-77873000D01*
X103578000Y-77853000D01*
X103832000Y-77853000D01*
X103832000Y-77873000D01*
X103852000Y-77873000D01*
X103852000Y-78127000D01*
X103832000Y-78127000D01*
X103832000Y-79339850D01*
X103990750Y-79498600D01*
X104694910Y-79498600D01*
X104928299Y-79401927D01*
X105106927Y-79223298D01*
X105171263Y-79067977D01*
X105185330Y-79089029D01*
X105671511Y-79413885D01*
X106245000Y-79527959D01*
X106818489Y-79413885D01*
X107304670Y-79089029D01*
X107629526Y-78602848D01*
X107743600Y-78029359D01*
X107743600Y-77970641D01*
X107629526Y-77397152D01*
X107304670Y-76910971D01*
X107033828Y-76730000D01*
X107304670Y-76549029D01*
X107629526Y-76062848D01*
X107743600Y-75489359D01*
X107743600Y-75430641D01*
X107629526Y-74857152D01*
X107304670Y-74370971D01*
X107033828Y-74190000D01*
X107304670Y-74009029D01*
X107629526Y-73522848D01*
X107743600Y-72949359D01*
X107743600Y-72890641D01*
X107678158Y-72561644D01*
X108838401Y-71401401D01*
X109003148Y-71154839D01*
X109061000Y-70864000D01*
X109061000Y-66032000D01*
X109003148Y-65741161D01*
X108838401Y-65494599D01*
X105790401Y-62446599D01*
X105543839Y-62281852D01*
X105253000Y-62224000D01*
X93569000Y-62224000D01*
X93278161Y-62281852D01*
X93031599Y-62446599D01*
X92111198Y-63367000D01*
X89251000Y-63367000D01*
X88960161Y-63424852D01*
X88713599Y-63589599D01*
X88127699Y-64175499D01*
X88010180Y-64351378D01*
X87375401Y-63716599D01*
X87128839Y-63551852D01*
X86838000Y-63494000D01*
X82299500Y-63494000D01*
X82330441Y-63474090D01*
X82373635Y-63410873D01*
X82705167Y-63411162D01*
X82991608Y-63292807D01*
X83133000Y-63321440D01*
X84193000Y-63321440D01*
X84428317Y-63277162D01*
X84644441Y-63138090D01*
X84671495Y-63098495D01*
X84793407Y-63074245D01*
X84823170Y-63054358D01*
X84868910Y-63125441D01*
X85081110Y-63270431D01*
X85333000Y-63321440D01*
X86393000Y-63321440D01*
X86628317Y-63277162D01*
X86844441Y-63138090D01*
X86989431Y-62925890D01*
X87040440Y-62674000D01*
X87040440Y-62024000D01*
X86996162Y-61788683D01*
X86857090Y-61572559D01*
X86644890Y-61427569D01*
X86507880Y-61399824D01*
X86628317Y-61377162D01*
X86844441Y-61238090D01*
X86850652Y-61229000D01*
X87083243Y-61229000D01*
X87109910Y-61270441D01*
X87201155Y-61332786D01*
X87173162Y-61400201D01*
X87172838Y-61772167D01*
X87314883Y-62115943D01*
X87577673Y-62379192D01*
X87921201Y-62521838D01*
X88293167Y-62522162D01*
X88636943Y-62380117D01*
X88900192Y-62117327D01*
X89042838Y-61773799D01*
X89043162Y-61401833D01*
X89042689Y-61400688D01*
X89112646Y-61355671D01*
X89114302Y-61357327D01*
X89347691Y-61454000D01*
X89788250Y-61454000D01*
X89947000Y-61295250D01*
X89947000Y-60571000D01*
X90201000Y-60571000D01*
X90201000Y-61295250D01*
X90359750Y-61454000D01*
X90800309Y-61454000D01*
X91033698Y-61357327D01*
X91212327Y-61178699D01*
X91309000Y-60945310D01*
X91309000Y-60729750D01*
X91150250Y-60571000D01*
X90201000Y-60571000D01*
X89947000Y-60571000D01*
X89927000Y-60571000D01*
X89927000Y-60317000D01*
X89947000Y-60317000D01*
X89947000Y-59592750D01*
X90201000Y-59592750D01*
X90201000Y-60317000D01*
X91150250Y-60317000D01*
X91309000Y-60158250D01*
X91309000Y-59942690D01*
X91212327Y-59709301D01*
X91033698Y-59530673D01*
X90800309Y-59434000D01*
X90359750Y-59434000D01*
X90201000Y-59592750D01*
X89947000Y-59592750D01*
X89788250Y-59434000D01*
X89347691Y-59434000D01*
X89114302Y-59530673D01*
X89112932Y-59532043D01*
X89025890Y-59472569D01*
X88774000Y-59421560D01*
X87574000Y-59421560D01*
X87338683Y-59465838D01*
X87122559Y-59604910D01*
X87085601Y-59659000D01*
X86837246Y-59659000D01*
X86644890Y-59527569D01*
X86393000Y-59476560D01*
X85333000Y-59476560D01*
X85097683Y-59520838D01*
X84881559Y-59659910D01*
X84823978Y-59744182D01*
X84793407Y-59723755D01*
X84674860Y-59700174D01*
X84657090Y-59672559D01*
X84444890Y-59527569D01*
X84193000Y-59476560D01*
X83133000Y-59476560D01*
X82897683Y-59520838D01*
X82681559Y-59659910D01*
X82536569Y-59872110D01*
X82514000Y-59983559D01*
X82514000Y-59783691D01*
X82417327Y-59550302D01*
X82238699Y-59371673D01*
X82005310Y-59275000D01*
X81789750Y-59275000D01*
X81631000Y-59433750D01*
X81631000Y-60383000D01*
X81651000Y-60383000D01*
X81651000Y-60637000D01*
X81631000Y-60637000D01*
X81631000Y-60657000D01*
X81377000Y-60657000D01*
X81377000Y-60637000D01*
X80652750Y-60637000D01*
X80494000Y-60795750D01*
X80494000Y-61236309D01*
X80590673Y-61469698D01*
X80592043Y-61471068D01*
X80532569Y-61558110D01*
X80481560Y-61810000D01*
X80481560Y-63010000D01*
X80525838Y-63245317D01*
X80664910Y-63461441D01*
X80712562Y-63494000D01*
X79137505Y-63494000D01*
X79184931Y-63424590D01*
X79235940Y-63172700D01*
X79235940Y-61972700D01*
X79191662Y-61737383D01*
X79052590Y-61521259D01*
X78984494Y-61474731D01*
X79126827Y-61332398D01*
X79223500Y-61099009D01*
X79223500Y-60658450D01*
X79064750Y-60499700D01*
X78265500Y-60499700D01*
X78265500Y-60519700D01*
X78011500Y-60519700D01*
X78011500Y-60499700D01*
X77212250Y-60499700D01*
X77053500Y-60658450D01*
X77053500Y-61099009D01*
X77150173Y-61332398D01*
X77291410Y-61473636D01*
X77237059Y-61508610D01*
X77092069Y-61720810D01*
X77054587Y-61905900D01*
X76850569Y-61905900D01*
X76839990Y-61889459D01*
X76627790Y-61744469D01*
X76375900Y-61693460D01*
X75525900Y-61693460D01*
X75408596Y-61715532D01*
X75299600Y-61693460D01*
X74449600Y-61693460D01*
X74214283Y-61737738D01*
X73998159Y-61876810D01*
X73978283Y-61905900D01*
X73677364Y-61905900D01*
X73667162Y-61851683D01*
X73528090Y-61635559D01*
X73459994Y-61589031D01*
X73602327Y-61446698D01*
X73699000Y-61213309D01*
X73699000Y-60772750D01*
X73540250Y-60614000D01*
X72741000Y-60614000D01*
X72741000Y-60634000D01*
X72487000Y-60634000D01*
X72487000Y-60614000D01*
X71687750Y-60614000D01*
X71529000Y-60772750D01*
X71529000Y-61213309D01*
X71625673Y-61446698D01*
X71766910Y-61587936D01*
X71712559Y-61622910D01*
X71567569Y-61835110D01*
X71516560Y-62087000D01*
X71516560Y-63287000D01*
X71560838Y-63522317D01*
X71699910Y-63738441D01*
X71912110Y-63883431D01*
X72164000Y-63934440D01*
X73064000Y-63934440D01*
X73299317Y-63890162D01*
X73515441Y-63751090D01*
X73660431Y-63538890D01*
X73683312Y-63425900D01*
X73855017Y-63425900D01*
X73814860Y-63624200D01*
X73814860Y-64274200D01*
X73859138Y-64509517D01*
X73998210Y-64725641D01*
X74142158Y-64823997D01*
X74185152Y-65040139D01*
X74349899Y-65286701D01*
X74616599Y-65553401D01*
X74829836Y-65695881D01*
X74816400Y-65693160D01*
X74566400Y-65693160D01*
X74436811Y-65717544D01*
X74316400Y-65693160D01*
X74066400Y-65693160D01*
X73936811Y-65717544D01*
X73816400Y-65693160D01*
X73566400Y-65693160D01*
X73436811Y-65717544D01*
X73316400Y-65693160D01*
X73066400Y-65693160D01*
X72831083Y-65737438D01*
X72614959Y-65876510D01*
X72469969Y-66088710D01*
X72418960Y-66340600D01*
X72418960Y-67640600D01*
X72460728Y-67862575D01*
X72241400Y-67818160D01*
X70941400Y-67818160D01*
X70875287Y-67830600D01*
X69556502Y-67830600D01*
X67643181Y-65917279D01*
X67744145Y-65409700D01*
X67618470Y-64777890D01*
X67260578Y-64242267D01*
X66724955Y-63884375D01*
X66093145Y-63758700D01*
X66028455Y-63758700D01*
X65396645Y-63884375D01*
X65093838Y-64086704D01*
X65000890Y-63942259D01*
X64788690Y-63797269D01*
X64536800Y-63746260D01*
X62504800Y-63746260D01*
X62269483Y-63790538D01*
X62053359Y-63929610D01*
X61908369Y-64141810D01*
X61857360Y-64393700D01*
X61857360Y-66425700D01*
X61901638Y-66661017D01*
X62040710Y-66877141D01*
X62252910Y-67022131D01*
X62504800Y-67073140D01*
X62889880Y-67073140D01*
X62983399Y-67213101D01*
X63482699Y-67712401D01*
X63729261Y-67877148D01*
X64020100Y-67935000D01*
X66584198Y-67935000D01*
X68277199Y-69628002D01*
X68430275Y-69730283D01*
X68523761Y-69792748D01*
X68814600Y-69850600D01*
X70317248Y-69850600D01*
X70293960Y-69965600D01*
X70293960Y-70215600D01*
X70318344Y-70345189D01*
X70293960Y-70465600D01*
X70293960Y-70715600D01*
X70318344Y-70845189D01*
X70293960Y-70965600D01*
X70293960Y-71215600D01*
X70313850Y-71321305D01*
X70310000Y-71330600D01*
X59443400Y-71330600D01*
X59152560Y-71388452D01*
X58905999Y-71553199D01*
X58631320Y-71827878D01*
X58585833Y-71827838D01*
X58536063Y-71848402D01*
X58506890Y-71828469D01*
X58255000Y-71777460D01*
X57255000Y-71777460D01*
X57019683Y-71821738D01*
X56803559Y-71960810D01*
X56679806Y-72141929D01*
X56508000Y-72024539D01*
X56508000Y-69464139D01*
X56573221Y-69422170D01*
X56718211Y-69209970D01*
X56769220Y-68958080D01*
X56769220Y-68160520D01*
X56724942Y-67925203D01*
X56650815Y-67810007D01*
X56718211Y-67711370D01*
X56769220Y-67459480D01*
X56769220Y-66661920D01*
X56724942Y-66426603D01*
X56585870Y-66210479D01*
X56373670Y-66065489D01*
X56313000Y-66053203D01*
X56313000Y-65575334D01*
X56388317Y-65561162D01*
X56604441Y-65422090D01*
X56749431Y-65209890D01*
X56800440Y-64958000D01*
X56800440Y-64058000D01*
X56756162Y-63822683D01*
X56617090Y-63606559D01*
X56404890Y-63461569D01*
X56153000Y-63410560D01*
X54953000Y-63410560D01*
X54717683Y-63454838D01*
X54501559Y-63593910D01*
X54455031Y-63662006D01*
X54312698Y-63519673D01*
X54079309Y-63423000D01*
X53638750Y-63423000D01*
X53480000Y-63581750D01*
X53480000Y-64381000D01*
X53500000Y-64381000D01*
X53500000Y-64635000D01*
X53480000Y-64635000D01*
X53480000Y-65434250D01*
X53638750Y-65593000D01*
X54079309Y-65593000D01*
X54312698Y-65496327D01*
X54453936Y-65355090D01*
X54488910Y-65409441D01*
X54701110Y-65554431D01*
X54793000Y-65573039D01*
X54793000Y-66314590D01*
X54727789Y-66410030D01*
X54676780Y-66661920D01*
X54676780Y-67459480D01*
X54721058Y-67694797D01*
X54795185Y-67809993D01*
X54727789Y-67908630D01*
X54676780Y-68160520D01*
X54676780Y-68958080D01*
X54721058Y-69193397D01*
X54860130Y-69409521D01*
X54938000Y-69462727D01*
X54938000Y-71391251D01*
X54766799Y-71320162D01*
X54394833Y-71319838D01*
X54051057Y-71461883D01*
X53787808Y-71724673D01*
X53785430Y-71730399D01*
X52950740Y-71730399D01*
X52950740Y-70596800D01*
X52906462Y-70361483D01*
X52767390Y-70145359D01*
X52555190Y-70000369D01*
X52303300Y-69949360D01*
X50543340Y-69949360D01*
X50543340Y-69689600D01*
X50499062Y-69454283D01*
X50359990Y-69238159D01*
X50147790Y-69093169D01*
X49895900Y-69042160D01*
X48432000Y-69042160D01*
X48432000Y-64793750D01*
X52118000Y-64793750D01*
X52118000Y-65084310D01*
X52214673Y-65317699D01*
X52393302Y-65496327D01*
X52626691Y-65593000D01*
X53067250Y-65593000D01*
X53226000Y-65434250D01*
X53226000Y-64635000D01*
X52276750Y-64635000D01*
X52118000Y-64793750D01*
X48432000Y-64793750D01*
X48432000Y-63931690D01*
X52118000Y-63931690D01*
X52118000Y-64222250D01*
X52276750Y-64381000D01*
X53226000Y-64381000D01*
X53226000Y-63581750D01*
X53067250Y-63423000D01*
X52626691Y-63423000D01*
X52393302Y-63519673D01*
X52214673Y-63698301D01*
X52118000Y-63931690D01*
X48432000Y-63931690D01*
X48432000Y-60668038D01*
X49108407Y-61345627D01*
X50333717Y-61854420D01*
X51660462Y-61855578D01*
X52886658Y-61348924D01*
X53825627Y-60411593D01*
X54095905Y-59760691D01*
X71529000Y-59760691D01*
X71529000Y-60201250D01*
X71687750Y-60360000D01*
X72487000Y-60360000D01*
X72487000Y-59410750D01*
X72741000Y-59410750D01*
X72741000Y-60360000D01*
X73540250Y-60360000D01*
X73699000Y-60201250D01*
X73699000Y-59760691D01*
X73651656Y-59646391D01*
X77053500Y-59646391D01*
X77053500Y-60086950D01*
X77212250Y-60245700D01*
X78011500Y-60245700D01*
X78011500Y-59296450D01*
X78265500Y-59296450D01*
X78265500Y-60245700D01*
X79064750Y-60245700D01*
X79223500Y-60086950D01*
X79223500Y-59783691D01*
X80494000Y-59783691D01*
X80494000Y-60224250D01*
X80652750Y-60383000D01*
X81377000Y-60383000D01*
X81377000Y-59433750D01*
X81218250Y-59275000D01*
X81002690Y-59275000D01*
X80769301Y-59371673D01*
X80590673Y-59550302D01*
X80494000Y-59783691D01*
X79223500Y-59783691D01*
X79223500Y-59646391D01*
X79126827Y-59413002D01*
X78948199Y-59234373D01*
X78714810Y-59137700D01*
X78424250Y-59137700D01*
X78265500Y-59296450D01*
X78011500Y-59296450D01*
X77852750Y-59137700D01*
X77562190Y-59137700D01*
X77328801Y-59234373D01*
X77150173Y-59413002D01*
X77053500Y-59646391D01*
X73651656Y-59646391D01*
X73602327Y-59527302D01*
X73423699Y-59348673D01*
X73190310Y-59252000D01*
X72899750Y-59252000D01*
X72741000Y-59410750D01*
X72487000Y-59410750D01*
X72328250Y-59252000D01*
X72037690Y-59252000D01*
X71804301Y-59348673D01*
X71625673Y-59527302D01*
X71529000Y-59760691D01*
X54095905Y-59760691D01*
X54334420Y-59186283D01*
X54335578Y-57859538D01*
X53828924Y-56633342D01*
X53143779Y-55947000D01*
X106006971Y-55947000D01*
X105324373Y-56628407D01*
G36*
X82656750Y-61272000D02*
X82737051Y-61272000D01*
X82881110Y-61370431D01*
X83018120Y-61398176D01*
X82897683Y-61420838D01*
X82734257Y-61526000D01*
X82656750Y-61526000D01*
X82641645Y-61541105D01*
X82460454Y-61540947D01*
X82415671Y-61471354D01*
X82417327Y-61469698D01*
X82514000Y-61236309D01*
X82514000Y-61129250D01*
X82656750Y-61272000D01*
X82656750Y-61272000D01*
G37*
X82656750Y-61272000D02*
X82737051Y-61272000D01*
X82881110Y-61370431D01*
X83018120Y-61398176D01*
X82897683Y-61420838D01*
X82734257Y-61526000D01*
X82656750Y-61526000D01*
X82641645Y-61541105D01*
X82460454Y-61540947D01*
X82415671Y-61471354D01*
X82417327Y-61469698D01*
X82514000Y-61236309D01*
X82514000Y-61129250D01*
X82656750Y-61272000D01*
M02*
