G04 #@! TF.FileFunction,Legend,Top*
%FSLAX46Y46*%
G04 Gerber Fmt 4.6, Leading zero omitted, Abs format (unit mm)*
G04 Created by KiCad (PCBNEW 4.0.2-stable) date 7/3/2016 12:03:50 AM*
%MOMM*%
G01*
G04 APERTURE LIST*
%ADD10C,0.100000*%
%ADD11C,0.180000*%
%ADD12C,0.250000*%
%ADD13C,0.150000*%
G04 APERTURE END LIST*
D10*
D11*
X66498905Y-68451333D02*
X66117952Y-68718000D01*
X66498905Y-68908476D02*
X65698905Y-68908476D01*
X65698905Y-68603714D01*
X65737000Y-68527523D01*
X65775095Y-68489428D01*
X65851286Y-68451333D01*
X65965571Y-68451333D01*
X66041762Y-68489428D01*
X66079857Y-68527523D01*
X66117952Y-68603714D01*
X66117952Y-68908476D01*
X65698905Y-68184666D02*
X66498905Y-67651333D01*
X65698905Y-67651333D02*
X66498905Y-68184666D01*
X63158905Y-68927524D02*
X63158905Y-68470381D01*
X63958905Y-68698952D02*
X63158905Y-68698952D01*
X63158905Y-68279904D02*
X63958905Y-67746571D01*
X63158905Y-67746571D02*
X63958905Y-68279904D01*
D12*
X59583095Y-67470809D02*
X60635476Y-67470809D01*
X60759286Y-67408904D01*
X60821190Y-67347000D01*
X60883095Y-67223190D01*
X60883095Y-66975571D01*
X60821190Y-66851762D01*
X60759286Y-66789857D01*
X60635476Y-66727952D01*
X59583095Y-66727952D01*
X60511667Y-66170809D02*
X60511667Y-65551761D01*
X60883095Y-66294618D02*
X59583095Y-65861285D01*
X60883095Y-65427952D01*
X60883095Y-64251761D02*
X60264048Y-64685094D01*
X60883095Y-64994618D02*
X59583095Y-64994618D01*
X59583095Y-64499380D01*
X59645000Y-64375571D01*
X59706905Y-64313666D01*
X59830714Y-64251761D01*
X60016429Y-64251761D01*
X60140238Y-64313666D01*
X60202143Y-64375571D01*
X60264048Y-64499380D01*
X60264048Y-64994618D01*
X59583095Y-63880332D02*
X59583095Y-63137475D01*
X60883095Y-63508904D02*
X59583095Y-63508904D01*
X73456095Y-88256047D02*
X72156095Y-88256047D01*
X73394190Y-87698904D02*
X73456095Y-87513190D01*
X73456095Y-87203666D01*
X73394190Y-87079856D01*
X73332286Y-87017952D01*
X73208476Y-86956047D01*
X73084667Y-86956047D01*
X72960857Y-87017952D01*
X72898952Y-87079856D01*
X72837048Y-87203666D01*
X72775143Y-87451285D01*
X72713238Y-87575094D01*
X72651333Y-87636999D01*
X72527524Y-87698904D01*
X72403714Y-87698904D01*
X72279905Y-87636999D01*
X72218000Y-87575094D01*
X72156095Y-87451285D01*
X72156095Y-87141761D01*
X72218000Y-86956047D01*
X73456095Y-86398904D02*
X72156095Y-86398904D01*
X72156095Y-85903666D01*
X72218000Y-85779857D01*
X72279905Y-85717952D01*
X72403714Y-85656047D01*
X72589429Y-85656047D01*
X72713238Y-85717952D01*
X72775143Y-85779857D01*
X72837048Y-85903666D01*
X72837048Y-86398904D01*
D11*
X80723000Y-90898523D02*
X80684905Y-90974714D01*
X80684905Y-91088999D01*
X80723000Y-91203285D01*
X80799190Y-91279476D01*
X80875381Y-91317571D01*
X81027762Y-91355666D01*
X81142048Y-91355666D01*
X81294429Y-91317571D01*
X81370619Y-91279476D01*
X81446810Y-91203285D01*
X81484905Y-91088999D01*
X81484905Y-91012809D01*
X81446810Y-90898523D01*
X81408714Y-90860428D01*
X81142048Y-90860428D01*
X81142048Y-91012809D01*
X81484905Y-90517571D02*
X80684905Y-90517571D01*
X81484905Y-90060428D01*
X80684905Y-90060428D01*
X81484905Y-89679476D02*
X80684905Y-89679476D01*
X80684905Y-89489000D01*
X80723000Y-89374714D01*
X80799190Y-89298523D01*
X80875381Y-89260428D01*
X81027762Y-89222333D01*
X81142048Y-89222333D01*
X81294429Y-89260428D01*
X81370619Y-89298523D01*
X81446810Y-89374714D01*
X81484905Y-89489000D01*
X81484905Y-89679476D01*
X78995714Y-90822333D02*
X79033810Y-90860428D01*
X79071905Y-90974714D01*
X79071905Y-91050904D01*
X79033810Y-91165190D01*
X78957619Y-91241381D01*
X78881429Y-91279476D01*
X78729048Y-91317571D01*
X78614762Y-91317571D01*
X78462381Y-91279476D01*
X78386190Y-91241381D01*
X78310000Y-91165190D01*
X78271905Y-91050904D01*
X78271905Y-90974714D01*
X78310000Y-90860428D01*
X78348095Y-90822333D01*
X78348095Y-90517571D02*
X78310000Y-90479476D01*
X78271905Y-90403285D01*
X78271905Y-90212809D01*
X78310000Y-90136619D01*
X78348095Y-90098523D01*
X78424286Y-90060428D01*
X78500476Y-90060428D01*
X78614762Y-90098523D01*
X79071905Y-90555666D01*
X79071905Y-90060428D01*
X79071905Y-89717571D02*
X78271905Y-89717571D01*
X78271905Y-89527095D01*
X78310000Y-89412809D01*
X78386190Y-89336618D01*
X78462381Y-89298523D01*
X78614762Y-89260428D01*
X78729048Y-89260428D01*
X78881429Y-89298523D01*
X78957619Y-89336618D01*
X79033810Y-89412809D01*
X79071905Y-89527095D01*
X79071905Y-89717571D01*
X76328714Y-90822333D02*
X76366810Y-90860428D01*
X76404905Y-90974714D01*
X76404905Y-91050904D01*
X76366810Y-91165190D01*
X76290619Y-91241381D01*
X76214429Y-91279476D01*
X76062048Y-91317571D01*
X75947762Y-91317571D01*
X75795381Y-91279476D01*
X75719190Y-91241381D01*
X75643000Y-91165190D01*
X75604905Y-91050904D01*
X75604905Y-90974714D01*
X75643000Y-90860428D01*
X75681095Y-90822333D01*
X75681095Y-90517571D02*
X75643000Y-90479476D01*
X75604905Y-90403285D01*
X75604905Y-90212809D01*
X75643000Y-90136619D01*
X75681095Y-90098523D01*
X75757286Y-90060428D01*
X75833476Y-90060428D01*
X75947762Y-90098523D01*
X76404905Y-90555666D01*
X76404905Y-90060428D01*
X76404905Y-89717571D02*
X75604905Y-89717571D01*
X76404905Y-89260428D02*
X75947762Y-89603285D01*
X75604905Y-89260428D02*
X76062048Y-89717571D01*
D13*
X107515000Y-66570000D02*
X116345000Y-66570000D01*
X107515000Y-69110000D02*
X107515000Y-66570000D01*
X116345000Y-69110000D02*
X116345000Y-66570000D01*
X116345000Y-66570000D02*
X107515000Y-66570000D01*
X116345000Y-69110000D02*
X107515000Y-69110000D01*
X116345000Y-71650000D02*
X116345000Y-69110000D01*
X107515000Y-71650000D02*
X107515000Y-69110000D01*
X107515000Y-69110000D02*
X116345000Y-69110000D01*
X107515000Y-71650000D02*
X116345000Y-71650000D01*
X107515000Y-74190000D02*
X107515000Y-71650000D01*
X116345000Y-74190000D02*
X116345000Y-71650000D01*
X116345000Y-71650000D02*
X107515000Y-71650000D01*
X116345000Y-74190000D02*
X107515000Y-74190000D01*
X116345000Y-76730000D02*
X116345000Y-74190000D01*
X107515000Y-76730000D02*
X107515000Y-74190000D01*
X107515000Y-74190000D02*
X116345000Y-74190000D01*
X107515000Y-76730000D02*
X116345000Y-76730000D01*
X107515000Y-79270000D02*
X107515000Y-76730000D01*
X102555000Y-78000000D02*
X102555000Y-79550000D01*
X102555000Y-79550000D02*
X103705000Y-79550000D01*
X107515000Y-79270000D02*
X116345000Y-79270000D01*
X116345000Y-79270000D02*
X116345000Y-76730000D01*
X116345000Y-76730000D02*
X107515000Y-76730000D01*
X80904000Y-61810000D02*
X80904000Y-61110000D01*
X82104000Y-61110000D02*
X82104000Y-61810000D01*
X57921000Y-82169000D02*
X57921000Y-83169000D01*
X59621000Y-83169000D02*
X59621000Y-82169000D01*
X88774000Y-59844000D02*
X89474000Y-59844000D01*
X89474000Y-61044000D02*
X88774000Y-61044000D01*
X62081000Y-89234000D02*
X63081000Y-89234000D01*
X63081000Y-87534000D02*
X62081000Y-87534000D01*
X65668000Y-83185000D02*
X65668000Y-84185000D01*
X67368000Y-84185000D02*
X67368000Y-83185000D01*
X75631000Y-84285000D02*
X74931000Y-84285000D01*
X74931000Y-83085000D02*
X75631000Y-83085000D01*
X86612500Y-76096000D02*
X86612500Y-76796000D01*
X85412500Y-76796000D02*
X85412500Y-76096000D01*
X95407400Y-72300200D02*
X95407400Y-71600200D01*
X96607400Y-71600200D02*
X96607400Y-72300200D01*
X62081000Y-79328000D02*
X63081000Y-79328000D01*
X63081000Y-77628000D02*
X62081000Y-77628000D01*
X94677000Y-80375900D02*
X94677000Y-81075900D01*
X93477000Y-81075900D02*
X93477000Y-80375900D01*
X96747100Y-80375900D02*
X96747100Y-81075900D01*
X95547100Y-81075900D02*
X95547100Y-80375900D01*
X69606000Y-74803000D02*
X69606000Y-75803000D01*
X68256000Y-75803000D02*
X68256000Y-74803000D01*
X73911300Y-79121000D02*
X73911300Y-80121000D01*
X72561300Y-80121000D02*
X72561300Y-79121000D01*
X97929800Y-77844900D02*
X96929800Y-77844900D01*
X96929800Y-76494900D02*
X97929800Y-76494900D01*
X71939000Y-62087000D02*
X71939000Y-61087000D01*
X73289000Y-61087000D02*
X73289000Y-62087000D01*
X77463500Y-61972700D02*
X77463500Y-60972700D01*
X78813500Y-60972700D02*
X78813500Y-61972700D01*
X84563000Y-59699000D02*
G75*
G03X84563000Y-59699000I-100000J0D01*
G01*
X85013000Y-59949000D02*
X84513000Y-59949000D01*
X85013000Y-62849000D02*
X85013000Y-59949000D01*
X84513000Y-62849000D02*
X85013000Y-62849000D01*
X84513000Y-59949000D02*
X84513000Y-62849000D01*
X72316400Y-67715600D02*
X72316400Y-68240600D01*
X79566400Y-67715600D02*
X79566400Y-68240600D01*
X79566400Y-74965600D02*
X79566400Y-74440600D01*
X72316400Y-74965600D02*
X72316400Y-74440600D01*
X72316400Y-67715600D02*
X72841400Y-67715600D01*
X72316400Y-74965600D02*
X72841400Y-74965600D01*
X79566400Y-74965600D02*
X79041400Y-74965600D01*
X79566400Y-67715600D02*
X79041400Y-67715600D01*
X72316400Y-68240600D02*
X70941400Y-68240600D01*
X87565100Y-69852200D02*
X87565100Y-74302200D01*
X94315100Y-68327200D02*
X94315100Y-74302200D01*
X89616760Y-79464840D02*
X89616760Y-79513100D01*
X90317800Y-82263820D02*
X89616760Y-82263820D01*
X89616760Y-82263820D02*
X89616760Y-82014900D01*
X89616760Y-79464840D02*
X89616760Y-79264180D01*
X89616760Y-79264180D02*
X90317800Y-79264180D01*
X76512900Y-62234700D02*
X76512900Y-64381000D01*
X76512900Y-64381000D02*
X76487500Y-64368300D01*
X74315800Y-62234700D02*
X76525100Y-62234700D01*
X74315800Y-64381000D02*
X74315800Y-62260100D01*
X76487500Y-64381000D02*
X74303100Y-64381000D01*
X61970800Y-66959700D02*
X63520800Y-66959700D01*
X67330800Y-66679700D02*
X64790800Y-66679700D01*
X64790800Y-66679700D02*
X64790800Y-64139700D01*
X63520800Y-63859700D02*
X61970800Y-63859700D01*
X61970800Y-63859700D02*
X61970800Y-66959700D01*
X64790800Y-64139700D02*
X67330800Y-64139700D01*
X67330800Y-64139700D02*
X67330800Y-66679700D01*
X76043000Y-85437000D02*
X74493000Y-85437000D01*
X74493000Y-85437000D02*
X74493000Y-88537000D01*
X74493000Y-88537000D02*
X76043000Y-88537000D01*
X77313000Y-85717000D02*
X82393000Y-85717000D01*
X82393000Y-85717000D02*
X82393000Y-88257000D01*
X82393000Y-88257000D02*
X77313000Y-88257000D01*
X77313000Y-88257000D02*
X77313000Y-85717000D01*
X63353000Y-86431000D02*
X64353000Y-85431000D01*
X64353000Y-85431000D02*
X64353000Y-80431000D01*
X64353000Y-80431000D02*
X61063000Y-80431000D01*
X61063000Y-80431000D02*
X61063000Y-86431000D01*
X61063000Y-86431000D02*
X63353000Y-86431000D01*
X55173000Y-66710000D02*
X55173000Y-68610000D01*
X56273000Y-66710000D02*
X56273000Y-68610000D01*
X55723000Y-67610000D02*
X55723000Y-68060000D01*
X55973000Y-67560000D02*
X55473000Y-67560000D01*
X55723000Y-67560000D02*
X55973000Y-67810000D01*
X55973000Y-67810000D02*
X55473000Y-67810000D01*
X55473000Y-67810000D02*
X55723000Y-67560000D01*
X53953000Y-63833000D02*
X54953000Y-63833000D01*
X54953000Y-65183000D02*
X53953000Y-65183000D01*
X76258900Y-79214600D02*
X76258900Y-81754600D01*
X82608900Y-81627600D02*
X82608900Y-81754600D01*
X82608900Y-81754600D02*
X80957900Y-81754600D01*
X80957900Y-81754600D02*
X76258900Y-81754600D01*
X76258900Y-79214600D02*
X81592900Y-79214600D01*
X81592900Y-79214600D02*
X82608900Y-79214600D01*
X82608900Y-79214600D02*
X82608900Y-81500600D01*
X82608900Y-81500600D02*
X82608900Y-81627600D01*
X79099000Y-83010000D02*
X80099000Y-83010000D01*
X80099000Y-84360000D02*
X79099000Y-84360000D01*
X52815400Y-69391200D02*
X52815400Y-78700300D01*
X52396300Y-69403900D02*
X52790000Y-69403900D01*
X52828100Y-78725700D02*
X47773500Y-78725700D01*
X47773500Y-78725700D02*
X47773500Y-69480100D01*
X47798900Y-69403900D02*
X52497900Y-69403900D01*
X54315000Y-71950200D02*
X54315000Y-75442700D01*
X54365800Y-75468100D02*
X58798100Y-75468100D01*
X58798100Y-71975600D02*
X58798100Y-75468100D01*
X54315000Y-71962900D02*
X58747300Y-71962900D01*
X104085865Y-81232701D02*
X104085865Y-80232701D01*
X104466818Y-80232701D01*
X104562056Y-80280320D01*
X104609675Y-80327939D01*
X104657294Y-80423177D01*
X104657294Y-80566034D01*
X104609675Y-80661272D01*
X104562056Y-80708891D01*
X104466818Y-80756510D01*
X104085865Y-80756510D01*
X105514437Y-80232701D02*
X105323960Y-80232701D01*
X105228722Y-80280320D01*
X105181103Y-80327939D01*
X105085865Y-80470796D01*
X105038246Y-80661272D01*
X105038246Y-81042225D01*
X105085865Y-81137463D01*
X105133484Y-81185082D01*
X105228722Y-81232701D01*
X105419199Y-81232701D01*
X105514437Y-81185082D01*
X105562056Y-81137463D01*
X105609675Y-81042225D01*
X105609675Y-80804130D01*
X105562056Y-80708891D01*
X105514437Y-80661272D01*
X105419199Y-80613653D01*
X105228722Y-80613653D01*
X105133484Y-80661272D01*
X105085865Y-80708891D01*
X105038246Y-80804130D01*
X81823043Y-58436466D02*
X81870662Y-58484085D01*
X81918281Y-58626942D01*
X81918281Y-58722180D01*
X81870662Y-58865038D01*
X81775424Y-58960276D01*
X81680186Y-59007895D01*
X81489710Y-59055514D01*
X81346852Y-59055514D01*
X81156376Y-59007895D01*
X81061138Y-58960276D01*
X80965900Y-58865038D01*
X80918281Y-58722180D01*
X80918281Y-58626942D01*
X80965900Y-58484085D01*
X81013519Y-58436466D01*
X81918281Y-57484085D02*
X81918281Y-58055514D01*
X81918281Y-57769800D02*
X80918281Y-57769800D01*
X81061138Y-57865038D01*
X81156376Y-57960276D01*
X81203995Y-58055514D01*
X59128143Y-86411666D02*
X59175762Y-86459285D01*
X59223381Y-86602142D01*
X59223381Y-86697380D01*
X59175762Y-86840238D01*
X59080524Y-86935476D01*
X58985286Y-86983095D01*
X58794810Y-87030714D01*
X58651952Y-87030714D01*
X58461476Y-86983095D01*
X58366238Y-86935476D01*
X58271000Y-86840238D01*
X58223381Y-86697380D01*
X58223381Y-86602142D01*
X58271000Y-86459285D01*
X58318619Y-86411666D01*
X58318619Y-86030714D02*
X58271000Y-85983095D01*
X58223381Y-85887857D01*
X58223381Y-85649761D01*
X58271000Y-85554523D01*
X58318619Y-85506904D01*
X58413857Y-85459285D01*
X58509095Y-85459285D01*
X58651952Y-85506904D01*
X59223381Y-86078333D01*
X59223381Y-85459285D01*
X92386334Y-60801143D02*
X92338715Y-60848762D01*
X92195858Y-60896381D01*
X92100620Y-60896381D01*
X91957762Y-60848762D01*
X91862524Y-60753524D01*
X91814905Y-60658286D01*
X91767286Y-60467810D01*
X91767286Y-60324952D01*
X91814905Y-60134476D01*
X91862524Y-60039238D01*
X91957762Y-59944000D01*
X92100620Y-59896381D01*
X92195858Y-59896381D01*
X92338715Y-59944000D01*
X92386334Y-59991619D01*
X92719667Y-59896381D02*
X93338715Y-59896381D01*
X93005381Y-60277333D01*
X93148239Y-60277333D01*
X93243477Y-60324952D01*
X93291096Y-60372571D01*
X93338715Y-60467810D01*
X93338715Y-60705905D01*
X93291096Y-60801143D01*
X93243477Y-60848762D01*
X93148239Y-60896381D01*
X92862524Y-60896381D01*
X92767286Y-60848762D01*
X92719667Y-60801143D01*
X66135434Y-88639543D02*
X66087815Y-88687162D01*
X65944958Y-88734781D01*
X65849720Y-88734781D01*
X65706862Y-88687162D01*
X65611624Y-88591924D01*
X65564005Y-88496686D01*
X65516386Y-88306210D01*
X65516386Y-88163352D01*
X65564005Y-87972876D01*
X65611624Y-87877638D01*
X65706862Y-87782400D01*
X65849720Y-87734781D01*
X65944958Y-87734781D01*
X66087815Y-87782400D01*
X66135434Y-87830019D01*
X66992577Y-88068114D02*
X66992577Y-88734781D01*
X66754481Y-87687162D02*
X66516386Y-88401448D01*
X67135434Y-88401448D01*
X69034143Y-83851666D02*
X69081762Y-83899285D01*
X69129381Y-84042142D01*
X69129381Y-84137380D01*
X69081762Y-84280238D01*
X68986524Y-84375476D01*
X68891286Y-84423095D01*
X68700810Y-84470714D01*
X68557952Y-84470714D01*
X68367476Y-84423095D01*
X68272238Y-84375476D01*
X68177000Y-84280238D01*
X68129381Y-84137380D01*
X68129381Y-84042142D01*
X68177000Y-83899285D01*
X68224619Y-83851666D01*
X68129381Y-82946904D02*
X68129381Y-83423095D01*
X68605571Y-83470714D01*
X68557952Y-83423095D01*
X68510333Y-83327857D01*
X68510333Y-83089761D01*
X68557952Y-82994523D01*
X68605571Y-82946904D01*
X68700810Y-82899285D01*
X68938905Y-82899285D01*
X69034143Y-82946904D01*
X69081762Y-82994523D01*
X69129381Y-83089761D01*
X69129381Y-83327857D01*
X69081762Y-83423095D01*
X69034143Y-83470714D01*
X71990134Y-84042143D02*
X71942515Y-84089762D01*
X71799658Y-84137381D01*
X71704420Y-84137381D01*
X71561562Y-84089762D01*
X71466324Y-83994524D01*
X71418705Y-83899286D01*
X71371086Y-83708810D01*
X71371086Y-83565952D01*
X71418705Y-83375476D01*
X71466324Y-83280238D01*
X71561562Y-83185000D01*
X71704420Y-83137381D01*
X71799658Y-83137381D01*
X71942515Y-83185000D01*
X71990134Y-83232619D01*
X72847277Y-83137381D02*
X72656800Y-83137381D01*
X72561562Y-83185000D01*
X72513943Y-83232619D01*
X72418705Y-83375476D01*
X72371086Y-83565952D01*
X72371086Y-83946905D01*
X72418705Y-84042143D01*
X72466324Y-84089762D01*
X72561562Y-84137381D01*
X72752039Y-84137381D01*
X72847277Y-84089762D01*
X72894896Y-84042143D01*
X72942515Y-83946905D01*
X72942515Y-83708810D01*
X72894896Y-83613571D01*
X72847277Y-83565952D01*
X72752039Y-83518333D01*
X72561562Y-83518333D01*
X72466324Y-83565952D01*
X72418705Y-83613571D01*
X72371086Y-83708810D01*
X86280743Y-73412266D02*
X86328362Y-73459885D01*
X86375981Y-73602742D01*
X86375981Y-73697980D01*
X86328362Y-73840838D01*
X86233124Y-73936076D01*
X86137886Y-73983695D01*
X85947410Y-74031314D01*
X85804552Y-74031314D01*
X85614076Y-73983695D01*
X85518838Y-73936076D01*
X85423600Y-73840838D01*
X85375981Y-73697980D01*
X85375981Y-73602742D01*
X85423600Y-73459885D01*
X85471219Y-73412266D01*
X85375981Y-73078933D02*
X85375981Y-72412266D01*
X86375981Y-72840838D01*
X98218743Y-72218466D02*
X98266362Y-72266085D01*
X98313981Y-72408942D01*
X98313981Y-72504180D01*
X98266362Y-72647038D01*
X98171124Y-72742276D01*
X98075886Y-72789895D01*
X97885410Y-72837514D01*
X97742552Y-72837514D01*
X97552076Y-72789895D01*
X97456838Y-72742276D01*
X97361600Y-72647038D01*
X97313981Y-72504180D01*
X97313981Y-72408942D01*
X97361600Y-72266085D01*
X97409219Y-72218466D01*
X97742552Y-71647038D02*
X97694933Y-71742276D01*
X97647314Y-71789895D01*
X97552076Y-71837514D01*
X97504457Y-71837514D01*
X97409219Y-71789895D01*
X97361600Y-71742276D01*
X97313981Y-71647038D01*
X97313981Y-71456561D01*
X97361600Y-71361323D01*
X97409219Y-71313704D01*
X97504457Y-71266085D01*
X97552076Y-71266085D01*
X97647314Y-71313704D01*
X97694933Y-71361323D01*
X97742552Y-71456561D01*
X97742552Y-71647038D01*
X97790171Y-71742276D01*
X97837790Y-71789895D01*
X97933029Y-71837514D01*
X98123505Y-71837514D01*
X98218743Y-71789895D01*
X98266362Y-71742276D01*
X98313981Y-71647038D01*
X98313981Y-71456561D01*
X98266362Y-71361323D01*
X98218743Y-71313704D01*
X98123505Y-71266085D01*
X97933029Y-71266085D01*
X97837790Y-71313704D01*
X97790171Y-71361323D01*
X97742552Y-71456561D01*
X66224334Y-78835143D02*
X66176715Y-78882762D01*
X66033858Y-78930381D01*
X65938620Y-78930381D01*
X65795762Y-78882762D01*
X65700524Y-78787524D01*
X65652905Y-78692286D01*
X65605286Y-78501810D01*
X65605286Y-78358952D01*
X65652905Y-78168476D01*
X65700524Y-78073238D01*
X65795762Y-77978000D01*
X65938620Y-77930381D01*
X66033858Y-77930381D01*
X66176715Y-77978000D01*
X66224334Y-78025619D01*
X66700524Y-78930381D02*
X66891000Y-78930381D01*
X66986239Y-78882762D01*
X67033858Y-78835143D01*
X67129096Y-78692286D01*
X67176715Y-78501810D01*
X67176715Y-78120857D01*
X67129096Y-78025619D01*
X67081477Y-77978000D01*
X66986239Y-77930381D01*
X66795762Y-77930381D01*
X66700524Y-77978000D01*
X66652905Y-78025619D01*
X66605286Y-78120857D01*
X66605286Y-78358952D01*
X66652905Y-78454190D01*
X66700524Y-78501810D01*
X66795762Y-78549429D01*
X66986239Y-78549429D01*
X67081477Y-78501810D01*
X67129096Y-78454190D01*
X67176715Y-78358952D01*
X94548443Y-85178757D02*
X94596062Y-85226376D01*
X94643681Y-85369233D01*
X94643681Y-85464471D01*
X94596062Y-85607329D01*
X94500824Y-85702567D01*
X94405586Y-85750186D01*
X94215110Y-85797805D01*
X94072252Y-85797805D01*
X93881776Y-85750186D01*
X93786538Y-85702567D01*
X93691300Y-85607329D01*
X93643681Y-85464471D01*
X93643681Y-85369233D01*
X93691300Y-85226376D01*
X93738919Y-85178757D01*
X94643681Y-84226376D02*
X94643681Y-84797805D01*
X94643681Y-84512091D02*
X93643681Y-84512091D01*
X93786538Y-84607329D01*
X93881776Y-84702567D01*
X93929395Y-84797805D01*
X93643681Y-83893043D02*
X93643681Y-83273995D01*
X94024633Y-83607329D01*
X94024633Y-83464471D01*
X94072252Y-83369233D01*
X94119871Y-83321614D01*
X94215110Y-83273995D01*
X94453205Y-83273995D01*
X94548443Y-83321614D01*
X94596062Y-83369233D01*
X94643681Y-83464471D01*
X94643681Y-83750186D01*
X94596062Y-83845424D01*
X94548443Y-83893043D01*
X96580443Y-85140657D02*
X96628062Y-85188276D01*
X96675681Y-85331133D01*
X96675681Y-85426371D01*
X96628062Y-85569229D01*
X96532824Y-85664467D01*
X96437586Y-85712086D01*
X96247110Y-85759705D01*
X96104252Y-85759705D01*
X95913776Y-85712086D01*
X95818538Y-85664467D01*
X95723300Y-85569229D01*
X95675681Y-85426371D01*
X95675681Y-85331133D01*
X95723300Y-85188276D01*
X95770919Y-85140657D01*
X96675681Y-84188276D02*
X96675681Y-84759705D01*
X96675681Y-84473991D02*
X95675681Y-84473991D01*
X95818538Y-84569229D01*
X95913776Y-84664467D01*
X95961395Y-84759705D01*
X96009014Y-83331133D02*
X96675681Y-83331133D01*
X95628062Y-83569229D02*
X96342348Y-83807324D01*
X96342348Y-83188276D01*
X69446881Y-78657366D02*
X68970690Y-78990700D01*
X69446881Y-79228795D02*
X68446881Y-79228795D01*
X68446881Y-78847842D01*
X68494500Y-78752604D01*
X68542119Y-78704985D01*
X68637357Y-78657366D01*
X68780214Y-78657366D01*
X68875452Y-78704985D01*
X68923071Y-78752604D01*
X68970690Y-78847842D01*
X68970690Y-79228795D01*
X69446881Y-77704985D02*
X69446881Y-78276414D01*
X69446881Y-77990700D02*
X68446881Y-77990700D01*
X68589738Y-78085938D01*
X68684976Y-78181176D01*
X68732595Y-78276414D01*
X71796381Y-79914666D02*
X71320190Y-80248000D01*
X71796381Y-80486095D02*
X70796381Y-80486095D01*
X70796381Y-80105142D01*
X70844000Y-80009904D01*
X70891619Y-79962285D01*
X70986857Y-79914666D01*
X71129714Y-79914666D01*
X71224952Y-79962285D01*
X71272571Y-80009904D01*
X71320190Y-80105142D01*
X71320190Y-80486095D01*
X70891619Y-79533714D02*
X70844000Y-79486095D01*
X70796381Y-79390857D01*
X70796381Y-79152761D01*
X70844000Y-79057523D01*
X70891619Y-79009904D01*
X70986857Y-78962285D01*
X71082095Y-78962285D01*
X71224952Y-79009904D01*
X71796381Y-79581333D01*
X71796381Y-78962285D01*
X97364734Y-75882381D02*
X97031400Y-75406190D01*
X96793305Y-75882381D02*
X96793305Y-74882381D01*
X97174258Y-74882381D01*
X97269496Y-74930000D01*
X97317115Y-74977619D01*
X97364734Y-75072857D01*
X97364734Y-75215714D01*
X97317115Y-75310952D01*
X97269496Y-75358571D01*
X97174258Y-75406190D01*
X96793305Y-75406190D01*
X98221877Y-75215714D02*
X98221877Y-75882381D01*
X97983781Y-74834762D02*
X97745686Y-75549048D01*
X98364734Y-75549048D01*
X73066381Y-58324666D02*
X72590190Y-58658000D01*
X73066381Y-58896095D02*
X72066381Y-58896095D01*
X72066381Y-58515142D01*
X72114000Y-58419904D01*
X72161619Y-58372285D01*
X72256857Y-58324666D01*
X72399714Y-58324666D01*
X72494952Y-58372285D01*
X72542571Y-58419904D01*
X72590190Y-58515142D01*
X72590190Y-58896095D01*
X72494952Y-57753238D02*
X72447333Y-57848476D01*
X72399714Y-57896095D01*
X72304476Y-57943714D01*
X72256857Y-57943714D01*
X72161619Y-57896095D01*
X72114000Y-57848476D01*
X72066381Y-57753238D01*
X72066381Y-57562761D01*
X72114000Y-57467523D01*
X72161619Y-57419904D01*
X72256857Y-57372285D01*
X72304476Y-57372285D01*
X72399714Y-57419904D01*
X72447333Y-57467523D01*
X72494952Y-57562761D01*
X72494952Y-57753238D01*
X72542571Y-57848476D01*
X72590190Y-57896095D01*
X72685429Y-57943714D01*
X72875905Y-57943714D01*
X72971143Y-57896095D01*
X73018762Y-57848476D01*
X73066381Y-57753238D01*
X73066381Y-57562761D01*
X73018762Y-57467523D01*
X72971143Y-57419904D01*
X72875905Y-57372285D01*
X72685429Y-57372285D01*
X72590190Y-57419904D01*
X72542571Y-57467523D01*
X72494952Y-57562761D01*
X78654381Y-58324666D02*
X78178190Y-58658000D01*
X78654381Y-58896095D02*
X77654381Y-58896095D01*
X77654381Y-58515142D01*
X77702000Y-58419904D01*
X77749619Y-58372285D01*
X77844857Y-58324666D01*
X77987714Y-58324666D01*
X78082952Y-58372285D01*
X78130571Y-58419904D01*
X78178190Y-58515142D01*
X78178190Y-58896095D01*
X78654381Y-57848476D02*
X78654381Y-57658000D01*
X78606762Y-57562761D01*
X78559143Y-57515142D01*
X78416286Y-57419904D01*
X78225810Y-57372285D01*
X77844857Y-57372285D01*
X77749619Y-57419904D01*
X77702000Y-57467523D01*
X77654381Y-57562761D01*
X77654381Y-57753238D01*
X77702000Y-57848476D01*
X77749619Y-57896095D01*
X77844857Y-57943714D01*
X78082952Y-57943714D01*
X78178190Y-57896095D01*
X78225810Y-57848476D01*
X78273429Y-57753238D01*
X78273429Y-57562761D01*
X78225810Y-57467523D01*
X78178190Y-57419904D01*
X78082952Y-57372285D01*
X84005995Y-63477781D02*
X84005995Y-64287305D01*
X84053614Y-64382543D01*
X84101233Y-64430162D01*
X84196471Y-64477781D01*
X84386948Y-64477781D01*
X84482186Y-64430162D01*
X84529805Y-64382543D01*
X84577424Y-64287305D01*
X84577424Y-63477781D01*
X85577424Y-64477781D02*
X85005995Y-64477781D01*
X85291709Y-64477781D02*
X85291709Y-63477781D01*
X85196471Y-63620638D01*
X85101233Y-63715876D01*
X85005995Y-63763495D01*
X70810695Y-64544581D02*
X70810695Y-65354105D01*
X70858314Y-65449343D01*
X70905933Y-65496962D01*
X71001171Y-65544581D01*
X71191648Y-65544581D01*
X71286886Y-65496962D01*
X71334505Y-65449343D01*
X71382124Y-65354105D01*
X71382124Y-64544581D01*
X71810695Y-64639819D02*
X71858314Y-64592200D01*
X71953552Y-64544581D01*
X72191648Y-64544581D01*
X72286886Y-64592200D01*
X72334505Y-64639819D01*
X72382124Y-64735057D01*
X72382124Y-64830295D01*
X72334505Y-64973152D01*
X71763076Y-65544581D01*
X72382124Y-65544581D01*
X85515681Y-70222905D02*
X86325205Y-70222905D01*
X86420443Y-70175286D01*
X86468062Y-70127667D01*
X86515681Y-70032429D01*
X86515681Y-69841952D01*
X86468062Y-69746714D01*
X86420443Y-69699095D01*
X86325205Y-69651476D01*
X85515681Y-69651476D01*
X85515681Y-69270524D02*
X85515681Y-68651476D01*
X85896633Y-68984810D01*
X85896633Y-68841952D01*
X85944252Y-68746714D01*
X85991871Y-68699095D01*
X86087110Y-68651476D01*
X86325205Y-68651476D01*
X86420443Y-68699095D01*
X86468062Y-68746714D01*
X86515681Y-68841952D01*
X86515681Y-69127667D01*
X86468062Y-69222905D01*
X86420443Y-69270524D01*
X87341061Y-83902785D02*
X88150585Y-83902785D01*
X88245823Y-83855166D01*
X88293442Y-83807547D01*
X88341061Y-83712309D01*
X88341061Y-83521832D01*
X88293442Y-83426594D01*
X88245823Y-83378975D01*
X88150585Y-83331356D01*
X87341061Y-83331356D01*
X87341061Y-82378975D02*
X87341061Y-82855166D01*
X87817251Y-82902785D01*
X87769632Y-82855166D01*
X87722013Y-82759928D01*
X87722013Y-82521832D01*
X87769632Y-82426594D01*
X87817251Y-82378975D01*
X87912490Y-82331356D01*
X88150585Y-82331356D01*
X88245823Y-82378975D01*
X88293442Y-82426594D01*
X88341061Y-82521832D01*
X88341061Y-82759928D01*
X88293442Y-82855166D01*
X88245823Y-82902785D01*
X74499671Y-61926286D02*
X74499671Y-61176286D01*
X74678243Y-61176286D01*
X74785386Y-61212000D01*
X74856814Y-61283429D01*
X74892529Y-61354857D01*
X74928243Y-61497714D01*
X74928243Y-61604857D01*
X74892529Y-61747714D01*
X74856814Y-61819143D01*
X74785386Y-61890571D01*
X74678243Y-61926286D01*
X74499671Y-61926286D01*
X75249671Y-61926286D02*
X75249671Y-61176286D01*
X75678243Y-61926286D01*
X75678243Y-61176286D01*
X76428243Y-61926286D02*
X75999671Y-61926286D01*
X76213957Y-61926286D02*
X76213957Y-61176286D01*
X76142528Y-61283429D01*
X76071100Y-61354857D01*
X75999671Y-61390571D01*
X62020705Y-63068081D02*
X62020705Y-62068081D01*
X62401658Y-62068081D01*
X62496896Y-62115700D01*
X62544515Y-62163319D01*
X62592134Y-62258557D01*
X62592134Y-62401414D01*
X62544515Y-62496652D01*
X62496896Y-62544271D01*
X62401658Y-62591890D01*
X62020705Y-62591890D01*
X63544515Y-63068081D02*
X62973086Y-63068081D01*
X63258800Y-63068081D02*
X63258800Y-62068081D01*
X63163562Y-62210938D01*
X63068324Y-62306176D01*
X62973086Y-62353795D01*
X84648781Y-87712395D02*
X83648781Y-87712395D01*
X83648781Y-87331442D01*
X83696400Y-87236204D01*
X83744019Y-87188585D01*
X83839257Y-87140966D01*
X83982114Y-87140966D01*
X84077352Y-87188585D01*
X84124971Y-87236204D01*
X84172590Y-87331442D01*
X84172590Y-87712395D01*
X83744019Y-86760014D02*
X83696400Y-86712395D01*
X83648781Y-86617157D01*
X83648781Y-86379061D01*
X83696400Y-86283823D01*
X83744019Y-86236204D01*
X83839257Y-86188585D01*
X83934495Y-86188585D01*
X84077352Y-86236204D01*
X84648781Y-86807633D01*
X84648781Y-86188585D01*
X65603714Y-79725857D02*
X65603714Y-80697286D01*
X65660857Y-80811571D01*
X65718000Y-80868714D01*
X65832286Y-80925857D01*
X66060857Y-80925857D01*
X66175143Y-80868714D01*
X66232286Y-80811571D01*
X66289429Y-80697286D01*
X66289429Y-79725857D01*
X67375143Y-80125857D02*
X67375143Y-80925857D01*
X67089429Y-79668714D02*
X66803714Y-80525857D01*
X67546572Y-80525857D01*
X54448181Y-68548095D02*
X53448181Y-68548095D01*
X53448181Y-68310000D01*
X53495800Y-68167142D01*
X53591038Y-68071904D01*
X53686276Y-68024285D01*
X53876752Y-67976666D01*
X54019610Y-67976666D01*
X54210086Y-68024285D01*
X54305324Y-68071904D01*
X54400562Y-68167142D01*
X54448181Y-68310000D01*
X54448181Y-68548095D01*
X53543419Y-67595714D02*
X53495800Y-67548095D01*
X53448181Y-67452857D01*
X53448181Y-67214761D01*
X53495800Y-67119523D01*
X53543419Y-67071904D01*
X53638657Y-67024285D01*
X53733895Y-67024285D01*
X53876752Y-67071904D01*
X54448181Y-67643333D01*
X54448181Y-67024285D01*
X50730334Y-65087381D02*
X50397000Y-64611190D01*
X50158905Y-65087381D02*
X50158905Y-64087381D01*
X50539858Y-64087381D01*
X50635096Y-64135000D01*
X50682715Y-64182619D01*
X50730334Y-64277857D01*
X50730334Y-64420714D01*
X50682715Y-64515952D01*
X50635096Y-64563571D01*
X50539858Y-64611190D01*
X50158905Y-64611190D01*
X51635096Y-64087381D02*
X51158905Y-64087381D01*
X51111286Y-64563571D01*
X51158905Y-64515952D01*
X51254143Y-64468333D01*
X51492239Y-64468333D01*
X51587477Y-64515952D01*
X51635096Y-64563571D01*
X51682715Y-64658810D01*
X51682715Y-64896905D01*
X51635096Y-64992143D01*
X51587477Y-65039762D01*
X51492239Y-65087381D01*
X51254143Y-65087381D01*
X51158905Y-65039762D01*
X51111286Y-64992143D01*
X83409167Y-81067162D02*
X83552024Y-81114781D01*
X83790120Y-81114781D01*
X83885358Y-81067162D01*
X83932977Y-81019543D01*
X83980596Y-80924305D01*
X83980596Y-80829067D01*
X83932977Y-80733829D01*
X83885358Y-80686210D01*
X83790120Y-80638590D01*
X83599643Y-80590971D01*
X83504405Y-80543352D01*
X83456786Y-80495733D01*
X83409167Y-80400495D01*
X83409167Y-80305257D01*
X83456786Y-80210019D01*
X83504405Y-80162400D01*
X83599643Y-80114781D01*
X83837739Y-80114781D01*
X83980596Y-80162400D01*
X84313929Y-80114781D02*
X84552024Y-81114781D01*
X84742501Y-80400495D01*
X84932977Y-81114781D01*
X85171072Y-80114781D01*
X86075834Y-81114781D02*
X85504405Y-81114781D01*
X85790119Y-81114781D02*
X85790119Y-80114781D01*
X85694881Y-80257638D01*
X85599643Y-80352876D01*
X85504405Y-80400495D01*
X83115334Y-84264381D02*
X82782000Y-83788190D01*
X82543905Y-84264381D02*
X82543905Y-83264381D01*
X82924858Y-83264381D01*
X83020096Y-83312000D01*
X83067715Y-83359619D01*
X83115334Y-83454857D01*
X83115334Y-83597714D01*
X83067715Y-83692952D01*
X83020096Y-83740571D01*
X82924858Y-83788190D01*
X82543905Y-83788190D01*
X83448667Y-83264381D02*
X84067715Y-83264381D01*
X83734381Y-83645333D01*
X83877239Y-83645333D01*
X83972477Y-83692952D01*
X84020096Y-83740571D01*
X84067715Y-83835810D01*
X84067715Y-84073905D01*
X84020096Y-84169143D01*
X83972477Y-84216762D01*
X83877239Y-84264381D01*
X83591524Y-84264381D01*
X83496286Y-84216762D01*
X83448667Y-84169143D01*
X48727805Y-79130581D02*
X48727805Y-79940105D01*
X48775424Y-80035343D01*
X48823043Y-80082962D01*
X48918281Y-80130581D01*
X49108758Y-80130581D01*
X49203996Y-80082962D01*
X49251615Y-80035343D01*
X49299234Y-79940105D01*
X49299234Y-79130581D01*
X49727805Y-80082962D02*
X49870662Y-80130581D01*
X50108758Y-80130581D01*
X50203996Y-80082962D01*
X50251615Y-80035343D01*
X50299234Y-79940105D01*
X50299234Y-79844867D01*
X50251615Y-79749629D01*
X50203996Y-79702010D01*
X50108758Y-79654390D01*
X49918281Y-79606771D01*
X49823043Y-79559152D01*
X49775424Y-79511533D01*
X49727805Y-79416295D01*
X49727805Y-79321057D01*
X49775424Y-79225819D01*
X49823043Y-79178200D01*
X49918281Y-79130581D01*
X50156377Y-79130581D01*
X50299234Y-79178200D01*
X51061139Y-79606771D02*
X51203996Y-79654390D01*
X51251615Y-79702010D01*
X51299234Y-79797248D01*
X51299234Y-79940105D01*
X51251615Y-80035343D01*
X51203996Y-80082962D01*
X51108758Y-80130581D01*
X50727805Y-80130581D01*
X50727805Y-79130581D01*
X51061139Y-79130581D01*
X51156377Y-79178200D01*
X51203996Y-79225819D01*
X51251615Y-79321057D01*
X51251615Y-79416295D01*
X51203996Y-79511533D01*
X51156377Y-79559152D01*
X51061139Y-79606771D01*
X50727805Y-79606771D01*
X52251615Y-80130581D02*
X51680186Y-80130581D01*
X51965900Y-80130581D02*
X51965900Y-79130581D01*
X51870662Y-79273438D01*
X51775424Y-79368676D01*
X51680186Y-79416295D01*
X55951805Y-76987281D02*
X55951805Y-75987281D01*
X56189900Y-75987281D01*
X56332758Y-76034900D01*
X56427996Y-76130138D01*
X56475615Y-76225376D01*
X56523234Y-76415852D01*
X56523234Y-76558710D01*
X56475615Y-76749186D01*
X56427996Y-76844424D01*
X56332758Y-76939662D01*
X56189900Y-76987281D01*
X55951805Y-76987281D01*
X56856567Y-75987281D02*
X57475615Y-75987281D01*
X57142281Y-76368233D01*
X57285139Y-76368233D01*
X57380377Y-76415852D01*
X57427996Y-76463471D01*
X57475615Y-76558710D01*
X57475615Y-76796805D01*
X57427996Y-76892043D01*
X57380377Y-76939662D01*
X57285139Y-76987281D01*
X56999424Y-76987281D01*
X56904186Y-76939662D01*
X56856567Y-76892043D01*
M02*
