M48
;DRILL file {KiCad 4.0.4-stable} date 03/04/17 14:04:00
;FORMAT={-:-/ absolute / inch / decimal}
FMAT,2
INCH,TZ
T1C0.016
T2C0.040
T3C0.126
%
G90
G05
M72
T1
X2.0063Y-2.6047
X2.0888Y-2.9722
X2.1063Y-2.9022
X2.1388Y-2.9647
X2.1563Y-2.6872
X2.2438Y-2.4497
X2.2488Y-2.8247
X2.2738Y-2.6072
X2.2738Y-2.7647
X2.3488Y-2.9172
X2.3563Y-2.8172
X2.5013Y-3.3847
X2.5388Y-2.5047
X2.5413Y-2.7372
X2.5688Y-2.5147
X2.5738Y-2.3497
X2.5912Y-2.537
X2.6038Y-3.3797
X2.6064Y-2.5648
X2.6138Y-2.7372
X2.6382Y-2.5853
X2.6513Y-2.4397
X2.6563Y-2.86
X2.6725Y-2.5997
X2.6913Y-2.7953
X2.7138Y-2.5822
X2.7151Y-2.8222
X2.7163Y-2.7072
X2.7213Y-2.7472
X2.7413Y-3.2947
X2.7463Y-2.5722
X2.7538Y-2.7597
X2.7538Y-3.0422
X2.7776Y-3.2047
X2.8175Y-2.3572
X2.8238Y-3.4572
X2.8313Y-2.6684
X2.8388Y-3.3553
X2.8463Y-2.4047
X2.8588Y-2.6922
X2.8688Y-3.0397
X2.871Y-2.8375
X2.8863Y-2.5022
X2.8913Y-2.7148
X2.8935Y-2.86
X2.9038Y-3.2247
X2.9088Y-2.4172
X2.9159Y-2.8824
X2.9213Y-2.7359
X2.9288Y-3.1404
X2.9488Y-2.9072
X2.9488Y-3.0672
X2.9555Y-2.7534
X2.9588Y-2.6822
X2.9863Y-2.7618
X2.9863Y-2.7934
X3.0054Y-2.8753
X3.0113Y-2.361
X3.0313Y-3.2172
X3.0363Y-2.7722
X3.0363Y-2.8697
X3.0601Y-2.7397
X3.0613Y-2.8447
X3.0898Y-2.7506
X3.0913Y-2.8647
X3.1138Y-2.6472
X3.1188Y-2.4047
X3.1213Y-3.3172
X3.1363Y-2.5884
X3.1388Y-2.32
X3.1438Y-2.7822
X3.1463Y-2.9797
X3.1613Y-2.636
X3.1613Y-2.8547
X3.1829Y-2.7531
X3.1913Y-2.6472
X3.1913Y-2.7997
X3.2164Y-2.9897
X3.2338Y-3.1722
X3.2388Y-2.6072
X3.2488Y-2.6822
X3.2488Y-2.9172
X3.2888Y-3.2022
X3.2913Y-3.5747
X3.3138Y-2.5647
X3.3288Y-2.7072
X3.339Y-2.6097
X3.3463Y-2.8422
X3.3932Y-3.2597
X3.4163Y-2.5197
X3.4194Y-2.9028
X3.4213Y-2.4744
X3.4213Y-2.9747
X3.428Y-2.2672
X3.4413Y-2.6879
X3.4413Y-3.1297
X3.4538Y-2.9897
X3.4836Y-2.9767
X3.4999Y-2.6847
X3.5042Y-3.5697
X3.5138Y-2.8552
X3.5138Y-2.9572
X3.5188Y-2.2668
X3.5462Y-2.6172
X3.5463Y-2.8422
X3.5788Y-3.2797
X3.5938Y-2.4972
X3.6029Y-2.6249
X3.6238Y-2.5706
X3.6888Y-2.9834
X3.7363Y-2.8022
X3.7369Y-2.6997
X3.7388Y-2.4915
X3.7388Y-2.9639
X3.7405Y-3.2772
X3.7405Y-3.1197
X3.7406Y-2.6472
X3.7413Y-2.3891
X3.7413Y-3.1822
X3.7419Y-2.5472
X3.742Y-3.0197
X3.7463Y-2.8854
X3.7801Y-3.4972
X3.8113Y-3.4231
X3.8488Y-3.0422
X3.8513Y-3.1972
X3.8532Y-2.7272
X3.8538Y-2.5703
X3.8557Y-2.8872
X3.8663Y-2.4147
X3.9588Y-2.3072
X3.9838Y-2.4097
X4.0138Y-3.3422
X4.0538Y-3.2241
X4.0638Y-2.3047
X4.1638Y-3.3241
T2
X2.3733Y-2.2722
X2.3838Y-3.2497
X2.3838Y-3.3497
X2.3838Y-3.4497
X2.4733Y-2.2722
X4.0531Y-2.6709
X4.0531Y-2.7709
X4.0531Y-2.8709
X4.0531Y-2.9709
X4.0531Y-3.0709
X4.1531Y-2.6709
X4.1531Y-2.7709
X4.1531Y-2.8709
X4.1531Y-2.9709
X4.1531Y-3.0709
T3
X2.0079Y-2.3039
X2.0079Y-3.5039
X4.2579Y-2.3039
X4.2579Y-3.5039
T0
M30
