G04 #@! TF.FileFunction,Legend,Top*
%FSLAX46Y46*%
G04 Gerber Fmt 4.6, Leading zero omitted, Abs format (unit mm)*
G04 Created by KiCad (PCBNEW 4.0.4-stable) date 03/04/17 14:03:53*
%MOMM*%
%LPD*%
G01*
G04 APERTURE LIST*
%ADD10C,0.100000*%
%ADD11C,0.180000*%
%ADD12C,0.250000*%
%ADD13C,0.150000*%
%ADD14C,0.120000*%
G04 APERTURE END LIST*
D10*
D11*
X92089595Y-84618405D02*
X91822928Y-84237452D01*
X91632452Y-84618405D02*
X91632452Y-83818405D01*
X91937214Y-83818405D01*
X92013405Y-83856500D01*
X92051500Y-83894595D01*
X92089595Y-83970786D01*
X92089595Y-84085071D01*
X92051500Y-84161262D01*
X92013405Y-84199357D01*
X91937214Y-84237452D01*
X91632452Y-84237452D01*
X92432452Y-84199357D02*
X92699119Y-84199357D01*
X92813405Y-84618405D02*
X92432452Y-84618405D01*
X92432452Y-83818405D01*
X92813405Y-83818405D01*
X93118167Y-84580310D02*
X93232453Y-84618405D01*
X93422929Y-84618405D01*
X93499119Y-84580310D01*
X93537215Y-84542214D01*
X93575310Y-84466024D01*
X93575310Y-84389833D01*
X93537215Y-84313643D01*
X93499119Y-84275548D01*
X93422929Y-84237452D01*
X93270548Y-84199357D01*
X93194357Y-84161262D01*
X93156262Y-84123167D01*
X93118167Y-84046976D01*
X93118167Y-83970786D01*
X93156262Y-83894595D01*
X93194357Y-83856500D01*
X93270548Y-83818405D01*
X93461024Y-83818405D01*
X93575310Y-83856500D01*
X93918167Y-84199357D02*
X94184834Y-84199357D01*
X94299120Y-84618405D02*
X93918167Y-84618405D01*
X93918167Y-83818405D01*
X94299120Y-83818405D01*
X94527691Y-83818405D02*
X94984834Y-83818405D01*
X94756263Y-84618405D02*
X94756263Y-83818405D01*
X64581572Y-84199357D02*
X64695858Y-84237452D01*
X64733953Y-84275548D01*
X64772048Y-84351738D01*
X64772048Y-84466024D01*
X64733953Y-84542214D01*
X64695858Y-84580310D01*
X64619667Y-84618405D01*
X64314905Y-84618405D01*
X64314905Y-83818405D01*
X64581572Y-83818405D01*
X64657762Y-83856500D01*
X64695858Y-83894595D01*
X64733953Y-83970786D01*
X64733953Y-84046976D01*
X64695858Y-84123167D01*
X64657762Y-84161262D01*
X64581572Y-84199357D01*
X64314905Y-84199357D01*
X65267286Y-83818405D02*
X65419667Y-83818405D01*
X65495858Y-83856500D01*
X65572048Y-83932690D01*
X65610143Y-84085071D01*
X65610143Y-84351738D01*
X65572048Y-84504119D01*
X65495858Y-84580310D01*
X65419667Y-84618405D01*
X65267286Y-84618405D01*
X65191096Y-84580310D01*
X65114905Y-84504119D01*
X65076810Y-84351738D01*
X65076810Y-84085071D01*
X65114905Y-83932690D01*
X65191096Y-83856500D01*
X65267286Y-83818405D01*
X66105381Y-83818405D02*
X66257762Y-83818405D01*
X66333953Y-83856500D01*
X66410143Y-83932690D01*
X66448238Y-84085071D01*
X66448238Y-84351738D01*
X66410143Y-84504119D01*
X66333953Y-84580310D01*
X66257762Y-84618405D01*
X66105381Y-84618405D01*
X66029191Y-84580310D01*
X65953000Y-84504119D01*
X65914905Y-84351738D01*
X65914905Y-84085071D01*
X65953000Y-83932690D01*
X66029191Y-83856500D01*
X66105381Y-83818405D01*
X66676809Y-83818405D02*
X67133952Y-83818405D01*
X66905381Y-84618405D02*
X66905381Y-83818405D01*
X67781572Y-84618405D02*
X67400619Y-84618405D01*
X67400619Y-83818405D01*
X68200619Y-83818405D02*
X68353000Y-83818405D01*
X68429191Y-83856500D01*
X68505381Y-83932690D01*
X68543476Y-84085071D01*
X68543476Y-84351738D01*
X68505381Y-84504119D01*
X68429191Y-84580310D01*
X68353000Y-84618405D01*
X68200619Y-84618405D01*
X68124429Y-84580310D01*
X68048238Y-84504119D01*
X68010143Y-84351738D01*
X68010143Y-84085071D01*
X68048238Y-83932690D01*
X68124429Y-83856500D01*
X68200619Y-83818405D01*
X68848238Y-84389833D02*
X69229190Y-84389833D01*
X68772047Y-84618405D02*
X69038714Y-83818405D01*
X69305381Y-84618405D01*
X69572047Y-84618405D02*
X69572047Y-83818405D01*
X69762523Y-83818405D01*
X69876809Y-83856500D01*
X69953000Y-83932690D01*
X69991095Y-84008881D01*
X70029190Y-84161262D01*
X70029190Y-84275548D01*
X69991095Y-84427929D01*
X69953000Y-84504119D01*
X69876809Y-84580310D01*
X69762523Y-84618405D01*
X69572047Y-84618405D01*
X62701667Y-60805905D02*
X62435000Y-60424952D01*
X62244524Y-60805905D02*
X62244524Y-60005905D01*
X62549286Y-60005905D01*
X62625477Y-60044000D01*
X62663572Y-60082095D01*
X62701667Y-60158286D01*
X62701667Y-60272571D01*
X62663572Y-60348762D01*
X62625477Y-60386857D01*
X62549286Y-60424952D01*
X62244524Y-60424952D01*
X62968334Y-60005905D02*
X63501667Y-60805905D01*
X63501667Y-60005905D02*
X62968334Y-60805905D01*
X59367976Y-60005905D02*
X59825119Y-60005905D01*
X59596548Y-60805905D02*
X59596548Y-60005905D01*
X60015596Y-60005905D02*
X60548929Y-60805905D01*
X60548929Y-60005905D02*
X60015596Y-60805905D01*
D12*
X56535095Y-60422309D02*
X57587476Y-60422309D01*
X57711286Y-60360404D01*
X57773190Y-60298500D01*
X57835095Y-60174690D01*
X57835095Y-59927071D01*
X57773190Y-59803262D01*
X57711286Y-59741357D01*
X57587476Y-59679452D01*
X56535095Y-59679452D01*
X57463667Y-59122309D02*
X57463667Y-58503261D01*
X57835095Y-59246118D02*
X56535095Y-58812785D01*
X57835095Y-58379452D01*
X57835095Y-57203261D02*
X57216048Y-57636594D01*
X57835095Y-57946118D02*
X56535095Y-57946118D01*
X56535095Y-57450880D01*
X56597000Y-57327071D01*
X56658905Y-57265166D01*
X56782714Y-57203261D01*
X56968429Y-57203261D01*
X57092238Y-57265166D01*
X57154143Y-57327071D01*
X57216048Y-57450880D01*
X57216048Y-57946118D01*
X56535095Y-56831832D02*
X56535095Y-56088975D01*
X57835095Y-56460404D02*
X56535095Y-56460404D01*
X59343453Y-80209095D02*
X59343453Y-78909095D01*
X59900596Y-80147190D02*
X60086310Y-80209095D01*
X60395834Y-80209095D01*
X60519644Y-80147190D01*
X60581548Y-80085286D01*
X60643453Y-79961476D01*
X60643453Y-79837667D01*
X60581548Y-79713857D01*
X60519644Y-79651952D01*
X60395834Y-79590048D01*
X60148215Y-79528143D01*
X60024406Y-79466238D01*
X59962501Y-79404333D01*
X59900596Y-79280524D01*
X59900596Y-79156714D01*
X59962501Y-79032905D01*
X60024406Y-78971000D01*
X60148215Y-78909095D01*
X60457739Y-78909095D01*
X60643453Y-78971000D01*
X61200596Y-80209095D02*
X61200596Y-78909095D01*
X61695834Y-78909095D01*
X61819643Y-78971000D01*
X61881548Y-79032905D01*
X61943453Y-79156714D01*
X61943453Y-79342429D01*
X61881548Y-79466238D01*
X61819643Y-79528143D01*
X61695834Y-79590048D01*
X61200596Y-79590048D01*
D11*
X56383477Y-86841000D02*
X56307286Y-86802905D01*
X56193001Y-86802905D01*
X56078715Y-86841000D01*
X56002524Y-86917190D01*
X55964429Y-86993381D01*
X55926334Y-87145762D01*
X55926334Y-87260048D01*
X55964429Y-87412429D01*
X56002524Y-87488619D01*
X56078715Y-87564810D01*
X56193001Y-87602905D01*
X56269191Y-87602905D01*
X56383477Y-87564810D01*
X56421572Y-87526714D01*
X56421572Y-87260048D01*
X56269191Y-87260048D01*
X56764429Y-87602905D02*
X56764429Y-86802905D01*
X57221572Y-87602905D01*
X57221572Y-86802905D01*
X57602524Y-87602905D02*
X57602524Y-86802905D01*
X57793000Y-86802905D01*
X57907286Y-86841000D01*
X57983477Y-86917190D01*
X58021572Y-86993381D01*
X58059667Y-87145762D01*
X58059667Y-87260048D01*
X58021572Y-87412429D01*
X57983477Y-87488619D01*
X57907286Y-87564810D01*
X57793000Y-87602905D01*
X57602524Y-87602905D01*
X56459667Y-85113714D02*
X56421572Y-85151810D01*
X56307286Y-85189905D01*
X56231096Y-85189905D01*
X56116810Y-85151810D01*
X56040619Y-85075619D01*
X56002524Y-84999429D01*
X55964429Y-84847048D01*
X55964429Y-84732762D01*
X56002524Y-84580381D01*
X56040619Y-84504190D01*
X56116810Y-84428000D01*
X56231096Y-84389905D01*
X56307286Y-84389905D01*
X56421572Y-84428000D01*
X56459667Y-84466095D01*
X56764429Y-84466095D02*
X56802524Y-84428000D01*
X56878715Y-84389905D01*
X57069191Y-84389905D01*
X57145381Y-84428000D01*
X57183477Y-84466095D01*
X57221572Y-84542286D01*
X57221572Y-84618476D01*
X57183477Y-84732762D01*
X56726334Y-85189905D01*
X57221572Y-85189905D01*
X57564429Y-85189905D02*
X57564429Y-84389905D01*
X57754905Y-84389905D01*
X57869191Y-84428000D01*
X57945382Y-84504190D01*
X57983477Y-84580381D01*
X58021572Y-84732762D01*
X58021572Y-84847048D01*
X57983477Y-84999429D01*
X57945382Y-85075619D01*
X57869191Y-85151810D01*
X57754905Y-85189905D01*
X57564429Y-85189905D01*
X56459667Y-82446714D02*
X56421572Y-82484810D01*
X56307286Y-82522905D01*
X56231096Y-82522905D01*
X56116810Y-82484810D01*
X56040619Y-82408619D01*
X56002524Y-82332429D01*
X55964429Y-82180048D01*
X55964429Y-82065762D01*
X56002524Y-81913381D01*
X56040619Y-81837190D01*
X56116810Y-81761000D01*
X56231096Y-81722905D01*
X56307286Y-81722905D01*
X56421572Y-81761000D01*
X56459667Y-81799095D01*
X56764429Y-81799095D02*
X56802524Y-81761000D01*
X56878715Y-81722905D01*
X57069191Y-81722905D01*
X57145381Y-81761000D01*
X57183477Y-81799095D01*
X57221572Y-81875286D01*
X57221572Y-81951476D01*
X57183477Y-82065762D01*
X56726334Y-82522905D01*
X57221572Y-82522905D01*
X57564429Y-82522905D02*
X57564429Y-81722905D01*
X58021572Y-82522905D02*
X57678715Y-82065762D01*
X58021572Y-81722905D02*
X57564429Y-82180048D01*
D13*
X51301500Y-65071500D02*
X51301500Y-64071500D01*
X52651500Y-64071500D02*
X52651500Y-65071500D01*
X80015000Y-60540000D02*
X80015000Y-59840000D01*
X81215000Y-59840000D02*
X81215000Y-60540000D01*
X72526000Y-83820000D02*
X72526000Y-84820000D01*
X74226000Y-84820000D02*
X74226000Y-83820000D01*
X87821500Y-57812000D02*
X88521500Y-57812000D01*
X88521500Y-59012000D02*
X87821500Y-59012000D01*
X76686000Y-90885000D02*
X77686000Y-90885000D01*
X77686000Y-89185000D02*
X76686000Y-89185000D01*
X80273000Y-85153500D02*
X80273000Y-86153500D01*
X81973000Y-86153500D02*
X81973000Y-85153500D01*
X90553500Y-90444500D02*
X89853500Y-90444500D01*
X89853500Y-89244500D02*
X90553500Y-89244500D01*
X74357000Y-75334000D02*
X74357000Y-76034000D01*
X73157000Y-76034000D02*
X73157000Y-75334000D01*
X84392500Y-74766500D02*
X85092500Y-74766500D01*
X85092500Y-75966500D02*
X84392500Y-75966500D01*
X76368500Y-80344000D02*
X77368500Y-80344000D01*
X77368500Y-78644000D02*
X76368500Y-78644000D01*
X89089000Y-80731500D02*
X89089000Y-81431500D01*
X87889000Y-81431500D02*
X87889000Y-80731500D01*
X91248000Y-80731500D02*
X91248000Y-81431500D01*
X90048000Y-81431500D02*
X90048000Y-80731500D01*
X60589000Y-75692000D02*
X60589000Y-76692000D01*
X59239000Y-76692000D02*
X59239000Y-75692000D01*
X86846000Y-85169000D02*
X87846000Y-85169000D01*
X87846000Y-86519000D02*
X86846000Y-86519000D01*
X71193500Y-57975500D02*
X71193500Y-58975500D01*
X69843500Y-58975500D02*
X69843500Y-57975500D01*
X78305500Y-57975500D02*
X78305500Y-58975500D01*
X76955500Y-58975500D02*
X76955500Y-57975500D01*
X83610500Y-57667000D02*
G75*
G03X83610500Y-57667000I-100000J0D01*
G01*
X84060500Y-57917000D02*
X83560500Y-57917000D01*
X84060500Y-60817000D02*
X84060500Y-57917000D01*
X83560500Y-60817000D02*
X84060500Y-60817000D01*
X83560500Y-57917000D02*
X83560500Y-60817000D01*
X63401000Y-68185500D02*
X63401000Y-68710500D01*
X70651000Y-68185500D02*
X70651000Y-68710500D01*
X70651000Y-75435500D02*
X70651000Y-74910500D01*
X63401000Y-75435500D02*
X63401000Y-74910500D01*
X63401000Y-68185500D02*
X63926000Y-68185500D01*
X63401000Y-75435500D02*
X63926000Y-75435500D01*
X70651000Y-75435500D02*
X70126000Y-75435500D01*
X70651000Y-68185500D02*
X70126000Y-68185500D01*
X63401000Y-68710500D02*
X62026000Y-68710500D01*
X75372500Y-69048500D02*
X75372500Y-73498500D01*
X82122500Y-67523500D02*
X82122500Y-73498500D01*
X84727260Y-79655340D02*
X84727260Y-79703600D01*
X85428300Y-82454320D02*
X84727260Y-82454320D01*
X84727260Y-82454320D02*
X84727260Y-82205400D01*
X84727260Y-79655340D02*
X84727260Y-79454680D01*
X84727260Y-79454680D02*
X85428300Y-79454680D01*
X73134700Y-60875200D02*
X73134700Y-58728900D01*
X73134700Y-58728900D02*
X73160100Y-58741600D01*
X75331800Y-60875200D02*
X73122500Y-60875200D01*
X75331800Y-58728900D02*
X75331800Y-60849800D01*
X73160100Y-58728900D02*
X75344500Y-58728900D01*
X58732300Y-59263500D02*
X60282300Y-59263500D01*
X64092300Y-58983500D02*
X61552300Y-58983500D01*
X61552300Y-58983500D02*
X61552300Y-56443500D01*
X60282300Y-56163500D02*
X58732300Y-56163500D01*
X58732300Y-56163500D02*
X58732300Y-59263500D01*
X61552300Y-56443500D02*
X64092300Y-56443500D01*
X64092300Y-56443500D02*
X64092300Y-58983500D01*
X62099000Y-82542000D02*
X62099000Y-80992000D01*
X62099000Y-80992000D02*
X58999000Y-80992000D01*
X58999000Y-80992000D02*
X58999000Y-82542000D01*
X61819000Y-83812000D02*
X61819000Y-88892000D01*
X61819000Y-88892000D02*
X59279000Y-88892000D01*
X59279000Y-88892000D02*
X59279000Y-83812000D01*
X59279000Y-83812000D02*
X61819000Y-83812000D01*
X53924500Y-63788000D02*
X55824500Y-63788000D01*
X53924500Y-62688000D02*
X55824500Y-62688000D01*
X54824500Y-63238000D02*
X55274500Y-63238000D01*
X54774500Y-62988000D02*
X54774500Y-63488000D01*
X54774500Y-63238000D02*
X55024500Y-62988000D01*
X55024500Y-62988000D02*
X55024500Y-63488000D01*
X55024500Y-63488000D02*
X54774500Y-63238000D01*
X90126000Y-85230000D02*
X90126000Y-87770000D01*
X96476000Y-87643000D02*
X96476000Y-87770000D01*
X96476000Y-87770000D02*
X94825000Y-87770000D01*
X94825000Y-87770000D02*
X90126000Y-87770000D01*
X90126000Y-85230000D02*
X95460000Y-85230000D01*
X95460000Y-85230000D02*
X96476000Y-85230000D01*
X96476000Y-85230000D02*
X96476000Y-87516000D01*
X96476000Y-87516000D02*
X96476000Y-87643000D01*
X94148500Y-89169500D02*
X95148500Y-89169500D01*
X95148500Y-90519500D02*
X94148500Y-90519500D01*
X52815400Y-69391200D02*
X52815400Y-78700300D01*
X52396300Y-69403900D02*
X52790000Y-69403900D01*
X52828100Y-78725700D02*
X47773500Y-78725700D01*
X47773500Y-78725700D02*
X47773500Y-69480100D01*
X47798900Y-69403900D02*
X52497900Y-69403900D01*
X53652700Y-71658100D02*
X53652700Y-75150600D01*
X53703500Y-75176000D02*
X58135800Y-75176000D01*
X58135800Y-71683500D02*
X58135800Y-75176000D01*
X53652700Y-71670800D02*
X58085000Y-71670800D01*
X77958000Y-88082000D02*
X78958000Y-87082000D01*
X78958000Y-87082000D02*
X78958000Y-82082000D01*
X78958000Y-82082000D02*
X75668000Y-82082000D01*
X75668000Y-82082000D02*
X75668000Y-88082000D01*
X75668000Y-88082000D02*
X77958000Y-88082000D01*
X69891500Y-88661500D02*
X70891500Y-88661500D01*
X70891500Y-90011500D02*
X69891500Y-90011500D01*
X70314000Y-87770000D02*
X70314000Y-85230000D01*
X63964000Y-85357000D02*
X63964000Y-85230000D01*
X63964000Y-85230000D02*
X65615000Y-85230000D01*
X65615000Y-85230000D02*
X70314000Y-85230000D01*
X70314000Y-87770000D02*
X64980000Y-87770000D01*
X64980000Y-87770000D02*
X63964000Y-87770000D01*
X63964000Y-87770000D02*
X63964000Y-85484000D01*
X63964000Y-85484000D02*
X63964000Y-85357000D01*
X86422000Y-66253500D02*
X86422000Y-66953500D01*
X85222000Y-66953500D02*
X85222000Y-66253500D01*
X64698000Y-78013000D02*
X64698000Y-79913000D01*
X65798000Y-78013000D02*
X65798000Y-79913000D01*
X65248000Y-78913000D02*
X65248000Y-79363000D01*
X65498000Y-78863000D02*
X64998000Y-78863000D01*
X65248000Y-78863000D02*
X65498000Y-79113000D01*
X65498000Y-79113000D02*
X64998000Y-79113000D01*
X64998000Y-79113000D02*
X65248000Y-78863000D01*
X97650240Y-71299160D02*
X97650240Y-71250900D01*
X96949200Y-68500180D02*
X97650240Y-68500180D01*
X97650240Y-68500180D02*
X97650240Y-68749100D01*
X97650240Y-71299160D02*
X97650240Y-71499820D01*
X97650240Y-71499820D02*
X96949200Y-71499820D01*
X100715340Y-61221240D02*
X100763600Y-61221240D01*
X103514320Y-60520200D02*
X103514320Y-61221240D01*
X103514320Y-61221240D02*
X103265400Y-61221240D01*
X100715340Y-61221240D02*
X100514680Y-61221240D01*
X100514680Y-61221240D02*
X100514680Y-60520200D01*
X97650240Y-75299160D02*
X97650240Y-75250900D01*
X96949200Y-72500180D02*
X97650240Y-72500180D01*
X97650240Y-72500180D02*
X97650240Y-72749100D01*
X97650240Y-75299160D02*
X97650240Y-75499820D01*
X97650240Y-75499820D02*
X96949200Y-75499820D01*
X105091660Y-82463260D02*
X105043400Y-82463260D01*
X102292680Y-83164300D02*
X102292680Y-82463260D01*
X102292680Y-82463260D02*
X102541600Y-82463260D01*
X105091660Y-82463260D02*
X105292320Y-82463260D01*
X105292320Y-82463260D02*
X105292320Y-83164300D01*
X97650240Y-63299160D02*
X97650240Y-63250900D01*
X96949200Y-60500180D02*
X97650240Y-60500180D01*
X97650240Y-60500180D02*
X97650240Y-60749100D01*
X97650240Y-63299160D02*
X97650240Y-63499820D01*
X97650240Y-63499820D02*
X96949200Y-63499820D01*
X97650240Y-67299160D02*
X97650240Y-67250900D01*
X96949200Y-64500180D02*
X97650240Y-64500180D01*
X97650240Y-64500180D02*
X97650240Y-64749100D01*
X97650240Y-67299160D02*
X97650240Y-67499820D01*
X97650240Y-67499820D02*
X96949200Y-67499820D01*
X97650240Y-79299160D02*
X97650240Y-79250900D01*
X96949200Y-76500180D02*
X97650240Y-76500180D01*
X97650240Y-76500180D02*
X97650240Y-76749100D01*
X97650240Y-79299160D02*
X97650240Y-79499820D01*
X97650240Y-79499820D02*
X96949200Y-79499820D01*
X97650240Y-83299160D02*
X97650240Y-83250900D01*
X96949200Y-80500180D02*
X97650240Y-80500180D01*
X97650240Y-80500180D02*
X97650240Y-80749100D01*
X97650240Y-83299160D02*
X97650240Y-83499820D01*
X97650240Y-83499820D02*
X96949200Y-83499820D01*
X55718500Y-67635500D02*
X55718500Y-69635500D01*
X53568500Y-69635500D02*
X53568500Y-67635500D01*
X106760000Y-66570000D02*
X115590000Y-66570000D01*
X106760000Y-69110000D02*
X106760000Y-66570000D01*
X115590000Y-69110000D02*
X115590000Y-66570000D01*
X115590000Y-66570000D02*
X106760000Y-66570000D01*
X115590000Y-69110000D02*
X106760000Y-69110000D01*
X115590000Y-71650000D02*
X115590000Y-69110000D01*
X106760000Y-71650000D02*
X106760000Y-69110000D01*
X106760000Y-69110000D02*
X115590000Y-69110000D01*
X106760000Y-71650000D02*
X115590000Y-71650000D01*
X106760000Y-74190000D02*
X106760000Y-71650000D01*
X115590000Y-74190000D02*
X115590000Y-71650000D01*
X115590000Y-71650000D02*
X106760000Y-71650000D01*
X115590000Y-74190000D02*
X106760000Y-74190000D01*
X115590000Y-76730000D02*
X115590000Y-74190000D01*
X106760000Y-76730000D02*
X106760000Y-74190000D01*
X106760000Y-74190000D02*
X115590000Y-74190000D01*
X106760000Y-76730000D02*
X115590000Y-76730000D01*
X106760000Y-79270000D02*
X106760000Y-76730000D01*
X101800000Y-78000000D02*
X101800000Y-79550000D01*
X101800000Y-79550000D02*
X102950000Y-79550000D01*
X106760000Y-79270000D02*
X115590000Y-79270000D01*
X115590000Y-79270000D02*
X115590000Y-76730000D01*
X115590000Y-76730000D02*
X106760000Y-76730000D01*
X57826500Y-66563500D02*
X58826500Y-66563500D01*
X58826500Y-67913500D02*
X57826500Y-67913500D01*
X57826500Y-68532000D02*
X58826500Y-68532000D01*
X58826500Y-69882000D02*
X57826500Y-69882000D01*
X67796000Y-80978000D02*
X68796000Y-80978000D01*
X68796000Y-82328000D02*
X67796000Y-82328000D01*
X87306000Y-64119000D02*
X87306000Y-63119000D01*
X88656000Y-63119000D02*
X88656000Y-64119000D01*
X90910000Y-75390000D02*
X91910000Y-75390000D01*
X91910000Y-76740000D02*
X90910000Y-76740000D01*
X83369000Y-71485000D02*
X83369000Y-70485000D01*
X84719000Y-70485000D02*
X84719000Y-71485000D01*
X92209500Y-68533000D02*
X92109500Y-68533000D01*
X92209500Y-73183000D02*
X92009500Y-73183000D01*
X88959500Y-73183000D02*
X89159500Y-73183000D01*
X88959500Y-68533000D02*
X89159500Y-68533000D01*
X92209500Y-68533000D02*
X92209500Y-73183000D01*
X88959500Y-68533000D02*
X88959500Y-73183000D01*
X92109500Y-68533000D02*
X92109500Y-67183000D01*
D14*
X66485500Y-62066500D02*
X67185500Y-62066500D01*
X67185500Y-63266500D02*
X66485500Y-63266500D01*
X89488000Y-62919000D02*
X89488000Y-64819000D01*
X91808000Y-64319000D02*
X91808000Y-62919000D01*
X85297000Y-70158000D02*
X85297000Y-72058000D01*
X87617000Y-71558000D02*
X87617000Y-70158000D01*
D13*
X70780500Y-61991500D02*
X71780500Y-61991500D01*
X71780500Y-63341500D02*
X70780500Y-63341500D01*
D14*
X81215000Y-78064500D02*
X81215000Y-78764500D01*
X80015000Y-78764500D02*
X80015000Y-78064500D01*
X66485500Y-59971000D02*
X67185500Y-59971000D01*
X67185500Y-61171000D02*
X66485500Y-61171000D01*
X82993000Y-78064500D02*
X82993000Y-78764500D01*
X81793000Y-78764500D02*
X81793000Y-78064500D01*
D13*
X50523881Y-64928666D02*
X50047690Y-65262000D01*
X50523881Y-65500095D02*
X49523881Y-65500095D01*
X49523881Y-65119142D01*
X49571500Y-65023904D01*
X49619119Y-64976285D01*
X49714357Y-64928666D01*
X49857214Y-64928666D01*
X49952452Y-64976285D01*
X50000071Y-65023904D01*
X50047690Y-65119142D01*
X50047690Y-65500095D01*
X49523881Y-64023904D02*
X49523881Y-64500095D01*
X50000071Y-64547714D01*
X49952452Y-64500095D01*
X49904833Y-64404857D01*
X49904833Y-64166761D01*
X49952452Y-64071523D01*
X50000071Y-64023904D01*
X50095310Y-63976285D01*
X50333405Y-63976285D01*
X50428643Y-64023904D01*
X50476262Y-64071523D01*
X50523881Y-64166761D01*
X50523881Y-64404857D01*
X50476262Y-64500095D01*
X50428643Y-64547714D01*
X80448334Y-57753143D02*
X80400715Y-57800762D01*
X80257858Y-57848381D01*
X80162620Y-57848381D01*
X80019762Y-57800762D01*
X79924524Y-57705524D01*
X79876905Y-57610286D01*
X79829286Y-57419810D01*
X79829286Y-57276952D01*
X79876905Y-57086476D01*
X79924524Y-56991238D01*
X80019762Y-56896000D01*
X80162620Y-56848381D01*
X80257858Y-56848381D01*
X80400715Y-56896000D01*
X80448334Y-56943619D01*
X81400715Y-57848381D02*
X80829286Y-57848381D01*
X81115000Y-57848381D02*
X81115000Y-56848381D01*
X81019762Y-56991238D01*
X80924524Y-57086476D01*
X80829286Y-57134095D01*
X73733143Y-88062666D02*
X73780762Y-88110285D01*
X73828381Y-88253142D01*
X73828381Y-88348380D01*
X73780762Y-88491238D01*
X73685524Y-88586476D01*
X73590286Y-88634095D01*
X73399810Y-88681714D01*
X73256952Y-88681714D01*
X73066476Y-88634095D01*
X72971238Y-88586476D01*
X72876000Y-88491238D01*
X72828381Y-88348380D01*
X72828381Y-88253142D01*
X72876000Y-88110285D01*
X72923619Y-88062666D01*
X72923619Y-87681714D02*
X72876000Y-87634095D01*
X72828381Y-87538857D01*
X72828381Y-87300761D01*
X72876000Y-87205523D01*
X72923619Y-87157904D01*
X73018857Y-87110285D01*
X73114095Y-87110285D01*
X73256952Y-87157904D01*
X73828381Y-87729333D01*
X73828381Y-87110285D01*
X91243334Y-58832643D02*
X91195715Y-58880262D01*
X91052858Y-58927881D01*
X90957620Y-58927881D01*
X90814762Y-58880262D01*
X90719524Y-58785024D01*
X90671905Y-58689786D01*
X90624286Y-58499310D01*
X90624286Y-58356452D01*
X90671905Y-58165976D01*
X90719524Y-58070738D01*
X90814762Y-57975500D01*
X90957620Y-57927881D01*
X91052858Y-57927881D01*
X91195715Y-57975500D01*
X91243334Y-58023119D01*
X91576667Y-57927881D02*
X92195715Y-57927881D01*
X91862381Y-58308833D01*
X92005239Y-58308833D01*
X92100477Y-58356452D01*
X92148096Y-58404071D01*
X92195715Y-58499310D01*
X92195715Y-58737405D01*
X92148096Y-58832643D01*
X92100477Y-58880262D01*
X92005239Y-58927881D01*
X91719524Y-58927881D01*
X91624286Y-58880262D01*
X91576667Y-58832643D01*
X80740434Y-90290543D02*
X80692815Y-90338162D01*
X80549958Y-90385781D01*
X80454720Y-90385781D01*
X80311862Y-90338162D01*
X80216624Y-90242924D01*
X80169005Y-90147686D01*
X80121386Y-89957210D01*
X80121386Y-89814352D01*
X80169005Y-89623876D01*
X80216624Y-89528638D01*
X80311862Y-89433400D01*
X80454720Y-89385781D01*
X80549958Y-89385781D01*
X80692815Y-89433400D01*
X80740434Y-89481019D01*
X81597577Y-89719114D02*
X81597577Y-90385781D01*
X81359481Y-89338162D02*
X81121386Y-90052448D01*
X81740434Y-90052448D01*
X83639143Y-85820166D02*
X83686762Y-85867785D01*
X83734381Y-86010642D01*
X83734381Y-86105880D01*
X83686762Y-86248738D01*
X83591524Y-86343976D01*
X83496286Y-86391595D01*
X83305810Y-86439214D01*
X83162952Y-86439214D01*
X82972476Y-86391595D01*
X82877238Y-86343976D01*
X82782000Y-86248738D01*
X82734381Y-86105880D01*
X82734381Y-86010642D01*
X82782000Y-85867785D01*
X82829619Y-85820166D01*
X82734381Y-84915404D02*
X82734381Y-85391595D01*
X83210571Y-85439214D01*
X83162952Y-85391595D01*
X83115333Y-85296357D01*
X83115333Y-85058261D01*
X83162952Y-84963023D01*
X83210571Y-84915404D01*
X83305810Y-84867785D01*
X83543905Y-84867785D01*
X83639143Y-84915404D01*
X83686762Y-84963023D01*
X83734381Y-85058261D01*
X83734381Y-85296357D01*
X83686762Y-85391595D01*
X83639143Y-85439214D01*
X86912634Y-90201643D02*
X86865015Y-90249262D01*
X86722158Y-90296881D01*
X86626920Y-90296881D01*
X86484062Y-90249262D01*
X86388824Y-90154024D01*
X86341205Y-90058786D01*
X86293586Y-89868310D01*
X86293586Y-89725452D01*
X86341205Y-89534976D01*
X86388824Y-89439738D01*
X86484062Y-89344500D01*
X86626920Y-89296881D01*
X86722158Y-89296881D01*
X86865015Y-89344500D01*
X86912634Y-89392119D01*
X87769777Y-89296881D02*
X87579300Y-89296881D01*
X87484062Y-89344500D01*
X87436443Y-89392119D01*
X87341205Y-89534976D01*
X87293586Y-89725452D01*
X87293586Y-90106405D01*
X87341205Y-90201643D01*
X87388824Y-90249262D01*
X87484062Y-90296881D01*
X87674539Y-90296881D01*
X87769777Y-90249262D01*
X87817396Y-90201643D01*
X87865015Y-90106405D01*
X87865015Y-89868310D01*
X87817396Y-89773071D01*
X87769777Y-89725452D01*
X87674539Y-89677833D01*
X87484062Y-89677833D01*
X87388824Y-89725452D01*
X87341205Y-89773071D01*
X87293586Y-89868310D01*
X74025243Y-72650266D02*
X74072862Y-72697885D01*
X74120481Y-72840742D01*
X74120481Y-72935980D01*
X74072862Y-73078838D01*
X73977624Y-73174076D01*
X73882386Y-73221695D01*
X73691910Y-73269314D01*
X73549052Y-73269314D01*
X73358576Y-73221695D01*
X73263338Y-73174076D01*
X73168100Y-73078838D01*
X73120481Y-72935980D01*
X73120481Y-72840742D01*
X73168100Y-72697885D01*
X73215719Y-72650266D01*
X73120481Y-72316933D02*
X73120481Y-71650266D01*
X74120481Y-72078838D01*
X84639334Y-74136143D02*
X84591715Y-74183762D01*
X84448858Y-74231381D01*
X84353620Y-74231381D01*
X84210762Y-74183762D01*
X84115524Y-74088524D01*
X84067905Y-73993286D01*
X84020286Y-73802810D01*
X84020286Y-73659952D01*
X84067905Y-73469476D01*
X84115524Y-73374238D01*
X84210762Y-73279000D01*
X84353620Y-73231381D01*
X84448858Y-73231381D01*
X84591715Y-73279000D01*
X84639334Y-73326619D01*
X85210762Y-73659952D02*
X85115524Y-73612333D01*
X85067905Y-73564714D01*
X85020286Y-73469476D01*
X85020286Y-73421857D01*
X85067905Y-73326619D01*
X85115524Y-73279000D01*
X85210762Y-73231381D01*
X85401239Y-73231381D01*
X85496477Y-73279000D01*
X85544096Y-73326619D01*
X85591715Y-73421857D01*
X85591715Y-73469476D01*
X85544096Y-73564714D01*
X85496477Y-73612333D01*
X85401239Y-73659952D01*
X85210762Y-73659952D01*
X85115524Y-73707571D01*
X85067905Y-73755190D01*
X85020286Y-73850429D01*
X85020286Y-74040905D01*
X85067905Y-74136143D01*
X85115524Y-74183762D01*
X85210762Y-74231381D01*
X85401239Y-74231381D01*
X85496477Y-74183762D01*
X85544096Y-74136143D01*
X85591715Y-74040905D01*
X85591715Y-73850429D01*
X85544096Y-73755190D01*
X85496477Y-73707571D01*
X85401239Y-73659952D01*
X72701334Y-79914643D02*
X72653715Y-79962262D01*
X72510858Y-80009881D01*
X72415620Y-80009881D01*
X72272762Y-79962262D01*
X72177524Y-79867024D01*
X72129905Y-79771786D01*
X72082286Y-79581310D01*
X72082286Y-79438452D01*
X72129905Y-79247976D01*
X72177524Y-79152738D01*
X72272762Y-79057500D01*
X72415620Y-79009881D01*
X72510858Y-79009881D01*
X72653715Y-79057500D01*
X72701334Y-79105119D01*
X73177524Y-80009881D02*
X73368000Y-80009881D01*
X73463239Y-79962262D01*
X73510858Y-79914643D01*
X73606096Y-79771786D01*
X73653715Y-79581310D01*
X73653715Y-79200357D01*
X73606096Y-79105119D01*
X73558477Y-79057500D01*
X73463239Y-79009881D01*
X73272762Y-79009881D01*
X73177524Y-79057500D01*
X73129905Y-79105119D01*
X73082286Y-79200357D01*
X73082286Y-79438452D01*
X73129905Y-79533690D01*
X73177524Y-79581310D01*
X73272762Y-79628929D01*
X73463239Y-79628929D01*
X73558477Y-79581310D01*
X73606096Y-79533690D01*
X73653715Y-79438452D01*
X88909643Y-78142957D02*
X88957262Y-78190576D01*
X89004881Y-78333433D01*
X89004881Y-78428671D01*
X88957262Y-78571529D01*
X88862024Y-78666767D01*
X88766786Y-78714386D01*
X88576310Y-78762005D01*
X88433452Y-78762005D01*
X88242976Y-78714386D01*
X88147738Y-78666767D01*
X88052500Y-78571529D01*
X88004881Y-78428671D01*
X88004881Y-78333433D01*
X88052500Y-78190576D01*
X88100119Y-78142957D01*
X89004881Y-77190576D02*
X89004881Y-77762005D01*
X89004881Y-77476291D02*
X88004881Y-77476291D01*
X88147738Y-77571529D01*
X88242976Y-77666767D01*
X88290595Y-77762005D01*
X88004881Y-76857243D02*
X88004881Y-76238195D01*
X88385833Y-76571529D01*
X88385833Y-76428671D01*
X88433452Y-76333433D01*
X88481071Y-76285814D01*
X88576310Y-76238195D01*
X88814405Y-76238195D01*
X88909643Y-76285814D01*
X88957262Y-76333433D01*
X89004881Y-76428671D01*
X89004881Y-76714386D01*
X88957262Y-76809624D01*
X88909643Y-76857243D01*
X92846643Y-81851357D02*
X92894262Y-81898976D01*
X92941881Y-82041833D01*
X92941881Y-82137071D01*
X92894262Y-82279929D01*
X92799024Y-82375167D01*
X92703786Y-82422786D01*
X92513310Y-82470405D01*
X92370452Y-82470405D01*
X92179976Y-82422786D01*
X92084738Y-82375167D01*
X91989500Y-82279929D01*
X91941881Y-82137071D01*
X91941881Y-82041833D01*
X91989500Y-81898976D01*
X92037119Y-81851357D01*
X92941881Y-80898976D02*
X92941881Y-81470405D01*
X92941881Y-81184691D02*
X91941881Y-81184691D01*
X92084738Y-81279929D01*
X92179976Y-81375167D01*
X92227595Y-81470405D01*
X92275214Y-80041833D02*
X92941881Y-80041833D01*
X91894262Y-80279929D02*
X92608548Y-80518024D01*
X92608548Y-79898976D01*
X58461381Y-76358666D02*
X57985190Y-76692000D01*
X58461381Y-76930095D02*
X57461381Y-76930095D01*
X57461381Y-76549142D01*
X57509000Y-76453904D01*
X57556619Y-76406285D01*
X57651857Y-76358666D01*
X57794714Y-76358666D01*
X57889952Y-76406285D01*
X57937571Y-76453904D01*
X57985190Y-76549142D01*
X57985190Y-76930095D01*
X58461381Y-75406285D02*
X58461381Y-75977714D01*
X58461381Y-75692000D02*
X57461381Y-75692000D01*
X57604238Y-75787238D01*
X57699476Y-75882476D01*
X57747095Y-75977714D01*
X87052334Y-84518381D02*
X86719000Y-84042190D01*
X86480905Y-84518381D02*
X86480905Y-83518381D01*
X86861858Y-83518381D01*
X86957096Y-83566000D01*
X87004715Y-83613619D01*
X87052334Y-83708857D01*
X87052334Y-83851714D01*
X87004715Y-83946952D01*
X86957096Y-83994571D01*
X86861858Y-84042190D01*
X86480905Y-84042190D01*
X87433286Y-83613619D02*
X87480905Y-83566000D01*
X87576143Y-83518381D01*
X87814239Y-83518381D01*
X87909477Y-83566000D01*
X87957096Y-83613619D01*
X88004715Y-83708857D01*
X88004715Y-83804095D01*
X87957096Y-83946952D01*
X87385667Y-84518381D01*
X88004715Y-84518381D01*
X69065881Y-58642166D02*
X68589690Y-58975500D01*
X69065881Y-59213595D02*
X68065881Y-59213595D01*
X68065881Y-58832642D01*
X68113500Y-58737404D01*
X68161119Y-58689785D01*
X68256357Y-58642166D01*
X68399214Y-58642166D01*
X68494452Y-58689785D01*
X68542071Y-58737404D01*
X68589690Y-58832642D01*
X68589690Y-59213595D01*
X68494452Y-58070738D02*
X68446833Y-58165976D01*
X68399214Y-58213595D01*
X68303976Y-58261214D01*
X68256357Y-58261214D01*
X68161119Y-58213595D01*
X68113500Y-58165976D01*
X68065881Y-58070738D01*
X68065881Y-57880261D01*
X68113500Y-57785023D01*
X68161119Y-57737404D01*
X68256357Y-57689785D01*
X68303976Y-57689785D01*
X68399214Y-57737404D01*
X68446833Y-57785023D01*
X68494452Y-57880261D01*
X68494452Y-58070738D01*
X68542071Y-58165976D01*
X68589690Y-58213595D01*
X68684929Y-58261214D01*
X68875405Y-58261214D01*
X68970643Y-58213595D01*
X69018262Y-58165976D01*
X69065881Y-58070738D01*
X69065881Y-57880261D01*
X69018262Y-57785023D01*
X68970643Y-57737404D01*
X68875405Y-57689785D01*
X68684929Y-57689785D01*
X68589690Y-57737404D01*
X68542071Y-57785023D01*
X68494452Y-57880261D01*
X77463834Y-61721881D02*
X77130500Y-61245690D01*
X76892405Y-61721881D02*
X76892405Y-60721881D01*
X77273358Y-60721881D01*
X77368596Y-60769500D01*
X77416215Y-60817119D01*
X77463834Y-60912357D01*
X77463834Y-61055214D01*
X77416215Y-61150452D01*
X77368596Y-61198071D01*
X77273358Y-61245690D01*
X76892405Y-61245690D01*
X77940024Y-61721881D02*
X78130500Y-61721881D01*
X78225739Y-61674262D01*
X78273358Y-61626643D01*
X78368596Y-61483786D01*
X78416215Y-61293310D01*
X78416215Y-60912357D01*
X78368596Y-60817119D01*
X78320977Y-60769500D01*
X78225739Y-60721881D01*
X78035262Y-60721881D01*
X77940024Y-60769500D01*
X77892405Y-60817119D01*
X77844786Y-60912357D01*
X77844786Y-61150452D01*
X77892405Y-61245690D01*
X77940024Y-61293310D01*
X78035262Y-61340929D01*
X78225739Y-61340929D01*
X78320977Y-61293310D01*
X78368596Y-61245690D01*
X78416215Y-61150452D01*
X84044095Y-56340381D02*
X84044095Y-57149905D01*
X84091714Y-57245143D01*
X84139333Y-57292762D01*
X84234571Y-57340381D01*
X84425048Y-57340381D01*
X84520286Y-57292762D01*
X84567905Y-57245143D01*
X84615524Y-57149905D01*
X84615524Y-56340381D01*
X85615524Y-57340381D02*
X85044095Y-57340381D01*
X85329809Y-57340381D02*
X85329809Y-56340381D01*
X85234571Y-56483238D01*
X85139333Y-56578476D01*
X85044095Y-56626095D01*
X71685381Y-68000405D02*
X72494905Y-68000405D01*
X72590143Y-67952786D01*
X72637762Y-67905167D01*
X72685381Y-67809929D01*
X72685381Y-67619452D01*
X72637762Y-67524214D01*
X72590143Y-67476595D01*
X72494905Y-67428976D01*
X71685381Y-67428976D01*
X71780619Y-67000405D02*
X71733000Y-66952786D01*
X71685381Y-66857548D01*
X71685381Y-66619452D01*
X71733000Y-66524214D01*
X71780619Y-66476595D01*
X71875857Y-66428976D01*
X71971095Y-66428976D01*
X72113952Y-66476595D01*
X72685381Y-67048024D01*
X72685381Y-66428976D01*
X73323081Y-69419205D02*
X74132605Y-69419205D01*
X74227843Y-69371586D01*
X74275462Y-69323967D01*
X74323081Y-69228729D01*
X74323081Y-69038252D01*
X74275462Y-68943014D01*
X74227843Y-68895395D01*
X74132605Y-68847776D01*
X73323081Y-68847776D01*
X73323081Y-68466824D02*
X73323081Y-67847776D01*
X73704033Y-68181110D01*
X73704033Y-68038252D01*
X73751652Y-67943014D01*
X73799271Y-67895395D01*
X73894510Y-67847776D01*
X74132605Y-67847776D01*
X74227843Y-67895395D01*
X74275462Y-67943014D01*
X74323081Y-68038252D01*
X74323081Y-68323967D01*
X74275462Y-68419205D01*
X74227843Y-68466824D01*
X84298095Y-83137381D02*
X84298095Y-83946905D01*
X84345714Y-84042143D01*
X84393333Y-84089762D01*
X84488571Y-84137381D01*
X84679048Y-84137381D01*
X84774286Y-84089762D01*
X84821905Y-84042143D01*
X84869524Y-83946905D01*
X84869524Y-83137381D01*
X85821905Y-83137381D02*
X85345714Y-83137381D01*
X85298095Y-83613571D01*
X85345714Y-83565952D01*
X85440952Y-83518333D01*
X85679048Y-83518333D01*
X85774286Y-83565952D01*
X85821905Y-83613571D01*
X85869524Y-83708810D01*
X85869524Y-83946905D01*
X85821905Y-84042143D01*
X85774286Y-84089762D01*
X85679048Y-84137381D01*
X85440952Y-84137381D01*
X85345714Y-84089762D01*
X85298095Y-84042143D01*
X73255071Y-57925186D02*
X73255071Y-57175186D01*
X73433643Y-57175186D01*
X73540786Y-57210900D01*
X73612214Y-57282329D01*
X73647929Y-57353757D01*
X73683643Y-57496614D01*
X73683643Y-57603757D01*
X73647929Y-57746614D01*
X73612214Y-57818043D01*
X73540786Y-57889471D01*
X73433643Y-57925186D01*
X73255071Y-57925186D01*
X74005071Y-57925186D02*
X74005071Y-57175186D01*
X74433643Y-57925186D01*
X74433643Y-57175186D01*
X75183643Y-57925186D02*
X74755071Y-57925186D01*
X74969357Y-57925186D02*
X74969357Y-57175186D01*
X74897928Y-57282329D01*
X74826500Y-57353757D01*
X74755071Y-57389471D01*
X65700381Y-58388095D02*
X64700381Y-58388095D01*
X64700381Y-58007142D01*
X64748000Y-57911904D01*
X64795619Y-57864285D01*
X64890857Y-57816666D01*
X65033714Y-57816666D01*
X65128952Y-57864285D01*
X65176571Y-57911904D01*
X65224190Y-58007142D01*
X65224190Y-58388095D01*
X65700381Y-56864285D02*
X65700381Y-57435714D01*
X65700381Y-57150000D02*
X64700381Y-57150000D01*
X64843238Y-57245238D01*
X64938476Y-57340476D01*
X64986095Y-57435714D01*
X59823605Y-91147781D02*
X59823605Y-90147781D01*
X60204558Y-90147781D01*
X60299796Y-90195400D01*
X60347415Y-90243019D01*
X60395034Y-90338257D01*
X60395034Y-90481114D01*
X60347415Y-90576352D01*
X60299796Y-90623971D01*
X60204558Y-90671590D01*
X59823605Y-90671590D01*
X60775986Y-90243019D02*
X60823605Y-90195400D01*
X60918843Y-90147781D01*
X61156939Y-90147781D01*
X61252177Y-90195400D01*
X61299796Y-90243019D01*
X61347415Y-90338257D01*
X61347415Y-90433495D01*
X61299796Y-90576352D01*
X60728367Y-91147781D01*
X61347415Y-91147781D01*
X56953405Y-63753881D02*
X56953405Y-62753881D01*
X57191500Y-62753881D01*
X57334358Y-62801500D01*
X57429596Y-62896738D01*
X57477215Y-62991976D01*
X57524834Y-63182452D01*
X57524834Y-63325310D01*
X57477215Y-63515786D01*
X57429596Y-63611024D01*
X57334358Y-63706262D01*
X57191500Y-63753881D01*
X56953405Y-63753881D01*
X57905786Y-62849119D02*
X57953405Y-62801500D01*
X58048643Y-62753881D01*
X58286739Y-62753881D01*
X58381977Y-62801500D01*
X58429596Y-62849119D01*
X58477215Y-62944357D01*
X58477215Y-63039595D01*
X58429596Y-63182452D01*
X57858167Y-63753881D01*
X58477215Y-63753881D01*
X98164834Y-90423881D02*
X97831500Y-89947690D01*
X97593405Y-90423881D02*
X97593405Y-89423881D01*
X97974358Y-89423881D01*
X98069596Y-89471500D01*
X98117215Y-89519119D01*
X98164834Y-89614357D01*
X98164834Y-89757214D01*
X98117215Y-89852452D01*
X98069596Y-89900071D01*
X97974358Y-89947690D01*
X97593405Y-89947690D01*
X98498167Y-89423881D02*
X99117215Y-89423881D01*
X98783881Y-89804833D01*
X98926739Y-89804833D01*
X99021977Y-89852452D01*
X99069596Y-89900071D01*
X99117215Y-89995310D01*
X99117215Y-90233405D01*
X99069596Y-90328643D01*
X99021977Y-90376262D01*
X98926739Y-90423881D01*
X98641024Y-90423881D01*
X98545786Y-90376262D01*
X98498167Y-90328643D01*
X48727805Y-79130581D02*
X48727805Y-79940105D01*
X48775424Y-80035343D01*
X48823043Y-80082962D01*
X48918281Y-80130581D01*
X49108758Y-80130581D01*
X49203996Y-80082962D01*
X49251615Y-80035343D01*
X49299234Y-79940105D01*
X49299234Y-79130581D01*
X49727805Y-80082962D02*
X49870662Y-80130581D01*
X50108758Y-80130581D01*
X50203996Y-80082962D01*
X50251615Y-80035343D01*
X50299234Y-79940105D01*
X50299234Y-79844867D01*
X50251615Y-79749629D01*
X50203996Y-79702010D01*
X50108758Y-79654390D01*
X49918281Y-79606771D01*
X49823043Y-79559152D01*
X49775424Y-79511533D01*
X49727805Y-79416295D01*
X49727805Y-79321057D01*
X49775424Y-79225819D01*
X49823043Y-79178200D01*
X49918281Y-79130581D01*
X50156377Y-79130581D01*
X50299234Y-79178200D01*
X51061139Y-79606771D02*
X51203996Y-79654390D01*
X51251615Y-79702010D01*
X51299234Y-79797248D01*
X51299234Y-79940105D01*
X51251615Y-80035343D01*
X51203996Y-80082962D01*
X51108758Y-80130581D01*
X50727805Y-80130581D01*
X50727805Y-79130581D01*
X51061139Y-79130581D01*
X51156377Y-79178200D01*
X51203996Y-79225819D01*
X51251615Y-79321057D01*
X51251615Y-79416295D01*
X51203996Y-79511533D01*
X51156377Y-79559152D01*
X51061139Y-79606771D01*
X50727805Y-79606771D01*
X52251615Y-80130581D02*
X51680186Y-80130581D01*
X51965900Y-80130581D02*
X51965900Y-79130581D01*
X51870662Y-79273438D01*
X51775424Y-79368676D01*
X51680186Y-79416295D01*
X55289505Y-76695181D02*
X55289505Y-75695181D01*
X55527600Y-75695181D01*
X55670458Y-75742800D01*
X55765696Y-75838038D01*
X55813315Y-75933276D01*
X55860934Y-76123752D01*
X55860934Y-76266610D01*
X55813315Y-76457086D01*
X55765696Y-76552324D01*
X55670458Y-76647562D01*
X55527600Y-76695181D01*
X55289505Y-76695181D01*
X56194267Y-75695181D02*
X56813315Y-75695181D01*
X56479981Y-76076133D01*
X56622839Y-76076133D01*
X56718077Y-76123752D01*
X56765696Y-76171371D01*
X56813315Y-76266610D01*
X56813315Y-76504705D01*
X56765696Y-76599943D01*
X56718077Y-76647562D01*
X56622839Y-76695181D01*
X56337124Y-76695181D01*
X56241886Y-76647562D01*
X56194267Y-76599943D01*
X80145214Y-81567357D02*
X80145214Y-82538786D01*
X80202357Y-82653071D01*
X80259500Y-82710214D01*
X80373786Y-82767357D01*
X80602357Y-82767357D01*
X80716643Y-82710214D01*
X80773786Y-82653071D01*
X80830929Y-82538786D01*
X80830929Y-81567357D01*
X81916643Y-81967357D02*
X81916643Y-82767357D01*
X81630929Y-81510214D02*
X81345214Y-82367357D01*
X82088072Y-82367357D01*
X66732334Y-89788881D02*
X66399000Y-89312690D01*
X66160905Y-89788881D02*
X66160905Y-88788881D01*
X66541858Y-88788881D01*
X66637096Y-88836500D01*
X66684715Y-88884119D01*
X66732334Y-88979357D01*
X66732334Y-89122214D01*
X66684715Y-89217452D01*
X66637096Y-89265071D01*
X66541858Y-89312690D01*
X66160905Y-89312690D01*
X67589477Y-88788881D02*
X67399000Y-88788881D01*
X67303762Y-88836500D01*
X67256143Y-88884119D01*
X67160905Y-89026976D01*
X67113286Y-89217452D01*
X67113286Y-89598405D01*
X67160905Y-89693643D01*
X67208524Y-89741262D01*
X67303762Y-89788881D01*
X67494239Y-89788881D01*
X67589477Y-89741262D01*
X67637096Y-89693643D01*
X67684715Y-89598405D01*
X67684715Y-89360310D01*
X67637096Y-89265071D01*
X67589477Y-89217452D01*
X67494239Y-89169833D01*
X67303762Y-89169833D01*
X67208524Y-89217452D01*
X67160905Y-89265071D01*
X67113286Y-89360310D01*
X82766143Y-65182643D02*
X82718524Y-65230262D01*
X82575667Y-65277881D01*
X82480429Y-65277881D01*
X82337571Y-65230262D01*
X82242333Y-65135024D01*
X82194714Y-65039786D01*
X82147095Y-64849310D01*
X82147095Y-64706452D01*
X82194714Y-64515976D01*
X82242333Y-64420738D01*
X82337571Y-64325500D01*
X82480429Y-64277881D01*
X82575667Y-64277881D01*
X82718524Y-64325500D01*
X82766143Y-64373119D01*
X83718524Y-65277881D02*
X83147095Y-65277881D01*
X83432809Y-65277881D02*
X83432809Y-64277881D01*
X83337571Y-64420738D01*
X83242333Y-64515976D01*
X83147095Y-64563595D01*
X84099476Y-64373119D02*
X84147095Y-64325500D01*
X84242333Y-64277881D01*
X84480429Y-64277881D01*
X84575667Y-64325500D01*
X84623286Y-64373119D01*
X84670905Y-64468357D01*
X84670905Y-64563595D01*
X84623286Y-64706452D01*
X84051857Y-65277881D01*
X84670905Y-65277881D01*
X63858881Y-79978095D02*
X62858881Y-79978095D01*
X62858881Y-79740000D01*
X62906500Y-79597142D01*
X63001738Y-79501904D01*
X63096976Y-79454285D01*
X63287452Y-79406666D01*
X63430310Y-79406666D01*
X63620786Y-79454285D01*
X63716024Y-79501904D01*
X63811262Y-79597142D01*
X63858881Y-79740000D01*
X63858881Y-79978095D01*
X63858881Y-78454285D02*
X63858881Y-79025714D01*
X63858881Y-78740000D02*
X62858881Y-78740000D01*
X63001738Y-78835238D01*
X63096976Y-78930476D01*
X63144595Y-79025714D01*
X94719881Y-70738095D02*
X93719881Y-70738095D01*
X93719881Y-70500000D01*
X93767500Y-70357142D01*
X93862738Y-70261904D01*
X93957976Y-70214285D01*
X94148452Y-70166666D01*
X94291310Y-70166666D01*
X94481786Y-70214285D01*
X94577024Y-70261904D01*
X94672262Y-70357142D01*
X94719881Y-70500000D01*
X94719881Y-70738095D01*
X94053214Y-69309523D02*
X94719881Y-69309523D01*
X93672262Y-69547619D02*
X94386548Y-69785714D01*
X94386548Y-69166666D01*
X101339905Y-58610381D02*
X101339905Y-57610381D01*
X101578000Y-57610381D01*
X101720858Y-57658000D01*
X101816096Y-57753238D01*
X101863715Y-57848476D01*
X101911334Y-58038952D01*
X101911334Y-58181810D01*
X101863715Y-58372286D01*
X101816096Y-58467524D01*
X101720858Y-58562762D01*
X101578000Y-58610381D01*
X101339905Y-58610381D01*
X102816096Y-57610381D02*
X102339905Y-57610381D01*
X102292286Y-58086571D01*
X102339905Y-58038952D01*
X102435143Y-57991333D01*
X102673239Y-57991333D01*
X102768477Y-58038952D01*
X102816096Y-58086571D01*
X102863715Y-58181810D01*
X102863715Y-58419905D01*
X102816096Y-58515143D01*
X102768477Y-58562762D01*
X102673239Y-58610381D01*
X102435143Y-58610381D01*
X102339905Y-58562762D01*
X102292286Y-58515143D01*
X94719881Y-74517095D02*
X93719881Y-74517095D01*
X93719881Y-74279000D01*
X93767500Y-74136142D01*
X93862738Y-74040904D01*
X93957976Y-73993285D01*
X94148452Y-73945666D01*
X94291310Y-73945666D01*
X94481786Y-73993285D01*
X94577024Y-74040904D01*
X94672262Y-74136142D01*
X94719881Y-74279000D01*
X94719881Y-74517095D01*
X93719881Y-73088523D02*
X93719881Y-73279000D01*
X93767500Y-73374238D01*
X93815119Y-73421857D01*
X93957976Y-73517095D01*
X94148452Y-73564714D01*
X94529405Y-73564714D01*
X94624643Y-73517095D01*
X94672262Y-73469476D01*
X94719881Y-73374238D01*
X94719881Y-73183761D01*
X94672262Y-73088523D01*
X94624643Y-73040904D01*
X94529405Y-72993285D01*
X94291310Y-72993285D01*
X94196071Y-73040904D01*
X94148452Y-73088523D01*
X94100833Y-73183761D01*
X94100833Y-73374238D01*
X94148452Y-73469476D01*
X94196071Y-73517095D01*
X94291310Y-73564714D01*
X101323881Y-83978595D02*
X100323881Y-83978595D01*
X100323881Y-83740500D01*
X100371500Y-83597642D01*
X100466738Y-83502404D01*
X100561976Y-83454785D01*
X100752452Y-83407166D01*
X100895310Y-83407166D01*
X101085786Y-83454785D01*
X101181024Y-83502404D01*
X101276262Y-83597642D01*
X101323881Y-83740500D01*
X101323881Y-83978595D01*
X100323881Y-83073833D02*
X100323881Y-82407166D01*
X101323881Y-82835738D01*
X94719881Y-62833595D02*
X93719881Y-62833595D01*
X93719881Y-62595500D01*
X93767500Y-62452642D01*
X93862738Y-62357404D01*
X93957976Y-62309785D01*
X94148452Y-62262166D01*
X94291310Y-62262166D01*
X94481786Y-62309785D01*
X94577024Y-62357404D01*
X94672262Y-62452642D01*
X94719881Y-62595500D01*
X94719881Y-62833595D01*
X94148452Y-61690738D02*
X94100833Y-61785976D01*
X94053214Y-61833595D01*
X93957976Y-61881214D01*
X93910357Y-61881214D01*
X93815119Y-61833595D01*
X93767500Y-61785976D01*
X93719881Y-61690738D01*
X93719881Y-61500261D01*
X93767500Y-61405023D01*
X93815119Y-61357404D01*
X93910357Y-61309785D01*
X93957976Y-61309785D01*
X94053214Y-61357404D01*
X94100833Y-61405023D01*
X94148452Y-61500261D01*
X94148452Y-61690738D01*
X94196071Y-61785976D01*
X94243690Y-61833595D01*
X94338929Y-61881214D01*
X94529405Y-61881214D01*
X94624643Y-61833595D01*
X94672262Y-61785976D01*
X94719881Y-61690738D01*
X94719881Y-61500261D01*
X94672262Y-61405023D01*
X94624643Y-61357404D01*
X94529405Y-61309785D01*
X94338929Y-61309785D01*
X94243690Y-61357404D01*
X94196071Y-61405023D01*
X94148452Y-61500261D01*
X94719881Y-66833595D02*
X93719881Y-66833595D01*
X93719881Y-66595500D01*
X93767500Y-66452642D01*
X93862738Y-66357404D01*
X93957976Y-66309785D01*
X94148452Y-66262166D01*
X94291310Y-66262166D01*
X94481786Y-66309785D01*
X94577024Y-66357404D01*
X94672262Y-66452642D01*
X94719881Y-66595500D01*
X94719881Y-66833595D01*
X94719881Y-65785976D02*
X94719881Y-65595500D01*
X94672262Y-65500261D01*
X94624643Y-65452642D01*
X94481786Y-65357404D01*
X94291310Y-65309785D01*
X93910357Y-65309785D01*
X93815119Y-65357404D01*
X93767500Y-65405023D01*
X93719881Y-65500261D01*
X93719881Y-65690738D01*
X93767500Y-65785976D01*
X93815119Y-65833595D01*
X93910357Y-65881214D01*
X94148452Y-65881214D01*
X94243690Y-65833595D01*
X94291310Y-65785976D01*
X94338929Y-65690738D01*
X94338929Y-65500261D01*
X94291310Y-65405023D01*
X94243690Y-65357404D01*
X94148452Y-65309785D01*
X94719881Y-78930286D02*
X93719881Y-78930286D01*
X93719881Y-78692191D01*
X93767500Y-78549333D01*
X93862738Y-78454095D01*
X93957976Y-78406476D01*
X94148452Y-78358857D01*
X94291310Y-78358857D01*
X94481786Y-78406476D01*
X94577024Y-78454095D01*
X94672262Y-78549333D01*
X94719881Y-78692191D01*
X94719881Y-78930286D01*
X94719881Y-77406476D02*
X94719881Y-77977905D01*
X94719881Y-77692191D02*
X93719881Y-77692191D01*
X93862738Y-77787429D01*
X93957976Y-77882667D01*
X94005595Y-77977905D01*
X93719881Y-76787429D02*
X93719881Y-76692190D01*
X93767500Y-76596952D01*
X93815119Y-76549333D01*
X93910357Y-76501714D01*
X94100833Y-76454095D01*
X94338929Y-76454095D01*
X94529405Y-76501714D01*
X94624643Y-76549333D01*
X94672262Y-76596952D01*
X94719881Y-76692190D01*
X94719881Y-76787429D01*
X94672262Y-76882667D01*
X94624643Y-76930286D01*
X94529405Y-76977905D01*
X94338929Y-77025524D01*
X94100833Y-77025524D01*
X93910357Y-76977905D01*
X93815119Y-76930286D01*
X93767500Y-76882667D01*
X93719881Y-76787429D01*
X94719881Y-82613286D02*
X93719881Y-82613286D01*
X93719881Y-82375191D01*
X93767500Y-82232333D01*
X93862738Y-82137095D01*
X93957976Y-82089476D01*
X94148452Y-82041857D01*
X94291310Y-82041857D01*
X94481786Y-82089476D01*
X94577024Y-82137095D01*
X94672262Y-82232333D01*
X94719881Y-82375191D01*
X94719881Y-82613286D01*
X94719881Y-81089476D02*
X94719881Y-81660905D01*
X94719881Y-81375191D02*
X93719881Y-81375191D01*
X93862738Y-81470429D01*
X93957976Y-81565667D01*
X94005595Y-81660905D01*
X94719881Y-80137095D02*
X94719881Y-80708524D01*
X94719881Y-80422810D02*
X93719881Y-80422810D01*
X93862738Y-80518048D01*
X93957976Y-80613286D01*
X94005595Y-80708524D01*
X54373667Y-65516071D02*
X54040333Y-65516071D01*
X54040333Y-66039881D02*
X54040333Y-65039881D01*
X54516524Y-65039881D01*
X55421286Y-66039881D02*
X54849857Y-66039881D01*
X55135571Y-66039881D02*
X55135571Y-65039881D01*
X55040333Y-65182738D01*
X54945095Y-65277976D01*
X54849857Y-65325595D01*
X104324405Y-65658881D02*
X104324405Y-64658881D01*
X104705358Y-64658881D01*
X104800596Y-64706500D01*
X104848215Y-64754119D01*
X104895834Y-64849357D01*
X104895834Y-64992214D01*
X104848215Y-65087452D01*
X104800596Y-65135071D01*
X104705358Y-65182690D01*
X104324405Y-65182690D01*
X105752977Y-64992214D02*
X105752977Y-65658881D01*
X105514881Y-64611262D02*
X105276786Y-65325548D01*
X105895834Y-65325548D01*
X57747143Y-66039881D02*
X57413809Y-65563690D01*
X57175714Y-66039881D02*
X57175714Y-65039881D01*
X57556667Y-65039881D01*
X57651905Y-65087500D01*
X57699524Y-65135119D01*
X57747143Y-65230357D01*
X57747143Y-65373214D01*
X57699524Y-65468452D01*
X57651905Y-65516071D01*
X57556667Y-65563690D01*
X57175714Y-65563690D01*
X58699524Y-66039881D02*
X58128095Y-66039881D01*
X58413809Y-66039881D02*
X58413809Y-65039881D01*
X58318571Y-65182738D01*
X58223333Y-65277976D01*
X58128095Y-65325595D01*
X59080476Y-65135119D02*
X59128095Y-65087500D01*
X59223333Y-65039881D01*
X59461429Y-65039881D01*
X59556667Y-65087500D01*
X59604286Y-65135119D01*
X59651905Y-65230357D01*
X59651905Y-65325595D01*
X59604286Y-65468452D01*
X59032857Y-66039881D01*
X59651905Y-66039881D01*
X57810643Y-71500881D02*
X57477309Y-71024690D01*
X57239214Y-71500881D02*
X57239214Y-70500881D01*
X57620167Y-70500881D01*
X57715405Y-70548500D01*
X57763024Y-70596119D01*
X57810643Y-70691357D01*
X57810643Y-70834214D01*
X57763024Y-70929452D01*
X57715405Y-70977071D01*
X57620167Y-71024690D01*
X57239214Y-71024690D01*
X58763024Y-71500881D02*
X58191595Y-71500881D01*
X58477309Y-71500881D02*
X58477309Y-70500881D01*
X58382071Y-70643738D01*
X58286833Y-70738976D01*
X58191595Y-70786595D01*
X59096357Y-70500881D02*
X59715405Y-70500881D01*
X59382071Y-70881833D01*
X59524929Y-70881833D01*
X59620167Y-70929452D01*
X59667786Y-70977071D01*
X59715405Y-71072310D01*
X59715405Y-71310405D01*
X59667786Y-71405643D01*
X59620167Y-71453262D01*
X59524929Y-71500881D01*
X59239214Y-71500881D01*
X59143976Y-71453262D01*
X59096357Y-71405643D01*
X63843143Y-82295881D02*
X63509809Y-81819690D01*
X63271714Y-82295881D02*
X63271714Y-81295881D01*
X63652667Y-81295881D01*
X63747905Y-81343500D01*
X63795524Y-81391119D01*
X63843143Y-81486357D01*
X63843143Y-81629214D01*
X63795524Y-81724452D01*
X63747905Y-81772071D01*
X63652667Y-81819690D01*
X63271714Y-81819690D01*
X64795524Y-82295881D02*
X64224095Y-82295881D01*
X64509809Y-82295881D02*
X64509809Y-81295881D01*
X64414571Y-81438738D01*
X64319333Y-81533976D01*
X64224095Y-81581595D01*
X65652667Y-81629214D02*
X65652667Y-82295881D01*
X65414571Y-81248262D02*
X65176476Y-81962548D01*
X65795524Y-81962548D01*
X86528381Y-63753857D02*
X86052190Y-64087191D01*
X86528381Y-64325286D02*
X85528381Y-64325286D01*
X85528381Y-63944333D01*
X85576000Y-63849095D01*
X85623619Y-63801476D01*
X85718857Y-63753857D01*
X85861714Y-63753857D01*
X85956952Y-63801476D01*
X86004571Y-63849095D01*
X86052190Y-63944333D01*
X86052190Y-64325286D01*
X86528381Y-62801476D02*
X86528381Y-63372905D01*
X86528381Y-63087191D02*
X85528381Y-63087191D01*
X85671238Y-63182429D01*
X85766476Y-63277667D01*
X85814095Y-63372905D01*
X85528381Y-61896714D02*
X85528381Y-62372905D01*
X86004571Y-62420524D01*
X85956952Y-62372905D01*
X85909333Y-62277667D01*
X85909333Y-62039571D01*
X85956952Y-61944333D01*
X86004571Y-61896714D01*
X86099810Y-61849095D01*
X86337905Y-61849095D01*
X86433143Y-61896714D01*
X86480762Y-61944333D01*
X86528381Y-62039571D01*
X86528381Y-62277667D01*
X86480762Y-62372905D01*
X86433143Y-62420524D01*
X90830643Y-78295381D02*
X90497309Y-77819190D01*
X90259214Y-78295381D02*
X90259214Y-77295381D01*
X90640167Y-77295381D01*
X90735405Y-77343000D01*
X90783024Y-77390619D01*
X90830643Y-77485857D01*
X90830643Y-77628714D01*
X90783024Y-77723952D01*
X90735405Y-77771571D01*
X90640167Y-77819190D01*
X90259214Y-77819190D01*
X91783024Y-78295381D02*
X91211595Y-78295381D01*
X91497309Y-78295381D02*
X91497309Y-77295381D01*
X91402071Y-77438238D01*
X91306833Y-77533476D01*
X91211595Y-77581095D01*
X92640167Y-77295381D02*
X92449690Y-77295381D01*
X92354452Y-77343000D01*
X92306833Y-77390619D01*
X92211595Y-77533476D01*
X92163976Y-77723952D01*
X92163976Y-78104905D01*
X92211595Y-78200143D01*
X92259214Y-78247762D01*
X92354452Y-78295381D01*
X92544929Y-78295381D01*
X92640167Y-78247762D01*
X92687786Y-78200143D01*
X92735405Y-78104905D01*
X92735405Y-77866810D01*
X92687786Y-77771571D01*
X92640167Y-77723952D01*
X92544929Y-77676333D01*
X92354452Y-77676333D01*
X92259214Y-77723952D01*
X92211595Y-77771571D01*
X92163976Y-77866810D01*
X84623381Y-67817857D02*
X84147190Y-68151191D01*
X84623381Y-68389286D02*
X83623381Y-68389286D01*
X83623381Y-68008333D01*
X83671000Y-67913095D01*
X83718619Y-67865476D01*
X83813857Y-67817857D01*
X83956714Y-67817857D01*
X84051952Y-67865476D01*
X84099571Y-67913095D01*
X84147190Y-68008333D01*
X84147190Y-68389286D01*
X84623381Y-66865476D02*
X84623381Y-67436905D01*
X84623381Y-67151191D02*
X83623381Y-67151191D01*
X83766238Y-67246429D01*
X83861476Y-67341667D01*
X83909095Y-67436905D01*
X83623381Y-66532143D02*
X83623381Y-65865476D01*
X84623381Y-66294048D01*
X87687381Y-68000405D02*
X88496905Y-68000405D01*
X88592143Y-67952786D01*
X88639762Y-67905167D01*
X88687381Y-67809929D01*
X88687381Y-67619452D01*
X88639762Y-67524214D01*
X88592143Y-67476595D01*
X88496905Y-67428976D01*
X87687381Y-67428976D01*
X87687381Y-66524214D02*
X87687381Y-66714691D01*
X87735000Y-66809929D01*
X87782619Y-66857548D01*
X87925476Y-66952786D01*
X88115952Y-67000405D01*
X88496905Y-67000405D01*
X88592143Y-66952786D01*
X88639762Y-66905167D01*
X88687381Y-66809929D01*
X88687381Y-66619452D01*
X88639762Y-66524214D01*
X88592143Y-66476595D01*
X88496905Y-66428976D01*
X88258810Y-66428976D01*
X88163571Y-66476595D01*
X88115952Y-66524214D01*
X88068333Y-66619452D01*
X88068333Y-66809929D01*
X88115952Y-66905167D01*
X88163571Y-66952786D01*
X88258810Y-67000405D01*
X62001643Y-63849143D02*
X61954024Y-63896762D01*
X61811167Y-63944381D01*
X61715929Y-63944381D01*
X61573071Y-63896762D01*
X61477833Y-63801524D01*
X61430214Y-63706286D01*
X61382595Y-63515810D01*
X61382595Y-63372952D01*
X61430214Y-63182476D01*
X61477833Y-63087238D01*
X61573071Y-62992000D01*
X61715929Y-62944381D01*
X61811167Y-62944381D01*
X61954024Y-62992000D01*
X62001643Y-63039619D01*
X62954024Y-63944381D02*
X62382595Y-63944381D01*
X62668309Y-63944381D02*
X62668309Y-62944381D01*
X62573071Y-63087238D01*
X62477833Y-63182476D01*
X62382595Y-63230095D01*
X63573071Y-62944381D02*
X63668310Y-62944381D01*
X63763548Y-62992000D01*
X63811167Y-63039619D01*
X63858786Y-63134857D01*
X63906405Y-63325333D01*
X63906405Y-63563429D01*
X63858786Y-63753905D01*
X63811167Y-63849143D01*
X63763548Y-63896762D01*
X63668310Y-63944381D01*
X63573071Y-63944381D01*
X63477833Y-63896762D01*
X63430214Y-63849143D01*
X63382595Y-63753905D01*
X63334976Y-63563429D01*
X63334976Y-63325333D01*
X63382595Y-63134857D01*
X63430214Y-63039619D01*
X63477833Y-62992000D01*
X63573071Y-62944381D01*
X89949595Y-59832881D02*
X89949595Y-60642405D01*
X89997214Y-60737643D01*
X90044833Y-60785262D01*
X90140071Y-60832881D01*
X90330548Y-60832881D01*
X90425786Y-60785262D01*
X90473405Y-60737643D01*
X90521024Y-60642405D01*
X90521024Y-59832881D01*
X90901976Y-59832881D02*
X91568643Y-59832881D01*
X91140071Y-60832881D01*
X75241381Y-77398405D02*
X76050905Y-77398405D01*
X76146143Y-77350786D01*
X76193762Y-77303167D01*
X76241381Y-77207929D01*
X76241381Y-77017452D01*
X76193762Y-76922214D01*
X76146143Y-76874595D01*
X76050905Y-76826976D01*
X75241381Y-76826976D01*
X75669952Y-76207929D02*
X75622333Y-76303167D01*
X75574714Y-76350786D01*
X75479476Y-76398405D01*
X75431857Y-76398405D01*
X75336619Y-76350786D01*
X75289000Y-76303167D01*
X75241381Y-76207929D01*
X75241381Y-76017452D01*
X75289000Y-75922214D01*
X75336619Y-75874595D01*
X75431857Y-75826976D01*
X75479476Y-75826976D01*
X75574714Y-75874595D01*
X75622333Y-75922214D01*
X75669952Y-76017452D01*
X75669952Y-76207929D01*
X75717571Y-76303167D01*
X75765190Y-76350786D01*
X75860429Y-76398405D01*
X76050905Y-76398405D01*
X76146143Y-76350786D01*
X76193762Y-76303167D01*
X76241381Y-76207929D01*
X76241381Y-76017452D01*
X76193762Y-75922214D01*
X76146143Y-75874595D01*
X76050905Y-75826976D01*
X75860429Y-75826976D01*
X75765190Y-75874595D01*
X75717571Y-75922214D01*
X75669952Y-76017452D01*
X74479334Y-63118881D02*
X74146000Y-62642690D01*
X73907905Y-63118881D02*
X73907905Y-62118881D01*
X74288858Y-62118881D01*
X74384096Y-62166500D01*
X74431715Y-62214119D01*
X74479334Y-62309357D01*
X74479334Y-62452214D01*
X74431715Y-62547452D01*
X74384096Y-62595071D01*
X74288858Y-62642690D01*
X73907905Y-62642690D01*
X75336477Y-62452214D02*
X75336477Y-63118881D01*
X75098381Y-62071262D02*
X74860286Y-62785548D01*
X75479334Y-62785548D01*
X77495643Y-77819143D02*
X77448024Y-77866762D01*
X77305167Y-77914381D01*
X77209929Y-77914381D01*
X77067071Y-77866762D01*
X76971833Y-77771524D01*
X76924214Y-77676286D01*
X76876595Y-77485810D01*
X76876595Y-77342952D01*
X76924214Y-77152476D01*
X76971833Y-77057238D01*
X77067071Y-76962000D01*
X77209929Y-76914381D01*
X77305167Y-76914381D01*
X77448024Y-76962000D01*
X77495643Y-77009619D01*
X78448024Y-77914381D02*
X77876595Y-77914381D01*
X78162309Y-77914381D02*
X78162309Y-76914381D01*
X78067071Y-77057238D01*
X77971833Y-77152476D01*
X77876595Y-77200095D01*
X79352786Y-76914381D02*
X78876595Y-76914381D01*
X78828976Y-77390571D01*
X78876595Y-77342952D01*
X78971833Y-77295333D01*
X79209929Y-77295333D01*
X79305167Y-77342952D01*
X79352786Y-77390571D01*
X79400405Y-77485810D01*
X79400405Y-77723905D01*
X79352786Y-77819143D01*
X79305167Y-77866762D01*
X79209929Y-77914381D01*
X78971833Y-77914381D01*
X78876595Y-77866762D01*
X78828976Y-77819143D01*
X62001643Y-62325143D02*
X61954024Y-62372762D01*
X61811167Y-62420381D01*
X61715929Y-62420381D01*
X61573071Y-62372762D01*
X61477833Y-62277524D01*
X61430214Y-62182286D01*
X61382595Y-61991810D01*
X61382595Y-61848952D01*
X61430214Y-61658476D01*
X61477833Y-61563238D01*
X61573071Y-61468000D01*
X61715929Y-61420381D01*
X61811167Y-61420381D01*
X61954024Y-61468000D01*
X62001643Y-61515619D01*
X62954024Y-62420381D02*
X62382595Y-62420381D01*
X62668309Y-62420381D02*
X62668309Y-61420381D01*
X62573071Y-61563238D01*
X62477833Y-61658476D01*
X62382595Y-61706095D01*
X63906405Y-62420381D02*
X63334976Y-62420381D01*
X63620690Y-62420381D02*
X63620690Y-61420381D01*
X63525452Y-61563238D01*
X63430214Y-61658476D01*
X63334976Y-61706095D01*
X84226643Y-78200143D02*
X84179024Y-78247762D01*
X84036167Y-78295381D01*
X83940929Y-78295381D01*
X83798071Y-78247762D01*
X83702833Y-78152524D01*
X83655214Y-78057286D01*
X83607595Y-77866810D01*
X83607595Y-77723952D01*
X83655214Y-77533476D01*
X83702833Y-77438238D01*
X83798071Y-77343000D01*
X83940929Y-77295381D01*
X84036167Y-77295381D01*
X84179024Y-77343000D01*
X84226643Y-77390619D01*
X85179024Y-78295381D02*
X84607595Y-78295381D01*
X84893309Y-78295381D02*
X84893309Y-77295381D01*
X84798071Y-77438238D01*
X84702833Y-77533476D01*
X84607595Y-77581095D01*
X86036167Y-77295381D02*
X85845690Y-77295381D01*
X85750452Y-77343000D01*
X85702833Y-77390619D01*
X85607595Y-77533476D01*
X85559976Y-77723952D01*
X85559976Y-78104905D01*
X85607595Y-78200143D01*
X85655214Y-78247762D01*
X85750452Y-78295381D01*
X85940929Y-78295381D01*
X86036167Y-78247762D01*
X86083786Y-78200143D01*
X86131405Y-78104905D01*
X86131405Y-77866810D01*
X86083786Y-77771571D01*
X86036167Y-77723952D01*
X85940929Y-77676333D01*
X85750452Y-77676333D01*
X85655214Y-77723952D01*
X85607595Y-77771571D01*
X85559976Y-77866810D01*
M02*
