G04 #@! TF.FileFunction,Copper,L4,Bot,Signal*
%FSLAX46Y46*%
G04 Gerber Fmt 4.6, Leading zero omitted, Abs format (unit mm)*
G04 Created by KiCad (PCBNEW 4.0.4-stable) date 03/04/17 14:03:53*
%MOMM*%
%LPD*%
G01*
G04 APERTURE LIST*
%ADD10C,0.100000*%
%ADD11R,0.900000X1.200000*%
%ADD12R,2.032000X2.032000*%
%ADD13O,2.032000X2.032000*%
%ADD14R,2.032000X1.727200*%
%ADD15O,2.032000X1.727200*%
%ADD16C,6.400000*%
%ADD17R,0.800000X1.600000*%
%ADD18R,2.100000X3.000000*%
%ADD19R,1.727200X1.727200*%
%ADD20O,1.727200X1.727200*%
%ADD21C,1.524000*%
%ADD22C,0.600000*%
%ADD23C,0.203200*%
%ADD24C,0.300000*%
%ADD25C,0.254000*%
G04 APERTURE END LIST*
D10*
D11*
X66492600Y-72415200D03*
X66492600Y-70215200D03*
X64549500Y-72415200D03*
X64549500Y-70215200D03*
X81377000Y-74815500D03*
X81377000Y-72615500D03*
D12*
X60282300Y-57713500D03*
D13*
X62822300Y-57713500D03*
D14*
X60549000Y-82542000D03*
D15*
X60549000Y-85082000D03*
X60549000Y-87622000D03*
D16*
X51000000Y-58520000D03*
X51000000Y-89000000D03*
X108150000Y-89000000D03*
X108150000Y-58520000D03*
D17*
X68974500Y-87325500D03*
X67724500Y-87325500D03*
X66474500Y-87325500D03*
D18*
X71524500Y-90225500D03*
X63924500Y-90225500D03*
D19*
X102950000Y-78000000D03*
D20*
X105490000Y-78000000D03*
X102950000Y-75460000D03*
X105490000Y-75460000D03*
X102950000Y-72920000D03*
X105490000Y-72920000D03*
X102950000Y-70380000D03*
X105490000Y-70380000D03*
X102950000Y-67840000D03*
X105490000Y-67840000D03*
D21*
X107348500Y-65397000D03*
X90457500Y-70477000D03*
X65844900Y-61167900D03*
X92997500Y-63365000D03*
X76106500Y-64762000D03*
X85339400Y-62818900D03*
X86393500Y-80065500D03*
X72296500Y-79049500D03*
D22*
X69121500Y-69778500D03*
X57755000Y-66222500D03*
X97871970Y-69270500D03*
X76337492Y-73033106D03*
X71915500Y-67776700D03*
X79218000Y-61079000D03*
X56993000Y-62222000D03*
X86186810Y-82796000D03*
X72106000Y-85225000D03*
X59660000Y-74096500D03*
X54770500Y-68254500D03*
X92045000Y-65292800D03*
X79726000Y-58929200D03*
X90902000Y-83304000D03*
X83536000Y-81335500D03*
X95156500Y-73289490D03*
X81696300Y-75938000D03*
X82139000Y-80573500D03*
X82520000Y-68127500D03*
X84811300Y-66286000D03*
X101951000Y-84891500D03*
X95029500Y-80827500D03*
X95045990Y-76700000D03*
X94917990Y-68572000D03*
X95044490Y-64698500D03*
X95029500Y-60683510D03*
X103221000Y-58539000D03*
X88898300Y-68191000D03*
X86852909Y-73730409D03*
X86901500Y-75557000D03*
X89378000Y-57577300D03*
X65375000Y-59682000D03*
X72868000Y-77208000D03*
X73757000Y-81907000D03*
X74392000Y-79767300D03*
X75154000Y-68127500D03*
X96807500Y-86947300D03*
X89006200Y-90670000D03*
X59850500Y-71556500D03*
X66137000Y-85844000D03*
X63533500Y-85971000D03*
X54326000Y-75303000D03*
X53056000Y-75493500D03*
X50960500Y-66159000D03*
X76487500Y-59968500D03*
X105761000Y-84432710D03*
X95008690Y-83240500D03*
X93696000Y-75779000D03*
X95009190Y-79240000D03*
X94966000Y-75283190D03*
X94902500Y-71175500D03*
X95010690Y-67238500D03*
X94966000Y-63283190D03*
X100554000Y-58602500D03*
X79091000Y-67238500D03*
X71565500Y-59872500D03*
X82520000Y-74096500D03*
X79916500Y-75684000D03*
X87071000Y-57586500D03*
X84552000Y-68762500D03*
X86901500Y-62848500D03*
X67470500Y-72643100D03*
X96014500Y-88828500D03*
X71725000Y-87812500D03*
X70550000Y-81399000D03*
X76995500Y-81716500D03*
X79281500Y-84256500D03*
X74900000Y-77906500D03*
X83599500Y-90797000D03*
X69947000Y-70096000D03*
X57755000Y-70223000D03*
X89251000Y-75112500D03*
X97887000Y-65285530D03*
X77122500Y-72890000D03*
X72614000Y-68381500D03*
X88483175Y-75608801D03*
X98204500Y-61333000D03*
X77757500Y-72255000D03*
X73439500Y-68955700D03*
X87727000Y-75938000D03*
X101189000Y-61206000D03*
X78519500Y-72763000D03*
X74201500Y-69491200D03*
X97935970Y-73334500D03*
X74900000Y-73842500D03*
X78481144Y-69865224D03*
X75070696Y-69935700D03*
X74063137Y-73211761D03*
X97760000Y-77271500D03*
X77727300Y-69588000D03*
X75852500Y-70148497D03*
X73495188Y-72643812D03*
X97823500Y-81208500D03*
X77122500Y-70413500D03*
X75852500Y-70951700D03*
X72923688Y-72072312D03*
X102967000Y-81893030D03*
X80297500Y-72509000D03*
X68994500Y-68762500D03*
X66391000Y-69524500D03*
X81059500Y-71112000D03*
X89251000Y-72521300D03*
X81059500Y-67238500D03*
X65815950Y-64440950D03*
X73884000Y-61396500D03*
X69756500Y-65333500D03*
X68964300Y-71683500D03*
X72296500Y-61079000D03*
X68931000Y-65587500D03*
X68359500Y-71000799D03*
X64549500Y-69524500D03*
X80844991Y-69929509D03*
X90076500Y-72191500D03*
X80297500Y-66954300D03*
X64486000Y-63619000D03*
X57120000Y-71747000D03*
X53500500Y-73715500D03*
X69947000Y-77271500D03*
X69629500Y-83685000D03*
X90074236Y-66477254D03*
X91514300Y-66672862D03*
X86774500Y-64000000D03*
X84171000Y-65143000D03*
X67009159Y-65667841D03*
X84996500Y-72191500D03*
X79662500Y-65744700D03*
X66201812Y-65145396D03*
X91283000Y-63428500D03*
X87409500Y-68272300D03*
X65248000Y-63873000D03*
X87409500Y-79494000D03*
X73312500Y-63555500D03*
X82266000Y-66222500D03*
X79853000Y-70667500D03*
X67343500Y-61968000D03*
X67880800Y-66032724D03*
D23*
X57755000Y-66222500D02*
X57755000Y-66646764D01*
X57755000Y-66646764D02*
X57564500Y-66837264D01*
X57564500Y-66837264D02*
X57564500Y-68889500D01*
X58491590Y-69816590D02*
X57564500Y-68889500D01*
X64078018Y-68513290D02*
X62774718Y-69816590D01*
X62774718Y-69816590D02*
X58491590Y-69816590D01*
X67097539Y-68513289D02*
X64078018Y-68513290D01*
X68003910Y-69461000D02*
X68003909Y-69419659D01*
X68003909Y-69419659D02*
X67097539Y-68513289D01*
X68321410Y-69778500D02*
X68003910Y-69461000D01*
X69121500Y-69778500D02*
X68321410Y-69778500D01*
X97871970Y-69270500D02*
X98171969Y-69570499D01*
X76487500Y-73607378D02*
X76337492Y-73457370D01*
X93657910Y-78262090D02*
X90241590Y-78262090D01*
X98171969Y-69570499D02*
X98171969Y-71970031D01*
X79126113Y-76788863D02*
X77081431Y-74744181D01*
X98171969Y-71970031D02*
X96401090Y-73740910D01*
X96401090Y-73740910D02*
X96401090Y-77042910D01*
X96401090Y-77042910D02*
X95816910Y-77627090D01*
X95816910Y-77627090D02*
X94292910Y-77627090D01*
X90241590Y-78262090D02*
X90203500Y-78224000D01*
X94292910Y-77627090D02*
X93657910Y-78262090D01*
X90203500Y-78224000D02*
X90089500Y-78224000D01*
X90089500Y-78224000D02*
X88654364Y-76788864D01*
X76487500Y-74160000D02*
X76487500Y-73607378D01*
X88654364Y-76788864D02*
X79126113Y-76788863D01*
X77081431Y-74744181D02*
X77071680Y-74744180D01*
X77071680Y-74744180D02*
X76487500Y-74160000D01*
X76337492Y-73457370D02*
X76337492Y-73033106D01*
X76182731Y-72775731D02*
X76337492Y-72930492D01*
X76337492Y-72930492D02*
X76337492Y-73033106D01*
X75057175Y-72775731D02*
X76182731Y-72775731D01*
X73426773Y-71145329D02*
X75057175Y-72775731D01*
X71915500Y-69634056D02*
X73426773Y-71145329D01*
X71915500Y-67776700D02*
X71915500Y-69634056D01*
D24*
X79218000Y-60317000D02*
X79218000Y-61079000D01*
X76995500Y-58094500D02*
X79218000Y-60317000D01*
X65184500Y-58094500D02*
X76995500Y-58094500D01*
X63787500Y-59491500D02*
X65184500Y-58094500D01*
X58263000Y-59491500D02*
X63787500Y-59491500D01*
X57292999Y-60461501D02*
X58263000Y-59491500D01*
X56993000Y-62222000D02*
X57292999Y-61922001D01*
X57292999Y-61922001D02*
X57292999Y-60461501D01*
X86186810Y-82796000D02*
X86186810Y-83574190D01*
X86186810Y-83574190D02*
X85822000Y-83939000D01*
X85822000Y-83939000D02*
X80551500Y-83939000D01*
X80551500Y-83939000D02*
X79265500Y-85225000D01*
X79265500Y-85225000D02*
X72106000Y-85225000D01*
X72106000Y-85225000D02*
X71806001Y-84925001D01*
X71806001Y-84925001D02*
X69472501Y-84925001D01*
X69472501Y-84925001D02*
X66708500Y-82161000D01*
X66708500Y-82161000D02*
X66708500Y-81145000D01*
X66708500Y-81145000D02*
X64422500Y-78859000D01*
X64422500Y-78859000D02*
X61692000Y-78859000D01*
X59660000Y-76827000D02*
X59660000Y-74096500D01*
X61692000Y-78859000D02*
X59660000Y-76827000D01*
X59215500Y-73652000D02*
X59660000Y-74096500D01*
X59215500Y-71937500D02*
X59215500Y-73652000D01*
X58154201Y-70876201D02*
X59215500Y-71937500D01*
X54770500Y-68254500D02*
X57392201Y-70876201D01*
X57392201Y-70876201D02*
X58154201Y-70876201D01*
D23*
X81377000Y-74815500D02*
X81377000Y-75618700D01*
X81377000Y-75618700D02*
X81696300Y-75938000D01*
X66137000Y-85984800D02*
X66137000Y-85844000D01*
X66474500Y-87325500D02*
X66474500Y-86322300D01*
X66474500Y-86322300D02*
X66137000Y-85984800D01*
D24*
X105490000Y-67840000D02*
X107348500Y-65981500D01*
X107348500Y-65981500D02*
X107348500Y-65397000D01*
X66492600Y-72415200D02*
X67242600Y-72415200D01*
X67242600Y-72415200D02*
X67470500Y-72643100D01*
X66492600Y-72415200D02*
X64549500Y-72415200D01*
D23*
X76995500Y-82394764D02*
X76995500Y-81716500D01*
X79281500Y-84256500D02*
X78857236Y-84256500D01*
X78857236Y-84256500D02*
X76995500Y-82394764D01*
D24*
X74900000Y-77906500D02*
X73757000Y-79049500D01*
X73757000Y-79049500D02*
X72296500Y-79049500D01*
D23*
X72423500Y-87050500D02*
X69852700Y-87050500D01*
X69852700Y-87050500D02*
X69577700Y-87325500D01*
X69577700Y-87325500D02*
X68974500Y-87325500D01*
X73884000Y-88511000D02*
X72423500Y-87050500D01*
X73884000Y-89463500D02*
X73884000Y-88511000D01*
X75217500Y-90797000D02*
X73884000Y-89463500D01*
X83599500Y-90797000D02*
X75217500Y-90797000D01*
X66652541Y-84675591D02*
X66724591Y-84675591D01*
X68974500Y-86925500D02*
X68974500Y-87325500D01*
X66724591Y-84675591D02*
X68974500Y-86925500D01*
X63863700Y-84637500D02*
X66614450Y-84637500D01*
X66614450Y-84637500D02*
X66652541Y-84675591D01*
X60549000Y-82542000D02*
X61768200Y-82542000D01*
X61768200Y-82542000D02*
X63863700Y-84637500D01*
X67724500Y-87325500D02*
X67724500Y-86322300D01*
X67724500Y-86322300D02*
X66484200Y-85082000D01*
X66484200Y-85082000D02*
X60549000Y-85082000D01*
X69947000Y-70096000D02*
X69647001Y-70395999D01*
X69647001Y-70395999D02*
X68024499Y-70395999D01*
X68024499Y-70395999D02*
X67597500Y-69969000D01*
X67597500Y-69969000D02*
X67597500Y-69588000D01*
X67597500Y-69588000D02*
X66929199Y-68919699D01*
X66929199Y-68919699D02*
X64246359Y-68919699D01*
X62200000Y-70223000D02*
X57755000Y-70223000D01*
X64246359Y-68919699D02*
X62943058Y-70223000D01*
X62943058Y-70223000D02*
X62200000Y-70223000D01*
X89251000Y-75112500D02*
X89550999Y-74812501D01*
X89550999Y-74812501D02*
X90376499Y-74812501D01*
X90376499Y-74812501D02*
X90724182Y-74464818D01*
X95609040Y-72186710D02*
X96070910Y-71724840D01*
X90724182Y-74464818D02*
X91238682Y-74464818D01*
X97652181Y-68241819D02*
X100601569Y-68241819D01*
X91238682Y-74464818D02*
X93359590Y-72343910D01*
X100774501Y-68414751D02*
X100774501Y-69425815D01*
X93359590Y-72343910D02*
X93480090Y-72343910D01*
X93480090Y-72343910D02*
X93637289Y-72186711D01*
X101728686Y-70380000D02*
X102950000Y-70380000D01*
X93637289Y-72186711D02*
X95609040Y-72186710D01*
X96070910Y-71724840D02*
X96070910Y-69823090D01*
X100774501Y-69425815D02*
X101728686Y-70380000D01*
X96070910Y-69823090D02*
X97652181Y-68241819D01*
X100601569Y-68241819D02*
X100774501Y-68414751D01*
X72614000Y-68381500D02*
X72614000Y-69016500D01*
X72614000Y-69016500D02*
X73033090Y-69435590D01*
X73033090Y-69435590D02*
X73033090Y-69756340D01*
X73033090Y-69756340D02*
X73388680Y-70111930D01*
X73388680Y-70111930D02*
X73388680Y-70298290D01*
X73388680Y-70298290D02*
X73833182Y-70742792D01*
X73833182Y-70742792D02*
X73833182Y-70976988D01*
X73833182Y-70976988D02*
X75225515Y-72369321D01*
X75225515Y-72369321D02*
X76601821Y-72369321D01*
X76601821Y-72369321D02*
X77122500Y-72890000D01*
X105490000Y-70380000D02*
X104253500Y-69143500D01*
X104253500Y-69143500D02*
X102078000Y-69143500D01*
X91070341Y-74058409D02*
X88806500Y-74058410D01*
X102078000Y-69143500D02*
X101180910Y-68246410D01*
X101180910Y-68246410D02*
X101180910Y-67992410D01*
X101180910Y-67992410D02*
X100571311Y-67382811D01*
X100571311Y-67382811D02*
X98952439Y-67382811D01*
X95664500Y-69654750D02*
X95664500Y-71556500D01*
X98952439Y-67382811D02*
X98499841Y-67835409D01*
X98499841Y-67835409D02*
X97483841Y-67835409D01*
X97483841Y-67835409D02*
X95664500Y-69654750D01*
X95664500Y-71556500D02*
X95440699Y-71780301D01*
X95440699Y-71780301D02*
X93348449Y-71780301D01*
X88806500Y-74058410D02*
X88483175Y-74381735D01*
X93348449Y-71780301D02*
X91070341Y-74058409D01*
X88483175Y-74381735D02*
X88483175Y-75608801D01*
X73439500Y-68955700D02*
X73439500Y-69588000D01*
X73439500Y-69588000D02*
X73795090Y-69943590D01*
X73795090Y-69943590D02*
X73795090Y-70129950D01*
X74239591Y-70808647D02*
X75393855Y-71962911D01*
X75393855Y-71962911D02*
X77465411Y-71962911D01*
X73795090Y-70129950D02*
X74239590Y-70574450D01*
X74239590Y-70574450D02*
X74239591Y-70808647D01*
X77465411Y-71962911D02*
X77757500Y-72255000D01*
X102950000Y-67840000D02*
X102086401Y-66976401D01*
X88362000Y-73652000D02*
X87727000Y-74287000D01*
X102086401Y-66976401D02*
X98784099Y-66976401D01*
X97315500Y-67429000D02*
X95220000Y-69524500D01*
X98784099Y-66976401D02*
X98331500Y-67429000D01*
X98331500Y-67429000D02*
X97315500Y-67429000D01*
X95029500Y-69524500D02*
X90902000Y-73652000D01*
X95220000Y-69524500D02*
X95029500Y-69524500D01*
X90902000Y-73652000D02*
X88362000Y-73652000D01*
X87727000Y-74287000D02*
X87727000Y-75938000D01*
X74201500Y-69491200D02*
X74201500Y-69961610D01*
X74201500Y-69961610D02*
X74646000Y-70406110D01*
X74646000Y-70406110D02*
X74646000Y-70640306D01*
X74646000Y-70640306D02*
X75562195Y-71556501D01*
X77954107Y-71556501D02*
X78519500Y-72121894D01*
X75562195Y-71556501D02*
X77954107Y-71556501D01*
X78519500Y-72121894D02*
X78519500Y-72763000D01*
X74900000Y-73842500D02*
X74900000Y-74769590D01*
X74900000Y-74769590D02*
X75281000Y-75150590D01*
X89959250Y-78668500D02*
X93950000Y-78668500D01*
X75281000Y-75150590D02*
X76913090Y-75150590D01*
X76913090Y-75150590D02*
X78957772Y-77195272D01*
X78957772Y-77195272D02*
X88486023Y-77195273D01*
X93950000Y-78668500D02*
X94585000Y-78033500D01*
X88486023Y-77195273D02*
X89959250Y-78668500D01*
X94585000Y-78033500D02*
X96109000Y-78033500D01*
X96109000Y-78033500D02*
X96807500Y-77335000D01*
X96807500Y-77335000D02*
X96807500Y-74462970D01*
X96807500Y-74462970D02*
X97935970Y-73334500D01*
X78168699Y-68983199D02*
X78481144Y-69295644D01*
X78481144Y-69295644D02*
X78481144Y-69865224D01*
X76932000Y-69397500D02*
X77346301Y-68983199D01*
X77346301Y-68983199D02*
X78168699Y-68983199D01*
X75608896Y-69397500D02*
X76932000Y-69397500D01*
X75070696Y-69935700D02*
X75608896Y-69397500D01*
X92597590Y-81818090D02*
X95982000Y-81818090D01*
X97118894Y-81018000D02*
X96782090Y-81018000D01*
X96782090Y-81018000D02*
X95982000Y-81818090D01*
X97760000Y-77271500D02*
X97760000Y-80376894D01*
X97760000Y-80376894D02*
X97118894Y-81018000D01*
X92089590Y-81310090D02*
X92597590Y-81818090D01*
X91988000Y-81272000D02*
X92026090Y-81310090D01*
X92026090Y-81310090D02*
X92089590Y-81310090D01*
X88317682Y-77601682D02*
X91988000Y-81272000D01*
X78789431Y-77601681D02*
X88317682Y-77601682D01*
X76757431Y-75569681D02*
X78789431Y-77601681D01*
X74652500Y-75557000D02*
X76614500Y-75557000D01*
X76614500Y-75557000D02*
X76627180Y-75569680D01*
X76627180Y-75569680D02*
X76757431Y-75569681D01*
X73718910Y-74623410D02*
X74652500Y-75557000D01*
X73718910Y-73980252D02*
X73718910Y-74623410D01*
X74063137Y-73211761D02*
X74063137Y-73636025D01*
X74063137Y-73636025D02*
X73718910Y-73980252D01*
X77536801Y-69808699D02*
X77727300Y-69618200D01*
X77727300Y-69618200D02*
X77727300Y-69588000D01*
X76832195Y-69808699D02*
X77536801Y-69808699D01*
X75852500Y-70148497D02*
X76492397Y-70148497D01*
X76492397Y-70148497D02*
X76832195Y-69808699D01*
X97569500Y-82224500D02*
X97823500Y-81970500D01*
X97823500Y-81970500D02*
X97823500Y-81208500D01*
X92429250Y-82224500D02*
X97569500Y-82224500D01*
X91857750Y-81716500D02*
X91921250Y-81716500D01*
X91921250Y-81716500D02*
X92429250Y-82224500D01*
X73495188Y-72643812D02*
X73312500Y-72826500D01*
X73312500Y-72826500D02*
X73312500Y-74791750D01*
X76589090Y-75976090D02*
X77567000Y-76954000D01*
X77567000Y-76954000D02*
X77567000Y-77014250D01*
X73312500Y-74791750D02*
X74496840Y-75976090D01*
X78560840Y-78008090D02*
X88149341Y-78008091D01*
X74496840Y-75976090D02*
X76589090Y-75976090D01*
X77567000Y-77014250D02*
X78560840Y-78008090D01*
X88149341Y-78008091D02*
X91857750Y-81716500D01*
X76805000Y-70731000D02*
X77122500Y-70413500D01*
X76497464Y-70731000D02*
X76805000Y-70731000D01*
X75852500Y-70951700D02*
X76276764Y-70951700D01*
X76276764Y-70951700D02*
X76497464Y-70731000D01*
X72923688Y-72072312D02*
X72923688Y-72320206D01*
X72890387Y-74944387D02*
X74328500Y-76382500D01*
X72923688Y-72320206D02*
X72890387Y-72353507D01*
X74328500Y-76382500D02*
X76360500Y-76382500D01*
X76360500Y-76382500D02*
X78392500Y-78414500D01*
X72890387Y-72353507D02*
X72890387Y-74944387D01*
X87981000Y-78414500D02*
X91854500Y-82288000D01*
X78392500Y-78414500D02*
X87981000Y-78414500D01*
X91854500Y-82288000D02*
X91918000Y-82288000D01*
X91918000Y-82288000D02*
X92265699Y-82635699D01*
X96172500Y-83431000D02*
X101429030Y-83431000D01*
X92265699Y-82635699D02*
X95377199Y-82635699D01*
X95377199Y-82635699D02*
X96172500Y-83431000D01*
X101429030Y-83431000D02*
X102572030Y-82288000D01*
X102572030Y-82288000D02*
X102967000Y-81893030D01*
X80240190Y-70038690D02*
X80240190Y-70229190D01*
X80424500Y-70413500D02*
X80424500Y-71112000D01*
X80424500Y-71112000D02*
X80454699Y-71142199D01*
X80454699Y-71142199D02*
X80454699Y-71543199D01*
X80454699Y-71543199D02*
X81377000Y-72465500D01*
X81377000Y-72465500D02*
X81377000Y-72615500D01*
X80240190Y-70229190D02*
X80424500Y-70413500D01*
X79886301Y-69742195D02*
X79943695Y-69742195D01*
X79943695Y-69742195D02*
X80240190Y-70038690D01*
X68994500Y-68762500D02*
X69294499Y-69062499D01*
X71026500Y-67619500D02*
X71474101Y-67171899D01*
X69294499Y-69062499D02*
X69901001Y-69062499D01*
X69901001Y-69062499D02*
X71026500Y-67937000D01*
X71474101Y-67171899D02*
X72610899Y-67171899D01*
X71026500Y-67937000D02*
X71026500Y-67619500D01*
X72610899Y-67171899D02*
X74171301Y-68732301D01*
X74171301Y-68732301D02*
X75565199Y-68732301D01*
X75565199Y-68732301D02*
X75720711Y-68576789D01*
X78720895Y-68576789D02*
X79886301Y-69742195D01*
X75720711Y-68576789D02*
X78720895Y-68576789D01*
X81377000Y-72615500D02*
X80404000Y-72615500D01*
X80404000Y-72615500D02*
X80297500Y-72509000D01*
X80297500Y-72445500D02*
X80297500Y-72509000D01*
X65852801Y-62890301D02*
X65844900Y-62882400D01*
X65844900Y-62882400D02*
X65844900Y-61167900D01*
X65815950Y-64440950D02*
X65815950Y-64200156D01*
X65852801Y-64163305D02*
X65852801Y-62890301D01*
X65815950Y-64200156D02*
X65852801Y-64163305D01*
X66492600Y-69626100D02*
X66391000Y-69524500D01*
X66492600Y-70215200D02*
X66492600Y-69626100D01*
X81885000Y-71112000D02*
X81059500Y-71112000D01*
X82456500Y-71683500D02*
X81885000Y-71112000D01*
X82456500Y-72953500D02*
X82456500Y-71683500D01*
X83028000Y-73525000D02*
X82456500Y-72953500D01*
X86076000Y-73525000D02*
X83028000Y-73525000D01*
X86475392Y-73125608D02*
X86076000Y-73525000D01*
X89251000Y-72521300D02*
X88646692Y-73125608D01*
X88646692Y-73125608D02*
X86475392Y-73125608D01*
X81059500Y-67238500D02*
X81059500Y-66730500D01*
X81059500Y-66730500D02*
X80678500Y-66349500D01*
X80678500Y-66349500D02*
X70137500Y-66349500D01*
X70137500Y-66349500D02*
X69315101Y-67171899D01*
X69315101Y-67171899D02*
X67022899Y-67171899D01*
X67022899Y-67171899D02*
X65515951Y-65664951D01*
X65515951Y-65664951D02*
X65515951Y-64740949D01*
X65515951Y-64740949D02*
X65815950Y-64440950D01*
X73503000Y-61777500D02*
X73884000Y-61396500D01*
X71093250Y-61777500D02*
X73503000Y-61777500D01*
X69756500Y-63114250D02*
X71093250Y-61777500D01*
X69756500Y-65333500D02*
X69756500Y-63114250D01*
X71217000Y-61079000D02*
X72296500Y-61079000D01*
X69121500Y-63174500D02*
X71217000Y-61079000D01*
X69121500Y-64972736D02*
X69121500Y-63174500D01*
X68931000Y-65587500D02*
X68931000Y-65163236D01*
X68931000Y-65163236D02*
X69121500Y-64972736D01*
X89695500Y-71810500D02*
X89066694Y-71810500D01*
X89066694Y-71810500D02*
X88495194Y-72382000D01*
X86307052Y-72719198D02*
X85907660Y-73118590D01*
X82862909Y-71515159D02*
X81824750Y-70477000D01*
X88495194Y-72382000D02*
X88425500Y-72382000D01*
X88425500Y-72382000D02*
X88088302Y-72719198D01*
X88088302Y-72719198D02*
X86307052Y-72719198D01*
X83196340Y-73118590D02*
X83196340Y-73058340D01*
X80968218Y-70477000D02*
X80844991Y-70353773D01*
X85907660Y-73118590D02*
X83196340Y-73118590D01*
X83196340Y-73058340D02*
X82862910Y-72724910D01*
X82862910Y-72724910D02*
X82862909Y-71515159D01*
X81824750Y-70477000D02*
X80968218Y-70477000D01*
X80844991Y-70353773D02*
X80844991Y-69929509D01*
X89695500Y-71810500D02*
X89695501Y-71238999D01*
X89695501Y-71238999D02*
X90457500Y-70477000D01*
X64549500Y-70215200D02*
X64549500Y-69524500D01*
X77440000Y-66755910D02*
X70366090Y-66755910D01*
X70366090Y-66755910D02*
X69543691Y-67578309D01*
X69543691Y-67578309D02*
X66476809Y-67578309D01*
X66476809Y-67578309D02*
X64486000Y-65587500D01*
X64486000Y-65587500D02*
X64486000Y-64043264D01*
X64486000Y-64043264D02*
X64486000Y-63619000D01*
X90076500Y-72191500D02*
X89695500Y-71810500D01*
X77440000Y-66755910D02*
X77630500Y-66755910D01*
X79674846Y-66755910D02*
X77440000Y-66755910D01*
X80297500Y-66954300D02*
X79873236Y-66954300D01*
X79873236Y-66954300D02*
X79674846Y-66755910D01*
X57120000Y-72445500D02*
X57120000Y-71747000D01*
X56149999Y-73415501D02*
X57120000Y-72445500D01*
X53500500Y-73715500D02*
X53800499Y-73415501D01*
X53800499Y-73415501D02*
X56149999Y-73415501D01*
X69629500Y-77589000D02*
X69947000Y-77271500D01*
X69629500Y-83685000D02*
X69629500Y-77589000D01*
X86774500Y-64000000D02*
X86520500Y-64000000D01*
X86520500Y-64000000D02*
X85339400Y-62818900D01*
X90272862Y-66672862D02*
X90077254Y-66477254D01*
X90077254Y-66477254D02*
X90074236Y-66477254D01*
X91514300Y-66672862D02*
X90272862Y-66672862D01*
X84171000Y-65143000D02*
X86266500Y-65143000D01*
X86266500Y-65143000D02*
X86474501Y-64934999D01*
X86474501Y-64934999D02*
X86474501Y-64299999D01*
X86474501Y-64299999D02*
X86774500Y-64000000D01*
X69969159Y-65943091D02*
X76424000Y-65943091D01*
X76424000Y-65943091D02*
X79497409Y-65943091D01*
X76106500Y-64762000D02*
X76106500Y-65839630D01*
X76106500Y-65839630D02*
X76209961Y-65943091D01*
X76209961Y-65943091D02*
X76424000Y-65943091D01*
X84171000Y-72191500D02*
X84996500Y-72191500D01*
X83599500Y-68254500D02*
X83599500Y-71620000D01*
X83599500Y-71620000D02*
X84171000Y-72191500D01*
X82516750Y-67171750D02*
X83599500Y-68254500D01*
X82075500Y-67171750D02*
X82516750Y-67171750D01*
X79662500Y-65744700D02*
X80648450Y-65744700D01*
X80648450Y-65744700D02*
X82075500Y-67171750D01*
X79497409Y-65943091D02*
X79662500Y-65744700D01*
X79662500Y-65778000D02*
X79662500Y-65744700D01*
X69146761Y-66765489D02*
X69969159Y-65943091D01*
X67191239Y-66765489D02*
X69146761Y-66765489D01*
X66201812Y-65776062D02*
X67191239Y-66765489D01*
X66201812Y-65145396D02*
X66201812Y-65776062D01*
X92997500Y-63365000D02*
X91346500Y-63365000D01*
X91346500Y-63365000D02*
X91283000Y-63428500D01*
X91283000Y-64063500D02*
X91283000Y-63428500D01*
X87709499Y-67637001D02*
X91283000Y-64063500D01*
X87409500Y-68272300D02*
X87709499Y-67972301D01*
X87709499Y-67972301D02*
X87709499Y-67637001D01*
X65248000Y-63873000D02*
X65109541Y-64011459D01*
X87409500Y-79494000D02*
X86965000Y-79494000D01*
X86965000Y-79494000D02*
X86393500Y-80065500D01*
X76995500Y-63555500D02*
X73312500Y-63555500D01*
X78579899Y-65139899D02*
X76995500Y-63555500D01*
X80488000Y-65270000D02*
X80357899Y-65139899D01*
X80357899Y-65139899D02*
X78579899Y-65139899D01*
X81313500Y-65270000D02*
X80488000Y-65270000D01*
X82266000Y-66222500D02*
X81313500Y-65270000D01*
X67597500Y-62222000D02*
X67343500Y-61968000D01*
X67597500Y-65325160D02*
X67597500Y-62222000D01*
X67880800Y-66032724D02*
X67880800Y-65608460D01*
X67880800Y-65608460D02*
X67597500Y-65325160D01*
D25*
G36*
X104900741Y-56344811D02*
X104315667Y-57753825D01*
X104314336Y-59279482D01*
X104896950Y-60689515D01*
X105974811Y-61769259D01*
X107383825Y-62354333D01*
X108909482Y-62355664D01*
X110319515Y-61773050D01*
X110868000Y-61225522D01*
X110868000Y-86294500D01*
X110325189Y-85750741D01*
X108916175Y-85165667D01*
X107390518Y-85164336D01*
X105980485Y-85746950D01*
X104900741Y-86824811D01*
X104315667Y-88233825D01*
X104314336Y-89759482D01*
X104896950Y-91169515D01*
X105312709Y-91586000D01*
X84132567Y-91586000D01*
X84391692Y-91327327D01*
X84534338Y-90983799D01*
X84534662Y-90611833D01*
X84392617Y-90268057D01*
X84129827Y-90004808D01*
X83786299Y-89862162D01*
X83414333Y-89861838D01*
X83070557Y-90003883D01*
X83013941Y-90060400D01*
X75522610Y-90060400D01*
X74620600Y-89158390D01*
X74620600Y-89013667D01*
X95079338Y-89013667D01*
X95221383Y-89357443D01*
X95484173Y-89620692D01*
X95827701Y-89763338D01*
X96199667Y-89763662D01*
X96543443Y-89621617D01*
X96806692Y-89358827D01*
X96949338Y-89015299D01*
X96949662Y-88643333D01*
X96807617Y-88299557D01*
X96544827Y-88036308D01*
X96201299Y-87893662D01*
X95829333Y-87893338D01*
X95485557Y-88035383D01*
X95222308Y-88298173D01*
X95079662Y-88641701D01*
X95079338Y-89013667D01*
X74620600Y-89013667D01*
X74620600Y-88511000D01*
X74564530Y-88229115D01*
X74404855Y-87990145D01*
X72944355Y-86529645D01*
X72705385Y-86369970D01*
X72423500Y-86313900D01*
X69982125Y-86313900D01*
X69977662Y-86290183D01*
X69838590Y-86074059D01*
X69626390Y-85929069D01*
X69374500Y-85878060D01*
X68968770Y-85878060D01*
X67245446Y-84154736D01*
X67006476Y-83995061D01*
X66930820Y-83980012D01*
X66896335Y-83956970D01*
X66614450Y-83900900D01*
X64168810Y-83900900D01*
X62289055Y-82021145D01*
X62212440Y-81969952D01*
X62212440Y-81678400D01*
X62168162Y-81443083D01*
X62029090Y-81226959D01*
X61816890Y-81081969D01*
X61565000Y-81030960D01*
X59533000Y-81030960D01*
X59297683Y-81075238D01*
X59081559Y-81214310D01*
X58936569Y-81426510D01*
X58885560Y-81678400D01*
X58885560Y-83405600D01*
X58929838Y-83640917D01*
X59068910Y-83857041D01*
X59281110Y-84002031D01*
X59322439Y-84010400D01*
X59304585Y-84022330D01*
X58979729Y-84508511D01*
X58865655Y-85082000D01*
X58979729Y-85655489D01*
X59304585Y-86141670D01*
X59614069Y-86348461D01*
X59198268Y-86719964D01*
X58944291Y-87247209D01*
X58941642Y-87262974D01*
X59062783Y-87495000D01*
X60422000Y-87495000D01*
X60422000Y-87475000D01*
X60676000Y-87475000D01*
X60676000Y-87495000D01*
X62035217Y-87495000D01*
X62156358Y-87262974D01*
X62153709Y-87247209D01*
X61899732Y-86719964D01*
X61483931Y-86348461D01*
X61793415Y-86141670D01*
X62009284Y-85818600D01*
X66179090Y-85818600D01*
X66347498Y-85987008D01*
X66347498Y-86049248D01*
X66188750Y-85890500D01*
X65948191Y-85890500D01*
X65714802Y-85987173D01*
X65536173Y-86165801D01*
X65439500Y-86399190D01*
X65439500Y-87039750D01*
X65598250Y-87198500D01*
X66347500Y-87198500D01*
X66347500Y-87178500D01*
X66601500Y-87178500D01*
X66601500Y-87198500D01*
X66621500Y-87198500D01*
X66621500Y-87452500D01*
X66601500Y-87452500D01*
X66601500Y-88601750D01*
X66760250Y-88760500D01*
X67000809Y-88760500D01*
X67086924Y-88724830D01*
X67324500Y-88772940D01*
X68124500Y-88772940D01*
X68357760Y-88729049D01*
X68574500Y-88772940D01*
X69374500Y-88772940D01*
X69609817Y-88728662D01*
X69825941Y-88589590D01*
X69866647Y-88530015D01*
X69827060Y-88725500D01*
X69827060Y-91586000D01*
X65621940Y-91586000D01*
X65621940Y-88725500D01*
X65586123Y-88535149D01*
X65714802Y-88663827D01*
X65948191Y-88760500D01*
X66188750Y-88760500D01*
X66347500Y-88601750D01*
X66347500Y-87452500D01*
X65598250Y-87452500D01*
X65439500Y-87611250D01*
X65439500Y-88251810D01*
X65467010Y-88318225D01*
X65438590Y-88274059D01*
X65226390Y-88129069D01*
X64974500Y-88078060D01*
X62874500Y-88078060D01*
X62639183Y-88122338D01*
X62423059Y-88261410D01*
X62278069Y-88473610D01*
X62227060Y-88725500D01*
X62227060Y-91586000D01*
X53837730Y-91586000D01*
X54249259Y-91175189D01*
X54834333Y-89766175D01*
X54835664Y-88240518D01*
X54728445Y-87981026D01*
X58941642Y-87981026D01*
X58944291Y-87996791D01*
X59198268Y-88524036D01*
X59634680Y-88913954D01*
X60187087Y-89107184D01*
X60422000Y-88962924D01*
X60422000Y-87749000D01*
X60676000Y-87749000D01*
X60676000Y-88962924D01*
X60910913Y-89107184D01*
X61463320Y-88913954D01*
X61899732Y-88524036D01*
X62153709Y-87996791D01*
X62156358Y-87981026D01*
X62035217Y-87749000D01*
X60676000Y-87749000D01*
X60422000Y-87749000D01*
X59062783Y-87749000D01*
X58941642Y-87981026D01*
X54728445Y-87981026D01*
X54253050Y-86830485D01*
X53175189Y-85750741D01*
X51766175Y-85165667D01*
X50240518Y-85164336D01*
X48830485Y-85746950D01*
X48457000Y-86119784D01*
X48457000Y-73900667D01*
X52565338Y-73900667D01*
X52707383Y-74244443D01*
X52970173Y-74507692D01*
X53313701Y-74650338D01*
X53685667Y-74650662D01*
X54029443Y-74508617D01*
X54292692Y-74245827D01*
X54331611Y-74152101D01*
X56149999Y-74152101D01*
X56431884Y-74096031D01*
X56670854Y-73936356D01*
X57640855Y-72966355D01*
X57664818Y-72930492D01*
X57800530Y-72727385D01*
X57817154Y-72643812D01*
X57856601Y-72445500D01*
X57856600Y-72445495D01*
X57856600Y-72332822D01*
X57912192Y-72277327D01*
X58054838Y-71933799D01*
X58054879Y-71887037D01*
X58430500Y-72262658D01*
X58430500Y-73652000D01*
X58490255Y-73952407D01*
X58660421Y-74207079D01*
X58724847Y-74271505D01*
X58724838Y-74281667D01*
X58866883Y-74625443D01*
X58875000Y-74633574D01*
X58875000Y-76827000D01*
X58934755Y-77127407D01*
X59104921Y-77382079D01*
X61136921Y-79414079D01*
X61391593Y-79584245D01*
X61692000Y-79644000D01*
X64097342Y-79644000D01*
X65923500Y-81470158D01*
X65923500Y-82161000D01*
X65983255Y-82461407D01*
X66153421Y-82716079D01*
X68917422Y-85480080D01*
X69172095Y-85650246D01*
X69472501Y-85710001D01*
X71294727Y-85710001D01*
X71312883Y-85753943D01*
X71575673Y-86017192D01*
X71919201Y-86159838D01*
X72291167Y-86160162D01*
X72634943Y-86018117D01*
X72643074Y-86010000D01*
X79265500Y-86010000D01*
X79565907Y-85950245D01*
X79820579Y-85780079D01*
X80876658Y-84724000D01*
X85822000Y-84724000D01*
X86122407Y-84664245D01*
X86191801Y-84617877D01*
X104825838Y-84617877D01*
X104967883Y-84961653D01*
X105230673Y-85224902D01*
X105574201Y-85367548D01*
X105946167Y-85367872D01*
X106289943Y-85225827D01*
X106553192Y-84963037D01*
X106695838Y-84619509D01*
X106696162Y-84247543D01*
X106554117Y-83903767D01*
X106291327Y-83640518D01*
X105947799Y-83497872D01*
X105575833Y-83497548D01*
X105232057Y-83639593D01*
X104968808Y-83902383D01*
X104826162Y-84245911D01*
X104825838Y-84617877D01*
X86191801Y-84617877D01*
X86377079Y-84494079D01*
X86741889Y-84129269D01*
X86912055Y-83874597D01*
X86971810Y-83574190D01*
X86971810Y-83333506D01*
X86979002Y-83326327D01*
X87121648Y-82982799D01*
X87121972Y-82610833D01*
X86979927Y-82267057D01*
X86717137Y-82003808D01*
X86373609Y-81861162D01*
X86001643Y-81860838D01*
X85657867Y-82002883D01*
X85394618Y-82265673D01*
X85251972Y-82609201D01*
X85251648Y-82981167D01*
X85323061Y-83154000D01*
X80551505Y-83154000D01*
X80551500Y-83153999D01*
X80251094Y-83213755D01*
X79996421Y-83383921D01*
X79863885Y-83516457D01*
X79811827Y-83464308D01*
X79468299Y-83321662D01*
X79096333Y-83321338D01*
X79002539Y-83360093D01*
X77817496Y-82175050D01*
X77930338Y-81903299D01*
X77930662Y-81531333D01*
X77788617Y-81187557D01*
X77525827Y-80924308D01*
X77182299Y-80781662D01*
X76810333Y-80781338D01*
X76466557Y-80923383D01*
X76203308Y-81186173D01*
X76060662Y-81529701D01*
X76060338Y-81901667D01*
X76202383Y-82245443D01*
X76258900Y-82302059D01*
X76258900Y-82394764D01*
X76314970Y-82676649D01*
X76474645Y-82915619D01*
X77999026Y-84440000D01*
X72643506Y-84440000D01*
X72636327Y-84432808D01*
X72292799Y-84290162D01*
X72241644Y-84290117D01*
X72106408Y-84199756D01*
X71806001Y-84140001D01*
X70452970Y-84140001D01*
X70564338Y-83871799D01*
X70564662Y-83499833D01*
X70422617Y-83156057D01*
X70366100Y-83099441D01*
X70366100Y-82333841D01*
X70735167Y-82334162D01*
X71078943Y-82192117D01*
X71342192Y-81929327D01*
X71484838Y-81585799D01*
X71485162Y-81213833D01*
X71343117Y-80870057D01*
X71080327Y-80606808D01*
X70736799Y-80464162D01*
X70366100Y-80463839D01*
X70366100Y-78110003D01*
X70475943Y-78064617D01*
X70739192Y-77801827D01*
X70881838Y-77458299D01*
X70882162Y-77086333D01*
X70740117Y-76742557D01*
X70477327Y-76479308D01*
X70133799Y-76336662D01*
X69761833Y-76336338D01*
X69418057Y-76478383D01*
X69154808Y-76741173D01*
X69012162Y-77084701D01*
X69012050Y-77212709D01*
X68948970Y-77307115D01*
X68892900Y-77589000D01*
X68892900Y-83099178D01*
X68837308Y-83154673D01*
X68829980Y-83172322D01*
X67493500Y-81835842D01*
X67493500Y-81145000D01*
X67433745Y-80844594D01*
X67433745Y-80844593D01*
X67263579Y-80589921D01*
X64977579Y-78303921D01*
X64722907Y-78133755D01*
X64422500Y-78074000D01*
X62017158Y-78074000D01*
X60445000Y-76501842D01*
X60445000Y-74634006D01*
X60452192Y-74626827D01*
X60594838Y-74283299D01*
X60595162Y-73911333D01*
X60453117Y-73567557D01*
X60190327Y-73304308D01*
X60000500Y-73225485D01*
X60000500Y-71937500D01*
X59940745Y-71637094D01*
X59770579Y-71382421D01*
X59347758Y-70959600D01*
X62943058Y-70959600D01*
X63224943Y-70903530D01*
X63452060Y-70751775D01*
X63452060Y-70815200D01*
X63496338Y-71050517D01*
X63635410Y-71266641D01*
X63705211Y-71314334D01*
X63648059Y-71351110D01*
X63503069Y-71563310D01*
X63452060Y-71815200D01*
X63452060Y-73015200D01*
X63496338Y-73250517D01*
X63635410Y-73466641D01*
X63847610Y-73611631D01*
X64099500Y-73662640D01*
X64999500Y-73662640D01*
X65234817Y-73618362D01*
X65450941Y-73479290D01*
X65520830Y-73377004D01*
X65578510Y-73466641D01*
X65790710Y-73611631D01*
X66042600Y-73662640D01*
X66942600Y-73662640D01*
X67177917Y-73618362D01*
X67257588Y-73567095D01*
X67283701Y-73577938D01*
X67655667Y-73578262D01*
X67999443Y-73436217D01*
X68262692Y-73173427D01*
X68405338Y-72829899D01*
X68405662Y-72457933D01*
X68398188Y-72439844D01*
X68433973Y-72475692D01*
X68777501Y-72618338D01*
X69149467Y-72618662D01*
X69493243Y-72476617D01*
X69756492Y-72213827D01*
X69899138Y-71870299D01*
X69899462Y-71498333D01*
X69757417Y-71154557D01*
X69720836Y-71117912D01*
X69928886Y-71076529D01*
X69996959Y-71031044D01*
X70132167Y-71031162D01*
X70475943Y-70889117D01*
X70739192Y-70626327D01*
X70881838Y-70282799D01*
X70882162Y-69910833D01*
X70740117Y-69567057D01*
X70589267Y-69415943D01*
X71178900Y-68826310D01*
X71178900Y-69634056D01*
X71234970Y-69915941D01*
X71394645Y-70154911D01*
X72482620Y-71242886D01*
X72394745Y-71279195D01*
X72131496Y-71541985D01*
X71988850Y-71885513D01*
X71988526Y-72257479D01*
X72130571Y-72601255D01*
X72153787Y-72624512D01*
X72153787Y-74944387D01*
X72209857Y-75226272D01*
X72369532Y-75465242D01*
X73807645Y-76903355D01*
X74046615Y-77063030D01*
X74328500Y-77119100D01*
X74365330Y-77119100D01*
X74107808Y-77376173D01*
X73965162Y-77719701D01*
X73965152Y-77731190D01*
X73459347Y-78236995D01*
X73088870Y-77865871D01*
X72575600Y-77652743D01*
X72019839Y-77652258D01*
X71506197Y-77864490D01*
X71112871Y-78257130D01*
X70899743Y-78770400D01*
X70899258Y-79326161D01*
X71111490Y-79839803D01*
X71504130Y-80233129D01*
X72017400Y-80446257D01*
X72573161Y-80446742D01*
X73086803Y-80234510D01*
X73480129Y-79841870D01*
X73483189Y-79834500D01*
X73757000Y-79834500D01*
X74057407Y-79774745D01*
X74312079Y-79604579D01*
X75075005Y-78841653D01*
X75085167Y-78841662D01*
X75428943Y-78699617D01*
X75692192Y-78436827D01*
X75834838Y-78093299D01*
X75835162Y-77721333D01*
X75693117Y-77377557D01*
X75435111Y-77119100D01*
X76055390Y-77119100D01*
X77871645Y-78935355D01*
X78110615Y-79095030D01*
X78392500Y-79151100D01*
X85332114Y-79151100D01*
X85209871Y-79273130D01*
X84996743Y-79786400D01*
X84996258Y-80342161D01*
X85208490Y-80855803D01*
X85601130Y-81249129D01*
X86114400Y-81462257D01*
X86670161Y-81462742D01*
X87183803Y-81250510D01*
X87577129Y-80857870D01*
X87788379Y-80349122D01*
X87938443Y-80287117D01*
X88201692Y-80024327D01*
X88303628Y-79778838D01*
X91333645Y-82808855D01*
X91525014Y-82936724D01*
X91744844Y-83156554D01*
X91983814Y-83316229D01*
X92265699Y-83372299D01*
X94073574Y-83372299D01*
X94073528Y-83425667D01*
X94215573Y-83769443D01*
X94478363Y-84032692D01*
X94821891Y-84175338D01*
X95193857Y-84175662D01*
X95537633Y-84033617D01*
X95635605Y-83935815D01*
X95651645Y-83951855D01*
X95890615Y-84111530D01*
X96172500Y-84167600D01*
X101429030Y-84167600D01*
X101710915Y-84111530D01*
X101949885Y-83951855D01*
X103073616Y-82828124D01*
X103152167Y-82828192D01*
X103495943Y-82686147D01*
X103759192Y-82423357D01*
X103901838Y-82079829D01*
X103902162Y-81707863D01*
X103760117Y-81364087D01*
X103497327Y-81100838D01*
X103153799Y-80958192D01*
X102781833Y-80957868D01*
X102438057Y-81099913D01*
X102174808Y-81362703D01*
X102032162Y-81706231D01*
X102032092Y-81786228D01*
X101123920Y-82694400D01*
X98141310Y-82694400D01*
X98344355Y-82491355D01*
X98504030Y-82252385D01*
X98560100Y-81970500D01*
X98560100Y-81794322D01*
X98615692Y-81738827D01*
X98758338Y-81395299D01*
X98758662Y-81023333D01*
X98616617Y-80679557D01*
X98466341Y-80529018D01*
X98496600Y-80376894D01*
X98496600Y-78285750D01*
X101451400Y-78285750D01*
X101451400Y-78989909D01*
X101548073Y-79223298D01*
X101726701Y-79401927D01*
X101960090Y-79498600D01*
X102664250Y-79498600D01*
X102823000Y-79339850D01*
X102823000Y-78127000D01*
X101610150Y-78127000D01*
X101451400Y-78285750D01*
X98496600Y-78285750D01*
X98496600Y-77857322D01*
X98552192Y-77801827D01*
X98694838Y-77458299D01*
X98695162Y-77086333D01*
X98553117Y-76742557D01*
X98290327Y-76479308D01*
X97946799Y-76336662D01*
X97574833Y-76336338D01*
X97544100Y-76349037D01*
X97544100Y-74768080D01*
X98042586Y-74269594D01*
X98121137Y-74269662D01*
X98464913Y-74127617D01*
X98728162Y-73864827D01*
X98870808Y-73521299D01*
X98871132Y-73149333D01*
X98729087Y-72805557D01*
X98553773Y-72629937D01*
X98692824Y-72490886D01*
X98852499Y-72251916D01*
X98908569Y-71970031D01*
X98908569Y-69570499D01*
X98852499Y-69288614D01*
X98807014Y-69220541D01*
X98807132Y-69085333D01*
X98762956Y-68978419D01*
X100037901Y-68978419D01*
X100037901Y-69425815D01*
X100093971Y-69707700D01*
X100253646Y-69946670D01*
X101207831Y-70900855D01*
X101446801Y-71060530D01*
X101643526Y-71099661D01*
X101890330Y-71469029D01*
X102161172Y-71650000D01*
X101890330Y-71830971D01*
X101565474Y-72317152D01*
X101451400Y-72890641D01*
X101451400Y-72949359D01*
X101565474Y-73522848D01*
X101890330Y-74009029D01*
X102161172Y-74190000D01*
X101890330Y-74370971D01*
X101565474Y-74857152D01*
X101451400Y-75430641D01*
X101451400Y-75489359D01*
X101565474Y-76062848D01*
X101880526Y-76534356D01*
X101726701Y-76598073D01*
X101548073Y-76776702D01*
X101451400Y-77010091D01*
X101451400Y-77714250D01*
X101610150Y-77873000D01*
X102823000Y-77873000D01*
X102823000Y-77853000D01*
X103077000Y-77853000D01*
X103077000Y-77873000D01*
X103097000Y-77873000D01*
X103097000Y-78127000D01*
X103077000Y-78127000D01*
X103077000Y-79339850D01*
X103235750Y-79498600D01*
X103939910Y-79498600D01*
X104173299Y-79401927D01*
X104351927Y-79223298D01*
X104416263Y-79067977D01*
X104430330Y-79089029D01*
X104916511Y-79413885D01*
X105490000Y-79527959D01*
X106063489Y-79413885D01*
X106549670Y-79089029D01*
X106874526Y-78602848D01*
X106988600Y-78029359D01*
X106988600Y-77970641D01*
X106874526Y-77397152D01*
X106549670Y-76910971D01*
X106278828Y-76730000D01*
X106549670Y-76549029D01*
X106874526Y-76062848D01*
X106988600Y-75489359D01*
X106988600Y-75430641D01*
X106874526Y-74857152D01*
X106549670Y-74370971D01*
X106278828Y-74190000D01*
X106549670Y-74009029D01*
X106874526Y-73522848D01*
X106988600Y-72949359D01*
X106988600Y-72890641D01*
X106874526Y-72317152D01*
X106549670Y-71830971D01*
X106278828Y-71650000D01*
X106549670Y-71469029D01*
X106874526Y-70982848D01*
X106988600Y-70409359D01*
X106988600Y-70350641D01*
X106874526Y-69777152D01*
X106549670Y-69290971D01*
X106278828Y-69110000D01*
X106549670Y-68929029D01*
X106874526Y-68442848D01*
X106988600Y-67869359D01*
X106988600Y-67810641D01*
X106929024Y-67511134D01*
X107660530Y-66779628D01*
X108138803Y-66582010D01*
X108532129Y-66189370D01*
X108745257Y-65676100D01*
X108745742Y-65120339D01*
X108533510Y-64606697D01*
X108140870Y-64213371D01*
X107627600Y-64000243D01*
X107071839Y-63999758D01*
X106558197Y-64211990D01*
X106164871Y-64604630D01*
X105951743Y-65117900D01*
X105951258Y-65673661D01*
X106125202Y-66094640D01*
X105838483Y-66381359D01*
X105490000Y-66312041D01*
X104916511Y-66426115D01*
X104430330Y-66750971D01*
X104220000Y-67065752D01*
X104009670Y-66750971D01*
X103523489Y-66426115D01*
X102950000Y-66312041D01*
X102520381Y-66397498D01*
X102368286Y-66295871D01*
X102086401Y-66239801D01*
X98784099Y-66239801D01*
X98502214Y-66295871D01*
X98293769Y-66435150D01*
X98263244Y-66455546D01*
X98026390Y-66692400D01*
X97315505Y-66692400D01*
X97315500Y-66692399D01*
X97033616Y-66748469D01*
X96794645Y-66908145D01*
X94886432Y-68816358D01*
X94747615Y-68843970D01*
X94508645Y-69003645D01*
X90924242Y-72588048D01*
X91011338Y-72378299D01*
X91011662Y-72006333D01*
X90924575Y-71795565D01*
X91247803Y-71662010D01*
X91641129Y-71269370D01*
X91854257Y-70756100D01*
X91854742Y-70200339D01*
X91642510Y-69686697D01*
X91249870Y-69293371D01*
X90736600Y-69080243D01*
X90180839Y-69079758D01*
X89667197Y-69291990D01*
X89273871Y-69684630D01*
X89060743Y-70197900D01*
X89060258Y-70753661D01*
X89094898Y-70837495D01*
X89014971Y-70957113D01*
X88988653Y-71089423D01*
X88784809Y-71129970D01*
X88545839Y-71289645D01*
X88114681Y-71720803D01*
X87904645Y-71861145D01*
X87783192Y-71982598D01*
X86307052Y-71982598D01*
X86025167Y-72038668D01*
X85931579Y-72101201D01*
X85931662Y-72006333D01*
X85789617Y-71662557D01*
X85526827Y-71399308D01*
X85183299Y-71256662D01*
X84811333Y-71256338D01*
X84467557Y-71398383D01*
X84443554Y-71422344D01*
X84336100Y-71314890D01*
X84336100Y-69685254D01*
X84365201Y-69697338D01*
X84737167Y-69697662D01*
X85080943Y-69555617D01*
X85344192Y-69292827D01*
X85486838Y-68949299D01*
X85487162Y-68577333D01*
X85437635Y-68457467D01*
X86474338Y-68457467D01*
X86616383Y-68801243D01*
X86879173Y-69064492D01*
X87222701Y-69207138D01*
X87594667Y-69207462D01*
X87938443Y-69065417D01*
X88201692Y-68802627D01*
X88344338Y-68459099D01*
X88344457Y-68322389D01*
X88390029Y-68254186D01*
X88446099Y-67972301D01*
X88446099Y-67942111D01*
X89331522Y-67056688D01*
X89543909Y-67269446D01*
X89887437Y-67412092D01*
X90259403Y-67412416D01*
X90268603Y-67408615D01*
X90272862Y-67409462D01*
X90928478Y-67409462D01*
X90983973Y-67465054D01*
X91327501Y-67607700D01*
X91699467Y-67608024D01*
X92043243Y-67465979D01*
X92085628Y-67423667D01*
X94075528Y-67423667D01*
X94217573Y-67767443D01*
X94480363Y-68030692D01*
X94823891Y-68173338D01*
X95195857Y-68173662D01*
X95539633Y-68031617D01*
X95802882Y-67768827D01*
X95945528Y-67425299D01*
X95945852Y-67053333D01*
X95803807Y-66709557D01*
X95541017Y-66446308D01*
X95197489Y-66303662D01*
X94825523Y-66303338D01*
X94481747Y-66445383D01*
X94218498Y-66708173D01*
X94075852Y-67051701D01*
X94075528Y-67423667D01*
X92085628Y-67423667D01*
X92306492Y-67203189D01*
X92449138Y-66859661D01*
X92449462Y-66487695D01*
X92307417Y-66143919D01*
X92044627Y-65880670D01*
X91701099Y-65738024D01*
X91329133Y-65737700D01*
X90985357Y-65879745D01*
X90928741Y-65936262D01*
X90855325Y-65936262D01*
X90653812Y-65734398D01*
X90917513Y-65470697D01*
X96951838Y-65470697D01*
X97093883Y-65814473D01*
X97356673Y-66077722D01*
X97700201Y-66220368D01*
X98072167Y-66220692D01*
X98415943Y-66078647D01*
X98679192Y-65815857D01*
X98821838Y-65472329D01*
X98822162Y-65100363D01*
X98680117Y-64756587D01*
X98417327Y-64493338D01*
X98073799Y-64350692D01*
X97701833Y-64350368D01*
X97358057Y-64492413D01*
X97094808Y-64755203D01*
X96952162Y-65098731D01*
X96951838Y-65470697D01*
X90917513Y-65470697D01*
X91803855Y-64584355D01*
X91846284Y-64520855D01*
X91963530Y-64345385D01*
X91969962Y-64313050D01*
X92205130Y-64548629D01*
X92718400Y-64761757D01*
X93274161Y-64762242D01*
X93787803Y-64550010D01*
X94181129Y-64157370D01*
X94279949Y-63919386D01*
X94435673Y-64075382D01*
X94779201Y-64218028D01*
X95151167Y-64218352D01*
X95494943Y-64076307D01*
X95758192Y-63813517D01*
X95900838Y-63469989D01*
X95901162Y-63098023D01*
X95759117Y-62754247D01*
X95496327Y-62490998D01*
X95152799Y-62348352D01*
X94780833Y-62348028D01*
X94437057Y-62490073D01*
X94232088Y-62694685D01*
X94182510Y-62574697D01*
X93789870Y-62181371D01*
X93276600Y-61968243D01*
X92720839Y-61967758D01*
X92207197Y-62179990D01*
X91813871Y-62572630D01*
X91791238Y-62627136D01*
X91469799Y-62493662D01*
X91097833Y-62493338D01*
X90754057Y-62635383D01*
X90490808Y-62898173D01*
X90348162Y-63241701D01*
X90347838Y-63613667D01*
X90448208Y-63856582D01*
X87188644Y-67116146D01*
X87028969Y-67355116D01*
X87015371Y-67423479D01*
X86880557Y-67479183D01*
X86617308Y-67741973D01*
X86474662Y-68085501D01*
X86474338Y-68457467D01*
X85437635Y-68457467D01*
X85345117Y-68233557D01*
X85082327Y-67970308D01*
X84738799Y-67827662D01*
X84366833Y-67827338D01*
X84222741Y-67886876D01*
X84120355Y-67733645D01*
X83082059Y-66695349D01*
X83200838Y-66409299D01*
X83201162Y-66037333D01*
X83059117Y-65693557D01*
X82796327Y-65430308D01*
X82550346Y-65328167D01*
X83235838Y-65328167D01*
X83377883Y-65671943D01*
X83640673Y-65935192D01*
X83984201Y-66077838D01*
X84356167Y-66078162D01*
X84699943Y-65936117D01*
X84756559Y-65879600D01*
X86266500Y-65879600D01*
X86548385Y-65823530D01*
X86787355Y-65663855D01*
X86995356Y-65455854D01*
X87013043Y-65429383D01*
X87155031Y-65216884D01*
X87211101Y-64934999D01*
X87211101Y-64831272D01*
X87303443Y-64793117D01*
X87566692Y-64530327D01*
X87709338Y-64186799D01*
X87709662Y-63814833D01*
X87577453Y-63494863D01*
X87693692Y-63378827D01*
X87836338Y-63035299D01*
X87836662Y-62663333D01*
X87694617Y-62319557D01*
X87431827Y-62056308D01*
X87088299Y-61913662D01*
X86716333Y-61913338D01*
X86498997Y-62003139D01*
X86131770Y-61635271D01*
X85849752Y-61518167D01*
X97269338Y-61518167D01*
X97411383Y-61861943D01*
X97674173Y-62125192D01*
X98017701Y-62267838D01*
X98389667Y-62268162D01*
X98733443Y-62126117D01*
X98996692Y-61863327D01*
X99139338Y-61519799D01*
X99139450Y-61391167D01*
X100253838Y-61391167D01*
X100395883Y-61734943D01*
X100658673Y-61998192D01*
X101002201Y-62140838D01*
X101374167Y-62141162D01*
X101717943Y-61999117D01*
X101981192Y-61736327D01*
X102123838Y-61392799D01*
X102124162Y-61020833D01*
X101982117Y-60677057D01*
X101719327Y-60413808D01*
X101375799Y-60271162D01*
X101003833Y-60270838D01*
X100660057Y-60412883D01*
X100396808Y-60675673D01*
X100254162Y-61019201D01*
X100253838Y-61391167D01*
X99139450Y-61391167D01*
X99139662Y-61147833D01*
X98997617Y-60804057D01*
X98734827Y-60540808D01*
X98391299Y-60398162D01*
X98019333Y-60397838D01*
X97675557Y-60539883D01*
X97412308Y-60802673D01*
X97269662Y-61146201D01*
X97269338Y-61518167D01*
X85849752Y-61518167D01*
X85618500Y-61422143D01*
X85062739Y-61421658D01*
X84549097Y-61633890D01*
X84155771Y-62026530D01*
X83942643Y-62539800D01*
X83942158Y-63095561D01*
X84154390Y-63609203D01*
X84547030Y-64002529D01*
X85060300Y-64215657D01*
X85616061Y-64216142D01*
X85671872Y-64193082D01*
X85744685Y-64265895D01*
X85737901Y-64299999D01*
X85737901Y-64406400D01*
X84756822Y-64406400D01*
X84701327Y-64350808D01*
X84357799Y-64208162D01*
X83985833Y-64207838D01*
X83642057Y-64349883D01*
X83378808Y-64612673D01*
X83236162Y-64956201D01*
X83235838Y-65328167D01*
X82550346Y-65328167D01*
X82452799Y-65287662D01*
X82372802Y-65287592D01*
X81834355Y-64749145D01*
X81595385Y-64589470D01*
X81313500Y-64533400D01*
X80750579Y-64533400D01*
X80639784Y-64459369D01*
X80357899Y-64403299D01*
X78885009Y-64403299D01*
X77516355Y-63034645D01*
X77277385Y-62874970D01*
X76995500Y-62818900D01*
X73898322Y-62818900D01*
X73842827Y-62763308D01*
X73499299Y-62620662D01*
X73127333Y-62620338D01*
X72783557Y-62762383D01*
X72520308Y-63025173D01*
X72377662Y-63368701D01*
X72377338Y-63740667D01*
X72519383Y-64084443D01*
X72782173Y-64347692D01*
X73125701Y-64490338D01*
X73497667Y-64490662D01*
X73841443Y-64348617D01*
X73898059Y-64292100D01*
X74788970Y-64292100D01*
X74709743Y-64482900D01*
X74709258Y-65038661D01*
X74778604Y-65206491D01*
X70691611Y-65206491D01*
X70691662Y-65148333D01*
X70549617Y-64804557D01*
X70493100Y-64747941D01*
X70493100Y-63419360D01*
X71398360Y-62514100D01*
X73503000Y-62514100D01*
X73784885Y-62458030D01*
X73974132Y-62331579D01*
X74069167Y-62331662D01*
X74412943Y-62189617D01*
X74676192Y-61926827D01*
X74818838Y-61583299D01*
X74819162Y-61211333D01*
X74677117Y-60867557D01*
X74414327Y-60604308D01*
X74070799Y-60461662D01*
X73698833Y-60461338D01*
X73355057Y-60603383D01*
X73182730Y-60775409D01*
X73089617Y-60550057D01*
X72826827Y-60286808D01*
X72483299Y-60144162D01*
X72465106Y-60144146D01*
X72500338Y-60059299D01*
X72500662Y-59687333D01*
X72358617Y-59343557D01*
X72095827Y-59080308D01*
X71752299Y-58937662D01*
X71380333Y-58937338D01*
X71036557Y-59079383D01*
X70773308Y-59342173D01*
X70630662Y-59685701D01*
X70630338Y-60057667D01*
X70772383Y-60401443D01*
X70835716Y-60464886D01*
X70696145Y-60558145D01*
X68600645Y-62653645D01*
X68440970Y-62892615D01*
X68384900Y-63174500D01*
X68384900Y-64680163D01*
X68334100Y-64756190D01*
X68334100Y-62222000D01*
X68278523Y-61942593D01*
X68278662Y-61782833D01*
X68136617Y-61439057D01*
X67873827Y-61175808D01*
X67530299Y-61033162D01*
X67242018Y-61032911D01*
X67242142Y-60891239D01*
X67029910Y-60377597D01*
X66637270Y-59984271D01*
X66124000Y-59771143D01*
X65568239Y-59770658D01*
X65054597Y-59982890D01*
X64661271Y-60375530D01*
X64448143Y-60888800D01*
X64447658Y-61444561D01*
X64659890Y-61958203D01*
X65052530Y-62351529D01*
X65108300Y-62374687D01*
X65108300Y-62882400D01*
X65116201Y-62922121D01*
X65116201Y-62926856D01*
X65016327Y-62826808D01*
X64672799Y-62684162D01*
X64300833Y-62683838D01*
X63957057Y-62825883D01*
X63693808Y-63088673D01*
X63551162Y-63432201D01*
X63550838Y-63804167D01*
X63692883Y-64147943D01*
X63749400Y-64204559D01*
X63749400Y-65587500D01*
X63805470Y-65869385D01*
X63965145Y-66108355D01*
X65633479Y-67776689D01*
X64078023Y-67776690D01*
X64078018Y-67776689D01*
X63796134Y-67832759D01*
X63557163Y-67992435D01*
X62469608Y-69079990D01*
X58796700Y-69079990D01*
X58301100Y-68584390D01*
X58301100Y-67129837D01*
X58349465Y-67057454D01*
X58435530Y-66928649D01*
X58451502Y-66848350D01*
X58547192Y-66752827D01*
X58689838Y-66409299D01*
X58690162Y-66037333D01*
X58548117Y-65693557D01*
X58285327Y-65430308D01*
X57941799Y-65287662D01*
X57569833Y-65287338D01*
X57226057Y-65429383D01*
X56962808Y-65692173D01*
X56820162Y-66035701D01*
X56819838Y-66407667D01*
X56882963Y-66560442D01*
X56827900Y-66837264D01*
X56827900Y-68889500D01*
X56883970Y-69171385D01*
X57043645Y-69410355D01*
X57144544Y-69511254D01*
X57140975Y-69514817D01*
X55705653Y-68079495D01*
X55705662Y-68069333D01*
X55563617Y-67725557D01*
X55300827Y-67462308D01*
X54957299Y-67319662D01*
X54585333Y-67319338D01*
X54241557Y-67461383D01*
X53978308Y-67724173D01*
X53835662Y-68067701D01*
X53835338Y-68439667D01*
X53977383Y-68783443D01*
X54240173Y-69046692D01*
X54583701Y-69189338D01*
X54595190Y-69189348D01*
X56475290Y-71069448D01*
X56327808Y-71216673D01*
X56185162Y-71560201D01*
X56184838Y-71932167D01*
X56303774Y-72220016D01*
X55844889Y-72678901D01*
X53800499Y-72678901D01*
X53518614Y-72734971D01*
X53450541Y-72780456D01*
X53315333Y-72780338D01*
X52971557Y-72922383D01*
X52708308Y-73185173D01*
X52565662Y-73528701D01*
X52565338Y-73900667D01*
X48457000Y-73900667D01*
X48457000Y-62407167D01*
X56057838Y-62407167D01*
X56199883Y-62750943D01*
X56462673Y-63014192D01*
X56806201Y-63156838D01*
X57178167Y-63157162D01*
X57521943Y-63015117D01*
X57785192Y-62752327D01*
X57927838Y-62408799D01*
X57927883Y-62357643D01*
X58018244Y-62222407D01*
X58077999Y-61922001D01*
X58077999Y-60786659D01*
X58588158Y-60276500D01*
X63787500Y-60276500D01*
X64087907Y-60216745D01*
X64342579Y-60046579D01*
X65509658Y-58879500D01*
X76670342Y-58879500D01*
X76931164Y-59140322D01*
X76674299Y-59033662D01*
X76302333Y-59033338D01*
X75958557Y-59175383D01*
X75695308Y-59438173D01*
X75552662Y-59781701D01*
X75552338Y-60153667D01*
X75694383Y-60497443D01*
X75957173Y-60760692D01*
X76300701Y-60903338D01*
X76672667Y-60903662D01*
X77016443Y-60761617D01*
X77279692Y-60498827D01*
X77422338Y-60155299D01*
X77422662Y-59783333D01*
X77315977Y-59525135D01*
X78400489Y-60609647D01*
X78283162Y-60892201D01*
X78282838Y-61264167D01*
X78424883Y-61607943D01*
X78687673Y-61871192D01*
X79031201Y-62013838D01*
X79403167Y-62014162D01*
X79746943Y-61872117D01*
X80010192Y-61609327D01*
X80152838Y-61265799D01*
X80153162Y-60893833D01*
X80011117Y-60550057D01*
X80003000Y-60541926D01*
X80003000Y-60317005D01*
X80003001Y-60317000D01*
X79943245Y-60016594D01*
X79773079Y-59761921D01*
X78798825Y-58787667D01*
X99618838Y-58787667D01*
X99760883Y-59131443D01*
X100023673Y-59394692D01*
X100367201Y-59537338D01*
X100739167Y-59537662D01*
X101082943Y-59395617D01*
X101346192Y-59132827D01*
X101488838Y-58789299D01*
X101489162Y-58417333D01*
X101347117Y-58073557D01*
X101084327Y-57810308D01*
X100740799Y-57667662D01*
X100368833Y-57667338D01*
X100025057Y-57809383D01*
X99761808Y-58072173D01*
X99619162Y-58415701D01*
X99618838Y-58787667D01*
X78798825Y-58787667D01*
X77782825Y-57771667D01*
X86135838Y-57771667D01*
X86277883Y-58115443D01*
X86540673Y-58378692D01*
X86884201Y-58521338D01*
X87256167Y-58521662D01*
X87599943Y-58379617D01*
X87863192Y-58116827D01*
X88005838Y-57773299D01*
X88006162Y-57401333D01*
X87864117Y-57057557D01*
X87601327Y-56794308D01*
X87257799Y-56651662D01*
X86885833Y-56651338D01*
X86542057Y-56793383D01*
X86278808Y-57056173D01*
X86136162Y-57399701D01*
X86135838Y-57771667D01*
X77782825Y-57771667D01*
X77550579Y-57539421D01*
X77295907Y-57369255D01*
X76995500Y-57309500D01*
X65184500Y-57309500D01*
X64884093Y-57369255D01*
X64629421Y-57539421D01*
X64497299Y-57671543D01*
X64379970Y-57081690D01*
X64022078Y-56546067D01*
X63486455Y-56188175D01*
X62854645Y-56062500D01*
X62789955Y-56062500D01*
X62158145Y-56188175D01*
X61855338Y-56390504D01*
X61762390Y-56246059D01*
X61550190Y-56101069D01*
X61298300Y-56050060D01*
X59266300Y-56050060D01*
X59030983Y-56094338D01*
X58814859Y-56233410D01*
X58669869Y-56445610D01*
X58618860Y-56697500D01*
X58618860Y-58706500D01*
X58263005Y-58706500D01*
X58263000Y-58706499D01*
X57962594Y-58766255D01*
X57707921Y-58936421D01*
X56737920Y-59906422D01*
X56567754Y-60161094D01*
X56545860Y-60271162D01*
X56507999Y-60461501D01*
X56507999Y-61410727D01*
X56464057Y-61428883D01*
X56200808Y-61691673D01*
X56058162Y-62035201D01*
X56057838Y-62407167D01*
X48457000Y-62407167D01*
X48457000Y-61400805D01*
X48824811Y-61769259D01*
X50233825Y-62354333D01*
X51759482Y-62355664D01*
X53169515Y-61773050D01*
X54249259Y-60695189D01*
X54834333Y-59286175D01*
X54835664Y-57760518D01*
X54253050Y-56350485D01*
X53875225Y-55972000D01*
X105274203Y-55972000D01*
X104900741Y-56344811D01*
X104900741Y-56344811D01*
G37*
X104900741Y-56344811D02*
X104315667Y-57753825D01*
X104314336Y-59279482D01*
X104896950Y-60689515D01*
X105974811Y-61769259D01*
X107383825Y-62354333D01*
X108909482Y-62355664D01*
X110319515Y-61773050D01*
X110868000Y-61225522D01*
X110868000Y-86294500D01*
X110325189Y-85750741D01*
X108916175Y-85165667D01*
X107390518Y-85164336D01*
X105980485Y-85746950D01*
X104900741Y-86824811D01*
X104315667Y-88233825D01*
X104314336Y-89759482D01*
X104896950Y-91169515D01*
X105312709Y-91586000D01*
X84132567Y-91586000D01*
X84391692Y-91327327D01*
X84534338Y-90983799D01*
X84534662Y-90611833D01*
X84392617Y-90268057D01*
X84129827Y-90004808D01*
X83786299Y-89862162D01*
X83414333Y-89861838D01*
X83070557Y-90003883D01*
X83013941Y-90060400D01*
X75522610Y-90060400D01*
X74620600Y-89158390D01*
X74620600Y-89013667D01*
X95079338Y-89013667D01*
X95221383Y-89357443D01*
X95484173Y-89620692D01*
X95827701Y-89763338D01*
X96199667Y-89763662D01*
X96543443Y-89621617D01*
X96806692Y-89358827D01*
X96949338Y-89015299D01*
X96949662Y-88643333D01*
X96807617Y-88299557D01*
X96544827Y-88036308D01*
X96201299Y-87893662D01*
X95829333Y-87893338D01*
X95485557Y-88035383D01*
X95222308Y-88298173D01*
X95079662Y-88641701D01*
X95079338Y-89013667D01*
X74620600Y-89013667D01*
X74620600Y-88511000D01*
X74564530Y-88229115D01*
X74404855Y-87990145D01*
X72944355Y-86529645D01*
X72705385Y-86369970D01*
X72423500Y-86313900D01*
X69982125Y-86313900D01*
X69977662Y-86290183D01*
X69838590Y-86074059D01*
X69626390Y-85929069D01*
X69374500Y-85878060D01*
X68968770Y-85878060D01*
X67245446Y-84154736D01*
X67006476Y-83995061D01*
X66930820Y-83980012D01*
X66896335Y-83956970D01*
X66614450Y-83900900D01*
X64168810Y-83900900D01*
X62289055Y-82021145D01*
X62212440Y-81969952D01*
X62212440Y-81678400D01*
X62168162Y-81443083D01*
X62029090Y-81226959D01*
X61816890Y-81081969D01*
X61565000Y-81030960D01*
X59533000Y-81030960D01*
X59297683Y-81075238D01*
X59081559Y-81214310D01*
X58936569Y-81426510D01*
X58885560Y-81678400D01*
X58885560Y-83405600D01*
X58929838Y-83640917D01*
X59068910Y-83857041D01*
X59281110Y-84002031D01*
X59322439Y-84010400D01*
X59304585Y-84022330D01*
X58979729Y-84508511D01*
X58865655Y-85082000D01*
X58979729Y-85655489D01*
X59304585Y-86141670D01*
X59614069Y-86348461D01*
X59198268Y-86719964D01*
X58944291Y-87247209D01*
X58941642Y-87262974D01*
X59062783Y-87495000D01*
X60422000Y-87495000D01*
X60422000Y-87475000D01*
X60676000Y-87475000D01*
X60676000Y-87495000D01*
X62035217Y-87495000D01*
X62156358Y-87262974D01*
X62153709Y-87247209D01*
X61899732Y-86719964D01*
X61483931Y-86348461D01*
X61793415Y-86141670D01*
X62009284Y-85818600D01*
X66179090Y-85818600D01*
X66347498Y-85987008D01*
X66347498Y-86049248D01*
X66188750Y-85890500D01*
X65948191Y-85890500D01*
X65714802Y-85987173D01*
X65536173Y-86165801D01*
X65439500Y-86399190D01*
X65439500Y-87039750D01*
X65598250Y-87198500D01*
X66347500Y-87198500D01*
X66347500Y-87178500D01*
X66601500Y-87178500D01*
X66601500Y-87198500D01*
X66621500Y-87198500D01*
X66621500Y-87452500D01*
X66601500Y-87452500D01*
X66601500Y-88601750D01*
X66760250Y-88760500D01*
X67000809Y-88760500D01*
X67086924Y-88724830D01*
X67324500Y-88772940D01*
X68124500Y-88772940D01*
X68357760Y-88729049D01*
X68574500Y-88772940D01*
X69374500Y-88772940D01*
X69609817Y-88728662D01*
X69825941Y-88589590D01*
X69866647Y-88530015D01*
X69827060Y-88725500D01*
X69827060Y-91586000D01*
X65621940Y-91586000D01*
X65621940Y-88725500D01*
X65586123Y-88535149D01*
X65714802Y-88663827D01*
X65948191Y-88760500D01*
X66188750Y-88760500D01*
X66347500Y-88601750D01*
X66347500Y-87452500D01*
X65598250Y-87452500D01*
X65439500Y-87611250D01*
X65439500Y-88251810D01*
X65467010Y-88318225D01*
X65438590Y-88274059D01*
X65226390Y-88129069D01*
X64974500Y-88078060D01*
X62874500Y-88078060D01*
X62639183Y-88122338D01*
X62423059Y-88261410D01*
X62278069Y-88473610D01*
X62227060Y-88725500D01*
X62227060Y-91586000D01*
X53837730Y-91586000D01*
X54249259Y-91175189D01*
X54834333Y-89766175D01*
X54835664Y-88240518D01*
X54728445Y-87981026D01*
X58941642Y-87981026D01*
X58944291Y-87996791D01*
X59198268Y-88524036D01*
X59634680Y-88913954D01*
X60187087Y-89107184D01*
X60422000Y-88962924D01*
X60422000Y-87749000D01*
X60676000Y-87749000D01*
X60676000Y-88962924D01*
X60910913Y-89107184D01*
X61463320Y-88913954D01*
X61899732Y-88524036D01*
X62153709Y-87996791D01*
X62156358Y-87981026D01*
X62035217Y-87749000D01*
X60676000Y-87749000D01*
X60422000Y-87749000D01*
X59062783Y-87749000D01*
X58941642Y-87981026D01*
X54728445Y-87981026D01*
X54253050Y-86830485D01*
X53175189Y-85750741D01*
X51766175Y-85165667D01*
X50240518Y-85164336D01*
X48830485Y-85746950D01*
X48457000Y-86119784D01*
X48457000Y-73900667D01*
X52565338Y-73900667D01*
X52707383Y-74244443D01*
X52970173Y-74507692D01*
X53313701Y-74650338D01*
X53685667Y-74650662D01*
X54029443Y-74508617D01*
X54292692Y-74245827D01*
X54331611Y-74152101D01*
X56149999Y-74152101D01*
X56431884Y-74096031D01*
X56670854Y-73936356D01*
X57640855Y-72966355D01*
X57664818Y-72930492D01*
X57800530Y-72727385D01*
X57817154Y-72643812D01*
X57856601Y-72445500D01*
X57856600Y-72445495D01*
X57856600Y-72332822D01*
X57912192Y-72277327D01*
X58054838Y-71933799D01*
X58054879Y-71887037D01*
X58430500Y-72262658D01*
X58430500Y-73652000D01*
X58490255Y-73952407D01*
X58660421Y-74207079D01*
X58724847Y-74271505D01*
X58724838Y-74281667D01*
X58866883Y-74625443D01*
X58875000Y-74633574D01*
X58875000Y-76827000D01*
X58934755Y-77127407D01*
X59104921Y-77382079D01*
X61136921Y-79414079D01*
X61391593Y-79584245D01*
X61692000Y-79644000D01*
X64097342Y-79644000D01*
X65923500Y-81470158D01*
X65923500Y-82161000D01*
X65983255Y-82461407D01*
X66153421Y-82716079D01*
X68917422Y-85480080D01*
X69172095Y-85650246D01*
X69472501Y-85710001D01*
X71294727Y-85710001D01*
X71312883Y-85753943D01*
X71575673Y-86017192D01*
X71919201Y-86159838D01*
X72291167Y-86160162D01*
X72634943Y-86018117D01*
X72643074Y-86010000D01*
X79265500Y-86010000D01*
X79565907Y-85950245D01*
X79820579Y-85780079D01*
X80876658Y-84724000D01*
X85822000Y-84724000D01*
X86122407Y-84664245D01*
X86191801Y-84617877D01*
X104825838Y-84617877D01*
X104967883Y-84961653D01*
X105230673Y-85224902D01*
X105574201Y-85367548D01*
X105946167Y-85367872D01*
X106289943Y-85225827D01*
X106553192Y-84963037D01*
X106695838Y-84619509D01*
X106696162Y-84247543D01*
X106554117Y-83903767D01*
X106291327Y-83640518D01*
X105947799Y-83497872D01*
X105575833Y-83497548D01*
X105232057Y-83639593D01*
X104968808Y-83902383D01*
X104826162Y-84245911D01*
X104825838Y-84617877D01*
X86191801Y-84617877D01*
X86377079Y-84494079D01*
X86741889Y-84129269D01*
X86912055Y-83874597D01*
X86971810Y-83574190D01*
X86971810Y-83333506D01*
X86979002Y-83326327D01*
X87121648Y-82982799D01*
X87121972Y-82610833D01*
X86979927Y-82267057D01*
X86717137Y-82003808D01*
X86373609Y-81861162D01*
X86001643Y-81860838D01*
X85657867Y-82002883D01*
X85394618Y-82265673D01*
X85251972Y-82609201D01*
X85251648Y-82981167D01*
X85323061Y-83154000D01*
X80551505Y-83154000D01*
X80551500Y-83153999D01*
X80251094Y-83213755D01*
X79996421Y-83383921D01*
X79863885Y-83516457D01*
X79811827Y-83464308D01*
X79468299Y-83321662D01*
X79096333Y-83321338D01*
X79002539Y-83360093D01*
X77817496Y-82175050D01*
X77930338Y-81903299D01*
X77930662Y-81531333D01*
X77788617Y-81187557D01*
X77525827Y-80924308D01*
X77182299Y-80781662D01*
X76810333Y-80781338D01*
X76466557Y-80923383D01*
X76203308Y-81186173D01*
X76060662Y-81529701D01*
X76060338Y-81901667D01*
X76202383Y-82245443D01*
X76258900Y-82302059D01*
X76258900Y-82394764D01*
X76314970Y-82676649D01*
X76474645Y-82915619D01*
X77999026Y-84440000D01*
X72643506Y-84440000D01*
X72636327Y-84432808D01*
X72292799Y-84290162D01*
X72241644Y-84290117D01*
X72106408Y-84199756D01*
X71806001Y-84140001D01*
X70452970Y-84140001D01*
X70564338Y-83871799D01*
X70564662Y-83499833D01*
X70422617Y-83156057D01*
X70366100Y-83099441D01*
X70366100Y-82333841D01*
X70735167Y-82334162D01*
X71078943Y-82192117D01*
X71342192Y-81929327D01*
X71484838Y-81585799D01*
X71485162Y-81213833D01*
X71343117Y-80870057D01*
X71080327Y-80606808D01*
X70736799Y-80464162D01*
X70366100Y-80463839D01*
X70366100Y-78110003D01*
X70475943Y-78064617D01*
X70739192Y-77801827D01*
X70881838Y-77458299D01*
X70882162Y-77086333D01*
X70740117Y-76742557D01*
X70477327Y-76479308D01*
X70133799Y-76336662D01*
X69761833Y-76336338D01*
X69418057Y-76478383D01*
X69154808Y-76741173D01*
X69012162Y-77084701D01*
X69012050Y-77212709D01*
X68948970Y-77307115D01*
X68892900Y-77589000D01*
X68892900Y-83099178D01*
X68837308Y-83154673D01*
X68829980Y-83172322D01*
X67493500Y-81835842D01*
X67493500Y-81145000D01*
X67433745Y-80844594D01*
X67433745Y-80844593D01*
X67263579Y-80589921D01*
X64977579Y-78303921D01*
X64722907Y-78133755D01*
X64422500Y-78074000D01*
X62017158Y-78074000D01*
X60445000Y-76501842D01*
X60445000Y-74634006D01*
X60452192Y-74626827D01*
X60594838Y-74283299D01*
X60595162Y-73911333D01*
X60453117Y-73567557D01*
X60190327Y-73304308D01*
X60000500Y-73225485D01*
X60000500Y-71937500D01*
X59940745Y-71637094D01*
X59770579Y-71382421D01*
X59347758Y-70959600D01*
X62943058Y-70959600D01*
X63224943Y-70903530D01*
X63452060Y-70751775D01*
X63452060Y-70815200D01*
X63496338Y-71050517D01*
X63635410Y-71266641D01*
X63705211Y-71314334D01*
X63648059Y-71351110D01*
X63503069Y-71563310D01*
X63452060Y-71815200D01*
X63452060Y-73015200D01*
X63496338Y-73250517D01*
X63635410Y-73466641D01*
X63847610Y-73611631D01*
X64099500Y-73662640D01*
X64999500Y-73662640D01*
X65234817Y-73618362D01*
X65450941Y-73479290D01*
X65520830Y-73377004D01*
X65578510Y-73466641D01*
X65790710Y-73611631D01*
X66042600Y-73662640D01*
X66942600Y-73662640D01*
X67177917Y-73618362D01*
X67257588Y-73567095D01*
X67283701Y-73577938D01*
X67655667Y-73578262D01*
X67999443Y-73436217D01*
X68262692Y-73173427D01*
X68405338Y-72829899D01*
X68405662Y-72457933D01*
X68398188Y-72439844D01*
X68433973Y-72475692D01*
X68777501Y-72618338D01*
X69149467Y-72618662D01*
X69493243Y-72476617D01*
X69756492Y-72213827D01*
X69899138Y-71870299D01*
X69899462Y-71498333D01*
X69757417Y-71154557D01*
X69720836Y-71117912D01*
X69928886Y-71076529D01*
X69996959Y-71031044D01*
X70132167Y-71031162D01*
X70475943Y-70889117D01*
X70739192Y-70626327D01*
X70881838Y-70282799D01*
X70882162Y-69910833D01*
X70740117Y-69567057D01*
X70589267Y-69415943D01*
X71178900Y-68826310D01*
X71178900Y-69634056D01*
X71234970Y-69915941D01*
X71394645Y-70154911D01*
X72482620Y-71242886D01*
X72394745Y-71279195D01*
X72131496Y-71541985D01*
X71988850Y-71885513D01*
X71988526Y-72257479D01*
X72130571Y-72601255D01*
X72153787Y-72624512D01*
X72153787Y-74944387D01*
X72209857Y-75226272D01*
X72369532Y-75465242D01*
X73807645Y-76903355D01*
X74046615Y-77063030D01*
X74328500Y-77119100D01*
X74365330Y-77119100D01*
X74107808Y-77376173D01*
X73965162Y-77719701D01*
X73965152Y-77731190D01*
X73459347Y-78236995D01*
X73088870Y-77865871D01*
X72575600Y-77652743D01*
X72019839Y-77652258D01*
X71506197Y-77864490D01*
X71112871Y-78257130D01*
X70899743Y-78770400D01*
X70899258Y-79326161D01*
X71111490Y-79839803D01*
X71504130Y-80233129D01*
X72017400Y-80446257D01*
X72573161Y-80446742D01*
X73086803Y-80234510D01*
X73480129Y-79841870D01*
X73483189Y-79834500D01*
X73757000Y-79834500D01*
X74057407Y-79774745D01*
X74312079Y-79604579D01*
X75075005Y-78841653D01*
X75085167Y-78841662D01*
X75428943Y-78699617D01*
X75692192Y-78436827D01*
X75834838Y-78093299D01*
X75835162Y-77721333D01*
X75693117Y-77377557D01*
X75435111Y-77119100D01*
X76055390Y-77119100D01*
X77871645Y-78935355D01*
X78110615Y-79095030D01*
X78392500Y-79151100D01*
X85332114Y-79151100D01*
X85209871Y-79273130D01*
X84996743Y-79786400D01*
X84996258Y-80342161D01*
X85208490Y-80855803D01*
X85601130Y-81249129D01*
X86114400Y-81462257D01*
X86670161Y-81462742D01*
X87183803Y-81250510D01*
X87577129Y-80857870D01*
X87788379Y-80349122D01*
X87938443Y-80287117D01*
X88201692Y-80024327D01*
X88303628Y-79778838D01*
X91333645Y-82808855D01*
X91525014Y-82936724D01*
X91744844Y-83156554D01*
X91983814Y-83316229D01*
X92265699Y-83372299D01*
X94073574Y-83372299D01*
X94073528Y-83425667D01*
X94215573Y-83769443D01*
X94478363Y-84032692D01*
X94821891Y-84175338D01*
X95193857Y-84175662D01*
X95537633Y-84033617D01*
X95635605Y-83935815D01*
X95651645Y-83951855D01*
X95890615Y-84111530D01*
X96172500Y-84167600D01*
X101429030Y-84167600D01*
X101710915Y-84111530D01*
X101949885Y-83951855D01*
X103073616Y-82828124D01*
X103152167Y-82828192D01*
X103495943Y-82686147D01*
X103759192Y-82423357D01*
X103901838Y-82079829D01*
X103902162Y-81707863D01*
X103760117Y-81364087D01*
X103497327Y-81100838D01*
X103153799Y-80958192D01*
X102781833Y-80957868D01*
X102438057Y-81099913D01*
X102174808Y-81362703D01*
X102032162Y-81706231D01*
X102032092Y-81786228D01*
X101123920Y-82694400D01*
X98141310Y-82694400D01*
X98344355Y-82491355D01*
X98504030Y-82252385D01*
X98560100Y-81970500D01*
X98560100Y-81794322D01*
X98615692Y-81738827D01*
X98758338Y-81395299D01*
X98758662Y-81023333D01*
X98616617Y-80679557D01*
X98466341Y-80529018D01*
X98496600Y-80376894D01*
X98496600Y-78285750D01*
X101451400Y-78285750D01*
X101451400Y-78989909D01*
X101548073Y-79223298D01*
X101726701Y-79401927D01*
X101960090Y-79498600D01*
X102664250Y-79498600D01*
X102823000Y-79339850D01*
X102823000Y-78127000D01*
X101610150Y-78127000D01*
X101451400Y-78285750D01*
X98496600Y-78285750D01*
X98496600Y-77857322D01*
X98552192Y-77801827D01*
X98694838Y-77458299D01*
X98695162Y-77086333D01*
X98553117Y-76742557D01*
X98290327Y-76479308D01*
X97946799Y-76336662D01*
X97574833Y-76336338D01*
X97544100Y-76349037D01*
X97544100Y-74768080D01*
X98042586Y-74269594D01*
X98121137Y-74269662D01*
X98464913Y-74127617D01*
X98728162Y-73864827D01*
X98870808Y-73521299D01*
X98871132Y-73149333D01*
X98729087Y-72805557D01*
X98553773Y-72629937D01*
X98692824Y-72490886D01*
X98852499Y-72251916D01*
X98908569Y-71970031D01*
X98908569Y-69570499D01*
X98852499Y-69288614D01*
X98807014Y-69220541D01*
X98807132Y-69085333D01*
X98762956Y-68978419D01*
X100037901Y-68978419D01*
X100037901Y-69425815D01*
X100093971Y-69707700D01*
X100253646Y-69946670D01*
X101207831Y-70900855D01*
X101446801Y-71060530D01*
X101643526Y-71099661D01*
X101890330Y-71469029D01*
X102161172Y-71650000D01*
X101890330Y-71830971D01*
X101565474Y-72317152D01*
X101451400Y-72890641D01*
X101451400Y-72949359D01*
X101565474Y-73522848D01*
X101890330Y-74009029D01*
X102161172Y-74190000D01*
X101890330Y-74370971D01*
X101565474Y-74857152D01*
X101451400Y-75430641D01*
X101451400Y-75489359D01*
X101565474Y-76062848D01*
X101880526Y-76534356D01*
X101726701Y-76598073D01*
X101548073Y-76776702D01*
X101451400Y-77010091D01*
X101451400Y-77714250D01*
X101610150Y-77873000D01*
X102823000Y-77873000D01*
X102823000Y-77853000D01*
X103077000Y-77853000D01*
X103077000Y-77873000D01*
X103097000Y-77873000D01*
X103097000Y-78127000D01*
X103077000Y-78127000D01*
X103077000Y-79339850D01*
X103235750Y-79498600D01*
X103939910Y-79498600D01*
X104173299Y-79401927D01*
X104351927Y-79223298D01*
X104416263Y-79067977D01*
X104430330Y-79089029D01*
X104916511Y-79413885D01*
X105490000Y-79527959D01*
X106063489Y-79413885D01*
X106549670Y-79089029D01*
X106874526Y-78602848D01*
X106988600Y-78029359D01*
X106988600Y-77970641D01*
X106874526Y-77397152D01*
X106549670Y-76910971D01*
X106278828Y-76730000D01*
X106549670Y-76549029D01*
X106874526Y-76062848D01*
X106988600Y-75489359D01*
X106988600Y-75430641D01*
X106874526Y-74857152D01*
X106549670Y-74370971D01*
X106278828Y-74190000D01*
X106549670Y-74009029D01*
X106874526Y-73522848D01*
X106988600Y-72949359D01*
X106988600Y-72890641D01*
X106874526Y-72317152D01*
X106549670Y-71830971D01*
X106278828Y-71650000D01*
X106549670Y-71469029D01*
X106874526Y-70982848D01*
X106988600Y-70409359D01*
X106988600Y-70350641D01*
X106874526Y-69777152D01*
X106549670Y-69290971D01*
X106278828Y-69110000D01*
X106549670Y-68929029D01*
X106874526Y-68442848D01*
X106988600Y-67869359D01*
X106988600Y-67810641D01*
X106929024Y-67511134D01*
X107660530Y-66779628D01*
X108138803Y-66582010D01*
X108532129Y-66189370D01*
X108745257Y-65676100D01*
X108745742Y-65120339D01*
X108533510Y-64606697D01*
X108140870Y-64213371D01*
X107627600Y-64000243D01*
X107071839Y-63999758D01*
X106558197Y-64211990D01*
X106164871Y-64604630D01*
X105951743Y-65117900D01*
X105951258Y-65673661D01*
X106125202Y-66094640D01*
X105838483Y-66381359D01*
X105490000Y-66312041D01*
X104916511Y-66426115D01*
X104430330Y-66750971D01*
X104220000Y-67065752D01*
X104009670Y-66750971D01*
X103523489Y-66426115D01*
X102950000Y-66312041D01*
X102520381Y-66397498D01*
X102368286Y-66295871D01*
X102086401Y-66239801D01*
X98784099Y-66239801D01*
X98502214Y-66295871D01*
X98293769Y-66435150D01*
X98263244Y-66455546D01*
X98026390Y-66692400D01*
X97315505Y-66692400D01*
X97315500Y-66692399D01*
X97033616Y-66748469D01*
X96794645Y-66908145D01*
X94886432Y-68816358D01*
X94747615Y-68843970D01*
X94508645Y-69003645D01*
X90924242Y-72588048D01*
X91011338Y-72378299D01*
X91011662Y-72006333D01*
X90924575Y-71795565D01*
X91247803Y-71662010D01*
X91641129Y-71269370D01*
X91854257Y-70756100D01*
X91854742Y-70200339D01*
X91642510Y-69686697D01*
X91249870Y-69293371D01*
X90736600Y-69080243D01*
X90180839Y-69079758D01*
X89667197Y-69291990D01*
X89273871Y-69684630D01*
X89060743Y-70197900D01*
X89060258Y-70753661D01*
X89094898Y-70837495D01*
X89014971Y-70957113D01*
X88988653Y-71089423D01*
X88784809Y-71129970D01*
X88545839Y-71289645D01*
X88114681Y-71720803D01*
X87904645Y-71861145D01*
X87783192Y-71982598D01*
X86307052Y-71982598D01*
X86025167Y-72038668D01*
X85931579Y-72101201D01*
X85931662Y-72006333D01*
X85789617Y-71662557D01*
X85526827Y-71399308D01*
X85183299Y-71256662D01*
X84811333Y-71256338D01*
X84467557Y-71398383D01*
X84443554Y-71422344D01*
X84336100Y-71314890D01*
X84336100Y-69685254D01*
X84365201Y-69697338D01*
X84737167Y-69697662D01*
X85080943Y-69555617D01*
X85344192Y-69292827D01*
X85486838Y-68949299D01*
X85487162Y-68577333D01*
X85437635Y-68457467D01*
X86474338Y-68457467D01*
X86616383Y-68801243D01*
X86879173Y-69064492D01*
X87222701Y-69207138D01*
X87594667Y-69207462D01*
X87938443Y-69065417D01*
X88201692Y-68802627D01*
X88344338Y-68459099D01*
X88344457Y-68322389D01*
X88390029Y-68254186D01*
X88446099Y-67972301D01*
X88446099Y-67942111D01*
X89331522Y-67056688D01*
X89543909Y-67269446D01*
X89887437Y-67412092D01*
X90259403Y-67412416D01*
X90268603Y-67408615D01*
X90272862Y-67409462D01*
X90928478Y-67409462D01*
X90983973Y-67465054D01*
X91327501Y-67607700D01*
X91699467Y-67608024D01*
X92043243Y-67465979D01*
X92085628Y-67423667D01*
X94075528Y-67423667D01*
X94217573Y-67767443D01*
X94480363Y-68030692D01*
X94823891Y-68173338D01*
X95195857Y-68173662D01*
X95539633Y-68031617D01*
X95802882Y-67768827D01*
X95945528Y-67425299D01*
X95945852Y-67053333D01*
X95803807Y-66709557D01*
X95541017Y-66446308D01*
X95197489Y-66303662D01*
X94825523Y-66303338D01*
X94481747Y-66445383D01*
X94218498Y-66708173D01*
X94075852Y-67051701D01*
X94075528Y-67423667D01*
X92085628Y-67423667D01*
X92306492Y-67203189D01*
X92449138Y-66859661D01*
X92449462Y-66487695D01*
X92307417Y-66143919D01*
X92044627Y-65880670D01*
X91701099Y-65738024D01*
X91329133Y-65737700D01*
X90985357Y-65879745D01*
X90928741Y-65936262D01*
X90855325Y-65936262D01*
X90653812Y-65734398D01*
X90917513Y-65470697D01*
X96951838Y-65470697D01*
X97093883Y-65814473D01*
X97356673Y-66077722D01*
X97700201Y-66220368D01*
X98072167Y-66220692D01*
X98415943Y-66078647D01*
X98679192Y-65815857D01*
X98821838Y-65472329D01*
X98822162Y-65100363D01*
X98680117Y-64756587D01*
X98417327Y-64493338D01*
X98073799Y-64350692D01*
X97701833Y-64350368D01*
X97358057Y-64492413D01*
X97094808Y-64755203D01*
X96952162Y-65098731D01*
X96951838Y-65470697D01*
X90917513Y-65470697D01*
X91803855Y-64584355D01*
X91846284Y-64520855D01*
X91963530Y-64345385D01*
X91969962Y-64313050D01*
X92205130Y-64548629D01*
X92718400Y-64761757D01*
X93274161Y-64762242D01*
X93787803Y-64550010D01*
X94181129Y-64157370D01*
X94279949Y-63919386D01*
X94435673Y-64075382D01*
X94779201Y-64218028D01*
X95151167Y-64218352D01*
X95494943Y-64076307D01*
X95758192Y-63813517D01*
X95900838Y-63469989D01*
X95901162Y-63098023D01*
X95759117Y-62754247D01*
X95496327Y-62490998D01*
X95152799Y-62348352D01*
X94780833Y-62348028D01*
X94437057Y-62490073D01*
X94232088Y-62694685D01*
X94182510Y-62574697D01*
X93789870Y-62181371D01*
X93276600Y-61968243D01*
X92720839Y-61967758D01*
X92207197Y-62179990D01*
X91813871Y-62572630D01*
X91791238Y-62627136D01*
X91469799Y-62493662D01*
X91097833Y-62493338D01*
X90754057Y-62635383D01*
X90490808Y-62898173D01*
X90348162Y-63241701D01*
X90347838Y-63613667D01*
X90448208Y-63856582D01*
X87188644Y-67116146D01*
X87028969Y-67355116D01*
X87015371Y-67423479D01*
X86880557Y-67479183D01*
X86617308Y-67741973D01*
X86474662Y-68085501D01*
X86474338Y-68457467D01*
X85437635Y-68457467D01*
X85345117Y-68233557D01*
X85082327Y-67970308D01*
X84738799Y-67827662D01*
X84366833Y-67827338D01*
X84222741Y-67886876D01*
X84120355Y-67733645D01*
X83082059Y-66695349D01*
X83200838Y-66409299D01*
X83201162Y-66037333D01*
X83059117Y-65693557D01*
X82796327Y-65430308D01*
X82550346Y-65328167D01*
X83235838Y-65328167D01*
X83377883Y-65671943D01*
X83640673Y-65935192D01*
X83984201Y-66077838D01*
X84356167Y-66078162D01*
X84699943Y-65936117D01*
X84756559Y-65879600D01*
X86266500Y-65879600D01*
X86548385Y-65823530D01*
X86787355Y-65663855D01*
X86995356Y-65455854D01*
X87013043Y-65429383D01*
X87155031Y-65216884D01*
X87211101Y-64934999D01*
X87211101Y-64831272D01*
X87303443Y-64793117D01*
X87566692Y-64530327D01*
X87709338Y-64186799D01*
X87709662Y-63814833D01*
X87577453Y-63494863D01*
X87693692Y-63378827D01*
X87836338Y-63035299D01*
X87836662Y-62663333D01*
X87694617Y-62319557D01*
X87431827Y-62056308D01*
X87088299Y-61913662D01*
X86716333Y-61913338D01*
X86498997Y-62003139D01*
X86131770Y-61635271D01*
X85849752Y-61518167D01*
X97269338Y-61518167D01*
X97411383Y-61861943D01*
X97674173Y-62125192D01*
X98017701Y-62267838D01*
X98389667Y-62268162D01*
X98733443Y-62126117D01*
X98996692Y-61863327D01*
X99139338Y-61519799D01*
X99139450Y-61391167D01*
X100253838Y-61391167D01*
X100395883Y-61734943D01*
X100658673Y-61998192D01*
X101002201Y-62140838D01*
X101374167Y-62141162D01*
X101717943Y-61999117D01*
X101981192Y-61736327D01*
X102123838Y-61392799D01*
X102124162Y-61020833D01*
X101982117Y-60677057D01*
X101719327Y-60413808D01*
X101375799Y-60271162D01*
X101003833Y-60270838D01*
X100660057Y-60412883D01*
X100396808Y-60675673D01*
X100254162Y-61019201D01*
X100253838Y-61391167D01*
X99139450Y-61391167D01*
X99139662Y-61147833D01*
X98997617Y-60804057D01*
X98734827Y-60540808D01*
X98391299Y-60398162D01*
X98019333Y-60397838D01*
X97675557Y-60539883D01*
X97412308Y-60802673D01*
X97269662Y-61146201D01*
X97269338Y-61518167D01*
X85849752Y-61518167D01*
X85618500Y-61422143D01*
X85062739Y-61421658D01*
X84549097Y-61633890D01*
X84155771Y-62026530D01*
X83942643Y-62539800D01*
X83942158Y-63095561D01*
X84154390Y-63609203D01*
X84547030Y-64002529D01*
X85060300Y-64215657D01*
X85616061Y-64216142D01*
X85671872Y-64193082D01*
X85744685Y-64265895D01*
X85737901Y-64299999D01*
X85737901Y-64406400D01*
X84756822Y-64406400D01*
X84701327Y-64350808D01*
X84357799Y-64208162D01*
X83985833Y-64207838D01*
X83642057Y-64349883D01*
X83378808Y-64612673D01*
X83236162Y-64956201D01*
X83235838Y-65328167D01*
X82550346Y-65328167D01*
X82452799Y-65287662D01*
X82372802Y-65287592D01*
X81834355Y-64749145D01*
X81595385Y-64589470D01*
X81313500Y-64533400D01*
X80750579Y-64533400D01*
X80639784Y-64459369D01*
X80357899Y-64403299D01*
X78885009Y-64403299D01*
X77516355Y-63034645D01*
X77277385Y-62874970D01*
X76995500Y-62818900D01*
X73898322Y-62818900D01*
X73842827Y-62763308D01*
X73499299Y-62620662D01*
X73127333Y-62620338D01*
X72783557Y-62762383D01*
X72520308Y-63025173D01*
X72377662Y-63368701D01*
X72377338Y-63740667D01*
X72519383Y-64084443D01*
X72782173Y-64347692D01*
X73125701Y-64490338D01*
X73497667Y-64490662D01*
X73841443Y-64348617D01*
X73898059Y-64292100D01*
X74788970Y-64292100D01*
X74709743Y-64482900D01*
X74709258Y-65038661D01*
X74778604Y-65206491D01*
X70691611Y-65206491D01*
X70691662Y-65148333D01*
X70549617Y-64804557D01*
X70493100Y-64747941D01*
X70493100Y-63419360D01*
X71398360Y-62514100D01*
X73503000Y-62514100D01*
X73784885Y-62458030D01*
X73974132Y-62331579D01*
X74069167Y-62331662D01*
X74412943Y-62189617D01*
X74676192Y-61926827D01*
X74818838Y-61583299D01*
X74819162Y-61211333D01*
X74677117Y-60867557D01*
X74414327Y-60604308D01*
X74070799Y-60461662D01*
X73698833Y-60461338D01*
X73355057Y-60603383D01*
X73182730Y-60775409D01*
X73089617Y-60550057D01*
X72826827Y-60286808D01*
X72483299Y-60144162D01*
X72465106Y-60144146D01*
X72500338Y-60059299D01*
X72500662Y-59687333D01*
X72358617Y-59343557D01*
X72095827Y-59080308D01*
X71752299Y-58937662D01*
X71380333Y-58937338D01*
X71036557Y-59079383D01*
X70773308Y-59342173D01*
X70630662Y-59685701D01*
X70630338Y-60057667D01*
X70772383Y-60401443D01*
X70835716Y-60464886D01*
X70696145Y-60558145D01*
X68600645Y-62653645D01*
X68440970Y-62892615D01*
X68384900Y-63174500D01*
X68384900Y-64680163D01*
X68334100Y-64756190D01*
X68334100Y-62222000D01*
X68278523Y-61942593D01*
X68278662Y-61782833D01*
X68136617Y-61439057D01*
X67873827Y-61175808D01*
X67530299Y-61033162D01*
X67242018Y-61032911D01*
X67242142Y-60891239D01*
X67029910Y-60377597D01*
X66637270Y-59984271D01*
X66124000Y-59771143D01*
X65568239Y-59770658D01*
X65054597Y-59982890D01*
X64661271Y-60375530D01*
X64448143Y-60888800D01*
X64447658Y-61444561D01*
X64659890Y-61958203D01*
X65052530Y-62351529D01*
X65108300Y-62374687D01*
X65108300Y-62882400D01*
X65116201Y-62922121D01*
X65116201Y-62926856D01*
X65016327Y-62826808D01*
X64672799Y-62684162D01*
X64300833Y-62683838D01*
X63957057Y-62825883D01*
X63693808Y-63088673D01*
X63551162Y-63432201D01*
X63550838Y-63804167D01*
X63692883Y-64147943D01*
X63749400Y-64204559D01*
X63749400Y-65587500D01*
X63805470Y-65869385D01*
X63965145Y-66108355D01*
X65633479Y-67776689D01*
X64078023Y-67776690D01*
X64078018Y-67776689D01*
X63796134Y-67832759D01*
X63557163Y-67992435D01*
X62469608Y-69079990D01*
X58796700Y-69079990D01*
X58301100Y-68584390D01*
X58301100Y-67129837D01*
X58349465Y-67057454D01*
X58435530Y-66928649D01*
X58451502Y-66848350D01*
X58547192Y-66752827D01*
X58689838Y-66409299D01*
X58690162Y-66037333D01*
X58548117Y-65693557D01*
X58285327Y-65430308D01*
X57941799Y-65287662D01*
X57569833Y-65287338D01*
X57226057Y-65429383D01*
X56962808Y-65692173D01*
X56820162Y-66035701D01*
X56819838Y-66407667D01*
X56882963Y-66560442D01*
X56827900Y-66837264D01*
X56827900Y-68889500D01*
X56883970Y-69171385D01*
X57043645Y-69410355D01*
X57144544Y-69511254D01*
X57140975Y-69514817D01*
X55705653Y-68079495D01*
X55705662Y-68069333D01*
X55563617Y-67725557D01*
X55300827Y-67462308D01*
X54957299Y-67319662D01*
X54585333Y-67319338D01*
X54241557Y-67461383D01*
X53978308Y-67724173D01*
X53835662Y-68067701D01*
X53835338Y-68439667D01*
X53977383Y-68783443D01*
X54240173Y-69046692D01*
X54583701Y-69189338D01*
X54595190Y-69189348D01*
X56475290Y-71069448D01*
X56327808Y-71216673D01*
X56185162Y-71560201D01*
X56184838Y-71932167D01*
X56303774Y-72220016D01*
X55844889Y-72678901D01*
X53800499Y-72678901D01*
X53518614Y-72734971D01*
X53450541Y-72780456D01*
X53315333Y-72780338D01*
X52971557Y-72922383D01*
X52708308Y-73185173D01*
X52565662Y-73528701D01*
X52565338Y-73900667D01*
X48457000Y-73900667D01*
X48457000Y-62407167D01*
X56057838Y-62407167D01*
X56199883Y-62750943D01*
X56462673Y-63014192D01*
X56806201Y-63156838D01*
X57178167Y-63157162D01*
X57521943Y-63015117D01*
X57785192Y-62752327D01*
X57927838Y-62408799D01*
X57927883Y-62357643D01*
X58018244Y-62222407D01*
X58077999Y-61922001D01*
X58077999Y-60786659D01*
X58588158Y-60276500D01*
X63787500Y-60276500D01*
X64087907Y-60216745D01*
X64342579Y-60046579D01*
X65509658Y-58879500D01*
X76670342Y-58879500D01*
X76931164Y-59140322D01*
X76674299Y-59033662D01*
X76302333Y-59033338D01*
X75958557Y-59175383D01*
X75695308Y-59438173D01*
X75552662Y-59781701D01*
X75552338Y-60153667D01*
X75694383Y-60497443D01*
X75957173Y-60760692D01*
X76300701Y-60903338D01*
X76672667Y-60903662D01*
X77016443Y-60761617D01*
X77279692Y-60498827D01*
X77422338Y-60155299D01*
X77422662Y-59783333D01*
X77315977Y-59525135D01*
X78400489Y-60609647D01*
X78283162Y-60892201D01*
X78282838Y-61264167D01*
X78424883Y-61607943D01*
X78687673Y-61871192D01*
X79031201Y-62013838D01*
X79403167Y-62014162D01*
X79746943Y-61872117D01*
X80010192Y-61609327D01*
X80152838Y-61265799D01*
X80153162Y-60893833D01*
X80011117Y-60550057D01*
X80003000Y-60541926D01*
X80003000Y-60317005D01*
X80003001Y-60317000D01*
X79943245Y-60016594D01*
X79773079Y-59761921D01*
X78798825Y-58787667D01*
X99618838Y-58787667D01*
X99760883Y-59131443D01*
X100023673Y-59394692D01*
X100367201Y-59537338D01*
X100739167Y-59537662D01*
X101082943Y-59395617D01*
X101346192Y-59132827D01*
X101488838Y-58789299D01*
X101489162Y-58417333D01*
X101347117Y-58073557D01*
X101084327Y-57810308D01*
X100740799Y-57667662D01*
X100368833Y-57667338D01*
X100025057Y-57809383D01*
X99761808Y-58072173D01*
X99619162Y-58415701D01*
X99618838Y-58787667D01*
X78798825Y-58787667D01*
X77782825Y-57771667D01*
X86135838Y-57771667D01*
X86277883Y-58115443D01*
X86540673Y-58378692D01*
X86884201Y-58521338D01*
X87256167Y-58521662D01*
X87599943Y-58379617D01*
X87863192Y-58116827D01*
X88005838Y-57773299D01*
X88006162Y-57401333D01*
X87864117Y-57057557D01*
X87601327Y-56794308D01*
X87257799Y-56651662D01*
X86885833Y-56651338D01*
X86542057Y-56793383D01*
X86278808Y-57056173D01*
X86136162Y-57399701D01*
X86135838Y-57771667D01*
X77782825Y-57771667D01*
X77550579Y-57539421D01*
X77295907Y-57369255D01*
X76995500Y-57309500D01*
X65184500Y-57309500D01*
X64884093Y-57369255D01*
X64629421Y-57539421D01*
X64497299Y-57671543D01*
X64379970Y-57081690D01*
X64022078Y-56546067D01*
X63486455Y-56188175D01*
X62854645Y-56062500D01*
X62789955Y-56062500D01*
X62158145Y-56188175D01*
X61855338Y-56390504D01*
X61762390Y-56246059D01*
X61550190Y-56101069D01*
X61298300Y-56050060D01*
X59266300Y-56050060D01*
X59030983Y-56094338D01*
X58814859Y-56233410D01*
X58669869Y-56445610D01*
X58618860Y-56697500D01*
X58618860Y-58706500D01*
X58263005Y-58706500D01*
X58263000Y-58706499D01*
X57962594Y-58766255D01*
X57707921Y-58936421D01*
X56737920Y-59906422D01*
X56567754Y-60161094D01*
X56545860Y-60271162D01*
X56507999Y-60461501D01*
X56507999Y-61410727D01*
X56464057Y-61428883D01*
X56200808Y-61691673D01*
X56058162Y-62035201D01*
X56057838Y-62407167D01*
X48457000Y-62407167D01*
X48457000Y-61400805D01*
X48824811Y-61769259D01*
X50233825Y-62354333D01*
X51759482Y-62355664D01*
X53169515Y-61773050D01*
X54249259Y-60695189D01*
X54834333Y-59286175D01*
X54835664Y-57760518D01*
X54253050Y-56350485D01*
X53875225Y-55972000D01*
X105274203Y-55972000D01*
X104900741Y-56344811D01*
G36*
X97023400Y-80071784D02*
X96813784Y-80281400D01*
X96782090Y-80281400D01*
X96500205Y-80337470D01*
X96261235Y-80497145D01*
X95676890Y-81081490D01*
X92902700Y-81081490D01*
X92610445Y-80789235D01*
X92419076Y-80661366D01*
X91162810Y-79405100D01*
X93950000Y-79405100D01*
X94074067Y-79380422D01*
X94074028Y-79425167D01*
X94216073Y-79768943D01*
X94478863Y-80032192D01*
X94822391Y-80174838D01*
X95194357Y-80175162D01*
X95538133Y-80033117D01*
X95801382Y-79770327D01*
X95944028Y-79426799D01*
X95944352Y-79054833D01*
X95826703Y-78770100D01*
X96109000Y-78770100D01*
X96390885Y-78714030D01*
X96629855Y-78554355D01*
X97023400Y-78160810D01*
X97023400Y-80071784D01*
X97023400Y-80071784D01*
G37*
X97023400Y-80071784D02*
X96813784Y-80281400D01*
X96782090Y-80281400D01*
X96500205Y-80337470D01*
X96261235Y-80497145D01*
X95676890Y-81081490D01*
X92902700Y-81081490D01*
X92610445Y-80789235D01*
X92419076Y-80661366D01*
X91162810Y-79405100D01*
X93950000Y-79405100D01*
X94074067Y-79380422D01*
X94074028Y-79425167D01*
X94216073Y-79768943D01*
X94478863Y-80032192D01*
X94822391Y-80174838D01*
X95194357Y-80175162D01*
X95538133Y-80033117D01*
X95801382Y-79770327D01*
X95944028Y-79426799D01*
X95944352Y-79054833D01*
X95826703Y-78770100D01*
X96109000Y-78770100D01*
X96390885Y-78714030D01*
X96629855Y-78554355D01*
X97023400Y-78160810D01*
X97023400Y-80071784D01*
G36*
X97341643Y-70062692D02*
X97435369Y-70101611D01*
X97435369Y-71664921D01*
X95880235Y-73220055D01*
X95720560Y-73459025D01*
X95664490Y-73740910D01*
X95664490Y-74659455D01*
X95496327Y-74490998D01*
X95152799Y-74348352D01*
X94780833Y-74348028D01*
X94437057Y-74490073D01*
X94173808Y-74752863D01*
X94098675Y-74933802D01*
X93882799Y-74844162D01*
X93510833Y-74843838D01*
X93167057Y-74985883D01*
X92903808Y-75248673D01*
X92761162Y-75592201D01*
X92760838Y-75964167D01*
X92902883Y-76307943D01*
X93165673Y-76571192D01*
X93509201Y-76713838D01*
X93881167Y-76714162D01*
X94224943Y-76572117D01*
X94488192Y-76309327D01*
X94563325Y-76128388D01*
X94779201Y-76218028D01*
X95151167Y-76218352D01*
X95494943Y-76076307D01*
X95664490Y-75907056D01*
X95664490Y-76737800D01*
X95511800Y-76890490D01*
X94292910Y-76890490D01*
X94011025Y-76946560D01*
X93772055Y-77106235D01*
X93352800Y-77525490D01*
X90432700Y-77525490D01*
X89175219Y-76268009D01*
X89157872Y-76256418D01*
X89275367Y-76139128D01*
X89313392Y-76047555D01*
X89436167Y-76047662D01*
X89779943Y-75905617D01*
X90043192Y-75642827D01*
X90082111Y-75549101D01*
X90376499Y-75549101D01*
X90658384Y-75493031D01*
X90897354Y-75333356D01*
X91029292Y-75201418D01*
X91238682Y-75201418D01*
X91520567Y-75145348D01*
X91759537Y-74985673D01*
X93710539Y-73034671D01*
X93761975Y-73024440D01*
X93913325Y-72923311D01*
X95609040Y-72923310D01*
X95890925Y-72867240D01*
X96129895Y-72707565D01*
X96591765Y-72245695D01*
X96611005Y-72216900D01*
X96751440Y-72006725D01*
X96807510Y-71724840D01*
X96807510Y-70128200D01*
X97107535Y-69828175D01*
X97341643Y-70062692D01*
X97341643Y-70062692D01*
G37*
X97341643Y-70062692D02*
X97435369Y-70101611D01*
X97435369Y-71664921D01*
X95880235Y-73220055D01*
X95720560Y-73459025D01*
X95664490Y-73740910D01*
X95664490Y-74659455D01*
X95496327Y-74490998D01*
X95152799Y-74348352D01*
X94780833Y-74348028D01*
X94437057Y-74490073D01*
X94173808Y-74752863D01*
X94098675Y-74933802D01*
X93882799Y-74844162D01*
X93510833Y-74843838D01*
X93167057Y-74985883D01*
X92903808Y-75248673D01*
X92761162Y-75592201D01*
X92760838Y-75964167D01*
X92902883Y-76307943D01*
X93165673Y-76571192D01*
X93509201Y-76713838D01*
X93881167Y-76714162D01*
X94224943Y-76572117D01*
X94488192Y-76309327D01*
X94563325Y-76128388D01*
X94779201Y-76218028D01*
X95151167Y-76218352D01*
X95494943Y-76076307D01*
X95664490Y-75907056D01*
X95664490Y-76737800D01*
X95511800Y-76890490D01*
X94292910Y-76890490D01*
X94011025Y-76946560D01*
X93772055Y-77106235D01*
X93352800Y-77525490D01*
X90432700Y-77525490D01*
X89175219Y-76268009D01*
X89157872Y-76256418D01*
X89275367Y-76139128D01*
X89313392Y-76047555D01*
X89436167Y-76047662D01*
X89779943Y-75905617D01*
X90043192Y-75642827D01*
X90082111Y-75549101D01*
X90376499Y-75549101D01*
X90658384Y-75493031D01*
X90897354Y-75333356D01*
X91029292Y-75201418D01*
X91238682Y-75201418D01*
X91520567Y-75145348D01*
X91759537Y-74985673D01*
X93710539Y-73034671D01*
X93761975Y-73024440D01*
X93913325Y-72923311D01*
X95609040Y-72923310D01*
X95890925Y-72867240D01*
X96129895Y-72707565D01*
X96591765Y-72245695D01*
X96611005Y-72216900D01*
X96751440Y-72006725D01*
X96807510Y-71724840D01*
X96807510Y-70128200D01*
X97107535Y-69828175D01*
X97341643Y-70062692D01*
G36*
X79504383Y-73037943D02*
X79767173Y-73301192D01*
X80110701Y-73443838D01*
X80322560Y-73444023D01*
X80323838Y-73450817D01*
X80462910Y-73666941D01*
X80531006Y-73713469D01*
X80388673Y-73855802D01*
X80292000Y-74089191D01*
X80292000Y-74529750D01*
X80450750Y-74688500D01*
X81250000Y-74688500D01*
X81250000Y-74668500D01*
X81504000Y-74668500D01*
X81504000Y-74688500D01*
X81524000Y-74688500D01*
X81524000Y-74942500D01*
X81504000Y-74942500D01*
X81504000Y-75891750D01*
X81662750Y-76050500D01*
X81953310Y-76050500D01*
X82186699Y-75953827D01*
X82365327Y-75775198D01*
X82462000Y-75541809D01*
X82462000Y-75101250D01*
X82392139Y-75031389D01*
X82705167Y-75031662D01*
X83048943Y-74889617D01*
X83312192Y-74626827D01*
X83454838Y-74283299D01*
X83454857Y-74261600D01*
X86076000Y-74261600D01*
X86357885Y-74205530D01*
X86596855Y-74045855D01*
X86780502Y-73862208D01*
X87141958Y-73862208D01*
X87046470Y-74005115D01*
X86990400Y-74287000D01*
X86990400Y-75352178D01*
X86934808Y-75407673D01*
X86792162Y-75751201D01*
X86791900Y-76052264D01*
X80775987Y-76052263D01*
X80780237Y-76042028D01*
X80800690Y-76050500D01*
X81091250Y-76050500D01*
X81250000Y-75891750D01*
X81250000Y-74942500D01*
X80497431Y-74942500D01*
X80446827Y-74891808D01*
X80103299Y-74749162D01*
X79731333Y-74748838D01*
X79387557Y-74890883D01*
X79124308Y-75153673D01*
X78981662Y-75497201D01*
X78981570Y-75602610D01*
X77602286Y-74223326D01*
X77572903Y-74203693D01*
X77224100Y-73854890D01*
X77224100Y-73825089D01*
X77307667Y-73825162D01*
X77651443Y-73683117D01*
X77884565Y-73450401D01*
X77989173Y-73555192D01*
X78332701Y-73697838D01*
X78704667Y-73698162D01*
X79048443Y-73556117D01*
X79311692Y-73293327D01*
X79454338Y-72949799D01*
X79454367Y-72916894D01*
X79504383Y-73037943D01*
X79504383Y-73037943D01*
G37*
X79504383Y-73037943D02*
X79767173Y-73301192D01*
X80110701Y-73443838D01*
X80322560Y-73444023D01*
X80323838Y-73450817D01*
X80462910Y-73666941D01*
X80531006Y-73713469D01*
X80388673Y-73855802D01*
X80292000Y-74089191D01*
X80292000Y-74529750D01*
X80450750Y-74688500D01*
X81250000Y-74688500D01*
X81250000Y-74668500D01*
X81504000Y-74668500D01*
X81504000Y-74688500D01*
X81524000Y-74688500D01*
X81524000Y-74942500D01*
X81504000Y-74942500D01*
X81504000Y-75891750D01*
X81662750Y-76050500D01*
X81953310Y-76050500D01*
X82186699Y-75953827D01*
X82365327Y-75775198D01*
X82462000Y-75541809D01*
X82462000Y-75101250D01*
X82392139Y-75031389D01*
X82705167Y-75031662D01*
X83048943Y-74889617D01*
X83312192Y-74626827D01*
X83454838Y-74283299D01*
X83454857Y-74261600D01*
X86076000Y-74261600D01*
X86357885Y-74205530D01*
X86596855Y-74045855D01*
X86780502Y-73862208D01*
X87141958Y-73862208D01*
X87046470Y-74005115D01*
X86990400Y-74287000D01*
X86990400Y-75352178D01*
X86934808Y-75407673D01*
X86792162Y-75751201D01*
X86791900Y-76052264D01*
X80775987Y-76052263D01*
X80780237Y-76042028D01*
X80800690Y-76050500D01*
X81091250Y-76050500D01*
X81250000Y-75891750D01*
X81250000Y-74942500D01*
X80497431Y-74942500D01*
X80446827Y-74891808D01*
X80103299Y-74749162D01*
X79731333Y-74748838D01*
X79387557Y-74890883D01*
X79124308Y-75153673D01*
X78981662Y-75497201D01*
X78981570Y-75602610D01*
X77602286Y-74223326D01*
X77572903Y-74203693D01*
X77224100Y-73854890D01*
X77224100Y-73825089D01*
X77307667Y-73825162D01*
X77651443Y-73683117D01*
X77884565Y-73450401D01*
X77989173Y-73555192D01*
X78332701Y-73697838D01*
X78704667Y-73698162D01*
X79048443Y-73556117D01*
X79311692Y-73293327D01*
X79454338Y-72949799D01*
X79454367Y-72916894D01*
X79504383Y-73037943D01*
M02*
