G04 #@! TF.FileFunction,Copper,L1,Top,Signal*
%FSLAX46Y46*%
G04 Gerber Fmt 4.6, Leading zero omitted, Abs format (unit mm)*
G04 Created by KiCad (PCBNEW 4.0.4-stable) date 03/04/17 14:03:53*
%MOMM*%
%LPD*%
G01*
G04 APERTURE LIST*
%ADD10C,0.100000*%
%ADD11R,0.900000X1.200000*%
%ADD12R,0.750000X1.200000*%
%ADD13R,1.250000X1.500000*%
%ADD14R,1.200000X0.750000*%
%ADD15R,1.500000X1.250000*%
%ADD16R,1.200000X0.900000*%
%ADD17R,1.060000X0.650000*%
%ADD18R,1.300000X0.250000*%
%ADD19R,0.250000X1.300000*%
%ADD20R,0.450000X1.450000*%
%ADD21R,0.800100X0.800100*%
%ADD22R,0.850000X0.650000*%
%ADD23R,2.032000X2.032000*%
%ADD24O,2.032000X2.032000*%
%ADD25R,2.032000X1.727200*%
%ADD26O,2.032000X1.727200*%
%ADD27R,0.797560X0.797560*%
%ADD28R,1.400000X2.000000*%
%ADD29R,1.380000X0.450000*%
%ADD30R,2.100000X1.475000*%
%ADD31R,1.900000X2.375000*%
%ADD32R,1.000000X0.600000*%
%ADD33R,1.300000X0.900000*%
%ADD34R,0.340000X2.500000*%
%ADD35C,6.400000*%
%ADD36R,0.750000X0.800000*%
%ADD37R,1.700000X0.900000*%
%ADD38R,1.727200X1.727200*%
%ADD39O,1.727200X1.727200*%
%ADD40R,0.400000X1.500000*%
%ADD41C,0.600000*%
%ADD42C,0.203200*%
%ADD43C,0.300000*%
%ADD44C,0.254000*%
G04 APERTURE END LIST*
D10*
D11*
X51976500Y-63471500D03*
X51976500Y-65671500D03*
D12*
X80615000Y-61140000D03*
X80615000Y-59240000D03*
D13*
X73376000Y-85570000D03*
X73376000Y-83070000D03*
D14*
X87221500Y-58412000D03*
X89121500Y-58412000D03*
D15*
X78436000Y-90035000D03*
X75936000Y-90035000D03*
D13*
X81123000Y-86903500D03*
X81123000Y-84403500D03*
D14*
X91153500Y-89844500D03*
X89253500Y-89844500D03*
D12*
X73757000Y-74734000D03*
X73757000Y-76634000D03*
D14*
X83792500Y-75366500D03*
X85692500Y-75366500D03*
D15*
X78118500Y-79494000D03*
X75618500Y-79494000D03*
D12*
X88489000Y-80131500D03*
X88489000Y-82031500D03*
X90648000Y-80131500D03*
X90648000Y-82031500D03*
D11*
X59914000Y-77292000D03*
X59914000Y-75092000D03*
D16*
X88446000Y-85844000D03*
X86246000Y-85844000D03*
D11*
X70518500Y-59575500D03*
X70518500Y-57375500D03*
X77630500Y-59575500D03*
X77630500Y-57375500D03*
D17*
X82710500Y-58417000D03*
X82710500Y-59367000D03*
X82710500Y-60317000D03*
X84910500Y-60317000D03*
X84910500Y-58417000D03*
D18*
X62676000Y-69060500D03*
X62676000Y-69560500D03*
X62676000Y-70060500D03*
X62676000Y-70560500D03*
X62676000Y-71060500D03*
X62676000Y-71560500D03*
X62676000Y-72060500D03*
X62676000Y-72560500D03*
X62676000Y-73060500D03*
X62676000Y-73560500D03*
X62676000Y-74060500D03*
X62676000Y-74560500D03*
D19*
X64276000Y-76160500D03*
X64776000Y-76160500D03*
X65276000Y-76160500D03*
X65776000Y-76160500D03*
X66276000Y-76160500D03*
X66776000Y-76160500D03*
X67276000Y-76160500D03*
X67776000Y-76160500D03*
X68276000Y-76160500D03*
X68776000Y-76160500D03*
X69276000Y-76160500D03*
X69776000Y-76160500D03*
D18*
X71376000Y-74560500D03*
X71376000Y-74060500D03*
X71376000Y-73560500D03*
X71376000Y-73060500D03*
X71376000Y-72560500D03*
X71376000Y-72060500D03*
X71376000Y-71560500D03*
X71376000Y-71060500D03*
X71376000Y-70560500D03*
X71376000Y-70060500D03*
X71376000Y-69560500D03*
X71376000Y-69060500D03*
D19*
X69776000Y-67460500D03*
X69276000Y-67460500D03*
X68776000Y-67460500D03*
X68276000Y-67460500D03*
X67776000Y-67460500D03*
X67276000Y-67460500D03*
X66776000Y-67460500D03*
X66276000Y-67460500D03*
X65776000Y-67460500D03*
X65276000Y-67460500D03*
X64776000Y-67460500D03*
X64276000Y-67460500D03*
D20*
X81672500Y-68323500D03*
X81022500Y-68323500D03*
X80372500Y-68323500D03*
X79722500Y-68323500D03*
X79072500Y-68323500D03*
X78422500Y-68323500D03*
X77772500Y-68323500D03*
X77122500Y-68323500D03*
X76472500Y-68323500D03*
X75822500Y-68323500D03*
X75822500Y-74223500D03*
X76472500Y-74223500D03*
X77122500Y-74223500D03*
X77772500Y-74223500D03*
X78422500Y-74223500D03*
X79072500Y-74223500D03*
X79722500Y-74223500D03*
X80372500Y-74223500D03*
X81022500Y-74223500D03*
X81672500Y-74223500D03*
D21*
X86378260Y-81904500D03*
X86378260Y-80004500D03*
X84379280Y-80954500D03*
D22*
X74773000Y-60444000D03*
X73696700Y-60444000D03*
X74760300Y-59160700D03*
X73696700Y-59160700D03*
D23*
X60282300Y-57713500D03*
D24*
X62822300Y-57713500D03*
D25*
X60549000Y-82542000D03*
D26*
X60549000Y-85082000D03*
X60549000Y-87622000D03*
D27*
X55773800Y-63238000D03*
X54275200Y-63238000D03*
D28*
X95457000Y-86500000D03*
X91145000Y-86500000D03*
D16*
X95748500Y-89844500D03*
X93548500Y-89844500D03*
D29*
X51608900Y-75115400D03*
X51608900Y-74465400D03*
X51608900Y-73815400D03*
X51608900Y-73165400D03*
X51608900Y-72515400D03*
D30*
X51253300Y-76287300D03*
X51253300Y-71334300D03*
D31*
X48945900Y-70877100D03*
X48945900Y-76731800D03*
D32*
X55088000Y-72624900D03*
X57092700Y-74375900D03*
X57092700Y-72432800D03*
D33*
X55088000Y-74288500D03*
D34*
X78288000Y-86832000D03*
X78288000Y-83332000D03*
X77638000Y-86832000D03*
X77638000Y-83332000D03*
X76988000Y-86832000D03*
X76988000Y-83332000D03*
X76338000Y-86832000D03*
X76338000Y-83332000D03*
D35*
X51000000Y-58520000D03*
X51000000Y-89000000D03*
X108150000Y-89000000D03*
X108150000Y-58520000D03*
D16*
X71491500Y-89336500D03*
X69291500Y-89336500D03*
D28*
X64983000Y-86500000D03*
X69295000Y-86500000D03*
D36*
X85822000Y-65853500D03*
X85822000Y-67353500D03*
D27*
X65248000Y-79862300D03*
X65248000Y-78363700D03*
D21*
X95999240Y-69050000D03*
X95999240Y-70950000D03*
X97998220Y-70000000D03*
X102964500Y-59570240D03*
X101064500Y-59570240D03*
X102014500Y-61569220D03*
X95999240Y-73050000D03*
X95999240Y-74950000D03*
X97998220Y-74000000D03*
X102842500Y-84114260D03*
X104742500Y-84114260D03*
X103792500Y-82115280D03*
X95999240Y-61050000D03*
X95999240Y-62950000D03*
X97998220Y-62000000D03*
X95999240Y-65050000D03*
X95999240Y-66950000D03*
X97998220Y-66000000D03*
X95999240Y-77050000D03*
X95999240Y-78950000D03*
X97998220Y-78000000D03*
X95999240Y-81050000D03*
X95999240Y-82950000D03*
X97998220Y-82000000D03*
D37*
X54643500Y-70085500D03*
X54643500Y-67185500D03*
D38*
X102950000Y-78000000D03*
D39*
X105490000Y-78000000D03*
X102950000Y-75460000D03*
X105490000Y-75460000D03*
X102950000Y-72920000D03*
X105490000Y-72920000D03*
X102950000Y-70380000D03*
X105490000Y-70380000D03*
X102950000Y-67840000D03*
X105490000Y-67840000D03*
D16*
X59426500Y-67238500D03*
X57226500Y-67238500D03*
X59426500Y-69207000D03*
X57226500Y-69207000D03*
X69396000Y-81653000D03*
X67196000Y-81653000D03*
D11*
X87981000Y-62519000D03*
X87981000Y-64719000D03*
D16*
X92510000Y-76065000D03*
X90310000Y-76065000D03*
D11*
X84044000Y-69885000D03*
X84044000Y-72085000D03*
D20*
X91559500Y-67908000D03*
X90909500Y-67908000D03*
X90259500Y-67908000D03*
X89609500Y-67908000D03*
X89609500Y-73808000D03*
X90259500Y-73808000D03*
X90909500Y-73808000D03*
X91559500Y-73808000D03*
D14*
X65885500Y-62666500D03*
X67785500Y-62666500D03*
D40*
X89998000Y-64949000D03*
X90648000Y-64949000D03*
X91298000Y-64949000D03*
X91298000Y-62289000D03*
X89998000Y-62289000D03*
X85807000Y-72188000D03*
X86457000Y-72188000D03*
X87107000Y-72188000D03*
X87107000Y-69528000D03*
X85807000Y-69528000D03*
D16*
X72380500Y-62666500D03*
X70180500Y-62666500D03*
D12*
X80615000Y-77464500D03*
X80615000Y-79364500D03*
D14*
X65885500Y-60571000D03*
X67785500Y-60571000D03*
D12*
X82393000Y-77464500D03*
X82393000Y-79364500D03*
D41*
X69121500Y-69778500D03*
X57755000Y-66222500D03*
X97871970Y-69270500D03*
X76337492Y-73033106D03*
X71915500Y-67776700D03*
X79218000Y-61079000D03*
X56993000Y-62222000D03*
X86186810Y-82796000D03*
X72106000Y-85225000D03*
X59660000Y-74096500D03*
X54770500Y-68254500D03*
X92045000Y-65292800D03*
X79726000Y-58929200D03*
X90902000Y-83304000D03*
X83536000Y-81335500D03*
X95156500Y-73289490D03*
X81696300Y-75938000D03*
X82139000Y-80573500D03*
X82520000Y-68127500D03*
X84811300Y-66286000D03*
X101951000Y-84891500D03*
X95029500Y-80827500D03*
X95045990Y-76700000D03*
X94917990Y-68572000D03*
X95044490Y-64698500D03*
X95029500Y-60683510D03*
X103221000Y-58539000D03*
X88898300Y-68191000D03*
X86852909Y-73730409D03*
X86901500Y-75557000D03*
X89378000Y-57577300D03*
X65375000Y-59682000D03*
X72868000Y-77208000D03*
X73757000Y-81907000D03*
X74392000Y-79767300D03*
X75154000Y-68127500D03*
X96807500Y-86947300D03*
X89006200Y-90670000D03*
X59850500Y-71556500D03*
X66137000Y-85844000D03*
X63533500Y-85971000D03*
X54326000Y-75303000D03*
X53056000Y-75493500D03*
X50960500Y-66159000D03*
X76487500Y-59968500D03*
X105761000Y-84432710D03*
X95008690Y-83240500D03*
X93696000Y-75779000D03*
X95009190Y-79240000D03*
X94966000Y-75283190D03*
X94902500Y-71175500D03*
X95010690Y-67238500D03*
X94966000Y-63283190D03*
X100554000Y-58602500D03*
X79091000Y-67238500D03*
X71565500Y-59872500D03*
X82520000Y-74096500D03*
X79916500Y-75684000D03*
X87071000Y-57586500D03*
X84552000Y-68762500D03*
X86901500Y-62848500D03*
X67470500Y-72643100D03*
X96014500Y-88828500D03*
X71725000Y-87812500D03*
X70550000Y-81399000D03*
X76995500Y-81716500D03*
X79281500Y-84256500D03*
X74900000Y-77906500D03*
X83599500Y-90797000D03*
X69947000Y-70096000D03*
X57755000Y-70223000D03*
X89251000Y-75112500D03*
X97887000Y-65285530D03*
X77122500Y-72890000D03*
X72614000Y-68381500D03*
X88483175Y-75608801D03*
X98204500Y-61333000D03*
X77757500Y-72255000D03*
X73439500Y-68955700D03*
X87727000Y-75938000D03*
X101189000Y-61206000D03*
X78519500Y-72763000D03*
X74201500Y-69491200D03*
X97935970Y-73334500D03*
X74900000Y-73842500D03*
X78481144Y-69865224D03*
X75070696Y-69935700D03*
X74063137Y-73211761D03*
X97760000Y-77271500D03*
X77727300Y-69588000D03*
X75852500Y-70148497D03*
X73495188Y-72643812D03*
X97823500Y-81208500D03*
X77122500Y-70413500D03*
X75852500Y-70951700D03*
X72923688Y-72072312D03*
X102967000Y-81893030D03*
X80297500Y-72509000D03*
X68994500Y-68762500D03*
X66391000Y-69524500D03*
X81059500Y-71112000D03*
X89251000Y-72521300D03*
X81059500Y-67238500D03*
X65815950Y-64440950D03*
X73884000Y-61396500D03*
X69756500Y-65333500D03*
X68964300Y-71683500D03*
X72296500Y-61079000D03*
X68931000Y-65587500D03*
X68359500Y-71000799D03*
X64549500Y-69524500D03*
X80844991Y-69929509D03*
X90076500Y-72191500D03*
X80297500Y-66954300D03*
X64486000Y-63619000D03*
X57120000Y-71747000D03*
X53500500Y-73715500D03*
X69947000Y-77271500D03*
X69629500Y-83685000D03*
X90074236Y-66477254D03*
X91514300Y-66672862D03*
X86774500Y-64000000D03*
X84171000Y-65143000D03*
X67009159Y-65667841D03*
X84996500Y-72191500D03*
X79662500Y-65744700D03*
X66201812Y-65145396D03*
X91283000Y-63428500D03*
X87409500Y-68272300D03*
X65248000Y-63873000D03*
X87409500Y-79494000D03*
X73312500Y-63555500D03*
X82266000Y-66222500D03*
X79853000Y-70667500D03*
X67343500Y-61968000D03*
X67880800Y-66032724D03*
D42*
X57589300Y-66222500D02*
X57755000Y-66222500D01*
X57226500Y-67238500D02*
X57226500Y-66585300D01*
X57226500Y-66585300D02*
X57589300Y-66222500D01*
X97998220Y-69396750D02*
X97871970Y-69270500D01*
X97998220Y-70000000D02*
X97998220Y-69396750D01*
X102078000Y-71683500D02*
X104237000Y-71683500D01*
X105490000Y-72920000D02*
X104626401Y-72056401D01*
X104626401Y-72056401D02*
X104609901Y-72056401D01*
X104609901Y-72056401D02*
X104237000Y-71683500D01*
X100300000Y-69905500D02*
X102078000Y-71683500D01*
X98695970Y-69905500D02*
X100300000Y-69905500D01*
X97998220Y-70000000D02*
X98601470Y-70000000D01*
X98601470Y-70000000D02*
X98695970Y-69905500D01*
X76337492Y-73033106D02*
X76472500Y-73168114D01*
X76472500Y-73168114D02*
X76472500Y-74223500D01*
X71534500Y-67937000D02*
X71755200Y-67937000D01*
X71755200Y-67937000D02*
X71915500Y-67776700D01*
X70836000Y-67238500D02*
X71534500Y-67937000D01*
X70836000Y-67196858D02*
X70836000Y-67238500D01*
X69499858Y-66413000D02*
X70052142Y-66413000D01*
X70052142Y-66413000D02*
X70836000Y-67196858D01*
X69276000Y-67460500D02*
X69276000Y-66636858D01*
X69276000Y-66636858D02*
X69499858Y-66413000D01*
D43*
X80615000Y-61140000D02*
X79279000Y-61140000D01*
X79279000Y-61140000D02*
X79218000Y-61079000D01*
X56993000Y-62717580D02*
X56993000Y-62222000D01*
X55773800Y-63238000D02*
X56472580Y-63238000D01*
X56472580Y-63238000D02*
X56993000Y-62717580D01*
X86378260Y-81904500D02*
X86378260Y-82604550D01*
X86378260Y-82604550D02*
X86186810Y-82796000D01*
X73376000Y-85570000D02*
X72451000Y-85570000D01*
X72451000Y-85570000D02*
X72106000Y-85225000D01*
X59660000Y-74096500D02*
X59660000Y-74838000D01*
X59660000Y-74838000D02*
X59914000Y-75092000D01*
X54770500Y-68062500D02*
X54770500Y-68254500D01*
X54643500Y-67185500D02*
X54643500Y-67935500D01*
X54643500Y-67935500D02*
X54770500Y-68062500D01*
X83790000Y-58666500D02*
X83790000Y-60067500D01*
X83790000Y-60067500D02*
X83540500Y-60317000D01*
X83540500Y-60317000D02*
X82710500Y-60317000D01*
X82710500Y-58417000D02*
X83540500Y-58417000D01*
X83540500Y-58417000D02*
X83790000Y-58666500D01*
X80615000Y-61140000D02*
X81887500Y-61140000D01*
X81887500Y-61140000D02*
X82710500Y-60317000D01*
X77638000Y-83332000D02*
X77638000Y-84882000D01*
X77638000Y-84882000D02*
X77238000Y-85282000D01*
X77238000Y-85282000D02*
X76988000Y-85282000D01*
X76988000Y-86832000D02*
X76988000Y-85282000D01*
X74642201Y-85228799D02*
X74301000Y-85570000D01*
X76988000Y-85282000D02*
X76934799Y-85228799D01*
X76934799Y-85228799D02*
X74642201Y-85228799D01*
X74301000Y-85570000D02*
X73376000Y-85570000D01*
X62676000Y-74060500D02*
X60795500Y-74060500D01*
X60795500Y-74060500D02*
X59914000Y-74942000D01*
X59914000Y-74942000D02*
X59914000Y-75092000D01*
X54643500Y-65143000D02*
X55773800Y-64012700D01*
X55773800Y-64012700D02*
X55773800Y-63238000D01*
X54643500Y-67185500D02*
X54643500Y-65143000D01*
D42*
X91298000Y-64949000D02*
X91701200Y-64949000D01*
X91701200Y-64949000D02*
X92045000Y-65292800D01*
X80615000Y-59240000D02*
X80036800Y-59240000D01*
X80036800Y-59240000D02*
X79726000Y-58929200D01*
X90648000Y-83050000D02*
X90902000Y-83304000D01*
X90648000Y-82031500D02*
X90648000Y-83050000D01*
X90648000Y-82031500D02*
X90069800Y-82031500D01*
X90069800Y-82031500D02*
X88489000Y-82031500D01*
X83536000Y-81194530D02*
X83536000Y-81335500D01*
X84379280Y-80954500D02*
X83776030Y-80954500D01*
X83776030Y-80954500D02*
X83536000Y-81194530D01*
X95999240Y-73050000D02*
X95395990Y-73050000D01*
X95395990Y-73050000D02*
X95156500Y-73289490D01*
X82139000Y-80421700D02*
X82139000Y-80573500D01*
X82393000Y-79364500D02*
X82393000Y-80167700D01*
X82393000Y-80167700D02*
X82139000Y-80421700D01*
X80615000Y-79364500D02*
X82393000Y-79364500D01*
X82296700Y-68127500D02*
X82520000Y-68127500D01*
X81672500Y-68323500D02*
X82100700Y-68323500D01*
X82100700Y-68323500D02*
X82296700Y-68127500D01*
X85822000Y-65853500D02*
X85243800Y-65853500D01*
X85243800Y-65853500D02*
X84811300Y-66286000D01*
X101951000Y-84402510D02*
X101951000Y-84891500D01*
X102842500Y-84114260D02*
X102239250Y-84114260D01*
X102239250Y-84114260D02*
X101951000Y-84402510D01*
X95173490Y-80827500D02*
X95029500Y-80827500D01*
X95999240Y-81050000D02*
X95395990Y-81050000D01*
X95395990Y-81050000D02*
X95173490Y-80827500D01*
X95999240Y-77050000D02*
X95395990Y-77050000D01*
X95395990Y-77050000D02*
X95045990Y-76700000D01*
X95999240Y-69050000D02*
X95395990Y-69050000D01*
X95395990Y-69050000D02*
X94917990Y-68572000D01*
X95999240Y-65050000D02*
X95395990Y-65050000D01*
X95395990Y-65050000D02*
X95044490Y-64698500D01*
X95999240Y-61050000D02*
X95395990Y-61050000D01*
X95395990Y-61050000D02*
X95029500Y-60683510D01*
X103221000Y-58710490D02*
X103221000Y-58539000D01*
X102964500Y-59570240D02*
X102964500Y-58966990D01*
X102964500Y-58966990D02*
X103221000Y-58710490D01*
X89609500Y-67908000D02*
X89181300Y-67908000D01*
X89181300Y-67908000D02*
X88898300Y-68191000D01*
X86838000Y-73525000D02*
X86838000Y-73715500D01*
X86838000Y-73715500D02*
X86852909Y-73730409D01*
X87107000Y-73256000D02*
X86838000Y-73525000D01*
X87107000Y-72188000D02*
X87107000Y-73256000D01*
X86711000Y-75366500D02*
X86901500Y-75557000D01*
X85692500Y-75366500D02*
X86711000Y-75366500D01*
X82710500Y-59367000D02*
X80742000Y-59367000D01*
X80742000Y-59367000D02*
X80615000Y-59240000D01*
X89121500Y-58412000D02*
X89121500Y-57833800D01*
X89121500Y-57833800D02*
X89378000Y-57577300D01*
X65574700Y-59682000D02*
X65375000Y-59682000D01*
X65885500Y-60571000D02*
X65885500Y-59992800D01*
X65885500Y-59992800D02*
X65574700Y-59682000D01*
X65885500Y-62666500D02*
X65885500Y-60571000D01*
X72868000Y-76944800D02*
X72868000Y-77208000D01*
X73757000Y-76634000D02*
X73178800Y-76634000D01*
X73178800Y-76634000D02*
X72868000Y-76944800D01*
X73585800Y-81907000D02*
X73757000Y-81907000D01*
X73376000Y-83070000D02*
X73376000Y-82116800D01*
X73376000Y-82116800D02*
X73585800Y-81907000D01*
X75618500Y-79494000D02*
X74665300Y-79494000D01*
X74665300Y-79494000D02*
X74392000Y-79767300D01*
X75350000Y-68323500D02*
X75154000Y-68127500D01*
X75822500Y-68323500D02*
X75350000Y-68323500D01*
X95457000Y-86500000D02*
X96360200Y-86500000D01*
X96360200Y-86500000D02*
X96807500Y-86947300D01*
X89253500Y-89844500D02*
X89253500Y-90422700D01*
X89253500Y-90422700D02*
X89006200Y-90670000D01*
X60354500Y-72060500D02*
X59850500Y-71556500D01*
X62676000Y-72060500D02*
X60354500Y-72060500D01*
X76338000Y-83332000D02*
X73638000Y-83332000D01*
X73638000Y-83332000D02*
X73376000Y-83070000D01*
X76338000Y-83332000D02*
X76338000Y-80213500D01*
X76338000Y-80213500D02*
X75618500Y-79494000D01*
X64062500Y-86500000D02*
X63533500Y-85971000D01*
X64983000Y-86500000D02*
X64062500Y-86500000D01*
X54726700Y-75303000D02*
X54326000Y-75303000D01*
X55088000Y-74288500D02*
X55088000Y-74941700D01*
X55088000Y-74941700D02*
X54726700Y-75303000D01*
X52677900Y-75115400D02*
X53056000Y-75493500D01*
X51608900Y-75115400D02*
X52677900Y-75115400D01*
X50960500Y-66034300D02*
X50960500Y-66159000D01*
X51976500Y-65671500D02*
X51323300Y-65671500D01*
X51323300Y-65671500D02*
X50960500Y-66034300D01*
D43*
X79072500Y-68323500D02*
X79072500Y-67257000D01*
X79072500Y-67257000D02*
X79091000Y-67238500D01*
X77630500Y-59575500D02*
X76880500Y-59575500D01*
X76880500Y-59575500D02*
X76487500Y-59968500D01*
X104742500Y-84114260D02*
X105442550Y-84114260D01*
X105442550Y-84114260D02*
X105761000Y-84432710D01*
X95999240Y-82950000D02*
X95299190Y-82950000D01*
X95299190Y-82950000D02*
X95008690Y-83240500D01*
X92510000Y-76065000D02*
X93410000Y-76065000D01*
X93410000Y-76065000D02*
X93696000Y-75779000D01*
X95999240Y-78950000D02*
X95299190Y-78950000D01*
X95299190Y-78950000D02*
X95009190Y-79240000D01*
X95999240Y-74950000D02*
X95299190Y-74950000D01*
X95299190Y-74950000D02*
X94966000Y-75283190D01*
X95128000Y-70950000D02*
X94902500Y-71175500D01*
X95999240Y-70950000D02*
X95128000Y-70950000D01*
X95999240Y-66950000D02*
X95299190Y-66950000D01*
X95299190Y-66950000D02*
X95010690Y-67238500D01*
X95999240Y-62950000D02*
X95299190Y-62950000D01*
X95299190Y-62950000D02*
X94966000Y-63283190D01*
X100796810Y-58602500D02*
X100554000Y-58602500D01*
X101064500Y-59570240D02*
X101064500Y-58870190D01*
X101064500Y-58870190D02*
X100796810Y-58602500D01*
X91559500Y-73808000D02*
X92084500Y-73808000D01*
X92084500Y-73808000D02*
X92510000Y-74233500D01*
X92510000Y-74233500D02*
X92510000Y-76065000D01*
X70518500Y-59575500D02*
X71268500Y-59575500D01*
X71268500Y-59575500D02*
X71565500Y-59872500D01*
X83792500Y-75366500D02*
X82815500Y-75366500D01*
X82815500Y-75366500D02*
X81672500Y-74223500D01*
X82393000Y-74223500D02*
X82520000Y-74096500D01*
X81672500Y-74223500D02*
X82393000Y-74223500D01*
X79722500Y-75490000D02*
X79916500Y-75684000D01*
X79722500Y-74223500D02*
X79722500Y-75490000D01*
X87221500Y-58412000D02*
X87221500Y-57737000D01*
X87221500Y-57737000D02*
X87071000Y-57586500D01*
X84266500Y-68762500D02*
X84552000Y-68762500D01*
X84044000Y-69885000D02*
X84044000Y-68985000D01*
X84044000Y-68985000D02*
X84266500Y-68762500D01*
X87981000Y-62519000D02*
X87231000Y-62519000D01*
X87231000Y-62519000D02*
X86901500Y-62848500D01*
X87221500Y-58412000D02*
X84915500Y-58412000D01*
X84915500Y-58412000D02*
X84910500Y-58417000D01*
X89998000Y-62289000D02*
X88211000Y-62289000D01*
X88211000Y-62289000D02*
X87981000Y-62519000D01*
X85807000Y-69528000D02*
X85807000Y-67368500D01*
X85807000Y-67368500D02*
X85822000Y-67353500D01*
X85807000Y-69528000D02*
X84401000Y-69528000D01*
X84401000Y-69528000D02*
X84044000Y-69885000D01*
X95748500Y-89844500D02*
X95748500Y-89094500D01*
X95748500Y-89094500D02*
X96014500Y-88828500D01*
X71725000Y-88353000D02*
X71725000Y-87812500D01*
X71491500Y-89336500D02*
X71491500Y-88586500D01*
X71491500Y-88586500D02*
X71725000Y-88353000D01*
X69396000Y-81653000D02*
X70296000Y-81653000D01*
X70296000Y-81653000D02*
X70550000Y-81399000D01*
D42*
X78436000Y-90015000D02*
X77638000Y-89217000D01*
X77638000Y-89217000D02*
X77638000Y-88285200D01*
X78436000Y-90035000D02*
X78436000Y-90015000D01*
X77638000Y-86832000D02*
X77638000Y-88285200D01*
X77638000Y-88285200D02*
X77630500Y-88292700D01*
X76338000Y-86832000D02*
X76338000Y-89633000D01*
X76338000Y-89633000D02*
X75936000Y-90035000D01*
X81123000Y-86903500D02*
X78359500Y-86903500D01*
X78359500Y-86903500D02*
X78288000Y-86832000D01*
X76995500Y-81716500D02*
X76995500Y-83324500D01*
X76995500Y-83324500D02*
X76988000Y-83332000D01*
X80147800Y-84256500D02*
X79281500Y-84256500D01*
X81123000Y-84403500D02*
X80294800Y-84403500D01*
X80294800Y-84403500D02*
X80147800Y-84256500D01*
X93548500Y-89844500D02*
X92745300Y-89844500D01*
X92745300Y-89844500D02*
X91153500Y-89844500D01*
X91145000Y-86500000D02*
X91145000Y-89836000D01*
X91145000Y-89836000D02*
X91153500Y-89844500D01*
X88446000Y-85844000D02*
X90489000Y-85844000D01*
X90489000Y-85844000D02*
X91145000Y-86500000D01*
D43*
X75120500Y-77686000D02*
X74900000Y-77906500D01*
X75822500Y-77686000D02*
X75120500Y-77686000D01*
X75822500Y-77686000D02*
X75822500Y-75684000D01*
X73757000Y-74734000D02*
X74432000Y-74734000D01*
X75822500Y-75684000D02*
X75822500Y-74223500D01*
X74432000Y-74734000D02*
X75382000Y-75684000D01*
X75382000Y-75684000D02*
X75822500Y-75684000D01*
X76297000Y-78160500D02*
X75822500Y-77686000D01*
X77710000Y-78160500D02*
X76297000Y-78160500D01*
X78118500Y-79494000D02*
X78118500Y-78569000D01*
X78118500Y-78569000D02*
X77710000Y-78160500D01*
X78288000Y-83332000D02*
X78288000Y-79663500D01*
X78288000Y-79663500D02*
X78118500Y-79494000D01*
D42*
X61628500Y-69366200D02*
X61628500Y-60278900D01*
X61628500Y-60278900D02*
X60282300Y-58932700D01*
X60282300Y-58932700D02*
X60282300Y-57713500D01*
X62676000Y-69560500D02*
X61822800Y-69560500D01*
X61822800Y-69560500D02*
X61628500Y-69366200D01*
X62676000Y-69060500D02*
X62676000Y-57859800D01*
X62676000Y-57859800D02*
X62822300Y-57713500D01*
X84933000Y-89463500D02*
X83599500Y-90797000D01*
X84933000Y-86353800D02*
X84933000Y-89463500D01*
X86246000Y-85844000D02*
X85442800Y-85844000D01*
X85442800Y-85844000D02*
X84933000Y-86353800D01*
X64276000Y-76160500D02*
X63947800Y-76160500D01*
X63947800Y-76160500D02*
X62390500Y-77717800D01*
X62390500Y-77717800D02*
X62390500Y-79633700D01*
X62390500Y-79633700D02*
X60549000Y-81475200D01*
X60549000Y-81475200D02*
X60549000Y-82542000D01*
X64486000Y-77462000D02*
X64776000Y-77172000D01*
X64776000Y-77172000D02*
X64776000Y-76160500D01*
X63406500Y-77462000D02*
X64486000Y-77462000D01*
X62796910Y-78071590D02*
X63406500Y-77462000D01*
X62796910Y-79802040D02*
X62796910Y-78071590D01*
X62009500Y-83773900D02*
X62009500Y-80589450D01*
X62009500Y-80589450D02*
X62796910Y-79802040D01*
X60549000Y-85082000D02*
X60701400Y-85082000D01*
X60701400Y-85082000D02*
X62009500Y-83773900D01*
X57589300Y-70223000D02*
X57755000Y-70223000D01*
X57226500Y-69207000D02*
X57226500Y-69860200D01*
X57226500Y-69860200D02*
X57589300Y-70223000D01*
X97998220Y-65396750D02*
X97887000Y-65285530D01*
X97998220Y-66000000D02*
X97998220Y-65396750D01*
X77122500Y-74223500D02*
X77122500Y-72890000D01*
X102011250Y-69651500D02*
X102221500Y-69651500D01*
X102221500Y-69651500D02*
X102950000Y-70380000D01*
X101163590Y-66794000D02*
X101163591Y-68803841D01*
X101163591Y-68803841D02*
X102011250Y-69651500D01*
X100369590Y-66000000D02*
X101163590Y-66794000D01*
X97998220Y-66000000D02*
X100369590Y-66000000D01*
X71025200Y-68381500D02*
X72614000Y-68381500D01*
X69776000Y-67460500D02*
X70104200Y-67460500D01*
X70104200Y-67460500D02*
X71025200Y-68381500D01*
X98061970Y-61333000D02*
X98204500Y-61333000D01*
X97998220Y-62000000D02*
X97998220Y-61396750D01*
X97998220Y-61396750D02*
X98061970Y-61333000D01*
X77772500Y-74223500D02*
X77772500Y-72270000D01*
X77772500Y-72270000D02*
X77757500Y-72255000D01*
X102078000Y-69143500D02*
X104253500Y-69143500D01*
X104253500Y-69143500D02*
X105490000Y-70380000D01*
X101570000Y-68635500D02*
X102078000Y-69143500D01*
X101570000Y-63809500D02*
X101570000Y-68635500D01*
X99760500Y-62000000D02*
X101570000Y-63809500D01*
X97998220Y-62000000D02*
X99760500Y-62000000D01*
X77757500Y-74208500D02*
X77772500Y-74223500D01*
X73205000Y-69060500D02*
X73309800Y-68955700D01*
X73309800Y-68955700D02*
X73439500Y-68955700D01*
X71376000Y-69060500D02*
X73205000Y-69060500D01*
X101189000Y-61346970D02*
X101189000Y-61206000D01*
X101411250Y-61569220D02*
X101189000Y-61346970D01*
X102014500Y-61569220D02*
X101411250Y-61569220D01*
X78422500Y-74223500D02*
X78422500Y-72860000D01*
X78422500Y-72860000D02*
X78519500Y-72763000D01*
X102014500Y-62920500D02*
X102950000Y-63856000D01*
X102950000Y-63856000D02*
X102950000Y-67840000D01*
X102014500Y-61569220D02*
X102014500Y-62920500D01*
X78456000Y-74190000D02*
X78422500Y-74223500D01*
X74038500Y-69560500D02*
X74107800Y-69491200D01*
X74107800Y-69491200D02*
X74201500Y-69491200D01*
X71376000Y-69560500D02*
X74038500Y-69560500D01*
X97998220Y-74000000D02*
X97998220Y-73396750D01*
X97998220Y-73396750D02*
X97935970Y-73334500D01*
X100079000Y-74000000D02*
X101159000Y-72920000D01*
X101159000Y-72920000D02*
X102950000Y-72920000D01*
X97998220Y-74000000D02*
X100079000Y-74000000D01*
X78481144Y-69865224D02*
X78481144Y-68382144D01*
X78481144Y-68382144D02*
X78422500Y-68323500D01*
X74963500Y-70096000D02*
X75070696Y-69988804D01*
X75070696Y-69988804D02*
X75070696Y-69935700D01*
X72264700Y-70096000D02*
X74963500Y-70096000D01*
X71376000Y-70060500D02*
X72229200Y-70060500D01*
X72229200Y-70060500D02*
X72264700Y-70096000D01*
X97872970Y-77271500D02*
X97760000Y-77271500D01*
X97998220Y-78000000D02*
X97998220Y-77396750D01*
X97998220Y-77396750D02*
X97872970Y-77271500D01*
X99601500Y-75620500D02*
X99762000Y-75460000D01*
X99762000Y-75460000D02*
X102950000Y-75460000D01*
X99601500Y-76999970D02*
X99601500Y-75620500D01*
X97998220Y-78000000D02*
X98601470Y-78000000D01*
X98601470Y-78000000D02*
X99601500Y-76999970D01*
X77727300Y-69588000D02*
X77727300Y-68368700D01*
X77727300Y-68368700D02*
X77772500Y-68323500D01*
X75622594Y-70286500D02*
X75714497Y-70286500D01*
X75714497Y-70286500D02*
X75852500Y-70148497D01*
X72249200Y-70540500D02*
X75368594Y-70540500D01*
X75368594Y-70540500D02*
X75622594Y-70286500D01*
X71376000Y-70560500D02*
X72229200Y-70560500D01*
X72229200Y-70560500D02*
X72249200Y-70540500D01*
X97998220Y-81383220D02*
X97823500Y-81208500D01*
X97998220Y-82000000D02*
X97998220Y-81383220D01*
X101062000Y-76700000D02*
X104250000Y-76700000D01*
X104250000Y-76700000D02*
X105490000Y-75460000D01*
X100490500Y-77271500D02*
X101062000Y-76700000D01*
X100490500Y-80110970D02*
X100490500Y-77271500D01*
X97998220Y-82000000D02*
X98601470Y-82000000D01*
X98601470Y-82000000D02*
X100490500Y-80110970D01*
X77122500Y-70413500D02*
X77122500Y-68323500D01*
X75852500Y-71048500D02*
X75852500Y-70951700D01*
X72241200Y-71048500D02*
X75852500Y-71048500D01*
X71376000Y-71060500D02*
X72229200Y-71060500D01*
X72229200Y-71060500D02*
X72241200Y-71048500D01*
X72554500Y-71560500D02*
X72923688Y-71929688D01*
X72923688Y-71929688D02*
X72923688Y-72072312D01*
X72229200Y-71560500D02*
X72554500Y-71560500D01*
X103792500Y-82115280D02*
X103189250Y-82115280D01*
X103189250Y-82115280D02*
X102967000Y-81893030D01*
X105062500Y-80637000D02*
X105490000Y-80209500D01*
X105490000Y-80209500D02*
X105490000Y-78000000D01*
X104667530Y-80637000D02*
X105062500Y-80637000D01*
X103792500Y-82115280D02*
X103792500Y-81512030D01*
X103792500Y-81512030D02*
X104667530Y-80637000D01*
X76233500Y-71556500D02*
X76472500Y-71317500D01*
X76472500Y-71317500D02*
X76472500Y-68323500D01*
X72233200Y-71556500D02*
X76233500Y-71556500D01*
X71376000Y-71560500D02*
X72229200Y-71560500D01*
X72229200Y-71560500D02*
X72233200Y-71556500D01*
X61120500Y-74922000D02*
X61482000Y-74560500D01*
X61482000Y-74560500D02*
X62676000Y-74560500D01*
X61120500Y-76738700D02*
X61120500Y-74922000D01*
X59914000Y-77292000D02*
X60567200Y-77292000D01*
X60567200Y-77292000D02*
X61120500Y-76738700D01*
X80297500Y-72509000D02*
X80297500Y-74148500D01*
X80297500Y-74148500D02*
X80372500Y-74223500D01*
X68994500Y-68532200D02*
X68994500Y-68762500D01*
X68776000Y-67460500D02*
X68776000Y-68313700D01*
X68776000Y-68313700D02*
X68994500Y-68532200D01*
X66391000Y-69524500D02*
X66391000Y-69100236D01*
X66391000Y-69100236D02*
X66327500Y-69036736D01*
X66327500Y-69036736D02*
X66327500Y-67512000D01*
X66327500Y-67512000D02*
X66276000Y-67460500D01*
X81631000Y-69860200D02*
X81631000Y-70540500D01*
X81631000Y-70540500D02*
X81059500Y-71112000D01*
X81022500Y-68323500D02*
X81022500Y-69251700D01*
X81022500Y-69251700D02*
X81631000Y-69860200D01*
X81059500Y-68360500D02*
X81022500Y-68323500D01*
X89609500Y-73808000D02*
X89609500Y-72879800D01*
X89609500Y-72879800D02*
X89251000Y-72521300D01*
X81059500Y-67238500D02*
X81059500Y-68286500D01*
X81059500Y-68286500D02*
X81022500Y-68323500D01*
X65184500Y-64825500D02*
X65569050Y-64440950D01*
X65569050Y-64440950D02*
X65815950Y-64440950D01*
X65184500Y-64831606D02*
X65184500Y-64825500D01*
X65184500Y-65366300D02*
X65184500Y-64831606D01*
X66088818Y-66270618D02*
X65184500Y-65366300D01*
X66276000Y-67460500D02*
X66276000Y-66457800D01*
X66276000Y-66457800D02*
X66088818Y-66270618D01*
X74773000Y-60444000D02*
X74773000Y-60666342D01*
X74773000Y-60666342D02*
X74342841Y-61096501D01*
X74342841Y-61096501D02*
X74183999Y-61096501D01*
X74183999Y-61096501D02*
X73884000Y-61396500D01*
X68931000Y-73144000D02*
X68931000Y-71716800D01*
X68931000Y-71716800D02*
X68964300Y-71683500D01*
X69847500Y-74060500D02*
X68931000Y-73144000D01*
X71376000Y-74060500D02*
X69847500Y-74060500D01*
X72296500Y-61079000D02*
X73061700Y-61079000D01*
X73061700Y-61079000D02*
X73696700Y-60444000D01*
X68359500Y-73398000D02*
X68359500Y-71000799D01*
X69502500Y-74541000D02*
X68359500Y-73398000D01*
X70503300Y-74541000D02*
X69502500Y-74541000D01*
X71376000Y-74560500D02*
X70522800Y-74560500D01*
X70522800Y-74560500D02*
X70503300Y-74541000D01*
X64549500Y-69524500D02*
X64549500Y-69040200D01*
X64549500Y-69040200D02*
X65276000Y-68313700D01*
X65276000Y-68313700D02*
X65276000Y-67460500D01*
X80551500Y-69461000D02*
X80844991Y-69754491D01*
X80844991Y-69754491D02*
X80844991Y-69929509D01*
X80551500Y-69430700D02*
X80551500Y-69461000D01*
X80372500Y-68323500D02*
X80372500Y-69251700D01*
X80372500Y-69251700D02*
X80551500Y-69430700D01*
X80361000Y-68335000D02*
X80372500Y-68323500D01*
X90140000Y-72760300D02*
X90140000Y-72255000D01*
X90140000Y-72255000D02*
X90076500Y-72191500D01*
X90259500Y-73808000D02*
X90259500Y-72879800D01*
X90259500Y-72879800D02*
X90140000Y-72760300D01*
X80297500Y-67320300D02*
X80297500Y-66954300D01*
X80372500Y-68323500D02*
X80372500Y-67395300D01*
X80372500Y-67395300D02*
X80297500Y-67320300D01*
X64295500Y-63809500D02*
X64486000Y-63619000D01*
X64295500Y-65626800D02*
X64295500Y-63809500D01*
X65276000Y-67460500D02*
X65276000Y-66607300D01*
X65276000Y-66607300D02*
X64295500Y-65626800D01*
X76698500Y-57375500D02*
X76170000Y-57904000D01*
X76170000Y-57904000D02*
X76170000Y-58379200D01*
X77630500Y-57375500D02*
X76698500Y-57375500D01*
X74760300Y-59160700D02*
X75388500Y-59160700D01*
X75388500Y-59160700D02*
X76170000Y-58379200D01*
X73696700Y-59160700D02*
X73068500Y-59160700D01*
X73068500Y-59160700D02*
X71283300Y-57375500D01*
X71283300Y-57375500D02*
X70518500Y-57375500D01*
X58009000Y-73652000D02*
X58600500Y-73060500D01*
X58600500Y-73060500D02*
X62676000Y-73060500D01*
X58009000Y-74162800D02*
X58009000Y-73652000D01*
X57092700Y-74375900D02*
X57795900Y-74375900D01*
X57795900Y-74375900D02*
X58009000Y-74162800D01*
X57092700Y-73624700D02*
X57092700Y-74375900D01*
X51608900Y-73165400D02*
X52971100Y-73165400D01*
X56866000Y-73398000D02*
X57092700Y-73624700D01*
X52971100Y-73165400D02*
X53056000Y-73080500D01*
X53056000Y-73080500D02*
X53881500Y-73080500D01*
X53881500Y-73080500D02*
X54199000Y-73398000D01*
X54199000Y-73398000D02*
X56866000Y-73398000D01*
X62676000Y-72560500D02*
X57220400Y-72560500D01*
X57220400Y-72560500D02*
X57092700Y-72432800D01*
X57120000Y-71747000D02*
X57120000Y-72405500D01*
X57120000Y-72405500D02*
X57092700Y-72432800D01*
X53400600Y-73815400D02*
X53500500Y-73715500D01*
X51608900Y-73815400D02*
X53400600Y-73815400D01*
X54275200Y-63238000D02*
X52210000Y-63238000D01*
X52210000Y-63238000D02*
X51976500Y-63471500D01*
X69947000Y-77271500D02*
X69947000Y-76331500D01*
X69947000Y-76331500D02*
X69776000Y-76160500D01*
X69629500Y-84962300D02*
X69629500Y-83685000D01*
X69295000Y-86500000D02*
X69295000Y-85296800D01*
X69295000Y-85296800D02*
X69629500Y-84962300D01*
X69291500Y-89336500D02*
X69291500Y-86503500D01*
X69291500Y-86503500D02*
X69295000Y-86500000D01*
X67196000Y-81653000D02*
X66436720Y-81653000D01*
X65248000Y-80464280D02*
X65248000Y-79862300D01*
X66436720Y-81653000D02*
X65248000Y-80464280D01*
X65276000Y-76160500D02*
X65276000Y-78335700D01*
X65276000Y-78335700D02*
X65248000Y-78363700D01*
X62676000Y-71060500D02*
X61822800Y-71060500D01*
X61822800Y-71060500D02*
X61222090Y-70459790D01*
X61222090Y-70459790D02*
X61222090Y-67848090D01*
X61222090Y-67848090D02*
X60612500Y-67238500D01*
X60612500Y-67238500D02*
X59426500Y-67238500D01*
X60803000Y-69524500D02*
X60485500Y-69207000D01*
X60485500Y-69207000D02*
X59426500Y-69207000D01*
X60803000Y-70615450D02*
X60803000Y-69524500D01*
X62676000Y-71560500D02*
X61748050Y-71560500D01*
X61748050Y-71560500D02*
X60803000Y-70615450D01*
X90074236Y-66477254D02*
X90074236Y-65025236D01*
X90074236Y-65025236D02*
X89998000Y-64949000D01*
X91559500Y-66753000D02*
X91514300Y-66707800D01*
X91514300Y-66707800D02*
X91514300Y-66672862D01*
X91559500Y-67908000D02*
X91559500Y-66753000D01*
X86774500Y-64165700D02*
X86774500Y-64000000D01*
X87981000Y-64719000D02*
X87327800Y-64719000D01*
X87327800Y-64719000D02*
X86774500Y-64165700D01*
X83942410Y-64914410D02*
X84171000Y-65143000D01*
X80043500Y-64914410D02*
X83942410Y-64914410D01*
X77440000Y-64914410D02*
X80043500Y-64914410D01*
X73080660Y-64914410D02*
X77440000Y-64914410D01*
X72898125Y-64731875D02*
X73080660Y-64914410D01*
X72420250Y-64254000D02*
X72898125Y-64731875D01*
X70253059Y-64242559D02*
X70264500Y-64254000D01*
X70264500Y-64254000D02*
X72420250Y-64254000D01*
X67407000Y-64242559D02*
X70253059Y-64242559D01*
X67009159Y-64640400D02*
X67407000Y-64242559D01*
X67009159Y-65667841D02*
X67009159Y-64640400D01*
X89998000Y-64949000D02*
X88211000Y-64949000D01*
X88211000Y-64949000D02*
X87981000Y-64719000D01*
X67276000Y-66028000D02*
X67009159Y-65761159D01*
X67009159Y-65761159D02*
X67009159Y-65667841D01*
X67276000Y-67460500D02*
X67276000Y-66028000D01*
X90310000Y-76065000D02*
X90310000Y-75411800D01*
X90310000Y-75411800D02*
X90909500Y-74812300D01*
X90909500Y-74812300D02*
X90909500Y-74736200D01*
X90909500Y-74736200D02*
X90909500Y-73808000D01*
X84996500Y-72191500D02*
X84150500Y-72191500D01*
X84150500Y-72191500D02*
X84044000Y-72085000D01*
X84996500Y-72191500D02*
X85803500Y-72191500D01*
X85803500Y-72191500D02*
X85807000Y-72188000D01*
X79662500Y-67335300D02*
X79662500Y-65744700D01*
X79722500Y-68323500D02*
X79722500Y-67395300D01*
X79722500Y-67395300D02*
X79662500Y-67335300D01*
X66200500Y-65714500D02*
X66200500Y-65146708D01*
X66200500Y-65146708D02*
X66201812Y-65145396D01*
X66776000Y-66290000D02*
X66200500Y-65714500D01*
X66776000Y-67460500D02*
X66776000Y-66290000D01*
X86838000Y-65016000D02*
X86838000Y-67700800D01*
X86838000Y-67700800D02*
X87409500Y-68272300D01*
X86330000Y-64508000D02*
X86838000Y-65016000D01*
X73249000Y-64508000D02*
X86330000Y-64508000D01*
X72577149Y-63836149D02*
X73249000Y-64508000D01*
X65248000Y-63873000D02*
X65488794Y-63873000D01*
X65488794Y-63873000D02*
X65525645Y-63836149D01*
X65525645Y-63836149D02*
X72577149Y-63836149D01*
X91283000Y-63428500D02*
X91283000Y-62304000D01*
X91283000Y-62304000D02*
X91298000Y-62289000D01*
X87107000Y-69528000D02*
X87107000Y-68574800D01*
X87107000Y-68574800D02*
X87409500Y-68272300D01*
X65090801Y-63873000D02*
X65248000Y-63873000D01*
X64740000Y-65496550D02*
X64740000Y-64223801D01*
X64740000Y-64223801D02*
X65090801Y-63873000D01*
X65682409Y-66438959D02*
X64740000Y-65496550D01*
X65776000Y-67460500D02*
X65776000Y-66532550D01*
X65776000Y-66532550D02*
X65682409Y-66438959D01*
D43*
X55088000Y-72624900D02*
X55088000Y-70530000D01*
X55088000Y-70530000D02*
X54643500Y-70085500D01*
X51608900Y-72515400D02*
X54978500Y-72515400D01*
X54978500Y-72515400D02*
X55088000Y-72624900D01*
D42*
X86139500Y-73588500D02*
X86457000Y-73271000D01*
X86457000Y-73271000D02*
X86457000Y-72188000D01*
X83155000Y-73588500D02*
X86139500Y-73588500D01*
X82647000Y-73080500D02*
X83155000Y-73588500D01*
X81237300Y-73080500D02*
X82647000Y-73080500D01*
X81022500Y-74223500D02*
X81022500Y-73295300D01*
X81022500Y-73295300D02*
X81237300Y-73080500D01*
X79408500Y-72959300D02*
X79408500Y-71112000D01*
X79408500Y-71112000D02*
X79853000Y-70667500D01*
X87600000Y-79684500D02*
X87409500Y-79494000D01*
X87600000Y-80131500D02*
X86505260Y-80131500D01*
X88489000Y-80131500D02*
X87600000Y-80131500D01*
X87600000Y-80131500D02*
X87600000Y-79684500D01*
X83917000Y-79176500D02*
X84745000Y-80004500D01*
X84745000Y-80004500D02*
X86378260Y-80004500D01*
X83917000Y-78410300D02*
X83917000Y-79176500D01*
X82393000Y-77464500D02*
X82971200Y-77464500D01*
X82971200Y-77464500D02*
X83917000Y-78410300D01*
X73312500Y-63555500D02*
X73269500Y-63555500D01*
X73269500Y-63555500D02*
X72380500Y-62666500D01*
X79072500Y-74223500D02*
X79072500Y-73295300D01*
X79072500Y-73295300D02*
X79408500Y-72959300D01*
X90648000Y-80131500D02*
X88489000Y-80131500D01*
X86505260Y-80131500D02*
X86378260Y-80004500D01*
X82393000Y-77464500D02*
X80615000Y-77464500D01*
X79072500Y-76745000D02*
X79792000Y-77464500D01*
X79792000Y-77464500D02*
X80615000Y-77464500D01*
X79072500Y-74223500D02*
X79072500Y-76745000D01*
X67785500Y-62666500D02*
X68588700Y-62666500D01*
X68588700Y-62666500D02*
X70180500Y-62666500D01*
X67343500Y-61968000D02*
X67343500Y-62224500D01*
X67343500Y-62224500D02*
X67785500Y-62666500D01*
X67788000Y-66595300D02*
X67788000Y-66125524D01*
X67788000Y-66125524D02*
X67880800Y-66032724D01*
X67776000Y-67460500D02*
X67776000Y-66607300D01*
X67776000Y-66607300D02*
X67788000Y-66595300D01*
X67785500Y-60571000D02*
X67785500Y-62666500D01*
X68010500Y-62666500D02*
X67785500Y-62666500D01*
X67776000Y-62676000D02*
X67785500Y-62666500D01*
X90909500Y-66547500D02*
X90648000Y-66286000D01*
X90648000Y-66286000D02*
X90648000Y-64949000D01*
X90909500Y-67908000D02*
X90909500Y-66547500D01*
D44*
G36*
X104900741Y-56344811D02*
X104315667Y-57753825D01*
X104314336Y-59279482D01*
X104896950Y-60689515D01*
X105974811Y-61769259D01*
X107383825Y-62354333D01*
X108909482Y-62355664D01*
X110319515Y-61773050D01*
X110868000Y-61225522D01*
X110868000Y-86294500D01*
X110325189Y-85750741D01*
X108916175Y-85165667D01*
X107390518Y-85164336D01*
X105980485Y-85746950D01*
X104900741Y-86824811D01*
X104315667Y-88233825D01*
X104314336Y-89759482D01*
X104896950Y-91169515D01*
X105312709Y-91586000D01*
X84132567Y-91586000D01*
X84391692Y-91327327D01*
X84534338Y-90983799D01*
X84534408Y-90903802D01*
X85307960Y-90130250D01*
X88018500Y-90130250D01*
X88018500Y-90345810D01*
X88115173Y-90579199D01*
X88293802Y-90757827D01*
X88527191Y-90854500D01*
X88967750Y-90854500D01*
X89126500Y-90695750D01*
X89126500Y-89971500D01*
X88177250Y-89971500D01*
X88018500Y-90130250D01*
X85307960Y-90130250D01*
X85453855Y-89984355D01*
X85500274Y-89914884D01*
X85613530Y-89745385D01*
X85669600Y-89463500D01*
X85669600Y-89343190D01*
X88018500Y-89343190D01*
X88018500Y-89558750D01*
X88177250Y-89717500D01*
X89126500Y-89717500D01*
X89126500Y-88993250D01*
X88967750Y-88834500D01*
X88527191Y-88834500D01*
X88293802Y-88931173D01*
X88115173Y-89109801D01*
X88018500Y-89343190D01*
X85669600Y-89343190D01*
X85669600Y-86941440D01*
X86846000Y-86941440D01*
X87081317Y-86897162D01*
X87297441Y-86758090D01*
X87345134Y-86688289D01*
X87381910Y-86745441D01*
X87594110Y-86890431D01*
X87846000Y-86941440D01*
X89046000Y-86941440D01*
X89281317Y-86897162D01*
X89497441Y-86758090D01*
X89618715Y-86580600D01*
X89797560Y-86580600D01*
X89797560Y-87500000D01*
X89841838Y-87735317D01*
X89980910Y-87951441D01*
X90193110Y-88096431D01*
X90408400Y-88140028D01*
X90408400Y-88849362D01*
X90318183Y-88866338D01*
X90214854Y-88932829D01*
X90213198Y-88931173D01*
X89979809Y-88834500D01*
X89539250Y-88834500D01*
X89380500Y-88993250D01*
X89380500Y-89717500D01*
X89400500Y-89717500D01*
X89400500Y-89971500D01*
X89380500Y-89971500D01*
X89380500Y-90695750D01*
X89539250Y-90854500D01*
X89979809Y-90854500D01*
X90213198Y-90757827D01*
X90214568Y-90756457D01*
X90301610Y-90815931D01*
X90553500Y-90866940D01*
X91753500Y-90866940D01*
X91988817Y-90822662D01*
X92204941Y-90683590D01*
X92274969Y-90581100D01*
X92378338Y-90581100D01*
X92484410Y-90745941D01*
X92696610Y-90890931D01*
X92948500Y-90941940D01*
X94148500Y-90941940D01*
X94383817Y-90897662D01*
X94599941Y-90758590D01*
X94647634Y-90688789D01*
X94684410Y-90745941D01*
X94896610Y-90890931D01*
X95148500Y-90941940D01*
X96348500Y-90941940D01*
X96583817Y-90897662D01*
X96799941Y-90758590D01*
X96944931Y-90546390D01*
X96995940Y-90294500D01*
X96995940Y-89394500D01*
X96951662Y-89159183D01*
X96913936Y-89100555D01*
X96949338Y-89015299D01*
X96949662Y-88643333D01*
X96807617Y-88299557D01*
X96544827Y-88036308D01*
X96526378Y-88028647D01*
X96695327Y-87859699D01*
X96792000Y-87626310D01*
X96792000Y-86785750D01*
X96633250Y-86627000D01*
X95584000Y-86627000D01*
X95584000Y-86647000D01*
X95330000Y-86647000D01*
X95330000Y-86627000D01*
X94280750Y-86627000D01*
X94122000Y-86785750D01*
X94122000Y-87626310D01*
X94218673Y-87859699D01*
X94397302Y-88038327D01*
X94630691Y-88135000D01*
X95171250Y-88135000D01*
X95329998Y-87976252D01*
X95329998Y-88135000D01*
X95385766Y-88135000D01*
X95222308Y-88298173D01*
X95079662Y-88641701D01*
X95079603Y-88709762D01*
X95041190Y-88767252D01*
X94913183Y-88791338D01*
X94697059Y-88930410D01*
X94649366Y-89000211D01*
X94612590Y-88943059D01*
X94400390Y-88798069D01*
X94148500Y-88747060D01*
X92948500Y-88747060D01*
X92713183Y-88791338D01*
X92497059Y-88930410D01*
X92375785Y-89107900D01*
X92275401Y-89107900D01*
X92217590Y-89018059D01*
X92005390Y-88873069D01*
X91881600Y-88848001D01*
X91881600Y-88140553D01*
X92080317Y-88103162D01*
X92296441Y-87964090D01*
X92441431Y-87751890D01*
X92492440Y-87500000D01*
X92492440Y-85500000D01*
X92468674Y-85373690D01*
X94122000Y-85373690D01*
X94122000Y-86214250D01*
X94280750Y-86373000D01*
X95330000Y-86373000D01*
X95330000Y-85023750D01*
X95584000Y-85023750D01*
X95584000Y-86373000D01*
X96633250Y-86373000D01*
X96792000Y-86214250D01*
X96792000Y-85373690D01*
X96695327Y-85140301D01*
X96516698Y-84961673D01*
X96283309Y-84865000D01*
X95742750Y-84865000D01*
X95584000Y-85023750D01*
X95330000Y-85023750D01*
X95171250Y-84865000D01*
X94630691Y-84865000D01*
X94397302Y-84961673D01*
X94218673Y-85140301D01*
X94122000Y-85373690D01*
X92468674Y-85373690D01*
X92448162Y-85264683D01*
X92309090Y-85048559D01*
X92096890Y-84903569D01*
X91845000Y-84852560D01*
X90445000Y-84852560D01*
X90209683Y-84896838D01*
X89993559Y-85035910D01*
X89944712Y-85107400D01*
X89616162Y-85107400D01*
X89510090Y-84942559D01*
X89297890Y-84797569D01*
X89046000Y-84746560D01*
X87846000Y-84746560D01*
X87610683Y-84790838D01*
X87394559Y-84929910D01*
X87346866Y-84999711D01*
X87310090Y-84942559D01*
X87097890Y-84797569D01*
X86846000Y-84746560D01*
X85646000Y-84746560D01*
X85410683Y-84790838D01*
X85194559Y-84929910D01*
X85049569Y-85142110D01*
X85027143Y-85252854D01*
X84921945Y-85323145D01*
X84412145Y-85832945D01*
X84252470Y-86071915D01*
X84196400Y-86353800D01*
X84196400Y-89158390D01*
X83492884Y-89861906D01*
X83414333Y-89861838D01*
X83070557Y-90003883D01*
X82807308Y-90266673D01*
X82664662Y-90610201D01*
X82664338Y-90982167D01*
X82806383Y-91325943D01*
X83065987Y-91586000D01*
X53837730Y-91586000D01*
X54249259Y-91175189D01*
X54834333Y-89766175D01*
X54835664Y-88240518D01*
X54728445Y-87981026D01*
X58941642Y-87981026D01*
X58944291Y-87996791D01*
X59198268Y-88524036D01*
X59634680Y-88913954D01*
X60187087Y-89107184D01*
X60422000Y-88962924D01*
X60422000Y-87749000D01*
X60676000Y-87749000D01*
X60676000Y-88962924D01*
X60910913Y-89107184D01*
X61463320Y-88913954D01*
X61899732Y-88524036D01*
X62153709Y-87996791D01*
X62156358Y-87981026D01*
X62035217Y-87749000D01*
X60676000Y-87749000D01*
X60422000Y-87749000D01*
X59062783Y-87749000D01*
X58941642Y-87981026D01*
X54728445Y-87981026D01*
X54253050Y-86830485D01*
X53175189Y-85750741D01*
X51766175Y-85165667D01*
X50240518Y-85164336D01*
X48830485Y-85746950D01*
X48457000Y-86119784D01*
X48457000Y-78566740D01*
X49895900Y-78566740D01*
X50131217Y-78522462D01*
X50347341Y-78383390D01*
X50492331Y-78171190D01*
X50543340Y-77919300D01*
X50543340Y-77672240D01*
X52303300Y-77672240D01*
X52538617Y-77627962D01*
X52754741Y-77488890D01*
X52899731Y-77276690D01*
X52950740Y-77024800D01*
X52950740Y-75549800D01*
X52933900Y-75460303D01*
X52933900Y-75386650D01*
X52916829Y-75369579D01*
X52906462Y-75314483D01*
X52777722Y-75114416D01*
X52895331Y-74942290D01*
X52910458Y-74867592D01*
X52933900Y-74844150D01*
X52933900Y-74764090D01*
X52932233Y-74760065D01*
X52946340Y-74690400D01*
X52946340Y-74552000D01*
X53076878Y-74552000D01*
X53313701Y-74650338D01*
X53685667Y-74650662D01*
X53803000Y-74602181D01*
X53803000Y-74864810D01*
X53899673Y-75098199D01*
X54078302Y-75276827D01*
X54311691Y-75373500D01*
X54802250Y-75373500D01*
X54961000Y-75214750D01*
X54961000Y-74415500D01*
X54941000Y-74415500D01*
X54941000Y-74161500D01*
X54961000Y-74161500D01*
X54961000Y-74141500D01*
X55215000Y-74141500D01*
X55215000Y-74161500D01*
X55235000Y-74161500D01*
X55235000Y-74415500D01*
X55215000Y-74415500D01*
X55215000Y-75214750D01*
X55373750Y-75373500D01*
X55864309Y-75373500D01*
X56097698Y-75276827D01*
X56199053Y-75175473D01*
X56340810Y-75272331D01*
X56592700Y-75323340D01*
X57592700Y-75323340D01*
X57828017Y-75279062D01*
X58044141Y-75139990D01*
X58120935Y-75027598D01*
X58316755Y-74896755D01*
X58529855Y-74683655D01*
X58689530Y-74444685D01*
X58724851Y-74267115D01*
X58724838Y-74281667D01*
X58816560Y-74503652D01*
X58816560Y-75692000D01*
X58860838Y-75927317D01*
X58999910Y-76143441D01*
X59069711Y-76191134D01*
X59012559Y-76227910D01*
X58867569Y-76440110D01*
X58816560Y-76692000D01*
X58816560Y-77892000D01*
X58860838Y-78127317D01*
X58999910Y-78343441D01*
X59212110Y-78488431D01*
X59464000Y-78539440D01*
X60364000Y-78539440D01*
X60599317Y-78495162D01*
X60815441Y-78356090D01*
X60960431Y-78143890D01*
X61011440Y-77892000D01*
X61011440Y-77864048D01*
X61088055Y-77812855D01*
X61641355Y-77259555D01*
X61801030Y-77020585D01*
X61857100Y-76738700D01*
X61857100Y-75298737D01*
X62026000Y-75332940D01*
X63326000Y-75332940D01*
X63547975Y-75291172D01*
X63503560Y-75510500D01*
X63503560Y-75588452D01*
X63451856Y-75623000D01*
X63426945Y-75639645D01*
X61869645Y-77196945D01*
X61709970Y-77435915D01*
X61653900Y-77717800D01*
X61653900Y-79328590D01*
X60028145Y-80954345D01*
X59976952Y-81030960D01*
X59533000Y-81030960D01*
X59297683Y-81075238D01*
X59081559Y-81214310D01*
X58936569Y-81426510D01*
X58885560Y-81678400D01*
X58885560Y-83405600D01*
X58929838Y-83640917D01*
X59068910Y-83857041D01*
X59281110Y-84002031D01*
X59322439Y-84010400D01*
X59304585Y-84022330D01*
X58979729Y-84508511D01*
X58865655Y-85082000D01*
X58979729Y-85655489D01*
X59304585Y-86141670D01*
X59614069Y-86348461D01*
X59198268Y-86719964D01*
X58944291Y-87247209D01*
X58941642Y-87262974D01*
X59062783Y-87495000D01*
X60422000Y-87495000D01*
X60422000Y-87475000D01*
X60676000Y-87475000D01*
X60676000Y-87495000D01*
X62035217Y-87495000D01*
X62156358Y-87262974D01*
X62153709Y-87247209D01*
X61931422Y-86785750D01*
X63648000Y-86785750D01*
X63648000Y-87626310D01*
X63744673Y-87859699D01*
X63923302Y-88038327D01*
X64156691Y-88135000D01*
X64697250Y-88135000D01*
X64856000Y-87976250D01*
X64856000Y-86627000D01*
X65110000Y-86627000D01*
X65110000Y-87976250D01*
X65268750Y-88135000D01*
X65809309Y-88135000D01*
X66042698Y-88038327D01*
X66221327Y-87859699D01*
X66318000Y-87626310D01*
X66318000Y-86785750D01*
X66159250Y-86627000D01*
X65110000Y-86627000D01*
X64856000Y-86627000D01*
X63806750Y-86627000D01*
X63648000Y-86785750D01*
X61931422Y-86785750D01*
X61899732Y-86719964D01*
X61483931Y-86348461D01*
X61793415Y-86141670D01*
X62118271Y-85655489D01*
X62174324Y-85373690D01*
X63648000Y-85373690D01*
X63648000Y-86214250D01*
X63806750Y-86373000D01*
X64856000Y-86373000D01*
X64856000Y-85023750D01*
X65110000Y-85023750D01*
X65110000Y-86373000D01*
X66159250Y-86373000D01*
X66318000Y-86214250D01*
X66318000Y-85373690D01*
X66221327Y-85140301D01*
X66042698Y-84961673D01*
X65809309Y-84865000D01*
X65268750Y-84865000D01*
X65110000Y-85023750D01*
X64856000Y-85023750D01*
X64697250Y-84865000D01*
X64156691Y-84865000D01*
X63923302Y-84961673D01*
X63744673Y-85140301D01*
X63648000Y-85373690D01*
X62174324Y-85373690D01*
X62232345Y-85082000D01*
X62151176Y-84673934D01*
X62530355Y-84294755D01*
X62561901Y-84247543D01*
X62690030Y-84055785D01*
X62746100Y-83773900D01*
X62746100Y-80894560D01*
X63317765Y-80322895D01*
X63477440Y-80083925D01*
X63533510Y-79802040D01*
X63533510Y-78376700D01*
X63711610Y-78198600D01*
X64201780Y-78198600D01*
X64201780Y-78762480D01*
X64246058Y-78997797D01*
X64320185Y-79112993D01*
X64252789Y-79211630D01*
X64201780Y-79463520D01*
X64201780Y-80261080D01*
X64246058Y-80496397D01*
X64385130Y-80712521D01*
X64597330Y-80857511D01*
X64648839Y-80867942D01*
X64727145Y-80985135D01*
X65915865Y-82173855D01*
X65968511Y-82209032D01*
X65992838Y-82338317D01*
X66131910Y-82554441D01*
X66344110Y-82699431D01*
X66596000Y-82750440D01*
X67796000Y-82750440D01*
X68031317Y-82706162D01*
X68247441Y-82567090D01*
X68295134Y-82497289D01*
X68331910Y-82554441D01*
X68544110Y-82699431D01*
X68796000Y-82750440D01*
X69442876Y-82750440D01*
X69100557Y-82891883D01*
X68837308Y-83154673D01*
X68694662Y-83498201D01*
X68694338Y-83870167D01*
X68836383Y-84213943D01*
X68892900Y-84270559D01*
X68892900Y-84657190D01*
X68774145Y-84775945D01*
X68722952Y-84852560D01*
X68595000Y-84852560D01*
X68359683Y-84896838D01*
X68143559Y-85035910D01*
X67998569Y-85248110D01*
X67947560Y-85500000D01*
X67947560Y-87500000D01*
X67991838Y-87735317D01*
X68130910Y-87951441D01*
X68343110Y-88096431D01*
X68554900Y-88139320D01*
X68554900Y-88264763D01*
X68456183Y-88283338D01*
X68240059Y-88422410D01*
X68095069Y-88634610D01*
X68044060Y-88886500D01*
X68044060Y-89786500D01*
X68088338Y-90021817D01*
X68227410Y-90237941D01*
X68439610Y-90382931D01*
X68691500Y-90433940D01*
X69891500Y-90433940D01*
X70126817Y-90389662D01*
X70342941Y-90250590D01*
X70390634Y-90180789D01*
X70427410Y-90237941D01*
X70639610Y-90382931D01*
X70891500Y-90433940D01*
X72091500Y-90433940D01*
X72326817Y-90389662D01*
X72542941Y-90250590D01*
X72687931Y-90038390D01*
X72738940Y-89786500D01*
X72738940Y-88886500D01*
X72694662Y-88651183D01*
X72555590Y-88435059D01*
X72501085Y-88397817D01*
X72510000Y-88353000D01*
X72510000Y-88350006D01*
X72517192Y-88342827D01*
X72659838Y-87999299D01*
X72660162Y-87627333D01*
X72518117Y-87283557D01*
X72255327Y-87020308D01*
X71911799Y-86877662D01*
X71539833Y-86877338D01*
X71196057Y-87019383D01*
X70932808Y-87282173D01*
X70790162Y-87625701D01*
X70789838Y-87997667D01*
X70854465Y-88154077D01*
X70784190Y-88259252D01*
X70656183Y-88283338D01*
X70440059Y-88422410D01*
X70392366Y-88492211D01*
X70355590Y-88435059D01*
X70143390Y-88290069D01*
X70028100Y-88266722D01*
X70028100Y-88141212D01*
X70230317Y-88103162D01*
X70446441Y-87964090D01*
X70591431Y-87751890D01*
X70642440Y-87500000D01*
X70642440Y-85500000D01*
X70598162Y-85264683D01*
X70459090Y-85048559D01*
X70362121Y-84982303D01*
X70366100Y-84962300D01*
X70366100Y-84270822D01*
X70421692Y-84215327D01*
X70564338Y-83871799D01*
X70564662Y-83499833D01*
X70422617Y-83156057D01*
X70159827Y-82892808D01*
X69816968Y-82750440D01*
X69996000Y-82750440D01*
X70231317Y-82706162D01*
X70447441Y-82567090D01*
X70573338Y-82382834D01*
X70596407Y-82378245D01*
X70662477Y-82334099D01*
X70735167Y-82334162D01*
X71075133Y-82193691D01*
X72116000Y-82193691D01*
X72116000Y-82784250D01*
X72274750Y-82943000D01*
X73249000Y-82943000D01*
X73249000Y-81843750D01*
X73503000Y-81843750D01*
X73503000Y-82943000D01*
X74477250Y-82943000D01*
X74636000Y-82784250D01*
X74636000Y-82193691D01*
X74539327Y-81960302D01*
X74360699Y-81781673D01*
X74127310Y-81685000D01*
X73661750Y-81685000D01*
X73503000Y-81843750D01*
X73249000Y-81843750D01*
X73090250Y-81685000D01*
X72624690Y-81685000D01*
X72391301Y-81781673D01*
X72212673Y-81960302D01*
X72116000Y-82193691D01*
X71075133Y-82193691D01*
X71078943Y-82192117D01*
X71342192Y-81929327D01*
X71484838Y-81585799D01*
X71485162Y-81213833D01*
X71343117Y-80870057D01*
X71080327Y-80606808D01*
X70736799Y-80464162D01*
X70364833Y-80463838D01*
X70094549Y-80575517D01*
X69996000Y-80555560D01*
X68796000Y-80555560D01*
X68560683Y-80599838D01*
X68344559Y-80738910D01*
X68296866Y-80808711D01*
X68260090Y-80751559D01*
X68047890Y-80606569D01*
X67796000Y-80555560D01*
X66596000Y-80555560D01*
X66415040Y-80589610D01*
X66259241Y-80433811D01*
X66294220Y-80261080D01*
X66294220Y-79779750D01*
X74233500Y-79779750D01*
X74233500Y-80245310D01*
X74330173Y-80478699D01*
X74508802Y-80657327D01*
X74742191Y-80754000D01*
X75332750Y-80754000D01*
X75491500Y-80595250D01*
X75491500Y-79621000D01*
X74392250Y-79621000D01*
X74233500Y-79779750D01*
X66294220Y-79779750D01*
X66294220Y-79463520D01*
X66249942Y-79228203D01*
X66175815Y-79113007D01*
X66243211Y-79014370D01*
X66294220Y-78762480D01*
X66294220Y-77964920D01*
X66249942Y-77729603D01*
X66110870Y-77513479D01*
X66012600Y-77446334D01*
X66012600Y-77436941D01*
X66030589Y-77433556D01*
X66151000Y-77457940D01*
X66401000Y-77457940D01*
X66530589Y-77433556D01*
X66651000Y-77457940D01*
X66901000Y-77457940D01*
X67030589Y-77433556D01*
X67151000Y-77457940D01*
X67401000Y-77457940D01*
X67530589Y-77433556D01*
X67651000Y-77457940D01*
X67901000Y-77457940D01*
X68030589Y-77433556D01*
X68151000Y-77457940D01*
X68401000Y-77457940D01*
X68530589Y-77433556D01*
X68651000Y-77457940D01*
X68901000Y-77457940D01*
X69011855Y-77437081D01*
X69011838Y-77456667D01*
X69153883Y-77800443D01*
X69416673Y-78063692D01*
X69760201Y-78206338D01*
X70132167Y-78206662D01*
X70475943Y-78064617D01*
X70739192Y-77801827D01*
X70881838Y-77458299D01*
X70882162Y-77086333D01*
X70813332Y-76919750D01*
X72747000Y-76919750D01*
X72747000Y-77360309D01*
X72843673Y-77593698D01*
X73022301Y-77772327D01*
X73255690Y-77869000D01*
X73471250Y-77869000D01*
X73630000Y-77710250D01*
X73630000Y-76761000D01*
X72905750Y-76761000D01*
X72747000Y-76919750D01*
X70813332Y-76919750D01*
X70740117Y-76742557D01*
X70683600Y-76685941D01*
X70683600Y-76331505D01*
X70683601Y-76331500D01*
X70627531Y-76049616D01*
X70548440Y-75931248D01*
X70548440Y-75510500D01*
X70507722Y-75294101D01*
X70522800Y-75297100D01*
X70549017Y-75297100D01*
X70726000Y-75332940D01*
X72026000Y-75332940D01*
X72261317Y-75288662D01*
X72477441Y-75149590D01*
X72622431Y-74937390D01*
X72673440Y-74685500D01*
X72673440Y-74435500D01*
X72649056Y-74305911D01*
X72673440Y-74185500D01*
X72673440Y-73935500D01*
X72649056Y-73805911D01*
X72673440Y-73685500D01*
X72673440Y-73435500D01*
X72649056Y-73305911D01*
X72673440Y-73185500D01*
X72673440Y-73103463D01*
X72702071Y-73172755D01*
X72964861Y-73436004D01*
X73178726Y-73524809D01*
X73146683Y-73530838D01*
X72930559Y-73669910D01*
X72785569Y-73882110D01*
X72734560Y-74134000D01*
X72734560Y-75334000D01*
X72778838Y-75569317D01*
X72845329Y-75672646D01*
X72843673Y-75674302D01*
X72747000Y-75907691D01*
X72747000Y-76348250D01*
X72905750Y-76507000D01*
X73630000Y-76507000D01*
X73630000Y-76487000D01*
X73884000Y-76487000D01*
X73884000Y-76507000D01*
X74608250Y-76507000D01*
X74767000Y-76348250D01*
X74767000Y-76179158D01*
X74826921Y-76239079D01*
X75037500Y-76379783D01*
X75037500Y-76917510D01*
X74820093Y-76960755D01*
X74804138Y-76971416D01*
X74767000Y-76971383D01*
X74767000Y-76919750D01*
X74608250Y-76761000D01*
X73884000Y-76761000D01*
X73884000Y-77710250D01*
X73965100Y-77791350D01*
X73964838Y-78091667D01*
X74106883Y-78435443D01*
X74286314Y-78615187D01*
X74233500Y-78742690D01*
X74233500Y-79208250D01*
X74392250Y-79367000D01*
X75491500Y-79367000D01*
X75491500Y-79347000D01*
X75745500Y-79347000D01*
X75745500Y-79367000D01*
X75765500Y-79367000D01*
X75765500Y-79621000D01*
X75745500Y-79621000D01*
X75745500Y-80595250D01*
X75904250Y-80754000D01*
X76494809Y-80754000D01*
X76728198Y-80657327D01*
X76869436Y-80516090D01*
X76904410Y-80570441D01*
X77116610Y-80715431D01*
X77368500Y-80766440D01*
X77503000Y-80766440D01*
X77503000Y-80914829D01*
X77182299Y-80781662D01*
X76810333Y-80781338D01*
X76466557Y-80923383D01*
X76203308Y-81186173D01*
X76094782Y-81447532D01*
X76094250Y-81447000D01*
X76041691Y-81447000D01*
X75808302Y-81543673D01*
X75629673Y-81722301D01*
X75533000Y-81955690D01*
X75533000Y-83046250D01*
X75691750Y-83205000D01*
X76170560Y-83205000D01*
X76170560Y-83459000D01*
X75691750Y-83459000D01*
X75533000Y-83617750D01*
X75533000Y-84443799D01*
X74642201Y-84443799D01*
X74528109Y-84466493D01*
X74465090Y-84368559D01*
X74396994Y-84322031D01*
X74539327Y-84179698D01*
X74636000Y-83946309D01*
X74636000Y-83355750D01*
X74477250Y-83197000D01*
X73503000Y-83197000D01*
X73503000Y-83217000D01*
X73249000Y-83217000D01*
X73249000Y-83197000D01*
X72274750Y-83197000D01*
X72116000Y-83355750D01*
X72116000Y-83946309D01*
X72212673Y-84179698D01*
X72344679Y-84311704D01*
X72292799Y-84290162D01*
X71920833Y-84289838D01*
X71577057Y-84431883D01*
X71313808Y-84694673D01*
X71171162Y-85038201D01*
X71170838Y-85410167D01*
X71312883Y-85753943D01*
X71575673Y-86017192D01*
X71919201Y-86159838D01*
X71947979Y-86159863D01*
X72103560Y-86263818D01*
X72103560Y-86320000D01*
X72147838Y-86555317D01*
X72286910Y-86771441D01*
X72499110Y-86916431D01*
X72751000Y-86967440D01*
X74001000Y-86967440D01*
X74236317Y-86923162D01*
X74452441Y-86784090D01*
X74597431Y-86571890D01*
X74648440Y-86320000D01*
X74648440Y-86263819D01*
X74856079Y-86125079D01*
X74967359Y-86013799D01*
X75520560Y-86013799D01*
X75520560Y-88082000D01*
X75564838Y-88317317D01*
X75601400Y-88374136D01*
X75601400Y-88762560D01*
X75186000Y-88762560D01*
X74950683Y-88806838D01*
X74734559Y-88945910D01*
X74589569Y-89158110D01*
X74538560Y-89410000D01*
X74538560Y-90660000D01*
X74582838Y-90895317D01*
X74721910Y-91111441D01*
X74934110Y-91256431D01*
X75186000Y-91307440D01*
X76686000Y-91307440D01*
X76921317Y-91263162D01*
X77137441Y-91124090D01*
X77185134Y-91054289D01*
X77221910Y-91111441D01*
X77434110Y-91256431D01*
X77686000Y-91307440D01*
X79186000Y-91307440D01*
X79421317Y-91263162D01*
X79637441Y-91124090D01*
X79782431Y-90911890D01*
X79833440Y-90660000D01*
X79833440Y-89410000D01*
X79789162Y-89174683D01*
X79650090Y-88958559D01*
X79437890Y-88813569D01*
X79186000Y-88762560D01*
X78374600Y-88762560D01*
X78374600Y-88729440D01*
X78458000Y-88729440D01*
X78693317Y-88685162D01*
X78909441Y-88546090D01*
X79054431Y-88333890D01*
X79105440Y-88082000D01*
X79105440Y-87640100D01*
X79850560Y-87640100D01*
X79850560Y-87653500D01*
X79894838Y-87888817D01*
X80033910Y-88104941D01*
X80246110Y-88249931D01*
X80498000Y-88300940D01*
X81748000Y-88300940D01*
X81983317Y-88256662D01*
X82199441Y-88117590D01*
X82344431Y-87905390D01*
X82395440Y-87653500D01*
X82395440Y-86153500D01*
X82351162Y-85918183D01*
X82212090Y-85702059D01*
X82142289Y-85654366D01*
X82199441Y-85617590D01*
X82344431Y-85405390D01*
X82395440Y-85153500D01*
X82395440Y-84400010D01*
X101807450Y-84400010D01*
X101807450Y-84640620D01*
X101904123Y-84874009D01*
X102082752Y-85052637D01*
X102316141Y-85149310D01*
X102556750Y-85149310D01*
X102715500Y-84990560D01*
X102715500Y-84241260D01*
X101966200Y-84241260D01*
X101807450Y-84400010D01*
X82395440Y-84400010D01*
X82395440Y-83653500D01*
X82351162Y-83418183D01*
X82212090Y-83202059D01*
X81999890Y-83057069D01*
X81748000Y-83006060D01*
X80498000Y-83006060D01*
X80262683Y-83050338D01*
X80046559Y-83189410D01*
X79901569Y-83401610D01*
X79877615Y-83519900D01*
X79867322Y-83519900D01*
X79811827Y-83464308D01*
X79468299Y-83321662D01*
X79105440Y-83321346D01*
X79105440Y-82082000D01*
X79073000Y-81909596D01*
X79073000Y-81240250D01*
X83344230Y-81240250D01*
X83344230Y-81480859D01*
X83440903Y-81714248D01*
X83619531Y-81892877D01*
X83852920Y-81989550D01*
X84093530Y-81989550D01*
X84252280Y-81830800D01*
X84252280Y-81081500D01*
X83502980Y-81081500D01*
X83344230Y-81240250D01*
X79073000Y-81240250D01*
X79073000Y-80727961D01*
X79103817Y-80722162D01*
X79319941Y-80583090D01*
X79464931Y-80370890D01*
X79515940Y-80119000D01*
X79515940Y-79650250D01*
X79605000Y-79650250D01*
X79605000Y-80090809D01*
X79701673Y-80324198D01*
X79880301Y-80502827D01*
X80113690Y-80599500D01*
X80329250Y-80599500D01*
X80488000Y-80440750D01*
X80488000Y-79491500D01*
X80742000Y-79491500D01*
X80742000Y-80440750D01*
X80900750Y-80599500D01*
X81116310Y-80599500D01*
X81349699Y-80502827D01*
X81504000Y-80348525D01*
X81658301Y-80502827D01*
X81891690Y-80599500D01*
X82107250Y-80599500D01*
X82266000Y-80440750D01*
X82266000Y-79491500D01*
X81541750Y-79491500D01*
X81504000Y-79529250D01*
X81466250Y-79491500D01*
X80742000Y-79491500D01*
X80488000Y-79491500D01*
X79763750Y-79491500D01*
X79605000Y-79650250D01*
X79515940Y-79650250D01*
X79515940Y-78869000D01*
X79471662Y-78633683D01*
X79332590Y-78417559D01*
X79120390Y-78272569D01*
X78868500Y-78221560D01*
X78812319Y-78221560D01*
X78673579Y-78013921D01*
X78265079Y-77605421D01*
X78010407Y-77435255D01*
X77710000Y-77375500D01*
X76622158Y-77375500D01*
X76607500Y-77360842D01*
X76607500Y-75595940D01*
X76697500Y-75595940D01*
X76801171Y-75576433D01*
X76897500Y-75595940D01*
X77347500Y-75595940D01*
X77451171Y-75576433D01*
X77547500Y-75595940D01*
X77997500Y-75595940D01*
X78101171Y-75576433D01*
X78197500Y-75595940D01*
X78335900Y-75595940D01*
X78335900Y-76745000D01*
X78391970Y-77026885D01*
X78551645Y-77265855D01*
X79271145Y-77985355D01*
X79510115Y-78145030D01*
X79611508Y-78165198D01*
X79636838Y-78299817D01*
X79703329Y-78403146D01*
X79701673Y-78404802D01*
X79605000Y-78638191D01*
X79605000Y-79078750D01*
X79763750Y-79237500D01*
X80488000Y-79237500D01*
X80488000Y-79217500D01*
X80742000Y-79217500D01*
X80742000Y-79237500D01*
X81466250Y-79237500D01*
X81504000Y-79199750D01*
X81541750Y-79237500D01*
X82266000Y-79237500D01*
X82266000Y-79217500D01*
X82520000Y-79217500D01*
X82520000Y-79237500D01*
X82540000Y-79237500D01*
X82540000Y-79491500D01*
X82520000Y-79491500D01*
X82520000Y-80440750D01*
X82678750Y-80599500D01*
X82894310Y-80599500D01*
X83127699Y-80502827D01*
X83306327Y-80324198D01*
X83403000Y-80090809D01*
X83403000Y-79704210D01*
X83686976Y-79988186D01*
X83619531Y-80016123D01*
X83440903Y-80194752D01*
X83344230Y-80428141D01*
X83344230Y-80668750D01*
X83502980Y-80827500D01*
X84252280Y-80827500D01*
X84252280Y-80807500D01*
X84506280Y-80807500D01*
X84506280Y-80827500D01*
X85255580Y-80827500D01*
X85341980Y-80741100D01*
X85440190Y-80741100D01*
X85514120Y-80855991D01*
X85659217Y-80955132D01*
X85526769Y-81040360D01*
X85399989Y-81225909D01*
X85255580Y-81081500D01*
X84506280Y-81081500D01*
X84506280Y-81830800D01*
X84665030Y-81989550D01*
X84905640Y-81989550D01*
X85139029Y-81892877D01*
X85317657Y-81714248D01*
X85330770Y-81682590D01*
X85330770Y-82304550D01*
X85345646Y-82383610D01*
X85251972Y-82609201D01*
X85251648Y-82981167D01*
X85393693Y-83324943D01*
X85656483Y-83588192D01*
X86000011Y-83730838D01*
X86371977Y-83731162D01*
X86715753Y-83589117D01*
X86979002Y-83326327D01*
X87121648Y-82982799D01*
X87121774Y-82838121D01*
X87229751Y-82768640D01*
X87374741Y-82556440D01*
X87423178Y-82317250D01*
X87479000Y-82317250D01*
X87479000Y-82757809D01*
X87575673Y-82991198D01*
X87754301Y-83169827D01*
X87987690Y-83266500D01*
X88203250Y-83266500D01*
X88362000Y-83107750D01*
X88362000Y-82158500D01*
X88616000Y-82158500D01*
X88616000Y-83107750D01*
X88774750Y-83266500D01*
X88990310Y-83266500D01*
X89223699Y-83169827D01*
X89402327Y-82991198D01*
X89499000Y-82757809D01*
X89499000Y-82317250D01*
X89638000Y-82317250D01*
X89638000Y-82757809D01*
X89734673Y-82991198D01*
X89913301Y-83169827D01*
X90146690Y-83266500D01*
X90362250Y-83266500D01*
X90521000Y-83107750D01*
X90521000Y-82158500D01*
X90775000Y-82158500D01*
X90775000Y-83107750D01*
X90933750Y-83266500D01*
X91149310Y-83266500D01*
X91382699Y-83169827D01*
X91561327Y-82991198D01*
X91658000Y-82757809D01*
X91658000Y-82317250D01*
X91499250Y-82158500D01*
X90775000Y-82158500D01*
X90521000Y-82158500D01*
X89796750Y-82158500D01*
X89638000Y-82317250D01*
X89499000Y-82317250D01*
X89340250Y-82158500D01*
X88616000Y-82158500D01*
X88362000Y-82158500D01*
X87637750Y-82158500D01*
X87479000Y-82317250D01*
X87423178Y-82317250D01*
X87425750Y-82304550D01*
X87425750Y-81504450D01*
X87381472Y-81269133D01*
X87242400Y-81053009D01*
X87097303Y-80953868D01*
X87229751Y-80868640D01*
X87230120Y-80868100D01*
X87492263Y-80868100D01*
X87510838Y-80966817D01*
X87577329Y-81070146D01*
X87575673Y-81071802D01*
X87479000Y-81305191D01*
X87479000Y-81745750D01*
X87637750Y-81904500D01*
X88362000Y-81904500D01*
X88362000Y-81884500D01*
X88616000Y-81884500D01*
X88616000Y-81904500D01*
X89340250Y-81904500D01*
X89499000Y-81745750D01*
X89499000Y-81305191D01*
X89402327Y-81071802D01*
X89400957Y-81070432D01*
X89460431Y-80983390D01*
X89483778Y-80868100D01*
X89651263Y-80868100D01*
X89669838Y-80966817D01*
X89736329Y-81070146D01*
X89734673Y-81071802D01*
X89638000Y-81305191D01*
X89638000Y-81745750D01*
X89796750Y-81904500D01*
X90521000Y-81904500D01*
X90521000Y-81884500D01*
X90775000Y-81884500D01*
X90775000Y-81904500D01*
X91499250Y-81904500D01*
X91658000Y-81745750D01*
X91658000Y-81305191D01*
X91561327Y-81071802D01*
X91559957Y-81070432D01*
X91619431Y-80983390D01*
X91670440Y-80731500D01*
X91670440Y-79531500D01*
X91626162Y-79296183D01*
X91487090Y-79080059D01*
X91274890Y-78935069D01*
X91023000Y-78884060D01*
X90273000Y-78884060D01*
X90037683Y-78928338D01*
X89821559Y-79067410D01*
X89676569Y-79279610D01*
X89653222Y-79394900D01*
X89485737Y-79394900D01*
X89467162Y-79296183D01*
X89328090Y-79080059D01*
X89115890Y-78935069D01*
X88864000Y-78884060D01*
X88121761Y-78884060D01*
X87939827Y-78701808D01*
X87596299Y-78559162D01*
X87224333Y-78558838D01*
X86880557Y-78700883D01*
X86623983Y-78957010D01*
X85978210Y-78957010D01*
X85742893Y-79001288D01*
X85526769Y-79140360D01*
X85439625Y-79267900D01*
X85050110Y-79267900D01*
X84653600Y-78871390D01*
X84653600Y-78410300D01*
X84597530Y-78128415D01*
X84437855Y-77889445D01*
X83492055Y-76943645D01*
X83415440Y-76892452D01*
X83415440Y-76864500D01*
X83371162Y-76629183D01*
X83232090Y-76413059D01*
X83196791Y-76388940D01*
X84392500Y-76388940D01*
X84627817Y-76344662D01*
X84731146Y-76278171D01*
X84732802Y-76279827D01*
X84966191Y-76376500D01*
X85406750Y-76376500D01*
X85565500Y-76217750D01*
X85565500Y-75493500D01*
X85819500Y-75493500D01*
X85819500Y-76217750D01*
X85978250Y-76376500D01*
X86418809Y-76376500D01*
X86652198Y-76279827D01*
X86796815Y-76135211D01*
X86933883Y-76466943D01*
X87196673Y-76730192D01*
X87540201Y-76872838D01*
X87912167Y-76873162D01*
X88255943Y-76731117D01*
X88443620Y-76543767D01*
X88668342Y-76543963D01*
X89012118Y-76401918D01*
X89062560Y-76351564D01*
X89062560Y-76515000D01*
X89106838Y-76750317D01*
X89245910Y-76966441D01*
X89458110Y-77111431D01*
X89710000Y-77162440D01*
X90910000Y-77162440D01*
X91145317Y-77118162D01*
X91361441Y-76979090D01*
X91409134Y-76909289D01*
X91445910Y-76966441D01*
X91658110Y-77111431D01*
X91910000Y-77162440D01*
X93110000Y-77162440D01*
X93345317Y-77118162D01*
X93561441Y-76979090D01*
X93687338Y-76794834D01*
X93710407Y-76790245D01*
X93824348Y-76714113D01*
X93881167Y-76714162D01*
X94224943Y-76572117D01*
X94488192Y-76309327D01*
X94563325Y-76128388D01*
X94779201Y-76218028D01*
X95132779Y-76218336D01*
X95060863Y-76290252D01*
X94964190Y-76523641D01*
X94964190Y-76764250D01*
X95122940Y-76923000D01*
X95872240Y-76923000D01*
X95872240Y-76173700D01*
X95713490Y-76014950D01*
X95556407Y-76014950D01*
X95578163Y-75993232D01*
X95599190Y-75997490D01*
X96399290Y-75997490D01*
X96634607Y-75953212D01*
X96850731Y-75814140D01*
X96995721Y-75601940D01*
X97046730Y-75350050D01*
X97046730Y-74715745D01*
X97134080Y-74851491D01*
X97346280Y-74996481D01*
X97598170Y-75047490D01*
X98398270Y-75047490D01*
X98633587Y-75003212D01*
X98849711Y-74864140D01*
X98936855Y-74736600D01*
X99695639Y-74736600D01*
X99480115Y-74779470D01*
X99241145Y-74939145D01*
X99080645Y-75099645D01*
X98920970Y-75338615D01*
X98864900Y-75620500D01*
X98864900Y-76694860D01*
X98630331Y-76929429D01*
X98553117Y-76742557D01*
X98290327Y-76479308D01*
X97946799Y-76336662D01*
X97574833Y-76336338D01*
X97231057Y-76478383D01*
X97034290Y-76674807D01*
X97034290Y-76523641D01*
X96937617Y-76290252D01*
X96758989Y-76111623D01*
X96525600Y-76014950D01*
X96284990Y-76014950D01*
X96126240Y-76173700D01*
X96126240Y-76923000D01*
X96146240Y-76923000D01*
X96146240Y-77177000D01*
X96126240Y-77177000D01*
X96126240Y-77197000D01*
X95872240Y-77197000D01*
X95872240Y-77177000D01*
X95122940Y-77177000D01*
X94964190Y-77335750D01*
X94964190Y-77576359D01*
X95060863Y-77809748D01*
X95239491Y-77988377D01*
X95275842Y-78003434D01*
X95147749Y-78085860D01*
X95061350Y-78212310D01*
X94998784Y-78224755D01*
X94878859Y-78304886D01*
X94824023Y-78304838D01*
X94480247Y-78446883D01*
X94216998Y-78709673D01*
X94074352Y-79053201D01*
X94074028Y-79425167D01*
X94216073Y-79768943D01*
X94478863Y-80032192D01*
X94822391Y-80174838D01*
X95175968Y-80175146D01*
X95060863Y-80290252D01*
X94964190Y-80523641D01*
X94964190Y-80764250D01*
X95122940Y-80923000D01*
X95872240Y-80923000D01*
X95872240Y-80173700D01*
X95713490Y-80014950D01*
X95556332Y-80014950D01*
X95578100Y-79993219D01*
X95599190Y-79997490D01*
X96399290Y-79997490D01*
X96634607Y-79953212D01*
X96850731Y-79814140D01*
X96995721Y-79601940D01*
X97046730Y-79350050D01*
X97046730Y-78715745D01*
X97134080Y-78851491D01*
X97346280Y-78996481D01*
X97598170Y-79047490D01*
X98398270Y-79047490D01*
X98633587Y-79003212D01*
X98849711Y-78864140D01*
X98994701Y-78651940D01*
X99005429Y-78598962D01*
X99122325Y-78520855D01*
X99753900Y-77889280D01*
X99753900Y-79805860D01*
X98693685Y-80866075D01*
X98616617Y-80679557D01*
X98353827Y-80416308D01*
X98010299Y-80273662D01*
X97638333Y-80273338D01*
X97294557Y-80415383D01*
X97034290Y-80675196D01*
X97034290Y-80523641D01*
X96937617Y-80290252D01*
X96758989Y-80111623D01*
X96525600Y-80014950D01*
X96284990Y-80014950D01*
X96126240Y-80173700D01*
X96126240Y-80923000D01*
X96146240Y-80923000D01*
X96146240Y-81177000D01*
X96126240Y-81177000D01*
X96126240Y-81197000D01*
X95872240Y-81197000D01*
X95872240Y-81177000D01*
X95122940Y-81177000D01*
X94964190Y-81335750D01*
X94964190Y-81576359D01*
X95060863Y-81809748D01*
X95239491Y-81988377D01*
X95275842Y-82003434D01*
X95147749Y-82085860D01*
X95061350Y-82212310D01*
X94998783Y-82224755D01*
X94878111Y-82305386D01*
X94823523Y-82305338D01*
X94479747Y-82447383D01*
X94216498Y-82710173D01*
X94073852Y-83053701D01*
X94073528Y-83425667D01*
X94215573Y-83769443D01*
X94478363Y-84032692D01*
X94821891Y-84175338D01*
X95193857Y-84175662D01*
X95537633Y-84033617D01*
X95578101Y-83993219D01*
X95599190Y-83997490D01*
X96399290Y-83997490D01*
X96634607Y-83953212D01*
X96850731Y-83814140D01*
X96995721Y-83601940D01*
X96998564Y-83587900D01*
X101807450Y-83587900D01*
X101807450Y-83828510D01*
X101966200Y-83987260D01*
X102715500Y-83987260D01*
X102715500Y-83237960D01*
X102556750Y-83079210D01*
X102316141Y-83079210D01*
X102082752Y-83175883D01*
X101904123Y-83354511D01*
X101807450Y-83587900D01*
X96998564Y-83587900D01*
X97046730Y-83350050D01*
X97046730Y-82715745D01*
X97134080Y-82851491D01*
X97346280Y-82996481D01*
X97598170Y-83047490D01*
X98398270Y-83047490D01*
X98633587Y-83003212D01*
X98849711Y-82864140D01*
X98994701Y-82651940D01*
X99005429Y-82598962D01*
X99122325Y-82520855D01*
X101011355Y-80631825D01*
X101028071Y-80606808D01*
X101171030Y-80392855D01*
X101227100Y-80110970D01*
X101227100Y-78285750D01*
X101451400Y-78285750D01*
X101451400Y-78989909D01*
X101548073Y-79223298D01*
X101726701Y-79401927D01*
X101960090Y-79498600D01*
X102664250Y-79498600D01*
X102823000Y-79339850D01*
X102823000Y-78127000D01*
X101610150Y-78127000D01*
X101451400Y-78285750D01*
X101227100Y-78285750D01*
X101227100Y-77576610D01*
X101367110Y-77436600D01*
X101451400Y-77436600D01*
X101451400Y-77714250D01*
X101610150Y-77873000D01*
X102823000Y-77873000D01*
X102823000Y-77853000D01*
X103077000Y-77853000D01*
X103077000Y-77873000D01*
X103097000Y-77873000D01*
X103097000Y-78127000D01*
X103077000Y-78127000D01*
X103077000Y-79339850D01*
X103235750Y-79498600D01*
X103939910Y-79498600D01*
X104173299Y-79401927D01*
X104351927Y-79223298D01*
X104416263Y-79067977D01*
X104430330Y-79089029D01*
X104753400Y-79304898D01*
X104753400Y-79900400D01*
X104667530Y-79900400D01*
X104385645Y-79956470D01*
X104146675Y-80116145D01*
X103271645Y-80991175D01*
X103263302Y-81003662D01*
X103153799Y-80958192D01*
X102781833Y-80957868D01*
X102438057Y-81099913D01*
X102174808Y-81362703D01*
X102032162Y-81706231D01*
X102031838Y-82078197D01*
X102173883Y-82421973D01*
X102436673Y-82685222D01*
X102780201Y-82827868D01*
X102839011Y-82827919D01*
X102928360Y-82966771D01*
X103113909Y-83093551D01*
X102969500Y-83237960D01*
X102969500Y-83987260D01*
X102989500Y-83987260D01*
X102989500Y-84241260D01*
X102969500Y-84241260D01*
X102969500Y-84990560D01*
X103128250Y-85149310D01*
X103368859Y-85149310D01*
X103602248Y-85052637D01*
X103780877Y-84874009D01*
X103795934Y-84837658D01*
X103878360Y-84965751D01*
X104090560Y-85110741D01*
X104342450Y-85161750D01*
X105142550Y-85161750D01*
X105163665Y-85157777D01*
X105230673Y-85224902D01*
X105574201Y-85367548D01*
X105946167Y-85367872D01*
X106289943Y-85225827D01*
X106553192Y-84963037D01*
X106695838Y-84619509D01*
X106696162Y-84247543D01*
X106554117Y-83903767D01*
X106291327Y-83640518D01*
X105947799Y-83497872D01*
X105905819Y-83497835D01*
X105742957Y-83389015D01*
X105679792Y-83376451D01*
X105606640Y-83262769D01*
X105394440Y-83117779D01*
X105142550Y-83066770D01*
X104508245Y-83066770D01*
X104643991Y-82979420D01*
X104788981Y-82767220D01*
X104839990Y-82515330D01*
X104839990Y-81715230D01*
X104806895Y-81539345D01*
X104972640Y-81373600D01*
X105062500Y-81373600D01*
X105344385Y-81317530D01*
X105583355Y-81157855D01*
X106010855Y-80730355D01*
X106170530Y-80491385D01*
X106226600Y-80209500D01*
X106226600Y-79304898D01*
X106549670Y-79089029D01*
X106874526Y-78602848D01*
X106988600Y-78029359D01*
X106988600Y-77970641D01*
X106874526Y-77397152D01*
X106549670Y-76910971D01*
X106278828Y-76730000D01*
X106549670Y-76549029D01*
X106874526Y-76062848D01*
X106988600Y-75489359D01*
X106988600Y-75430641D01*
X106874526Y-74857152D01*
X106549670Y-74370971D01*
X106278828Y-74190000D01*
X106549670Y-74009029D01*
X106874526Y-73522848D01*
X106988600Y-72949359D01*
X106988600Y-72890641D01*
X106874526Y-72317152D01*
X106549670Y-71830971D01*
X106278828Y-71650000D01*
X106549670Y-71469029D01*
X106874526Y-70982848D01*
X106988600Y-70409359D01*
X106988600Y-70350641D01*
X106874526Y-69777152D01*
X106549670Y-69290971D01*
X106278828Y-69110000D01*
X106549670Y-68929029D01*
X106874526Y-68442848D01*
X106988600Y-67869359D01*
X106988600Y-67810641D01*
X106874526Y-67237152D01*
X106549670Y-66750971D01*
X106063489Y-66426115D01*
X105490000Y-66312041D01*
X104916511Y-66426115D01*
X104430330Y-66750971D01*
X104220000Y-67065752D01*
X104009670Y-66750971D01*
X103686600Y-66535102D01*
X103686600Y-63856000D01*
X103630530Y-63574115D01*
X103470855Y-63335145D01*
X102751100Y-62615390D01*
X102751100Y-62507290D01*
X102865991Y-62433360D01*
X103010981Y-62221160D01*
X103061990Y-61969270D01*
X103061990Y-61169170D01*
X103017712Y-60933853D01*
X102878640Y-60717729D01*
X102693091Y-60590949D01*
X102837500Y-60446540D01*
X102837500Y-59697240D01*
X103091500Y-59697240D01*
X103091500Y-60446540D01*
X103250250Y-60605290D01*
X103490859Y-60605290D01*
X103724248Y-60508617D01*
X103902877Y-60329989D01*
X103999550Y-60096600D01*
X103999550Y-59855990D01*
X103840800Y-59697240D01*
X103091500Y-59697240D01*
X102837500Y-59697240D01*
X102817500Y-59697240D01*
X102817500Y-59443240D01*
X102837500Y-59443240D01*
X102837500Y-58693940D01*
X103091500Y-58693940D01*
X103091500Y-59443240D01*
X103840800Y-59443240D01*
X103999550Y-59284490D01*
X103999550Y-59043880D01*
X103902877Y-58810491D01*
X103724248Y-58631863D01*
X103490859Y-58535190D01*
X103250250Y-58535190D01*
X103091500Y-58693940D01*
X102837500Y-58693940D01*
X102678750Y-58535190D01*
X102438141Y-58535190D01*
X102204752Y-58631863D01*
X102026123Y-58810491D01*
X102011066Y-58846842D01*
X101928640Y-58718749D01*
X101802190Y-58632350D01*
X101789745Y-58569784D01*
X101619579Y-58315111D01*
X101351889Y-58047421D01*
X101259206Y-57985492D01*
X101084327Y-57810308D01*
X100740799Y-57667662D01*
X100368833Y-57667338D01*
X100025057Y-57809383D01*
X99761808Y-58072173D01*
X99619162Y-58415701D01*
X99618838Y-58787667D01*
X99760883Y-59131443D01*
X100017010Y-59388017D01*
X100017010Y-59970290D01*
X100061288Y-60205607D01*
X100200360Y-60421731D01*
X100412560Y-60566721D01*
X100490200Y-60582444D01*
X100396808Y-60675673D01*
X100254162Y-61019201D01*
X100253838Y-61391167D01*
X100296410Y-61494200D01*
X100281355Y-61479145D01*
X100042385Y-61319470D01*
X99760500Y-61263400D01*
X99139561Y-61263400D01*
X99139662Y-61147833D01*
X98997617Y-60804057D01*
X98734827Y-60540808D01*
X98391299Y-60398162D01*
X98019333Y-60397838D01*
X97675557Y-60539883D01*
X97412308Y-60802673D01*
X97320346Y-61024140D01*
X97146729Y-61135860D01*
X97019949Y-61321409D01*
X96875540Y-61177000D01*
X96126240Y-61177000D01*
X96126240Y-61197000D01*
X95872240Y-61197000D01*
X95872240Y-61177000D01*
X95122940Y-61177000D01*
X94964190Y-61335750D01*
X94964190Y-61576359D01*
X95060863Y-61809748D01*
X95239491Y-61988377D01*
X95275842Y-62003434D01*
X95147749Y-62085860D01*
X95061350Y-62212310D01*
X94998784Y-62224755D01*
X94814248Y-62348057D01*
X94780833Y-62348028D01*
X94437057Y-62490073D01*
X94173808Y-62752863D01*
X94031162Y-63096391D01*
X94030838Y-63468357D01*
X94172883Y-63812133D01*
X94435673Y-64075382D01*
X94779201Y-64218028D01*
X95132779Y-64218336D01*
X95060863Y-64290252D01*
X94964190Y-64523641D01*
X94964190Y-64764250D01*
X95122940Y-64923000D01*
X95872240Y-64923000D01*
X95872240Y-64173700D01*
X95713490Y-64014950D01*
X95556407Y-64014950D01*
X95578163Y-63993232D01*
X95599190Y-63997490D01*
X96399290Y-63997490D01*
X96634607Y-63953212D01*
X96850731Y-63814140D01*
X96995721Y-63601940D01*
X97046730Y-63350050D01*
X97046730Y-62715745D01*
X97134080Y-62851491D01*
X97346280Y-62996481D01*
X97598170Y-63047490D01*
X98398270Y-63047490D01*
X98633587Y-63003212D01*
X98849711Y-62864140D01*
X98936855Y-62736600D01*
X99455390Y-62736600D01*
X100833400Y-64114610D01*
X100833400Y-65441029D01*
X100651475Y-65319470D01*
X100369590Y-65263400D01*
X98936290Y-65263400D01*
X98862360Y-65148509D01*
X98822144Y-65121031D01*
X98822162Y-65100363D01*
X98680117Y-64756587D01*
X98417327Y-64493338D01*
X98073799Y-64350692D01*
X97701833Y-64350368D01*
X97358057Y-64492413D01*
X97094808Y-64755203D01*
X97025133Y-64922998D01*
X96875542Y-64922998D01*
X97034290Y-64764250D01*
X97034290Y-64523641D01*
X96937617Y-64290252D01*
X96758989Y-64111623D01*
X96525600Y-64014950D01*
X96284990Y-64014950D01*
X96126240Y-64173700D01*
X96126240Y-64923000D01*
X96146240Y-64923000D01*
X96146240Y-65177000D01*
X96126240Y-65177000D01*
X96126240Y-65197000D01*
X95872240Y-65197000D01*
X95872240Y-65177000D01*
X95122940Y-65177000D01*
X94964190Y-65335750D01*
X94964190Y-65576359D01*
X95060863Y-65809748D01*
X95239491Y-65988377D01*
X95275842Y-66003434D01*
X95147749Y-66085860D01*
X95061350Y-66212310D01*
X94998784Y-66224755D01*
X94881103Y-66303386D01*
X94825523Y-66303338D01*
X94481747Y-66445383D01*
X94218498Y-66708173D01*
X94075852Y-67051701D01*
X94075528Y-67423667D01*
X94217573Y-67767443D01*
X94480363Y-68030692D01*
X94823891Y-68173338D01*
X95177468Y-68173646D01*
X95060863Y-68290252D01*
X94964190Y-68523641D01*
X94964190Y-68764250D01*
X95122940Y-68923000D01*
X95872240Y-68923000D01*
X95872240Y-68173700D01*
X95713490Y-68014950D01*
X95556329Y-68014950D01*
X95578098Y-67993219D01*
X95599190Y-67997490D01*
X96399290Y-67997490D01*
X96634607Y-67953212D01*
X96850731Y-67814140D01*
X96995721Y-67601940D01*
X97046730Y-67350050D01*
X97046730Y-66715745D01*
X97134080Y-66851491D01*
X97346280Y-66996481D01*
X97598170Y-67047490D01*
X98398270Y-67047490D01*
X98633587Y-67003212D01*
X98849711Y-66864140D01*
X98936855Y-66736600D01*
X100064480Y-66736600D01*
X100426990Y-67099110D01*
X100426991Y-68803841D01*
X100483061Y-69085726D01*
X100575215Y-69223643D01*
X100300000Y-69168900D01*
X98875481Y-69168900D01*
X98862360Y-69148509D01*
X98807110Y-69110758D01*
X98807132Y-69085333D01*
X98665087Y-68741557D01*
X98402297Y-68478308D01*
X98058769Y-68335662D01*
X97686803Y-68335338D01*
X97343027Y-68477383D01*
X97079778Y-68740173D01*
X97003862Y-68922998D01*
X96875542Y-68922998D01*
X97034290Y-68764250D01*
X97034290Y-68523641D01*
X96937617Y-68290252D01*
X96758989Y-68111623D01*
X96525600Y-68014950D01*
X96284990Y-68014950D01*
X96126240Y-68173700D01*
X96126240Y-68923000D01*
X96146240Y-68923000D01*
X96146240Y-69177000D01*
X96126240Y-69177000D01*
X96126240Y-69197000D01*
X95872240Y-69197000D01*
X95872240Y-69177000D01*
X95122940Y-69177000D01*
X94964190Y-69335750D01*
X94964190Y-69576359D01*
X95060863Y-69809748D01*
X95239491Y-69988377D01*
X95275842Y-70003434D01*
X95147749Y-70085860D01*
X95088276Y-70172902D01*
X94827593Y-70224755D01*
X94804158Y-70240414D01*
X94717333Y-70240338D01*
X94373557Y-70382383D01*
X94110308Y-70645173D01*
X93967662Y-70988701D01*
X93967338Y-71360667D01*
X94109383Y-71704443D01*
X94372173Y-71967692D01*
X94715701Y-72110338D01*
X95087667Y-72110662D01*
X95431443Y-71968617D01*
X95435687Y-71964380D01*
X95599190Y-71997490D01*
X96399290Y-71997490D01*
X96634607Y-71953212D01*
X96850731Y-71814140D01*
X96995721Y-71601940D01*
X97046730Y-71350050D01*
X97046730Y-70715745D01*
X97134080Y-70851491D01*
X97346280Y-70996481D01*
X97598170Y-71047490D01*
X98398270Y-71047490D01*
X98633587Y-71003212D01*
X98849711Y-70864140D01*
X98994701Y-70651940D01*
X98996694Y-70642100D01*
X99994890Y-70642100D01*
X101536190Y-72183400D01*
X101159000Y-72183400D01*
X100877115Y-72239470D01*
X100683043Y-72369145D01*
X100638145Y-72399145D01*
X99773890Y-73263400D01*
X98936290Y-73263400D01*
X98871121Y-73162124D01*
X98871132Y-73149333D01*
X98729087Y-72805557D01*
X98466297Y-72542308D01*
X98122769Y-72399662D01*
X97750803Y-72399338D01*
X97407027Y-72541383D01*
X97143778Y-72804173D01*
X97001132Y-73147701D01*
X97000997Y-73302457D01*
X96875540Y-73177000D01*
X96126240Y-73177000D01*
X96126240Y-73197000D01*
X95872240Y-73197000D01*
X95872240Y-73177000D01*
X95122940Y-73177000D01*
X94964190Y-73335750D01*
X94964190Y-73576359D01*
X95060863Y-73809748D01*
X95239491Y-73988377D01*
X95275842Y-74003434D01*
X95147749Y-74085860D01*
X95061350Y-74212310D01*
X94998784Y-74224755D01*
X94814248Y-74348057D01*
X94780833Y-74348028D01*
X94437057Y-74490073D01*
X94173808Y-74752863D01*
X94098675Y-74933802D01*
X93882799Y-74844162D01*
X93510833Y-74843838D01*
X93295000Y-74933018D01*
X93295000Y-74233500D01*
X93235245Y-73933094D01*
X93065079Y-73678421D01*
X92639579Y-73252921D01*
X92431940Y-73114181D01*
X92431940Y-73083000D01*
X92387662Y-72847683D01*
X92248590Y-72631559D01*
X92090647Y-72523641D01*
X94964190Y-72523641D01*
X94964190Y-72764250D01*
X95122940Y-72923000D01*
X95872240Y-72923000D01*
X95872240Y-72173700D01*
X96126240Y-72173700D01*
X96126240Y-72923000D01*
X96875540Y-72923000D01*
X97034290Y-72764250D01*
X97034290Y-72523641D01*
X96937617Y-72290252D01*
X96758989Y-72111623D01*
X96525600Y-72014950D01*
X96284990Y-72014950D01*
X96126240Y-72173700D01*
X95872240Y-72173700D01*
X95713490Y-72014950D01*
X95472880Y-72014950D01*
X95239491Y-72111623D01*
X95060863Y-72290252D01*
X94964190Y-72523641D01*
X92090647Y-72523641D01*
X92036390Y-72486569D01*
X91784500Y-72435560D01*
X91334500Y-72435560D01*
X91230829Y-72455067D01*
X91134500Y-72435560D01*
X90987561Y-72435560D01*
X91011338Y-72378299D01*
X91011662Y-72006333D01*
X90869617Y-71662557D01*
X90606827Y-71399308D01*
X90263299Y-71256662D01*
X89891333Y-71256338D01*
X89547557Y-71398383D01*
X89359218Y-71586394D01*
X89065833Y-71586138D01*
X88722057Y-71728183D01*
X88458808Y-71990973D01*
X88316162Y-72334501D01*
X88315838Y-72706467D01*
X88457883Y-73050243D01*
X88720673Y-73313492D01*
X88737060Y-73320297D01*
X88737060Y-74313184D01*
X88722057Y-74319383D01*
X88458808Y-74582173D01*
X88420783Y-74673746D01*
X88298008Y-74673639D01*
X87954232Y-74815684D01*
X87766555Y-75003034D01*
X87541833Y-75002838D01*
X87198057Y-75144883D01*
X86934808Y-75407673D01*
X86860904Y-75585654D01*
X86768750Y-75493500D01*
X85819500Y-75493500D01*
X85565500Y-75493500D01*
X85545500Y-75493500D01*
X85545500Y-75239500D01*
X85565500Y-75239500D01*
X85565500Y-74515250D01*
X85819500Y-74515250D01*
X85819500Y-75239500D01*
X86768750Y-75239500D01*
X86927500Y-75080750D01*
X86927500Y-74865190D01*
X86830827Y-74631801D01*
X86652198Y-74453173D01*
X86418809Y-74356500D01*
X85978250Y-74356500D01*
X85819500Y-74515250D01*
X85565500Y-74515250D01*
X85406750Y-74356500D01*
X84966191Y-74356500D01*
X84732802Y-74453173D01*
X84731432Y-74454543D01*
X84644390Y-74395069D01*
X84392500Y-74344060D01*
X83429608Y-74344060D01*
X83437481Y-74325100D01*
X86139500Y-74325100D01*
X86421385Y-74269030D01*
X86660355Y-74109355D01*
X86977855Y-73791855D01*
X87012033Y-73740704D01*
X87124090Y-73573000D01*
X87234002Y-73573000D01*
X87234002Y-73441252D01*
X87365750Y-73573000D01*
X87433310Y-73573000D01*
X87666699Y-73476327D01*
X87845327Y-73297698D01*
X87942000Y-73064309D01*
X87942000Y-72473750D01*
X87783250Y-72315000D01*
X87304440Y-72315000D01*
X87304440Y-72061000D01*
X87783250Y-72061000D01*
X87942000Y-71902250D01*
X87942000Y-71311691D01*
X87845327Y-71078302D01*
X87666699Y-70899673D01*
X87573526Y-70861079D01*
X87758441Y-70742090D01*
X87903431Y-70529890D01*
X87954440Y-70278000D01*
X87954440Y-69049448D01*
X88201692Y-68802627D01*
X88344338Y-68459099D01*
X88344662Y-68087133D01*
X88202617Y-67743357D01*
X87939827Y-67480108D01*
X87596299Y-67337462D01*
X87574600Y-67337443D01*
X87574600Y-65966440D01*
X88431000Y-65966440D01*
X88666317Y-65922162D01*
X88882441Y-65783090D01*
X88949053Y-65685600D01*
X89150560Y-65685600D01*
X89150560Y-65699000D01*
X89194838Y-65934317D01*
X89251024Y-66021632D01*
X89139398Y-66290455D01*
X89139131Y-66597316D01*
X89024801Y-66644673D01*
X88846173Y-66823302D01*
X88749500Y-67056691D01*
X88749500Y-67622250D01*
X88908250Y-67781000D01*
X89387060Y-67781000D01*
X89387060Y-68035000D01*
X88908250Y-68035000D01*
X88749500Y-68193750D01*
X88749500Y-68759309D01*
X88846173Y-68992698D01*
X89024801Y-69171327D01*
X89258190Y-69268000D01*
X89338250Y-69268000D01*
X89497000Y-69109250D01*
X89497000Y-68970359D01*
X89570410Y-69084441D01*
X89782610Y-69229431D01*
X89857308Y-69244558D01*
X89880750Y-69268000D01*
X89960810Y-69268000D01*
X89964835Y-69266333D01*
X90034500Y-69280440D01*
X90484500Y-69280440D01*
X90588171Y-69260933D01*
X90684500Y-69280440D01*
X91134500Y-69280440D01*
X91238171Y-69260933D01*
X91334500Y-69280440D01*
X91784500Y-69280440D01*
X92019817Y-69236162D01*
X92235941Y-69097090D01*
X92380931Y-68884890D01*
X92431940Y-68633000D01*
X92431940Y-67183000D01*
X92395435Y-66988992D01*
X92449138Y-66859661D01*
X92449462Y-66487695D01*
X92307417Y-66143919D01*
X92090878Y-65927001D01*
X92133000Y-65825309D01*
X92133000Y-65234750D01*
X91974250Y-65076000D01*
X91495440Y-65076000D01*
X91495440Y-64822000D01*
X91974250Y-64822000D01*
X92133000Y-64663250D01*
X92133000Y-64072691D01*
X92080521Y-63945995D01*
X92217838Y-63615299D01*
X92218162Y-63243333D01*
X92141590Y-63058013D01*
X92145440Y-63039000D01*
X92145440Y-61539000D01*
X92101162Y-61303683D01*
X91962090Y-61087559D01*
X91749890Y-60942569D01*
X91498000Y-60891560D01*
X91098000Y-60891560D01*
X90862683Y-60935838D01*
X90646559Y-61074910D01*
X90645610Y-61076299D01*
X90449890Y-60942569D01*
X90198000Y-60891560D01*
X89798000Y-60891560D01*
X89562683Y-60935838D01*
X89346559Y-61074910D01*
X89201569Y-61287110D01*
X89157648Y-61504000D01*
X88918539Y-61504000D01*
X88895090Y-61467559D01*
X88682890Y-61322569D01*
X88431000Y-61271560D01*
X87531000Y-61271560D01*
X87295683Y-61315838D01*
X87079559Y-61454910D01*
X86934569Y-61667110D01*
X86905532Y-61810500D01*
X86751578Y-61913369D01*
X86716333Y-61913338D01*
X86372557Y-62055383D01*
X86109308Y-62318173D01*
X85966662Y-62661701D01*
X85966338Y-63033667D01*
X86098547Y-63353637D01*
X85982308Y-63469673D01*
X85857019Y-63771400D01*
X74235254Y-63771400D01*
X74247338Y-63742299D01*
X74247662Y-63370333D01*
X74105617Y-63026557D01*
X73842827Y-62763308D01*
X73627940Y-62674079D01*
X73627940Y-62302578D01*
X73697201Y-62331338D01*
X74069167Y-62331662D01*
X74412943Y-62189617D01*
X74676192Y-61926827D01*
X74782041Y-61671917D01*
X74863696Y-61617356D01*
X75064612Y-61416440D01*
X75198000Y-61416440D01*
X75433317Y-61372162D01*
X75649441Y-61233090D01*
X75794431Y-61020890D01*
X75845440Y-60769000D01*
X75845440Y-60648764D01*
X75957173Y-60760692D01*
X76300701Y-60903338D01*
X76672667Y-60903662D01*
X76970803Y-60780475D01*
X77180500Y-60822940D01*
X78080500Y-60822940D01*
X78315817Y-60778662D01*
X78335591Y-60765937D01*
X78283162Y-60892201D01*
X78282838Y-61264167D01*
X78424883Y-61607943D01*
X78687673Y-61871192D01*
X79031201Y-62013838D01*
X79403167Y-62014162D01*
X79618956Y-61925000D01*
X79627370Y-61925000D01*
X79636838Y-61975317D01*
X79775910Y-62191441D01*
X79988110Y-62336431D01*
X80240000Y-62387440D01*
X80990000Y-62387440D01*
X81225317Y-62343162D01*
X81441441Y-62204090D01*
X81586431Y-61991890D01*
X81599977Y-61925000D01*
X81887500Y-61925000D01*
X82187907Y-61865245D01*
X82442579Y-61695079D01*
X82848218Y-61289440D01*
X83240500Y-61289440D01*
X83475817Y-61245162D01*
X83691941Y-61106090D01*
X83718995Y-61066495D01*
X83840907Y-61042245D01*
X83870670Y-61022358D01*
X83916410Y-61093441D01*
X84128610Y-61238431D01*
X84380500Y-61289440D01*
X85440500Y-61289440D01*
X85675817Y-61245162D01*
X85891941Y-61106090D01*
X86036931Y-60893890D01*
X86087940Y-60642000D01*
X86087940Y-60523641D01*
X94964190Y-60523641D01*
X94964190Y-60764250D01*
X95122940Y-60923000D01*
X95872240Y-60923000D01*
X95872240Y-60173700D01*
X96126240Y-60173700D01*
X96126240Y-60923000D01*
X96875540Y-60923000D01*
X97034290Y-60764250D01*
X97034290Y-60523641D01*
X96937617Y-60290252D01*
X96758989Y-60111623D01*
X96525600Y-60014950D01*
X96284990Y-60014950D01*
X96126240Y-60173700D01*
X95872240Y-60173700D01*
X95713490Y-60014950D01*
X95472880Y-60014950D01*
X95239491Y-60111623D01*
X95060863Y-60290252D01*
X94964190Y-60523641D01*
X86087940Y-60523641D01*
X86087940Y-59992000D01*
X86043662Y-59756683D01*
X85904590Y-59540559D01*
X85692390Y-59395569D01*
X85555380Y-59367824D01*
X85675817Y-59345162D01*
X85891941Y-59206090D01*
X85898152Y-59197000D01*
X86130743Y-59197000D01*
X86157410Y-59238441D01*
X86369610Y-59383431D01*
X86621500Y-59434440D01*
X87821500Y-59434440D01*
X88056817Y-59390162D01*
X88160146Y-59323671D01*
X88161802Y-59325327D01*
X88395191Y-59422000D01*
X88835750Y-59422000D01*
X88994500Y-59263250D01*
X88994500Y-58539000D01*
X89248500Y-58539000D01*
X89248500Y-59263250D01*
X89407250Y-59422000D01*
X89847809Y-59422000D01*
X90081198Y-59325327D01*
X90259827Y-59146699D01*
X90356500Y-58913310D01*
X90356500Y-58697750D01*
X90197750Y-58539000D01*
X89248500Y-58539000D01*
X88994500Y-58539000D01*
X88974500Y-58539000D01*
X88974500Y-58285000D01*
X88994500Y-58285000D01*
X88994500Y-57560750D01*
X89248500Y-57560750D01*
X89248500Y-58285000D01*
X90197750Y-58285000D01*
X90356500Y-58126250D01*
X90356500Y-57910690D01*
X90259827Y-57677301D01*
X90081198Y-57498673D01*
X89847809Y-57402000D01*
X89407250Y-57402000D01*
X89248500Y-57560750D01*
X88994500Y-57560750D01*
X88835750Y-57402000D01*
X88395191Y-57402000D01*
X88161802Y-57498673D01*
X88160432Y-57500043D01*
X88073390Y-57440569D01*
X88006140Y-57426950D01*
X88006162Y-57401333D01*
X87864117Y-57057557D01*
X87601327Y-56794308D01*
X87257799Y-56651662D01*
X86885833Y-56651338D01*
X86542057Y-56793383D01*
X86278808Y-57056173D01*
X86136162Y-57399701D01*
X86135968Y-57622804D01*
X86133101Y-57627000D01*
X85884746Y-57627000D01*
X85692390Y-57495569D01*
X85440500Y-57444560D01*
X84380500Y-57444560D01*
X84145183Y-57488838D01*
X83929059Y-57627910D01*
X83871478Y-57712182D01*
X83840907Y-57691755D01*
X83722360Y-57668174D01*
X83704590Y-57640559D01*
X83492390Y-57495569D01*
X83240500Y-57444560D01*
X82180500Y-57444560D01*
X81945183Y-57488838D01*
X81729059Y-57627910D01*
X81584069Y-57840110D01*
X81533060Y-58092000D01*
X81533060Y-58291728D01*
X81528327Y-58280302D01*
X81349699Y-58101673D01*
X81116310Y-58005000D01*
X80900750Y-58005000D01*
X80742000Y-58163750D01*
X80742000Y-59113000D01*
X81466250Y-59113000D01*
X81545500Y-59033750D01*
X81545500Y-59081250D01*
X81704250Y-59240000D01*
X81784551Y-59240000D01*
X81928610Y-59338431D01*
X82065620Y-59366176D01*
X81945183Y-59388838D01*
X81781757Y-59494000D01*
X81704250Y-59494000D01*
X81625000Y-59573250D01*
X81625000Y-59525750D01*
X81466250Y-59367000D01*
X80742000Y-59367000D01*
X80742000Y-59387000D01*
X80488000Y-59387000D01*
X80488000Y-59367000D01*
X79763750Y-59367000D01*
X79605000Y-59525750D01*
X79605000Y-59966309D01*
X79701673Y-60199698D01*
X79703043Y-60201068D01*
X79667415Y-60253210D01*
X79404799Y-60144162D01*
X79032833Y-60143838D01*
X78707096Y-60278429D01*
X78727940Y-60175500D01*
X78727940Y-58975500D01*
X78683662Y-58740183D01*
X78544590Y-58524059D01*
X78529416Y-58513691D01*
X79605000Y-58513691D01*
X79605000Y-58954250D01*
X79763750Y-59113000D01*
X80488000Y-59113000D01*
X80488000Y-58163750D01*
X80329250Y-58005000D01*
X80113690Y-58005000D01*
X79880301Y-58101673D01*
X79701673Y-58280302D01*
X79605000Y-58513691D01*
X78529416Y-58513691D01*
X78474789Y-58476366D01*
X78531941Y-58439590D01*
X78676931Y-58227390D01*
X78727940Y-57975500D01*
X78727940Y-56775500D01*
X78683662Y-56540183D01*
X78544590Y-56324059D01*
X78332390Y-56179069D01*
X78080500Y-56128060D01*
X77180500Y-56128060D01*
X76945183Y-56172338D01*
X76729059Y-56311410D01*
X76584069Y-56523610D01*
X76554940Y-56667456D01*
X76416615Y-56694970D01*
X76296094Y-56775500D01*
X76177645Y-56854645D01*
X75649145Y-57383145D01*
X75489470Y-57622115D01*
X75433400Y-57904000D01*
X75433400Y-58074090D01*
X75296676Y-58210814D01*
X75185300Y-58188260D01*
X74335300Y-58188260D01*
X74224579Y-58209094D01*
X74121700Y-58188260D01*
X73271700Y-58188260D01*
X73158980Y-58209470D01*
X71804155Y-56854645D01*
X71605907Y-56722180D01*
X71571662Y-56540183D01*
X71432590Y-56324059D01*
X71220390Y-56179069D01*
X70968500Y-56128060D01*
X70068500Y-56128060D01*
X69833183Y-56172338D01*
X69617059Y-56311410D01*
X69472069Y-56523610D01*
X69421060Y-56775500D01*
X69421060Y-57975500D01*
X69465338Y-58210817D01*
X69604410Y-58426941D01*
X69674211Y-58474634D01*
X69617059Y-58511410D01*
X69472069Y-58723610D01*
X69421060Y-58975500D01*
X69421060Y-60175500D01*
X69465338Y-60410817D01*
X69604410Y-60626941D01*
X69816610Y-60771931D01*
X70068500Y-60822940D01*
X70968500Y-60822940D01*
X71203817Y-60778662D01*
X71245322Y-60751954D01*
X71378701Y-60807338D01*
X71396894Y-60807354D01*
X71361662Y-60892201D01*
X71361338Y-61264167D01*
X71503383Y-61607943D01*
X71523011Y-61627605D01*
X71329059Y-61752410D01*
X71281366Y-61822211D01*
X71244590Y-61765059D01*
X71032390Y-61620069D01*
X70780500Y-61569060D01*
X69580500Y-61569060D01*
X69345183Y-61613338D01*
X69129059Y-61752410D01*
X69007785Y-61929900D01*
X68907401Y-61929900D01*
X68849590Y-61840059D01*
X68637390Y-61695069D01*
X68522100Y-61671722D01*
X68522100Y-61567737D01*
X68620817Y-61549162D01*
X68836941Y-61410090D01*
X68981931Y-61197890D01*
X69032940Y-60946000D01*
X69032940Y-60196000D01*
X68988662Y-59960683D01*
X68849590Y-59744559D01*
X68637390Y-59599569D01*
X68385500Y-59548560D01*
X67185500Y-59548560D01*
X66950183Y-59592838D01*
X66846854Y-59659329D01*
X66845198Y-59657673D01*
X66611809Y-59561000D01*
X66171250Y-59561000D01*
X66012500Y-59719750D01*
X66012500Y-60444000D01*
X66032500Y-60444000D01*
X66032500Y-60698000D01*
X66012500Y-60698000D01*
X66012500Y-61422250D01*
X66171250Y-61581000D01*
X66491793Y-61581000D01*
X66460443Y-61656500D01*
X66171250Y-61656500D01*
X66012500Y-61815250D01*
X66012500Y-62539500D01*
X66032500Y-62539500D01*
X66032500Y-62793500D01*
X66012500Y-62793500D01*
X66012500Y-62813500D01*
X65758500Y-62813500D01*
X65758500Y-62793500D01*
X64936113Y-62793500D01*
X64672799Y-62684162D01*
X64300833Y-62683838D01*
X63957057Y-62825883D01*
X63693808Y-63088673D01*
X63551162Y-63432201D01*
X63550838Y-63804167D01*
X63558900Y-63823679D01*
X63558900Y-65626800D01*
X63614970Y-65908685D01*
X63774645Y-66147655D01*
X63866181Y-66239191D01*
X63699559Y-66346410D01*
X63554569Y-66558610D01*
X63503560Y-66810500D01*
X63503560Y-68110500D01*
X63545328Y-68332475D01*
X63412600Y-68305597D01*
X63412600Y-62165190D01*
X64650500Y-62165190D01*
X64650500Y-62380750D01*
X64809250Y-62539500D01*
X65758500Y-62539500D01*
X65758500Y-61815250D01*
X65599750Y-61656500D01*
X65159191Y-61656500D01*
X64925802Y-61753173D01*
X64747173Y-61931801D01*
X64650500Y-62165190D01*
X63412600Y-62165190D01*
X63412600Y-60856750D01*
X64650500Y-60856750D01*
X64650500Y-61072310D01*
X64747173Y-61305699D01*
X64925802Y-61484327D01*
X65159191Y-61581000D01*
X65599750Y-61581000D01*
X65758500Y-61422250D01*
X65758500Y-60698000D01*
X64809250Y-60698000D01*
X64650500Y-60856750D01*
X63412600Y-60856750D01*
X63412600Y-60069690D01*
X64650500Y-60069690D01*
X64650500Y-60285250D01*
X64809250Y-60444000D01*
X65758500Y-60444000D01*
X65758500Y-59719750D01*
X65599750Y-59561000D01*
X65159191Y-59561000D01*
X64925802Y-59657673D01*
X64747173Y-59836301D01*
X64650500Y-60069690D01*
X63412600Y-60069690D01*
X63412600Y-59253516D01*
X63486455Y-59238825D01*
X64022078Y-58880933D01*
X64379970Y-58345310D01*
X64505645Y-57713500D01*
X64379970Y-57081690D01*
X64022078Y-56546067D01*
X63486455Y-56188175D01*
X62854645Y-56062500D01*
X62789955Y-56062500D01*
X62158145Y-56188175D01*
X61855338Y-56390504D01*
X61762390Y-56246059D01*
X61550190Y-56101069D01*
X61298300Y-56050060D01*
X59266300Y-56050060D01*
X59030983Y-56094338D01*
X58814859Y-56233410D01*
X58669869Y-56445610D01*
X58618860Y-56697500D01*
X58618860Y-58729500D01*
X58663138Y-58964817D01*
X58802210Y-59180941D01*
X59014410Y-59325931D01*
X59266300Y-59376940D01*
X59710252Y-59376940D01*
X59761445Y-59453555D01*
X60891900Y-60584010D01*
X60891900Y-66557476D01*
X60612500Y-66501900D01*
X60596662Y-66501900D01*
X60490590Y-66337059D01*
X60278390Y-66192069D01*
X60026500Y-66141060D01*
X58826500Y-66141060D01*
X58690049Y-66166735D01*
X58690162Y-66037333D01*
X58548117Y-65693557D01*
X58285327Y-65430308D01*
X57941799Y-65287662D01*
X57569833Y-65287338D01*
X57226057Y-65429383D01*
X56962808Y-65692173D01*
X56881069Y-65889021D01*
X56705645Y-66064445D01*
X56654452Y-66141060D01*
X56626500Y-66141060D01*
X56391183Y-66185338D01*
X56175059Y-66324410D01*
X56076436Y-66468750D01*
X55957590Y-66284059D01*
X55745390Y-66139069D01*
X55493500Y-66088060D01*
X55428500Y-66088060D01*
X55428500Y-65468158D01*
X56328879Y-64567779D01*
X56499045Y-64313106D01*
X56529114Y-64161941D01*
X56624021Y-64100870D01*
X56709416Y-63975890D01*
X56772987Y-63963245D01*
X57027659Y-63793079D01*
X57548079Y-63272659D01*
X57718245Y-63017987D01*
X57767594Y-62769894D01*
X57785192Y-62752327D01*
X57927838Y-62408799D01*
X57928162Y-62036833D01*
X57786117Y-61693057D01*
X57523327Y-61429808D01*
X57179799Y-61287162D01*
X56807833Y-61286838D01*
X56464057Y-61428883D01*
X56200808Y-61691673D01*
X56058162Y-62035201D01*
X56058026Y-62191780D01*
X55375020Y-62191780D01*
X55139703Y-62236058D01*
X55024507Y-62310185D01*
X54925870Y-62242789D01*
X54673980Y-62191780D01*
X53876420Y-62191780D01*
X53641103Y-62236058D01*
X53424979Y-62375130D01*
X53338702Y-62501400D01*
X52942932Y-62501400D01*
X52890590Y-62420059D01*
X52678390Y-62275069D01*
X52426500Y-62224060D01*
X52077988Y-62224060D01*
X53169515Y-61773050D01*
X54249259Y-60695189D01*
X54834333Y-59286175D01*
X54835664Y-57760518D01*
X54253050Y-56350485D01*
X53875225Y-55972000D01*
X105274203Y-55972000D01*
X104900741Y-56344811D01*
X104900741Y-56344811D01*
G37*
X104900741Y-56344811D02*
X104315667Y-57753825D01*
X104314336Y-59279482D01*
X104896950Y-60689515D01*
X105974811Y-61769259D01*
X107383825Y-62354333D01*
X108909482Y-62355664D01*
X110319515Y-61773050D01*
X110868000Y-61225522D01*
X110868000Y-86294500D01*
X110325189Y-85750741D01*
X108916175Y-85165667D01*
X107390518Y-85164336D01*
X105980485Y-85746950D01*
X104900741Y-86824811D01*
X104315667Y-88233825D01*
X104314336Y-89759482D01*
X104896950Y-91169515D01*
X105312709Y-91586000D01*
X84132567Y-91586000D01*
X84391692Y-91327327D01*
X84534338Y-90983799D01*
X84534408Y-90903802D01*
X85307960Y-90130250D01*
X88018500Y-90130250D01*
X88018500Y-90345810D01*
X88115173Y-90579199D01*
X88293802Y-90757827D01*
X88527191Y-90854500D01*
X88967750Y-90854500D01*
X89126500Y-90695750D01*
X89126500Y-89971500D01*
X88177250Y-89971500D01*
X88018500Y-90130250D01*
X85307960Y-90130250D01*
X85453855Y-89984355D01*
X85500274Y-89914884D01*
X85613530Y-89745385D01*
X85669600Y-89463500D01*
X85669600Y-89343190D01*
X88018500Y-89343190D01*
X88018500Y-89558750D01*
X88177250Y-89717500D01*
X89126500Y-89717500D01*
X89126500Y-88993250D01*
X88967750Y-88834500D01*
X88527191Y-88834500D01*
X88293802Y-88931173D01*
X88115173Y-89109801D01*
X88018500Y-89343190D01*
X85669600Y-89343190D01*
X85669600Y-86941440D01*
X86846000Y-86941440D01*
X87081317Y-86897162D01*
X87297441Y-86758090D01*
X87345134Y-86688289D01*
X87381910Y-86745441D01*
X87594110Y-86890431D01*
X87846000Y-86941440D01*
X89046000Y-86941440D01*
X89281317Y-86897162D01*
X89497441Y-86758090D01*
X89618715Y-86580600D01*
X89797560Y-86580600D01*
X89797560Y-87500000D01*
X89841838Y-87735317D01*
X89980910Y-87951441D01*
X90193110Y-88096431D01*
X90408400Y-88140028D01*
X90408400Y-88849362D01*
X90318183Y-88866338D01*
X90214854Y-88932829D01*
X90213198Y-88931173D01*
X89979809Y-88834500D01*
X89539250Y-88834500D01*
X89380500Y-88993250D01*
X89380500Y-89717500D01*
X89400500Y-89717500D01*
X89400500Y-89971500D01*
X89380500Y-89971500D01*
X89380500Y-90695750D01*
X89539250Y-90854500D01*
X89979809Y-90854500D01*
X90213198Y-90757827D01*
X90214568Y-90756457D01*
X90301610Y-90815931D01*
X90553500Y-90866940D01*
X91753500Y-90866940D01*
X91988817Y-90822662D01*
X92204941Y-90683590D01*
X92274969Y-90581100D01*
X92378338Y-90581100D01*
X92484410Y-90745941D01*
X92696610Y-90890931D01*
X92948500Y-90941940D01*
X94148500Y-90941940D01*
X94383817Y-90897662D01*
X94599941Y-90758590D01*
X94647634Y-90688789D01*
X94684410Y-90745941D01*
X94896610Y-90890931D01*
X95148500Y-90941940D01*
X96348500Y-90941940D01*
X96583817Y-90897662D01*
X96799941Y-90758590D01*
X96944931Y-90546390D01*
X96995940Y-90294500D01*
X96995940Y-89394500D01*
X96951662Y-89159183D01*
X96913936Y-89100555D01*
X96949338Y-89015299D01*
X96949662Y-88643333D01*
X96807617Y-88299557D01*
X96544827Y-88036308D01*
X96526378Y-88028647D01*
X96695327Y-87859699D01*
X96792000Y-87626310D01*
X96792000Y-86785750D01*
X96633250Y-86627000D01*
X95584000Y-86627000D01*
X95584000Y-86647000D01*
X95330000Y-86647000D01*
X95330000Y-86627000D01*
X94280750Y-86627000D01*
X94122000Y-86785750D01*
X94122000Y-87626310D01*
X94218673Y-87859699D01*
X94397302Y-88038327D01*
X94630691Y-88135000D01*
X95171250Y-88135000D01*
X95329998Y-87976252D01*
X95329998Y-88135000D01*
X95385766Y-88135000D01*
X95222308Y-88298173D01*
X95079662Y-88641701D01*
X95079603Y-88709762D01*
X95041190Y-88767252D01*
X94913183Y-88791338D01*
X94697059Y-88930410D01*
X94649366Y-89000211D01*
X94612590Y-88943059D01*
X94400390Y-88798069D01*
X94148500Y-88747060D01*
X92948500Y-88747060D01*
X92713183Y-88791338D01*
X92497059Y-88930410D01*
X92375785Y-89107900D01*
X92275401Y-89107900D01*
X92217590Y-89018059D01*
X92005390Y-88873069D01*
X91881600Y-88848001D01*
X91881600Y-88140553D01*
X92080317Y-88103162D01*
X92296441Y-87964090D01*
X92441431Y-87751890D01*
X92492440Y-87500000D01*
X92492440Y-85500000D01*
X92468674Y-85373690D01*
X94122000Y-85373690D01*
X94122000Y-86214250D01*
X94280750Y-86373000D01*
X95330000Y-86373000D01*
X95330000Y-85023750D01*
X95584000Y-85023750D01*
X95584000Y-86373000D01*
X96633250Y-86373000D01*
X96792000Y-86214250D01*
X96792000Y-85373690D01*
X96695327Y-85140301D01*
X96516698Y-84961673D01*
X96283309Y-84865000D01*
X95742750Y-84865000D01*
X95584000Y-85023750D01*
X95330000Y-85023750D01*
X95171250Y-84865000D01*
X94630691Y-84865000D01*
X94397302Y-84961673D01*
X94218673Y-85140301D01*
X94122000Y-85373690D01*
X92468674Y-85373690D01*
X92448162Y-85264683D01*
X92309090Y-85048559D01*
X92096890Y-84903569D01*
X91845000Y-84852560D01*
X90445000Y-84852560D01*
X90209683Y-84896838D01*
X89993559Y-85035910D01*
X89944712Y-85107400D01*
X89616162Y-85107400D01*
X89510090Y-84942559D01*
X89297890Y-84797569D01*
X89046000Y-84746560D01*
X87846000Y-84746560D01*
X87610683Y-84790838D01*
X87394559Y-84929910D01*
X87346866Y-84999711D01*
X87310090Y-84942559D01*
X87097890Y-84797569D01*
X86846000Y-84746560D01*
X85646000Y-84746560D01*
X85410683Y-84790838D01*
X85194559Y-84929910D01*
X85049569Y-85142110D01*
X85027143Y-85252854D01*
X84921945Y-85323145D01*
X84412145Y-85832945D01*
X84252470Y-86071915D01*
X84196400Y-86353800D01*
X84196400Y-89158390D01*
X83492884Y-89861906D01*
X83414333Y-89861838D01*
X83070557Y-90003883D01*
X82807308Y-90266673D01*
X82664662Y-90610201D01*
X82664338Y-90982167D01*
X82806383Y-91325943D01*
X83065987Y-91586000D01*
X53837730Y-91586000D01*
X54249259Y-91175189D01*
X54834333Y-89766175D01*
X54835664Y-88240518D01*
X54728445Y-87981026D01*
X58941642Y-87981026D01*
X58944291Y-87996791D01*
X59198268Y-88524036D01*
X59634680Y-88913954D01*
X60187087Y-89107184D01*
X60422000Y-88962924D01*
X60422000Y-87749000D01*
X60676000Y-87749000D01*
X60676000Y-88962924D01*
X60910913Y-89107184D01*
X61463320Y-88913954D01*
X61899732Y-88524036D01*
X62153709Y-87996791D01*
X62156358Y-87981026D01*
X62035217Y-87749000D01*
X60676000Y-87749000D01*
X60422000Y-87749000D01*
X59062783Y-87749000D01*
X58941642Y-87981026D01*
X54728445Y-87981026D01*
X54253050Y-86830485D01*
X53175189Y-85750741D01*
X51766175Y-85165667D01*
X50240518Y-85164336D01*
X48830485Y-85746950D01*
X48457000Y-86119784D01*
X48457000Y-78566740D01*
X49895900Y-78566740D01*
X50131217Y-78522462D01*
X50347341Y-78383390D01*
X50492331Y-78171190D01*
X50543340Y-77919300D01*
X50543340Y-77672240D01*
X52303300Y-77672240D01*
X52538617Y-77627962D01*
X52754741Y-77488890D01*
X52899731Y-77276690D01*
X52950740Y-77024800D01*
X52950740Y-75549800D01*
X52933900Y-75460303D01*
X52933900Y-75386650D01*
X52916829Y-75369579D01*
X52906462Y-75314483D01*
X52777722Y-75114416D01*
X52895331Y-74942290D01*
X52910458Y-74867592D01*
X52933900Y-74844150D01*
X52933900Y-74764090D01*
X52932233Y-74760065D01*
X52946340Y-74690400D01*
X52946340Y-74552000D01*
X53076878Y-74552000D01*
X53313701Y-74650338D01*
X53685667Y-74650662D01*
X53803000Y-74602181D01*
X53803000Y-74864810D01*
X53899673Y-75098199D01*
X54078302Y-75276827D01*
X54311691Y-75373500D01*
X54802250Y-75373500D01*
X54961000Y-75214750D01*
X54961000Y-74415500D01*
X54941000Y-74415500D01*
X54941000Y-74161500D01*
X54961000Y-74161500D01*
X54961000Y-74141500D01*
X55215000Y-74141500D01*
X55215000Y-74161500D01*
X55235000Y-74161500D01*
X55235000Y-74415500D01*
X55215000Y-74415500D01*
X55215000Y-75214750D01*
X55373750Y-75373500D01*
X55864309Y-75373500D01*
X56097698Y-75276827D01*
X56199053Y-75175473D01*
X56340810Y-75272331D01*
X56592700Y-75323340D01*
X57592700Y-75323340D01*
X57828017Y-75279062D01*
X58044141Y-75139990D01*
X58120935Y-75027598D01*
X58316755Y-74896755D01*
X58529855Y-74683655D01*
X58689530Y-74444685D01*
X58724851Y-74267115D01*
X58724838Y-74281667D01*
X58816560Y-74503652D01*
X58816560Y-75692000D01*
X58860838Y-75927317D01*
X58999910Y-76143441D01*
X59069711Y-76191134D01*
X59012559Y-76227910D01*
X58867569Y-76440110D01*
X58816560Y-76692000D01*
X58816560Y-77892000D01*
X58860838Y-78127317D01*
X58999910Y-78343441D01*
X59212110Y-78488431D01*
X59464000Y-78539440D01*
X60364000Y-78539440D01*
X60599317Y-78495162D01*
X60815441Y-78356090D01*
X60960431Y-78143890D01*
X61011440Y-77892000D01*
X61011440Y-77864048D01*
X61088055Y-77812855D01*
X61641355Y-77259555D01*
X61801030Y-77020585D01*
X61857100Y-76738700D01*
X61857100Y-75298737D01*
X62026000Y-75332940D01*
X63326000Y-75332940D01*
X63547975Y-75291172D01*
X63503560Y-75510500D01*
X63503560Y-75588452D01*
X63451856Y-75623000D01*
X63426945Y-75639645D01*
X61869645Y-77196945D01*
X61709970Y-77435915D01*
X61653900Y-77717800D01*
X61653900Y-79328590D01*
X60028145Y-80954345D01*
X59976952Y-81030960D01*
X59533000Y-81030960D01*
X59297683Y-81075238D01*
X59081559Y-81214310D01*
X58936569Y-81426510D01*
X58885560Y-81678400D01*
X58885560Y-83405600D01*
X58929838Y-83640917D01*
X59068910Y-83857041D01*
X59281110Y-84002031D01*
X59322439Y-84010400D01*
X59304585Y-84022330D01*
X58979729Y-84508511D01*
X58865655Y-85082000D01*
X58979729Y-85655489D01*
X59304585Y-86141670D01*
X59614069Y-86348461D01*
X59198268Y-86719964D01*
X58944291Y-87247209D01*
X58941642Y-87262974D01*
X59062783Y-87495000D01*
X60422000Y-87495000D01*
X60422000Y-87475000D01*
X60676000Y-87475000D01*
X60676000Y-87495000D01*
X62035217Y-87495000D01*
X62156358Y-87262974D01*
X62153709Y-87247209D01*
X61931422Y-86785750D01*
X63648000Y-86785750D01*
X63648000Y-87626310D01*
X63744673Y-87859699D01*
X63923302Y-88038327D01*
X64156691Y-88135000D01*
X64697250Y-88135000D01*
X64856000Y-87976250D01*
X64856000Y-86627000D01*
X65110000Y-86627000D01*
X65110000Y-87976250D01*
X65268750Y-88135000D01*
X65809309Y-88135000D01*
X66042698Y-88038327D01*
X66221327Y-87859699D01*
X66318000Y-87626310D01*
X66318000Y-86785750D01*
X66159250Y-86627000D01*
X65110000Y-86627000D01*
X64856000Y-86627000D01*
X63806750Y-86627000D01*
X63648000Y-86785750D01*
X61931422Y-86785750D01*
X61899732Y-86719964D01*
X61483931Y-86348461D01*
X61793415Y-86141670D01*
X62118271Y-85655489D01*
X62174324Y-85373690D01*
X63648000Y-85373690D01*
X63648000Y-86214250D01*
X63806750Y-86373000D01*
X64856000Y-86373000D01*
X64856000Y-85023750D01*
X65110000Y-85023750D01*
X65110000Y-86373000D01*
X66159250Y-86373000D01*
X66318000Y-86214250D01*
X66318000Y-85373690D01*
X66221327Y-85140301D01*
X66042698Y-84961673D01*
X65809309Y-84865000D01*
X65268750Y-84865000D01*
X65110000Y-85023750D01*
X64856000Y-85023750D01*
X64697250Y-84865000D01*
X64156691Y-84865000D01*
X63923302Y-84961673D01*
X63744673Y-85140301D01*
X63648000Y-85373690D01*
X62174324Y-85373690D01*
X62232345Y-85082000D01*
X62151176Y-84673934D01*
X62530355Y-84294755D01*
X62561901Y-84247543D01*
X62690030Y-84055785D01*
X62746100Y-83773900D01*
X62746100Y-80894560D01*
X63317765Y-80322895D01*
X63477440Y-80083925D01*
X63533510Y-79802040D01*
X63533510Y-78376700D01*
X63711610Y-78198600D01*
X64201780Y-78198600D01*
X64201780Y-78762480D01*
X64246058Y-78997797D01*
X64320185Y-79112993D01*
X64252789Y-79211630D01*
X64201780Y-79463520D01*
X64201780Y-80261080D01*
X64246058Y-80496397D01*
X64385130Y-80712521D01*
X64597330Y-80857511D01*
X64648839Y-80867942D01*
X64727145Y-80985135D01*
X65915865Y-82173855D01*
X65968511Y-82209032D01*
X65992838Y-82338317D01*
X66131910Y-82554441D01*
X66344110Y-82699431D01*
X66596000Y-82750440D01*
X67796000Y-82750440D01*
X68031317Y-82706162D01*
X68247441Y-82567090D01*
X68295134Y-82497289D01*
X68331910Y-82554441D01*
X68544110Y-82699431D01*
X68796000Y-82750440D01*
X69442876Y-82750440D01*
X69100557Y-82891883D01*
X68837308Y-83154673D01*
X68694662Y-83498201D01*
X68694338Y-83870167D01*
X68836383Y-84213943D01*
X68892900Y-84270559D01*
X68892900Y-84657190D01*
X68774145Y-84775945D01*
X68722952Y-84852560D01*
X68595000Y-84852560D01*
X68359683Y-84896838D01*
X68143559Y-85035910D01*
X67998569Y-85248110D01*
X67947560Y-85500000D01*
X67947560Y-87500000D01*
X67991838Y-87735317D01*
X68130910Y-87951441D01*
X68343110Y-88096431D01*
X68554900Y-88139320D01*
X68554900Y-88264763D01*
X68456183Y-88283338D01*
X68240059Y-88422410D01*
X68095069Y-88634610D01*
X68044060Y-88886500D01*
X68044060Y-89786500D01*
X68088338Y-90021817D01*
X68227410Y-90237941D01*
X68439610Y-90382931D01*
X68691500Y-90433940D01*
X69891500Y-90433940D01*
X70126817Y-90389662D01*
X70342941Y-90250590D01*
X70390634Y-90180789D01*
X70427410Y-90237941D01*
X70639610Y-90382931D01*
X70891500Y-90433940D01*
X72091500Y-90433940D01*
X72326817Y-90389662D01*
X72542941Y-90250590D01*
X72687931Y-90038390D01*
X72738940Y-89786500D01*
X72738940Y-88886500D01*
X72694662Y-88651183D01*
X72555590Y-88435059D01*
X72501085Y-88397817D01*
X72510000Y-88353000D01*
X72510000Y-88350006D01*
X72517192Y-88342827D01*
X72659838Y-87999299D01*
X72660162Y-87627333D01*
X72518117Y-87283557D01*
X72255327Y-87020308D01*
X71911799Y-86877662D01*
X71539833Y-86877338D01*
X71196057Y-87019383D01*
X70932808Y-87282173D01*
X70790162Y-87625701D01*
X70789838Y-87997667D01*
X70854465Y-88154077D01*
X70784190Y-88259252D01*
X70656183Y-88283338D01*
X70440059Y-88422410D01*
X70392366Y-88492211D01*
X70355590Y-88435059D01*
X70143390Y-88290069D01*
X70028100Y-88266722D01*
X70028100Y-88141212D01*
X70230317Y-88103162D01*
X70446441Y-87964090D01*
X70591431Y-87751890D01*
X70642440Y-87500000D01*
X70642440Y-85500000D01*
X70598162Y-85264683D01*
X70459090Y-85048559D01*
X70362121Y-84982303D01*
X70366100Y-84962300D01*
X70366100Y-84270822D01*
X70421692Y-84215327D01*
X70564338Y-83871799D01*
X70564662Y-83499833D01*
X70422617Y-83156057D01*
X70159827Y-82892808D01*
X69816968Y-82750440D01*
X69996000Y-82750440D01*
X70231317Y-82706162D01*
X70447441Y-82567090D01*
X70573338Y-82382834D01*
X70596407Y-82378245D01*
X70662477Y-82334099D01*
X70735167Y-82334162D01*
X71075133Y-82193691D01*
X72116000Y-82193691D01*
X72116000Y-82784250D01*
X72274750Y-82943000D01*
X73249000Y-82943000D01*
X73249000Y-81843750D01*
X73503000Y-81843750D01*
X73503000Y-82943000D01*
X74477250Y-82943000D01*
X74636000Y-82784250D01*
X74636000Y-82193691D01*
X74539327Y-81960302D01*
X74360699Y-81781673D01*
X74127310Y-81685000D01*
X73661750Y-81685000D01*
X73503000Y-81843750D01*
X73249000Y-81843750D01*
X73090250Y-81685000D01*
X72624690Y-81685000D01*
X72391301Y-81781673D01*
X72212673Y-81960302D01*
X72116000Y-82193691D01*
X71075133Y-82193691D01*
X71078943Y-82192117D01*
X71342192Y-81929327D01*
X71484838Y-81585799D01*
X71485162Y-81213833D01*
X71343117Y-80870057D01*
X71080327Y-80606808D01*
X70736799Y-80464162D01*
X70364833Y-80463838D01*
X70094549Y-80575517D01*
X69996000Y-80555560D01*
X68796000Y-80555560D01*
X68560683Y-80599838D01*
X68344559Y-80738910D01*
X68296866Y-80808711D01*
X68260090Y-80751559D01*
X68047890Y-80606569D01*
X67796000Y-80555560D01*
X66596000Y-80555560D01*
X66415040Y-80589610D01*
X66259241Y-80433811D01*
X66294220Y-80261080D01*
X66294220Y-79779750D01*
X74233500Y-79779750D01*
X74233500Y-80245310D01*
X74330173Y-80478699D01*
X74508802Y-80657327D01*
X74742191Y-80754000D01*
X75332750Y-80754000D01*
X75491500Y-80595250D01*
X75491500Y-79621000D01*
X74392250Y-79621000D01*
X74233500Y-79779750D01*
X66294220Y-79779750D01*
X66294220Y-79463520D01*
X66249942Y-79228203D01*
X66175815Y-79113007D01*
X66243211Y-79014370D01*
X66294220Y-78762480D01*
X66294220Y-77964920D01*
X66249942Y-77729603D01*
X66110870Y-77513479D01*
X66012600Y-77446334D01*
X66012600Y-77436941D01*
X66030589Y-77433556D01*
X66151000Y-77457940D01*
X66401000Y-77457940D01*
X66530589Y-77433556D01*
X66651000Y-77457940D01*
X66901000Y-77457940D01*
X67030589Y-77433556D01*
X67151000Y-77457940D01*
X67401000Y-77457940D01*
X67530589Y-77433556D01*
X67651000Y-77457940D01*
X67901000Y-77457940D01*
X68030589Y-77433556D01*
X68151000Y-77457940D01*
X68401000Y-77457940D01*
X68530589Y-77433556D01*
X68651000Y-77457940D01*
X68901000Y-77457940D01*
X69011855Y-77437081D01*
X69011838Y-77456667D01*
X69153883Y-77800443D01*
X69416673Y-78063692D01*
X69760201Y-78206338D01*
X70132167Y-78206662D01*
X70475943Y-78064617D01*
X70739192Y-77801827D01*
X70881838Y-77458299D01*
X70882162Y-77086333D01*
X70813332Y-76919750D01*
X72747000Y-76919750D01*
X72747000Y-77360309D01*
X72843673Y-77593698D01*
X73022301Y-77772327D01*
X73255690Y-77869000D01*
X73471250Y-77869000D01*
X73630000Y-77710250D01*
X73630000Y-76761000D01*
X72905750Y-76761000D01*
X72747000Y-76919750D01*
X70813332Y-76919750D01*
X70740117Y-76742557D01*
X70683600Y-76685941D01*
X70683600Y-76331505D01*
X70683601Y-76331500D01*
X70627531Y-76049616D01*
X70548440Y-75931248D01*
X70548440Y-75510500D01*
X70507722Y-75294101D01*
X70522800Y-75297100D01*
X70549017Y-75297100D01*
X70726000Y-75332940D01*
X72026000Y-75332940D01*
X72261317Y-75288662D01*
X72477441Y-75149590D01*
X72622431Y-74937390D01*
X72673440Y-74685500D01*
X72673440Y-74435500D01*
X72649056Y-74305911D01*
X72673440Y-74185500D01*
X72673440Y-73935500D01*
X72649056Y-73805911D01*
X72673440Y-73685500D01*
X72673440Y-73435500D01*
X72649056Y-73305911D01*
X72673440Y-73185500D01*
X72673440Y-73103463D01*
X72702071Y-73172755D01*
X72964861Y-73436004D01*
X73178726Y-73524809D01*
X73146683Y-73530838D01*
X72930559Y-73669910D01*
X72785569Y-73882110D01*
X72734560Y-74134000D01*
X72734560Y-75334000D01*
X72778838Y-75569317D01*
X72845329Y-75672646D01*
X72843673Y-75674302D01*
X72747000Y-75907691D01*
X72747000Y-76348250D01*
X72905750Y-76507000D01*
X73630000Y-76507000D01*
X73630000Y-76487000D01*
X73884000Y-76487000D01*
X73884000Y-76507000D01*
X74608250Y-76507000D01*
X74767000Y-76348250D01*
X74767000Y-76179158D01*
X74826921Y-76239079D01*
X75037500Y-76379783D01*
X75037500Y-76917510D01*
X74820093Y-76960755D01*
X74804138Y-76971416D01*
X74767000Y-76971383D01*
X74767000Y-76919750D01*
X74608250Y-76761000D01*
X73884000Y-76761000D01*
X73884000Y-77710250D01*
X73965100Y-77791350D01*
X73964838Y-78091667D01*
X74106883Y-78435443D01*
X74286314Y-78615187D01*
X74233500Y-78742690D01*
X74233500Y-79208250D01*
X74392250Y-79367000D01*
X75491500Y-79367000D01*
X75491500Y-79347000D01*
X75745500Y-79347000D01*
X75745500Y-79367000D01*
X75765500Y-79367000D01*
X75765500Y-79621000D01*
X75745500Y-79621000D01*
X75745500Y-80595250D01*
X75904250Y-80754000D01*
X76494809Y-80754000D01*
X76728198Y-80657327D01*
X76869436Y-80516090D01*
X76904410Y-80570441D01*
X77116610Y-80715431D01*
X77368500Y-80766440D01*
X77503000Y-80766440D01*
X77503000Y-80914829D01*
X77182299Y-80781662D01*
X76810333Y-80781338D01*
X76466557Y-80923383D01*
X76203308Y-81186173D01*
X76094782Y-81447532D01*
X76094250Y-81447000D01*
X76041691Y-81447000D01*
X75808302Y-81543673D01*
X75629673Y-81722301D01*
X75533000Y-81955690D01*
X75533000Y-83046250D01*
X75691750Y-83205000D01*
X76170560Y-83205000D01*
X76170560Y-83459000D01*
X75691750Y-83459000D01*
X75533000Y-83617750D01*
X75533000Y-84443799D01*
X74642201Y-84443799D01*
X74528109Y-84466493D01*
X74465090Y-84368559D01*
X74396994Y-84322031D01*
X74539327Y-84179698D01*
X74636000Y-83946309D01*
X74636000Y-83355750D01*
X74477250Y-83197000D01*
X73503000Y-83197000D01*
X73503000Y-83217000D01*
X73249000Y-83217000D01*
X73249000Y-83197000D01*
X72274750Y-83197000D01*
X72116000Y-83355750D01*
X72116000Y-83946309D01*
X72212673Y-84179698D01*
X72344679Y-84311704D01*
X72292799Y-84290162D01*
X71920833Y-84289838D01*
X71577057Y-84431883D01*
X71313808Y-84694673D01*
X71171162Y-85038201D01*
X71170838Y-85410167D01*
X71312883Y-85753943D01*
X71575673Y-86017192D01*
X71919201Y-86159838D01*
X71947979Y-86159863D01*
X72103560Y-86263818D01*
X72103560Y-86320000D01*
X72147838Y-86555317D01*
X72286910Y-86771441D01*
X72499110Y-86916431D01*
X72751000Y-86967440D01*
X74001000Y-86967440D01*
X74236317Y-86923162D01*
X74452441Y-86784090D01*
X74597431Y-86571890D01*
X74648440Y-86320000D01*
X74648440Y-86263819D01*
X74856079Y-86125079D01*
X74967359Y-86013799D01*
X75520560Y-86013799D01*
X75520560Y-88082000D01*
X75564838Y-88317317D01*
X75601400Y-88374136D01*
X75601400Y-88762560D01*
X75186000Y-88762560D01*
X74950683Y-88806838D01*
X74734559Y-88945910D01*
X74589569Y-89158110D01*
X74538560Y-89410000D01*
X74538560Y-90660000D01*
X74582838Y-90895317D01*
X74721910Y-91111441D01*
X74934110Y-91256431D01*
X75186000Y-91307440D01*
X76686000Y-91307440D01*
X76921317Y-91263162D01*
X77137441Y-91124090D01*
X77185134Y-91054289D01*
X77221910Y-91111441D01*
X77434110Y-91256431D01*
X77686000Y-91307440D01*
X79186000Y-91307440D01*
X79421317Y-91263162D01*
X79637441Y-91124090D01*
X79782431Y-90911890D01*
X79833440Y-90660000D01*
X79833440Y-89410000D01*
X79789162Y-89174683D01*
X79650090Y-88958559D01*
X79437890Y-88813569D01*
X79186000Y-88762560D01*
X78374600Y-88762560D01*
X78374600Y-88729440D01*
X78458000Y-88729440D01*
X78693317Y-88685162D01*
X78909441Y-88546090D01*
X79054431Y-88333890D01*
X79105440Y-88082000D01*
X79105440Y-87640100D01*
X79850560Y-87640100D01*
X79850560Y-87653500D01*
X79894838Y-87888817D01*
X80033910Y-88104941D01*
X80246110Y-88249931D01*
X80498000Y-88300940D01*
X81748000Y-88300940D01*
X81983317Y-88256662D01*
X82199441Y-88117590D01*
X82344431Y-87905390D01*
X82395440Y-87653500D01*
X82395440Y-86153500D01*
X82351162Y-85918183D01*
X82212090Y-85702059D01*
X82142289Y-85654366D01*
X82199441Y-85617590D01*
X82344431Y-85405390D01*
X82395440Y-85153500D01*
X82395440Y-84400010D01*
X101807450Y-84400010D01*
X101807450Y-84640620D01*
X101904123Y-84874009D01*
X102082752Y-85052637D01*
X102316141Y-85149310D01*
X102556750Y-85149310D01*
X102715500Y-84990560D01*
X102715500Y-84241260D01*
X101966200Y-84241260D01*
X101807450Y-84400010D01*
X82395440Y-84400010D01*
X82395440Y-83653500D01*
X82351162Y-83418183D01*
X82212090Y-83202059D01*
X81999890Y-83057069D01*
X81748000Y-83006060D01*
X80498000Y-83006060D01*
X80262683Y-83050338D01*
X80046559Y-83189410D01*
X79901569Y-83401610D01*
X79877615Y-83519900D01*
X79867322Y-83519900D01*
X79811827Y-83464308D01*
X79468299Y-83321662D01*
X79105440Y-83321346D01*
X79105440Y-82082000D01*
X79073000Y-81909596D01*
X79073000Y-81240250D01*
X83344230Y-81240250D01*
X83344230Y-81480859D01*
X83440903Y-81714248D01*
X83619531Y-81892877D01*
X83852920Y-81989550D01*
X84093530Y-81989550D01*
X84252280Y-81830800D01*
X84252280Y-81081500D01*
X83502980Y-81081500D01*
X83344230Y-81240250D01*
X79073000Y-81240250D01*
X79073000Y-80727961D01*
X79103817Y-80722162D01*
X79319941Y-80583090D01*
X79464931Y-80370890D01*
X79515940Y-80119000D01*
X79515940Y-79650250D01*
X79605000Y-79650250D01*
X79605000Y-80090809D01*
X79701673Y-80324198D01*
X79880301Y-80502827D01*
X80113690Y-80599500D01*
X80329250Y-80599500D01*
X80488000Y-80440750D01*
X80488000Y-79491500D01*
X80742000Y-79491500D01*
X80742000Y-80440750D01*
X80900750Y-80599500D01*
X81116310Y-80599500D01*
X81349699Y-80502827D01*
X81504000Y-80348525D01*
X81658301Y-80502827D01*
X81891690Y-80599500D01*
X82107250Y-80599500D01*
X82266000Y-80440750D01*
X82266000Y-79491500D01*
X81541750Y-79491500D01*
X81504000Y-79529250D01*
X81466250Y-79491500D01*
X80742000Y-79491500D01*
X80488000Y-79491500D01*
X79763750Y-79491500D01*
X79605000Y-79650250D01*
X79515940Y-79650250D01*
X79515940Y-78869000D01*
X79471662Y-78633683D01*
X79332590Y-78417559D01*
X79120390Y-78272569D01*
X78868500Y-78221560D01*
X78812319Y-78221560D01*
X78673579Y-78013921D01*
X78265079Y-77605421D01*
X78010407Y-77435255D01*
X77710000Y-77375500D01*
X76622158Y-77375500D01*
X76607500Y-77360842D01*
X76607500Y-75595940D01*
X76697500Y-75595940D01*
X76801171Y-75576433D01*
X76897500Y-75595940D01*
X77347500Y-75595940D01*
X77451171Y-75576433D01*
X77547500Y-75595940D01*
X77997500Y-75595940D01*
X78101171Y-75576433D01*
X78197500Y-75595940D01*
X78335900Y-75595940D01*
X78335900Y-76745000D01*
X78391970Y-77026885D01*
X78551645Y-77265855D01*
X79271145Y-77985355D01*
X79510115Y-78145030D01*
X79611508Y-78165198D01*
X79636838Y-78299817D01*
X79703329Y-78403146D01*
X79701673Y-78404802D01*
X79605000Y-78638191D01*
X79605000Y-79078750D01*
X79763750Y-79237500D01*
X80488000Y-79237500D01*
X80488000Y-79217500D01*
X80742000Y-79217500D01*
X80742000Y-79237500D01*
X81466250Y-79237500D01*
X81504000Y-79199750D01*
X81541750Y-79237500D01*
X82266000Y-79237500D01*
X82266000Y-79217500D01*
X82520000Y-79217500D01*
X82520000Y-79237500D01*
X82540000Y-79237500D01*
X82540000Y-79491500D01*
X82520000Y-79491500D01*
X82520000Y-80440750D01*
X82678750Y-80599500D01*
X82894310Y-80599500D01*
X83127699Y-80502827D01*
X83306327Y-80324198D01*
X83403000Y-80090809D01*
X83403000Y-79704210D01*
X83686976Y-79988186D01*
X83619531Y-80016123D01*
X83440903Y-80194752D01*
X83344230Y-80428141D01*
X83344230Y-80668750D01*
X83502980Y-80827500D01*
X84252280Y-80827500D01*
X84252280Y-80807500D01*
X84506280Y-80807500D01*
X84506280Y-80827500D01*
X85255580Y-80827500D01*
X85341980Y-80741100D01*
X85440190Y-80741100D01*
X85514120Y-80855991D01*
X85659217Y-80955132D01*
X85526769Y-81040360D01*
X85399989Y-81225909D01*
X85255580Y-81081500D01*
X84506280Y-81081500D01*
X84506280Y-81830800D01*
X84665030Y-81989550D01*
X84905640Y-81989550D01*
X85139029Y-81892877D01*
X85317657Y-81714248D01*
X85330770Y-81682590D01*
X85330770Y-82304550D01*
X85345646Y-82383610D01*
X85251972Y-82609201D01*
X85251648Y-82981167D01*
X85393693Y-83324943D01*
X85656483Y-83588192D01*
X86000011Y-83730838D01*
X86371977Y-83731162D01*
X86715753Y-83589117D01*
X86979002Y-83326327D01*
X87121648Y-82982799D01*
X87121774Y-82838121D01*
X87229751Y-82768640D01*
X87374741Y-82556440D01*
X87423178Y-82317250D01*
X87479000Y-82317250D01*
X87479000Y-82757809D01*
X87575673Y-82991198D01*
X87754301Y-83169827D01*
X87987690Y-83266500D01*
X88203250Y-83266500D01*
X88362000Y-83107750D01*
X88362000Y-82158500D01*
X88616000Y-82158500D01*
X88616000Y-83107750D01*
X88774750Y-83266500D01*
X88990310Y-83266500D01*
X89223699Y-83169827D01*
X89402327Y-82991198D01*
X89499000Y-82757809D01*
X89499000Y-82317250D01*
X89638000Y-82317250D01*
X89638000Y-82757809D01*
X89734673Y-82991198D01*
X89913301Y-83169827D01*
X90146690Y-83266500D01*
X90362250Y-83266500D01*
X90521000Y-83107750D01*
X90521000Y-82158500D01*
X90775000Y-82158500D01*
X90775000Y-83107750D01*
X90933750Y-83266500D01*
X91149310Y-83266500D01*
X91382699Y-83169827D01*
X91561327Y-82991198D01*
X91658000Y-82757809D01*
X91658000Y-82317250D01*
X91499250Y-82158500D01*
X90775000Y-82158500D01*
X90521000Y-82158500D01*
X89796750Y-82158500D01*
X89638000Y-82317250D01*
X89499000Y-82317250D01*
X89340250Y-82158500D01*
X88616000Y-82158500D01*
X88362000Y-82158500D01*
X87637750Y-82158500D01*
X87479000Y-82317250D01*
X87423178Y-82317250D01*
X87425750Y-82304550D01*
X87425750Y-81504450D01*
X87381472Y-81269133D01*
X87242400Y-81053009D01*
X87097303Y-80953868D01*
X87229751Y-80868640D01*
X87230120Y-80868100D01*
X87492263Y-80868100D01*
X87510838Y-80966817D01*
X87577329Y-81070146D01*
X87575673Y-81071802D01*
X87479000Y-81305191D01*
X87479000Y-81745750D01*
X87637750Y-81904500D01*
X88362000Y-81904500D01*
X88362000Y-81884500D01*
X88616000Y-81884500D01*
X88616000Y-81904500D01*
X89340250Y-81904500D01*
X89499000Y-81745750D01*
X89499000Y-81305191D01*
X89402327Y-81071802D01*
X89400957Y-81070432D01*
X89460431Y-80983390D01*
X89483778Y-80868100D01*
X89651263Y-80868100D01*
X89669838Y-80966817D01*
X89736329Y-81070146D01*
X89734673Y-81071802D01*
X89638000Y-81305191D01*
X89638000Y-81745750D01*
X89796750Y-81904500D01*
X90521000Y-81904500D01*
X90521000Y-81884500D01*
X90775000Y-81884500D01*
X90775000Y-81904500D01*
X91499250Y-81904500D01*
X91658000Y-81745750D01*
X91658000Y-81305191D01*
X91561327Y-81071802D01*
X91559957Y-81070432D01*
X91619431Y-80983390D01*
X91670440Y-80731500D01*
X91670440Y-79531500D01*
X91626162Y-79296183D01*
X91487090Y-79080059D01*
X91274890Y-78935069D01*
X91023000Y-78884060D01*
X90273000Y-78884060D01*
X90037683Y-78928338D01*
X89821559Y-79067410D01*
X89676569Y-79279610D01*
X89653222Y-79394900D01*
X89485737Y-79394900D01*
X89467162Y-79296183D01*
X89328090Y-79080059D01*
X89115890Y-78935069D01*
X88864000Y-78884060D01*
X88121761Y-78884060D01*
X87939827Y-78701808D01*
X87596299Y-78559162D01*
X87224333Y-78558838D01*
X86880557Y-78700883D01*
X86623983Y-78957010D01*
X85978210Y-78957010D01*
X85742893Y-79001288D01*
X85526769Y-79140360D01*
X85439625Y-79267900D01*
X85050110Y-79267900D01*
X84653600Y-78871390D01*
X84653600Y-78410300D01*
X84597530Y-78128415D01*
X84437855Y-77889445D01*
X83492055Y-76943645D01*
X83415440Y-76892452D01*
X83415440Y-76864500D01*
X83371162Y-76629183D01*
X83232090Y-76413059D01*
X83196791Y-76388940D01*
X84392500Y-76388940D01*
X84627817Y-76344662D01*
X84731146Y-76278171D01*
X84732802Y-76279827D01*
X84966191Y-76376500D01*
X85406750Y-76376500D01*
X85565500Y-76217750D01*
X85565500Y-75493500D01*
X85819500Y-75493500D01*
X85819500Y-76217750D01*
X85978250Y-76376500D01*
X86418809Y-76376500D01*
X86652198Y-76279827D01*
X86796815Y-76135211D01*
X86933883Y-76466943D01*
X87196673Y-76730192D01*
X87540201Y-76872838D01*
X87912167Y-76873162D01*
X88255943Y-76731117D01*
X88443620Y-76543767D01*
X88668342Y-76543963D01*
X89012118Y-76401918D01*
X89062560Y-76351564D01*
X89062560Y-76515000D01*
X89106838Y-76750317D01*
X89245910Y-76966441D01*
X89458110Y-77111431D01*
X89710000Y-77162440D01*
X90910000Y-77162440D01*
X91145317Y-77118162D01*
X91361441Y-76979090D01*
X91409134Y-76909289D01*
X91445910Y-76966441D01*
X91658110Y-77111431D01*
X91910000Y-77162440D01*
X93110000Y-77162440D01*
X93345317Y-77118162D01*
X93561441Y-76979090D01*
X93687338Y-76794834D01*
X93710407Y-76790245D01*
X93824348Y-76714113D01*
X93881167Y-76714162D01*
X94224943Y-76572117D01*
X94488192Y-76309327D01*
X94563325Y-76128388D01*
X94779201Y-76218028D01*
X95132779Y-76218336D01*
X95060863Y-76290252D01*
X94964190Y-76523641D01*
X94964190Y-76764250D01*
X95122940Y-76923000D01*
X95872240Y-76923000D01*
X95872240Y-76173700D01*
X95713490Y-76014950D01*
X95556407Y-76014950D01*
X95578163Y-75993232D01*
X95599190Y-75997490D01*
X96399290Y-75997490D01*
X96634607Y-75953212D01*
X96850731Y-75814140D01*
X96995721Y-75601940D01*
X97046730Y-75350050D01*
X97046730Y-74715745D01*
X97134080Y-74851491D01*
X97346280Y-74996481D01*
X97598170Y-75047490D01*
X98398270Y-75047490D01*
X98633587Y-75003212D01*
X98849711Y-74864140D01*
X98936855Y-74736600D01*
X99695639Y-74736600D01*
X99480115Y-74779470D01*
X99241145Y-74939145D01*
X99080645Y-75099645D01*
X98920970Y-75338615D01*
X98864900Y-75620500D01*
X98864900Y-76694860D01*
X98630331Y-76929429D01*
X98553117Y-76742557D01*
X98290327Y-76479308D01*
X97946799Y-76336662D01*
X97574833Y-76336338D01*
X97231057Y-76478383D01*
X97034290Y-76674807D01*
X97034290Y-76523641D01*
X96937617Y-76290252D01*
X96758989Y-76111623D01*
X96525600Y-76014950D01*
X96284990Y-76014950D01*
X96126240Y-76173700D01*
X96126240Y-76923000D01*
X96146240Y-76923000D01*
X96146240Y-77177000D01*
X96126240Y-77177000D01*
X96126240Y-77197000D01*
X95872240Y-77197000D01*
X95872240Y-77177000D01*
X95122940Y-77177000D01*
X94964190Y-77335750D01*
X94964190Y-77576359D01*
X95060863Y-77809748D01*
X95239491Y-77988377D01*
X95275842Y-78003434D01*
X95147749Y-78085860D01*
X95061350Y-78212310D01*
X94998784Y-78224755D01*
X94878859Y-78304886D01*
X94824023Y-78304838D01*
X94480247Y-78446883D01*
X94216998Y-78709673D01*
X94074352Y-79053201D01*
X94074028Y-79425167D01*
X94216073Y-79768943D01*
X94478863Y-80032192D01*
X94822391Y-80174838D01*
X95175968Y-80175146D01*
X95060863Y-80290252D01*
X94964190Y-80523641D01*
X94964190Y-80764250D01*
X95122940Y-80923000D01*
X95872240Y-80923000D01*
X95872240Y-80173700D01*
X95713490Y-80014950D01*
X95556332Y-80014950D01*
X95578100Y-79993219D01*
X95599190Y-79997490D01*
X96399290Y-79997490D01*
X96634607Y-79953212D01*
X96850731Y-79814140D01*
X96995721Y-79601940D01*
X97046730Y-79350050D01*
X97046730Y-78715745D01*
X97134080Y-78851491D01*
X97346280Y-78996481D01*
X97598170Y-79047490D01*
X98398270Y-79047490D01*
X98633587Y-79003212D01*
X98849711Y-78864140D01*
X98994701Y-78651940D01*
X99005429Y-78598962D01*
X99122325Y-78520855D01*
X99753900Y-77889280D01*
X99753900Y-79805860D01*
X98693685Y-80866075D01*
X98616617Y-80679557D01*
X98353827Y-80416308D01*
X98010299Y-80273662D01*
X97638333Y-80273338D01*
X97294557Y-80415383D01*
X97034290Y-80675196D01*
X97034290Y-80523641D01*
X96937617Y-80290252D01*
X96758989Y-80111623D01*
X96525600Y-80014950D01*
X96284990Y-80014950D01*
X96126240Y-80173700D01*
X96126240Y-80923000D01*
X96146240Y-80923000D01*
X96146240Y-81177000D01*
X96126240Y-81177000D01*
X96126240Y-81197000D01*
X95872240Y-81197000D01*
X95872240Y-81177000D01*
X95122940Y-81177000D01*
X94964190Y-81335750D01*
X94964190Y-81576359D01*
X95060863Y-81809748D01*
X95239491Y-81988377D01*
X95275842Y-82003434D01*
X95147749Y-82085860D01*
X95061350Y-82212310D01*
X94998783Y-82224755D01*
X94878111Y-82305386D01*
X94823523Y-82305338D01*
X94479747Y-82447383D01*
X94216498Y-82710173D01*
X94073852Y-83053701D01*
X94073528Y-83425667D01*
X94215573Y-83769443D01*
X94478363Y-84032692D01*
X94821891Y-84175338D01*
X95193857Y-84175662D01*
X95537633Y-84033617D01*
X95578101Y-83993219D01*
X95599190Y-83997490D01*
X96399290Y-83997490D01*
X96634607Y-83953212D01*
X96850731Y-83814140D01*
X96995721Y-83601940D01*
X96998564Y-83587900D01*
X101807450Y-83587900D01*
X101807450Y-83828510D01*
X101966200Y-83987260D01*
X102715500Y-83987260D01*
X102715500Y-83237960D01*
X102556750Y-83079210D01*
X102316141Y-83079210D01*
X102082752Y-83175883D01*
X101904123Y-83354511D01*
X101807450Y-83587900D01*
X96998564Y-83587900D01*
X97046730Y-83350050D01*
X97046730Y-82715745D01*
X97134080Y-82851491D01*
X97346280Y-82996481D01*
X97598170Y-83047490D01*
X98398270Y-83047490D01*
X98633587Y-83003212D01*
X98849711Y-82864140D01*
X98994701Y-82651940D01*
X99005429Y-82598962D01*
X99122325Y-82520855D01*
X101011355Y-80631825D01*
X101028071Y-80606808D01*
X101171030Y-80392855D01*
X101227100Y-80110970D01*
X101227100Y-78285750D01*
X101451400Y-78285750D01*
X101451400Y-78989909D01*
X101548073Y-79223298D01*
X101726701Y-79401927D01*
X101960090Y-79498600D01*
X102664250Y-79498600D01*
X102823000Y-79339850D01*
X102823000Y-78127000D01*
X101610150Y-78127000D01*
X101451400Y-78285750D01*
X101227100Y-78285750D01*
X101227100Y-77576610D01*
X101367110Y-77436600D01*
X101451400Y-77436600D01*
X101451400Y-77714250D01*
X101610150Y-77873000D01*
X102823000Y-77873000D01*
X102823000Y-77853000D01*
X103077000Y-77853000D01*
X103077000Y-77873000D01*
X103097000Y-77873000D01*
X103097000Y-78127000D01*
X103077000Y-78127000D01*
X103077000Y-79339850D01*
X103235750Y-79498600D01*
X103939910Y-79498600D01*
X104173299Y-79401927D01*
X104351927Y-79223298D01*
X104416263Y-79067977D01*
X104430330Y-79089029D01*
X104753400Y-79304898D01*
X104753400Y-79900400D01*
X104667530Y-79900400D01*
X104385645Y-79956470D01*
X104146675Y-80116145D01*
X103271645Y-80991175D01*
X103263302Y-81003662D01*
X103153799Y-80958192D01*
X102781833Y-80957868D01*
X102438057Y-81099913D01*
X102174808Y-81362703D01*
X102032162Y-81706231D01*
X102031838Y-82078197D01*
X102173883Y-82421973D01*
X102436673Y-82685222D01*
X102780201Y-82827868D01*
X102839011Y-82827919D01*
X102928360Y-82966771D01*
X103113909Y-83093551D01*
X102969500Y-83237960D01*
X102969500Y-83987260D01*
X102989500Y-83987260D01*
X102989500Y-84241260D01*
X102969500Y-84241260D01*
X102969500Y-84990560D01*
X103128250Y-85149310D01*
X103368859Y-85149310D01*
X103602248Y-85052637D01*
X103780877Y-84874009D01*
X103795934Y-84837658D01*
X103878360Y-84965751D01*
X104090560Y-85110741D01*
X104342450Y-85161750D01*
X105142550Y-85161750D01*
X105163665Y-85157777D01*
X105230673Y-85224902D01*
X105574201Y-85367548D01*
X105946167Y-85367872D01*
X106289943Y-85225827D01*
X106553192Y-84963037D01*
X106695838Y-84619509D01*
X106696162Y-84247543D01*
X106554117Y-83903767D01*
X106291327Y-83640518D01*
X105947799Y-83497872D01*
X105905819Y-83497835D01*
X105742957Y-83389015D01*
X105679792Y-83376451D01*
X105606640Y-83262769D01*
X105394440Y-83117779D01*
X105142550Y-83066770D01*
X104508245Y-83066770D01*
X104643991Y-82979420D01*
X104788981Y-82767220D01*
X104839990Y-82515330D01*
X104839990Y-81715230D01*
X104806895Y-81539345D01*
X104972640Y-81373600D01*
X105062500Y-81373600D01*
X105344385Y-81317530D01*
X105583355Y-81157855D01*
X106010855Y-80730355D01*
X106170530Y-80491385D01*
X106226600Y-80209500D01*
X106226600Y-79304898D01*
X106549670Y-79089029D01*
X106874526Y-78602848D01*
X106988600Y-78029359D01*
X106988600Y-77970641D01*
X106874526Y-77397152D01*
X106549670Y-76910971D01*
X106278828Y-76730000D01*
X106549670Y-76549029D01*
X106874526Y-76062848D01*
X106988600Y-75489359D01*
X106988600Y-75430641D01*
X106874526Y-74857152D01*
X106549670Y-74370971D01*
X106278828Y-74190000D01*
X106549670Y-74009029D01*
X106874526Y-73522848D01*
X106988600Y-72949359D01*
X106988600Y-72890641D01*
X106874526Y-72317152D01*
X106549670Y-71830971D01*
X106278828Y-71650000D01*
X106549670Y-71469029D01*
X106874526Y-70982848D01*
X106988600Y-70409359D01*
X106988600Y-70350641D01*
X106874526Y-69777152D01*
X106549670Y-69290971D01*
X106278828Y-69110000D01*
X106549670Y-68929029D01*
X106874526Y-68442848D01*
X106988600Y-67869359D01*
X106988600Y-67810641D01*
X106874526Y-67237152D01*
X106549670Y-66750971D01*
X106063489Y-66426115D01*
X105490000Y-66312041D01*
X104916511Y-66426115D01*
X104430330Y-66750971D01*
X104220000Y-67065752D01*
X104009670Y-66750971D01*
X103686600Y-66535102D01*
X103686600Y-63856000D01*
X103630530Y-63574115D01*
X103470855Y-63335145D01*
X102751100Y-62615390D01*
X102751100Y-62507290D01*
X102865991Y-62433360D01*
X103010981Y-62221160D01*
X103061990Y-61969270D01*
X103061990Y-61169170D01*
X103017712Y-60933853D01*
X102878640Y-60717729D01*
X102693091Y-60590949D01*
X102837500Y-60446540D01*
X102837500Y-59697240D01*
X103091500Y-59697240D01*
X103091500Y-60446540D01*
X103250250Y-60605290D01*
X103490859Y-60605290D01*
X103724248Y-60508617D01*
X103902877Y-60329989D01*
X103999550Y-60096600D01*
X103999550Y-59855990D01*
X103840800Y-59697240D01*
X103091500Y-59697240D01*
X102837500Y-59697240D01*
X102817500Y-59697240D01*
X102817500Y-59443240D01*
X102837500Y-59443240D01*
X102837500Y-58693940D01*
X103091500Y-58693940D01*
X103091500Y-59443240D01*
X103840800Y-59443240D01*
X103999550Y-59284490D01*
X103999550Y-59043880D01*
X103902877Y-58810491D01*
X103724248Y-58631863D01*
X103490859Y-58535190D01*
X103250250Y-58535190D01*
X103091500Y-58693940D01*
X102837500Y-58693940D01*
X102678750Y-58535190D01*
X102438141Y-58535190D01*
X102204752Y-58631863D01*
X102026123Y-58810491D01*
X102011066Y-58846842D01*
X101928640Y-58718749D01*
X101802190Y-58632350D01*
X101789745Y-58569784D01*
X101619579Y-58315111D01*
X101351889Y-58047421D01*
X101259206Y-57985492D01*
X101084327Y-57810308D01*
X100740799Y-57667662D01*
X100368833Y-57667338D01*
X100025057Y-57809383D01*
X99761808Y-58072173D01*
X99619162Y-58415701D01*
X99618838Y-58787667D01*
X99760883Y-59131443D01*
X100017010Y-59388017D01*
X100017010Y-59970290D01*
X100061288Y-60205607D01*
X100200360Y-60421731D01*
X100412560Y-60566721D01*
X100490200Y-60582444D01*
X100396808Y-60675673D01*
X100254162Y-61019201D01*
X100253838Y-61391167D01*
X100296410Y-61494200D01*
X100281355Y-61479145D01*
X100042385Y-61319470D01*
X99760500Y-61263400D01*
X99139561Y-61263400D01*
X99139662Y-61147833D01*
X98997617Y-60804057D01*
X98734827Y-60540808D01*
X98391299Y-60398162D01*
X98019333Y-60397838D01*
X97675557Y-60539883D01*
X97412308Y-60802673D01*
X97320346Y-61024140D01*
X97146729Y-61135860D01*
X97019949Y-61321409D01*
X96875540Y-61177000D01*
X96126240Y-61177000D01*
X96126240Y-61197000D01*
X95872240Y-61197000D01*
X95872240Y-61177000D01*
X95122940Y-61177000D01*
X94964190Y-61335750D01*
X94964190Y-61576359D01*
X95060863Y-61809748D01*
X95239491Y-61988377D01*
X95275842Y-62003434D01*
X95147749Y-62085860D01*
X95061350Y-62212310D01*
X94998784Y-62224755D01*
X94814248Y-62348057D01*
X94780833Y-62348028D01*
X94437057Y-62490073D01*
X94173808Y-62752863D01*
X94031162Y-63096391D01*
X94030838Y-63468357D01*
X94172883Y-63812133D01*
X94435673Y-64075382D01*
X94779201Y-64218028D01*
X95132779Y-64218336D01*
X95060863Y-64290252D01*
X94964190Y-64523641D01*
X94964190Y-64764250D01*
X95122940Y-64923000D01*
X95872240Y-64923000D01*
X95872240Y-64173700D01*
X95713490Y-64014950D01*
X95556407Y-64014950D01*
X95578163Y-63993232D01*
X95599190Y-63997490D01*
X96399290Y-63997490D01*
X96634607Y-63953212D01*
X96850731Y-63814140D01*
X96995721Y-63601940D01*
X97046730Y-63350050D01*
X97046730Y-62715745D01*
X97134080Y-62851491D01*
X97346280Y-62996481D01*
X97598170Y-63047490D01*
X98398270Y-63047490D01*
X98633587Y-63003212D01*
X98849711Y-62864140D01*
X98936855Y-62736600D01*
X99455390Y-62736600D01*
X100833400Y-64114610D01*
X100833400Y-65441029D01*
X100651475Y-65319470D01*
X100369590Y-65263400D01*
X98936290Y-65263400D01*
X98862360Y-65148509D01*
X98822144Y-65121031D01*
X98822162Y-65100363D01*
X98680117Y-64756587D01*
X98417327Y-64493338D01*
X98073799Y-64350692D01*
X97701833Y-64350368D01*
X97358057Y-64492413D01*
X97094808Y-64755203D01*
X97025133Y-64922998D01*
X96875542Y-64922998D01*
X97034290Y-64764250D01*
X97034290Y-64523641D01*
X96937617Y-64290252D01*
X96758989Y-64111623D01*
X96525600Y-64014950D01*
X96284990Y-64014950D01*
X96126240Y-64173700D01*
X96126240Y-64923000D01*
X96146240Y-64923000D01*
X96146240Y-65177000D01*
X96126240Y-65177000D01*
X96126240Y-65197000D01*
X95872240Y-65197000D01*
X95872240Y-65177000D01*
X95122940Y-65177000D01*
X94964190Y-65335750D01*
X94964190Y-65576359D01*
X95060863Y-65809748D01*
X95239491Y-65988377D01*
X95275842Y-66003434D01*
X95147749Y-66085860D01*
X95061350Y-66212310D01*
X94998784Y-66224755D01*
X94881103Y-66303386D01*
X94825523Y-66303338D01*
X94481747Y-66445383D01*
X94218498Y-66708173D01*
X94075852Y-67051701D01*
X94075528Y-67423667D01*
X94217573Y-67767443D01*
X94480363Y-68030692D01*
X94823891Y-68173338D01*
X95177468Y-68173646D01*
X95060863Y-68290252D01*
X94964190Y-68523641D01*
X94964190Y-68764250D01*
X95122940Y-68923000D01*
X95872240Y-68923000D01*
X95872240Y-68173700D01*
X95713490Y-68014950D01*
X95556329Y-68014950D01*
X95578098Y-67993219D01*
X95599190Y-67997490D01*
X96399290Y-67997490D01*
X96634607Y-67953212D01*
X96850731Y-67814140D01*
X96995721Y-67601940D01*
X97046730Y-67350050D01*
X97046730Y-66715745D01*
X97134080Y-66851491D01*
X97346280Y-66996481D01*
X97598170Y-67047490D01*
X98398270Y-67047490D01*
X98633587Y-67003212D01*
X98849711Y-66864140D01*
X98936855Y-66736600D01*
X100064480Y-66736600D01*
X100426990Y-67099110D01*
X100426991Y-68803841D01*
X100483061Y-69085726D01*
X100575215Y-69223643D01*
X100300000Y-69168900D01*
X98875481Y-69168900D01*
X98862360Y-69148509D01*
X98807110Y-69110758D01*
X98807132Y-69085333D01*
X98665087Y-68741557D01*
X98402297Y-68478308D01*
X98058769Y-68335662D01*
X97686803Y-68335338D01*
X97343027Y-68477383D01*
X97079778Y-68740173D01*
X97003862Y-68922998D01*
X96875542Y-68922998D01*
X97034290Y-68764250D01*
X97034290Y-68523641D01*
X96937617Y-68290252D01*
X96758989Y-68111623D01*
X96525600Y-68014950D01*
X96284990Y-68014950D01*
X96126240Y-68173700D01*
X96126240Y-68923000D01*
X96146240Y-68923000D01*
X96146240Y-69177000D01*
X96126240Y-69177000D01*
X96126240Y-69197000D01*
X95872240Y-69197000D01*
X95872240Y-69177000D01*
X95122940Y-69177000D01*
X94964190Y-69335750D01*
X94964190Y-69576359D01*
X95060863Y-69809748D01*
X95239491Y-69988377D01*
X95275842Y-70003434D01*
X95147749Y-70085860D01*
X95088276Y-70172902D01*
X94827593Y-70224755D01*
X94804158Y-70240414D01*
X94717333Y-70240338D01*
X94373557Y-70382383D01*
X94110308Y-70645173D01*
X93967662Y-70988701D01*
X93967338Y-71360667D01*
X94109383Y-71704443D01*
X94372173Y-71967692D01*
X94715701Y-72110338D01*
X95087667Y-72110662D01*
X95431443Y-71968617D01*
X95435687Y-71964380D01*
X95599190Y-71997490D01*
X96399290Y-71997490D01*
X96634607Y-71953212D01*
X96850731Y-71814140D01*
X96995721Y-71601940D01*
X97046730Y-71350050D01*
X97046730Y-70715745D01*
X97134080Y-70851491D01*
X97346280Y-70996481D01*
X97598170Y-71047490D01*
X98398270Y-71047490D01*
X98633587Y-71003212D01*
X98849711Y-70864140D01*
X98994701Y-70651940D01*
X98996694Y-70642100D01*
X99994890Y-70642100D01*
X101536190Y-72183400D01*
X101159000Y-72183400D01*
X100877115Y-72239470D01*
X100683043Y-72369145D01*
X100638145Y-72399145D01*
X99773890Y-73263400D01*
X98936290Y-73263400D01*
X98871121Y-73162124D01*
X98871132Y-73149333D01*
X98729087Y-72805557D01*
X98466297Y-72542308D01*
X98122769Y-72399662D01*
X97750803Y-72399338D01*
X97407027Y-72541383D01*
X97143778Y-72804173D01*
X97001132Y-73147701D01*
X97000997Y-73302457D01*
X96875540Y-73177000D01*
X96126240Y-73177000D01*
X96126240Y-73197000D01*
X95872240Y-73197000D01*
X95872240Y-73177000D01*
X95122940Y-73177000D01*
X94964190Y-73335750D01*
X94964190Y-73576359D01*
X95060863Y-73809748D01*
X95239491Y-73988377D01*
X95275842Y-74003434D01*
X95147749Y-74085860D01*
X95061350Y-74212310D01*
X94998784Y-74224755D01*
X94814248Y-74348057D01*
X94780833Y-74348028D01*
X94437057Y-74490073D01*
X94173808Y-74752863D01*
X94098675Y-74933802D01*
X93882799Y-74844162D01*
X93510833Y-74843838D01*
X93295000Y-74933018D01*
X93295000Y-74233500D01*
X93235245Y-73933094D01*
X93065079Y-73678421D01*
X92639579Y-73252921D01*
X92431940Y-73114181D01*
X92431940Y-73083000D01*
X92387662Y-72847683D01*
X92248590Y-72631559D01*
X92090647Y-72523641D01*
X94964190Y-72523641D01*
X94964190Y-72764250D01*
X95122940Y-72923000D01*
X95872240Y-72923000D01*
X95872240Y-72173700D01*
X96126240Y-72173700D01*
X96126240Y-72923000D01*
X96875540Y-72923000D01*
X97034290Y-72764250D01*
X97034290Y-72523641D01*
X96937617Y-72290252D01*
X96758989Y-72111623D01*
X96525600Y-72014950D01*
X96284990Y-72014950D01*
X96126240Y-72173700D01*
X95872240Y-72173700D01*
X95713490Y-72014950D01*
X95472880Y-72014950D01*
X95239491Y-72111623D01*
X95060863Y-72290252D01*
X94964190Y-72523641D01*
X92090647Y-72523641D01*
X92036390Y-72486569D01*
X91784500Y-72435560D01*
X91334500Y-72435560D01*
X91230829Y-72455067D01*
X91134500Y-72435560D01*
X90987561Y-72435560D01*
X91011338Y-72378299D01*
X91011662Y-72006333D01*
X90869617Y-71662557D01*
X90606827Y-71399308D01*
X90263299Y-71256662D01*
X89891333Y-71256338D01*
X89547557Y-71398383D01*
X89359218Y-71586394D01*
X89065833Y-71586138D01*
X88722057Y-71728183D01*
X88458808Y-71990973D01*
X88316162Y-72334501D01*
X88315838Y-72706467D01*
X88457883Y-73050243D01*
X88720673Y-73313492D01*
X88737060Y-73320297D01*
X88737060Y-74313184D01*
X88722057Y-74319383D01*
X88458808Y-74582173D01*
X88420783Y-74673746D01*
X88298008Y-74673639D01*
X87954232Y-74815684D01*
X87766555Y-75003034D01*
X87541833Y-75002838D01*
X87198057Y-75144883D01*
X86934808Y-75407673D01*
X86860904Y-75585654D01*
X86768750Y-75493500D01*
X85819500Y-75493500D01*
X85565500Y-75493500D01*
X85545500Y-75493500D01*
X85545500Y-75239500D01*
X85565500Y-75239500D01*
X85565500Y-74515250D01*
X85819500Y-74515250D01*
X85819500Y-75239500D01*
X86768750Y-75239500D01*
X86927500Y-75080750D01*
X86927500Y-74865190D01*
X86830827Y-74631801D01*
X86652198Y-74453173D01*
X86418809Y-74356500D01*
X85978250Y-74356500D01*
X85819500Y-74515250D01*
X85565500Y-74515250D01*
X85406750Y-74356500D01*
X84966191Y-74356500D01*
X84732802Y-74453173D01*
X84731432Y-74454543D01*
X84644390Y-74395069D01*
X84392500Y-74344060D01*
X83429608Y-74344060D01*
X83437481Y-74325100D01*
X86139500Y-74325100D01*
X86421385Y-74269030D01*
X86660355Y-74109355D01*
X86977855Y-73791855D01*
X87012033Y-73740704D01*
X87124090Y-73573000D01*
X87234002Y-73573000D01*
X87234002Y-73441252D01*
X87365750Y-73573000D01*
X87433310Y-73573000D01*
X87666699Y-73476327D01*
X87845327Y-73297698D01*
X87942000Y-73064309D01*
X87942000Y-72473750D01*
X87783250Y-72315000D01*
X87304440Y-72315000D01*
X87304440Y-72061000D01*
X87783250Y-72061000D01*
X87942000Y-71902250D01*
X87942000Y-71311691D01*
X87845327Y-71078302D01*
X87666699Y-70899673D01*
X87573526Y-70861079D01*
X87758441Y-70742090D01*
X87903431Y-70529890D01*
X87954440Y-70278000D01*
X87954440Y-69049448D01*
X88201692Y-68802627D01*
X88344338Y-68459099D01*
X88344662Y-68087133D01*
X88202617Y-67743357D01*
X87939827Y-67480108D01*
X87596299Y-67337462D01*
X87574600Y-67337443D01*
X87574600Y-65966440D01*
X88431000Y-65966440D01*
X88666317Y-65922162D01*
X88882441Y-65783090D01*
X88949053Y-65685600D01*
X89150560Y-65685600D01*
X89150560Y-65699000D01*
X89194838Y-65934317D01*
X89251024Y-66021632D01*
X89139398Y-66290455D01*
X89139131Y-66597316D01*
X89024801Y-66644673D01*
X88846173Y-66823302D01*
X88749500Y-67056691D01*
X88749500Y-67622250D01*
X88908250Y-67781000D01*
X89387060Y-67781000D01*
X89387060Y-68035000D01*
X88908250Y-68035000D01*
X88749500Y-68193750D01*
X88749500Y-68759309D01*
X88846173Y-68992698D01*
X89024801Y-69171327D01*
X89258190Y-69268000D01*
X89338250Y-69268000D01*
X89497000Y-69109250D01*
X89497000Y-68970359D01*
X89570410Y-69084441D01*
X89782610Y-69229431D01*
X89857308Y-69244558D01*
X89880750Y-69268000D01*
X89960810Y-69268000D01*
X89964835Y-69266333D01*
X90034500Y-69280440D01*
X90484500Y-69280440D01*
X90588171Y-69260933D01*
X90684500Y-69280440D01*
X91134500Y-69280440D01*
X91238171Y-69260933D01*
X91334500Y-69280440D01*
X91784500Y-69280440D01*
X92019817Y-69236162D01*
X92235941Y-69097090D01*
X92380931Y-68884890D01*
X92431940Y-68633000D01*
X92431940Y-67183000D01*
X92395435Y-66988992D01*
X92449138Y-66859661D01*
X92449462Y-66487695D01*
X92307417Y-66143919D01*
X92090878Y-65927001D01*
X92133000Y-65825309D01*
X92133000Y-65234750D01*
X91974250Y-65076000D01*
X91495440Y-65076000D01*
X91495440Y-64822000D01*
X91974250Y-64822000D01*
X92133000Y-64663250D01*
X92133000Y-64072691D01*
X92080521Y-63945995D01*
X92217838Y-63615299D01*
X92218162Y-63243333D01*
X92141590Y-63058013D01*
X92145440Y-63039000D01*
X92145440Y-61539000D01*
X92101162Y-61303683D01*
X91962090Y-61087559D01*
X91749890Y-60942569D01*
X91498000Y-60891560D01*
X91098000Y-60891560D01*
X90862683Y-60935838D01*
X90646559Y-61074910D01*
X90645610Y-61076299D01*
X90449890Y-60942569D01*
X90198000Y-60891560D01*
X89798000Y-60891560D01*
X89562683Y-60935838D01*
X89346559Y-61074910D01*
X89201569Y-61287110D01*
X89157648Y-61504000D01*
X88918539Y-61504000D01*
X88895090Y-61467559D01*
X88682890Y-61322569D01*
X88431000Y-61271560D01*
X87531000Y-61271560D01*
X87295683Y-61315838D01*
X87079559Y-61454910D01*
X86934569Y-61667110D01*
X86905532Y-61810500D01*
X86751578Y-61913369D01*
X86716333Y-61913338D01*
X86372557Y-62055383D01*
X86109308Y-62318173D01*
X85966662Y-62661701D01*
X85966338Y-63033667D01*
X86098547Y-63353637D01*
X85982308Y-63469673D01*
X85857019Y-63771400D01*
X74235254Y-63771400D01*
X74247338Y-63742299D01*
X74247662Y-63370333D01*
X74105617Y-63026557D01*
X73842827Y-62763308D01*
X73627940Y-62674079D01*
X73627940Y-62302578D01*
X73697201Y-62331338D01*
X74069167Y-62331662D01*
X74412943Y-62189617D01*
X74676192Y-61926827D01*
X74782041Y-61671917D01*
X74863696Y-61617356D01*
X75064612Y-61416440D01*
X75198000Y-61416440D01*
X75433317Y-61372162D01*
X75649441Y-61233090D01*
X75794431Y-61020890D01*
X75845440Y-60769000D01*
X75845440Y-60648764D01*
X75957173Y-60760692D01*
X76300701Y-60903338D01*
X76672667Y-60903662D01*
X76970803Y-60780475D01*
X77180500Y-60822940D01*
X78080500Y-60822940D01*
X78315817Y-60778662D01*
X78335591Y-60765937D01*
X78283162Y-60892201D01*
X78282838Y-61264167D01*
X78424883Y-61607943D01*
X78687673Y-61871192D01*
X79031201Y-62013838D01*
X79403167Y-62014162D01*
X79618956Y-61925000D01*
X79627370Y-61925000D01*
X79636838Y-61975317D01*
X79775910Y-62191441D01*
X79988110Y-62336431D01*
X80240000Y-62387440D01*
X80990000Y-62387440D01*
X81225317Y-62343162D01*
X81441441Y-62204090D01*
X81586431Y-61991890D01*
X81599977Y-61925000D01*
X81887500Y-61925000D01*
X82187907Y-61865245D01*
X82442579Y-61695079D01*
X82848218Y-61289440D01*
X83240500Y-61289440D01*
X83475817Y-61245162D01*
X83691941Y-61106090D01*
X83718995Y-61066495D01*
X83840907Y-61042245D01*
X83870670Y-61022358D01*
X83916410Y-61093441D01*
X84128610Y-61238431D01*
X84380500Y-61289440D01*
X85440500Y-61289440D01*
X85675817Y-61245162D01*
X85891941Y-61106090D01*
X86036931Y-60893890D01*
X86087940Y-60642000D01*
X86087940Y-60523641D01*
X94964190Y-60523641D01*
X94964190Y-60764250D01*
X95122940Y-60923000D01*
X95872240Y-60923000D01*
X95872240Y-60173700D01*
X96126240Y-60173700D01*
X96126240Y-60923000D01*
X96875540Y-60923000D01*
X97034290Y-60764250D01*
X97034290Y-60523641D01*
X96937617Y-60290252D01*
X96758989Y-60111623D01*
X96525600Y-60014950D01*
X96284990Y-60014950D01*
X96126240Y-60173700D01*
X95872240Y-60173700D01*
X95713490Y-60014950D01*
X95472880Y-60014950D01*
X95239491Y-60111623D01*
X95060863Y-60290252D01*
X94964190Y-60523641D01*
X86087940Y-60523641D01*
X86087940Y-59992000D01*
X86043662Y-59756683D01*
X85904590Y-59540559D01*
X85692390Y-59395569D01*
X85555380Y-59367824D01*
X85675817Y-59345162D01*
X85891941Y-59206090D01*
X85898152Y-59197000D01*
X86130743Y-59197000D01*
X86157410Y-59238441D01*
X86369610Y-59383431D01*
X86621500Y-59434440D01*
X87821500Y-59434440D01*
X88056817Y-59390162D01*
X88160146Y-59323671D01*
X88161802Y-59325327D01*
X88395191Y-59422000D01*
X88835750Y-59422000D01*
X88994500Y-59263250D01*
X88994500Y-58539000D01*
X89248500Y-58539000D01*
X89248500Y-59263250D01*
X89407250Y-59422000D01*
X89847809Y-59422000D01*
X90081198Y-59325327D01*
X90259827Y-59146699D01*
X90356500Y-58913310D01*
X90356500Y-58697750D01*
X90197750Y-58539000D01*
X89248500Y-58539000D01*
X88994500Y-58539000D01*
X88974500Y-58539000D01*
X88974500Y-58285000D01*
X88994500Y-58285000D01*
X88994500Y-57560750D01*
X89248500Y-57560750D01*
X89248500Y-58285000D01*
X90197750Y-58285000D01*
X90356500Y-58126250D01*
X90356500Y-57910690D01*
X90259827Y-57677301D01*
X90081198Y-57498673D01*
X89847809Y-57402000D01*
X89407250Y-57402000D01*
X89248500Y-57560750D01*
X88994500Y-57560750D01*
X88835750Y-57402000D01*
X88395191Y-57402000D01*
X88161802Y-57498673D01*
X88160432Y-57500043D01*
X88073390Y-57440569D01*
X88006140Y-57426950D01*
X88006162Y-57401333D01*
X87864117Y-57057557D01*
X87601327Y-56794308D01*
X87257799Y-56651662D01*
X86885833Y-56651338D01*
X86542057Y-56793383D01*
X86278808Y-57056173D01*
X86136162Y-57399701D01*
X86135968Y-57622804D01*
X86133101Y-57627000D01*
X85884746Y-57627000D01*
X85692390Y-57495569D01*
X85440500Y-57444560D01*
X84380500Y-57444560D01*
X84145183Y-57488838D01*
X83929059Y-57627910D01*
X83871478Y-57712182D01*
X83840907Y-57691755D01*
X83722360Y-57668174D01*
X83704590Y-57640559D01*
X83492390Y-57495569D01*
X83240500Y-57444560D01*
X82180500Y-57444560D01*
X81945183Y-57488838D01*
X81729059Y-57627910D01*
X81584069Y-57840110D01*
X81533060Y-58092000D01*
X81533060Y-58291728D01*
X81528327Y-58280302D01*
X81349699Y-58101673D01*
X81116310Y-58005000D01*
X80900750Y-58005000D01*
X80742000Y-58163750D01*
X80742000Y-59113000D01*
X81466250Y-59113000D01*
X81545500Y-59033750D01*
X81545500Y-59081250D01*
X81704250Y-59240000D01*
X81784551Y-59240000D01*
X81928610Y-59338431D01*
X82065620Y-59366176D01*
X81945183Y-59388838D01*
X81781757Y-59494000D01*
X81704250Y-59494000D01*
X81625000Y-59573250D01*
X81625000Y-59525750D01*
X81466250Y-59367000D01*
X80742000Y-59367000D01*
X80742000Y-59387000D01*
X80488000Y-59387000D01*
X80488000Y-59367000D01*
X79763750Y-59367000D01*
X79605000Y-59525750D01*
X79605000Y-59966309D01*
X79701673Y-60199698D01*
X79703043Y-60201068D01*
X79667415Y-60253210D01*
X79404799Y-60144162D01*
X79032833Y-60143838D01*
X78707096Y-60278429D01*
X78727940Y-60175500D01*
X78727940Y-58975500D01*
X78683662Y-58740183D01*
X78544590Y-58524059D01*
X78529416Y-58513691D01*
X79605000Y-58513691D01*
X79605000Y-58954250D01*
X79763750Y-59113000D01*
X80488000Y-59113000D01*
X80488000Y-58163750D01*
X80329250Y-58005000D01*
X80113690Y-58005000D01*
X79880301Y-58101673D01*
X79701673Y-58280302D01*
X79605000Y-58513691D01*
X78529416Y-58513691D01*
X78474789Y-58476366D01*
X78531941Y-58439590D01*
X78676931Y-58227390D01*
X78727940Y-57975500D01*
X78727940Y-56775500D01*
X78683662Y-56540183D01*
X78544590Y-56324059D01*
X78332390Y-56179069D01*
X78080500Y-56128060D01*
X77180500Y-56128060D01*
X76945183Y-56172338D01*
X76729059Y-56311410D01*
X76584069Y-56523610D01*
X76554940Y-56667456D01*
X76416615Y-56694970D01*
X76296094Y-56775500D01*
X76177645Y-56854645D01*
X75649145Y-57383145D01*
X75489470Y-57622115D01*
X75433400Y-57904000D01*
X75433400Y-58074090D01*
X75296676Y-58210814D01*
X75185300Y-58188260D01*
X74335300Y-58188260D01*
X74224579Y-58209094D01*
X74121700Y-58188260D01*
X73271700Y-58188260D01*
X73158980Y-58209470D01*
X71804155Y-56854645D01*
X71605907Y-56722180D01*
X71571662Y-56540183D01*
X71432590Y-56324059D01*
X71220390Y-56179069D01*
X70968500Y-56128060D01*
X70068500Y-56128060D01*
X69833183Y-56172338D01*
X69617059Y-56311410D01*
X69472069Y-56523610D01*
X69421060Y-56775500D01*
X69421060Y-57975500D01*
X69465338Y-58210817D01*
X69604410Y-58426941D01*
X69674211Y-58474634D01*
X69617059Y-58511410D01*
X69472069Y-58723610D01*
X69421060Y-58975500D01*
X69421060Y-60175500D01*
X69465338Y-60410817D01*
X69604410Y-60626941D01*
X69816610Y-60771931D01*
X70068500Y-60822940D01*
X70968500Y-60822940D01*
X71203817Y-60778662D01*
X71245322Y-60751954D01*
X71378701Y-60807338D01*
X71396894Y-60807354D01*
X71361662Y-60892201D01*
X71361338Y-61264167D01*
X71503383Y-61607943D01*
X71523011Y-61627605D01*
X71329059Y-61752410D01*
X71281366Y-61822211D01*
X71244590Y-61765059D01*
X71032390Y-61620069D01*
X70780500Y-61569060D01*
X69580500Y-61569060D01*
X69345183Y-61613338D01*
X69129059Y-61752410D01*
X69007785Y-61929900D01*
X68907401Y-61929900D01*
X68849590Y-61840059D01*
X68637390Y-61695069D01*
X68522100Y-61671722D01*
X68522100Y-61567737D01*
X68620817Y-61549162D01*
X68836941Y-61410090D01*
X68981931Y-61197890D01*
X69032940Y-60946000D01*
X69032940Y-60196000D01*
X68988662Y-59960683D01*
X68849590Y-59744559D01*
X68637390Y-59599569D01*
X68385500Y-59548560D01*
X67185500Y-59548560D01*
X66950183Y-59592838D01*
X66846854Y-59659329D01*
X66845198Y-59657673D01*
X66611809Y-59561000D01*
X66171250Y-59561000D01*
X66012500Y-59719750D01*
X66012500Y-60444000D01*
X66032500Y-60444000D01*
X66032500Y-60698000D01*
X66012500Y-60698000D01*
X66012500Y-61422250D01*
X66171250Y-61581000D01*
X66491793Y-61581000D01*
X66460443Y-61656500D01*
X66171250Y-61656500D01*
X66012500Y-61815250D01*
X66012500Y-62539500D01*
X66032500Y-62539500D01*
X66032500Y-62793500D01*
X66012500Y-62793500D01*
X66012500Y-62813500D01*
X65758500Y-62813500D01*
X65758500Y-62793500D01*
X64936113Y-62793500D01*
X64672799Y-62684162D01*
X64300833Y-62683838D01*
X63957057Y-62825883D01*
X63693808Y-63088673D01*
X63551162Y-63432201D01*
X63550838Y-63804167D01*
X63558900Y-63823679D01*
X63558900Y-65626800D01*
X63614970Y-65908685D01*
X63774645Y-66147655D01*
X63866181Y-66239191D01*
X63699559Y-66346410D01*
X63554569Y-66558610D01*
X63503560Y-66810500D01*
X63503560Y-68110500D01*
X63545328Y-68332475D01*
X63412600Y-68305597D01*
X63412600Y-62165190D01*
X64650500Y-62165190D01*
X64650500Y-62380750D01*
X64809250Y-62539500D01*
X65758500Y-62539500D01*
X65758500Y-61815250D01*
X65599750Y-61656500D01*
X65159191Y-61656500D01*
X64925802Y-61753173D01*
X64747173Y-61931801D01*
X64650500Y-62165190D01*
X63412600Y-62165190D01*
X63412600Y-60856750D01*
X64650500Y-60856750D01*
X64650500Y-61072310D01*
X64747173Y-61305699D01*
X64925802Y-61484327D01*
X65159191Y-61581000D01*
X65599750Y-61581000D01*
X65758500Y-61422250D01*
X65758500Y-60698000D01*
X64809250Y-60698000D01*
X64650500Y-60856750D01*
X63412600Y-60856750D01*
X63412600Y-60069690D01*
X64650500Y-60069690D01*
X64650500Y-60285250D01*
X64809250Y-60444000D01*
X65758500Y-60444000D01*
X65758500Y-59719750D01*
X65599750Y-59561000D01*
X65159191Y-59561000D01*
X64925802Y-59657673D01*
X64747173Y-59836301D01*
X64650500Y-60069690D01*
X63412600Y-60069690D01*
X63412600Y-59253516D01*
X63486455Y-59238825D01*
X64022078Y-58880933D01*
X64379970Y-58345310D01*
X64505645Y-57713500D01*
X64379970Y-57081690D01*
X64022078Y-56546067D01*
X63486455Y-56188175D01*
X62854645Y-56062500D01*
X62789955Y-56062500D01*
X62158145Y-56188175D01*
X61855338Y-56390504D01*
X61762390Y-56246059D01*
X61550190Y-56101069D01*
X61298300Y-56050060D01*
X59266300Y-56050060D01*
X59030983Y-56094338D01*
X58814859Y-56233410D01*
X58669869Y-56445610D01*
X58618860Y-56697500D01*
X58618860Y-58729500D01*
X58663138Y-58964817D01*
X58802210Y-59180941D01*
X59014410Y-59325931D01*
X59266300Y-59376940D01*
X59710252Y-59376940D01*
X59761445Y-59453555D01*
X60891900Y-60584010D01*
X60891900Y-66557476D01*
X60612500Y-66501900D01*
X60596662Y-66501900D01*
X60490590Y-66337059D01*
X60278390Y-66192069D01*
X60026500Y-66141060D01*
X58826500Y-66141060D01*
X58690049Y-66166735D01*
X58690162Y-66037333D01*
X58548117Y-65693557D01*
X58285327Y-65430308D01*
X57941799Y-65287662D01*
X57569833Y-65287338D01*
X57226057Y-65429383D01*
X56962808Y-65692173D01*
X56881069Y-65889021D01*
X56705645Y-66064445D01*
X56654452Y-66141060D01*
X56626500Y-66141060D01*
X56391183Y-66185338D01*
X56175059Y-66324410D01*
X56076436Y-66468750D01*
X55957590Y-66284059D01*
X55745390Y-66139069D01*
X55493500Y-66088060D01*
X55428500Y-66088060D01*
X55428500Y-65468158D01*
X56328879Y-64567779D01*
X56499045Y-64313106D01*
X56529114Y-64161941D01*
X56624021Y-64100870D01*
X56709416Y-63975890D01*
X56772987Y-63963245D01*
X57027659Y-63793079D01*
X57548079Y-63272659D01*
X57718245Y-63017987D01*
X57767594Y-62769894D01*
X57785192Y-62752327D01*
X57927838Y-62408799D01*
X57928162Y-62036833D01*
X57786117Y-61693057D01*
X57523327Y-61429808D01*
X57179799Y-61287162D01*
X56807833Y-61286838D01*
X56464057Y-61428883D01*
X56200808Y-61691673D01*
X56058162Y-62035201D01*
X56058026Y-62191780D01*
X55375020Y-62191780D01*
X55139703Y-62236058D01*
X55024507Y-62310185D01*
X54925870Y-62242789D01*
X54673980Y-62191780D01*
X53876420Y-62191780D01*
X53641103Y-62236058D01*
X53424979Y-62375130D01*
X53338702Y-62501400D01*
X52942932Y-62501400D01*
X52890590Y-62420059D01*
X52678390Y-62275069D01*
X52426500Y-62224060D01*
X52077988Y-62224060D01*
X53169515Y-61773050D01*
X54249259Y-60695189D01*
X54834333Y-59286175D01*
X54835664Y-57760518D01*
X54253050Y-56350485D01*
X53875225Y-55972000D01*
X105274203Y-55972000D01*
X104900741Y-56344811D01*
G36*
X81447500Y-75595940D02*
X81897500Y-75595940D01*
X81928878Y-75590036D01*
X82260421Y-75921579D01*
X82515093Y-76091745D01*
X82685046Y-76125551D01*
X82728410Y-76192941D01*
X82763709Y-76217060D01*
X82018000Y-76217060D01*
X81782683Y-76261338D01*
X81566559Y-76400410D01*
X81504446Y-76491315D01*
X81454090Y-76413059D01*
X81241890Y-76268069D01*
X80990000Y-76217060D01*
X80705954Y-76217060D01*
X80708692Y-76214327D01*
X80851338Y-75870799D01*
X80851577Y-75595940D01*
X81247500Y-75595940D01*
X81351171Y-75576433D01*
X81447500Y-75595940D01*
X81447500Y-75595940D01*
G37*
X81447500Y-75595940D02*
X81897500Y-75595940D01*
X81928878Y-75590036D01*
X82260421Y-75921579D01*
X82515093Y-76091745D01*
X82685046Y-76125551D01*
X82728410Y-76192941D01*
X82763709Y-76217060D01*
X82018000Y-76217060D01*
X81782683Y-76261338D01*
X81566559Y-76400410D01*
X81504446Y-76491315D01*
X81454090Y-76413059D01*
X81241890Y-76268069D01*
X80990000Y-76217060D01*
X80705954Y-76217060D01*
X80708692Y-76214327D01*
X80851338Y-75870799D01*
X80851577Y-75595940D01*
X81247500Y-75595940D01*
X81351171Y-75576433D01*
X81447500Y-75595940D01*
G36*
X83377883Y-65671943D02*
X83640673Y-65935192D01*
X83984201Y-66077838D01*
X84356167Y-66078162D01*
X84699943Y-65936117D01*
X84940365Y-65696115D01*
X84970750Y-65726500D01*
X85695000Y-65726500D01*
X85695000Y-65706500D01*
X85949000Y-65706500D01*
X85949000Y-65726500D01*
X85969000Y-65726500D01*
X85969000Y-65980500D01*
X85949000Y-65980500D01*
X85949000Y-66000500D01*
X85695000Y-66000500D01*
X85695000Y-65980500D01*
X84970750Y-65980500D01*
X84812000Y-66139250D01*
X84812000Y-66379809D01*
X84908673Y-66613198D01*
X84910043Y-66614568D01*
X84850569Y-66701610D01*
X84799560Y-66953500D01*
X84799560Y-67753500D01*
X84819847Y-67861316D01*
X84738799Y-67827662D01*
X84366833Y-67827338D01*
X84023057Y-67969383D01*
X83932744Y-68059539D01*
X83711421Y-68207421D01*
X83711419Y-68207424D01*
X83488921Y-68429921D01*
X83318755Y-68684593D01*
X83313523Y-68710898D01*
X83142559Y-68820910D01*
X82997569Y-69033110D01*
X82946560Y-69285000D01*
X82946560Y-70485000D01*
X82990838Y-70720317D01*
X83129910Y-70936441D01*
X83199711Y-70984134D01*
X83142559Y-71020910D01*
X82997569Y-71233110D01*
X82946560Y-71485000D01*
X82946560Y-72411780D01*
X82928885Y-72399970D01*
X82647000Y-72343900D01*
X81237300Y-72343900D01*
X81232644Y-72344826D01*
X81232662Y-72323833D01*
X81118299Y-72047052D01*
X81244667Y-72047162D01*
X81588443Y-71905117D01*
X81851692Y-71642327D01*
X81994338Y-71298799D01*
X81994408Y-71218802D01*
X82151855Y-71061355D01*
X82311530Y-70822385D01*
X82367600Y-70540500D01*
X82367600Y-69860200D01*
X82311530Y-69578315D01*
X82293177Y-69550848D01*
X82435827Y-69408198D01*
X82532500Y-69174809D01*
X82532500Y-68609250D01*
X82373750Y-68450500D01*
X81894940Y-68450500D01*
X81894940Y-68196500D01*
X82373750Y-68196500D01*
X82532500Y-68037750D01*
X82532500Y-67472191D01*
X82435827Y-67238802D01*
X82354603Y-67157578D01*
X82451167Y-67157662D01*
X82794943Y-67015617D01*
X83058192Y-66752827D01*
X83200838Y-66409299D01*
X83201162Y-66037333D01*
X83059117Y-65693557D01*
X83016644Y-65651010D01*
X83369234Y-65651010D01*
X83377883Y-65671943D01*
X83377883Y-65671943D01*
G37*
X83377883Y-65671943D02*
X83640673Y-65935192D01*
X83984201Y-66077838D01*
X84356167Y-66078162D01*
X84699943Y-65936117D01*
X84940365Y-65696115D01*
X84970750Y-65726500D01*
X85695000Y-65726500D01*
X85695000Y-65706500D01*
X85949000Y-65706500D01*
X85949000Y-65726500D01*
X85969000Y-65726500D01*
X85969000Y-65980500D01*
X85949000Y-65980500D01*
X85949000Y-66000500D01*
X85695000Y-66000500D01*
X85695000Y-65980500D01*
X84970750Y-65980500D01*
X84812000Y-66139250D01*
X84812000Y-66379809D01*
X84908673Y-66613198D01*
X84910043Y-66614568D01*
X84850569Y-66701610D01*
X84799560Y-66953500D01*
X84799560Y-67753500D01*
X84819847Y-67861316D01*
X84738799Y-67827662D01*
X84366833Y-67827338D01*
X84023057Y-67969383D01*
X83932744Y-68059539D01*
X83711421Y-68207421D01*
X83711419Y-68207424D01*
X83488921Y-68429921D01*
X83318755Y-68684593D01*
X83313523Y-68710898D01*
X83142559Y-68820910D01*
X82997569Y-69033110D01*
X82946560Y-69285000D01*
X82946560Y-70485000D01*
X82990838Y-70720317D01*
X83129910Y-70936441D01*
X83199711Y-70984134D01*
X83142559Y-71020910D01*
X82997569Y-71233110D01*
X82946560Y-71485000D01*
X82946560Y-72411780D01*
X82928885Y-72399970D01*
X82647000Y-72343900D01*
X81237300Y-72343900D01*
X81232644Y-72344826D01*
X81232662Y-72323833D01*
X81118299Y-72047052D01*
X81244667Y-72047162D01*
X81588443Y-71905117D01*
X81851692Y-71642327D01*
X81994338Y-71298799D01*
X81994408Y-71218802D01*
X82151855Y-71061355D01*
X82311530Y-70822385D01*
X82367600Y-70540500D01*
X82367600Y-69860200D01*
X82311530Y-69578315D01*
X82293177Y-69550848D01*
X82435827Y-69408198D01*
X82532500Y-69174809D01*
X82532500Y-68609250D01*
X82373750Y-68450500D01*
X81894940Y-68450500D01*
X81894940Y-68196500D01*
X82373750Y-68196500D01*
X82532500Y-68037750D01*
X82532500Y-67472191D01*
X82435827Y-67238802D01*
X82354603Y-67157578D01*
X82451167Y-67157662D01*
X82794943Y-67015617D01*
X83058192Y-66752827D01*
X83200838Y-66409299D01*
X83201162Y-66037333D01*
X83059117Y-65693557D01*
X83016644Y-65651010D01*
X83369234Y-65651010D01*
X83377883Y-65671943D01*
G36*
X58826500Y-70304440D02*
X60026500Y-70304440D01*
X60066400Y-70296932D01*
X60066400Y-70615450D01*
X60122470Y-70897335D01*
X60282145Y-71136305D01*
X60969740Y-71823900D01*
X58148513Y-71823900D01*
X58056790Y-71681359D01*
X58055059Y-71680176D01*
X58055162Y-71561833D01*
X57913117Y-71218057D01*
X57853251Y-71158086D01*
X57940167Y-71158162D01*
X58283943Y-71016117D01*
X58547192Y-70753327D01*
X58689838Y-70409799D01*
X58689954Y-70276789D01*
X58826500Y-70304440D01*
X58826500Y-70304440D01*
G37*
X58826500Y-70304440D02*
X60026500Y-70304440D01*
X60066400Y-70296932D01*
X60066400Y-70615450D01*
X60122470Y-70897335D01*
X60282145Y-71136305D01*
X60969740Y-71823900D01*
X58148513Y-71823900D01*
X58056790Y-71681359D01*
X58055059Y-71680176D01*
X58055162Y-71561833D01*
X57913117Y-71218057D01*
X57853251Y-71158086D01*
X57940167Y-71158162D01*
X58283943Y-71016117D01*
X58547192Y-70753327D01*
X58689838Y-70409799D01*
X58689954Y-70276789D01*
X58826500Y-70304440D01*
G36*
X48824811Y-61769259D02*
X50233825Y-62354333D01*
X51156292Y-62355138D01*
X51075059Y-62407410D01*
X50930069Y-62619610D01*
X50879060Y-62871500D01*
X50879060Y-64071500D01*
X50923338Y-64306817D01*
X51062410Y-64522941D01*
X51130506Y-64569469D01*
X50988173Y-64711802D01*
X50891500Y-64945191D01*
X50891500Y-65385750D01*
X51050250Y-65544500D01*
X51849500Y-65544500D01*
X51849500Y-65524500D01*
X52103500Y-65524500D01*
X52103500Y-65544500D01*
X52902750Y-65544500D01*
X53061500Y-65385750D01*
X53061500Y-64945191D01*
X52964827Y-64711802D01*
X52823590Y-64570564D01*
X52877941Y-64535590D01*
X53022931Y-64323390D01*
X53073940Y-64071500D01*
X53073940Y-63974600D01*
X53339217Y-63974600D01*
X53412330Y-64088221D01*
X53624530Y-64233211D01*
X53876420Y-64284220D01*
X54392122Y-64284220D01*
X54088421Y-64587921D01*
X53918255Y-64842593D01*
X53884208Y-65013759D01*
X53858500Y-65143000D01*
X53858500Y-66088060D01*
X53793500Y-66088060D01*
X53558183Y-66132338D01*
X53342059Y-66271410D01*
X53197069Y-66483610D01*
X53146060Y-66735500D01*
X53146060Y-67635500D01*
X53190338Y-67870817D01*
X53329410Y-68086941D01*
X53541610Y-68231931D01*
X53793500Y-68282940D01*
X53835475Y-68282940D01*
X53835338Y-68439667D01*
X53977383Y-68783443D01*
X54181643Y-68988060D01*
X53793500Y-68988060D01*
X53558183Y-69032338D01*
X53342059Y-69171410D01*
X53197069Y-69383610D01*
X53146060Y-69635500D01*
X53146060Y-70535500D01*
X53190338Y-70770817D01*
X53329410Y-70986941D01*
X53541610Y-71131931D01*
X53793500Y-71182940D01*
X54303000Y-71182940D01*
X54303000Y-71730400D01*
X52950740Y-71730400D01*
X52950740Y-70596800D01*
X52906462Y-70361483D01*
X52767390Y-70145359D01*
X52555190Y-70000369D01*
X52303300Y-69949360D01*
X50543340Y-69949360D01*
X50543340Y-69689600D01*
X50499062Y-69454283D01*
X50359990Y-69238159D01*
X50147790Y-69093169D01*
X49895900Y-69042160D01*
X48457000Y-69042160D01*
X48457000Y-65957250D01*
X50891500Y-65957250D01*
X50891500Y-66397809D01*
X50988173Y-66631198D01*
X51166801Y-66809827D01*
X51400190Y-66906500D01*
X51690750Y-66906500D01*
X51849500Y-66747750D01*
X51849500Y-65798500D01*
X52103500Y-65798500D01*
X52103500Y-66747750D01*
X52262250Y-66906500D01*
X52552810Y-66906500D01*
X52786199Y-66809827D01*
X52964827Y-66631198D01*
X53061500Y-66397809D01*
X53061500Y-65957250D01*
X52902750Y-65798500D01*
X52103500Y-65798500D01*
X51849500Y-65798500D01*
X51050250Y-65798500D01*
X50891500Y-65957250D01*
X48457000Y-65957250D01*
X48457000Y-61400805D01*
X48824811Y-61769259D01*
X48824811Y-61769259D01*
G37*
X48824811Y-61769259D02*
X50233825Y-62354333D01*
X51156292Y-62355138D01*
X51075059Y-62407410D01*
X50930069Y-62619610D01*
X50879060Y-62871500D01*
X50879060Y-64071500D01*
X50923338Y-64306817D01*
X51062410Y-64522941D01*
X51130506Y-64569469D01*
X50988173Y-64711802D01*
X50891500Y-64945191D01*
X50891500Y-65385750D01*
X51050250Y-65544500D01*
X51849500Y-65544500D01*
X51849500Y-65524500D01*
X52103500Y-65524500D01*
X52103500Y-65544500D01*
X52902750Y-65544500D01*
X53061500Y-65385750D01*
X53061500Y-64945191D01*
X52964827Y-64711802D01*
X52823590Y-64570564D01*
X52877941Y-64535590D01*
X53022931Y-64323390D01*
X53073940Y-64071500D01*
X53073940Y-63974600D01*
X53339217Y-63974600D01*
X53412330Y-64088221D01*
X53624530Y-64233211D01*
X53876420Y-64284220D01*
X54392122Y-64284220D01*
X54088421Y-64587921D01*
X53918255Y-64842593D01*
X53884208Y-65013759D01*
X53858500Y-65143000D01*
X53858500Y-66088060D01*
X53793500Y-66088060D01*
X53558183Y-66132338D01*
X53342059Y-66271410D01*
X53197069Y-66483610D01*
X53146060Y-66735500D01*
X53146060Y-67635500D01*
X53190338Y-67870817D01*
X53329410Y-68086941D01*
X53541610Y-68231931D01*
X53793500Y-68282940D01*
X53835475Y-68282940D01*
X53835338Y-68439667D01*
X53977383Y-68783443D01*
X54181643Y-68988060D01*
X53793500Y-68988060D01*
X53558183Y-69032338D01*
X53342059Y-69171410D01*
X53197069Y-69383610D01*
X53146060Y-69635500D01*
X53146060Y-70535500D01*
X53190338Y-70770817D01*
X53329410Y-70986941D01*
X53541610Y-71131931D01*
X53793500Y-71182940D01*
X54303000Y-71182940D01*
X54303000Y-71730400D01*
X52950740Y-71730400D01*
X52950740Y-70596800D01*
X52906462Y-70361483D01*
X52767390Y-70145359D01*
X52555190Y-70000369D01*
X52303300Y-69949360D01*
X50543340Y-69949360D01*
X50543340Y-69689600D01*
X50499062Y-69454283D01*
X50359990Y-69238159D01*
X50147790Y-69093169D01*
X49895900Y-69042160D01*
X48457000Y-69042160D01*
X48457000Y-65957250D01*
X50891500Y-65957250D01*
X50891500Y-66397809D01*
X50988173Y-66631198D01*
X51166801Y-66809827D01*
X51400190Y-66906500D01*
X51690750Y-66906500D01*
X51849500Y-66747750D01*
X51849500Y-65798500D01*
X52103500Y-65798500D01*
X52103500Y-66747750D01*
X52262250Y-66906500D01*
X52552810Y-66906500D01*
X52786199Y-66809827D01*
X52964827Y-66631198D01*
X53061500Y-66397809D01*
X53061500Y-65957250D01*
X52902750Y-65798500D01*
X52103500Y-65798500D01*
X51849500Y-65798500D01*
X51050250Y-65798500D01*
X50891500Y-65957250D01*
X48457000Y-65957250D01*
X48457000Y-61400805D01*
X48824811Y-61769259D01*
G36*
X72559805Y-65435265D02*
X72798775Y-65594940D01*
X73080660Y-65651010D01*
X78727581Y-65651010D01*
X78727338Y-65929867D01*
X78869383Y-66273643D01*
X78901014Y-66305329D01*
X78562057Y-66445383D01*
X78298808Y-66708173D01*
X78197952Y-66951060D01*
X78197500Y-66951060D01*
X78093829Y-66970567D01*
X77997500Y-66951060D01*
X77547500Y-66951060D01*
X77443829Y-66970567D01*
X77347500Y-66951060D01*
X76897500Y-66951060D01*
X76793829Y-66970567D01*
X76697500Y-66951060D01*
X76247500Y-66951060D01*
X76176177Y-66964480D01*
X76173810Y-66963500D01*
X76093750Y-66963500D01*
X76073438Y-66983812D01*
X76012183Y-66995338D01*
X75796059Y-67134410D01*
X75710000Y-67260362D01*
X75710000Y-67122250D01*
X75551250Y-66963500D01*
X75471190Y-66963500D01*
X75237801Y-67060173D01*
X75059173Y-67238802D01*
X74962500Y-67472191D01*
X74962500Y-68037750D01*
X75121250Y-68196500D01*
X75600060Y-68196500D01*
X75600060Y-68450500D01*
X75121250Y-68450500D01*
X74962500Y-68609250D01*
X74962500Y-68930084D01*
X74731827Y-68699008D01*
X74388299Y-68556362D01*
X74286132Y-68556273D01*
X74232617Y-68426757D01*
X73969827Y-68163508D01*
X73626299Y-68020862D01*
X73476605Y-68020732D01*
X73407117Y-67852557D01*
X73144327Y-67589308D01*
X72800799Y-67446662D01*
X72790799Y-67446653D01*
X72708617Y-67247757D01*
X72445827Y-66984508D01*
X72102299Y-66841862D01*
X71730333Y-66841538D01*
X71553722Y-66914512D01*
X71440709Y-66801499D01*
X71356855Y-66676003D01*
X70572997Y-65892145D01*
X70541444Y-65871062D01*
X70548692Y-65863827D01*
X70691338Y-65520299D01*
X70691662Y-65148333D01*
X70626488Y-64990600D01*
X72115140Y-64990600D01*
X72559805Y-65435265D01*
X72559805Y-65435265D01*
G37*
X72559805Y-65435265D02*
X72798775Y-65594940D01*
X73080660Y-65651010D01*
X78727581Y-65651010D01*
X78727338Y-65929867D01*
X78869383Y-66273643D01*
X78901014Y-66305329D01*
X78562057Y-66445383D01*
X78298808Y-66708173D01*
X78197952Y-66951060D01*
X78197500Y-66951060D01*
X78093829Y-66970567D01*
X77997500Y-66951060D01*
X77547500Y-66951060D01*
X77443829Y-66970567D01*
X77347500Y-66951060D01*
X76897500Y-66951060D01*
X76793829Y-66970567D01*
X76697500Y-66951060D01*
X76247500Y-66951060D01*
X76176177Y-66964480D01*
X76173810Y-66963500D01*
X76093750Y-66963500D01*
X76073438Y-66983812D01*
X76012183Y-66995338D01*
X75796059Y-67134410D01*
X75710000Y-67260362D01*
X75710000Y-67122250D01*
X75551250Y-66963500D01*
X75471190Y-66963500D01*
X75237801Y-67060173D01*
X75059173Y-67238802D01*
X74962500Y-67472191D01*
X74962500Y-68037750D01*
X75121250Y-68196500D01*
X75600060Y-68196500D01*
X75600060Y-68450500D01*
X75121250Y-68450500D01*
X74962500Y-68609250D01*
X74962500Y-68930084D01*
X74731827Y-68699008D01*
X74388299Y-68556362D01*
X74286132Y-68556273D01*
X74232617Y-68426757D01*
X73969827Y-68163508D01*
X73626299Y-68020862D01*
X73476605Y-68020732D01*
X73407117Y-67852557D01*
X73144327Y-67589308D01*
X72800799Y-67446662D01*
X72790799Y-67446653D01*
X72708617Y-67247757D01*
X72445827Y-66984508D01*
X72102299Y-66841862D01*
X71730333Y-66841538D01*
X71553722Y-66914512D01*
X71440709Y-66801499D01*
X71356855Y-66676003D01*
X70572997Y-65892145D01*
X70541444Y-65871062D01*
X70548692Y-65863827D01*
X70691338Y-65520299D01*
X70691662Y-65148333D01*
X70626488Y-64990600D01*
X72115140Y-64990600D01*
X72559805Y-65435265D01*
M02*
