G04 #@! TF.FileFunction,Soldermask,Top*
%FSLAX46Y46*%
G04 Gerber Fmt 4.6, Leading zero omitted, Abs format (unit mm)*
G04 Created by KiCad (PCBNEW 4.0.4-stable) date 03/04/17 14:03:53*
%MOMM*%
%LPD*%
G01*
G04 APERTURE LIST*
%ADD10C,0.100000*%
%ADD11R,1.300000X1.600000*%
%ADD12R,1.150000X1.600000*%
%ADD13R,1.650000X1.900000*%
%ADD14R,1.600000X1.150000*%
%ADD15R,1.900000X1.650000*%
%ADD16R,1.600000X1.300000*%
%ADD17R,1.460000X1.050000*%
%ADD18R,1.700000X0.650000*%
%ADD19R,0.650000X1.700000*%
%ADD20R,0.850000X1.850000*%
%ADD21R,1.200100X1.200100*%
%ADD22R,1.250000X1.050000*%
%ADD23R,2.432000X2.432000*%
%ADD24O,2.432000X2.432000*%
%ADD25R,2.432000X2.127200*%
%ADD26O,2.432000X2.127200*%
%ADD27R,1.197560X1.197560*%
%ADD28R,1.800000X2.400000*%
%ADD29R,1.780000X0.850000*%
%ADD30R,2.500000X1.875000*%
%ADD31R,2.300000X2.775000*%
%ADD32R,1.400000X1.000000*%
%ADD33R,1.700000X1.300000*%
%ADD34R,0.740000X2.900000*%
%ADD35C,6.800000*%
%ADD36R,1.150000X1.200000*%
%ADD37R,2.100000X1.300000*%
%ADD38R,2.127200X2.127200*%
%ADD39O,2.127200X2.127200*%
%ADD40R,0.800000X1.900000*%
G04 APERTURE END LIST*
D10*
D11*
X51976500Y-63471500D03*
X51976500Y-65671500D03*
D12*
X80615000Y-61140000D03*
X80615000Y-59240000D03*
D13*
X73376000Y-85570000D03*
X73376000Y-83070000D03*
D14*
X87221500Y-58412000D03*
X89121500Y-58412000D03*
D15*
X78436000Y-90035000D03*
X75936000Y-90035000D03*
D13*
X81123000Y-86903500D03*
X81123000Y-84403500D03*
D14*
X91153500Y-89844500D03*
X89253500Y-89844500D03*
D12*
X73757000Y-74734000D03*
X73757000Y-76634000D03*
D14*
X83792500Y-75366500D03*
X85692500Y-75366500D03*
D15*
X78118500Y-79494000D03*
X75618500Y-79494000D03*
D12*
X88489000Y-80131500D03*
X88489000Y-82031500D03*
X90648000Y-80131500D03*
X90648000Y-82031500D03*
D11*
X59914000Y-77292000D03*
X59914000Y-75092000D03*
D16*
X88446000Y-85844000D03*
X86246000Y-85844000D03*
D11*
X70518500Y-59575500D03*
X70518500Y-57375500D03*
X77630500Y-59575500D03*
X77630500Y-57375500D03*
D17*
X82710500Y-58417000D03*
X82710500Y-59367000D03*
X82710500Y-60317000D03*
X84910500Y-60317000D03*
X84910500Y-58417000D03*
D18*
X62676000Y-69060500D03*
X62676000Y-69560500D03*
X62676000Y-70060500D03*
X62676000Y-70560500D03*
X62676000Y-71060500D03*
X62676000Y-71560500D03*
X62676000Y-72060500D03*
X62676000Y-72560500D03*
X62676000Y-73060500D03*
X62676000Y-73560500D03*
X62676000Y-74060500D03*
X62676000Y-74560500D03*
D19*
X64276000Y-76160500D03*
X64776000Y-76160500D03*
X65276000Y-76160500D03*
X65776000Y-76160500D03*
X66276000Y-76160500D03*
X66776000Y-76160500D03*
X67276000Y-76160500D03*
X67776000Y-76160500D03*
X68276000Y-76160500D03*
X68776000Y-76160500D03*
X69276000Y-76160500D03*
X69776000Y-76160500D03*
D18*
X71376000Y-74560500D03*
X71376000Y-74060500D03*
X71376000Y-73560500D03*
X71376000Y-73060500D03*
X71376000Y-72560500D03*
X71376000Y-72060500D03*
X71376000Y-71560500D03*
X71376000Y-71060500D03*
X71376000Y-70560500D03*
X71376000Y-70060500D03*
X71376000Y-69560500D03*
X71376000Y-69060500D03*
D19*
X69776000Y-67460500D03*
X69276000Y-67460500D03*
X68776000Y-67460500D03*
X68276000Y-67460500D03*
X67776000Y-67460500D03*
X67276000Y-67460500D03*
X66776000Y-67460500D03*
X66276000Y-67460500D03*
X65776000Y-67460500D03*
X65276000Y-67460500D03*
X64776000Y-67460500D03*
X64276000Y-67460500D03*
D20*
X81672500Y-68323500D03*
X81022500Y-68323500D03*
X80372500Y-68323500D03*
X79722500Y-68323500D03*
X79072500Y-68323500D03*
X78422500Y-68323500D03*
X77772500Y-68323500D03*
X77122500Y-68323500D03*
X76472500Y-68323500D03*
X75822500Y-68323500D03*
X75822500Y-74223500D03*
X76472500Y-74223500D03*
X77122500Y-74223500D03*
X77772500Y-74223500D03*
X78422500Y-74223500D03*
X79072500Y-74223500D03*
X79722500Y-74223500D03*
X80372500Y-74223500D03*
X81022500Y-74223500D03*
X81672500Y-74223500D03*
D21*
X86378260Y-81904500D03*
X86378260Y-80004500D03*
X84379280Y-80954500D03*
D22*
X74773000Y-60444000D03*
X73696700Y-60444000D03*
X74760300Y-59160700D03*
X73696700Y-59160700D03*
D23*
X60282300Y-57713500D03*
D24*
X62822300Y-57713500D03*
D25*
X60549000Y-82542000D03*
D26*
X60549000Y-85082000D03*
X60549000Y-87622000D03*
D27*
X55773800Y-63238000D03*
X54275200Y-63238000D03*
D28*
X95457000Y-86500000D03*
X91145000Y-86500000D03*
D16*
X95748500Y-89844500D03*
X93548500Y-89844500D03*
D29*
X51608900Y-75115400D03*
X51608900Y-74465400D03*
X51608900Y-73815400D03*
X51608900Y-73165400D03*
X51608900Y-72515400D03*
D30*
X51253300Y-76287300D03*
X51253300Y-71334300D03*
D31*
X48945900Y-70877100D03*
X48945900Y-76731800D03*
D32*
X55088000Y-72624900D03*
X57092700Y-74375900D03*
X57092700Y-72432800D03*
D33*
X55088000Y-74288500D03*
D34*
X78288000Y-86832000D03*
X78288000Y-83332000D03*
X77638000Y-86832000D03*
X77638000Y-83332000D03*
X76988000Y-86832000D03*
X76988000Y-83332000D03*
X76338000Y-86832000D03*
X76338000Y-83332000D03*
D35*
X51000000Y-58520000D03*
X51000000Y-89000000D03*
X108150000Y-89000000D03*
X108150000Y-58520000D03*
D16*
X71491500Y-89336500D03*
X69291500Y-89336500D03*
D28*
X64983000Y-86500000D03*
X69295000Y-86500000D03*
D36*
X85822000Y-65853500D03*
X85822000Y-67353500D03*
D27*
X65248000Y-79862300D03*
X65248000Y-78363700D03*
D21*
X95999240Y-69050000D03*
X95999240Y-70950000D03*
X97998220Y-70000000D03*
X102964500Y-59570240D03*
X101064500Y-59570240D03*
X102014500Y-61569220D03*
X95999240Y-73050000D03*
X95999240Y-74950000D03*
X97998220Y-74000000D03*
X102842500Y-84114260D03*
X104742500Y-84114260D03*
X103792500Y-82115280D03*
X95999240Y-61050000D03*
X95999240Y-62950000D03*
X97998220Y-62000000D03*
X95999240Y-65050000D03*
X95999240Y-66950000D03*
X97998220Y-66000000D03*
X95999240Y-77050000D03*
X95999240Y-78950000D03*
X97998220Y-78000000D03*
X95999240Y-81050000D03*
X95999240Y-82950000D03*
X97998220Y-82000000D03*
D37*
X54643500Y-70085500D03*
X54643500Y-67185500D03*
D38*
X102950000Y-78000000D03*
D39*
X105490000Y-78000000D03*
X102950000Y-75460000D03*
X105490000Y-75460000D03*
X102950000Y-72920000D03*
X105490000Y-72920000D03*
X102950000Y-70380000D03*
X105490000Y-70380000D03*
X102950000Y-67840000D03*
X105490000Y-67840000D03*
D16*
X59426500Y-67238500D03*
X57226500Y-67238500D03*
X59426500Y-69207000D03*
X57226500Y-69207000D03*
X69396000Y-81653000D03*
X67196000Y-81653000D03*
D11*
X87981000Y-62519000D03*
X87981000Y-64719000D03*
D16*
X92510000Y-76065000D03*
X90310000Y-76065000D03*
D11*
X84044000Y-69885000D03*
X84044000Y-72085000D03*
D20*
X91559500Y-67908000D03*
X90909500Y-67908000D03*
X90259500Y-67908000D03*
X89609500Y-67908000D03*
X89609500Y-73808000D03*
X90259500Y-73808000D03*
X90909500Y-73808000D03*
X91559500Y-73808000D03*
D14*
X65885500Y-62666500D03*
X67785500Y-62666500D03*
D40*
X89998000Y-64949000D03*
X90648000Y-64949000D03*
X91298000Y-64949000D03*
X91298000Y-62289000D03*
X89998000Y-62289000D03*
X85807000Y-72188000D03*
X86457000Y-72188000D03*
X87107000Y-72188000D03*
X87107000Y-69528000D03*
X85807000Y-69528000D03*
D16*
X72380500Y-62666500D03*
X70180500Y-62666500D03*
D12*
X80615000Y-77464500D03*
X80615000Y-79364500D03*
D14*
X65885500Y-60571000D03*
X67785500Y-60571000D03*
D12*
X82393000Y-77464500D03*
X82393000Y-79364500D03*
M02*
