G04 #@! TF.FileFunction,Copper,L2,Inr,Signal*
%FSLAX46Y46*%
G04 Gerber Fmt 4.6, Leading zero omitted, Abs format (unit mm)*
G04 Created by KiCad (PCBNEW 4.0.4-stable) date 03/04/17 14:03:53*
%MOMM*%
%LPD*%
G01*
G04 APERTURE LIST*
%ADD10C,0.100000*%
%ADD11R,2.032000X2.032000*%
%ADD12O,2.032000X2.032000*%
%ADD13R,2.032000X1.727200*%
%ADD14O,2.032000X1.727200*%
%ADD15C,6.400000*%
%ADD16R,1.727200X1.727200*%
%ADD17O,1.727200X1.727200*%
%ADD18C,0.600000*%
%ADD19C,0.203200*%
%ADD20C,0.254000*%
G04 APERTURE END LIST*
D10*
D11*
X60282300Y-57713500D03*
D12*
X62822300Y-57713500D03*
D13*
X60549000Y-82542000D03*
D14*
X60549000Y-85082000D03*
X60549000Y-87622000D03*
D15*
X51000000Y-58520000D03*
X51000000Y-89000000D03*
X108150000Y-89000000D03*
X108150000Y-58520000D03*
D16*
X102950000Y-78000000D03*
D17*
X105490000Y-78000000D03*
X102950000Y-75460000D03*
X105490000Y-75460000D03*
X102950000Y-72920000D03*
X105490000Y-72920000D03*
X102950000Y-70380000D03*
X105490000Y-70380000D03*
X102950000Y-67840000D03*
X105490000Y-67840000D03*
D18*
X69121500Y-69778500D03*
X57755000Y-66222500D03*
X97871970Y-69270500D03*
X76337492Y-73033106D03*
X71915500Y-67776700D03*
X79218000Y-61079000D03*
X56993000Y-62222000D03*
X86186810Y-82796000D03*
X72106000Y-85225000D03*
X59660000Y-74096500D03*
X54770500Y-68254500D03*
X92045000Y-65292800D03*
X79726000Y-58929200D03*
X90902000Y-83304000D03*
X83536000Y-81335500D03*
X95156500Y-73289490D03*
X81696300Y-75938000D03*
X82139000Y-80573500D03*
X82520000Y-68127500D03*
X84811300Y-66286000D03*
X101951000Y-84891500D03*
X95029500Y-80827500D03*
X95045990Y-76700000D03*
X94917990Y-68572000D03*
X95044490Y-64698500D03*
X95029500Y-60683510D03*
X103221000Y-58539000D03*
X88898300Y-68191000D03*
X86852909Y-73730409D03*
X86901500Y-75557000D03*
X89378000Y-57577300D03*
X65375000Y-59682000D03*
X72868000Y-77208000D03*
X73757000Y-81907000D03*
X74392000Y-79767300D03*
X75154000Y-68127500D03*
X96807500Y-86947300D03*
X89006200Y-90670000D03*
X59850500Y-71556500D03*
X66137000Y-85844000D03*
X63533500Y-85971000D03*
X54326000Y-75303000D03*
X53056000Y-75493500D03*
X50960500Y-66159000D03*
X76487500Y-59968500D03*
X105761000Y-84432710D03*
X95008690Y-83240500D03*
X93696000Y-75779000D03*
X95009190Y-79240000D03*
X94966000Y-75283190D03*
X94902500Y-71175500D03*
X95010690Y-67238500D03*
X94966000Y-63283190D03*
X100554000Y-58602500D03*
X79091000Y-67238500D03*
X71565500Y-59872500D03*
X82520000Y-74096500D03*
X79916500Y-75684000D03*
X87071000Y-57586500D03*
X84552000Y-68762500D03*
X86901500Y-62848500D03*
X67470500Y-72643100D03*
X96014500Y-88828500D03*
X71725000Y-87812500D03*
X70550000Y-81399000D03*
X76995500Y-81716500D03*
X79281500Y-84256500D03*
X74900000Y-77906500D03*
X83599500Y-90797000D03*
X69947000Y-70096000D03*
X57755000Y-70223000D03*
X89251000Y-75112500D03*
X97887000Y-65285530D03*
X77122500Y-72890000D03*
X72614000Y-68381500D03*
X88483175Y-75608801D03*
X98204500Y-61333000D03*
X77757500Y-72255000D03*
X73439500Y-68955700D03*
X87727000Y-75938000D03*
X101189000Y-61206000D03*
X78519500Y-72763000D03*
X74201500Y-69491200D03*
X97935970Y-73334500D03*
X74900000Y-73842500D03*
X78481144Y-69865224D03*
X75070696Y-69935700D03*
X74063137Y-73211761D03*
X97760000Y-77271500D03*
X77727300Y-69588000D03*
X75852500Y-70148497D03*
X73495188Y-72643812D03*
X97823500Y-81208500D03*
X77122500Y-70413500D03*
X75852500Y-70951700D03*
X72923688Y-72072312D03*
X102967000Y-81893030D03*
X80297500Y-72509000D03*
X68994500Y-68762500D03*
X66391000Y-69524500D03*
X81059500Y-71112000D03*
X89251000Y-72521300D03*
X81059500Y-67238500D03*
X65815950Y-64440950D03*
X73884000Y-61396500D03*
X69756500Y-65333500D03*
X68964300Y-71683500D03*
X72296500Y-61079000D03*
X68931000Y-65587500D03*
X68359500Y-71000799D03*
X64549500Y-69524500D03*
X80844991Y-69929509D03*
X90076500Y-72191500D03*
X80297500Y-66954300D03*
X64486000Y-63619000D03*
X57120000Y-71747000D03*
X53500500Y-73715500D03*
X69947000Y-77271500D03*
X69629500Y-83685000D03*
X90074236Y-66477254D03*
X91514300Y-66672862D03*
X86774500Y-64000000D03*
X84171000Y-65143000D03*
X67009159Y-65667841D03*
X84996500Y-72191500D03*
X79662500Y-65744700D03*
X66201812Y-65145396D03*
X91283000Y-63428500D03*
X87409500Y-68272300D03*
X65248000Y-63873000D03*
X87409500Y-79494000D03*
X73312500Y-63555500D03*
X82266000Y-66222500D03*
X79853000Y-70667500D03*
X67343500Y-61968000D03*
X67880800Y-66032724D03*
D19*
X69502500Y-69397500D02*
X69121500Y-69778500D01*
X70455000Y-69397500D02*
X69502500Y-69397500D01*
X71615501Y-68236999D02*
X70455000Y-69397500D01*
X71915500Y-67776700D02*
X71615501Y-68076699D01*
X71615501Y-68076699D02*
X71615501Y-68236999D01*
X70729236Y-69842000D02*
X70201000Y-69842000D01*
X70201000Y-69842000D02*
X69947000Y-70096000D01*
X72614000Y-68381500D02*
X72189736Y-68381500D01*
X72189736Y-68381500D02*
X70729236Y-69842000D01*
X89251000Y-76382500D02*
X89251000Y-75112500D01*
X87803180Y-77830320D02*
X89251000Y-76382500D01*
X80024320Y-77830320D02*
X87803180Y-77830320D01*
X79091000Y-77652500D02*
X79846500Y-77652500D01*
X79846500Y-77652500D02*
X80024320Y-77830320D01*
X77376500Y-75938000D02*
X79091000Y-77652500D01*
X77376500Y-73568264D02*
X77376500Y-75938000D01*
X77122500Y-72890000D02*
X77122500Y-73314264D01*
X77122500Y-73314264D02*
X77376500Y-73568264D01*
X88362000Y-76509500D02*
X88362000Y-75729976D01*
X88362000Y-75729976D02*
X88483175Y-75608801D01*
X87447590Y-77423910D02*
X88362000Y-76509500D01*
X80192660Y-77423910D02*
X87447590Y-77423910D01*
X79060875Y-77047625D02*
X79816375Y-77047625D01*
X79816375Y-77047625D02*
X80192660Y-77423910D01*
X77782910Y-75769660D02*
X79060875Y-77047625D01*
X77782910Y-73399924D02*
X77782910Y-75769660D01*
X77757500Y-72255000D02*
X77757500Y-73374514D01*
X77757500Y-73374514D02*
X77782910Y-73399924D01*
X87663500Y-76446000D02*
X87663500Y-76001500D01*
X87663500Y-76001500D02*
X87727000Y-75938000D01*
X87092000Y-77017500D02*
X87663500Y-76446000D01*
X80361000Y-77017500D02*
X87092000Y-77017500D01*
X79916500Y-76573000D02*
X80361000Y-77017500D01*
X79161000Y-76573000D02*
X79916500Y-76573000D01*
X78219501Y-75631501D02*
X79161000Y-76573000D01*
X78519500Y-72763000D02*
X78219501Y-73062999D01*
X78219501Y-73062999D02*
X78219501Y-75631501D01*
X74760320Y-73702820D02*
X74900000Y-73842500D01*
X74760320Y-73512320D02*
X74760320Y-73702820D01*
X74760320Y-72394680D02*
X74760320Y-73512320D01*
X77581146Y-71424710D02*
X77451290Y-71424710D01*
X77451290Y-71424710D02*
X76570180Y-72305820D01*
X76570180Y-72305820D02*
X74849180Y-72305820D01*
X74849180Y-72305820D02*
X74760320Y-72394680D01*
X78481144Y-69865224D02*
X78481144Y-70524712D01*
X78481144Y-70524712D02*
X77581146Y-71424710D01*
X77581146Y-71424710D02*
X77575040Y-71424710D01*
X74099989Y-72420011D02*
X74063137Y-73211761D01*
X74099989Y-72991511D02*
X74063137Y-73028363D01*
X74063137Y-73028363D02*
X74063137Y-73211761D01*
X74353910Y-72105840D02*
X74353910Y-72166090D01*
X74353910Y-72166090D02*
X74099989Y-72420011D01*
X77727300Y-69588000D02*
X77727300Y-70703806D01*
X77727300Y-70703806D02*
X77412805Y-71018301D01*
X77282949Y-71018301D02*
X76401840Y-71899410D01*
X77412805Y-71018301D02*
X77282949Y-71018301D01*
X76401840Y-71899410D02*
X74560340Y-71899410D01*
X74560340Y-71899410D02*
X74353910Y-72105840D01*
X73503000Y-72382000D02*
X73495188Y-72643812D01*
X73503000Y-72636000D02*
X73495188Y-72643812D01*
X73947500Y-71937500D02*
X73503000Y-72382000D01*
X74392000Y-71493000D02*
X73947500Y-71937500D01*
X76233500Y-71493000D02*
X74392000Y-71493000D01*
X76297000Y-71429500D02*
X76233500Y-71493000D01*
X76822501Y-70903999D02*
X76297000Y-71429500D01*
X77122500Y-70413500D02*
X76822501Y-70713499D01*
X76822501Y-70713499D02*
X76822501Y-70903999D01*
X69756500Y-66416250D02*
X69756500Y-65333500D01*
X69439000Y-66733750D02*
X69756500Y-66416250D01*
X67495910Y-68676840D02*
X69439000Y-66733750D01*
X67495910Y-69991160D02*
X67495910Y-68676840D01*
X68649805Y-70395998D02*
X67900748Y-70395998D01*
X67900748Y-70395998D02*
X67495910Y-69991160D01*
X69121500Y-71102036D02*
X69121500Y-70867693D01*
X69121500Y-70867693D02*
X68649805Y-70395998D01*
X68964300Y-71683500D02*
X68964300Y-71259236D01*
X68964300Y-71259236D02*
X69121500Y-71102036D01*
X68931000Y-66286000D02*
X68931000Y-65587500D01*
X67089500Y-68508500D02*
X68931000Y-66667000D01*
X68931000Y-66667000D02*
X68931000Y-66286000D01*
X67089500Y-70159500D02*
X67089500Y-68508500D01*
X67656563Y-70726563D02*
X67089500Y-70159500D01*
X67661000Y-70726563D02*
X67656563Y-70726563D01*
X68359500Y-71000799D02*
X67935236Y-71000799D01*
X67935236Y-71000799D02*
X67661000Y-70726563D01*
X82266000Y-66222500D02*
X82266000Y-67302000D01*
X82266000Y-67302000D02*
X80932500Y-68635500D01*
X80932500Y-68635500D02*
X80615000Y-68635500D01*
X80615000Y-68635500D02*
X80240190Y-69010310D01*
X80240190Y-70280310D02*
X79853000Y-70667500D01*
X80240190Y-69010310D02*
X80240190Y-70280310D01*
D20*
G36*
X104900741Y-56344811D02*
X104315667Y-57753825D01*
X104314336Y-59279482D01*
X104896950Y-60689515D01*
X105974811Y-61769259D01*
X107383825Y-62354333D01*
X108909482Y-62355664D01*
X110319515Y-61773050D01*
X110868000Y-61225522D01*
X110868000Y-86294500D01*
X110325189Y-85750741D01*
X108916175Y-85165667D01*
X107390518Y-85164336D01*
X105980485Y-85746950D01*
X104900741Y-86824811D01*
X104315667Y-88233825D01*
X104314336Y-89759482D01*
X104896950Y-91169515D01*
X105312709Y-91586000D01*
X89237743Y-91586000D01*
X89535143Y-91463117D01*
X89798392Y-91200327D01*
X89941038Y-90856799D01*
X89941362Y-90484833D01*
X89799317Y-90141057D01*
X89536527Y-89877808D01*
X89192999Y-89735162D01*
X88821033Y-89734838D01*
X88477257Y-89876883D01*
X88214008Y-90139673D01*
X88071362Y-90483201D01*
X88071038Y-90855167D01*
X88213083Y-91198943D01*
X88475873Y-91462192D01*
X88774034Y-91586000D01*
X84132567Y-91586000D01*
X84391692Y-91327327D01*
X84534338Y-90983799D01*
X84534662Y-90611833D01*
X84392617Y-90268057D01*
X84129827Y-90004808D01*
X83786299Y-89862162D01*
X83414333Y-89861838D01*
X83070557Y-90003883D01*
X82807308Y-90266673D01*
X82664662Y-90610201D01*
X82664338Y-90982167D01*
X82806383Y-91325943D01*
X83065987Y-91586000D01*
X53837730Y-91586000D01*
X54249259Y-91175189D01*
X54834333Y-89766175D01*
X54835664Y-88240518D01*
X54253050Y-86830485D01*
X53175189Y-85750741D01*
X51766175Y-85165667D01*
X50240518Y-85164336D01*
X48830485Y-85746950D01*
X48457000Y-86119784D01*
X48457000Y-85082000D01*
X58865655Y-85082000D01*
X58979729Y-85655489D01*
X59304585Y-86141670D01*
X59619366Y-86352000D01*
X59304585Y-86562330D01*
X58979729Y-87048511D01*
X58865655Y-87622000D01*
X58979729Y-88195489D01*
X59304585Y-88681670D01*
X59790766Y-89006526D01*
X60364255Y-89120600D01*
X60733745Y-89120600D01*
X61307234Y-89006526D01*
X61793415Y-88681670D01*
X62118271Y-88195489D01*
X62232345Y-87622000D01*
X62134971Y-87132467D01*
X95872338Y-87132467D01*
X96014383Y-87476243D01*
X96277173Y-87739492D01*
X96620701Y-87882138D01*
X96992667Y-87882462D01*
X97336443Y-87740417D01*
X97599692Y-87477627D01*
X97742338Y-87134099D01*
X97742662Y-86762133D01*
X97600617Y-86418357D01*
X97337827Y-86155108D01*
X96994299Y-86012462D01*
X96622333Y-86012138D01*
X96278557Y-86154183D01*
X96015308Y-86416973D01*
X95872662Y-86760501D01*
X95872338Y-87132467D01*
X62134971Y-87132467D01*
X62118271Y-87048511D01*
X61793415Y-86562330D01*
X61478634Y-86352000D01*
X61771718Y-86156167D01*
X62598338Y-86156167D01*
X62740383Y-86499943D01*
X63003173Y-86763192D01*
X63346701Y-86905838D01*
X63718667Y-86906162D01*
X64062443Y-86764117D01*
X64325692Y-86501327D01*
X64468338Y-86157799D01*
X64468450Y-86029167D01*
X65201838Y-86029167D01*
X65343883Y-86372943D01*
X65606673Y-86636192D01*
X65950201Y-86778838D01*
X66322167Y-86779162D01*
X66665943Y-86637117D01*
X66929192Y-86374327D01*
X67071838Y-86030799D01*
X67072162Y-85658833D01*
X66969416Y-85410167D01*
X71170838Y-85410167D01*
X71312883Y-85753943D01*
X71575673Y-86017192D01*
X71919201Y-86159838D01*
X72291167Y-86160162D01*
X72634943Y-86018117D01*
X72898192Y-85755327D01*
X73040838Y-85411799D01*
X73041162Y-85039833D01*
X72899117Y-84696057D01*
X72645171Y-84441667D01*
X78346338Y-84441667D01*
X78488383Y-84785443D01*
X78751173Y-85048692D01*
X79094701Y-85191338D01*
X79466667Y-85191662D01*
X79744976Y-85076667D01*
X101015838Y-85076667D01*
X101157883Y-85420443D01*
X101420673Y-85683692D01*
X101764201Y-85826338D01*
X102136167Y-85826662D01*
X102479943Y-85684617D01*
X102743192Y-85421827D01*
X102885838Y-85078299D01*
X102886162Y-84706333D01*
X102744117Y-84362557D01*
X102481327Y-84099308D01*
X102137799Y-83956662D01*
X101765833Y-83956338D01*
X101422057Y-84098383D01*
X101158808Y-84361173D01*
X101016162Y-84704701D01*
X101015838Y-85076667D01*
X79744976Y-85076667D01*
X79810443Y-85049617D01*
X80073692Y-84786827D01*
X80216338Y-84443299D01*
X80216662Y-84071333D01*
X80074617Y-83727557D01*
X79811827Y-83464308D01*
X79468299Y-83321662D01*
X79096333Y-83321338D01*
X78752557Y-83463383D01*
X78489308Y-83726173D01*
X78346662Y-84069701D01*
X78346338Y-84441667D01*
X72645171Y-84441667D01*
X72636327Y-84432808D01*
X72292799Y-84290162D01*
X71920833Y-84289838D01*
X71577057Y-84431883D01*
X71313808Y-84694673D01*
X71171162Y-85038201D01*
X71170838Y-85410167D01*
X66969416Y-85410167D01*
X66930117Y-85315057D01*
X66667327Y-85051808D01*
X66323799Y-84909162D01*
X65951833Y-84908838D01*
X65608057Y-85050883D01*
X65344808Y-85313673D01*
X65202162Y-85657201D01*
X65201838Y-86029167D01*
X64468450Y-86029167D01*
X64468662Y-85785833D01*
X64326617Y-85442057D01*
X64063827Y-85178808D01*
X63720299Y-85036162D01*
X63348333Y-85035838D01*
X63004557Y-85177883D01*
X62741308Y-85440673D01*
X62598662Y-85784201D01*
X62598338Y-86156167D01*
X61771718Y-86156167D01*
X61793415Y-86141670D01*
X62118271Y-85655489D01*
X62232345Y-85082000D01*
X62118271Y-84508511D01*
X61793415Y-84022330D01*
X61779087Y-84012757D01*
X61800317Y-84008762D01*
X62015699Y-83870167D01*
X68694338Y-83870167D01*
X68836383Y-84213943D01*
X69099173Y-84477192D01*
X69442701Y-84619838D01*
X69814667Y-84620162D01*
X70158443Y-84478117D01*
X70421692Y-84215327D01*
X70564338Y-83871799D01*
X70564662Y-83499833D01*
X70422617Y-83156057D01*
X70248032Y-82981167D01*
X85251648Y-82981167D01*
X85393693Y-83324943D01*
X85656483Y-83588192D01*
X86000011Y-83730838D01*
X86371977Y-83731162D01*
X86715753Y-83589117D01*
X86815877Y-83489167D01*
X89966838Y-83489167D01*
X90108883Y-83832943D01*
X90371673Y-84096192D01*
X90715201Y-84238838D01*
X91087167Y-84239162D01*
X91430943Y-84097117D01*
X91694192Y-83834327D01*
X91836838Y-83490799D01*
X91837162Y-83118833D01*
X91695117Y-82775057D01*
X91432327Y-82511808D01*
X91088799Y-82369162D01*
X90716833Y-82368838D01*
X90373057Y-82510883D01*
X90109808Y-82773673D01*
X89967162Y-83117201D01*
X89966838Y-83489167D01*
X86815877Y-83489167D01*
X86979002Y-83326327D01*
X87121648Y-82982799D01*
X87121972Y-82610833D01*
X86979927Y-82267057D01*
X86717137Y-82003808D01*
X86373609Y-81861162D01*
X86001643Y-81860838D01*
X85657867Y-82002883D01*
X85394618Y-82265673D01*
X85251972Y-82609201D01*
X85251648Y-82981167D01*
X70248032Y-82981167D01*
X70159827Y-82892808D01*
X69816299Y-82750162D01*
X69444333Y-82749838D01*
X69100557Y-82891883D01*
X68837308Y-83154673D01*
X68694662Y-83498201D01*
X68694338Y-83870167D01*
X62015699Y-83870167D01*
X62016441Y-83869690D01*
X62161431Y-83657490D01*
X62212440Y-83405600D01*
X62212440Y-82092167D01*
X72821838Y-82092167D01*
X72963883Y-82435943D01*
X73226673Y-82699192D01*
X73570201Y-82841838D01*
X73942167Y-82842162D01*
X74285943Y-82700117D01*
X74549192Y-82437327D01*
X74691838Y-82093799D01*
X74692005Y-81901667D01*
X76060338Y-81901667D01*
X76202383Y-82245443D01*
X76465173Y-82508692D01*
X76808701Y-82651338D01*
X77180667Y-82651662D01*
X77524443Y-82509617D01*
X77787692Y-82246827D01*
X77930338Y-81903299D01*
X77930662Y-81531333D01*
X77788617Y-81187557D01*
X77525827Y-80924308D01*
X77182299Y-80781662D01*
X76810333Y-80781338D01*
X76466557Y-80923383D01*
X76203308Y-81186173D01*
X76060662Y-81529701D01*
X76060338Y-81901667D01*
X74692005Y-81901667D01*
X74692162Y-81721833D01*
X74550117Y-81378057D01*
X74287327Y-81114808D01*
X73943799Y-80972162D01*
X73571833Y-80971838D01*
X73228057Y-81113883D01*
X72964808Y-81376673D01*
X72822162Y-81720201D01*
X72821838Y-82092167D01*
X62212440Y-82092167D01*
X62212440Y-81678400D01*
X62168162Y-81443083D01*
X62029090Y-81226959D01*
X61816890Y-81081969D01*
X61565000Y-81030960D01*
X59533000Y-81030960D01*
X59297683Y-81075238D01*
X59081559Y-81214310D01*
X58936569Y-81426510D01*
X58885560Y-81678400D01*
X58885560Y-83405600D01*
X58929838Y-83640917D01*
X59068910Y-83857041D01*
X59281110Y-84002031D01*
X59322439Y-84010400D01*
X59304585Y-84022330D01*
X58979729Y-84508511D01*
X58865655Y-85082000D01*
X48457000Y-85082000D01*
X48457000Y-80758667D01*
X81203838Y-80758667D01*
X81345883Y-81102443D01*
X81608673Y-81365692D01*
X81952201Y-81508338D01*
X82324167Y-81508662D01*
X82600948Y-81394299D01*
X82600838Y-81520667D01*
X82742883Y-81864443D01*
X83005673Y-82127692D01*
X83349201Y-82270338D01*
X83721167Y-82270662D01*
X84064943Y-82128617D01*
X84328192Y-81865827D01*
X84470838Y-81522299D01*
X84471162Y-81150333D01*
X84414280Y-81012667D01*
X94094338Y-81012667D01*
X94236383Y-81356443D01*
X94499173Y-81619692D01*
X94842701Y-81762338D01*
X95214667Y-81762662D01*
X95558443Y-81620617D01*
X95785789Y-81393667D01*
X96888338Y-81393667D01*
X97030383Y-81737443D01*
X97293173Y-82000692D01*
X97636701Y-82143338D01*
X98008667Y-82143662D01*
X98167104Y-82078197D01*
X102031838Y-82078197D01*
X102173883Y-82421973D01*
X102436673Y-82685222D01*
X102780201Y-82827868D01*
X103152167Y-82828192D01*
X103495943Y-82686147D01*
X103759192Y-82423357D01*
X103901838Y-82079829D01*
X103902162Y-81707863D01*
X103760117Y-81364087D01*
X103497327Y-81100838D01*
X103153799Y-80958192D01*
X102781833Y-80957868D01*
X102438057Y-81099913D01*
X102174808Y-81362703D01*
X102032162Y-81706231D01*
X102031838Y-82078197D01*
X98167104Y-82078197D01*
X98352443Y-82001617D01*
X98615692Y-81738827D01*
X98758338Y-81395299D01*
X98758662Y-81023333D01*
X98616617Y-80679557D01*
X98353827Y-80416308D01*
X98010299Y-80273662D01*
X97638333Y-80273338D01*
X97294557Y-80415383D01*
X97031308Y-80678173D01*
X96888662Y-81021701D01*
X96888338Y-81393667D01*
X95785789Y-81393667D01*
X95821692Y-81357827D01*
X95964338Y-81014299D01*
X95964662Y-80642333D01*
X95822617Y-80298557D01*
X95559827Y-80035308D01*
X95216299Y-79892662D01*
X94844333Y-79892338D01*
X94500557Y-80034383D01*
X94237308Y-80297173D01*
X94094662Y-80640701D01*
X94094338Y-81012667D01*
X84414280Y-81012667D01*
X84329117Y-80806557D01*
X84066327Y-80543308D01*
X83722799Y-80400662D01*
X83350833Y-80400338D01*
X83074052Y-80514701D01*
X83074162Y-80388333D01*
X82932117Y-80044557D01*
X82669327Y-79781308D01*
X82325799Y-79638662D01*
X81953833Y-79638338D01*
X81610057Y-79780383D01*
X81346808Y-80043173D01*
X81204162Y-80386701D01*
X81203838Y-80758667D01*
X48457000Y-80758667D01*
X48457000Y-79952467D01*
X73456838Y-79952467D01*
X73598883Y-80296243D01*
X73861673Y-80559492D01*
X74205201Y-80702138D01*
X74577167Y-80702462D01*
X74920943Y-80560417D01*
X75184192Y-80297627D01*
X75326838Y-79954099D01*
X75327162Y-79582133D01*
X75185117Y-79238357D01*
X74922327Y-78975108D01*
X74578799Y-78832462D01*
X74206833Y-78832138D01*
X73863057Y-78974183D01*
X73599808Y-79236973D01*
X73457162Y-79580501D01*
X73456838Y-79952467D01*
X48457000Y-79952467D01*
X48457000Y-77456667D01*
X69011838Y-77456667D01*
X69153883Y-77800443D01*
X69416673Y-78063692D01*
X69760201Y-78206338D01*
X70132167Y-78206662D01*
X70475943Y-78064617D01*
X70739192Y-77801827D01*
X70881838Y-77458299D01*
X70881894Y-77393167D01*
X71932838Y-77393167D01*
X72074883Y-77736943D01*
X72337673Y-78000192D01*
X72681201Y-78142838D01*
X73053167Y-78143162D01*
X73177794Y-78091667D01*
X73964838Y-78091667D01*
X74106883Y-78435443D01*
X74369673Y-78698692D01*
X74713201Y-78841338D01*
X75085167Y-78841662D01*
X75428943Y-78699617D01*
X75692192Y-78436827D01*
X75834838Y-78093299D01*
X75835162Y-77721333D01*
X75693117Y-77377557D01*
X75430327Y-77114308D01*
X75086799Y-76971662D01*
X74714833Y-76971338D01*
X74371057Y-77113383D01*
X74107808Y-77376173D01*
X73965162Y-77719701D01*
X73964838Y-78091667D01*
X73177794Y-78091667D01*
X73396943Y-78001117D01*
X73660192Y-77738327D01*
X73802838Y-77394799D01*
X73803162Y-77022833D01*
X73661117Y-76679057D01*
X73398327Y-76415808D01*
X73054799Y-76273162D01*
X72682833Y-76272838D01*
X72339057Y-76414883D01*
X72075808Y-76677673D01*
X71933162Y-77021201D01*
X71932838Y-77393167D01*
X70881894Y-77393167D01*
X70882162Y-77086333D01*
X70740117Y-76742557D01*
X70477327Y-76479308D01*
X70133799Y-76336662D01*
X69761833Y-76336338D01*
X69418057Y-76478383D01*
X69154808Y-76741173D01*
X69012162Y-77084701D01*
X69011838Y-77456667D01*
X48457000Y-77456667D01*
X48457000Y-75678667D01*
X52120838Y-75678667D01*
X52262883Y-76022443D01*
X52525673Y-76285692D01*
X52869201Y-76428338D01*
X53241167Y-76428662D01*
X53584943Y-76286617D01*
X53786204Y-76085707D01*
X53795673Y-76095192D01*
X54139201Y-76237838D01*
X54511167Y-76238162D01*
X54854943Y-76096117D01*
X55118192Y-75833327D01*
X55260838Y-75489799D01*
X55261162Y-75117833D01*
X55119117Y-74774057D01*
X54856327Y-74510808D01*
X54512799Y-74368162D01*
X54170442Y-74367864D01*
X54256789Y-74281667D01*
X58724838Y-74281667D01*
X58866883Y-74625443D01*
X59129673Y-74888692D01*
X59473201Y-75031338D01*
X59845167Y-75031662D01*
X60188943Y-74889617D01*
X60452192Y-74626827D01*
X60594838Y-74283299D01*
X60595162Y-73911333D01*
X60453117Y-73567557D01*
X60190327Y-73304308D01*
X59846799Y-73161662D01*
X59474833Y-73161338D01*
X59131057Y-73303383D01*
X58867808Y-73566173D01*
X58725162Y-73909701D01*
X58724838Y-74281667D01*
X54256789Y-74281667D01*
X54292692Y-74245827D01*
X54435338Y-73902299D01*
X54435662Y-73530333D01*
X54293617Y-73186557D01*
X54030827Y-72923308D01*
X53687299Y-72780662D01*
X53315333Y-72780338D01*
X52971557Y-72922383D01*
X52708308Y-73185173D01*
X52565662Y-73528701D01*
X52565338Y-73900667D01*
X52707383Y-74244443D01*
X52970173Y-74507692D01*
X53092607Y-74558531D01*
X52870833Y-74558338D01*
X52527057Y-74700383D01*
X52263808Y-74963173D01*
X52121162Y-75306701D01*
X52120838Y-75678667D01*
X48457000Y-75678667D01*
X48457000Y-71932167D01*
X56184838Y-71932167D01*
X56326883Y-72275943D01*
X56589673Y-72539192D01*
X56933201Y-72681838D01*
X57305167Y-72682162D01*
X57648943Y-72540117D01*
X57912192Y-72277327D01*
X58054838Y-71933799D01*
X58055005Y-71741667D01*
X58915338Y-71741667D01*
X59057383Y-72085443D01*
X59320173Y-72348692D01*
X59663701Y-72491338D01*
X60035667Y-72491662D01*
X60379443Y-72349617D01*
X60642692Y-72086827D01*
X60785338Y-71743299D01*
X60785662Y-71371333D01*
X60643617Y-71027557D01*
X60380827Y-70764308D01*
X60037299Y-70621662D01*
X59665333Y-70621338D01*
X59321557Y-70763383D01*
X59058308Y-71026173D01*
X58915662Y-71369701D01*
X58915338Y-71741667D01*
X58055005Y-71741667D01*
X58055162Y-71561833D01*
X57913117Y-71218057D01*
X57853251Y-71158086D01*
X57940167Y-71158162D01*
X58283943Y-71016117D01*
X58547192Y-70753327D01*
X58689838Y-70409799D01*
X58690162Y-70037833D01*
X58548117Y-69694057D01*
X58285327Y-69430808D01*
X57941799Y-69288162D01*
X57569833Y-69287838D01*
X57226057Y-69429883D01*
X56962808Y-69692673D01*
X56820162Y-70036201D01*
X56819838Y-70408167D01*
X56961883Y-70751943D01*
X57021749Y-70811914D01*
X56934833Y-70811838D01*
X56591057Y-70953883D01*
X56327808Y-71216673D01*
X56185162Y-71560201D01*
X56184838Y-71932167D01*
X48457000Y-71932167D01*
X48457000Y-68439667D01*
X53835338Y-68439667D01*
X53977383Y-68783443D01*
X54240173Y-69046692D01*
X54583701Y-69189338D01*
X54955667Y-69189662D01*
X55299443Y-69047617D01*
X55562692Y-68784827D01*
X55705338Y-68441299D01*
X55705662Y-68069333D01*
X55563617Y-67725557D01*
X55300827Y-67462308D01*
X54957299Y-67319662D01*
X54585333Y-67319338D01*
X54241557Y-67461383D01*
X53978308Y-67724173D01*
X53835662Y-68067701D01*
X53835338Y-68439667D01*
X48457000Y-68439667D01*
X48457000Y-66344167D01*
X50025338Y-66344167D01*
X50167383Y-66687943D01*
X50430173Y-66951192D01*
X50773701Y-67093838D01*
X51145667Y-67094162D01*
X51489443Y-66952117D01*
X51752692Y-66689327D01*
X51869648Y-66407667D01*
X56819838Y-66407667D01*
X56961883Y-66751443D01*
X57224673Y-67014692D01*
X57568201Y-67157338D01*
X57940167Y-67157662D01*
X58283943Y-67015617D01*
X58547192Y-66752827D01*
X58689838Y-66409299D01*
X58690162Y-66037333D01*
X58548117Y-65693557D01*
X58285327Y-65430308D01*
X57941799Y-65287662D01*
X57569833Y-65287338D01*
X57226057Y-65429383D01*
X56962808Y-65692173D01*
X56820162Y-66035701D01*
X56819838Y-66407667D01*
X51869648Y-66407667D01*
X51895338Y-66345799D01*
X51895662Y-65973833D01*
X51753617Y-65630057D01*
X51490827Y-65366808D01*
X51147299Y-65224162D01*
X50775333Y-65223838D01*
X50431557Y-65365883D01*
X50168308Y-65628673D01*
X50025662Y-65972201D01*
X50025338Y-66344167D01*
X48457000Y-66344167D01*
X48457000Y-63804167D01*
X63550838Y-63804167D01*
X63692883Y-64147943D01*
X63955673Y-64411192D01*
X64299201Y-64553838D01*
X64606781Y-64554106D01*
X64717673Y-64665192D01*
X64934059Y-64755044D01*
X65022833Y-64969893D01*
X65266751Y-65214237D01*
X65266650Y-65330563D01*
X65408695Y-65674339D01*
X65671485Y-65937588D01*
X66015013Y-66080234D01*
X66167940Y-66080367D01*
X66216042Y-66196784D01*
X66478832Y-66460033D01*
X66822360Y-66602679D01*
X67128890Y-66602946D01*
X67350473Y-66824916D01*
X67619616Y-66936674D01*
X66568645Y-67987645D01*
X66408970Y-68226615D01*
X66352900Y-68508500D01*
X66352900Y-68589466D01*
X66205833Y-68589338D01*
X65862057Y-68731383D01*
X65598808Y-68994173D01*
X65470109Y-69304113D01*
X65342617Y-68995557D01*
X65079827Y-68732308D01*
X64736299Y-68589662D01*
X64364333Y-68589338D01*
X64020557Y-68731383D01*
X63757308Y-68994173D01*
X63614662Y-69337701D01*
X63614338Y-69709667D01*
X63756383Y-70053443D01*
X64019173Y-70316692D01*
X64362701Y-70459338D01*
X64734667Y-70459662D01*
X65078443Y-70317617D01*
X65341692Y-70054827D01*
X65470391Y-69744887D01*
X65597883Y-70053443D01*
X65860673Y-70316692D01*
X66204201Y-70459338D01*
X66421092Y-70459527D01*
X66568645Y-70680355D01*
X67135708Y-71247418D01*
X67149080Y-71256353D01*
X67414381Y-71521654D01*
X67653351Y-71681329D01*
X67733650Y-71697301D01*
X67829173Y-71792991D01*
X68032807Y-71877548D01*
X68171183Y-72212443D01*
X68433973Y-72475692D01*
X68777501Y-72618338D01*
X69149467Y-72618662D01*
X69493243Y-72476617D01*
X69756492Y-72213827D01*
X69899138Y-71870299D01*
X69899462Y-71498333D01*
X69818330Y-71301977D01*
X69858100Y-71102036D01*
X69858100Y-71030923D01*
X70132167Y-71031162D01*
X70475943Y-70889117D01*
X70739192Y-70626327D01*
X70761691Y-70572144D01*
X71011121Y-70522530D01*
X71250091Y-70362855D01*
X72334925Y-69278021D01*
X72427201Y-69316338D01*
X72576895Y-69316468D01*
X72646383Y-69484643D01*
X72909173Y-69747892D01*
X73252701Y-69890538D01*
X73354868Y-69890627D01*
X73408383Y-70020143D01*
X73671173Y-70283392D01*
X74014701Y-70426038D01*
X74261717Y-70426253D01*
X74277579Y-70464643D01*
X74540369Y-70727892D01*
X74609024Y-70756400D01*
X74392000Y-70756400D01*
X74110115Y-70812470D01*
X73871145Y-70972145D01*
X73508545Y-71334745D01*
X73454015Y-71280120D01*
X73110487Y-71137474D01*
X72738521Y-71137150D01*
X72394745Y-71279195D01*
X72131496Y-71541985D01*
X71988850Y-71885513D01*
X71988526Y-72257479D01*
X72130571Y-72601255D01*
X72393361Y-72864504D01*
X72612262Y-72955400D01*
X72702071Y-73172755D01*
X72964861Y-73436004D01*
X73181247Y-73525856D01*
X73270020Y-73740704D01*
X73532810Y-74003953D01*
X73876338Y-74146599D01*
X74014029Y-74146719D01*
X74106883Y-74371443D01*
X74369673Y-74634692D01*
X74713201Y-74777338D01*
X75085167Y-74777662D01*
X75428943Y-74635617D01*
X75692192Y-74372827D01*
X75834838Y-74029299D01*
X75835006Y-73836858D01*
X76150693Y-73967944D01*
X76522659Y-73968268D01*
X76639900Y-73919825D01*
X76639900Y-75938000D01*
X76695970Y-76219885D01*
X76855645Y-76458855D01*
X78570145Y-78173355D01*
X78809115Y-78333030D01*
X79091000Y-78389100D01*
X79560224Y-78389100D01*
X79742435Y-78510850D01*
X80024320Y-78566920D01*
X87204773Y-78566920D01*
X86880557Y-78700883D01*
X86617308Y-78963673D01*
X86474662Y-79307201D01*
X86474338Y-79679167D01*
X86616383Y-80022943D01*
X86879173Y-80286192D01*
X87222701Y-80428838D01*
X87594667Y-80429162D01*
X87938443Y-80287117D01*
X88201692Y-80024327D01*
X88344338Y-79680799D01*
X88344662Y-79308833D01*
X88202617Y-78965057D01*
X87939827Y-78701808D01*
X87614982Y-78566920D01*
X87803180Y-78566920D01*
X88085065Y-78510850D01*
X88324035Y-78351175D01*
X89771855Y-76903355D01*
X89784007Y-76885167D01*
X94110828Y-76885167D01*
X94252873Y-77228943D01*
X94515663Y-77492192D01*
X94859191Y-77634838D01*
X95231157Y-77635162D01*
X95574933Y-77493117D01*
X95611446Y-77456667D01*
X96824838Y-77456667D01*
X96966883Y-77800443D01*
X97229673Y-78063692D01*
X97573201Y-78206338D01*
X97945167Y-78206662D01*
X98288943Y-78064617D01*
X98552192Y-77801827D01*
X98694838Y-77458299D01*
X98695118Y-77136400D01*
X101438960Y-77136400D01*
X101438960Y-78863600D01*
X101483238Y-79098917D01*
X101622310Y-79315041D01*
X101834510Y-79460031D01*
X102086400Y-79511040D01*
X103813600Y-79511040D01*
X104048917Y-79466762D01*
X104265041Y-79327690D01*
X104410031Y-79115490D01*
X104418864Y-79071869D01*
X104430330Y-79089029D01*
X104916511Y-79413885D01*
X105490000Y-79527959D01*
X106063489Y-79413885D01*
X106549670Y-79089029D01*
X106874526Y-78602848D01*
X106988600Y-78029359D01*
X106988600Y-77970641D01*
X106874526Y-77397152D01*
X106549670Y-76910971D01*
X106278828Y-76730000D01*
X106549670Y-76549029D01*
X106874526Y-76062848D01*
X106988600Y-75489359D01*
X106988600Y-75430641D01*
X106874526Y-74857152D01*
X106549670Y-74370971D01*
X106278828Y-74190000D01*
X106549670Y-74009029D01*
X106874526Y-73522848D01*
X106988600Y-72949359D01*
X106988600Y-72890641D01*
X106874526Y-72317152D01*
X106549670Y-71830971D01*
X106278828Y-71650000D01*
X106549670Y-71469029D01*
X106874526Y-70982848D01*
X106988600Y-70409359D01*
X106988600Y-70350641D01*
X106874526Y-69777152D01*
X106549670Y-69290971D01*
X106278839Y-69110008D01*
X106696821Y-68728490D01*
X106944968Y-68199027D01*
X106824469Y-67967000D01*
X105617000Y-67967000D01*
X105617000Y-67987000D01*
X105363000Y-67987000D01*
X105363000Y-67967000D01*
X105343000Y-67967000D01*
X105343000Y-67713000D01*
X105363000Y-67713000D01*
X105363000Y-66506183D01*
X105617000Y-66506183D01*
X105617000Y-67713000D01*
X106824469Y-67713000D01*
X106944968Y-67480973D01*
X106696821Y-66951510D01*
X106264947Y-66557312D01*
X105849026Y-66385042D01*
X105617000Y-66506183D01*
X105363000Y-66506183D01*
X105130974Y-66385042D01*
X104715053Y-66557312D01*
X104283179Y-66951510D01*
X104225664Y-67074228D01*
X104009670Y-66750971D01*
X103523489Y-66426115D01*
X102950000Y-66312041D01*
X102376511Y-66426115D01*
X101890330Y-66750971D01*
X101565474Y-67237152D01*
X101451400Y-67810641D01*
X101451400Y-67869359D01*
X101565474Y-68442848D01*
X101890330Y-68929029D01*
X102161172Y-69110000D01*
X101890330Y-69290971D01*
X101565474Y-69777152D01*
X101451400Y-70350641D01*
X101451400Y-70409359D01*
X101565474Y-70982848D01*
X101890330Y-71469029D01*
X102161172Y-71650000D01*
X101890330Y-71830971D01*
X101565474Y-72317152D01*
X101451400Y-72890641D01*
X101451400Y-72949359D01*
X101565474Y-73522848D01*
X101890330Y-74009029D01*
X102161172Y-74190000D01*
X101890330Y-74370971D01*
X101565474Y-74857152D01*
X101451400Y-75430641D01*
X101451400Y-75489359D01*
X101565474Y-76062848D01*
X101876574Y-76528442D01*
X101851083Y-76533238D01*
X101634959Y-76672310D01*
X101489969Y-76884510D01*
X101438960Y-77136400D01*
X98695118Y-77136400D01*
X98695162Y-77086333D01*
X98553117Y-76742557D01*
X98290327Y-76479308D01*
X97946799Y-76336662D01*
X97574833Y-76336338D01*
X97231057Y-76478383D01*
X96967808Y-76741173D01*
X96825162Y-77084701D01*
X96824838Y-77456667D01*
X95611446Y-77456667D01*
X95838182Y-77230327D01*
X95980828Y-76886799D01*
X95981152Y-76514833D01*
X95839107Y-76171057D01*
X95576317Y-75907808D01*
X95232789Y-75765162D01*
X94860823Y-75764838D01*
X94517047Y-75906883D01*
X94253798Y-76169673D01*
X94111152Y-76513201D01*
X94110828Y-76885167D01*
X89784007Y-76885167D01*
X89852308Y-76782949D01*
X89931530Y-76664385D01*
X89987600Y-76382500D01*
X89987600Y-75698322D01*
X90043192Y-75642827D01*
X90185838Y-75299299D01*
X90186162Y-74927333D01*
X90044117Y-74583557D01*
X89781327Y-74320308D01*
X89437799Y-74177662D01*
X89065833Y-74177338D01*
X88722057Y-74319383D01*
X88458808Y-74582173D01*
X88420783Y-74673746D01*
X88298008Y-74673639D01*
X87954232Y-74815684D01*
X87766555Y-75003034D01*
X87669553Y-75002949D01*
X87431827Y-74764808D01*
X87115649Y-74633519D01*
X87381852Y-74523526D01*
X87645101Y-74260736D01*
X87787747Y-73917208D01*
X87788071Y-73545242D01*
X87758906Y-73474657D01*
X94221338Y-73474657D01*
X94363383Y-73818433D01*
X94626173Y-74081682D01*
X94969701Y-74224328D01*
X95341667Y-74224652D01*
X95685443Y-74082607D01*
X95948692Y-73819817D01*
X96073325Y-73519667D01*
X97000808Y-73519667D01*
X97142853Y-73863443D01*
X97405643Y-74126692D01*
X97749171Y-74269338D01*
X98121137Y-74269662D01*
X98464913Y-74127617D01*
X98728162Y-73864827D01*
X98870808Y-73521299D01*
X98871132Y-73149333D01*
X98729087Y-72805557D01*
X98466297Y-72542308D01*
X98122769Y-72399662D01*
X97750803Y-72399338D01*
X97407027Y-72541383D01*
X97143778Y-72804173D01*
X97001132Y-73147701D01*
X97000808Y-73519667D01*
X96073325Y-73519667D01*
X96091338Y-73476289D01*
X96091662Y-73104323D01*
X95949617Y-72760547D01*
X95686827Y-72497298D01*
X95343299Y-72354652D01*
X94971333Y-72354328D01*
X94627557Y-72496373D01*
X94364308Y-72759163D01*
X94221662Y-73102691D01*
X94221338Y-73474657D01*
X87758906Y-73474657D01*
X87646026Y-73201466D01*
X87383236Y-72938217D01*
X87039708Y-72795571D01*
X86667742Y-72795247D01*
X86323966Y-72937292D01*
X86060717Y-73200082D01*
X85918071Y-73543610D01*
X85917747Y-73915576D01*
X86059792Y-74259352D01*
X86322582Y-74522601D01*
X86638760Y-74653890D01*
X86372557Y-74763883D01*
X86109308Y-75026673D01*
X85966662Y-75370201D01*
X85966338Y-75742167D01*
X86108383Y-76085943D01*
X86303000Y-76280900D01*
X82566319Y-76280900D01*
X82631138Y-76124799D01*
X82631462Y-75752833D01*
X82489417Y-75409057D01*
X82226627Y-75145808D01*
X81883099Y-75003162D01*
X81511133Y-75002838D01*
X81167357Y-75144883D01*
X80904108Y-75407673D01*
X80761462Y-75751201D01*
X80761138Y-76123167D01*
X80826312Y-76280900D01*
X80666110Y-76280900D01*
X80437355Y-76052145D01*
X80198385Y-75892470D01*
X79916500Y-75836400D01*
X79466110Y-75836400D01*
X78956101Y-75326391D01*
X78956101Y-73594272D01*
X79048443Y-73556117D01*
X79311692Y-73293327D01*
X79454338Y-72949799D01*
X79454367Y-72916894D01*
X79504383Y-73037943D01*
X79767173Y-73301192D01*
X80110701Y-73443838D01*
X80482667Y-73444162D01*
X80826443Y-73302117D01*
X81089692Y-73039327D01*
X81232338Y-72695799D01*
X81232615Y-72376667D01*
X84061338Y-72376667D01*
X84203383Y-72720443D01*
X84466173Y-72983692D01*
X84809701Y-73126338D01*
X85181667Y-73126662D01*
X85525443Y-72984617D01*
X85788692Y-72721827D01*
X85795070Y-72706467D01*
X88315838Y-72706467D01*
X88457883Y-73050243D01*
X88720673Y-73313492D01*
X89064201Y-73456138D01*
X89436167Y-73456462D01*
X89779943Y-73314417D01*
X89968282Y-73126406D01*
X90261667Y-73126662D01*
X90605443Y-72984617D01*
X90868692Y-72721827D01*
X91011338Y-72378299D01*
X91011662Y-72006333D01*
X90869617Y-71662557D01*
X90606827Y-71399308D01*
X90263299Y-71256662D01*
X89891333Y-71256338D01*
X89547557Y-71398383D01*
X89359218Y-71586394D01*
X89065833Y-71586138D01*
X88722057Y-71728183D01*
X88458808Y-71990973D01*
X88316162Y-72334501D01*
X88315838Y-72706467D01*
X85795070Y-72706467D01*
X85931338Y-72378299D01*
X85931662Y-72006333D01*
X85789617Y-71662557D01*
X85526827Y-71399308D01*
X85183299Y-71256662D01*
X84811333Y-71256338D01*
X84467557Y-71398383D01*
X84204308Y-71661173D01*
X84061662Y-72004701D01*
X84061338Y-72376667D01*
X81232615Y-72376667D01*
X81232662Y-72323833D01*
X81118299Y-72047052D01*
X81244667Y-72047162D01*
X81588443Y-71905117D01*
X81851692Y-71642327D01*
X81994338Y-71298799D01*
X81994662Y-70926833D01*
X81852617Y-70583057D01*
X81664335Y-70394446D01*
X81779829Y-70116308D01*
X81780153Y-69744342D01*
X81638108Y-69400566D01*
X81417943Y-69180017D01*
X81453355Y-69156355D01*
X81839976Y-68769734D01*
X81989673Y-68919692D01*
X82333201Y-69062338D01*
X82705167Y-69062662D01*
X83048943Y-68920617D01*
X83312192Y-68657827D01*
X83395389Y-68457467D01*
X86474338Y-68457467D01*
X86616383Y-68801243D01*
X86879173Y-69064492D01*
X87222701Y-69207138D01*
X87594667Y-69207462D01*
X87938443Y-69065417D01*
X88194695Y-68809612D01*
X88367973Y-68983192D01*
X88711501Y-69125838D01*
X89083467Y-69126162D01*
X89427243Y-68984117D01*
X89654589Y-68757167D01*
X93982828Y-68757167D01*
X94124873Y-69100943D01*
X94387663Y-69364192D01*
X94731191Y-69506838D01*
X95103157Y-69507162D01*
X95227784Y-69455667D01*
X96936808Y-69455667D01*
X97078853Y-69799443D01*
X97341643Y-70062692D01*
X97685171Y-70205338D01*
X98057137Y-70205662D01*
X98400913Y-70063617D01*
X98664162Y-69800827D01*
X98806808Y-69457299D01*
X98807132Y-69085333D01*
X98665087Y-68741557D01*
X98402297Y-68478308D01*
X98058769Y-68335662D01*
X97686803Y-68335338D01*
X97343027Y-68477383D01*
X97079778Y-68740173D01*
X96937132Y-69083701D01*
X96936808Y-69455667D01*
X95227784Y-69455667D01*
X95446933Y-69365117D01*
X95710182Y-69102327D01*
X95852828Y-68758799D01*
X95853152Y-68386833D01*
X95711107Y-68043057D01*
X95448317Y-67779808D01*
X95104789Y-67637162D01*
X94732823Y-67636838D01*
X94389047Y-67778883D01*
X94125798Y-68041673D01*
X93983152Y-68385201D01*
X93982828Y-68757167D01*
X89654589Y-68757167D01*
X89690492Y-68721327D01*
X89833138Y-68377799D01*
X89833462Y-68005833D01*
X89691417Y-67662057D01*
X89428627Y-67398808D01*
X89085099Y-67256162D01*
X88713133Y-67255838D01*
X88369357Y-67397883D01*
X88113105Y-67653688D01*
X87939827Y-67480108D01*
X87596299Y-67337462D01*
X87224333Y-67337138D01*
X86880557Y-67479183D01*
X86617308Y-67741973D01*
X86474662Y-68085501D01*
X86474338Y-68457467D01*
X83395389Y-68457467D01*
X83454838Y-68314299D01*
X83455162Y-67942333D01*
X83313117Y-67598557D01*
X83050327Y-67335308D01*
X83000121Y-67314461D01*
X83002600Y-67302000D01*
X83002600Y-66808322D01*
X83058192Y-66752827D01*
X83200838Y-66409299D01*
X83201162Y-66037333D01*
X83059117Y-65693557D01*
X82796327Y-65430308D01*
X82550346Y-65328167D01*
X83235838Y-65328167D01*
X83377883Y-65671943D01*
X83640673Y-65935192D01*
X83899873Y-66042822D01*
X83876462Y-66099201D01*
X83876138Y-66471167D01*
X84018183Y-66814943D01*
X84280973Y-67078192D01*
X84624501Y-67220838D01*
X84996467Y-67221162D01*
X85340243Y-67079117D01*
X85603492Y-66816327D01*
X85667399Y-66662421D01*
X89139074Y-66662421D01*
X89281119Y-67006197D01*
X89543909Y-67269446D01*
X89887437Y-67412092D01*
X90259403Y-67412416D01*
X90603179Y-67270371D01*
X90706781Y-67166950D01*
X90721183Y-67201805D01*
X90983973Y-67465054D01*
X91327501Y-67607700D01*
X91699467Y-67608024D01*
X92043243Y-67465979D01*
X92306492Y-67203189D01*
X92449138Y-66859661D01*
X92449462Y-66487695D01*
X92325813Y-66188442D01*
X92573943Y-66085917D01*
X92837192Y-65823127D01*
X92979838Y-65479599D01*
X92980162Y-65107633D01*
X92887622Y-64883667D01*
X94109328Y-64883667D01*
X94251373Y-65227443D01*
X94514163Y-65490692D01*
X94857691Y-65633338D01*
X95229657Y-65633662D01*
X95573433Y-65491617D01*
X95594389Y-65470697D01*
X96951838Y-65470697D01*
X97093883Y-65814473D01*
X97356673Y-66077722D01*
X97700201Y-66220368D01*
X98072167Y-66220692D01*
X98415943Y-66078647D01*
X98679192Y-65815857D01*
X98821838Y-65472329D01*
X98822162Y-65100363D01*
X98680117Y-64756587D01*
X98417327Y-64493338D01*
X98073799Y-64350692D01*
X97701833Y-64350368D01*
X97358057Y-64492413D01*
X97094808Y-64755203D01*
X96952162Y-65098731D01*
X96951838Y-65470697D01*
X95594389Y-65470697D01*
X95836682Y-65228827D01*
X95979328Y-64885299D01*
X95979652Y-64513333D01*
X95837607Y-64169557D01*
X95574817Y-63906308D01*
X95231289Y-63763662D01*
X94859323Y-63763338D01*
X94515547Y-63905383D01*
X94252298Y-64168173D01*
X94109652Y-64511701D01*
X94109328Y-64883667D01*
X92887622Y-64883667D01*
X92838117Y-64763857D01*
X92575327Y-64500608D01*
X92231799Y-64357962D01*
X91859833Y-64357638D01*
X91516057Y-64499683D01*
X91252808Y-64762473D01*
X91110162Y-65106001D01*
X91109838Y-65477967D01*
X91233487Y-65777220D01*
X90985357Y-65879745D01*
X90881755Y-65983166D01*
X90867353Y-65948311D01*
X90604563Y-65685062D01*
X90261035Y-65542416D01*
X89889069Y-65542092D01*
X89545293Y-65684137D01*
X89282044Y-65946927D01*
X89139398Y-66290455D01*
X89139074Y-66662421D01*
X85667399Y-66662421D01*
X85746138Y-66472799D01*
X85746462Y-66100833D01*
X85604417Y-65757057D01*
X85341627Y-65493808D01*
X85082427Y-65386178D01*
X85105838Y-65329799D01*
X85106162Y-64957833D01*
X84964117Y-64614057D01*
X84701327Y-64350808D01*
X84357799Y-64208162D01*
X83985833Y-64207838D01*
X83642057Y-64349883D01*
X83378808Y-64612673D01*
X83236162Y-64956201D01*
X83235838Y-65328167D01*
X82550346Y-65328167D01*
X82452799Y-65287662D01*
X82080833Y-65287338D01*
X81737057Y-65429383D01*
X81473808Y-65692173D01*
X81331162Y-66035701D01*
X81330898Y-66338791D01*
X81246299Y-66303662D01*
X80968893Y-66303420D01*
X80827827Y-66162108D01*
X80549560Y-66046561D01*
X80597338Y-65931499D01*
X80597662Y-65559533D01*
X80455617Y-65215757D01*
X80192827Y-64952508D01*
X79849299Y-64809862D01*
X79477333Y-64809538D01*
X79133557Y-64951583D01*
X78870308Y-65214373D01*
X78727662Y-65557901D01*
X78727338Y-65929867D01*
X78869383Y-66273643D01*
X79132173Y-66536892D01*
X79410440Y-66652439D01*
X79362662Y-66767501D01*
X79362338Y-67139467D01*
X79504383Y-67483243D01*
X79767173Y-67746492D01*
X80110701Y-67889138D01*
X80388107Y-67889380D01*
X80433625Y-67934977D01*
X80333115Y-67954970D01*
X80094145Y-68114645D01*
X79719335Y-68489455D01*
X79559660Y-68728425D01*
X79503590Y-69010310D01*
X79503590Y-69800202D01*
X79416170Y-69836323D01*
X79416306Y-69680057D01*
X79274261Y-69336281D01*
X79011471Y-69073032D01*
X78667943Y-68930386D01*
X78391730Y-68930145D01*
X78257627Y-68795808D01*
X77914099Y-68653162D01*
X77542133Y-68652838D01*
X77198357Y-68794883D01*
X76935108Y-69057673D01*
X76792462Y-69401201D01*
X76792343Y-69538247D01*
X76631000Y-69604912D01*
X76382827Y-69356305D01*
X76039299Y-69213659D01*
X75670731Y-69213338D01*
X75601023Y-69143508D01*
X75372829Y-69048753D01*
X75682943Y-68920617D01*
X75946192Y-68657827D01*
X76088838Y-68314299D01*
X76089162Y-67942333D01*
X75947117Y-67598557D01*
X75684327Y-67335308D01*
X75340799Y-67192662D01*
X74968833Y-67192338D01*
X74625057Y-67334383D01*
X74361808Y-67597173D01*
X74219162Y-67940701D01*
X74218838Y-68312667D01*
X74319506Y-68556302D01*
X74286132Y-68556273D01*
X74232617Y-68426757D01*
X73969827Y-68163508D01*
X73626299Y-68020862D01*
X73476605Y-68020732D01*
X73407117Y-67852557D01*
X73144327Y-67589308D01*
X72800799Y-67446662D01*
X72790799Y-67446653D01*
X72708617Y-67247757D01*
X72445827Y-66984508D01*
X72102299Y-66841862D01*
X71730333Y-66841538D01*
X71386557Y-66983583D01*
X71123308Y-67246373D01*
X70980662Y-67589901D01*
X70980543Y-67726611D01*
X70934971Y-67794814D01*
X70914857Y-67895933D01*
X70149890Y-68660900D01*
X69929589Y-68660900D01*
X69929662Y-68577333D01*
X69787617Y-68233557D01*
X69524827Y-67970308D01*
X69326504Y-67887956D01*
X70277355Y-66937105D01*
X70437030Y-66698135D01*
X70493100Y-66416250D01*
X70493100Y-65919322D01*
X70548692Y-65863827D01*
X70691338Y-65520299D01*
X70691662Y-65148333D01*
X70549617Y-64804557D01*
X70286827Y-64541308D01*
X69943299Y-64398662D01*
X69571333Y-64398338D01*
X69227557Y-64540383D01*
X69115084Y-64652660D01*
X68745833Y-64652338D01*
X68402057Y-64794383D01*
X68138808Y-65057173D01*
X68113916Y-65117119D01*
X68067599Y-65097886D01*
X67761069Y-65097619D01*
X67539486Y-64875649D01*
X67195958Y-64733003D01*
X67043031Y-64732870D01*
X66994929Y-64616453D01*
X66751011Y-64372109D01*
X66751112Y-64255783D01*
X66609067Y-63912007D01*
X66438026Y-63740667D01*
X72377338Y-63740667D01*
X72519383Y-64084443D01*
X72782173Y-64347692D01*
X73125701Y-64490338D01*
X73497667Y-64490662D01*
X73841443Y-64348617D01*
X74005178Y-64185167D01*
X85839338Y-64185167D01*
X85981383Y-64528943D01*
X86244173Y-64792192D01*
X86587701Y-64934838D01*
X86959667Y-64935162D01*
X87303443Y-64793117D01*
X87566692Y-64530327D01*
X87709338Y-64186799D01*
X87709662Y-63814833D01*
X87626543Y-63613667D01*
X90347838Y-63613667D01*
X90489883Y-63957443D01*
X90752673Y-64220692D01*
X91096201Y-64363338D01*
X91468167Y-64363662D01*
X91811943Y-64221617D01*
X92075192Y-63958827D01*
X92217838Y-63615299D01*
X92218162Y-63243333D01*
X92076117Y-62899557D01*
X91813327Y-62636308D01*
X91469799Y-62493662D01*
X91097833Y-62493338D01*
X90754057Y-62635383D01*
X90490808Y-62898173D01*
X90348162Y-63241701D01*
X90347838Y-63613667D01*
X87626543Y-63613667D01*
X87567617Y-63471057D01*
X87304827Y-63207808D01*
X86961299Y-63065162D01*
X86589333Y-63064838D01*
X86245557Y-63206883D01*
X85982308Y-63469673D01*
X85839662Y-63813201D01*
X85839338Y-64185167D01*
X74005178Y-64185167D01*
X74104692Y-64085827D01*
X74247338Y-63742299D01*
X74247662Y-63370333D01*
X74105617Y-63026557D01*
X73842827Y-62763308D01*
X73499299Y-62620662D01*
X73127333Y-62620338D01*
X72783557Y-62762383D01*
X72520308Y-63025173D01*
X72377662Y-63368701D01*
X72377338Y-63740667D01*
X66438026Y-63740667D01*
X66346277Y-63648758D01*
X66129891Y-63558906D01*
X66041117Y-63344057D01*
X65778327Y-63080808D01*
X65434799Y-62938162D01*
X65127219Y-62937894D01*
X65016327Y-62826808D01*
X64672799Y-62684162D01*
X64300833Y-62683838D01*
X63957057Y-62825883D01*
X63693808Y-63088673D01*
X63551162Y-63432201D01*
X63550838Y-63804167D01*
X48457000Y-63804167D01*
X48457000Y-62407167D01*
X56057838Y-62407167D01*
X56199883Y-62750943D01*
X56462673Y-63014192D01*
X56806201Y-63156838D01*
X57178167Y-63157162D01*
X57521943Y-63015117D01*
X57785192Y-62752327D01*
X57927838Y-62408799D01*
X57928060Y-62153167D01*
X66408338Y-62153167D01*
X66550383Y-62496943D01*
X66813173Y-62760192D01*
X67156701Y-62902838D01*
X67528667Y-62903162D01*
X67872443Y-62761117D01*
X68135692Y-62498327D01*
X68278338Y-62154799D01*
X68278662Y-61782833D01*
X68136617Y-61439057D01*
X67962032Y-61264167D01*
X71361338Y-61264167D01*
X71503383Y-61607943D01*
X71766173Y-61871192D01*
X72109701Y-62013838D01*
X72481667Y-62014162D01*
X72825443Y-61872117D01*
X72997770Y-61700091D01*
X73090883Y-61925443D01*
X73353673Y-62188692D01*
X73697201Y-62331338D01*
X74069167Y-62331662D01*
X74412943Y-62189617D01*
X74676192Y-61926827D01*
X74818838Y-61583299D01*
X74819115Y-61264167D01*
X78282838Y-61264167D01*
X78424883Y-61607943D01*
X78687673Y-61871192D01*
X79031201Y-62013838D01*
X79403167Y-62014162D01*
X79746943Y-61872117D01*
X80010192Y-61609327D01*
X80152838Y-61265799D01*
X80153162Y-60893833D01*
X80142768Y-60868677D01*
X94094338Y-60868677D01*
X94236383Y-61212453D01*
X94499173Y-61475702D01*
X94842701Y-61618348D01*
X95214667Y-61618672D01*
X95457908Y-61518167D01*
X97269338Y-61518167D01*
X97411383Y-61861943D01*
X97674173Y-62125192D01*
X98017701Y-62267838D01*
X98389667Y-62268162D01*
X98733443Y-62126117D01*
X98996692Y-61863327D01*
X99139338Y-61519799D01*
X99139450Y-61391167D01*
X100253838Y-61391167D01*
X100395883Y-61734943D01*
X100658673Y-61998192D01*
X101002201Y-62140838D01*
X101374167Y-62141162D01*
X101717943Y-61999117D01*
X101981192Y-61736327D01*
X102123838Y-61392799D01*
X102124162Y-61020833D01*
X101982117Y-60677057D01*
X101719327Y-60413808D01*
X101375799Y-60271162D01*
X101003833Y-60270838D01*
X100660057Y-60412883D01*
X100396808Y-60675673D01*
X100254162Y-61019201D01*
X100253838Y-61391167D01*
X99139450Y-61391167D01*
X99139662Y-61147833D01*
X98997617Y-60804057D01*
X98734827Y-60540808D01*
X98391299Y-60398162D01*
X98019333Y-60397838D01*
X97675557Y-60539883D01*
X97412308Y-60802673D01*
X97269662Y-61146201D01*
X97269338Y-61518167D01*
X95457908Y-61518167D01*
X95558443Y-61476627D01*
X95821692Y-61213837D01*
X95964338Y-60870309D01*
X95964662Y-60498343D01*
X95822617Y-60154567D01*
X95559827Y-59891318D01*
X95216299Y-59748672D01*
X94844333Y-59748348D01*
X94500557Y-59890393D01*
X94237308Y-60153183D01*
X94094662Y-60496711D01*
X94094338Y-60868677D01*
X80142768Y-60868677D01*
X80011117Y-60550057D01*
X79748327Y-60286808D01*
X79404799Y-60144162D01*
X79032833Y-60143838D01*
X78689057Y-60285883D01*
X78425808Y-60548673D01*
X78283162Y-60892201D01*
X78282838Y-61264167D01*
X74819115Y-61264167D01*
X74819162Y-61211333D01*
X74677117Y-60867557D01*
X74414327Y-60604308D01*
X74070799Y-60461662D01*
X73698833Y-60461338D01*
X73355057Y-60603383D01*
X73182730Y-60775409D01*
X73089617Y-60550057D01*
X72826827Y-60286808D01*
X72483299Y-60144162D01*
X72111333Y-60143838D01*
X71767557Y-60285883D01*
X71504308Y-60548673D01*
X71361662Y-60892201D01*
X71361338Y-61264167D01*
X67962032Y-61264167D01*
X67873827Y-61175808D01*
X67530299Y-61033162D01*
X67158333Y-61032838D01*
X66814557Y-61174883D01*
X66551308Y-61437673D01*
X66408662Y-61781201D01*
X66408338Y-62153167D01*
X57928060Y-62153167D01*
X57928162Y-62036833D01*
X57786117Y-61693057D01*
X57523327Y-61429808D01*
X57179799Y-61287162D01*
X56807833Y-61286838D01*
X56464057Y-61428883D01*
X56200808Y-61691673D01*
X56058162Y-62035201D01*
X56057838Y-62407167D01*
X48457000Y-62407167D01*
X48457000Y-61400805D01*
X48824811Y-61769259D01*
X50233825Y-62354333D01*
X51759482Y-62355664D01*
X53169515Y-61773050D01*
X54249259Y-60695189D01*
X54593083Y-59867167D01*
X64439838Y-59867167D01*
X64581883Y-60210943D01*
X64844673Y-60474192D01*
X65188201Y-60616838D01*
X65560167Y-60617162D01*
X65903943Y-60475117D01*
X66167192Y-60212327D01*
X66309838Y-59868799D01*
X66310162Y-59496833D01*
X66168117Y-59153057D01*
X66129495Y-59114367D01*
X78790838Y-59114367D01*
X78932883Y-59458143D01*
X79195673Y-59721392D01*
X79539201Y-59864038D01*
X79911167Y-59864362D01*
X80254943Y-59722317D01*
X80518192Y-59459527D01*
X80660838Y-59115999D01*
X80661162Y-58744033D01*
X80652954Y-58724167D01*
X102285838Y-58724167D01*
X102427883Y-59067943D01*
X102690673Y-59331192D01*
X103034201Y-59473838D01*
X103406167Y-59474162D01*
X103749943Y-59332117D01*
X104013192Y-59069327D01*
X104155838Y-58725799D01*
X104156162Y-58353833D01*
X104014117Y-58010057D01*
X103751327Y-57746808D01*
X103407799Y-57604162D01*
X103035833Y-57603838D01*
X102692057Y-57745883D01*
X102428808Y-58008673D01*
X102286162Y-58352201D01*
X102285838Y-58724167D01*
X80652954Y-58724167D01*
X80519117Y-58400257D01*
X80256327Y-58137008D01*
X79912799Y-57994362D01*
X79540833Y-57994038D01*
X79197057Y-58136083D01*
X78933808Y-58398873D01*
X78791162Y-58742401D01*
X78790838Y-59114367D01*
X66129495Y-59114367D01*
X65905327Y-58889808D01*
X65561799Y-58747162D01*
X65189833Y-58746838D01*
X64846057Y-58888883D01*
X64582808Y-59151673D01*
X64440162Y-59495201D01*
X64439838Y-59867167D01*
X54593083Y-59867167D01*
X54834333Y-59286175D01*
X54835664Y-57760518D01*
X54396434Y-56697500D01*
X58618860Y-56697500D01*
X58618860Y-58729500D01*
X58663138Y-58964817D01*
X58802210Y-59180941D01*
X59014410Y-59325931D01*
X59266300Y-59376940D01*
X61298300Y-59376940D01*
X61533617Y-59332662D01*
X61749741Y-59193590D01*
X61856533Y-59037294D01*
X62158145Y-59238825D01*
X62789955Y-59364500D01*
X62854645Y-59364500D01*
X63486455Y-59238825D01*
X64022078Y-58880933D01*
X64379970Y-58345310D01*
X64495904Y-57762467D01*
X88442838Y-57762467D01*
X88584883Y-58106243D01*
X88847673Y-58369492D01*
X89191201Y-58512138D01*
X89563167Y-58512462D01*
X89906943Y-58370417D01*
X90170192Y-58107627D01*
X90312838Y-57764099D01*
X90313162Y-57392133D01*
X90171117Y-57048357D01*
X89908327Y-56785108D01*
X89564799Y-56642462D01*
X89192833Y-56642138D01*
X88849057Y-56784183D01*
X88585808Y-57046973D01*
X88443162Y-57390501D01*
X88442838Y-57762467D01*
X64495904Y-57762467D01*
X64505645Y-57713500D01*
X64379970Y-57081690D01*
X64022078Y-56546067D01*
X63486455Y-56188175D01*
X62854645Y-56062500D01*
X62789955Y-56062500D01*
X62158145Y-56188175D01*
X61855338Y-56390504D01*
X61762390Y-56246059D01*
X61550190Y-56101069D01*
X61298300Y-56050060D01*
X59266300Y-56050060D01*
X59030983Y-56094338D01*
X58814859Y-56233410D01*
X58669869Y-56445610D01*
X58618860Y-56697500D01*
X54396434Y-56697500D01*
X54253050Y-56350485D01*
X53875225Y-55972000D01*
X105274203Y-55972000D01*
X104900741Y-56344811D01*
X104900741Y-56344811D01*
G37*
X104900741Y-56344811D02*
X104315667Y-57753825D01*
X104314336Y-59279482D01*
X104896950Y-60689515D01*
X105974811Y-61769259D01*
X107383825Y-62354333D01*
X108909482Y-62355664D01*
X110319515Y-61773050D01*
X110868000Y-61225522D01*
X110868000Y-86294500D01*
X110325189Y-85750741D01*
X108916175Y-85165667D01*
X107390518Y-85164336D01*
X105980485Y-85746950D01*
X104900741Y-86824811D01*
X104315667Y-88233825D01*
X104314336Y-89759482D01*
X104896950Y-91169515D01*
X105312709Y-91586000D01*
X89237743Y-91586000D01*
X89535143Y-91463117D01*
X89798392Y-91200327D01*
X89941038Y-90856799D01*
X89941362Y-90484833D01*
X89799317Y-90141057D01*
X89536527Y-89877808D01*
X89192999Y-89735162D01*
X88821033Y-89734838D01*
X88477257Y-89876883D01*
X88214008Y-90139673D01*
X88071362Y-90483201D01*
X88071038Y-90855167D01*
X88213083Y-91198943D01*
X88475873Y-91462192D01*
X88774034Y-91586000D01*
X84132567Y-91586000D01*
X84391692Y-91327327D01*
X84534338Y-90983799D01*
X84534662Y-90611833D01*
X84392617Y-90268057D01*
X84129827Y-90004808D01*
X83786299Y-89862162D01*
X83414333Y-89861838D01*
X83070557Y-90003883D01*
X82807308Y-90266673D01*
X82664662Y-90610201D01*
X82664338Y-90982167D01*
X82806383Y-91325943D01*
X83065987Y-91586000D01*
X53837730Y-91586000D01*
X54249259Y-91175189D01*
X54834333Y-89766175D01*
X54835664Y-88240518D01*
X54253050Y-86830485D01*
X53175189Y-85750741D01*
X51766175Y-85165667D01*
X50240518Y-85164336D01*
X48830485Y-85746950D01*
X48457000Y-86119784D01*
X48457000Y-85082000D01*
X58865655Y-85082000D01*
X58979729Y-85655489D01*
X59304585Y-86141670D01*
X59619366Y-86352000D01*
X59304585Y-86562330D01*
X58979729Y-87048511D01*
X58865655Y-87622000D01*
X58979729Y-88195489D01*
X59304585Y-88681670D01*
X59790766Y-89006526D01*
X60364255Y-89120600D01*
X60733745Y-89120600D01*
X61307234Y-89006526D01*
X61793415Y-88681670D01*
X62118271Y-88195489D01*
X62232345Y-87622000D01*
X62134971Y-87132467D01*
X95872338Y-87132467D01*
X96014383Y-87476243D01*
X96277173Y-87739492D01*
X96620701Y-87882138D01*
X96992667Y-87882462D01*
X97336443Y-87740417D01*
X97599692Y-87477627D01*
X97742338Y-87134099D01*
X97742662Y-86762133D01*
X97600617Y-86418357D01*
X97337827Y-86155108D01*
X96994299Y-86012462D01*
X96622333Y-86012138D01*
X96278557Y-86154183D01*
X96015308Y-86416973D01*
X95872662Y-86760501D01*
X95872338Y-87132467D01*
X62134971Y-87132467D01*
X62118271Y-87048511D01*
X61793415Y-86562330D01*
X61478634Y-86352000D01*
X61771718Y-86156167D01*
X62598338Y-86156167D01*
X62740383Y-86499943D01*
X63003173Y-86763192D01*
X63346701Y-86905838D01*
X63718667Y-86906162D01*
X64062443Y-86764117D01*
X64325692Y-86501327D01*
X64468338Y-86157799D01*
X64468450Y-86029167D01*
X65201838Y-86029167D01*
X65343883Y-86372943D01*
X65606673Y-86636192D01*
X65950201Y-86778838D01*
X66322167Y-86779162D01*
X66665943Y-86637117D01*
X66929192Y-86374327D01*
X67071838Y-86030799D01*
X67072162Y-85658833D01*
X66969416Y-85410167D01*
X71170838Y-85410167D01*
X71312883Y-85753943D01*
X71575673Y-86017192D01*
X71919201Y-86159838D01*
X72291167Y-86160162D01*
X72634943Y-86018117D01*
X72898192Y-85755327D01*
X73040838Y-85411799D01*
X73041162Y-85039833D01*
X72899117Y-84696057D01*
X72645171Y-84441667D01*
X78346338Y-84441667D01*
X78488383Y-84785443D01*
X78751173Y-85048692D01*
X79094701Y-85191338D01*
X79466667Y-85191662D01*
X79744976Y-85076667D01*
X101015838Y-85076667D01*
X101157883Y-85420443D01*
X101420673Y-85683692D01*
X101764201Y-85826338D01*
X102136167Y-85826662D01*
X102479943Y-85684617D01*
X102743192Y-85421827D01*
X102885838Y-85078299D01*
X102886162Y-84706333D01*
X102744117Y-84362557D01*
X102481327Y-84099308D01*
X102137799Y-83956662D01*
X101765833Y-83956338D01*
X101422057Y-84098383D01*
X101158808Y-84361173D01*
X101016162Y-84704701D01*
X101015838Y-85076667D01*
X79744976Y-85076667D01*
X79810443Y-85049617D01*
X80073692Y-84786827D01*
X80216338Y-84443299D01*
X80216662Y-84071333D01*
X80074617Y-83727557D01*
X79811827Y-83464308D01*
X79468299Y-83321662D01*
X79096333Y-83321338D01*
X78752557Y-83463383D01*
X78489308Y-83726173D01*
X78346662Y-84069701D01*
X78346338Y-84441667D01*
X72645171Y-84441667D01*
X72636327Y-84432808D01*
X72292799Y-84290162D01*
X71920833Y-84289838D01*
X71577057Y-84431883D01*
X71313808Y-84694673D01*
X71171162Y-85038201D01*
X71170838Y-85410167D01*
X66969416Y-85410167D01*
X66930117Y-85315057D01*
X66667327Y-85051808D01*
X66323799Y-84909162D01*
X65951833Y-84908838D01*
X65608057Y-85050883D01*
X65344808Y-85313673D01*
X65202162Y-85657201D01*
X65201838Y-86029167D01*
X64468450Y-86029167D01*
X64468662Y-85785833D01*
X64326617Y-85442057D01*
X64063827Y-85178808D01*
X63720299Y-85036162D01*
X63348333Y-85035838D01*
X63004557Y-85177883D01*
X62741308Y-85440673D01*
X62598662Y-85784201D01*
X62598338Y-86156167D01*
X61771718Y-86156167D01*
X61793415Y-86141670D01*
X62118271Y-85655489D01*
X62232345Y-85082000D01*
X62118271Y-84508511D01*
X61793415Y-84022330D01*
X61779087Y-84012757D01*
X61800317Y-84008762D01*
X62015699Y-83870167D01*
X68694338Y-83870167D01*
X68836383Y-84213943D01*
X69099173Y-84477192D01*
X69442701Y-84619838D01*
X69814667Y-84620162D01*
X70158443Y-84478117D01*
X70421692Y-84215327D01*
X70564338Y-83871799D01*
X70564662Y-83499833D01*
X70422617Y-83156057D01*
X70248032Y-82981167D01*
X85251648Y-82981167D01*
X85393693Y-83324943D01*
X85656483Y-83588192D01*
X86000011Y-83730838D01*
X86371977Y-83731162D01*
X86715753Y-83589117D01*
X86815877Y-83489167D01*
X89966838Y-83489167D01*
X90108883Y-83832943D01*
X90371673Y-84096192D01*
X90715201Y-84238838D01*
X91087167Y-84239162D01*
X91430943Y-84097117D01*
X91694192Y-83834327D01*
X91836838Y-83490799D01*
X91837162Y-83118833D01*
X91695117Y-82775057D01*
X91432327Y-82511808D01*
X91088799Y-82369162D01*
X90716833Y-82368838D01*
X90373057Y-82510883D01*
X90109808Y-82773673D01*
X89967162Y-83117201D01*
X89966838Y-83489167D01*
X86815877Y-83489167D01*
X86979002Y-83326327D01*
X87121648Y-82982799D01*
X87121972Y-82610833D01*
X86979927Y-82267057D01*
X86717137Y-82003808D01*
X86373609Y-81861162D01*
X86001643Y-81860838D01*
X85657867Y-82002883D01*
X85394618Y-82265673D01*
X85251972Y-82609201D01*
X85251648Y-82981167D01*
X70248032Y-82981167D01*
X70159827Y-82892808D01*
X69816299Y-82750162D01*
X69444333Y-82749838D01*
X69100557Y-82891883D01*
X68837308Y-83154673D01*
X68694662Y-83498201D01*
X68694338Y-83870167D01*
X62015699Y-83870167D01*
X62016441Y-83869690D01*
X62161431Y-83657490D01*
X62212440Y-83405600D01*
X62212440Y-82092167D01*
X72821838Y-82092167D01*
X72963883Y-82435943D01*
X73226673Y-82699192D01*
X73570201Y-82841838D01*
X73942167Y-82842162D01*
X74285943Y-82700117D01*
X74549192Y-82437327D01*
X74691838Y-82093799D01*
X74692005Y-81901667D01*
X76060338Y-81901667D01*
X76202383Y-82245443D01*
X76465173Y-82508692D01*
X76808701Y-82651338D01*
X77180667Y-82651662D01*
X77524443Y-82509617D01*
X77787692Y-82246827D01*
X77930338Y-81903299D01*
X77930662Y-81531333D01*
X77788617Y-81187557D01*
X77525827Y-80924308D01*
X77182299Y-80781662D01*
X76810333Y-80781338D01*
X76466557Y-80923383D01*
X76203308Y-81186173D01*
X76060662Y-81529701D01*
X76060338Y-81901667D01*
X74692005Y-81901667D01*
X74692162Y-81721833D01*
X74550117Y-81378057D01*
X74287327Y-81114808D01*
X73943799Y-80972162D01*
X73571833Y-80971838D01*
X73228057Y-81113883D01*
X72964808Y-81376673D01*
X72822162Y-81720201D01*
X72821838Y-82092167D01*
X62212440Y-82092167D01*
X62212440Y-81678400D01*
X62168162Y-81443083D01*
X62029090Y-81226959D01*
X61816890Y-81081969D01*
X61565000Y-81030960D01*
X59533000Y-81030960D01*
X59297683Y-81075238D01*
X59081559Y-81214310D01*
X58936569Y-81426510D01*
X58885560Y-81678400D01*
X58885560Y-83405600D01*
X58929838Y-83640917D01*
X59068910Y-83857041D01*
X59281110Y-84002031D01*
X59322439Y-84010400D01*
X59304585Y-84022330D01*
X58979729Y-84508511D01*
X58865655Y-85082000D01*
X48457000Y-85082000D01*
X48457000Y-80758667D01*
X81203838Y-80758667D01*
X81345883Y-81102443D01*
X81608673Y-81365692D01*
X81952201Y-81508338D01*
X82324167Y-81508662D01*
X82600948Y-81394299D01*
X82600838Y-81520667D01*
X82742883Y-81864443D01*
X83005673Y-82127692D01*
X83349201Y-82270338D01*
X83721167Y-82270662D01*
X84064943Y-82128617D01*
X84328192Y-81865827D01*
X84470838Y-81522299D01*
X84471162Y-81150333D01*
X84414280Y-81012667D01*
X94094338Y-81012667D01*
X94236383Y-81356443D01*
X94499173Y-81619692D01*
X94842701Y-81762338D01*
X95214667Y-81762662D01*
X95558443Y-81620617D01*
X95785789Y-81393667D01*
X96888338Y-81393667D01*
X97030383Y-81737443D01*
X97293173Y-82000692D01*
X97636701Y-82143338D01*
X98008667Y-82143662D01*
X98167104Y-82078197D01*
X102031838Y-82078197D01*
X102173883Y-82421973D01*
X102436673Y-82685222D01*
X102780201Y-82827868D01*
X103152167Y-82828192D01*
X103495943Y-82686147D01*
X103759192Y-82423357D01*
X103901838Y-82079829D01*
X103902162Y-81707863D01*
X103760117Y-81364087D01*
X103497327Y-81100838D01*
X103153799Y-80958192D01*
X102781833Y-80957868D01*
X102438057Y-81099913D01*
X102174808Y-81362703D01*
X102032162Y-81706231D01*
X102031838Y-82078197D01*
X98167104Y-82078197D01*
X98352443Y-82001617D01*
X98615692Y-81738827D01*
X98758338Y-81395299D01*
X98758662Y-81023333D01*
X98616617Y-80679557D01*
X98353827Y-80416308D01*
X98010299Y-80273662D01*
X97638333Y-80273338D01*
X97294557Y-80415383D01*
X97031308Y-80678173D01*
X96888662Y-81021701D01*
X96888338Y-81393667D01*
X95785789Y-81393667D01*
X95821692Y-81357827D01*
X95964338Y-81014299D01*
X95964662Y-80642333D01*
X95822617Y-80298557D01*
X95559827Y-80035308D01*
X95216299Y-79892662D01*
X94844333Y-79892338D01*
X94500557Y-80034383D01*
X94237308Y-80297173D01*
X94094662Y-80640701D01*
X94094338Y-81012667D01*
X84414280Y-81012667D01*
X84329117Y-80806557D01*
X84066327Y-80543308D01*
X83722799Y-80400662D01*
X83350833Y-80400338D01*
X83074052Y-80514701D01*
X83074162Y-80388333D01*
X82932117Y-80044557D01*
X82669327Y-79781308D01*
X82325799Y-79638662D01*
X81953833Y-79638338D01*
X81610057Y-79780383D01*
X81346808Y-80043173D01*
X81204162Y-80386701D01*
X81203838Y-80758667D01*
X48457000Y-80758667D01*
X48457000Y-79952467D01*
X73456838Y-79952467D01*
X73598883Y-80296243D01*
X73861673Y-80559492D01*
X74205201Y-80702138D01*
X74577167Y-80702462D01*
X74920943Y-80560417D01*
X75184192Y-80297627D01*
X75326838Y-79954099D01*
X75327162Y-79582133D01*
X75185117Y-79238357D01*
X74922327Y-78975108D01*
X74578799Y-78832462D01*
X74206833Y-78832138D01*
X73863057Y-78974183D01*
X73599808Y-79236973D01*
X73457162Y-79580501D01*
X73456838Y-79952467D01*
X48457000Y-79952467D01*
X48457000Y-77456667D01*
X69011838Y-77456667D01*
X69153883Y-77800443D01*
X69416673Y-78063692D01*
X69760201Y-78206338D01*
X70132167Y-78206662D01*
X70475943Y-78064617D01*
X70739192Y-77801827D01*
X70881838Y-77458299D01*
X70881894Y-77393167D01*
X71932838Y-77393167D01*
X72074883Y-77736943D01*
X72337673Y-78000192D01*
X72681201Y-78142838D01*
X73053167Y-78143162D01*
X73177794Y-78091667D01*
X73964838Y-78091667D01*
X74106883Y-78435443D01*
X74369673Y-78698692D01*
X74713201Y-78841338D01*
X75085167Y-78841662D01*
X75428943Y-78699617D01*
X75692192Y-78436827D01*
X75834838Y-78093299D01*
X75835162Y-77721333D01*
X75693117Y-77377557D01*
X75430327Y-77114308D01*
X75086799Y-76971662D01*
X74714833Y-76971338D01*
X74371057Y-77113383D01*
X74107808Y-77376173D01*
X73965162Y-77719701D01*
X73964838Y-78091667D01*
X73177794Y-78091667D01*
X73396943Y-78001117D01*
X73660192Y-77738327D01*
X73802838Y-77394799D01*
X73803162Y-77022833D01*
X73661117Y-76679057D01*
X73398327Y-76415808D01*
X73054799Y-76273162D01*
X72682833Y-76272838D01*
X72339057Y-76414883D01*
X72075808Y-76677673D01*
X71933162Y-77021201D01*
X71932838Y-77393167D01*
X70881894Y-77393167D01*
X70882162Y-77086333D01*
X70740117Y-76742557D01*
X70477327Y-76479308D01*
X70133799Y-76336662D01*
X69761833Y-76336338D01*
X69418057Y-76478383D01*
X69154808Y-76741173D01*
X69012162Y-77084701D01*
X69011838Y-77456667D01*
X48457000Y-77456667D01*
X48457000Y-75678667D01*
X52120838Y-75678667D01*
X52262883Y-76022443D01*
X52525673Y-76285692D01*
X52869201Y-76428338D01*
X53241167Y-76428662D01*
X53584943Y-76286617D01*
X53786204Y-76085707D01*
X53795673Y-76095192D01*
X54139201Y-76237838D01*
X54511167Y-76238162D01*
X54854943Y-76096117D01*
X55118192Y-75833327D01*
X55260838Y-75489799D01*
X55261162Y-75117833D01*
X55119117Y-74774057D01*
X54856327Y-74510808D01*
X54512799Y-74368162D01*
X54170442Y-74367864D01*
X54256789Y-74281667D01*
X58724838Y-74281667D01*
X58866883Y-74625443D01*
X59129673Y-74888692D01*
X59473201Y-75031338D01*
X59845167Y-75031662D01*
X60188943Y-74889617D01*
X60452192Y-74626827D01*
X60594838Y-74283299D01*
X60595162Y-73911333D01*
X60453117Y-73567557D01*
X60190327Y-73304308D01*
X59846799Y-73161662D01*
X59474833Y-73161338D01*
X59131057Y-73303383D01*
X58867808Y-73566173D01*
X58725162Y-73909701D01*
X58724838Y-74281667D01*
X54256789Y-74281667D01*
X54292692Y-74245827D01*
X54435338Y-73902299D01*
X54435662Y-73530333D01*
X54293617Y-73186557D01*
X54030827Y-72923308D01*
X53687299Y-72780662D01*
X53315333Y-72780338D01*
X52971557Y-72922383D01*
X52708308Y-73185173D01*
X52565662Y-73528701D01*
X52565338Y-73900667D01*
X52707383Y-74244443D01*
X52970173Y-74507692D01*
X53092607Y-74558531D01*
X52870833Y-74558338D01*
X52527057Y-74700383D01*
X52263808Y-74963173D01*
X52121162Y-75306701D01*
X52120838Y-75678667D01*
X48457000Y-75678667D01*
X48457000Y-71932167D01*
X56184838Y-71932167D01*
X56326883Y-72275943D01*
X56589673Y-72539192D01*
X56933201Y-72681838D01*
X57305167Y-72682162D01*
X57648943Y-72540117D01*
X57912192Y-72277327D01*
X58054838Y-71933799D01*
X58055005Y-71741667D01*
X58915338Y-71741667D01*
X59057383Y-72085443D01*
X59320173Y-72348692D01*
X59663701Y-72491338D01*
X60035667Y-72491662D01*
X60379443Y-72349617D01*
X60642692Y-72086827D01*
X60785338Y-71743299D01*
X60785662Y-71371333D01*
X60643617Y-71027557D01*
X60380827Y-70764308D01*
X60037299Y-70621662D01*
X59665333Y-70621338D01*
X59321557Y-70763383D01*
X59058308Y-71026173D01*
X58915662Y-71369701D01*
X58915338Y-71741667D01*
X58055005Y-71741667D01*
X58055162Y-71561833D01*
X57913117Y-71218057D01*
X57853251Y-71158086D01*
X57940167Y-71158162D01*
X58283943Y-71016117D01*
X58547192Y-70753327D01*
X58689838Y-70409799D01*
X58690162Y-70037833D01*
X58548117Y-69694057D01*
X58285327Y-69430808D01*
X57941799Y-69288162D01*
X57569833Y-69287838D01*
X57226057Y-69429883D01*
X56962808Y-69692673D01*
X56820162Y-70036201D01*
X56819838Y-70408167D01*
X56961883Y-70751943D01*
X57021749Y-70811914D01*
X56934833Y-70811838D01*
X56591057Y-70953883D01*
X56327808Y-71216673D01*
X56185162Y-71560201D01*
X56184838Y-71932167D01*
X48457000Y-71932167D01*
X48457000Y-68439667D01*
X53835338Y-68439667D01*
X53977383Y-68783443D01*
X54240173Y-69046692D01*
X54583701Y-69189338D01*
X54955667Y-69189662D01*
X55299443Y-69047617D01*
X55562692Y-68784827D01*
X55705338Y-68441299D01*
X55705662Y-68069333D01*
X55563617Y-67725557D01*
X55300827Y-67462308D01*
X54957299Y-67319662D01*
X54585333Y-67319338D01*
X54241557Y-67461383D01*
X53978308Y-67724173D01*
X53835662Y-68067701D01*
X53835338Y-68439667D01*
X48457000Y-68439667D01*
X48457000Y-66344167D01*
X50025338Y-66344167D01*
X50167383Y-66687943D01*
X50430173Y-66951192D01*
X50773701Y-67093838D01*
X51145667Y-67094162D01*
X51489443Y-66952117D01*
X51752692Y-66689327D01*
X51869648Y-66407667D01*
X56819838Y-66407667D01*
X56961883Y-66751443D01*
X57224673Y-67014692D01*
X57568201Y-67157338D01*
X57940167Y-67157662D01*
X58283943Y-67015617D01*
X58547192Y-66752827D01*
X58689838Y-66409299D01*
X58690162Y-66037333D01*
X58548117Y-65693557D01*
X58285327Y-65430308D01*
X57941799Y-65287662D01*
X57569833Y-65287338D01*
X57226057Y-65429383D01*
X56962808Y-65692173D01*
X56820162Y-66035701D01*
X56819838Y-66407667D01*
X51869648Y-66407667D01*
X51895338Y-66345799D01*
X51895662Y-65973833D01*
X51753617Y-65630057D01*
X51490827Y-65366808D01*
X51147299Y-65224162D01*
X50775333Y-65223838D01*
X50431557Y-65365883D01*
X50168308Y-65628673D01*
X50025662Y-65972201D01*
X50025338Y-66344167D01*
X48457000Y-66344167D01*
X48457000Y-63804167D01*
X63550838Y-63804167D01*
X63692883Y-64147943D01*
X63955673Y-64411192D01*
X64299201Y-64553838D01*
X64606781Y-64554106D01*
X64717673Y-64665192D01*
X64934059Y-64755044D01*
X65022833Y-64969893D01*
X65266751Y-65214237D01*
X65266650Y-65330563D01*
X65408695Y-65674339D01*
X65671485Y-65937588D01*
X66015013Y-66080234D01*
X66167940Y-66080367D01*
X66216042Y-66196784D01*
X66478832Y-66460033D01*
X66822360Y-66602679D01*
X67128890Y-66602946D01*
X67350473Y-66824916D01*
X67619616Y-66936674D01*
X66568645Y-67987645D01*
X66408970Y-68226615D01*
X66352900Y-68508500D01*
X66352900Y-68589466D01*
X66205833Y-68589338D01*
X65862057Y-68731383D01*
X65598808Y-68994173D01*
X65470109Y-69304113D01*
X65342617Y-68995557D01*
X65079827Y-68732308D01*
X64736299Y-68589662D01*
X64364333Y-68589338D01*
X64020557Y-68731383D01*
X63757308Y-68994173D01*
X63614662Y-69337701D01*
X63614338Y-69709667D01*
X63756383Y-70053443D01*
X64019173Y-70316692D01*
X64362701Y-70459338D01*
X64734667Y-70459662D01*
X65078443Y-70317617D01*
X65341692Y-70054827D01*
X65470391Y-69744887D01*
X65597883Y-70053443D01*
X65860673Y-70316692D01*
X66204201Y-70459338D01*
X66421092Y-70459527D01*
X66568645Y-70680355D01*
X67135708Y-71247418D01*
X67149080Y-71256353D01*
X67414381Y-71521654D01*
X67653351Y-71681329D01*
X67733650Y-71697301D01*
X67829173Y-71792991D01*
X68032807Y-71877548D01*
X68171183Y-72212443D01*
X68433973Y-72475692D01*
X68777501Y-72618338D01*
X69149467Y-72618662D01*
X69493243Y-72476617D01*
X69756492Y-72213827D01*
X69899138Y-71870299D01*
X69899462Y-71498333D01*
X69818330Y-71301977D01*
X69858100Y-71102036D01*
X69858100Y-71030923D01*
X70132167Y-71031162D01*
X70475943Y-70889117D01*
X70739192Y-70626327D01*
X70761691Y-70572144D01*
X71011121Y-70522530D01*
X71250091Y-70362855D01*
X72334925Y-69278021D01*
X72427201Y-69316338D01*
X72576895Y-69316468D01*
X72646383Y-69484643D01*
X72909173Y-69747892D01*
X73252701Y-69890538D01*
X73354868Y-69890627D01*
X73408383Y-70020143D01*
X73671173Y-70283392D01*
X74014701Y-70426038D01*
X74261717Y-70426253D01*
X74277579Y-70464643D01*
X74540369Y-70727892D01*
X74609024Y-70756400D01*
X74392000Y-70756400D01*
X74110115Y-70812470D01*
X73871145Y-70972145D01*
X73508545Y-71334745D01*
X73454015Y-71280120D01*
X73110487Y-71137474D01*
X72738521Y-71137150D01*
X72394745Y-71279195D01*
X72131496Y-71541985D01*
X71988850Y-71885513D01*
X71988526Y-72257479D01*
X72130571Y-72601255D01*
X72393361Y-72864504D01*
X72612262Y-72955400D01*
X72702071Y-73172755D01*
X72964861Y-73436004D01*
X73181247Y-73525856D01*
X73270020Y-73740704D01*
X73532810Y-74003953D01*
X73876338Y-74146599D01*
X74014029Y-74146719D01*
X74106883Y-74371443D01*
X74369673Y-74634692D01*
X74713201Y-74777338D01*
X75085167Y-74777662D01*
X75428943Y-74635617D01*
X75692192Y-74372827D01*
X75834838Y-74029299D01*
X75835006Y-73836858D01*
X76150693Y-73967944D01*
X76522659Y-73968268D01*
X76639900Y-73919825D01*
X76639900Y-75938000D01*
X76695970Y-76219885D01*
X76855645Y-76458855D01*
X78570145Y-78173355D01*
X78809115Y-78333030D01*
X79091000Y-78389100D01*
X79560224Y-78389100D01*
X79742435Y-78510850D01*
X80024320Y-78566920D01*
X87204773Y-78566920D01*
X86880557Y-78700883D01*
X86617308Y-78963673D01*
X86474662Y-79307201D01*
X86474338Y-79679167D01*
X86616383Y-80022943D01*
X86879173Y-80286192D01*
X87222701Y-80428838D01*
X87594667Y-80429162D01*
X87938443Y-80287117D01*
X88201692Y-80024327D01*
X88344338Y-79680799D01*
X88344662Y-79308833D01*
X88202617Y-78965057D01*
X87939827Y-78701808D01*
X87614982Y-78566920D01*
X87803180Y-78566920D01*
X88085065Y-78510850D01*
X88324035Y-78351175D01*
X89771855Y-76903355D01*
X89784007Y-76885167D01*
X94110828Y-76885167D01*
X94252873Y-77228943D01*
X94515663Y-77492192D01*
X94859191Y-77634838D01*
X95231157Y-77635162D01*
X95574933Y-77493117D01*
X95611446Y-77456667D01*
X96824838Y-77456667D01*
X96966883Y-77800443D01*
X97229673Y-78063692D01*
X97573201Y-78206338D01*
X97945167Y-78206662D01*
X98288943Y-78064617D01*
X98552192Y-77801827D01*
X98694838Y-77458299D01*
X98695118Y-77136400D01*
X101438960Y-77136400D01*
X101438960Y-78863600D01*
X101483238Y-79098917D01*
X101622310Y-79315041D01*
X101834510Y-79460031D01*
X102086400Y-79511040D01*
X103813600Y-79511040D01*
X104048917Y-79466762D01*
X104265041Y-79327690D01*
X104410031Y-79115490D01*
X104418864Y-79071869D01*
X104430330Y-79089029D01*
X104916511Y-79413885D01*
X105490000Y-79527959D01*
X106063489Y-79413885D01*
X106549670Y-79089029D01*
X106874526Y-78602848D01*
X106988600Y-78029359D01*
X106988600Y-77970641D01*
X106874526Y-77397152D01*
X106549670Y-76910971D01*
X106278828Y-76730000D01*
X106549670Y-76549029D01*
X106874526Y-76062848D01*
X106988600Y-75489359D01*
X106988600Y-75430641D01*
X106874526Y-74857152D01*
X106549670Y-74370971D01*
X106278828Y-74190000D01*
X106549670Y-74009029D01*
X106874526Y-73522848D01*
X106988600Y-72949359D01*
X106988600Y-72890641D01*
X106874526Y-72317152D01*
X106549670Y-71830971D01*
X106278828Y-71650000D01*
X106549670Y-71469029D01*
X106874526Y-70982848D01*
X106988600Y-70409359D01*
X106988600Y-70350641D01*
X106874526Y-69777152D01*
X106549670Y-69290971D01*
X106278839Y-69110008D01*
X106696821Y-68728490D01*
X106944968Y-68199027D01*
X106824469Y-67967000D01*
X105617000Y-67967000D01*
X105617000Y-67987000D01*
X105363000Y-67987000D01*
X105363000Y-67967000D01*
X105343000Y-67967000D01*
X105343000Y-67713000D01*
X105363000Y-67713000D01*
X105363000Y-66506183D01*
X105617000Y-66506183D01*
X105617000Y-67713000D01*
X106824469Y-67713000D01*
X106944968Y-67480973D01*
X106696821Y-66951510D01*
X106264947Y-66557312D01*
X105849026Y-66385042D01*
X105617000Y-66506183D01*
X105363000Y-66506183D01*
X105130974Y-66385042D01*
X104715053Y-66557312D01*
X104283179Y-66951510D01*
X104225664Y-67074228D01*
X104009670Y-66750971D01*
X103523489Y-66426115D01*
X102950000Y-66312041D01*
X102376511Y-66426115D01*
X101890330Y-66750971D01*
X101565474Y-67237152D01*
X101451400Y-67810641D01*
X101451400Y-67869359D01*
X101565474Y-68442848D01*
X101890330Y-68929029D01*
X102161172Y-69110000D01*
X101890330Y-69290971D01*
X101565474Y-69777152D01*
X101451400Y-70350641D01*
X101451400Y-70409359D01*
X101565474Y-70982848D01*
X101890330Y-71469029D01*
X102161172Y-71650000D01*
X101890330Y-71830971D01*
X101565474Y-72317152D01*
X101451400Y-72890641D01*
X101451400Y-72949359D01*
X101565474Y-73522848D01*
X101890330Y-74009029D01*
X102161172Y-74190000D01*
X101890330Y-74370971D01*
X101565474Y-74857152D01*
X101451400Y-75430641D01*
X101451400Y-75489359D01*
X101565474Y-76062848D01*
X101876574Y-76528442D01*
X101851083Y-76533238D01*
X101634959Y-76672310D01*
X101489969Y-76884510D01*
X101438960Y-77136400D01*
X98695118Y-77136400D01*
X98695162Y-77086333D01*
X98553117Y-76742557D01*
X98290327Y-76479308D01*
X97946799Y-76336662D01*
X97574833Y-76336338D01*
X97231057Y-76478383D01*
X96967808Y-76741173D01*
X96825162Y-77084701D01*
X96824838Y-77456667D01*
X95611446Y-77456667D01*
X95838182Y-77230327D01*
X95980828Y-76886799D01*
X95981152Y-76514833D01*
X95839107Y-76171057D01*
X95576317Y-75907808D01*
X95232789Y-75765162D01*
X94860823Y-75764838D01*
X94517047Y-75906883D01*
X94253798Y-76169673D01*
X94111152Y-76513201D01*
X94110828Y-76885167D01*
X89784007Y-76885167D01*
X89852308Y-76782949D01*
X89931530Y-76664385D01*
X89987600Y-76382500D01*
X89987600Y-75698322D01*
X90043192Y-75642827D01*
X90185838Y-75299299D01*
X90186162Y-74927333D01*
X90044117Y-74583557D01*
X89781327Y-74320308D01*
X89437799Y-74177662D01*
X89065833Y-74177338D01*
X88722057Y-74319383D01*
X88458808Y-74582173D01*
X88420783Y-74673746D01*
X88298008Y-74673639D01*
X87954232Y-74815684D01*
X87766555Y-75003034D01*
X87669553Y-75002949D01*
X87431827Y-74764808D01*
X87115649Y-74633519D01*
X87381852Y-74523526D01*
X87645101Y-74260736D01*
X87787747Y-73917208D01*
X87788071Y-73545242D01*
X87758906Y-73474657D01*
X94221338Y-73474657D01*
X94363383Y-73818433D01*
X94626173Y-74081682D01*
X94969701Y-74224328D01*
X95341667Y-74224652D01*
X95685443Y-74082607D01*
X95948692Y-73819817D01*
X96073325Y-73519667D01*
X97000808Y-73519667D01*
X97142853Y-73863443D01*
X97405643Y-74126692D01*
X97749171Y-74269338D01*
X98121137Y-74269662D01*
X98464913Y-74127617D01*
X98728162Y-73864827D01*
X98870808Y-73521299D01*
X98871132Y-73149333D01*
X98729087Y-72805557D01*
X98466297Y-72542308D01*
X98122769Y-72399662D01*
X97750803Y-72399338D01*
X97407027Y-72541383D01*
X97143778Y-72804173D01*
X97001132Y-73147701D01*
X97000808Y-73519667D01*
X96073325Y-73519667D01*
X96091338Y-73476289D01*
X96091662Y-73104323D01*
X95949617Y-72760547D01*
X95686827Y-72497298D01*
X95343299Y-72354652D01*
X94971333Y-72354328D01*
X94627557Y-72496373D01*
X94364308Y-72759163D01*
X94221662Y-73102691D01*
X94221338Y-73474657D01*
X87758906Y-73474657D01*
X87646026Y-73201466D01*
X87383236Y-72938217D01*
X87039708Y-72795571D01*
X86667742Y-72795247D01*
X86323966Y-72937292D01*
X86060717Y-73200082D01*
X85918071Y-73543610D01*
X85917747Y-73915576D01*
X86059792Y-74259352D01*
X86322582Y-74522601D01*
X86638760Y-74653890D01*
X86372557Y-74763883D01*
X86109308Y-75026673D01*
X85966662Y-75370201D01*
X85966338Y-75742167D01*
X86108383Y-76085943D01*
X86303000Y-76280900D01*
X82566319Y-76280900D01*
X82631138Y-76124799D01*
X82631462Y-75752833D01*
X82489417Y-75409057D01*
X82226627Y-75145808D01*
X81883099Y-75003162D01*
X81511133Y-75002838D01*
X81167357Y-75144883D01*
X80904108Y-75407673D01*
X80761462Y-75751201D01*
X80761138Y-76123167D01*
X80826312Y-76280900D01*
X80666110Y-76280900D01*
X80437355Y-76052145D01*
X80198385Y-75892470D01*
X79916500Y-75836400D01*
X79466110Y-75836400D01*
X78956101Y-75326391D01*
X78956101Y-73594272D01*
X79048443Y-73556117D01*
X79311692Y-73293327D01*
X79454338Y-72949799D01*
X79454367Y-72916894D01*
X79504383Y-73037943D01*
X79767173Y-73301192D01*
X80110701Y-73443838D01*
X80482667Y-73444162D01*
X80826443Y-73302117D01*
X81089692Y-73039327D01*
X81232338Y-72695799D01*
X81232615Y-72376667D01*
X84061338Y-72376667D01*
X84203383Y-72720443D01*
X84466173Y-72983692D01*
X84809701Y-73126338D01*
X85181667Y-73126662D01*
X85525443Y-72984617D01*
X85788692Y-72721827D01*
X85795070Y-72706467D01*
X88315838Y-72706467D01*
X88457883Y-73050243D01*
X88720673Y-73313492D01*
X89064201Y-73456138D01*
X89436167Y-73456462D01*
X89779943Y-73314417D01*
X89968282Y-73126406D01*
X90261667Y-73126662D01*
X90605443Y-72984617D01*
X90868692Y-72721827D01*
X91011338Y-72378299D01*
X91011662Y-72006333D01*
X90869617Y-71662557D01*
X90606827Y-71399308D01*
X90263299Y-71256662D01*
X89891333Y-71256338D01*
X89547557Y-71398383D01*
X89359218Y-71586394D01*
X89065833Y-71586138D01*
X88722057Y-71728183D01*
X88458808Y-71990973D01*
X88316162Y-72334501D01*
X88315838Y-72706467D01*
X85795070Y-72706467D01*
X85931338Y-72378299D01*
X85931662Y-72006333D01*
X85789617Y-71662557D01*
X85526827Y-71399308D01*
X85183299Y-71256662D01*
X84811333Y-71256338D01*
X84467557Y-71398383D01*
X84204308Y-71661173D01*
X84061662Y-72004701D01*
X84061338Y-72376667D01*
X81232615Y-72376667D01*
X81232662Y-72323833D01*
X81118299Y-72047052D01*
X81244667Y-72047162D01*
X81588443Y-71905117D01*
X81851692Y-71642327D01*
X81994338Y-71298799D01*
X81994662Y-70926833D01*
X81852617Y-70583057D01*
X81664335Y-70394446D01*
X81779829Y-70116308D01*
X81780153Y-69744342D01*
X81638108Y-69400566D01*
X81417943Y-69180017D01*
X81453355Y-69156355D01*
X81839976Y-68769734D01*
X81989673Y-68919692D01*
X82333201Y-69062338D01*
X82705167Y-69062662D01*
X83048943Y-68920617D01*
X83312192Y-68657827D01*
X83395389Y-68457467D01*
X86474338Y-68457467D01*
X86616383Y-68801243D01*
X86879173Y-69064492D01*
X87222701Y-69207138D01*
X87594667Y-69207462D01*
X87938443Y-69065417D01*
X88194695Y-68809612D01*
X88367973Y-68983192D01*
X88711501Y-69125838D01*
X89083467Y-69126162D01*
X89427243Y-68984117D01*
X89654589Y-68757167D01*
X93982828Y-68757167D01*
X94124873Y-69100943D01*
X94387663Y-69364192D01*
X94731191Y-69506838D01*
X95103157Y-69507162D01*
X95227784Y-69455667D01*
X96936808Y-69455667D01*
X97078853Y-69799443D01*
X97341643Y-70062692D01*
X97685171Y-70205338D01*
X98057137Y-70205662D01*
X98400913Y-70063617D01*
X98664162Y-69800827D01*
X98806808Y-69457299D01*
X98807132Y-69085333D01*
X98665087Y-68741557D01*
X98402297Y-68478308D01*
X98058769Y-68335662D01*
X97686803Y-68335338D01*
X97343027Y-68477383D01*
X97079778Y-68740173D01*
X96937132Y-69083701D01*
X96936808Y-69455667D01*
X95227784Y-69455667D01*
X95446933Y-69365117D01*
X95710182Y-69102327D01*
X95852828Y-68758799D01*
X95853152Y-68386833D01*
X95711107Y-68043057D01*
X95448317Y-67779808D01*
X95104789Y-67637162D01*
X94732823Y-67636838D01*
X94389047Y-67778883D01*
X94125798Y-68041673D01*
X93983152Y-68385201D01*
X93982828Y-68757167D01*
X89654589Y-68757167D01*
X89690492Y-68721327D01*
X89833138Y-68377799D01*
X89833462Y-68005833D01*
X89691417Y-67662057D01*
X89428627Y-67398808D01*
X89085099Y-67256162D01*
X88713133Y-67255838D01*
X88369357Y-67397883D01*
X88113105Y-67653688D01*
X87939827Y-67480108D01*
X87596299Y-67337462D01*
X87224333Y-67337138D01*
X86880557Y-67479183D01*
X86617308Y-67741973D01*
X86474662Y-68085501D01*
X86474338Y-68457467D01*
X83395389Y-68457467D01*
X83454838Y-68314299D01*
X83455162Y-67942333D01*
X83313117Y-67598557D01*
X83050327Y-67335308D01*
X83000121Y-67314461D01*
X83002600Y-67302000D01*
X83002600Y-66808322D01*
X83058192Y-66752827D01*
X83200838Y-66409299D01*
X83201162Y-66037333D01*
X83059117Y-65693557D01*
X82796327Y-65430308D01*
X82550346Y-65328167D01*
X83235838Y-65328167D01*
X83377883Y-65671943D01*
X83640673Y-65935192D01*
X83899873Y-66042822D01*
X83876462Y-66099201D01*
X83876138Y-66471167D01*
X84018183Y-66814943D01*
X84280973Y-67078192D01*
X84624501Y-67220838D01*
X84996467Y-67221162D01*
X85340243Y-67079117D01*
X85603492Y-66816327D01*
X85667399Y-66662421D01*
X89139074Y-66662421D01*
X89281119Y-67006197D01*
X89543909Y-67269446D01*
X89887437Y-67412092D01*
X90259403Y-67412416D01*
X90603179Y-67270371D01*
X90706781Y-67166950D01*
X90721183Y-67201805D01*
X90983973Y-67465054D01*
X91327501Y-67607700D01*
X91699467Y-67608024D01*
X92043243Y-67465979D01*
X92306492Y-67203189D01*
X92449138Y-66859661D01*
X92449462Y-66487695D01*
X92325813Y-66188442D01*
X92573943Y-66085917D01*
X92837192Y-65823127D01*
X92979838Y-65479599D01*
X92980162Y-65107633D01*
X92887622Y-64883667D01*
X94109328Y-64883667D01*
X94251373Y-65227443D01*
X94514163Y-65490692D01*
X94857691Y-65633338D01*
X95229657Y-65633662D01*
X95573433Y-65491617D01*
X95594389Y-65470697D01*
X96951838Y-65470697D01*
X97093883Y-65814473D01*
X97356673Y-66077722D01*
X97700201Y-66220368D01*
X98072167Y-66220692D01*
X98415943Y-66078647D01*
X98679192Y-65815857D01*
X98821838Y-65472329D01*
X98822162Y-65100363D01*
X98680117Y-64756587D01*
X98417327Y-64493338D01*
X98073799Y-64350692D01*
X97701833Y-64350368D01*
X97358057Y-64492413D01*
X97094808Y-64755203D01*
X96952162Y-65098731D01*
X96951838Y-65470697D01*
X95594389Y-65470697D01*
X95836682Y-65228827D01*
X95979328Y-64885299D01*
X95979652Y-64513333D01*
X95837607Y-64169557D01*
X95574817Y-63906308D01*
X95231289Y-63763662D01*
X94859323Y-63763338D01*
X94515547Y-63905383D01*
X94252298Y-64168173D01*
X94109652Y-64511701D01*
X94109328Y-64883667D01*
X92887622Y-64883667D01*
X92838117Y-64763857D01*
X92575327Y-64500608D01*
X92231799Y-64357962D01*
X91859833Y-64357638D01*
X91516057Y-64499683D01*
X91252808Y-64762473D01*
X91110162Y-65106001D01*
X91109838Y-65477967D01*
X91233487Y-65777220D01*
X90985357Y-65879745D01*
X90881755Y-65983166D01*
X90867353Y-65948311D01*
X90604563Y-65685062D01*
X90261035Y-65542416D01*
X89889069Y-65542092D01*
X89545293Y-65684137D01*
X89282044Y-65946927D01*
X89139398Y-66290455D01*
X89139074Y-66662421D01*
X85667399Y-66662421D01*
X85746138Y-66472799D01*
X85746462Y-66100833D01*
X85604417Y-65757057D01*
X85341627Y-65493808D01*
X85082427Y-65386178D01*
X85105838Y-65329799D01*
X85106162Y-64957833D01*
X84964117Y-64614057D01*
X84701327Y-64350808D01*
X84357799Y-64208162D01*
X83985833Y-64207838D01*
X83642057Y-64349883D01*
X83378808Y-64612673D01*
X83236162Y-64956201D01*
X83235838Y-65328167D01*
X82550346Y-65328167D01*
X82452799Y-65287662D01*
X82080833Y-65287338D01*
X81737057Y-65429383D01*
X81473808Y-65692173D01*
X81331162Y-66035701D01*
X81330898Y-66338791D01*
X81246299Y-66303662D01*
X80968893Y-66303420D01*
X80827827Y-66162108D01*
X80549560Y-66046561D01*
X80597338Y-65931499D01*
X80597662Y-65559533D01*
X80455617Y-65215757D01*
X80192827Y-64952508D01*
X79849299Y-64809862D01*
X79477333Y-64809538D01*
X79133557Y-64951583D01*
X78870308Y-65214373D01*
X78727662Y-65557901D01*
X78727338Y-65929867D01*
X78869383Y-66273643D01*
X79132173Y-66536892D01*
X79410440Y-66652439D01*
X79362662Y-66767501D01*
X79362338Y-67139467D01*
X79504383Y-67483243D01*
X79767173Y-67746492D01*
X80110701Y-67889138D01*
X80388107Y-67889380D01*
X80433625Y-67934977D01*
X80333115Y-67954970D01*
X80094145Y-68114645D01*
X79719335Y-68489455D01*
X79559660Y-68728425D01*
X79503590Y-69010310D01*
X79503590Y-69800202D01*
X79416170Y-69836323D01*
X79416306Y-69680057D01*
X79274261Y-69336281D01*
X79011471Y-69073032D01*
X78667943Y-68930386D01*
X78391730Y-68930145D01*
X78257627Y-68795808D01*
X77914099Y-68653162D01*
X77542133Y-68652838D01*
X77198357Y-68794883D01*
X76935108Y-69057673D01*
X76792462Y-69401201D01*
X76792343Y-69538247D01*
X76631000Y-69604912D01*
X76382827Y-69356305D01*
X76039299Y-69213659D01*
X75670731Y-69213338D01*
X75601023Y-69143508D01*
X75372829Y-69048753D01*
X75682943Y-68920617D01*
X75946192Y-68657827D01*
X76088838Y-68314299D01*
X76089162Y-67942333D01*
X75947117Y-67598557D01*
X75684327Y-67335308D01*
X75340799Y-67192662D01*
X74968833Y-67192338D01*
X74625057Y-67334383D01*
X74361808Y-67597173D01*
X74219162Y-67940701D01*
X74218838Y-68312667D01*
X74319506Y-68556302D01*
X74286132Y-68556273D01*
X74232617Y-68426757D01*
X73969827Y-68163508D01*
X73626299Y-68020862D01*
X73476605Y-68020732D01*
X73407117Y-67852557D01*
X73144327Y-67589308D01*
X72800799Y-67446662D01*
X72790799Y-67446653D01*
X72708617Y-67247757D01*
X72445827Y-66984508D01*
X72102299Y-66841862D01*
X71730333Y-66841538D01*
X71386557Y-66983583D01*
X71123308Y-67246373D01*
X70980662Y-67589901D01*
X70980543Y-67726611D01*
X70934971Y-67794814D01*
X70914857Y-67895933D01*
X70149890Y-68660900D01*
X69929589Y-68660900D01*
X69929662Y-68577333D01*
X69787617Y-68233557D01*
X69524827Y-67970308D01*
X69326504Y-67887956D01*
X70277355Y-66937105D01*
X70437030Y-66698135D01*
X70493100Y-66416250D01*
X70493100Y-65919322D01*
X70548692Y-65863827D01*
X70691338Y-65520299D01*
X70691662Y-65148333D01*
X70549617Y-64804557D01*
X70286827Y-64541308D01*
X69943299Y-64398662D01*
X69571333Y-64398338D01*
X69227557Y-64540383D01*
X69115084Y-64652660D01*
X68745833Y-64652338D01*
X68402057Y-64794383D01*
X68138808Y-65057173D01*
X68113916Y-65117119D01*
X68067599Y-65097886D01*
X67761069Y-65097619D01*
X67539486Y-64875649D01*
X67195958Y-64733003D01*
X67043031Y-64732870D01*
X66994929Y-64616453D01*
X66751011Y-64372109D01*
X66751112Y-64255783D01*
X66609067Y-63912007D01*
X66438026Y-63740667D01*
X72377338Y-63740667D01*
X72519383Y-64084443D01*
X72782173Y-64347692D01*
X73125701Y-64490338D01*
X73497667Y-64490662D01*
X73841443Y-64348617D01*
X74005178Y-64185167D01*
X85839338Y-64185167D01*
X85981383Y-64528943D01*
X86244173Y-64792192D01*
X86587701Y-64934838D01*
X86959667Y-64935162D01*
X87303443Y-64793117D01*
X87566692Y-64530327D01*
X87709338Y-64186799D01*
X87709662Y-63814833D01*
X87626543Y-63613667D01*
X90347838Y-63613667D01*
X90489883Y-63957443D01*
X90752673Y-64220692D01*
X91096201Y-64363338D01*
X91468167Y-64363662D01*
X91811943Y-64221617D01*
X92075192Y-63958827D01*
X92217838Y-63615299D01*
X92218162Y-63243333D01*
X92076117Y-62899557D01*
X91813327Y-62636308D01*
X91469799Y-62493662D01*
X91097833Y-62493338D01*
X90754057Y-62635383D01*
X90490808Y-62898173D01*
X90348162Y-63241701D01*
X90347838Y-63613667D01*
X87626543Y-63613667D01*
X87567617Y-63471057D01*
X87304827Y-63207808D01*
X86961299Y-63065162D01*
X86589333Y-63064838D01*
X86245557Y-63206883D01*
X85982308Y-63469673D01*
X85839662Y-63813201D01*
X85839338Y-64185167D01*
X74005178Y-64185167D01*
X74104692Y-64085827D01*
X74247338Y-63742299D01*
X74247662Y-63370333D01*
X74105617Y-63026557D01*
X73842827Y-62763308D01*
X73499299Y-62620662D01*
X73127333Y-62620338D01*
X72783557Y-62762383D01*
X72520308Y-63025173D01*
X72377662Y-63368701D01*
X72377338Y-63740667D01*
X66438026Y-63740667D01*
X66346277Y-63648758D01*
X66129891Y-63558906D01*
X66041117Y-63344057D01*
X65778327Y-63080808D01*
X65434799Y-62938162D01*
X65127219Y-62937894D01*
X65016327Y-62826808D01*
X64672799Y-62684162D01*
X64300833Y-62683838D01*
X63957057Y-62825883D01*
X63693808Y-63088673D01*
X63551162Y-63432201D01*
X63550838Y-63804167D01*
X48457000Y-63804167D01*
X48457000Y-62407167D01*
X56057838Y-62407167D01*
X56199883Y-62750943D01*
X56462673Y-63014192D01*
X56806201Y-63156838D01*
X57178167Y-63157162D01*
X57521943Y-63015117D01*
X57785192Y-62752327D01*
X57927838Y-62408799D01*
X57928060Y-62153167D01*
X66408338Y-62153167D01*
X66550383Y-62496943D01*
X66813173Y-62760192D01*
X67156701Y-62902838D01*
X67528667Y-62903162D01*
X67872443Y-62761117D01*
X68135692Y-62498327D01*
X68278338Y-62154799D01*
X68278662Y-61782833D01*
X68136617Y-61439057D01*
X67962032Y-61264167D01*
X71361338Y-61264167D01*
X71503383Y-61607943D01*
X71766173Y-61871192D01*
X72109701Y-62013838D01*
X72481667Y-62014162D01*
X72825443Y-61872117D01*
X72997770Y-61700091D01*
X73090883Y-61925443D01*
X73353673Y-62188692D01*
X73697201Y-62331338D01*
X74069167Y-62331662D01*
X74412943Y-62189617D01*
X74676192Y-61926827D01*
X74818838Y-61583299D01*
X74819115Y-61264167D01*
X78282838Y-61264167D01*
X78424883Y-61607943D01*
X78687673Y-61871192D01*
X79031201Y-62013838D01*
X79403167Y-62014162D01*
X79746943Y-61872117D01*
X80010192Y-61609327D01*
X80152838Y-61265799D01*
X80153162Y-60893833D01*
X80142768Y-60868677D01*
X94094338Y-60868677D01*
X94236383Y-61212453D01*
X94499173Y-61475702D01*
X94842701Y-61618348D01*
X95214667Y-61618672D01*
X95457908Y-61518167D01*
X97269338Y-61518167D01*
X97411383Y-61861943D01*
X97674173Y-62125192D01*
X98017701Y-62267838D01*
X98389667Y-62268162D01*
X98733443Y-62126117D01*
X98996692Y-61863327D01*
X99139338Y-61519799D01*
X99139450Y-61391167D01*
X100253838Y-61391167D01*
X100395883Y-61734943D01*
X100658673Y-61998192D01*
X101002201Y-62140838D01*
X101374167Y-62141162D01*
X101717943Y-61999117D01*
X101981192Y-61736327D01*
X102123838Y-61392799D01*
X102124162Y-61020833D01*
X101982117Y-60677057D01*
X101719327Y-60413808D01*
X101375799Y-60271162D01*
X101003833Y-60270838D01*
X100660057Y-60412883D01*
X100396808Y-60675673D01*
X100254162Y-61019201D01*
X100253838Y-61391167D01*
X99139450Y-61391167D01*
X99139662Y-61147833D01*
X98997617Y-60804057D01*
X98734827Y-60540808D01*
X98391299Y-60398162D01*
X98019333Y-60397838D01*
X97675557Y-60539883D01*
X97412308Y-60802673D01*
X97269662Y-61146201D01*
X97269338Y-61518167D01*
X95457908Y-61518167D01*
X95558443Y-61476627D01*
X95821692Y-61213837D01*
X95964338Y-60870309D01*
X95964662Y-60498343D01*
X95822617Y-60154567D01*
X95559827Y-59891318D01*
X95216299Y-59748672D01*
X94844333Y-59748348D01*
X94500557Y-59890393D01*
X94237308Y-60153183D01*
X94094662Y-60496711D01*
X94094338Y-60868677D01*
X80142768Y-60868677D01*
X80011117Y-60550057D01*
X79748327Y-60286808D01*
X79404799Y-60144162D01*
X79032833Y-60143838D01*
X78689057Y-60285883D01*
X78425808Y-60548673D01*
X78283162Y-60892201D01*
X78282838Y-61264167D01*
X74819115Y-61264167D01*
X74819162Y-61211333D01*
X74677117Y-60867557D01*
X74414327Y-60604308D01*
X74070799Y-60461662D01*
X73698833Y-60461338D01*
X73355057Y-60603383D01*
X73182730Y-60775409D01*
X73089617Y-60550057D01*
X72826827Y-60286808D01*
X72483299Y-60144162D01*
X72111333Y-60143838D01*
X71767557Y-60285883D01*
X71504308Y-60548673D01*
X71361662Y-60892201D01*
X71361338Y-61264167D01*
X67962032Y-61264167D01*
X67873827Y-61175808D01*
X67530299Y-61033162D01*
X67158333Y-61032838D01*
X66814557Y-61174883D01*
X66551308Y-61437673D01*
X66408662Y-61781201D01*
X66408338Y-62153167D01*
X57928060Y-62153167D01*
X57928162Y-62036833D01*
X57786117Y-61693057D01*
X57523327Y-61429808D01*
X57179799Y-61287162D01*
X56807833Y-61286838D01*
X56464057Y-61428883D01*
X56200808Y-61691673D01*
X56058162Y-62035201D01*
X56057838Y-62407167D01*
X48457000Y-62407167D01*
X48457000Y-61400805D01*
X48824811Y-61769259D01*
X50233825Y-62354333D01*
X51759482Y-62355664D01*
X53169515Y-61773050D01*
X54249259Y-60695189D01*
X54593083Y-59867167D01*
X64439838Y-59867167D01*
X64581883Y-60210943D01*
X64844673Y-60474192D01*
X65188201Y-60616838D01*
X65560167Y-60617162D01*
X65903943Y-60475117D01*
X66167192Y-60212327D01*
X66309838Y-59868799D01*
X66310162Y-59496833D01*
X66168117Y-59153057D01*
X66129495Y-59114367D01*
X78790838Y-59114367D01*
X78932883Y-59458143D01*
X79195673Y-59721392D01*
X79539201Y-59864038D01*
X79911167Y-59864362D01*
X80254943Y-59722317D01*
X80518192Y-59459527D01*
X80660838Y-59115999D01*
X80661162Y-58744033D01*
X80652954Y-58724167D01*
X102285838Y-58724167D01*
X102427883Y-59067943D01*
X102690673Y-59331192D01*
X103034201Y-59473838D01*
X103406167Y-59474162D01*
X103749943Y-59332117D01*
X104013192Y-59069327D01*
X104155838Y-58725799D01*
X104156162Y-58353833D01*
X104014117Y-58010057D01*
X103751327Y-57746808D01*
X103407799Y-57604162D01*
X103035833Y-57603838D01*
X102692057Y-57745883D01*
X102428808Y-58008673D01*
X102286162Y-58352201D01*
X102285838Y-58724167D01*
X80652954Y-58724167D01*
X80519117Y-58400257D01*
X80256327Y-58137008D01*
X79912799Y-57994362D01*
X79540833Y-57994038D01*
X79197057Y-58136083D01*
X78933808Y-58398873D01*
X78791162Y-58742401D01*
X78790838Y-59114367D01*
X66129495Y-59114367D01*
X65905327Y-58889808D01*
X65561799Y-58747162D01*
X65189833Y-58746838D01*
X64846057Y-58888883D01*
X64582808Y-59151673D01*
X64440162Y-59495201D01*
X64439838Y-59867167D01*
X54593083Y-59867167D01*
X54834333Y-59286175D01*
X54835664Y-57760518D01*
X54396434Y-56697500D01*
X58618860Y-56697500D01*
X58618860Y-58729500D01*
X58663138Y-58964817D01*
X58802210Y-59180941D01*
X59014410Y-59325931D01*
X59266300Y-59376940D01*
X61298300Y-59376940D01*
X61533617Y-59332662D01*
X61749741Y-59193590D01*
X61856533Y-59037294D01*
X62158145Y-59238825D01*
X62789955Y-59364500D01*
X62854645Y-59364500D01*
X63486455Y-59238825D01*
X64022078Y-58880933D01*
X64379970Y-58345310D01*
X64495904Y-57762467D01*
X88442838Y-57762467D01*
X88584883Y-58106243D01*
X88847673Y-58369492D01*
X89191201Y-58512138D01*
X89563167Y-58512462D01*
X89906943Y-58370417D01*
X90170192Y-58107627D01*
X90312838Y-57764099D01*
X90313162Y-57392133D01*
X90171117Y-57048357D01*
X89908327Y-56785108D01*
X89564799Y-56642462D01*
X89192833Y-56642138D01*
X88849057Y-56784183D01*
X88585808Y-57046973D01*
X88443162Y-57390501D01*
X88442838Y-57762467D01*
X64495904Y-57762467D01*
X64505645Y-57713500D01*
X64379970Y-57081690D01*
X64022078Y-56546067D01*
X63486455Y-56188175D01*
X62854645Y-56062500D01*
X62789955Y-56062500D01*
X62158145Y-56188175D01*
X61855338Y-56390504D01*
X61762390Y-56246059D01*
X61550190Y-56101069D01*
X61298300Y-56050060D01*
X59266300Y-56050060D01*
X59030983Y-56094338D01*
X58814859Y-56233410D01*
X58669869Y-56445610D01*
X58618860Y-56697500D01*
X54396434Y-56697500D01*
X54253050Y-56350485D01*
X53875225Y-55972000D01*
X105274203Y-55972000D01*
X104900741Y-56344811D01*
M02*
