G04 #@! TF.FileFunction,Copper,L1,Top,Signal*
%FSLAX46Y46*%
G04 Gerber Fmt 4.6, Leading zero omitted, Abs format (unit mm)*
G04 Created by KiCad (PCBNEW 4.0.7) date 06/06/18 19:33:03*
%MOMM*%
%LPD*%
G01*
G04 APERTURE LIST*
%ADD10C,0.100000*%
%ADD11R,1.448000X0.457000*%
%ADD12C,1.200000*%
%ADD13R,1.500000X0.450000*%
%ADD14C,6.400000*%
%ADD15R,0.750000X1.200000*%
%ADD16R,1.200000X0.900000*%
%ADD17R,1.100000X0.400000*%
%ADD18R,1.060000X0.650000*%
%ADD19R,0.900000X1.200000*%
%ADD20C,3.000000*%
%ADD21R,1.700000X1.700000*%
%ADD22O,1.700000X1.700000*%
%ADD23C,0.600000*%
%ADD24C,0.203200*%
%ADD25C,0.400000*%
%ADD26C,0.254000*%
G04 APERTURE END LIST*
D10*
D11*
X89217980Y-80949420D03*
X89217980Y-80149420D03*
X89217980Y-79349420D03*
X89217980Y-78549420D03*
X89217980Y-77749420D03*
X89217980Y-76949420D03*
X89218780Y-76149420D03*
X89217980Y-75349420D03*
X89217980Y-74549420D03*
X89217980Y-73749420D03*
X89217980Y-72949420D03*
X89217980Y-72149420D03*
X89217980Y-71349420D03*
X89217980Y-70549420D03*
X89217980Y-69749420D03*
X89217980Y-68949420D03*
X89217980Y-68149420D03*
X89217980Y-67349420D03*
X89217980Y-66549420D03*
X89217980Y-65749420D03*
X83045980Y-80949420D03*
X83045980Y-80149420D03*
X83045980Y-79349420D03*
X83045980Y-78549420D03*
X83045980Y-77749420D03*
X83045980Y-76949420D03*
X83045980Y-76149420D03*
X83045980Y-75349420D03*
X83045980Y-74549420D03*
X83045980Y-73749420D03*
X83045980Y-72949420D03*
X83045980Y-72149420D03*
X83045980Y-71349420D03*
X83045980Y-70549420D03*
X83045980Y-69749420D03*
X83045980Y-68949420D03*
X83045980Y-68149420D03*
X83045980Y-67349420D03*
X83045980Y-66549420D03*
X83045980Y-65749420D03*
D12*
X88163980Y-82562920D03*
X88163980Y-64135920D03*
D13*
X94044980Y-71468820D03*
X94044980Y-72118820D03*
X94044980Y-72768820D03*
X94044980Y-73418820D03*
X94044980Y-74068820D03*
X94044980Y-74718820D03*
X94044980Y-75368820D03*
X94044980Y-76018820D03*
X99944980Y-76018820D03*
X99944980Y-75368820D03*
X99944980Y-74718820D03*
X99944980Y-74068820D03*
X99944980Y-73418820D03*
X99944980Y-72768820D03*
X99944980Y-72118820D03*
X99944980Y-71468820D03*
D14*
X101205640Y-58598740D03*
X44055640Y-58598740D03*
X100728780Y-87342980D03*
X44055640Y-89078740D03*
D15*
X40779700Y-73002180D03*
X40779700Y-71102180D03*
X59504580Y-72702460D03*
X59504580Y-70802460D03*
X99882960Y-67579200D03*
X99882960Y-69479200D03*
D16*
X53230600Y-68640960D03*
X55430600Y-68640960D03*
X69189960Y-68549520D03*
X66989960Y-68549520D03*
D17*
X61147840Y-70593000D03*
X61147840Y-71243000D03*
X61147840Y-71893000D03*
X61147840Y-72543000D03*
X61147840Y-73193000D03*
X61147840Y-73843000D03*
X61147840Y-74493000D03*
X61147840Y-75143000D03*
X61147840Y-75793000D03*
X61147840Y-76443000D03*
X61147840Y-77093000D03*
X61147840Y-77743000D03*
X66847840Y-77743000D03*
X66847840Y-77093000D03*
X66847840Y-76443000D03*
X66847840Y-75793000D03*
X66847840Y-75143000D03*
X66847840Y-74493000D03*
X66847840Y-73843000D03*
X66847840Y-73193000D03*
X66847840Y-72543000D03*
X66847840Y-71893000D03*
X66847840Y-71243000D03*
X66847840Y-70593000D03*
D18*
X52925800Y-70655140D03*
X52925800Y-71605140D03*
X52925800Y-72555140D03*
X55125800Y-72555140D03*
X55125800Y-70655140D03*
X72930840Y-70520520D03*
X72930840Y-71470520D03*
X72930840Y-72420520D03*
X75130840Y-72420520D03*
X75130840Y-70520520D03*
D16*
X51712040Y-61887100D03*
X49512040Y-61887100D03*
D19*
X71975980Y-60050500D03*
X71975980Y-62250500D03*
X63804800Y-62250500D03*
X63804800Y-60050500D03*
X61145420Y-88994160D03*
X61145420Y-86794160D03*
X63690500Y-88958600D03*
X63690500Y-86758600D03*
D16*
X58613220Y-86804500D03*
X56413220Y-86804500D03*
X66118560Y-86746080D03*
X68318560Y-86746080D03*
D19*
X52712620Y-86921160D03*
X52712620Y-89121160D03*
X50579020Y-86938940D03*
X50579020Y-89138940D03*
X38676580Y-88226720D03*
X38676580Y-90426720D03*
X36555680Y-88244500D03*
X36555680Y-90444500D03*
X34239200Y-88267360D03*
X34239200Y-90467360D03*
X31714440Y-88295300D03*
X31714440Y-90495300D03*
X29385260Y-88287680D03*
X29385260Y-90487680D03*
X26936700Y-88292760D03*
X26936700Y-90492760D03*
D20*
X56502300Y-59042300D03*
X81010760Y-60325000D03*
X33830260Y-58519060D03*
X51074320Y-57650380D03*
X60629800Y-57508140D03*
X115559840Y-88800940D03*
X16776700Y-88381840D03*
X23047960Y-88374220D03*
D21*
X112052100Y-78770480D03*
D22*
X114592100Y-78770480D03*
X112052100Y-76230480D03*
X114592100Y-76230480D03*
X112052100Y-73690480D03*
X114592100Y-73690480D03*
X112052100Y-71150480D03*
X114592100Y-71150480D03*
X112052100Y-68610480D03*
X114592100Y-68610480D03*
D21*
X17980660Y-65750000D03*
D22*
X20520660Y-65750000D03*
X23060660Y-65750000D03*
X25600660Y-65750000D03*
X28140660Y-65750000D03*
X30680660Y-65750000D03*
X33220660Y-65750000D03*
X35760660Y-65750000D03*
X38300660Y-65750000D03*
X40840660Y-65750000D03*
X43380660Y-65750000D03*
X45920660Y-65750000D03*
X48460660Y-65750000D03*
X51000660Y-65750000D03*
X53540660Y-65750000D03*
X56080660Y-65750000D03*
X58620660Y-65750000D03*
X61160660Y-65750000D03*
X63700660Y-65750000D03*
X66240660Y-65750000D03*
X68780660Y-65750000D03*
X71320660Y-65750000D03*
X73860660Y-65750000D03*
X76400660Y-65750000D03*
D21*
X76380340Y-83000000D03*
D22*
X73840340Y-83000000D03*
X71300340Y-83000000D03*
X68760340Y-83000000D03*
X66220340Y-83000000D03*
X63680340Y-83000000D03*
X61140340Y-83000000D03*
X58600340Y-83000000D03*
X56060340Y-83000000D03*
X53520340Y-83000000D03*
X50980340Y-83000000D03*
X48440340Y-83000000D03*
X45900340Y-83000000D03*
X43360340Y-83000000D03*
X40820340Y-83000000D03*
X38280340Y-83000000D03*
X35740340Y-83000000D03*
X33200340Y-83000000D03*
X30660340Y-83000000D03*
X28120340Y-83000000D03*
X25580340Y-83000000D03*
X23040340Y-83000000D03*
X20500340Y-83000000D03*
X17960340Y-83000000D03*
D17*
X44124880Y-70464920D03*
X44124880Y-71114920D03*
X44124880Y-71764920D03*
X44124880Y-72414920D03*
X44124880Y-73064920D03*
X44124880Y-73714920D03*
X44124880Y-74364920D03*
X44124880Y-75014920D03*
X44124880Y-75664920D03*
X44124880Y-76314920D03*
X44124880Y-76964920D03*
X44124880Y-77614920D03*
X49824880Y-77614920D03*
X49824880Y-76964920D03*
X49824880Y-76314920D03*
X49824880Y-75664920D03*
X49824880Y-75014920D03*
X49824880Y-74364920D03*
X49824880Y-73714920D03*
X49824880Y-73064920D03*
X49824880Y-72414920D03*
X49824880Y-71764920D03*
X49824880Y-71114920D03*
X49824880Y-70464920D03*
D23*
X58536840Y-69009260D03*
X73990436Y-71633966D03*
X80848200Y-71109840D03*
X80853280Y-69877940D03*
X80820260Y-68252340D03*
X80863440Y-66344800D03*
X90779600Y-79032100D03*
X84640420Y-81460340D03*
X88017896Y-71622304D03*
X90380820Y-66560700D03*
X90568780Y-68209160D03*
X88074406Y-69953572D03*
X64960500Y-59286140D03*
X53771800Y-89654380D03*
X49466500Y-89664540D03*
X39875460Y-90771980D03*
X35600400Y-90746580D03*
X33248600Y-90843100D03*
X30728920Y-91010740D03*
X28445220Y-90774520D03*
X25961340Y-90814920D03*
X50954940Y-72997060D03*
X94576900Y-76700380D03*
X98993960Y-66629280D03*
X39802680Y-72603360D03*
X42938700Y-72136000D03*
X53162200Y-73451720D03*
X75565000Y-69430900D03*
X70853300Y-59766200D03*
X52847980Y-61554360D03*
X66558160Y-69430900D03*
X54813300Y-69814440D03*
X69161660Y-87850980D03*
X55920640Y-85798660D03*
X60261500Y-69730620D03*
X65714880Y-71511160D03*
X51165760Y-71455280D03*
X100863400Y-69881440D03*
X39782440Y-70683120D03*
X77238860Y-63279020D03*
X80223360Y-76598780D03*
X93479620Y-76928980D03*
X76166980Y-63880620D03*
X79400400Y-76568300D03*
X92534740Y-77116940D03*
X74996040Y-64368680D03*
X78955900Y-75819000D03*
X91473020Y-77094080D03*
X47581820Y-76100940D03*
X48277780Y-74871020D03*
X48265080Y-73705720D03*
X48514000Y-72507240D03*
X83911440Y-57292240D03*
X90512977Y-71755823D03*
X90845640Y-74530840D03*
X92567760Y-74869040D03*
X51371500Y-70672960D03*
X74056240Y-70459220D03*
X62806580Y-71889620D03*
X55676800Y-75178920D03*
X45979586Y-71514206D03*
X43177460Y-70383400D03*
X60764420Y-80177640D03*
X59763660Y-80144620D03*
X56154320Y-77144880D03*
X55290720Y-79590040D03*
X54546500Y-78872080D03*
X53563520Y-78531720D03*
X52372260Y-77647800D03*
X61643314Y-80012594D03*
X52405280Y-74620120D03*
X30002480Y-67904360D03*
X37170360Y-72182480D03*
X95422720Y-75435460D03*
X81290160Y-76677520D03*
X85349080Y-68712080D03*
X76558140Y-73233280D03*
X84599780Y-66321940D03*
X54770020Y-74891900D03*
X64503300Y-71279640D03*
X92912706Y-73316106D03*
X109303820Y-75255120D03*
X76636880Y-75125580D03*
X84894420Y-69496940D03*
X69098160Y-79844690D03*
X73083420Y-75890120D03*
X65224660Y-76321920D03*
X64424560Y-85166200D03*
X59717940Y-85089620D03*
X50780328Y-76472322D03*
X92336620Y-73929240D03*
X76492100Y-74231500D03*
X84533740Y-67701160D03*
X69898260Y-79844690D03*
X73797160Y-74124820D03*
X65084581Y-75056621D03*
X57856120Y-85262720D03*
X50995580Y-75366880D03*
X65377060Y-85298280D03*
X92760800Y-71864220D03*
X77597000Y-75846940D03*
X84574380Y-71092060D03*
X92801440Y-63675260D03*
X92110560Y-66601340D03*
X70538682Y-79365250D03*
X65991740Y-79338410D03*
X50962560Y-77675740D03*
X110448980Y-69616320D03*
X98480880Y-70759320D03*
X64531240Y-67990720D03*
X106486960Y-71427340D03*
X77276960Y-79987140D03*
X85275420Y-79298800D03*
X51704240Y-68198620D03*
X107805220Y-73444100D03*
X63897270Y-72583040D03*
X63897270Y-74482960D03*
X64463040Y-69443600D03*
X92125800Y-70434200D03*
X78071980Y-80383380D03*
X86245700Y-79266810D03*
X51067775Y-68683301D03*
X96931577Y-71360920D03*
X108955840Y-72440800D03*
X57236664Y-69586992D03*
X91165680Y-70441820D03*
X79090520Y-80510380D03*
X87067266Y-79564807D03*
X50453594Y-69195926D03*
X97731580Y-71360920D03*
X109232700Y-71541640D03*
X56497220Y-69892320D03*
X92044520Y-71465440D03*
X79700120Y-81074260D03*
X87823040Y-79827120D03*
X49298860Y-69454620D03*
X95951040Y-72189340D03*
X60025280Y-88527220D03*
X64801080Y-88501220D03*
X24739600Y-69804280D03*
X42153840Y-73380600D03*
X27873960Y-67581780D03*
X38483540Y-72784080D03*
X62344300Y-73192640D03*
X62245240Y-74437240D03*
X62199520Y-76029820D03*
X62285880Y-77477840D03*
X65758060Y-77043280D03*
X65758060Y-75661520D03*
X65709800Y-74455020D03*
X65747900Y-73093580D03*
D24*
X58287920Y-69258180D02*
X58536840Y-69009260D01*
X58287920Y-72064000D02*
X58287920Y-69258180D01*
X59504580Y-72702460D02*
X58926380Y-72702460D01*
X58926380Y-72702460D02*
X58287920Y-72064000D01*
X61147840Y-72543000D02*
X59664040Y-72543000D01*
X59664040Y-72543000D02*
X59504580Y-72702460D01*
X73992740Y-72091820D02*
X73992740Y-71636270D01*
X73992740Y-71636270D02*
X73990436Y-71633966D01*
X72930840Y-72420520D02*
X73664040Y-72420520D01*
X73664040Y-72420520D02*
X73992740Y-72091820D01*
X72930840Y-72420520D02*
X66970320Y-72420520D01*
X66970320Y-72420520D02*
X66847840Y-72543000D01*
X66929640Y-72461200D02*
X66847840Y-72543000D01*
X81879200Y-71109840D02*
X80848200Y-71109840D01*
X83045980Y-71349420D02*
X82118780Y-71349420D01*
X82118780Y-71349420D02*
X81879200Y-71109840D01*
X80981800Y-69749420D02*
X80853280Y-69877940D01*
X83045980Y-69749420D02*
X80981800Y-69749420D01*
X80923180Y-68149420D02*
X80820260Y-68252340D01*
X83045980Y-68149420D02*
X80923180Y-68149420D01*
X81068060Y-66549420D02*
X80863440Y-66344800D01*
X83045980Y-66549420D02*
X81068060Y-66549420D01*
X90347720Y-78549420D02*
X90779600Y-78981300D01*
X90779600Y-78981300D02*
X90779600Y-79032100D01*
X89217980Y-78549420D02*
X90347720Y-78549420D01*
X89217980Y-78549420D02*
X89217980Y-79349420D01*
X84622640Y-79536390D02*
X84622640Y-81442560D01*
X84622640Y-81442560D02*
X84640420Y-81460340D01*
X83045980Y-79349420D02*
X84435670Y-79349420D01*
X84435670Y-79349420D02*
X84622640Y-79536390D01*
X83045980Y-78549420D02*
X83045980Y-79349420D01*
X88290780Y-71349420D02*
X88017896Y-71622304D01*
X88000840Y-71639360D02*
X88017896Y-71622304D01*
X89217980Y-71349420D02*
X88290780Y-71349420D01*
X90156460Y-66560700D02*
X90380820Y-66560700D01*
X89217980Y-66549420D02*
X90145180Y-66549420D01*
X90145180Y-66549420D02*
X90156460Y-66560700D01*
X90204920Y-68209160D02*
X90568780Y-68209160D01*
X89217980Y-68149420D02*
X90145180Y-68149420D01*
X90145180Y-68149420D02*
X90204920Y-68209160D01*
X88290780Y-69749420D02*
X88074406Y-69953572D01*
X88075900Y-69964300D02*
X88075900Y-69955066D01*
X88075900Y-69955066D02*
X88074406Y-69953572D01*
X89217980Y-69749420D02*
X88290780Y-69749420D01*
X64960500Y-59548000D02*
X64960500Y-59286140D01*
X63804800Y-60050500D02*
X64458000Y-60050500D01*
X64458000Y-60050500D02*
X64960500Y-59548000D01*
X53771800Y-89527140D02*
X53771800Y-89654380D01*
X52712620Y-89121160D02*
X53365820Y-89121160D01*
X53365820Y-89121160D02*
X53771800Y-89527140D01*
X49552860Y-89511900D02*
X49552860Y-89578180D01*
X49552860Y-89578180D02*
X49466500Y-89664540D01*
X50579020Y-89138940D02*
X49925820Y-89138940D01*
X49925820Y-89138940D02*
X49552860Y-89511900D01*
X39489560Y-90426720D02*
X39834820Y-90771980D01*
X39834820Y-90771980D02*
X39875460Y-90771980D01*
X38676580Y-90426720D02*
X39489560Y-90426720D01*
X36555680Y-90444500D02*
X35902480Y-90444500D01*
X35902480Y-90444500D02*
X35600400Y-90746580D01*
X33482100Y-90467360D02*
X33248600Y-90700860D01*
X33248600Y-90700860D02*
X33248600Y-90843100D01*
X34239200Y-90467360D02*
X33482100Y-90467360D01*
X30682960Y-90873580D02*
X30682960Y-90964780D01*
X30682960Y-90964780D02*
X30728920Y-91010740D01*
X31714440Y-90495300D02*
X31061240Y-90495300D01*
X31061240Y-90495300D02*
X30682960Y-90873580D01*
X29385260Y-90487680D02*
X28732060Y-90487680D01*
X28732060Y-90487680D02*
X28445220Y-90774520D01*
X26936700Y-90492760D02*
X26283500Y-90492760D01*
X26283500Y-90492760D02*
X25961340Y-90814920D01*
X50899060Y-72846218D02*
X50899060Y-72941180D01*
X50899060Y-72941180D02*
X50954940Y-72997060D01*
X49824880Y-72414920D02*
X50467762Y-72414920D01*
X50467762Y-72414920D02*
X50899060Y-72846218D01*
X94298340Y-76700380D02*
X94576900Y-76700380D01*
X94044980Y-76018820D02*
X94044980Y-76447020D01*
X94044980Y-76447020D02*
X94298340Y-76700380D01*
X98993960Y-67268400D02*
X98993960Y-66629280D01*
X99882960Y-67579200D02*
X99304760Y-67579200D01*
X99304760Y-67579200D02*
X98993960Y-67268400D01*
X40779700Y-73002180D02*
X40201500Y-73002180D01*
X40201500Y-73002180D02*
X39802680Y-72603360D01*
X43092760Y-72136000D02*
X42938700Y-72136000D01*
X44124880Y-72414920D02*
X43371680Y-72414920D01*
X43371680Y-72414920D02*
X43092760Y-72136000D01*
X52925800Y-73215320D02*
X53162200Y-73451720D01*
X52925800Y-72555140D02*
X52925800Y-73215320D01*
X55430600Y-68640960D02*
X55430600Y-70350340D01*
X55430600Y-70350340D02*
X55125800Y-70655140D01*
X75565000Y-69558160D02*
X75565000Y-69430900D01*
X75130840Y-70520520D02*
X75130840Y-69992320D01*
X75130840Y-69992320D02*
X75565000Y-69558160D01*
X71038480Y-59766200D02*
X70853300Y-59766200D01*
X71975980Y-60050500D02*
X71322780Y-60050500D01*
X71322780Y-60050500D02*
X71038480Y-59766200D01*
X51712040Y-61887100D02*
X52515240Y-61887100D01*
X52515240Y-61887100D02*
X52847980Y-61554360D01*
X66761780Y-69430900D02*
X66558160Y-69430900D01*
X66989960Y-68549520D02*
X66989960Y-69202720D01*
X66989960Y-69202720D02*
X66761780Y-69430900D01*
X55125800Y-70655140D02*
X55125800Y-70126940D01*
X55125800Y-70126940D02*
X54813300Y-69814440D01*
X68770260Y-87850980D02*
X69161660Y-87850980D01*
X68318560Y-86746080D02*
X68318560Y-87399280D01*
X68318560Y-87399280D02*
X68770260Y-87850980D01*
X56116460Y-85854540D02*
X55976520Y-85854540D01*
X55976520Y-85854540D02*
X55920640Y-85798660D01*
X56413220Y-86804500D02*
X56413220Y-86151300D01*
X56413220Y-86151300D02*
X56116460Y-85854540D01*
D25*
X59576420Y-69730620D02*
X60261500Y-69730620D01*
X59504580Y-70802460D02*
X59504580Y-69802460D01*
X59504580Y-69802460D02*
X59576420Y-69730620D01*
X61147840Y-71243000D02*
X59945120Y-71243000D01*
X59945120Y-71243000D02*
X59504580Y-70802460D01*
D24*
X66010980Y-71243000D02*
X65742820Y-71511160D01*
X65742820Y-71511160D02*
X65714880Y-71511160D01*
X66847840Y-71243000D02*
X66010980Y-71243000D01*
X50918440Y-71455280D02*
X51165760Y-71455280D01*
X49824880Y-71114920D02*
X50578080Y-71114920D01*
X50578080Y-71114920D02*
X50918440Y-71455280D01*
X99882960Y-69479200D02*
X100461160Y-69479200D01*
X100461160Y-69479200D02*
X100863400Y-69881440D01*
X99882960Y-69479200D02*
X99882960Y-71406800D01*
X99882960Y-71406800D02*
X99944980Y-71468820D01*
X40779700Y-71102180D02*
X40201500Y-71102180D01*
X40201500Y-71102180D02*
X39782440Y-70683120D01*
X44124880Y-71114920D02*
X40792440Y-71114920D01*
X40792440Y-71114920D02*
X40779700Y-71102180D01*
X78663150Y-73861286D02*
X80223360Y-75421496D01*
X80223360Y-75421496D02*
X80223360Y-76598780D01*
X78663150Y-64710941D02*
X78663150Y-73861286D01*
X77238860Y-63279020D02*
X77538859Y-63579019D01*
X77538859Y-63579019D02*
X77538859Y-63586649D01*
X77538859Y-63586649D02*
X78663150Y-64710941D01*
X93877160Y-77326520D02*
X93479620Y-76928980D01*
X95467140Y-77326520D02*
X93877160Y-77326520D01*
X96749250Y-76755621D02*
X96038039Y-76755621D01*
X96038039Y-76755621D02*
X95467140Y-77326520D01*
X98539261Y-74965611D02*
X96749250Y-76755621D01*
X99944980Y-74718820D02*
X98786052Y-74718820D01*
X98786052Y-74718820D02*
X98539261Y-74965611D01*
X76166980Y-63880620D02*
X76443460Y-63880620D01*
X79700399Y-76268301D02*
X79400400Y-76568300D01*
X76443460Y-63880620D02*
X76479400Y-63916560D01*
X76479400Y-63916560D02*
X77298545Y-63916560D01*
X77298545Y-63916560D02*
X78259940Y-64877956D01*
X78259940Y-64877956D02*
X78259940Y-74028300D01*
X78259940Y-74028300D02*
X79700399Y-75468759D01*
X79700399Y-75468759D02*
X79700399Y-76268301D01*
X93147530Y-77729730D02*
X92534740Y-77116940D01*
X96937186Y-77729730D02*
X93147530Y-77729730D01*
X97152460Y-77514456D02*
X96937186Y-77729730D01*
X97320738Y-76754358D02*
X97152460Y-76922636D01*
X97152460Y-76922636D02*
X97152460Y-77514456D01*
X99944980Y-75368820D02*
X98706276Y-75368820D01*
X98706276Y-75368820D02*
X97320738Y-76754358D01*
X74996040Y-64368680D02*
X75079860Y-64368680D01*
X75079860Y-64368680D02*
X75193401Y-64482221D01*
X75193401Y-64482221D02*
X77293981Y-64482221D01*
X77293981Y-64482221D02*
X77845920Y-65034160D01*
X77845920Y-65034160D02*
X77845920Y-74709020D01*
X77845920Y-74709020D02*
X78955900Y-75819000D01*
X92605860Y-78132940D02*
X91567000Y-77094080D01*
X91567000Y-77094080D02*
X91473020Y-77094080D01*
X97104200Y-78132940D02*
X92605860Y-78132940D01*
X97566480Y-77670660D02*
X97104200Y-78132940D01*
X97566480Y-77078840D02*
X97566480Y-77670660D01*
X98625660Y-76019660D02*
X97566480Y-77078840D01*
X99419140Y-76019660D02*
X98625660Y-76019660D01*
X99944980Y-76018820D02*
X99419980Y-76018820D01*
X99419980Y-76018820D02*
X99419140Y-76019660D01*
X48447960Y-76967080D02*
X47581820Y-76100940D01*
X49069520Y-76967080D02*
X48447960Y-76967080D01*
X49824880Y-76964920D02*
X49071680Y-76964920D01*
X49071680Y-76964920D02*
X49069520Y-76967080D01*
X49824880Y-75664920D02*
X49071680Y-75664920D01*
X49071680Y-75664920D02*
X48277780Y-74871020D01*
X48445500Y-73738740D02*
X48298100Y-73738740D01*
X48298100Y-73738740D02*
X48265080Y-73705720D01*
X49824880Y-74364920D02*
X49071680Y-74364920D01*
X49071680Y-74364920D02*
X48445500Y-73738740D01*
X49824880Y-73064920D02*
X49071680Y-73064920D01*
X49071680Y-73064920D02*
X48514000Y-72507240D01*
X83911440Y-57292240D02*
X83858100Y-57238900D01*
X83858100Y-57238900D02*
X68315840Y-57238900D01*
X68315840Y-57238900D02*
X65697100Y-59857640D01*
X65697100Y-59857640D02*
X65697100Y-61374020D01*
X65697100Y-61374020D02*
X64820620Y-62250500D01*
X64820620Y-62250500D02*
X63804800Y-62250500D01*
X90482420Y-72176640D02*
X90482420Y-71786380D01*
X90482420Y-71786380D02*
X90512977Y-71755823D01*
X90845640Y-72539860D02*
X90482420Y-72176640D01*
X90845640Y-74530840D02*
X90845640Y-72539860D01*
X92969500Y-74841100D02*
X92595700Y-74841100D01*
X92595700Y-74841100D02*
X92567760Y-74869040D01*
X94044980Y-74718820D02*
X93091780Y-74718820D01*
X93091780Y-74718820D02*
X92969500Y-74841100D01*
X63804800Y-62250500D02*
X63804800Y-65645860D01*
X63804800Y-65645860D02*
X63700660Y-65750000D01*
X73860660Y-66952081D02*
X72506840Y-68305901D01*
X72506840Y-68305901D02*
X72263221Y-68549520D01*
X72930840Y-70520520D02*
X72930840Y-68729901D01*
X72930840Y-68729901D02*
X72506840Y-68305901D01*
X66847840Y-70593000D02*
X67197840Y-70593000D01*
X67197840Y-70593000D02*
X69189960Y-68600880D01*
X69189960Y-68600880D02*
X69189960Y-68549520D01*
X73860660Y-63481980D02*
X73205580Y-62826900D01*
X73205580Y-62826900D02*
X72629180Y-62250500D01*
X77754060Y-61460380D02*
X74572100Y-61460380D01*
X74572100Y-61460380D02*
X73205580Y-62826900D01*
X81010760Y-60325000D02*
X78889440Y-60325000D01*
X78889440Y-60325000D02*
X77754060Y-61460380D01*
X73860660Y-65750000D02*
X73860660Y-63481980D01*
X72629180Y-62250500D02*
X71975980Y-62250500D01*
X69189960Y-68549520D02*
X71993760Y-68549520D01*
X71993760Y-68549520D02*
X72255380Y-68549520D01*
X73860660Y-65750000D02*
X73860660Y-66952081D01*
X72263221Y-68549520D02*
X71993760Y-68549520D01*
X69069860Y-68669620D02*
X69189960Y-68549520D01*
X67053460Y-70561200D02*
X67021660Y-70593000D01*
X67021660Y-70593000D02*
X66847840Y-70593000D01*
X50111660Y-60520580D02*
X49512040Y-61120200D01*
X49512040Y-61120200D02*
X49512040Y-61887100D01*
X52902700Y-60520580D02*
X50111660Y-60520580D01*
X56502300Y-59042300D02*
X54380980Y-59042300D01*
X54380980Y-59042300D02*
X52902700Y-60520580D01*
X52002380Y-70464920D02*
X51607720Y-70464920D01*
X51607720Y-70464920D02*
X50578080Y-70464920D01*
X51371500Y-70672960D02*
X51399680Y-70672960D01*
X51399680Y-70672960D02*
X51607720Y-70464920D01*
X52925800Y-70655140D02*
X52192600Y-70655140D01*
X52192600Y-70655140D02*
X52002380Y-70464920D01*
X50578080Y-70464920D02*
X49824880Y-70464920D01*
X52954100Y-68569840D02*
X52954100Y-70626840D01*
X52954100Y-70626840D02*
X52925800Y-70655140D01*
X49131220Y-63144400D02*
X49512040Y-62763580D01*
X49512040Y-62763580D02*
X49512040Y-61887100D01*
X46527720Y-63144400D02*
X49131220Y-63144400D01*
X45920660Y-63751460D02*
X46527720Y-63144400D01*
X45920660Y-65750000D02*
X45920660Y-63751460D01*
X49434679Y-66599999D02*
X49949100Y-67114420D01*
X59806840Y-67083940D02*
X49979580Y-67083940D01*
X49979580Y-67083940D02*
X49949100Y-67114420D01*
X60304680Y-67581780D02*
X59806840Y-67083940D01*
X60322460Y-67581780D02*
X60304680Y-67581780D01*
X62212220Y-71785480D02*
X62104700Y-71893000D01*
X62104700Y-71893000D02*
X61147840Y-71893000D01*
X62212220Y-69471540D02*
X62212220Y-71785480D01*
X60322460Y-67581780D02*
X62212220Y-69471540D01*
X48460660Y-65750000D02*
X49310659Y-66599999D01*
X49310659Y-66599999D02*
X49434679Y-66599999D01*
X44124880Y-71764920D02*
X44878080Y-71764920D01*
X44878080Y-71764920D02*
X45827800Y-70815200D01*
X45827800Y-70815200D02*
X45827800Y-68382860D01*
X45827800Y-68382860D02*
X48460660Y-65750000D01*
X74081640Y-70843120D02*
X74081640Y-70484620D01*
X74081640Y-70484620D02*
X74056240Y-70459220D01*
X75130840Y-72420520D02*
X75130840Y-71892320D01*
X75130840Y-71892320D02*
X74081640Y-70843120D01*
X52331620Y-64429640D02*
X59148980Y-64429640D01*
X59148980Y-64429640D02*
X59326780Y-64429640D01*
X60629800Y-57508140D02*
X60629800Y-62948820D01*
X60629800Y-62948820D02*
X59148980Y-64429640D01*
X62948820Y-71747380D02*
X62806580Y-71889620D01*
X62948820Y-69499480D02*
X62948820Y-71747380D01*
X59865260Y-66415920D02*
X62948820Y-69499480D01*
X59865260Y-64968120D02*
X59865260Y-66415920D01*
X59326780Y-64429640D02*
X59865260Y-64968120D01*
X51861259Y-64900001D02*
X52331620Y-64429640D01*
X51000660Y-65750000D02*
X51850659Y-64900001D01*
X51850659Y-64900001D02*
X51861259Y-64900001D01*
X55874920Y-74942700D02*
X55676800Y-75140820D01*
X55676800Y-75140820D02*
X55676800Y-75178920D01*
X55874920Y-73832460D02*
X55874920Y-74942700D01*
X55125800Y-72555140D02*
X55125800Y-73083340D01*
X55125800Y-73083340D02*
X55874920Y-73832460D01*
X45979586Y-71514206D02*
X45979586Y-71355714D01*
X45979586Y-71355714D02*
X46231010Y-71104290D01*
X46231010Y-71104290D02*
X46231010Y-68579530D01*
X46231010Y-68579530D02*
X47213520Y-67597020D01*
X59901470Y-67748795D02*
X61147840Y-68995164D01*
X47213520Y-67597020D02*
X59339480Y-67597020D01*
X59339480Y-67597020D02*
X59491255Y-67748795D01*
X59491255Y-67748795D02*
X59901470Y-67748795D01*
X61147840Y-68995164D02*
X61147840Y-70593000D01*
X43177460Y-70383400D02*
X44043360Y-70383400D01*
X44043360Y-70383400D02*
X44124880Y-70464920D01*
X59811920Y-80998060D02*
X60632340Y-80177640D01*
X60632340Y-80177640D02*
X60764420Y-80177640D01*
X53230780Y-80998060D02*
X59811920Y-80998060D01*
X52999110Y-81229730D02*
X53230780Y-80998060D01*
X49008529Y-81229730D02*
X52999110Y-81229730D01*
X48440340Y-83000000D02*
X48440340Y-81797919D01*
X48440340Y-81797919D02*
X49008529Y-81229730D01*
X48440340Y-83000000D02*
X48440340Y-84202081D01*
X48440340Y-84202081D02*
X49622899Y-85384640D01*
X49622899Y-85384640D02*
X51979300Y-85384640D01*
X51979300Y-85384640D02*
X52712620Y-86117960D01*
X52712620Y-86117960D02*
X52712620Y-86921160D01*
X59404870Y-80594850D02*
X59763660Y-80236060D01*
X59763660Y-80236060D02*
X59763660Y-80144620D01*
X53579410Y-80594850D02*
X59404870Y-80594850D01*
X53069495Y-80589120D02*
X53573680Y-80589120D01*
X53573680Y-80589120D02*
X53579410Y-80594850D01*
X51831240Y-80826520D02*
X52832095Y-80826520D01*
X52832095Y-80826520D02*
X53069495Y-80589120D01*
X46628140Y-80826520D02*
X51831240Y-80826520D01*
X45900340Y-81573280D02*
X45900340Y-81554320D01*
X45900340Y-81554320D02*
X46628140Y-80826520D01*
X45900340Y-83000000D02*
X45900340Y-81573280D01*
X46235620Y-85242400D02*
X45900340Y-84907120D01*
X45900340Y-84907120D02*
X45900340Y-83000000D01*
X48229280Y-85242400D02*
X46235620Y-85242400D01*
X50579020Y-86938940D02*
X49925820Y-86938940D01*
X49925820Y-86938940D02*
X48229280Y-85242400D01*
X56179720Y-79595980D02*
X56179720Y-77170280D01*
X56179720Y-77170280D02*
X56154320Y-77144880D01*
X55584060Y-80191640D02*
X56179720Y-79595980D01*
X53803580Y-80191640D02*
X55584060Y-80191640D01*
X52902480Y-80185911D02*
X53797851Y-80185911D01*
X53797851Y-80185911D02*
X53803580Y-80191640D01*
X52186263Y-80423310D02*
X52665081Y-80423310D01*
X52665081Y-80423310D02*
X52902480Y-80185911D01*
X44015660Y-80423310D02*
X52186263Y-80423310D01*
X43360340Y-81078630D02*
X44015660Y-80423310D01*
X43360340Y-83000000D02*
X43360340Y-81078630D01*
X43360340Y-83000000D02*
X43360340Y-84202081D01*
X43360340Y-84202081D02*
X43203941Y-84358480D01*
X43203941Y-84358480D02*
X42278300Y-84358480D01*
X42278300Y-84358480D02*
X40635570Y-86001210D01*
X40635570Y-86001210D02*
X40098890Y-86001210D01*
X40098890Y-86001210D02*
X38676580Y-87423520D01*
X38676580Y-87423520D02*
X38676580Y-88226720D01*
X54747153Y-79575653D02*
X54761540Y-79590040D01*
X54761540Y-79590040D02*
X55290720Y-79590040D01*
X52463695Y-79575653D02*
X54747153Y-79575653D01*
X41440160Y-80020100D02*
X52019250Y-80020100D01*
X52019250Y-80020100D02*
X52463695Y-79575653D01*
X41135300Y-81482959D02*
X41135300Y-80324960D01*
X41135300Y-80324960D02*
X41440160Y-80020100D01*
X40820340Y-83000000D02*
X40820340Y-81797919D01*
X40820340Y-81797919D02*
X41135300Y-81482959D01*
X40213280Y-85598000D02*
X40820340Y-84990940D01*
X40820340Y-84990940D02*
X40820340Y-83000000D01*
X37150040Y-85598000D02*
X40213280Y-85598000D01*
X36555680Y-86192360D02*
X37150040Y-85598000D01*
X36555680Y-88244500D02*
X36555680Y-86192360D01*
X54233435Y-79172445D02*
X54533800Y-78872080D01*
X54533800Y-78872080D02*
X54546500Y-78872080D01*
X52270660Y-79198464D02*
X52296679Y-79172445D01*
X52296679Y-79172445D02*
X54233435Y-79172445D01*
X40624159Y-79616890D02*
X51852235Y-79616890D01*
X51852235Y-79616890D02*
X52270660Y-79198464D01*
X40612060Y-79628989D02*
X40624159Y-79616890D01*
X38686150Y-79987730D02*
X40304130Y-79987730D01*
X40612060Y-79679800D02*
X40612060Y-79628989D01*
X40304130Y-79987730D02*
X40612060Y-79679800D01*
X38536880Y-81541379D02*
X38536880Y-80137000D01*
X38536880Y-80137000D02*
X38686150Y-79987730D01*
X38280340Y-83000000D02*
X38280340Y-81797919D01*
X38280340Y-81797919D02*
X38536880Y-81541379D01*
X37566600Y-85029040D02*
X38280340Y-84315300D01*
X38280340Y-84315300D02*
X38280340Y-83000000D01*
X34798000Y-85029040D02*
X37566600Y-85029040D01*
X34239200Y-85587840D02*
X34798000Y-85029040D01*
X34239200Y-88267360D02*
X34239200Y-85587840D01*
X52367180Y-78531720D02*
X53563520Y-78531720D01*
X52039520Y-78859380D02*
X52367180Y-78531720D01*
X51685220Y-79213680D02*
X52039520Y-78859380D01*
X43289220Y-79213680D02*
X51685220Y-79213680D01*
X40457145Y-79213680D02*
X43289220Y-79213680D01*
X36473160Y-79584520D02*
X40086305Y-79584520D01*
X40086305Y-79584520D02*
X40457145Y-79213680D01*
X35740340Y-80317340D02*
X36473160Y-79584520D01*
X35740340Y-83000000D02*
X35740340Y-80317340D01*
X35392360Y-84569300D02*
X35740340Y-84221320D01*
X35740340Y-84221320D02*
X35740340Y-83000000D01*
X33403346Y-84569300D02*
X35392360Y-84569300D01*
X31714440Y-86258206D02*
X33403346Y-84569300D01*
X31714440Y-88295300D02*
X31714440Y-86258206D01*
X52082049Y-77971031D02*
X52372260Y-77680820D01*
X52372260Y-77680820D02*
X52372260Y-77647800D01*
X51800122Y-78437102D02*
X52082049Y-78155175D01*
X52082049Y-78155175D02*
X52082049Y-77971031D01*
X51706780Y-78530444D02*
X51800122Y-78437102D01*
X40290130Y-78810470D02*
X51426755Y-78810470D01*
X51426755Y-78810470D02*
X51706780Y-78530444D01*
X40065960Y-78983840D02*
X40116760Y-78983840D01*
X40116760Y-78983840D02*
X40290130Y-78810470D01*
X34310970Y-79181310D02*
X39868490Y-79181310D01*
X39868490Y-79181310D02*
X40065960Y-78983840D01*
X33550860Y-79941420D02*
X34310970Y-79181310D01*
X33550860Y-81447399D02*
X33550860Y-79941420D01*
X33200340Y-83000000D02*
X33200340Y-81797919D01*
X33200340Y-81797919D02*
X33550860Y-81447399D01*
X33200340Y-83000000D02*
X33200340Y-84202081D01*
X33200340Y-84202081D02*
X32967741Y-84434680D01*
X32967741Y-84434680D02*
X31043880Y-84434680D01*
X31043880Y-84434680D02*
X29385260Y-86093300D01*
X29385260Y-86093300D02*
X29385260Y-88287680D01*
X61643314Y-80012594D02*
X61173739Y-79543019D01*
X61173739Y-79543019D02*
X59481341Y-79543019D01*
X56911240Y-76918820D02*
X56535699Y-76543279D01*
X59481341Y-79543019D02*
X59349640Y-79674720D01*
X57856120Y-79674720D02*
X56911240Y-78729840D01*
X59349640Y-79674720D02*
X57856120Y-79674720D01*
X56911240Y-78729840D02*
X56911240Y-76918820D01*
X56535699Y-76543279D02*
X54328439Y-76543279D01*
X54328439Y-76543279D02*
X52405280Y-74620120D01*
X51678840Y-75346560D02*
X52405280Y-74620120D01*
X51678840Y-77988160D02*
X51678840Y-75346560D01*
X51259740Y-78407260D02*
X51678840Y-77988160D01*
X48841660Y-78407260D02*
X51259740Y-78407260D01*
X39905940Y-78407260D02*
X48841660Y-78407260D01*
X39535100Y-78778100D02*
X39905940Y-78407260D01*
X33680159Y-78778100D02*
X39535100Y-78778100D01*
X30660340Y-83000000D02*
X30660340Y-81797919D01*
X30660340Y-81797919D02*
X33680159Y-78778100D01*
X30360620Y-84528660D02*
X30660340Y-84228940D01*
X30660340Y-84228940D02*
X30660340Y-83000000D01*
X28206700Y-84528660D02*
X30360620Y-84528660D01*
X26936700Y-85798660D02*
X28206700Y-84528660D01*
X26936700Y-88292760D02*
X26936700Y-85798660D01*
X30002480Y-67904360D02*
X30680660Y-67226180D01*
X30680660Y-67226180D02*
X30680660Y-65750000D01*
X37576760Y-72656700D02*
X37170360Y-72250300D01*
X37170360Y-72250300D02*
X37170360Y-72182480D01*
X37576760Y-73687940D02*
X37576760Y-72656700D01*
X39400480Y-75511660D02*
X37576760Y-73687940D01*
X43218420Y-75511660D02*
X39400480Y-75511660D01*
X44124880Y-75664920D02*
X43371680Y-75664920D01*
X43371680Y-75664920D02*
X43218420Y-75511660D01*
X33891220Y-71958200D02*
X33220660Y-71287640D01*
X33220660Y-71287640D02*
X33220660Y-65750000D01*
X35610800Y-71958200D02*
X33891220Y-71958200D01*
X36263580Y-72610980D02*
X35610800Y-71958200D01*
X36263580Y-73362820D02*
X36263580Y-72610980D01*
X39865680Y-76964920D02*
X36263580Y-73362820D01*
X44124880Y-76964920D02*
X39865680Y-76964920D01*
X95707200Y-75031600D02*
X95422720Y-75316080D01*
X95422720Y-75316080D02*
X95422720Y-75435460D01*
X95707200Y-73563158D02*
X95707200Y-75031600D01*
X94044980Y-72768820D02*
X94912862Y-72768820D01*
X94912862Y-72768820D02*
X95707200Y-73563158D01*
X58813700Y-84488020D02*
X58600340Y-84274660D01*
X58600340Y-84274660D02*
X58600340Y-83000000D01*
X78559660Y-84488020D02*
X58813700Y-84488020D01*
X81290160Y-81757520D02*
X78559660Y-84488020D01*
X81290160Y-76677520D02*
X81290160Y-81757520D01*
X94044980Y-72768820D02*
X93990665Y-72714505D01*
X72344160Y-73843000D02*
X72953880Y-73233280D01*
X72953880Y-73233280D02*
X76558140Y-73233280D01*
X85349080Y-68712080D02*
X85349080Y-67071240D01*
X85349080Y-67071240D02*
X84599780Y-66321940D01*
X84426320Y-66202560D02*
X84480400Y-66202560D01*
X84480400Y-66202560D02*
X84599780Y-66321940D01*
X83045980Y-65749420D02*
X83973180Y-65749420D01*
X83973180Y-65749420D02*
X84426320Y-66202560D01*
X66847840Y-73843000D02*
X72344160Y-73843000D01*
X83011440Y-65714880D02*
X83045980Y-65749420D01*
X52650290Y-73830180D02*
X53023670Y-74203560D01*
X53023670Y-74203560D02*
X53047900Y-74227790D01*
X54770020Y-74891900D02*
X53712010Y-74891900D01*
X53712010Y-74891900D02*
X53023670Y-74203560D01*
X64902080Y-71531480D02*
X64650240Y-71279640D01*
X64650240Y-71279640D02*
X64503300Y-71279640D01*
X64902080Y-73327260D02*
X64902080Y-71531480D01*
X65417820Y-73843000D02*
X64902080Y-73327260D01*
X66847840Y-73843000D02*
X65417820Y-73843000D01*
X50693340Y-73830180D02*
X52650290Y-73830180D01*
X49824880Y-73714920D02*
X50578080Y-73714920D01*
X50578080Y-73714920D02*
X50693340Y-73830180D01*
X93216641Y-73295421D02*
X92912706Y-73316106D01*
X92937241Y-73295421D02*
X92916556Y-73316106D01*
X92916556Y-73316106D02*
X92912706Y-73316106D01*
X94044980Y-73418820D02*
X93340040Y-73418820D01*
X93340040Y-73418820D02*
X93216641Y-73295421D01*
X109687360Y-76575920D02*
X109687360Y-75638660D01*
X109687360Y-75638660D02*
X109303820Y-75255120D01*
X110581440Y-77470000D02*
X109687360Y-76575920D01*
X113355120Y-77470000D02*
X110581440Y-77470000D01*
X113742101Y-77856981D02*
X113355120Y-77470000D01*
X114592100Y-78770480D02*
X113742101Y-77920481D01*
X113742101Y-77920481D02*
X113742101Y-77856981D01*
X73667536Y-74881740D02*
X73746360Y-74881740D01*
X73746360Y-74881740D02*
X73930610Y-74881740D01*
X76636880Y-75125580D02*
X76212616Y-75125580D01*
X76212616Y-75125580D02*
X75968776Y-74881740D01*
X75968776Y-74881740D02*
X73746360Y-74881740D01*
X84369760Y-68949420D02*
X84894420Y-69474080D01*
X84894420Y-69474080D02*
X84894420Y-69496940D01*
X83045980Y-68949420D02*
X84369760Y-68949420D01*
X82953120Y-69042280D02*
X83045980Y-68949420D01*
X69204840Y-79297230D02*
X69204840Y-79738010D01*
X69204840Y-79738010D02*
X69098160Y-79844690D01*
X68398690Y-78491080D02*
X69204840Y-79297230D01*
X68097400Y-76939360D02*
X68097400Y-78189791D01*
X68097400Y-78189791D02*
X68398690Y-78491080D01*
X73083420Y-75890120D02*
X73083420Y-75465856D01*
X73083420Y-75465856D02*
X73667536Y-74881740D01*
X65943080Y-76291440D02*
X65255140Y-76291440D01*
X65255140Y-76291440D02*
X65224660Y-76321920D01*
X66847840Y-76443000D02*
X66094640Y-76443000D01*
X66094640Y-76443000D02*
X65943080Y-76291440D01*
X66847840Y-76443000D02*
X67601040Y-76443000D01*
X67601040Y-76443000D02*
X68097400Y-76939360D01*
X64149590Y-84891230D02*
X64424560Y-85166200D01*
X60340594Y-84891230D02*
X64149590Y-84891230D01*
X59717940Y-85089620D02*
X60142204Y-85089620D01*
X60142204Y-85089620D02*
X60340594Y-84891230D01*
X50578080Y-76314920D02*
X50780328Y-76472322D01*
X50754280Y-76491120D02*
X50761530Y-76491120D01*
X50761530Y-76491120D02*
X50780328Y-76472322D01*
X49824880Y-76314920D02*
X50578080Y-76314920D01*
X92980140Y-73957180D02*
X92364560Y-73957180D01*
X92364560Y-73957180D02*
X92336620Y-73929240D01*
X94044980Y-74068820D02*
X93091780Y-74068820D01*
X93091780Y-74068820D02*
X92980140Y-73957180D01*
X76492100Y-74231500D02*
X73903840Y-74231500D01*
X73903840Y-74231500D02*
X73797160Y-74124820D01*
X84324920Y-67701160D02*
X84533740Y-67701160D01*
X83045980Y-67349420D02*
X83973180Y-67349420D01*
X83973180Y-67349420D02*
X84324920Y-67701160D01*
X83019360Y-67376040D02*
X83045980Y-67349420D01*
X66847840Y-75143000D02*
X67601040Y-75143000D01*
X67601040Y-75143000D02*
X68500610Y-76042570D01*
X68500610Y-76042570D02*
X68500610Y-78022776D01*
X69898260Y-79420426D02*
X69898260Y-79844690D01*
X68500610Y-78022776D02*
X69898260Y-79420426D01*
X66847840Y-75143000D02*
X66094640Y-75143000D01*
X66094640Y-75143000D02*
X66008261Y-75056621D01*
X66008261Y-75056621D02*
X65084581Y-75056621D01*
X65377060Y-85298280D02*
X64907539Y-85767801D01*
X64907539Y-85767801D02*
X64135791Y-85767801D01*
X63658850Y-85307270D02*
X63646020Y-85294440D01*
X64135791Y-85767801D02*
X63675260Y-85307270D01*
X63675260Y-85307270D02*
X63658850Y-85307270D01*
X63646020Y-85294440D02*
X60507609Y-85294440D01*
X60102449Y-85699600D02*
X58293000Y-85699600D01*
X58293000Y-85699600D02*
X57856120Y-85262720D01*
X60507609Y-85294440D02*
X60102449Y-85699600D01*
X50864000Y-75300840D02*
X50929540Y-75300840D01*
X50929540Y-75300840D02*
X50995580Y-75366880D01*
X49824880Y-75014920D02*
X50578080Y-75014920D01*
X50578080Y-75014920D02*
X50864000Y-75300840D01*
X92865120Y-71892160D02*
X92788740Y-71892160D01*
X92788740Y-71892160D02*
X92760800Y-71864220D01*
X94044980Y-72118820D02*
X93091780Y-72118820D01*
X93091780Y-72118820D02*
X92865120Y-71892160D01*
X76502260Y-77810360D02*
X76502260Y-77134720D01*
X76502260Y-77134720D02*
X76502260Y-76997560D01*
X76502260Y-76517416D02*
X76502260Y-77134720D01*
X77597000Y-75846940D02*
X77172736Y-75846940D01*
X77172736Y-75846940D02*
X76502260Y-76517416D01*
X84140040Y-70591680D02*
X84574380Y-71026020D01*
X84574380Y-71026020D02*
X84574380Y-71092060D01*
X84140040Y-70553580D02*
X85925660Y-70553580D01*
X83977340Y-70553580D02*
X84140040Y-70553580D01*
X84140040Y-70553580D02*
X84140040Y-70591680D01*
X92743020Y-63154560D02*
X92743020Y-63616840D01*
X92743020Y-63616840D02*
X92801440Y-63675260D01*
X92680790Y-63092330D02*
X92743020Y-63154560D01*
X92143580Y-62555120D02*
X92680790Y-63092330D01*
X92095320Y-68422520D02*
X92095320Y-66616580D01*
X92095320Y-66616580D02*
X92110560Y-66601340D01*
X93096080Y-69423280D02*
X92095320Y-68422520D01*
X93596460Y-69423280D02*
X93096080Y-69423280D01*
X86803260Y-63394560D02*
X87642700Y-62555120D01*
X87642700Y-62555120D02*
X92143580Y-62555120D01*
X86803260Y-68610465D02*
X86803260Y-63394560D01*
X86210200Y-70269040D02*
X86210200Y-69203525D01*
X86210200Y-69203525D02*
X86803260Y-68610465D01*
X85925660Y-70553580D02*
X86210200Y-70269040D01*
X83045980Y-70549420D02*
X83973180Y-70549420D01*
X83973180Y-70549420D02*
X83977340Y-70553580D01*
X94044980Y-69871800D02*
X93596460Y-69423280D01*
X94044980Y-71468820D02*
X94044980Y-69871800D01*
X83037440Y-70540880D02*
X83045980Y-70549420D01*
X74947370Y-79365250D02*
X76502260Y-77810360D01*
X70538682Y-79365250D02*
X74947370Y-79365250D01*
X65991740Y-79338410D02*
X65991740Y-78249100D01*
X65991740Y-78249100D02*
X66497840Y-77743000D01*
X66497840Y-77743000D02*
X66847840Y-77743000D01*
X50638900Y-77675740D02*
X50962560Y-77675740D01*
X49824880Y-77614920D02*
X50578080Y-77614920D01*
X50578080Y-77614920D02*
X50638900Y-77675740D01*
X110448980Y-73304020D02*
X110835440Y-73690480D01*
X110835440Y-73690480D02*
X112052100Y-73690480D01*
X110448980Y-69616320D02*
X110448980Y-73304020D01*
X95707680Y-70759320D02*
X98480880Y-70759320D01*
X94044980Y-71468820D02*
X94998180Y-71468820D01*
X94998180Y-71468820D02*
X95707680Y-70759320D01*
X85059520Y-77391260D02*
X85275420Y-77607160D01*
X85275420Y-77607160D02*
X85275420Y-79298800D01*
X89217980Y-65749420D02*
X88290780Y-65749420D01*
X85697060Y-71114920D02*
X85059520Y-71752460D01*
X88290780Y-65749420D02*
X87206470Y-66833730D01*
X87206470Y-66833730D02*
X87206470Y-68777481D01*
X87206470Y-68777481D02*
X86613410Y-69370540D01*
X86613410Y-69370540D02*
X86613410Y-70436055D01*
X86613410Y-70436055D02*
X85934545Y-71114920D01*
X85934545Y-71114920D02*
X85697060Y-71114920D01*
X85059520Y-71752460D02*
X85059520Y-77391260D01*
X63750810Y-80037290D02*
X63750810Y-75882500D01*
X64498870Y-73494275D02*
X64498870Y-74751962D01*
X63750810Y-75500022D02*
X63750810Y-75882500D01*
X64498870Y-74751962D02*
X63750810Y-75500022D01*
X61147840Y-73843000D02*
X61949110Y-73843000D01*
X64157506Y-73835639D02*
X64498870Y-73494275D01*
X61949110Y-73843000D02*
X61956471Y-73835639D01*
X64498870Y-73494275D02*
X64498870Y-72050290D01*
X61956471Y-73835639D02*
X64157506Y-73835639D01*
X64531240Y-68414984D02*
X64531240Y-67990720D01*
X64498870Y-72050290D02*
X64368680Y-71920100D01*
X64368680Y-71920100D02*
X64253390Y-71920100D01*
X64253390Y-71920100D02*
X63901699Y-71568409D01*
X63901699Y-71568409D02*
X63901699Y-70990871D01*
X63901699Y-70990871D02*
X65064640Y-69827930D01*
X65064640Y-69827930D02*
X65064640Y-68948384D01*
X65064640Y-68948384D02*
X64531240Y-68414984D01*
X89217980Y-65749420D02*
X102025700Y-65749420D01*
X102025700Y-65749420D02*
X104206040Y-67929760D01*
X104206040Y-67929760D02*
X104206040Y-69146420D01*
X104206040Y-69146420D02*
X106486960Y-71427340D01*
X77276960Y-79987140D02*
X76976961Y-80287139D01*
X76976961Y-80287139D02*
X76976961Y-80329055D01*
X76976961Y-80329055D02*
X76859726Y-80446290D01*
X76859726Y-80446290D02*
X64159810Y-80446290D01*
X64159810Y-80446290D02*
X63750810Y-80037290D01*
X85275420Y-79049880D02*
X85275420Y-79298800D01*
X51574700Y-68046600D02*
X51704240Y-68176140D01*
X51704240Y-68176140D02*
X51704240Y-68198620D01*
X47736760Y-68046600D02*
X51574700Y-68046600D01*
X46634400Y-69148960D02*
X47736760Y-68046600D01*
X46634400Y-70545960D02*
X46634400Y-69148960D01*
X46634220Y-70546140D02*
X46634400Y-70545960D01*
X46283880Y-72235060D02*
X46634220Y-71884720D01*
X46634220Y-71884720D02*
X46634220Y-70546140D01*
X45778420Y-72235060D02*
X46283880Y-72235060D01*
X45339000Y-72674480D02*
X45778420Y-72235060D01*
X45339000Y-73254000D02*
X45339000Y-72674480D01*
X44124880Y-73714920D02*
X44878080Y-73714920D01*
X44878080Y-73714920D02*
X45339000Y-73254000D01*
X100923460Y-73444100D02*
X107805220Y-73444100D01*
X99944980Y-73418820D02*
X100898180Y-73418820D01*
X100898180Y-73418820D02*
X100923460Y-73444100D01*
X89217980Y-67349420D02*
X87933480Y-67349420D01*
X86101560Y-71518130D02*
X85864074Y-71518130D01*
X87933480Y-67349420D02*
X87609680Y-67673220D01*
X87016620Y-69537555D02*
X87016620Y-70603070D01*
X87609680Y-67673220D02*
X87609680Y-68944495D01*
X87609680Y-68944495D02*
X87016620Y-69537555D01*
X87016620Y-70603070D02*
X86101560Y-71518130D01*
X85462730Y-71919474D02*
X85678630Y-72135374D01*
X85864074Y-71518130D02*
X85462730Y-71919474D01*
X85678630Y-72135374D02*
X85678630Y-78699740D01*
X85678630Y-78699740D02*
X85945701Y-78966811D01*
X85945701Y-78966811D02*
X86245700Y-79266810D01*
X63498489Y-71735424D02*
X63568580Y-71805515D01*
X63568580Y-71805515D02*
X63761906Y-71998840D01*
X63897270Y-72583040D02*
X63897270Y-72158776D01*
X63897270Y-72158776D02*
X63568580Y-71830086D01*
X63568580Y-71830086D02*
X63568580Y-71805515D01*
X63893700Y-74786908D02*
X63893700Y-74486530D01*
X63893700Y-74486530D02*
X63897270Y-74482960D01*
X63763308Y-74917300D02*
X63893700Y-74786908D01*
X63192660Y-75374500D02*
X63306107Y-75374500D01*
X63306107Y-75374500D02*
X63763308Y-74917300D01*
X62434570Y-75374500D02*
X62913260Y-75853190D01*
X62203070Y-75143000D02*
X62434570Y-75374500D01*
X62434570Y-75374500D02*
X63192660Y-75374500D01*
X63498489Y-70823856D02*
X63498489Y-71735424D01*
X64463040Y-69443600D02*
X64163041Y-69743599D01*
X64163041Y-69743599D02*
X64163041Y-70159305D01*
X64163041Y-70159305D02*
X63498489Y-70823856D01*
X91528900Y-67764660D02*
X91113660Y-67349420D01*
X91113660Y-67349420D02*
X89217980Y-67349420D01*
X91528900Y-69837300D02*
X91528900Y-67764660D01*
X92125800Y-70434200D02*
X91528900Y-69837300D01*
X77730450Y-80424020D02*
X78031340Y-80424020D01*
X78031340Y-80424020D02*
X78071980Y-80383380D01*
X77026740Y-80849500D02*
X77304970Y-80849500D01*
X77304970Y-80849500D02*
X77730450Y-80424020D01*
X73428860Y-80849500D02*
X77026740Y-80849500D01*
X69385805Y-80849500D02*
X73428860Y-80849500D01*
X63912780Y-80849500D02*
X69385805Y-80849500D01*
X63347600Y-80284320D02*
X63912780Y-80849500D01*
X63347600Y-76287530D02*
X63347600Y-80284320D01*
X62913260Y-75853190D02*
X63347600Y-76287530D01*
X61147840Y-75143000D02*
X62203070Y-75143000D01*
X50756170Y-68449810D02*
X50989661Y-68683301D01*
X50989661Y-68683301D02*
X51067775Y-68683301D01*
X47903774Y-68449810D02*
X50756170Y-68449810D01*
X47037610Y-69315974D02*
X47903774Y-68449810D01*
X47037610Y-70712975D02*
X47037610Y-69315974D01*
X47037430Y-72051735D02*
X47037430Y-70713155D01*
X47037430Y-70713155D02*
X47037610Y-70712975D01*
X46801235Y-72287930D02*
X47037430Y-72051735D01*
X45945434Y-72638270D02*
X46450895Y-72638270D01*
X46450895Y-72638270D02*
X46801235Y-72287930D01*
X45742209Y-72841495D02*
X45945434Y-72638270D01*
X44124880Y-75014920D02*
X44878080Y-75014920D01*
X44878080Y-75014920D02*
X45742209Y-74150791D01*
X45742209Y-74150791D02*
X45742209Y-72841495D01*
X96765390Y-71285100D02*
X96855757Y-71285100D01*
X96855757Y-71285100D02*
X96931577Y-71360920D01*
X99944980Y-72768820D02*
X98249110Y-72768820D01*
X98249110Y-72768820D02*
X96765390Y-71285100D01*
X108615480Y-72781160D02*
X108955840Y-72440800D01*
X100910520Y-72781160D02*
X108615480Y-72781160D01*
X99944980Y-72768820D02*
X100898180Y-72768820D01*
X100898180Y-72768820D02*
X100910520Y-72781160D01*
X61147840Y-76443000D02*
X57575869Y-76443000D01*
X57575869Y-76443000D02*
X56702960Y-75570091D01*
X56705500Y-72712580D02*
X56705500Y-72336660D01*
X56702960Y-75570091D02*
X56702960Y-72715120D01*
X56900430Y-70347490D02*
X57236664Y-70011256D01*
X57236664Y-70011256D02*
X57236664Y-69586992D01*
X56702960Y-72715120D02*
X56705500Y-72712580D01*
X56705500Y-72336660D02*
X56900430Y-72141730D01*
X56900430Y-72141730D02*
X56900430Y-70347490D01*
X62931040Y-80462120D02*
X62931040Y-77668120D01*
X62931040Y-77668120D02*
X62931040Y-77416660D01*
X62705359Y-76631421D02*
X62931040Y-76857102D01*
X62931040Y-76857102D02*
X62931040Y-77668120D01*
X61147840Y-76443000D02*
X61722330Y-76443000D01*
X61722330Y-76443000D02*
X61910751Y-76631421D01*
X61910751Y-76631421D02*
X62705359Y-76631421D01*
X89217980Y-68949420D02*
X88174980Y-68949420D01*
X88174980Y-68949420D02*
X87419830Y-69704570D01*
X87419830Y-69704570D02*
X87419830Y-70770085D01*
X87419830Y-70770085D02*
X86302208Y-71887705D01*
X86302208Y-71887705D02*
X86302208Y-78375485D01*
X86302208Y-78375485D02*
X87067266Y-79140543D01*
X87067266Y-79140543D02*
X87067266Y-79564807D01*
X91099640Y-70352920D02*
X91165680Y-70418960D01*
X91165680Y-70418960D02*
X91165680Y-70441820D01*
X91099640Y-69303900D02*
X91099640Y-70352920D01*
X90745160Y-68949420D02*
X91099640Y-69303900D01*
X90192090Y-68949420D02*
X90745160Y-68949420D01*
X89217980Y-68949420D02*
X90192090Y-68949420D01*
X79090520Y-80510380D02*
X78348190Y-81252710D01*
X63721630Y-81252710D02*
X62931040Y-80462120D01*
X78348190Y-81252710D02*
X63721630Y-81252710D01*
X50062100Y-68853020D02*
X50405006Y-69195926D01*
X50405006Y-69195926D02*
X50453594Y-69195926D01*
X48070788Y-68853020D02*
X50062100Y-68853020D01*
X47475140Y-69448668D02*
X48070788Y-68853020D01*
X47440640Y-72218750D02*
X47440640Y-70880170D01*
X47440640Y-70880170D02*
X47475140Y-70845670D01*
X47475140Y-70845670D02*
X47475140Y-69448668D01*
X46868080Y-72791309D02*
X47440640Y-72218750D01*
X46277560Y-73041480D02*
X46617910Y-73041480D01*
X46617910Y-73041480D02*
X46868080Y-72791309D01*
X46145419Y-73431400D02*
X46145419Y-73173621D01*
X46145419Y-73173621D02*
X46277560Y-73041480D01*
X46145419Y-74317806D02*
X46145419Y-73431400D01*
X45402500Y-75077320D02*
X46080680Y-74399140D01*
X46080680Y-74399140D02*
X46080680Y-74382545D01*
X46080680Y-74382545D02*
X46145419Y-74317806D01*
X45402500Y-75790500D02*
X45402500Y-75077320D01*
X44124880Y-76314920D02*
X44878080Y-76314920D01*
X44878080Y-76314920D02*
X45402500Y-75790500D01*
X98097100Y-71224140D02*
X97868360Y-71224140D01*
X97868360Y-71224140D02*
X97731580Y-71360920D01*
X99944980Y-72118820D02*
X98991780Y-72118820D01*
X98991780Y-72118820D02*
X98097100Y-71224140D01*
X108554520Y-71518780D02*
X109209840Y-71518780D01*
X109209840Y-71518780D02*
X109232700Y-71541640D01*
X107954480Y-72118820D02*
X108554520Y-71518780D01*
X99944980Y-72118820D02*
X107954480Y-72118820D01*
X56278780Y-74896980D02*
X56278780Y-74787760D01*
X61147840Y-77743000D02*
X57851610Y-77743000D01*
X56278780Y-74787760D02*
X56278780Y-72128380D01*
X57851610Y-77743000D02*
X57314450Y-77205840D01*
X57314450Y-77205840D02*
X57314450Y-76751805D01*
X57314450Y-76751805D02*
X56278780Y-75716136D01*
X56278780Y-75716136D02*
X56278780Y-74787760D01*
X56497220Y-71909940D02*
X56497220Y-69892320D01*
X56278780Y-72128380D02*
X56497220Y-71909940D01*
X62527830Y-80629135D02*
X62527830Y-79347060D01*
X62348700Y-79347060D02*
X62527830Y-79347060D01*
X61147840Y-77743000D02*
X61147840Y-78146200D01*
X61147840Y-78146200D02*
X62348700Y-79347060D01*
X79700120Y-81074260D02*
X79616300Y-81074260D01*
X79034640Y-81655920D02*
X63466980Y-81655920D01*
X79616300Y-81074260D02*
X79034640Y-81655920D01*
X63466980Y-81655920D02*
X63466980Y-81568285D01*
X63466980Y-81568285D02*
X62527830Y-80629135D01*
X89217980Y-70549420D02*
X88157400Y-70549420D01*
X88157400Y-70549420D02*
X88157400Y-70602740D01*
X88157400Y-70602740D02*
X87868740Y-70891400D01*
X87868740Y-70891400D02*
X87868740Y-70906660D01*
X87868740Y-70906660D02*
X86705418Y-72069982D01*
X86705418Y-72069982D02*
X86705418Y-77858598D01*
X86705418Y-77858598D02*
X87823040Y-78976220D01*
X87823040Y-78976220D02*
X87823040Y-79827120D01*
X91838780Y-71282560D02*
X92021660Y-71465440D01*
X92021660Y-71465440D02*
X92044520Y-71465440D01*
X91838780Y-71264780D02*
X91838780Y-71282560D01*
X90860540Y-71264780D02*
X91838780Y-71264780D01*
X89217980Y-70549420D02*
X90145180Y-70549420D01*
X90145180Y-70549420D02*
X90860540Y-71264780D01*
X48257460Y-69329300D02*
X49173540Y-69329300D01*
X49173540Y-69329300D02*
X49298860Y-69454620D01*
X47878350Y-69708410D02*
X48257460Y-69329300D01*
X47878350Y-70869190D02*
X47878350Y-69708410D01*
X46784925Y-73444690D02*
X47878350Y-72351265D01*
X47878350Y-72351265D02*
X47878350Y-70869190D01*
X46548629Y-74484821D02*
X46548629Y-73680986D01*
X46548629Y-73680986D02*
X46784925Y-73444690D01*
X46483889Y-74566155D02*
X46483889Y-74549561D01*
X46483889Y-74549561D02*
X46548629Y-74484821D01*
X45805710Y-76576972D02*
X45805710Y-75244334D01*
X45805710Y-75244334D02*
X46483889Y-74566155D01*
X44124880Y-77614920D02*
X44767762Y-77614920D01*
X44767762Y-77614920D02*
X45805710Y-76576972D01*
X96281623Y-72171560D02*
X95968820Y-72171560D01*
X95968820Y-72171560D02*
X95951040Y-72189340D01*
X99944980Y-74068820D02*
X98178883Y-74068820D01*
X98178883Y-74068820D02*
X96281623Y-72171560D01*
X109847380Y-69098160D02*
X110335060Y-68610480D01*
X110335060Y-68610480D02*
X112052100Y-68610480D01*
X109847380Y-73228200D02*
X109847380Y-69098160D01*
X109006760Y-74068820D02*
X109847380Y-73228200D01*
X99944980Y-74068820D02*
X109006760Y-74068820D01*
X51487640Y-72164640D02*
X52047140Y-71605140D01*
X52047140Y-71605140D02*
X52925800Y-71605140D01*
X50977800Y-72164640D02*
X51487640Y-72164640D01*
X49824880Y-71764920D02*
X50578080Y-71764920D01*
X50578080Y-71764920D02*
X50977800Y-72164640D01*
X71434960Y-71909940D02*
X71874380Y-71470520D01*
X71874380Y-71470520D02*
X72930840Y-71470520D01*
X67617980Y-71909940D02*
X71434960Y-71909940D01*
X66847840Y-71893000D02*
X67601040Y-71893000D01*
X67601040Y-71893000D02*
X67617980Y-71909940D01*
X61145420Y-88994160D02*
X60492220Y-88994160D01*
X60492220Y-88994160D02*
X60025280Y-88527220D01*
X58613220Y-86804500D02*
X61135080Y-86804500D01*
X61135080Y-86804500D02*
X61145420Y-86794160D01*
X63690500Y-88958600D02*
X64343700Y-88958600D01*
X64343700Y-88958600D02*
X64801080Y-88501220D01*
X66118560Y-86746080D02*
X63703020Y-86746080D01*
X63703020Y-86746080D02*
X63690500Y-86758600D01*
X24739600Y-69804280D02*
X25600660Y-68943220D01*
X25600660Y-68943220D02*
X25600660Y-65750000D01*
X42360300Y-73064920D02*
X42153840Y-73271380D01*
X42153840Y-73271380D02*
X42153840Y-73380600D01*
X44124880Y-73064920D02*
X42360300Y-73064920D01*
X27873960Y-67581780D02*
X27873960Y-66016700D01*
X27873960Y-66016700D02*
X28140660Y-65750000D01*
X38818820Y-73131680D02*
X38483540Y-72796400D01*
X38483540Y-72796400D02*
X38483540Y-72784080D01*
X38818820Y-73687940D02*
X38818820Y-73131680D01*
X39664640Y-74533760D02*
X38818820Y-73687940D01*
X43202840Y-74533760D02*
X39664640Y-74533760D01*
X44124880Y-74364920D02*
X43371680Y-74364920D01*
X43371680Y-74364920D02*
X43202840Y-74533760D01*
X62344300Y-73192640D02*
X61148200Y-73192640D01*
X61148200Y-73192640D02*
X61147840Y-73193000D01*
X62245240Y-74437240D02*
X61203600Y-74437240D01*
X61203600Y-74437240D02*
X61147840Y-74493000D01*
X62199520Y-76029820D02*
X61962700Y-75793000D01*
X61962700Y-75793000D02*
X61147840Y-75793000D01*
X61147840Y-77093000D02*
X61901040Y-77093000D01*
X61901040Y-77093000D02*
X62285880Y-77477840D01*
X65758060Y-77043280D02*
X66798120Y-77043280D01*
X66798120Y-77043280D02*
X66847840Y-77093000D01*
X65758060Y-75661520D02*
X66716360Y-75661520D01*
X66716360Y-75661520D02*
X66847840Y-75793000D01*
X65709800Y-74455020D02*
X66809860Y-74455020D01*
X66809860Y-74455020D02*
X66847840Y-74493000D01*
X66847840Y-73193000D02*
X65847320Y-73193000D01*
X65847320Y-73193000D02*
X65747900Y-73093580D01*
D26*
G36*
X41886125Y-55345690D02*
X40806381Y-56423551D01*
X40221307Y-57832565D01*
X40219976Y-59358222D01*
X40802590Y-60768255D01*
X41880451Y-61847999D01*
X43289465Y-62433073D01*
X44815122Y-62434404D01*
X46225155Y-61851790D01*
X47304899Y-60773929D01*
X47889973Y-59364915D01*
X47891304Y-57839258D01*
X47308690Y-56429225D01*
X46230829Y-55349481D01*
X45969241Y-55240860D01*
X99289833Y-55240860D01*
X99036125Y-55345690D01*
X97956381Y-56423551D01*
X97371307Y-57832565D01*
X97369976Y-59358222D01*
X97952590Y-60768255D01*
X99030451Y-61847999D01*
X100439465Y-62433073D01*
X101965122Y-62434404D01*
X103375155Y-61851790D01*
X104454899Y-60773929D01*
X105039973Y-59364915D01*
X105041304Y-57839258D01*
X104458690Y-56429225D01*
X103380829Y-55349481D01*
X103119241Y-55240860D01*
X116582254Y-55240860D01*
X117783679Y-55474778D01*
X118762776Y-56123263D01*
X119419179Y-57097071D01*
X119663849Y-58301569D01*
X119663540Y-58303123D01*
X119663540Y-89202904D01*
X119424541Y-90430421D01*
X118776055Y-91409517D01*
X117802249Y-92065920D01*
X116584569Y-92313267D01*
X116548458Y-92312865D01*
X116535153Y-92315358D01*
X46243385Y-92313592D01*
X47304899Y-91253929D01*
X47889973Y-89844915D01*
X47890339Y-89424690D01*
X49494020Y-89424690D01*
X49494020Y-89865249D01*
X49590693Y-90098638D01*
X49769321Y-90277267D01*
X50002710Y-90373940D01*
X50293270Y-90373940D01*
X50452020Y-90215190D01*
X50452020Y-89265940D01*
X50706020Y-89265940D01*
X50706020Y-90215190D01*
X50864770Y-90373940D01*
X51155330Y-90373940D01*
X51388719Y-90277267D01*
X51567347Y-90098638D01*
X51649502Y-89900298D01*
X51724293Y-90080858D01*
X51902921Y-90259487D01*
X52136310Y-90356160D01*
X52426870Y-90356160D01*
X52585620Y-90197410D01*
X52585620Y-89248160D01*
X52839620Y-89248160D01*
X52839620Y-90197410D01*
X52998370Y-90356160D01*
X53288930Y-90356160D01*
X53522319Y-90259487D01*
X53700947Y-90080858D01*
X53797620Y-89847469D01*
X53797620Y-89406910D01*
X53638870Y-89248160D01*
X52839620Y-89248160D01*
X52585620Y-89248160D01*
X51786370Y-89248160D01*
X51636930Y-89397600D01*
X51505270Y-89265940D01*
X50706020Y-89265940D01*
X50452020Y-89265940D01*
X49652770Y-89265940D01*
X49494020Y-89424690D01*
X47890339Y-89424690D01*
X47891304Y-88319258D01*
X47308690Y-86909225D01*
X46380087Y-85979000D01*
X47924170Y-85979000D01*
X49404965Y-87459795D01*
X49481580Y-87510988D01*
X49481580Y-87538940D01*
X49525858Y-87774257D01*
X49664930Y-87990381D01*
X49733026Y-88036909D01*
X49590693Y-88179242D01*
X49494020Y-88412631D01*
X49494020Y-88853190D01*
X49652770Y-89011940D01*
X50452020Y-89011940D01*
X50452020Y-88991940D01*
X50706020Y-88991940D01*
X50706020Y-89011940D01*
X51505270Y-89011940D01*
X51654710Y-88862500D01*
X51786370Y-88994160D01*
X52585620Y-88994160D01*
X52585620Y-88974160D01*
X52839620Y-88974160D01*
X52839620Y-88994160D01*
X53638870Y-88994160D01*
X53797620Y-88835410D01*
X53797620Y-88394851D01*
X53700947Y-88161462D01*
X53559710Y-88020224D01*
X53614061Y-87985250D01*
X53759051Y-87773050D01*
X53810060Y-87521160D01*
X53810060Y-86321160D01*
X53765782Y-86085843D01*
X53626710Y-85869719D01*
X53414510Y-85724729D01*
X53303766Y-85702303D01*
X53233475Y-85597105D01*
X52500155Y-84863785D01*
X52261185Y-84704110D01*
X51979300Y-84648040D01*
X49928009Y-84648040D01*
X49411699Y-84131730D01*
X49490394Y-84079147D01*
X49710340Y-83749974D01*
X49930286Y-84079147D01*
X50412055Y-84401054D01*
X50980340Y-84514093D01*
X51548625Y-84401054D01*
X52030394Y-84079147D01*
X52258042Y-83738447D01*
X52325157Y-83881358D01*
X52753416Y-84271645D01*
X53163450Y-84441476D01*
X53393340Y-84320155D01*
X53393340Y-83127000D01*
X53373340Y-83127000D01*
X53373340Y-82873000D01*
X53393340Y-82873000D01*
X53393340Y-82853000D01*
X53647340Y-82853000D01*
X53647340Y-82873000D01*
X53667340Y-82873000D01*
X53667340Y-83127000D01*
X53647340Y-83127000D01*
X53647340Y-84320155D01*
X53877230Y-84441476D01*
X54287264Y-84271645D01*
X54715523Y-83881358D01*
X54782638Y-83738447D01*
X55010286Y-84079147D01*
X55492055Y-84401054D01*
X56060340Y-84514093D01*
X56628625Y-84401054D01*
X57110394Y-84079147D01*
X57330340Y-83749974D01*
X57550286Y-84079147D01*
X57866935Y-84290725D01*
X57874297Y-84327735D01*
X57670953Y-84327558D01*
X57327177Y-84469603D01*
X57063928Y-84732393D01*
X56921282Y-85075921D01*
X56920958Y-85447887D01*
X57029400Y-85710336D01*
X57013220Y-85707060D01*
X56985268Y-85707060D01*
X56934075Y-85630445D01*
X56812624Y-85508994D01*
X56713757Y-85269717D01*
X56450967Y-85006468D01*
X56107439Y-84863822D01*
X55735473Y-84863498D01*
X55391697Y-85005543D01*
X55128448Y-85268333D01*
X54985802Y-85611861D01*
X54985478Y-85983827D01*
X55127523Y-86327603D01*
X55165780Y-86365927D01*
X55165780Y-87254500D01*
X55210058Y-87489817D01*
X55349130Y-87705941D01*
X55561330Y-87850931D01*
X55813220Y-87901940D01*
X57013220Y-87901940D01*
X57248537Y-87857662D01*
X57464661Y-87718590D01*
X57512354Y-87648789D01*
X57549130Y-87705941D01*
X57761330Y-87850931D01*
X58013220Y-87901940D01*
X59213220Y-87901940D01*
X59354915Y-87875278D01*
X59233088Y-87996893D01*
X59090442Y-88340421D01*
X59090118Y-88712387D01*
X59232163Y-89056163D01*
X59494953Y-89319412D01*
X59838481Y-89462058D01*
X59918478Y-89462128D01*
X59971365Y-89515015D01*
X60047980Y-89566208D01*
X60047980Y-89594160D01*
X60092258Y-89829477D01*
X60231330Y-90045601D01*
X60443530Y-90190591D01*
X60695420Y-90241600D01*
X61595420Y-90241600D01*
X61830737Y-90197322D01*
X62046861Y-90058250D01*
X62191851Y-89846050D01*
X62242860Y-89594160D01*
X62242860Y-88394160D01*
X62198582Y-88158843D01*
X62059510Y-87942719D01*
X61989709Y-87895026D01*
X62046861Y-87858250D01*
X62191851Y-87646050D01*
X62242860Y-87394160D01*
X62242860Y-86194160D01*
X62212167Y-86031040D01*
X62618892Y-86031040D01*
X62593060Y-86158600D01*
X62593060Y-87358600D01*
X62637338Y-87593917D01*
X62776410Y-87810041D01*
X62846211Y-87857734D01*
X62789059Y-87894510D01*
X62644069Y-88106710D01*
X62593060Y-88358600D01*
X62593060Y-89558600D01*
X62637338Y-89793917D01*
X62776410Y-90010041D01*
X62988610Y-90155031D01*
X63240500Y-90206040D01*
X64140500Y-90206040D01*
X64375817Y-90161762D01*
X64591941Y-90022690D01*
X64736931Y-89810490D01*
X64787940Y-89558600D01*
X64787940Y-89530648D01*
X64864555Y-89479455D01*
X64907696Y-89436314D01*
X64986247Y-89436382D01*
X65330023Y-89294337D01*
X65593272Y-89031547D01*
X65735918Y-88688019D01*
X65736242Y-88316053D01*
X65594197Y-87972277D01*
X65452262Y-87830094D01*
X65518560Y-87843520D01*
X66718560Y-87843520D01*
X66953877Y-87799242D01*
X67170001Y-87660170D01*
X67217694Y-87590369D01*
X67254470Y-87647521D01*
X67466670Y-87792511D01*
X67718560Y-87843520D01*
X67746512Y-87843520D01*
X67797705Y-87920135D01*
X68249405Y-88371835D01*
X68488375Y-88531510D01*
X68527668Y-88539326D01*
X68631333Y-88643172D01*
X68974861Y-88785818D01*
X69346827Y-88786142D01*
X69690603Y-88644097D01*
X69953852Y-88381307D01*
X70069639Y-88102462D01*
X96893116Y-88102462D01*
X97475730Y-89512495D01*
X98553591Y-90592239D01*
X99962605Y-91177313D01*
X101488262Y-91178644D01*
X102898295Y-90596030D01*
X103179906Y-90314910D01*
X114225475Y-90314910D01*
X114385258Y-90633679D01*
X115176027Y-90943663D01*
X116025227Y-90927437D01*
X116734422Y-90633679D01*
X116894205Y-90314910D01*
X115559840Y-88980545D01*
X114225475Y-90314910D01*
X103179906Y-90314910D01*
X103978039Y-89518169D01*
X104435231Y-88417127D01*
X113417117Y-88417127D01*
X113433343Y-89266327D01*
X113727101Y-89975522D01*
X114045870Y-90135305D01*
X115380235Y-88800940D01*
X115739445Y-88800940D01*
X117073810Y-90135305D01*
X117392579Y-89975522D01*
X117702563Y-89184753D01*
X117686337Y-88335553D01*
X117392579Y-87626358D01*
X117073810Y-87466575D01*
X115739445Y-88800940D01*
X115380235Y-88800940D01*
X114045870Y-87466575D01*
X113727101Y-87626358D01*
X113417117Y-88417127D01*
X104435231Y-88417127D01*
X104563113Y-88109155D01*
X104563830Y-87286970D01*
X114225475Y-87286970D01*
X115559840Y-88621335D01*
X116894205Y-87286970D01*
X116734422Y-86968201D01*
X115943653Y-86658217D01*
X115094453Y-86674443D01*
X114385258Y-86968201D01*
X114225475Y-87286970D01*
X104563830Y-87286970D01*
X104564444Y-86583498D01*
X103981830Y-85173465D01*
X102903969Y-84093721D01*
X101494955Y-83508647D01*
X99969298Y-83507316D01*
X98559265Y-84089930D01*
X97479521Y-85167791D01*
X96894447Y-86576805D01*
X96893116Y-88102462D01*
X70069639Y-88102462D01*
X70096498Y-88037779D01*
X70096822Y-87665813D01*
X69954777Y-87322037D01*
X69691987Y-87058788D01*
X69566000Y-87006473D01*
X69566000Y-86296080D01*
X69521722Y-86060763D01*
X69382650Y-85844639D01*
X69170450Y-85699649D01*
X68918560Y-85648640D01*
X67718560Y-85648640D01*
X67483243Y-85692918D01*
X67267119Y-85831990D01*
X67219426Y-85901791D01*
X67182650Y-85844639D01*
X66970450Y-85699649D01*
X66718560Y-85648640D01*
X66243981Y-85648640D01*
X66311898Y-85485079D01*
X66312125Y-85224620D01*
X78559660Y-85224620D01*
X78841545Y-85168550D01*
X79080515Y-85008875D01*
X81811015Y-82278375D01*
X81970690Y-82039405D01*
X82026760Y-81757520D01*
X82026760Y-81744745D01*
X82070090Y-81774351D01*
X82321980Y-81825360D01*
X83769980Y-81825360D01*
X84005297Y-81781082D01*
X84221421Y-81642010D01*
X84366411Y-81429810D01*
X84417420Y-81177920D01*
X84417420Y-80720920D01*
X84383965Y-80543124D01*
X84417420Y-80377920D01*
X84417420Y-79920920D01*
X84385497Y-79751265D01*
X84404980Y-79704230D01*
X84404980Y-79640607D01*
X84482303Y-79827743D01*
X84745093Y-80090992D01*
X85088621Y-80233638D01*
X85460587Y-80233962D01*
X85799490Y-80093931D01*
X86058901Y-80201648D01*
X86382140Y-80201930D01*
X86536939Y-80356999D01*
X86880467Y-80499645D01*
X87173509Y-80499900D01*
X87292713Y-80619312D01*
X87636241Y-80761958D01*
X87846540Y-80762141D01*
X87846540Y-81177920D01*
X87877947Y-81344834D01*
X87465323Y-81515328D01*
X87117609Y-81862435D01*
X86929195Y-82316186D01*
X86928766Y-82807499D01*
X87116388Y-83261577D01*
X87463495Y-83609291D01*
X87917246Y-83797705D01*
X88408559Y-83798134D01*
X88862637Y-83610512D01*
X89210351Y-83263405D01*
X89398765Y-82809654D01*
X89399194Y-82318341D01*
X89211572Y-81864263D01*
X89172737Y-81825360D01*
X89941980Y-81825360D01*
X90177297Y-81781082D01*
X90393421Y-81642010D01*
X90538411Y-81429810D01*
X90589420Y-81177920D01*
X90589420Y-80720920D01*
X90555965Y-80543124D01*
X90589420Y-80377920D01*
X90589420Y-79920920D01*
X90557497Y-79751265D01*
X90576980Y-79704230D01*
X90576980Y-79622420D01*
X90418230Y-79463670D01*
X90397568Y-79463670D01*
X90227049Y-79347159D01*
X90301678Y-79316247D01*
X90382755Y-79235170D01*
X90418230Y-79235170D01*
X90576980Y-79076420D01*
X90576980Y-79056230D01*
X110567100Y-79056230D01*
X110567100Y-79746790D01*
X110663773Y-79980179D01*
X110842402Y-80158807D01*
X111075791Y-80255480D01*
X111766350Y-80255480D01*
X111925100Y-80096730D01*
X111925100Y-78897480D01*
X110725850Y-78897480D01*
X110567100Y-79056230D01*
X90576980Y-79056230D01*
X90576980Y-78994610D01*
X90558262Y-78949420D01*
X90576980Y-78904230D01*
X90576980Y-78822420D01*
X90418230Y-78663670D01*
X90382755Y-78663670D01*
X90301678Y-78582593D01*
X90224578Y-78550657D01*
X90393421Y-78442010D01*
X90398095Y-78435170D01*
X90418230Y-78435170D01*
X90576980Y-78276420D01*
X90576980Y-78194610D01*
X90555863Y-78143629D01*
X90589420Y-77977920D01*
X90589420Y-77520920D01*
X90555965Y-77343124D01*
X90558691Y-77329666D01*
X90679903Y-77623023D01*
X90942693Y-77886272D01*
X91286221Y-78028918D01*
X91460280Y-78029070D01*
X92085005Y-78653795D01*
X92323975Y-78813470D01*
X92605860Y-78869540D01*
X97104200Y-78869540D01*
X97386085Y-78813470D01*
X97625055Y-78653795D01*
X98087335Y-78191515D01*
X98095774Y-78178885D01*
X98247010Y-77952545D01*
X98303080Y-77670660D01*
X98303080Y-77383950D01*
X98885873Y-76801157D01*
X98943090Y-76840251D01*
X99194980Y-76891260D01*
X100694980Y-76891260D01*
X100930297Y-76846982D01*
X101146421Y-76707910D01*
X101291411Y-76495710D01*
X101342420Y-76243820D01*
X101342420Y-75793820D01*
X101322913Y-75690149D01*
X101342420Y-75593820D01*
X101342420Y-75143820D01*
X101322913Y-75040149D01*
X101342420Y-74943820D01*
X101342420Y-74805420D01*
X108478149Y-74805420D01*
X108368982Y-75068321D01*
X108368658Y-75440287D01*
X108510703Y-75784063D01*
X108773493Y-76047312D01*
X108950760Y-76120920D01*
X108950760Y-76575920D01*
X109006830Y-76857805D01*
X109166505Y-77096775D01*
X110060585Y-77990855D01*
X110299555Y-78150530D01*
X110567100Y-78203748D01*
X110567100Y-78484730D01*
X110725850Y-78643480D01*
X111925100Y-78643480D01*
X111925100Y-78623480D01*
X112179100Y-78623480D01*
X112179100Y-78643480D01*
X112199100Y-78643480D01*
X112199100Y-78897480D01*
X112179100Y-78897480D01*
X112179100Y-80096730D01*
X112337850Y-80255480D01*
X113028409Y-80255480D01*
X113261798Y-80158807D01*
X113440427Y-79980179D01*
X113509003Y-79814622D01*
X113512953Y-79820534D01*
X113994722Y-80142441D01*
X114563007Y-80255480D01*
X114621193Y-80255480D01*
X115189478Y-80142441D01*
X115671247Y-79820534D01*
X115993154Y-79338765D01*
X116106193Y-78770480D01*
X115993154Y-78202195D01*
X115671247Y-77720426D01*
X115342074Y-77500480D01*
X115671247Y-77280534D01*
X115993154Y-76798765D01*
X116106193Y-76230480D01*
X115993154Y-75662195D01*
X115671247Y-75180426D01*
X115342074Y-74960480D01*
X115671247Y-74740534D01*
X115993154Y-74258765D01*
X116106193Y-73690480D01*
X115993154Y-73122195D01*
X115671247Y-72640426D01*
X115342074Y-72420480D01*
X115671247Y-72200534D01*
X115993154Y-71718765D01*
X116106193Y-71150480D01*
X115993154Y-70582195D01*
X115671247Y-70100426D01*
X115342074Y-69880480D01*
X115671247Y-69660534D01*
X115993154Y-69178765D01*
X116106193Y-68610480D01*
X115993154Y-68042195D01*
X115671247Y-67560426D01*
X115189478Y-67238519D01*
X114621193Y-67125480D01*
X114563007Y-67125480D01*
X113994722Y-67238519D01*
X113512953Y-67560426D01*
X113322100Y-67846058D01*
X113131247Y-67560426D01*
X112649478Y-67238519D01*
X112081193Y-67125480D01*
X112023007Y-67125480D01*
X111454722Y-67238519D01*
X110972953Y-67560426D01*
X110763510Y-67873880D01*
X110335060Y-67873880D01*
X110053175Y-67929950D01*
X109875027Y-68048985D01*
X109814205Y-68089625D01*
X109326525Y-68577305D01*
X109166850Y-68816275D01*
X109110780Y-69098160D01*
X109110780Y-70606533D01*
X109047533Y-70606478D01*
X108703757Y-70748523D01*
X108670041Y-70782180D01*
X108554520Y-70782180D01*
X108272635Y-70838250D01*
X108054686Y-70983879D01*
X108033665Y-70997925D01*
X107649370Y-71382220D01*
X107422000Y-71382220D01*
X107422122Y-71242173D01*
X107280077Y-70898397D01*
X107017287Y-70635148D01*
X106673759Y-70492502D01*
X106593762Y-70492432D01*
X104942640Y-68841310D01*
X104942640Y-67929760D01*
X104886570Y-67647875D01*
X104726895Y-67408905D01*
X102546555Y-65228565D01*
X102307585Y-65068890D01*
X102025700Y-65012820D01*
X90323147Y-65012820D01*
X90193870Y-64924489D01*
X89941980Y-64873480D01*
X89173211Y-64873480D01*
X89210351Y-64836405D01*
X89398765Y-64382654D01*
X89399194Y-63891341D01*
X89211572Y-63437263D01*
X89066283Y-63291720D01*
X91838470Y-63291720D01*
X91916073Y-63369323D01*
X91866602Y-63488461D01*
X91866278Y-63860427D01*
X92008323Y-64204203D01*
X92271113Y-64467452D01*
X92614641Y-64610098D01*
X92986607Y-64610422D01*
X93330383Y-64468377D01*
X93593632Y-64205587D01*
X93736278Y-63862059D01*
X93736602Y-63490093D01*
X93594557Y-63146317D01*
X93448972Y-63000478D01*
X93423551Y-62872676D01*
X93263875Y-62633705D01*
X92664435Y-62034265D01*
X92425465Y-61874590D01*
X92143580Y-61818520D01*
X87642700Y-61818520D01*
X87360815Y-61874590D01*
X87121845Y-62034265D01*
X86282405Y-62873705D01*
X86122730Y-63112675D01*
X86066660Y-63394560D01*
X86066660Y-66975619D01*
X86029610Y-66789355D01*
X85869935Y-66550385D01*
X85534874Y-66215324D01*
X85534942Y-66136773D01*
X85392897Y-65792997D01*
X85130107Y-65529748D01*
X84786579Y-65387102D01*
X84652455Y-65386985D01*
X84494035Y-65228565D01*
X84255065Y-65068890D01*
X84224232Y-65062757D01*
X84021870Y-64924489D01*
X83769980Y-64873480D01*
X82321980Y-64873480D01*
X82086663Y-64917758D01*
X81870539Y-65056830D01*
X81725549Y-65269030D01*
X81674540Y-65520920D01*
X81674540Y-65977920D01*
X81706463Y-66147575D01*
X81686980Y-66194610D01*
X81686980Y-66276420D01*
X81845730Y-66435170D01*
X81866392Y-66435170D01*
X82035473Y-66550698D01*
X81870539Y-66656830D01*
X81865865Y-66663670D01*
X81845730Y-66663670D01*
X81686980Y-66822420D01*
X81686980Y-66904230D01*
X81708097Y-66955211D01*
X81674540Y-67120920D01*
X81674540Y-67577920D01*
X81706463Y-67747575D01*
X81686980Y-67794610D01*
X81686980Y-67876420D01*
X81845730Y-68035170D01*
X81866392Y-68035170D01*
X82035473Y-68150698D01*
X81870539Y-68256830D01*
X81865865Y-68263670D01*
X81845730Y-68263670D01*
X81686980Y-68422420D01*
X81686980Y-68504230D01*
X81708097Y-68555211D01*
X81674540Y-68720920D01*
X81674540Y-69177920D01*
X81706463Y-69347575D01*
X81686980Y-69394610D01*
X81686980Y-69476420D01*
X81845730Y-69635170D01*
X81866392Y-69635170D01*
X82035473Y-69750698D01*
X81870539Y-69856830D01*
X81865865Y-69863670D01*
X81845730Y-69863670D01*
X81686980Y-70022420D01*
X81686980Y-70104230D01*
X81708097Y-70155211D01*
X81674540Y-70320920D01*
X81674540Y-70777920D01*
X81706463Y-70947575D01*
X81686980Y-70994610D01*
X81686980Y-71076420D01*
X81845730Y-71235170D01*
X81866392Y-71235170D01*
X82035473Y-71350698D01*
X81870539Y-71456830D01*
X81865865Y-71463670D01*
X81845730Y-71463670D01*
X81686980Y-71622420D01*
X81686980Y-71704230D01*
X81708097Y-71755211D01*
X81674540Y-71920920D01*
X81674540Y-72377920D01*
X81707995Y-72555716D01*
X81674540Y-72720920D01*
X81674540Y-73177920D01*
X81707995Y-73355716D01*
X81674540Y-73520920D01*
X81674540Y-73977920D01*
X81707995Y-74155716D01*
X81674540Y-74320920D01*
X81674540Y-74777920D01*
X81707995Y-74955716D01*
X81674540Y-75120920D01*
X81674540Y-75577920D01*
X81707995Y-75755716D01*
X81692509Y-75832187D01*
X81476959Y-75742682D01*
X81104993Y-75742358D01*
X80959960Y-75802284D01*
X80959960Y-75421496D01*
X80903890Y-75139611D01*
X80744215Y-74900641D01*
X79399750Y-73556176D01*
X79399750Y-64710941D01*
X79343680Y-64429056D01*
X79184005Y-64190086D01*
X78173947Y-63180027D01*
X78174022Y-63093853D01*
X78031977Y-62750077D01*
X77769187Y-62486828D01*
X77425659Y-62344182D01*
X77053693Y-62343858D01*
X76709917Y-62485903D01*
X76446668Y-62748693D01*
X76363204Y-62949696D01*
X76353779Y-62945782D01*
X75981813Y-62945458D01*
X75638037Y-63087503D01*
X75374788Y-63350293D01*
X75316968Y-63489538D01*
X75182839Y-63433842D01*
X74810873Y-63433518D01*
X74597260Y-63521781D01*
X74597260Y-63481980D01*
X74541190Y-63200095D01*
X74381515Y-62961125D01*
X74247290Y-62826900D01*
X74877210Y-62196980D01*
X77754060Y-62196980D01*
X78035945Y-62140910D01*
X78274915Y-61981235D01*
X79060452Y-61195698D01*
X79199740Y-61532800D01*
X79799801Y-62133909D01*
X80584219Y-62459628D01*
X81433575Y-62460370D01*
X82218560Y-62136020D01*
X82819669Y-61535959D01*
X83145388Y-60751541D01*
X83146130Y-59902185D01*
X82821780Y-59117200D01*
X82221719Y-58516091D01*
X81437301Y-58190372D01*
X80587945Y-58189630D01*
X79802960Y-58513980D01*
X79201851Y-59114041D01*
X79004880Y-59588400D01*
X78889440Y-59588400D01*
X78607555Y-59644470D01*
X78396115Y-59785750D01*
X78368585Y-59804145D01*
X77448950Y-60723780D01*
X74572100Y-60723780D01*
X74290215Y-60779850D01*
X74051245Y-60939525D01*
X73205580Y-61785190D01*
X73150035Y-61729645D01*
X73073420Y-61678452D01*
X73073420Y-61650500D01*
X73029142Y-61415183D01*
X72890070Y-61199059D01*
X72820269Y-61151366D01*
X72877421Y-61114590D01*
X73022411Y-60902390D01*
X73073420Y-60650500D01*
X73073420Y-59450500D01*
X73029142Y-59215183D01*
X72890070Y-58999059D01*
X72677870Y-58854069D01*
X72425980Y-58803060D01*
X71525980Y-58803060D01*
X71290663Y-58847338D01*
X71207480Y-58900865D01*
X71040099Y-58831362D01*
X70668133Y-58831038D01*
X70324357Y-58973083D01*
X70061108Y-59235873D01*
X69918462Y-59579401D01*
X69918138Y-59951367D01*
X70060183Y-60295143D01*
X70322973Y-60558392D01*
X70666501Y-60701038D01*
X70888086Y-60701231D01*
X70922818Y-60885817D01*
X71061890Y-61101941D01*
X71131691Y-61149634D01*
X71074539Y-61186410D01*
X70929549Y-61398610D01*
X70878540Y-61650500D01*
X70878540Y-62850500D01*
X70922818Y-63085817D01*
X71061890Y-63301941D01*
X71274090Y-63446931D01*
X71525980Y-63497940D01*
X72425980Y-63497940D01*
X72661297Y-63453662D01*
X72739993Y-63403023D01*
X73124060Y-63787090D01*
X73124060Y-64461410D01*
X72810606Y-64670853D01*
X72590660Y-65000026D01*
X72370714Y-64670853D01*
X71888945Y-64348946D01*
X71320660Y-64235907D01*
X70752375Y-64348946D01*
X70270606Y-64670853D01*
X70050660Y-65000026D01*
X69830714Y-64670853D01*
X69348945Y-64348946D01*
X68780660Y-64235907D01*
X68212375Y-64348946D01*
X67730606Y-64670853D01*
X67510660Y-65000026D01*
X67290714Y-64670853D01*
X66808945Y-64348946D01*
X66240660Y-64235907D01*
X65672375Y-64348946D01*
X65190606Y-64670853D01*
X64970660Y-65000026D01*
X64750714Y-64670853D01*
X64541400Y-64530994D01*
X64541400Y-63420662D01*
X64706241Y-63314590D01*
X64851231Y-63102390D01*
X64876842Y-62975917D01*
X65102505Y-62931030D01*
X65341475Y-62771355D01*
X66217955Y-61894875D01*
X66377630Y-61655905D01*
X66433700Y-61374020D01*
X66433700Y-60162750D01*
X68620950Y-57975500D01*
X83272371Y-57975500D01*
X83381113Y-58084432D01*
X83724641Y-58227078D01*
X84096607Y-58227402D01*
X84440383Y-58085357D01*
X84703632Y-57822567D01*
X84846278Y-57479039D01*
X84846602Y-57107073D01*
X84704557Y-56763297D01*
X84441767Y-56500048D01*
X84098239Y-56357402D01*
X83726273Y-56357078D01*
X83382497Y-56499123D01*
X83379314Y-56502300D01*
X68315840Y-56502300D01*
X68033955Y-56558370D01*
X67880103Y-56661171D01*
X67794985Y-56718045D01*
X65176245Y-59336785D01*
X65016570Y-59575755D01*
X64960500Y-59857640D01*
X64960500Y-61068910D01*
X64762531Y-61266879D01*
X64718890Y-61199059D01*
X64650794Y-61152531D01*
X64793127Y-61010198D01*
X64889800Y-60776809D01*
X64889800Y-60336250D01*
X64731050Y-60177500D01*
X63931800Y-60177500D01*
X63931800Y-60197500D01*
X63677800Y-60197500D01*
X63677800Y-60177500D01*
X62878550Y-60177500D01*
X62719800Y-60336250D01*
X62719800Y-60776809D01*
X62816473Y-61010198D01*
X62957710Y-61151436D01*
X62903359Y-61186410D01*
X62758369Y-61398610D01*
X62707360Y-61650500D01*
X62707360Y-62850500D01*
X62751638Y-63085817D01*
X62890710Y-63301941D01*
X63068200Y-63423215D01*
X63068200Y-64391826D01*
X62650606Y-64670853D01*
X62430660Y-65000026D01*
X62210714Y-64670853D01*
X61728945Y-64348946D01*
X61160660Y-64235907D01*
X60592375Y-64348946D01*
X60404361Y-64474572D01*
X60386115Y-64447265D01*
X60279590Y-64340740D01*
X61150655Y-63469675D01*
X61150722Y-63469575D01*
X61310330Y-63230705D01*
X61366400Y-62948820D01*
X61366400Y-59513856D01*
X61825424Y-59324191D01*
X62719800Y-59324191D01*
X62719800Y-59764750D01*
X62878550Y-59923500D01*
X63677800Y-59923500D01*
X63677800Y-58974250D01*
X63931800Y-58974250D01*
X63931800Y-59923500D01*
X64731050Y-59923500D01*
X64889800Y-59764750D01*
X64889800Y-59324191D01*
X64793127Y-59090802D01*
X64614499Y-58912173D01*
X64381110Y-58815500D01*
X64090550Y-58815500D01*
X63931800Y-58974250D01*
X63677800Y-58974250D01*
X63519050Y-58815500D01*
X63228490Y-58815500D01*
X62995101Y-58912173D01*
X62816473Y-59090802D01*
X62719800Y-59324191D01*
X61825424Y-59324191D01*
X61837600Y-59319160D01*
X62438709Y-58719099D01*
X62764428Y-57934681D01*
X62765170Y-57085325D01*
X62440820Y-56300340D01*
X61840759Y-55699231D01*
X61056341Y-55373512D01*
X60206985Y-55372770D01*
X59422000Y-55697120D01*
X58820891Y-56297181D01*
X58495172Y-57081599D01*
X58494430Y-57930955D01*
X58818780Y-58715940D01*
X59418841Y-59317049D01*
X59893200Y-59514020D01*
X59893200Y-62643710D01*
X58843870Y-63693040D01*
X52331620Y-63693040D01*
X52049735Y-63749110D01*
X51810765Y-63908785D01*
X51403511Y-64316039D01*
X51000660Y-64235907D01*
X50432375Y-64348946D01*
X49950606Y-64670853D01*
X49730660Y-65000026D01*
X49510714Y-64670853D01*
X49028945Y-64348946D01*
X48460660Y-64235907D01*
X47892375Y-64348946D01*
X47410606Y-64670853D01*
X47190660Y-65000026D01*
X46970714Y-64670853D01*
X46657260Y-64461410D01*
X46657260Y-64056570D01*
X46832830Y-63881000D01*
X49131220Y-63881000D01*
X49413105Y-63824930D01*
X49652075Y-63665255D01*
X50032895Y-63284435D01*
X50089249Y-63200095D01*
X50192570Y-63045465D01*
X50208291Y-62966429D01*
X50347357Y-62940262D01*
X50563481Y-62801190D01*
X50611174Y-62731389D01*
X50647950Y-62788541D01*
X50860150Y-62933531D01*
X51112040Y-62984540D01*
X52312040Y-62984540D01*
X52547357Y-62940262D01*
X52763481Y-62801190D01*
X52908471Y-62588990D01*
X52928632Y-62489431D01*
X53033147Y-62489522D01*
X53376923Y-62347477D01*
X53640172Y-62084687D01*
X53782818Y-61741159D01*
X53783142Y-61369193D01*
X53641097Y-61025417D01*
X53540423Y-60924567D01*
X54551992Y-59912998D01*
X54691280Y-60250100D01*
X55291341Y-60851209D01*
X56075759Y-61176928D01*
X56925115Y-61177670D01*
X57710100Y-60853320D01*
X58311209Y-60253259D01*
X58636928Y-59468841D01*
X58637670Y-58619485D01*
X58313320Y-57834500D01*
X57713259Y-57233391D01*
X56928841Y-56907672D01*
X56079485Y-56906930D01*
X55294500Y-57231280D01*
X54693391Y-57831341D01*
X54496420Y-58305700D01*
X54380980Y-58305700D01*
X54099095Y-58361770D01*
X53871297Y-58513980D01*
X53860125Y-58521445D01*
X52597590Y-59783980D01*
X51501419Y-59783980D01*
X52282120Y-59461400D01*
X52883229Y-58861339D01*
X53208948Y-58076921D01*
X53209690Y-57227565D01*
X52885340Y-56442580D01*
X52285279Y-55841471D01*
X51500861Y-55515752D01*
X50651505Y-55515010D01*
X49866520Y-55839360D01*
X49265411Y-56439421D01*
X48939692Y-57223839D01*
X48938950Y-58073195D01*
X49263300Y-58858180D01*
X49863361Y-59459289D01*
X50645303Y-59783980D01*
X50111660Y-59783980D01*
X49829775Y-59840050D01*
X49590805Y-59999725D01*
X48991185Y-60599345D01*
X48857115Y-60799995D01*
X48676723Y-60833938D01*
X48460599Y-60973010D01*
X48315609Y-61185210D01*
X48264600Y-61437100D01*
X48264600Y-62337100D01*
X48277903Y-62407800D01*
X46527720Y-62407800D01*
X46245835Y-62463870D01*
X46006865Y-62623545D01*
X45399805Y-63230605D01*
X45240130Y-63469575D01*
X45184060Y-63751460D01*
X45184060Y-64461410D01*
X44870606Y-64670853D01*
X44650660Y-65000026D01*
X44430714Y-64670853D01*
X43948945Y-64348946D01*
X43380660Y-64235907D01*
X42812375Y-64348946D01*
X42330606Y-64670853D01*
X42110660Y-65000026D01*
X41890714Y-64670853D01*
X41408945Y-64348946D01*
X40840660Y-64235907D01*
X40272375Y-64348946D01*
X39790606Y-64670853D01*
X39570660Y-65000026D01*
X39350714Y-64670853D01*
X38868945Y-64348946D01*
X38300660Y-64235907D01*
X37732375Y-64348946D01*
X37250606Y-64670853D01*
X37030660Y-65000026D01*
X36810714Y-64670853D01*
X36328945Y-64348946D01*
X35760660Y-64235907D01*
X35192375Y-64348946D01*
X34710606Y-64670853D01*
X34490660Y-65000026D01*
X34270714Y-64670853D01*
X33788945Y-64348946D01*
X33220660Y-64235907D01*
X32652375Y-64348946D01*
X32170606Y-64670853D01*
X31950660Y-65000026D01*
X31730714Y-64670853D01*
X31248945Y-64348946D01*
X30680660Y-64235907D01*
X30112375Y-64348946D01*
X29630606Y-64670853D01*
X29410660Y-65000026D01*
X29190714Y-64670853D01*
X28708945Y-64348946D01*
X28140660Y-64235907D01*
X27572375Y-64348946D01*
X27090606Y-64670853D01*
X26870660Y-65000026D01*
X26650714Y-64670853D01*
X26168945Y-64348946D01*
X25600660Y-64235907D01*
X25032375Y-64348946D01*
X24550606Y-64670853D01*
X24330660Y-65000026D01*
X24110714Y-64670853D01*
X23628945Y-64348946D01*
X23060660Y-64235907D01*
X22492375Y-64348946D01*
X22010606Y-64670853D01*
X21790660Y-65000026D01*
X21570714Y-64670853D01*
X21088945Y-64348946D01*
X20520660Y-64235907D01*
X19952375Y-64348946D01*
X19470606Y-64670853D01*
X19441257Y-64714777D01*
X19368987Y-64540302D01*
X19190359Y-64361673D01*
X18956970Y-64265000D01*
X18266410Y-64265000D01*
X18107660Y-64423750D01*
X18107660Y-65623000D01*
X18127660Y-65623000D01*
X18127660Y-65877000D01*
X18107660Y-65877000D01*
X18107660Y-67076250D01*
X18266410Y-67235000D01*
X18956970Y-67235000D01*
X19190359Y-67138327D01*
X19368987Y-66959698D01*
X19441257Y-66785223D01*
X19470606Y-66829147D01*
X19952375Y-67151054D01*
X20520660Y-67264093D01*
X21088945Y-67151054D01*
X21570714Y-66829147D01*
X21790660Y-66499974D01*
X22010606Y-66829147D01*
X22492375Y-67151054D01*
X23060660Y-67264093D01*
X23628945Y-67151054D01*
X24110714Y-66829147D01*
X24330660Y-66499974D01*
X24550606Y-66829147D01*
X24864060Y-67038590D01*
X24864060Y-68638110D01*
X24632984Y-68869186D01*
X24554433Y-68869118D01*
X24210657Y-69011163D01*
X23947408Y-69273953D01*
X23804762Y-69617481D01*
X23804438Y-69989447D01*
X23946483Y-70333223D01*
X24209273Y-70596472D01*
X24552801Y-70739118D01*
X24924767Y-70739442D01*
X25268543Y-70597397D01*
X25531792Y-70334607D01*
X25674438Y-69991079D01*
X25674508Y-69911082D01*
X26121515Y-69464075D01*
X26127833Y-69454620D01*
X26281190Y-69225105D01*
X26337260Y-68943220D01*
X26337260Y-67038590D01*
X26650714Y-66829147D01*
X26870660Y-66499974D01*
X27090606Y-66829147D01*
X27137360Y-66860387D01*
X27137360Y-66995958D01*
X27081768Y-67051453D01*
X26939122Y-67394981D01*
X26938798Y-67766947D01*
X27080843Y-68110723D01*
X27343633Y-68373972D01*
X27687161Y-68516618D01*
X28059127Y-68516942D01*
X28402903Y-68374897D01*
X28666152Y-68112107D01*
X28808798Y-67768579D01*
X28809122Y-67396613D01*
X28707757Y-67151290D01*
X28708945Y-67151054D01*
X29190714Y-66829147D01*
X29410660Y-66499974D01*
X29630606Y-66829147D01*
X29840238Y-66969218D01*
X29817313Y-66969198D01*
X29473537Y-67111243D01*
X29210288Y-67374033D01*
X29067642Y-67717561D01*
X29067318Y-68089527D01*
X29209363Y-68433303D01*
X29472153Y-68696552D01*
X29815681Y-68839198D01*
X30187647Y-68839522D01*
X30531423Y-68697477D01*
X30794672Y-68434687D01*
X30937318Y-68091159D01*
X30937388Y-68011162D01*
X31201515Y-67747035D01*
X31361190Y-67508065D01*
X31417260Y-67226180D01*
X31417260Y-67038590D01*
X31730714Y-66829147D01*
X31950660Y-66499974D01*
X32170606Y-66829147D01*
X32484060Y-67038590D01*
X32484060Y-71287640D01*
X32540130Y-71569525D01*
X32699805Y-71808495D01*
X33370365Y-72479055D01*
X33609335Y-72638730D01*
X33891220Y-72694800D01*
X35305690Y-72694800D01*
X35526980Y-72916090D01*
X35526980Y-73362820D01*
X35583050Y-73644705D01*
X35742725Y-73883675D01*
X39344825Y-77485775D01*
X39583795Y-77645450D01*
X39808238Y-77690094D01*
X39624055Y-77726730D01*
X39385085Y-77886405D01*
X39229990Y-78041500D01*
X33680159Y-78041500D01*
X33398274Y-78097570D01*
X33159304Y-78257245D01*
X30139485Y-81277064D01*
X29979810Y-81516034D01*
X29943585Y-81698150D01*
X29610286Y-81920853D01*
X29390340Y-82250026D01*
X29170394Y-81920853D01*
X28688625Y-81598946D01*
X28120340Y-81485907D01*
X27552055Y-81598946D01*
X27070286Y-81920853D01*
X26850340Y-82250026D01*
X26630394Y-81920853D01*
X26148625Y-81598946D01*
X25580340Y-81485907D01*
X25012055Y-81598946D01*
X24530286Y-81920853D01*
X24310340Y-82250026D01*
X24090394Y-81920853D01*
X23608625Y-81598946D01*
X23040340Y-81485907D01*
X22472055Y-81598946D01*
X21990286Y-81920853D01*
X21762638Y-82261553D01*
X21695523Y-82118642D01*
X21267264Y-81728355D01*
X20857230Y-81558524D01*
X20627340Y-81679845D01*
X20627340Y-82873000D01*
X20647340Y-82873000D01*
X20647340Y-83127000D01*
X20627340Y-83127000D01*
X20627340Y-84320155D01*
X20857230Y-84441476D01*
X21267264Y-84271645D01*
X21695523Y-83881358D01*
X21762638Y-83738447D01*
X21990286Y-84079147D01*
X22472055Y-84401054D01*
X23040340Y-84514093D01*
X23608625Y-84401054D01*
X24090394Y-84079147D01*
X24310340Y-83749974D01*
X24530286Y-84079147D01*
X25012055Y-84401054D01*
X25580340Y-84514093D01*
X26148625Y-84401054D01*
X26630394Y-84079147D01*
X26850340Y-83749974D01*
X27070286Y-84079147D01*
X27396521Y-84297129D01*
X26415845Y-85277805D01*
X26256170Y-85516775D01*
X26200100Y-85798660D01*
X26200100Y-87122598D01*
X26035259Y-87228670D01*
X25890269Y-87440870D01*
X25839260Y-87692760D01*
X25839260Y-88892760D01*
X25883538Y-89128077D01*
X26022610Y-89344201D01*
X26090706Y-89390729D01*
X25948373Y-89533062D01*
X25851700Y-89766451D01*
X25851700Y-90207010D01*
X26010450Y-90365760D01*
X26809700Y-90365760D01*
X26809700Y-90345760D01*
X27063700Y-90345760D01*
X27063700Y-90365760D01*
X27862950Y-90365760D01*
X28021700Y-90207010D01*
X28021700Y-89766451D01*
X27925027Y-89533062D01*
X27783790Y-89391824D01*
X27838141Y-89356850D01*
X27983131Y-89144650D01*
X28034140Y-88892760D01*
X28034140Y-87692760D01*
X27989862Y-87457443D01*
X27850790Y-87241319D01*
X27673300Y-87120045D01*
X27673300Y-86103770D01*
X28511810Y-85265260D01*
X29171590Y-85265260D01*
X28864405Y-85572445D01*
X28704730Y-85811415D01*
X28648660Y-86093300D01*
X28648660Y-87117518D01*
X28483819Y-87223590D01*
X28338829Y-87435790D01*
X28287820Y-87687680D01*
X28287820Y-88887680D01*
X28332098Y-89122997D01*
X28471170Y-89339121D01*
X28539266Y-89385649D01*
X28396933Y-89527982D01*
X28300260Y-89761371D01*
X28300260Y-90201930D01*
X28459010Y-90360680D01*
X29258260Y-90360680D01*
X29258260Y-90340680D01*
X29512260Y-90340680D01*
X29512260Y-90360680D01*
X30311510Y-90360680D01*
X30470260Y-90201930D01*
X30470260Y-89761371D01*
X30373587Y-89527982D01*
X30232350Y-89386744D01*
X30286701Y-89351770D01*
X30431691Y-89139570D01*
X30482700Y-88887680D01*
X30482700Y-87687680D01*
X30438422Y-87452363D01*
X30299350Y-87236239D01*
X30121860Y-87114965D01*
X30121860Y-86398410D01*
X31348990Y-85171280D01*
X31759656Y-85171280D01*
X31193585Y-85737351D01*
X31033910Y-85976321D01*
X30977840Y-86258206D01*
X30977840Y-87125138D01*
X30812999Y-87231210D01*
X30668009Y-87443410D01*
X30617000Y-87695300D01*
X30617000Y-88895300D01*
X30661278Y-89130617D01*
X30800350Y-89346741D01*
X30868446Y-89393269D01*
X30726113Y-89535602D01*
X30629440Y-89768991D01*
X30629440Y-90209550D01*
X30788190Y-90368300D01*
X31587440Y-90368300D01*
X31587440Y-90348300D01*
X31841440Y-90348300D01*
X31841440Y-90368300D01*
X32640690Y-90368300D01*
X32799440Y-90209550D01*
X32799440Y-89768991D01*
X32702767Y-89535602D01*
X32561530Y-89394364D01*
X32615881Y-89359390D01*
X32760871Y-89147190D01*
X32811880Y-88895300D01*
X32811880Y-87695300D01*
X32767602Y-87459983D01*
X32628530Y-87243859D01*
X32451040Y-87122585D01*
X32451040Y-86563316D01*
X33521492Y-85492864D01*
X33502600Y-85587840D01*
X33502600Y-87097198D01*
X33337759Y-87203270D01*
X33192769Y-87415470D01*
X33141760Y-87667360D01*
X33141760Y-88867360D01*
X33186038Y-89102677D01*
X33325110Y-89318801D01*
X33393206Y-89365329D01*
X33250873Y-89507662D01*
X33154200Y-89741051D01*
X33154200Y-90181610D01*
X33312950Y-90340360D01*
X34112200Y-90340360D01*
X34112200Y-90320360D01*
X34366200Y-90320360D01*
X34366200Y-90340360D01*
X35165450Y-90340360D01*
X35324200Y-90181610D01*
X35324200Y-89741051D01*
X35227527Y-89507662D01*
X35086290Y-89366424D01*
X35140641Y-89331450D01*
X35285631Y-89119250D01*
X35336640Y-88867360D01*
X35336640Y-87667360D01*
X35292362Y-87432043D01*
X35153290Y-87215919D01*
X34975800Y-87094645D01*
X34975800Y-85892950D01*
X35103110Y-85765640D01*
X35971926Y-85765640D01*
X35875150Y-85910475D01*
X35819080Y-86192360D01*
X35819080Y-87074338D01*
X35654239Y-87180410D01*
X35509249Y-87392610D01*
X35458240Y-87644500D01*
X35458240Y-88844500D01*
X35502518Y-89079817D01*
X35641590Y-89295941D01*
X35709686Y-89342469D01*
X35567353Y-89484802D01*
X35470680Y-89718191D01*
X35470680Y-90158750D01*
X35629430Y-90317500D01*
X36428680Y-90317500D01*
X36428680Y-90297500D01*
X36682680Y-90297500D01*
X36682680Y-90317500D01*
X37481930Y-90317500D01*
X37625020Y-90174410D01*
X37750330Y-90299720D01*
X38549580Y-90299720D01*
X38549580Y-90279720D01*
X38803580Y-90279720D01*
X38803580Y-90299720D01*
X39602830Y-90299720D01*
X39761580Y-90140970D01*
X39761580Y-89700411D01*
X39664907Y-89467022D01*
X39523670Y-89325784D01*
X39578021Y-89290810D01*
X39723011Y-89078610D01*
X39774020Y-88826720D01*
X39774020Y-87626720D01*
X39733015Y-87408795D01*
X40404000Y-86737810D01*
X40635570Y-86737810D01*
X40917455Y-86681740D01*
X41156425Y-86522065D01*
X42583410Y-85095080D01*
X43203941Y-85095080D01*
X43485826Y-85039010D01*
X43724796Y-84879335D01*
X43881195Y-84722936D01*
X43965220Y-84597184D01*
X44040870Y-84483966D01*
X44077095Y-84301850D01*
X44410394Y-84079147D01*
X44630340Y-83749974D01*
X44850286Y-84079147D01*
X45163740Y-84288590D01*
X45163740Y-84907120D01*
X45219810Y-85189005D01*
X45379485Y-85427975D01*
X45461564Y-85510054D01*
X44821815Y-85244407D01*
X43296158Y-85243076D01*
X41886125Y-85825690D01*
X40806381Y-86903551D01*
X40221307Y-88312565D01*
X40219976Y-89838222D01*
X40802590Y-91248255D01*
X41865959Y-92313482D01*
X15686069Y-92312824D01*
X14471579Y-92076361D01*
X13492483Y-91427875D01*
X13054773Y-90778510D01*
X25851700Y-90778510D01*
X25851700Y-91219069D01*
X25948373Y-91452458D01*
X26127001Y-91631087D01*
X26360390Y-91727760D01*
X26650950Y-91727760D01*
X26809700Y-91569010D01*
X26809700Y-90619760D01*
X27063700Y-90619760D01*
X27063700Y-91569010D01*
X27222450Y-91727760D01*
X27513010Y-91727760D01*
X27746399Y-91631087D01*
X27925027Y-91452458D01*
X28021700Y-91219069D01*
X28021700Y-90778510D01*
X28016620Y-90773430D01*
X28300260Y-90773430D01*
X28300260Y-91213989D01*
X28396933Y-91447378D01*
X28575561Y-91626007D01*
X28808950Y-91722680D01*
X29099510Y-91722680D01*
X29258260Y-91563930D01*
X29258260Y-90614680D01*
X29512260Y-90614680D01*
X29512260Y-91563930D01*
X29671010Y-91722680D01*
X29961570Y-91722680D01*
X30194959Y-91626007D01*
X30373587Y-91447378D01*
X30470260Y-91213989D01*
X30470260Y-90781050D01*
X30629440Y-90781050D01*
X30629440Y-91221609D01*
X30726113Y-91454998D01*
X30904741Y-91633627D01*
X31138130Y-91730300D01*
X31428690Y-91730300D01*
X31587440Y-91571550D01*
X31587440Y-90622300D01*
X31841440Y-90622300D01*
X31841440Y-91571550D01*
X32000190Y-91730300D01*
X32290750Y-91730300D01*
X32524139Y-91633627D01*
X32702767Y-91454998D01*
X32799440Y-91221609D01*
X32799440Y-90781050D01*
X32771500Y-90753110D01*
X33154200Y-90753110D01*
X33154200Y-91193669D01*
X33250873Y-91427058D01*
X33429501Y-91605687D01*
X33662890Y-91702360D01*
X33953450Y-91702360D01*
X34112200Y-91543610D01*
X34112200Y-90594360D01*
X34366200Y-90594360D01*
X34366200Y-91543610D01*
X34524950Y-91702360D01*
X34815510Y-91702360D01*
X35048899Y-91605687D01*
X35227527Y-91427058D01*
X35324200Y-91193669D01*
X35324200Y-90753110D01*
X35301340Y-90730250D01*
X35470680Y-90730250D01*
X35470680Y-91170809D01*
X35567353Y-91404198D01*
X35745981Y-91582827D01*
X35979370Y-91679500D01*
X36269930Y-91679500D01*
X36428680Y-91520750D01*
X36428680Y-90571500D01*
X36682680Y-90571500D01*
X36682680Y-91520750D01*
X36841430Y-91679500D01*
X37131990Y-91679500D01*
X37365379Y-91582827D01*
X37544007Y-91404198D01*
X37619812Y-91221188D01*
X37688253Y-91386418D01*
X37866881Y-91565047D01*
X38100270Y-91661720D01*
X38390830Y-91661720D01*
X38549580Y-91502970D01*
X38549580Y-90553720D01*
X38803580Y-90553720D01*
X38803580Y-91502970D01*
X38962330Y-91661720D01*
X39252890Y-91661720D01*
X39486279Y-91565047D01*
X39664907Y-91386418D01*
X39761580Y-91153029D01*
X39761580Y-90712470D01*
X39602830Y-90553720D01*
X38803580Y-90553720D01*
X38549580Y-90553720D01*
X37750330Y-90553720D01*
X37607240Y-90696810D01*
X37481930Y-90571500D01*
X36682680Y-90571500D01*
X36428680Y-90571500D01*
X35629430Y-90571500D01*
X35470680Y-90730250D01*
X35301340Y-90730250D01*
X35165450Y-90594360D01*
X34366200Y-90594360D01*
X34112200Y-90594360D01*
X33312950Y-90594360D01*
X33154200Y-90753110D01*
X32771500Y-90753110D01*
X32640690Y-90622300D01*
X31841440Y-90622300D01*
X31587440Y-90622300D01*
X30788190Y-90622300D01*
X30629440Y-90781050D01*
X30470260Y-90781050D01*
X30470260Y-90773430D01*
X30311510Y-90614680D01*
X29512260Y-90614680D01*
X29258260Y-90614680D01*
X28459010Y-90614680D01*
X28300260Y-90773430D01*
X28016620Y-90773430D01*
X27862950Y-90619760D01*
X27063700Y-90619760D01*
X26809700Y-90619760D01*
X26010450Y-90619760D01*
X25851700Y-90778510D01*
X13054773Y-90778510D01*
X12836080Y-90454069D01*
X12588733Y-89236389D01*
X12589135Y-89200278D01*
X12584448Y-89175262D01*
X12589180Y-89151472D01*
X12589180Y-88804655D01*
X14641330Y-88804655D01*
X14965680Y-89589640D01*
X15565741Y-90190749D01*
X16350159Y-90516468D01*
X17199515Y-90517210D01*
X17984500Y-90192860D01*
X18585609Y-89592799D01*
X18911328Y-88808381D01*
X18911337Y-88797035D01*
X20912590Y-88797035D01*
X21236940Y-89582020D01*
X21837001Y-90183129D01*
X22621419Y-90508848D01*
X23470775Y-90509590D01*
X24255760Y-90185240D01*
X24856869Y-89585179D01*
X25182588Y-88800761D01*
X25183330Y-87951405D01*
X24858980Y-87166420D01*
X24258919Y-86565311D01*
X23474501Y-86239592D01*
X22625145Y-86238850D01*
X21840160Y-86563200D01*
X21239051Y-87163261D01*
X20913332Y-87947679D01*
X20912590Y-88797035D01*
X18911337Y-88797035D01*
X18912070Y-87959025D01*
X18587720Y-87174040D01*
X17987659Y-86572931D01*
X17203241Y-86247212D01*
X16353885Y-86246470D01*
X15568900Y-86570820D01*
X14967791Y-87170881D01*
X14642072Y-87955299D01*
X14641330Y-88804655D01*
X12589180Y-88804655D01*
X12589180Y-82970907D01*
X16475340Y-82970907D01*
X16475340Y-83029093D01*
X16588379Y-83597378D01*
X16910286Y-84079147D01*
X17392055Y-84401054D01*
X17960340Y-84514093D01*
X18528625Y-84401054D01*
X19010394Y-84079147D01*
X19238042Y-83738447D01*
X19305157Y-83881358D01*
X19733416Y-84271645D01*
X20143450Y-84441476D01*
X20373340Y-84320155D01*
X20373340Y-83127000D01*
X20353340Y-83127000D01*
X20353340Y-82873000D01*
X20373340Y-82873000D01*
X20373340Y-81679845D01*
X20143450Y-81558524D01*
X19733416Y-81728355D01*
X19305157Y-82118642D01*
X19238042Y-82261553D01*
X19010394Y-81920853D01*
X18528625Y-81598946D01*
X17960340Y-81485907D01*
X17392055Y-81598946D01*
X16910286Y-81920853D01*
X16588379Y-82402622D01*
X16475340Y-82970907D01*
X12589180Y-82970907D01*
X12589180Y-66035750D01*
X16495660Y-66035750D01*
X16495660Y-66726309D01*
X16592333Y-66959698D01*
X16770961Y-67138327D01*
X17004350Y-67235000D01*
X17694910Y-67235000D01*
X17853660Y-67076250D01*
X17853660Y-65877000D01*
X16654410Y-65877000D01*
X16495660Y-66035750D01*
X12589180Y-66035750D01*
X12589180Y-64773691D01*
X16495660Y-64773691D01*
X16495660Y-65464250D01*
X16654410Y-65623000D01*
X17853660Y-65623000D01*
X17853660Y-64423750D01*
X17694910Y-64265000D01*
X17004350Y-64265000D01*
X16770961Y-64361673D01*
X16592333Y-64540302D01*
X16495660Y-64773691D01*
X12589180Y-64773691D01*
X12589180Y-58941875D01*
X31694890Y-58941875D01*
X32019240Y-59726860D01*
X32619301Y-60327969D01*
X33403719Y-60653688D01*
X34253075Y-60654430D01*
X35038060Y-60330080D01*
X35639169Y-59730019D01*
X35964888Y-58945601D01*
X35965630Y-58096245D01*
X35641280Y-57311260D01*
X35041219Y-56710151D01*
X34256801Y-56384432D01*
X33407445Y-56383690D01*
X32622460Y-56708040D01*
X32021351Y-57308101D01*
X31695632Y-58092519D01*
X31694890Y-58941875D01*
X12589180Y-58941875D01*
X12589180Y-58376868D01*
X12833258Y-57123261D01*
X13481743Y-56144164D01*
X14455551Y-55487761D01*
X15671031Y-55240860D01*
X42139833Y-55240860D01*
X41886125Y-55345690D01*
X41886125Y-55345690D01*
G37*
X41886125Y-55345690D02*
X40806381Y-56423551D01*
X40221307Y-57832565D01*
X40219976Y-59358222D01*
X40802590Y-60768255D01*
X41880451Y-61847999D01*
X43289465Y-62433073D01*
X44815122Y-62434404D01*
X46225155Y-61851790D01*
X47304899Y-60773929D01*
X47889973Y-59364915D01*
X47891304Y-57839258D01*
X47308690Y-56429225D01*
X46230829Y-55349481D01*
X45969241Y-55240860D01*
X99289833Y-55240860D01*
X99036125Y-55345690D01*
X97956381Y-56423551D01*
X97371307Y-57832565D01*
X97369976Y-59358222D01*
X97952590Y-60768255D01*
X99030451Y-61847999D01*
X100439465Y-62433073D01*
X101965122Y-62434404D01*
X103375155Y-61851790D01*
X104454899Y-60773929D01*
X105039973Y-59364915D01*
X105041304Y-57839258D01*
X104458690Y-56429225D01*
X103380829Y-55349481D01*
X103119241Y-55240860D01*
X116582254Y-55240860D01*
X117783679Y-55474778D01*
X118762776Y-56123263D01*
X119419179Y-57097071D01*
X119663849Y-58301569D01*
X119663540Y-58303123D01*
X119663540Y-89202904D01*
X119424541Y-90430421D01*
X118776055Y-91409517D01*
X117802249Y-92065920D01*
X116584569Y-92313267D01*
X116548458Y-92312865D01*
X116535153Y-92315358D01*
X46243385Y-92313592D01*
X47304899Y-91253929D01*
X47889973Y-89844915D01*
X47890339Y-89424690D01*
X49494020Y-89424690D01*
X49494020Y-89865249D01*
X49590693Y-90098638D01*
X49769321Y-90277267D01*
X50002710Y-90373940D01*
X50293270Y-90373940D01*
X50452020Y-90215190D01*
X50452020Y-89265940D01*
X50706020Y-89265940D01*
X50706020Y-90215190D01*
X50864770Y-90373940D01*
X51155330Y-90373940D01*
X51388719Y-90277267D01*
X51567347Y-90098638D01*
X51649502Y-89900298D01*
X51724293Y-90080858D01*
X51902921Y-90259487D01*
X52136310Y-90356160D01*
X52426870Y-90356160D01*
X52585620Y-90197410D01*
X52585620Y-89248160D01*
X52839620Y-89248160D01*
X52839620Y-90197410D01*
X52998370Y-90356160D01*
X53288930Y-90356160D01*
X53522319Y-90259487D01*
X53700947Y-90080858D01*
X53797620Y-89847469D01*
X53797620Y-89406910D01*
X53638870Y-89248160D01*
X52839620Y-89248160D01*
X52585620Y-89248160D01*
X51786370Y-89248160D01*
X51636930Y-89397600D01*
X51505270Y-89265940D01*
X50706020Y-89265940D01*
X50452020Y-89265940D01*
X49652770Y-89265940D01*
X49494020Y-89424690D01*
X47890339Y-89424690D01*
X47891304Y-88319258D01*
X47308690Y-86909225D01*
X46380087Y-85979000D01*
X47924170Y-85979000D01*
X49404965Y-87459795D01*
X49481580Y-87510988D01*
X49481580Y-87538940D01*
X49525858Y-87774257D01*
X49664930Y-87990381D01*
X49733026Y-88036909D01*
X49590693Y-88179242D01*
X49494020Y-88412631D01*
X49494020Y-88853190D01*
X49652770Y-89011940D01*
X50452020Y-89011940D01*
X50452020Y-88991940D01*
X50706020Y-88991940D01*
X50706020Y-89011940D01*
X51505270Y-89011940D01*
X51654710Y-88862500D01*
X51786370Y-88994160D01*
X52585620Y-88994160D01*
X52585620Y-88974160D01*
X52839620Y-88974160D01*
X52839620Y-88994160D01*
X53638870Y-88994160D01*
X53797620Y-88835410D01*
X53797620Y-88394851D01*
X53700947Y-88161462D01*
X53559710Y-88020224D01*
X53614061Y-87985250D01*
X53759051Y-87773050D01*
X53810060Y-87521160D01*
X53810060Y-86321160D01*
X53765782Y-86085843D01*
X53626710Y-85869719D01*
X53414510Y-85724729D01*
X53303766Y-85702303D01*
X53233475Y-85597105D01*
X52500155Y-84863785D01*
X52261185Y-84704110D01*
X51979300Y-84648040D01*
X49928009Y-84648040D01*
X49411699Y-84131730D01*
X49490394Y-84079147D01*
X49710340Y-83749974D01*
X49930286Y-84079147D01*
X50412055Y-84401054D01*
X50980340Y-84514093D01*
X51548625Y-84401054D01*
X52030394Y-84079147D01*
X52258042Y-83738447D01*
X52325157Y-83881358D01*
X52753416Y-84271645D01*
X53163450Y-84441476D01*
X53393340Y-84320155D01*
X53393340Y-83127000D01*
X53373340Y-83127000D01*
X53373340Y-82873000D01*
X53393340Y-82873000D01*
X53393340Y-82853000D01*
X53647340Y-82853000D01*
X53647340Y-82873000D01*
X53667340Y-82873000D01*
X53667340Y-83127000D01*
X53647340Y-83127000D01*
X53647340Y-84320155D01*
X53877230Y-84441476D01*
X54287264Y-84271645D01*
X54715523Y-83881358D01*
X54782638Y-83738447D01*
X55010286Y-84079147D01*
X55492055Y-84401054D01*
X56060340Y-84514093D01*
X56628625Y-84401054D01*
X57110394Y-84079147D01*
X57330340Y-83749974D01*
X57550286Y-84079147D01*
X57866935Y-84290725D01*
X57874297Y-84327735D01*
X57670953Y-84327558D01*
X57327177Y-84469603D01*
X57063928Y-84732393D01*
X56921282Y-85075921D01*
X56920958Y-85447887D01*
X57029400Y-85710336D01*
X57013220Y-85707060D01*
X56985268Y-85707060D01*
X56934075Y-85630445D01*
X56812624Y-85508994D01*
X56713757Y-85269717D01*
X56450967Y-85006468D01*
X56107439Y-84863822D01*
X55735473Y-84863498D01*
X55391697Y-85005543D01*
X55128448Y-85268333D01*
X54985802Y-85611861D01*
X54985478Y-85983827D01*
X55127523Y-86327603D01*
X55165780Y-86365927D01*
X55165780Y-87254500D01*
X55210058Y-87489817D01*
X55349130Y-87705941D01*
X55561330Y-87850931D01*
X55813220Y-87901940D01*
X57013220Y-87901940D01*
X57248537Y-87857662D01*
X57464661Y-87718590D01*
X57512354Y-87648789D01*
X57549130Y-87705941D01*
X57761330Y-87850931D01*
X58013220Y-87901940D01*
X59213220Y-87901940D01*
X59354915Y-87875278D01*
X59233088Y-87996893D01*
X59090442Y-88340421D01*
X59090118Y-88712387D01*
X59232163Y-89056163D01*
X59494953Y-89319412D01*
X59838481Y-89462058D01*
X59918478Y-89462128D01*
X59971365Y-89515015D01*
X60047980Y-89566208D01*
X60047980Y-89594160D01*
X60092258Y-89829477D01*
X60231330Y-90045601D01*
X60443530Y-90190591D01*
X60695420Y-90241600D01*
X61595420Y-90241600D01*
X61830737Y-90197322D01*
X62046861Y-90058250D01*
X62191851Y-89846050D01*
X62242860Y-89594160D01*
X62242860Y-88394160D01*
X62198582Y-88158843D01*
X62059510Y-87942719D01*
X61989709Y-87895026D01*
X62046861Y-87858250D01*
X62191851Y-87646050D01*
X62242860Y-87394160D01*
X62242860Y-86194160D01*
X62212167Y-86031040D01*
X62618892Y-86031040D01*
X62593060Y-86158600D01*
X62593060Y-87358600D01*
X62637338Y-87593917D01*
X62776410Y-87810041D01*
X62846211Y-87857734D01*
X62789059Y-87894510D01*
X62644069Y-88106710D01*
X62593060Y-88358600D01*
X62593060Y-89558600D01*
X62637338Y-89793917D01*
X62776410Y-90010041D01*
X62988610Y-90155031D01*
X63240500Y-90206040D01*
X64140500Y-90206040D01*
X64375817Y-90161762D01*
X64591941Y-90022690D01*
X64736931Y-89810490D01*
X64787940Y-89558600D01*
X64787940Y-89530648D01*
X64864555Y-89479455D01*
X64907696Y-89436314D01*
X64986247Y-89436382D01*
X65330023Y-89294337D01*
X65593272Y-89031547D01*
X65735918Y-88688019D01*
X65736242Y-88316053D01*
X65594197Y-87972277D01*
X65452262Y-87830094D01*
X65518560Y-87843520D01*
X66718560Y-87843520D01*
X66953877Y-87799242D01*
X67170001Y-87660170D01*
X67217694Y-87590369D01*
X67254470Y-87647521D01*
X67466670Y-87792511D01*
X67718560Y-87843520D01*
X67746512Y-87843520D01*
X67797705Y-87920135D01*
X68249405Y-88371835D01*
X68488375Y-88531510D01*
X68527668Y-88539326D01*
X68631333Y-88643172D01*
X68974861Y-88785818D01*
X69346827Y-88786142D01*
X69690603Y-88644097D01*
X69953852Y-88381307D01*
X70069639Y-88102462D01*
X96893116Y-88102462D01*
X97475730Y-89512495D01*
X98553591Y-90592239D01*
X99962605Y-91177313D01*
X101488262Y-91178644D01*
X102898295Y-90596030D01*
X103179906Y-90314910D01*
X114225475Y-90314910D01*
X114385258Y-90633679D01*
X115176027Y-90943663D01*
X116025227Y-90927437D01*
X116734422Y-90633679D01*
X116894205Y-90314910D01*
X115559840Y-88980545D01*
X114225475Y-90314910D01*
X103179906Y-90314910D01*
X103978039Y-89518169D01*
X104435231Y-88417127D01*
X113417117Y-88417127D01*
X113433343Y-89266327D01*
X113727101Y-89975522D01*
X114045870Y-90135305D01*
X115380235Y-88800940D01*
X115739445Y-88800940D01*
X117073810Y-90135305D01*
X117392579Y-89975522D01*
X117702563Y-89184753D01*
X117686337Y-88335553D01*
X117392579Y-87626358D01*
X117073810Y-87466575D01*
X115739445Y-88800940D01*
X115380235Y-88800940D01*
X114045870Y-87466575D01*
X113727101Y-87626358D01*
X113417117Y-88417127D01*
X104435231Y-88417127D01*
X104563113Y-88109155D01*
X104563830Y-87286970D01*
X114225475Y-87286970D01*
X115559840Y-88621335D01*
X116894205Y-87286970D01*
X116734422Y-86968201D01*
X115943653Y-86658217D01*
X115094453Y-86674443D01*
X114385258Y-86968201D01*
X114225475Y-87286970D01*
X104563830Y-87286970D01*
X104564444Y-86583498D01*
X103981830Y-85173465D01*
X102903969Y-84093721D01*
X101494955Y-83508647D01*
X99969298Y-83507316D01*
X98559265Y-84089930D01*
X97479521Y-85167791D01*
X96894447Y-86576805D01*
X96893116Y-88102462D01*
X70069639Y-88102462D01*
X70096498Y-88037779D01*
X70096822Y-87665813D01*
X69954777Y-87322037D01*
X69691987Y-87058788D01*
X69566000Y-87006473D01*
X69566000Y-86296080D01*
X69521722Y-86060763D01*
X69382650Y-85844639D01*
X69170450Y-85699649D01*
X68918560Y-85648640D01*
X67718560Y-85648640D01*
X67483243Y-85692918D01*
X67267119Y-85831990D01*
X67219426Y-85901791D01*
X67182650Y-85844639D01*
X66970450Y-85699649D01*
X66718560Y-85648640D01*
X66243981Y-85648640D01*
X66311898Y-85485079D01*
X66312125Y-85224620D01*
X78559660Y-85224620D01*
X78841545Y-85168550D01*
X79080515Y-85008875D01*
X81811015Y-82278375D01*
X81970690Y-82039405D01*
X82026760Y-81757520D01*
X82026760Y-81744745D01*
X82070090Y-81774351D01*
X82321980Y-81825360D01*
X83769980Y-81825360D01*
X84005297Y-81781082D01*
X84221421Y-81642010D01*
X84366411Y-81429810D01*
X84417420Y-81177920D01*
X84417420Y-80720920D01*
X84383965Y-80543124D01*
X84417420Y-80377920D01*
X84417420Y-79920920D01*
X84385497Y-79751265D01*
X84404980Y-79704230D01*
X84404980Y-79640607D01*
X84482303Y-79827743D01*
X84745093Y-80090992D01*
X85088621Y-80233638D01*
X85460587Y-80233962D01*
X85799490Y-80093931D01*
X86058901Y-80201648D01*
X86382140Y-80201930D01*
X86536939Y-80356999D01*
X86880467Y-80499645D01*
X87173509Y-80499900D01*
X87292713Y-80619312D01*
X87636241Y-80761958D01*
X87846540Y-80762141D01*
X87846540Y-81177920D01*
X87877947Y-81344834D01*
X87465323Y-81515328D01*
X87117609Y-81862435D01*
X86929195Y-82316186D01*
X86928766Y-82807499D01*
X87116388Y-83261577D01*
X87463495Y-83609291D01*
X87917246Y-83797705D01*
X88408559Y-83798134D01*
X88862637Y-83610512D01*
X89210351Y-83263405D01*
X89398765Y-82809654D01*
X89399194Y-82318341D01*
X89211572Y-81864263D01*
X89172737Y-81825360D01*
X89941980Y-81825360D01*
X90177297Y-81781082D01*
X90393421Y-81642010D01*
X90538411Y-81429810D01*
X90589420Y-81177920D01*
X90589420Y-80720920D01*
X90555965Y-80543124D01*
X90589420Y-80377920D01*
X90589420Y-79920920D01*
X90557497Y-79751265D01*
X90576980Y-79704230D01*
X90576980Y-79622420D01*
X90418230Y-79463670D01*
X90397568Y-79463670D01*
X90227049Y-79347159D01*
X90301678Y-79316247D01*
X90382755Y-79235170D01*
X90418230Y-79235170D01*
X90576980Y-79076420D01*
X90576980Y-79056230D01*
X110567100Y-79056230D01*
X110567100Y-79746790D01*
X110663773Y-79980179D01*
X110842402Y-80158807D01*
X111075791Y-80255480D01*
X111766350Y-80255480D01*
X111925100Y-80096730D01*
X111925100Y-78897480D01*
X110725850Y-78897480D01*
X110567100Y-79056230D01*
X90576980Y-79056230D01*
X90576980Y-78994610D01*
X90558262Y-78949420D01*
X90576980Y-78904230D01*
X90576980Y-78822420D01*
X90418230Y-78663670D01*
X90382755Y-78663670D01*
X90301678Y-78582593D01*
X90224578Y-78550657D01*
X90393421Y-78442010D01*
X90398095Y-78435170D01*
X90418230Y-78435170D01*
X90576980Y-78276420D01*
X90576980Y-78194610D01*
X90555863Y-78143629D01*
X90589420Y-77977920D01*
X90589420Y-77520920D01*
X90555965Y-77343124D01*
X90558691Y-77329666D01*
X90679903Y-77623023D01*
X90942693Y-77886272D01*
X91286221Y-78028918D01*
X91460280Y-78029070D01*
X92085005Y-78653795D01*
X92323975Y-78813470D01*
X92605860Y-78869540D01*
X97104200Y-78869540D01*
X97386085Y-78813470D01*
X97625055Y-78653795D01*
X98087335Y-78191515D01*
X98095774Y-78178885D01*
X98247010Y-77952545D01*
X98303080Y-77670660D01*
X98303080Y-77383950D01*
X98885873Y-76801157D01*
X98943090Y-76840251D01*
X99194980Y-76891260D01*
X100694980Y-76891260D01*
X100930297Y-76846982D01*
X101146421Y-76707910D01*
X101291411Y-76495710D01*
X101342420Y-76243820D01*
X101342420Y-75793820D01*
X101322913Y-75690149D01*
X101342420Y-75593820D01*
X101342420Y-75143820D01*
X101322913Y-75040149D01*
X101342420Y-74943820D01*
X101342420Y-74805420D01*
X108478149Y-74805420D01*
X108368982Y-75068321D01*
X108368658Y-75440287D01*
X108510703Y-75784063D01*
X108773493Y-76047312D01*
X108950760Y-76120920D01*
X108950760Y-76575920D01*
X109006830Y-76857805D01*
X109166505Y-77096775D01*
X110060585Y-77990855D01*
X110299555Y-78150530D01*
X110567100Y-78203748D01*
X110567100Y-78484730D01*
X110725850Y-78643480D01*
X111925100Y-78643480D01*
X111925100Y-78623480D01*
X112179100Y-78623480D01*
X112179100Y-78643480D01*
X112199100Y-78643480D01*
X112199100Y-78897480D01*
X112179100Y-78897480D01*
X112179100Y-80096730D01*
X112337850Y-80255480D01*
X113028409Y-80255480D01*
X113261798Y-80158807D01*
X113440427Y-79980179D01*
X113509003Y-79814622D01*
X113512953Y-79820534D01*
X113994722Y-80142441D01*
X114563007Y-80255480D01*
X114621193Y-80255480D01*
X115189478Y-80142441D01*
X115671247Y-79820534D01*
X115993154Y-79338765D01*
X116106193Y-78770480D01*
X115993154Y-78202195D01*
X115671247Y-77720426D01*
X115342074Y-77500480D01*
X115671247Y-77280534D01*
X115993154Y-76798765D01*
X116106193Y-76230480D01*
X115993154Y-75662195D01*
X115671247Y-75180426D01*
X115342074Y-74960480D01*
X115671247Y-74740534D01*
X115993154Y-74258765D01*
X116106193Y-73690480D01*
X115993154Y-73122195D01*
X115671247Y-72640426D01*
X115342074Y-72420480D01*
X115671247Y-72200534D01*
X115993154Y-71718765D01*
X116106193Y-71150480D01*
X115993154Y-70582195D01*
X115671247Y-70100426D01*
X115342074Y-69880480D01*
X115671247Y-69660534D01*
X115993154Y-69178765D01*
X116106193Y-68610480D01*
X115993154Y-68042195D01*
X115671247Y-67560426D01*
X115189478Y-67238519D01*
X114621193Y-67125480D01*
X114563007Y-67125480D01*
X113994722Y-67238519D01*
X113512953Y-67560426D01*
X113322100Y-67846058D01*
X113131247Y-67560426D01*
X112649478Y-67238519D01*
X112081193Y-67125480D01*
X112023007Y-67125480D01*
X111454722Y-67238519D01*
X110972953Y-67560426D01*
X110763510Y-67873880D01*
X110335060Y-67873880D01*
X110053175Y-67929950D01*
X109875027Y-68048985D01*
X109814205Y-68089625D01*
X109326525Y-68577305D01*
X109166850Y-68816275D01*
X109110780Y-69098160D01*
X109110780Y-70606533D01*
X109047533Y-70606478D01*
X108703757Y-70748523D01*
X108670041Y-70782180D01*
X108554520Y-70782180D01*
X108272635Y-70838250D01*
X108054686Y-70983879D01*
X108033665Y-70997925D01*
X107649370Y-71382220D01*
X107422000Y-71382220D01*
X107422122Y-71242173D01*
X107280077Y-70898397D01*
X107017287Y-70635148D01*
X106673759Y-70492502D01*
X106593762Y-70492432D01*
X104942640Y-68841310D01*
X104942640Y-67929760D01*
X104886570Y-67647875D01*
X104726895Y-67408905D01*
X102546555Y-65228565D01*
X102307585Y-65068890D01*
X102025700Y-65012820D01*
X90323147Y-65012820D01*
X90193870Y-64924489D01*
X89941980Y-64873480D01*
X89173211Y-64873480D01*
X89210351Y-64836405D01*
X89398765Y-64382654D01*
X89399194Y-63891341D01*
X89211572Y-63437263D01*
X89066283Y-63291720D01*
X91838470Y-63291720D01*
X91916073Y-63369323D01*
X91866602Y-63488461D01*
X91866278Y-63860427D01*
X92008323Y-64204203D01*
X92271113Y-64467452D01*
X92614641Y-64610098D01*
X92986607Y-64610422D01*
X93330383Y-64468377D01*
X93593632Y-64205587D01*
X93736278Y-63862059D01*
X93736602Y-63490093D01*
X93594557Y-63146317D01*
X93448972Y-63000478D01*
X93423551Y-62872676D01*
X93263875Y-62633705D01*
X92664435Y-62034265D01*
X92425465Y-61874590D01*
X92143580Y-61818520D01*
X87642700Y-61818520D01*
X87360815Y-61874590D01*
X87121845Y-62034265D01*
X86282405Y-62873705D01*
X86122730Y-63112675D01*
X86066660Y-63394560D01*
X86066660Y-66975619D01*
X86029610Y-66789355D01*
X85869935Y-66550385D01*
X85534874Y-66215324D01*
X85534942Y-66136773D01*
X85392897Y-65792997D01*
X85130107Y-65529748D01*
X84786579Y-65387102D01*
X84652455Y-65386985D01*
X84494035Y-65228565D01*
X84255065Y-65068890D01*
X84224232Y-65062757D01*
X84021870Y-64924489D01*
X83769980Y-64873480D01*
X82321980Y-64873480D01*
X82086663Y-64917758D01*
X81870539Y-65056830D01*
X81725549Y-65269030D01*
X81674540Y-65520920D01*
X81674540Y-65977920D01*
X81706463Y-66147575D01*
X81686980Y-66194610D01*
X81686980Y-66276420D01*
X81845730Y-66435170D01*
X81866392Y-66435170D01*
X82035473Y-66550698D01*
X81870539Y-66656830D01*
X81865865Y-66663670D01*
X81845730Y-66663670D01*
X81686980Y-66822420D01*
X81686980Y-66904230D01*
X81708097Y-66955211D01*
X81674540Y-67120920D01*
X81674540Y-67577920D01*
X81706463Y-67747575D01*
X81686980Y-67794610D01*
X81686980Y-67876420D01*
X81845730Y-68035170D01*
X81866392Y-68035170D01*
X82035473Y-68150698D01*
X81870539Y-68256830D01*
X81865865Y-68263670D01*
X81845730Y-68263670D01*
X81686980Y-68422420D01*
X81686980Y-68504230D01*
X81708097Y-68555211D01*
X81674540Y-68720920D01*
X81674540Y-69177920D01*
X81706463Y-69347575D01*
X81686980Y-69394610D01*
X81686980Y-69476420D01*
X81845730Y-69635170D01*
X81866392Y-69635170D01*
X82035473Y-69750698D01*
X81870539Y-69856830D01*
X81865865Y-69863670D01*
X81845730Y-69863670D01*
X81686980Y-70022420D01*
X81686980Y-70104230D01*
X81708097Y-70155211D01*
X81674540Y-70320920D01*
X81674540Y-70777920D01*
X81706463Y-70947575D01*
X81686980Y-70994610D01*
X81686980Y-71076420D01*
X81845730Y-71235170D01*
X81866392Y-71235170D01*
X82035473Y-71350698D01*
X81870539Y-71456830D01*
X81865865Y-71463670D01*
X81845730Y-71463670D01*
X81686980Y-71622420D01*
X81686980Y-71704230D01*
X81708097Y-71755211D01*
X81674540Y-71920920D01*
X81674540Y-72377920D01*
X81707995Y-72555716D01*
X81674540Y-72720920D01*
X81674540Y-73177920D01*
X81707995Y-73355716D01*
X81674540Y-73520920D01*
X81674540Y-73977920D01*
X81707995Y-74155716D01*
X81674540Y-74320920D01*
X81674540Y-74777920D01*
X81707995Y-74955716D01*
X81674540Y-75120920D01*
X81674540Y-75577920D01*
X81707995Y-75755716D01*
X81692509Y-75832187D01*
X81476959Y-75742682D01*
X81104993Y-75742358D01*
X80959960Y-75802284D01*
X80959960Y-75421496D01*
X80903890Y-75139611D01*
X80744215Y-74900641D01*
X79399750Y-73556176D01*
X79399750Y-64710941D01*
X79343680Y-64429056D01*
X79184005Y-64190086D01*
X78173947Y-63180027D01*
X78174022Y-63093853D01*
X78031977Y-62750077D01*
X77769187Y-62486828D01*
X77425659Y-62344182D01*
X77053693Y-62343858D01*
X76709917Y-62485903D01*
X76446668Y-62748693D01*
X76363204Y-62949696D01*
X76353779Y-62945782D01*
X75981813Y-62945458D01*
X75638037Y-63087503D01*
X75374788Y-63350293D01*
X75316968Y-63489538D01*
X75182839Y-63433842D01*
X74810873Y-63433518D01*
X74597260Y-63521781D01*
X74597260Y-63481980D01*
X74541190Y-63200095D01*
X74381515Y-62961125D01*
X74247290Y-62826900D01*
X74877210Y-62196980D01*
X77754060Y-62196980D01*
X78035945Y-62140910D01*
X78274915Y-61981235D01*
X79060452Y-61195698D01*
X79199740Y-61532800D01*
X79799801Y-62133909D01*
X80584219Y-62459628D01*
X81433575Y-62460370D01*
X82218560Y-62136020D01*
X82819669Y-61535959D01*
X83145388Y-60751541D01*
X83146130Y-59902185D01*
X82821780Y-59117200D01*
X82221719Y-58516091D01*
X81437301Y-58190372D01*
X80587945Y-58189630D01*
X79802960Y-58513980D01*
X79201851Y-59114041D01*
X79004880Y-59588400D01*
X78889440Y-59588400D01*
X78607555Y-59644470D01*
X78396115Y-59785750D01*
X78368585Y-59804145D01*
X77448950Y-60723780D01*
X74572100Y-60723780D01*
X74290215Y-60779850D01*
X74051245Y-60939525D01*
X73205580Y-61785190D01*
X73150035Y-61729645D01*
X73073420Y-61678452D01*
X73073420Y-61650500D01*
X73029142Y-61415183D01*
X72890070Y-61199059D01*
X72820269Y-61151366D01*
X72877421Y-61114590D01*
X73022411Y-60902390D01*
X73073420Y-60650500D01*
X73073420Y-59450500D01*
X73029142Y-59215183D01*
X72890070Y-58999059D01*
X72677870Y-58854069D01*
X72425980Y-58803060D01*
X71525980Y-58803060D01*
X71290663Y-58847338D01*
X71207480Y-58900865D01*
X71040099Y-58831362D01*
X70668133Y-58831038D01*
X70324357Y-58973083D01*
X70061108Y-59235873D01*
X69918462Y-59579401D01*
X69918138Y-59951367D01*
X70060183Y-60295143D01*
X70322973Y-60558392D01*
X70666501Y-60701038D01*
X70888086Y-60701231D01*
X70922818Y-60885817D01*
X71061890Y-61101941D01*
X71131691Y-61149634D01*
X71074539Y-61186410D01*
X70929549Y-61398610D01*
X70878540Y-61650500D01*
X70878540Y-62850500D01*
X70922818Y-63085817D01*
X71061890Y-63301941D01*
X71274090Y-63446931D01*
X71525980Y-63497940D01*
X72425980Y-63497940D01*
X72661297Y-63453662D01*
X72739993Y-63403023D01*
X73124060Y-63787090D01*
X73124060Y-64461410D01*
X72810606Y-64670853D01*
X72590660Y-65000026D01*
X72370714Y-64670853D01*
X71888945Y-64348946D01*
X71320660Y-64235907D01*
X70752375Y-64348946D01*
X70270606Y-64670853D01*
X70050660Y-65000026D01*
X69830714Y-64670853D01*
X69348945Y-64348946D01*
X68780660Y-64235907D01*
X68212375Y-64348946D01*
X67730606Y-64670853D01*
X67510660Y-65000026D01*
X67290714Y-64670853D01*
X66808945Y-64348946D01*
X66240660Y-64235907D01*
X65672375Y-64348946D01*
X65190606Y-64670853D01*
X64970660Y-65000026D01*
X64750714Y-64670853D01*
X64541400Y-64530994D01*
X64541400Y-63420662D01*
X64706241Y-63314590D01*
X64851231Y-63102390D01*
X64876842Y-62975917D01*
X65102505Y-62931030D01*
X65341475Y-62771355D01*
X66217955Y-61894875D01*
X66377630Y-61655905D01*
X66433700Y-61374020D01*
X66433700Y-60162750D01*
X68620950Y-57975500D01*
X83272371Y-57975500D01*
X83381113Y-58084432D01*
X83724641Y-58227078D01*
X84096607Y-58227402D01*
X84440383Y-58085357D01*
X84703632Y-57822567D01*
X84846278Y-57479039D01*
X84846602Y-57107073D01*
X84704557Y-56763297D01*
X84441767Y-56500048D01*
X84098239Y-56357402D01*
X83726273Y-56357078D01*
X83382497Y-56499123D01*
X83379314Y-56502300D01*
X68315840Y-56502300D01*
X68033955Y-56558370D01*
X67880103Y-56661171D01*
X67794985Y-56718045D01*
X65176245Y-59336785D01*
X65016570Y-59575755D01*
X64960500Y-59857640D01*
X64960500Y-61068910D01*
X64762531Y-61266879D01*
X64718890Y-61199059D01*
X64650794Y-61152531D01*
X64793127Y-61010198D01*
X64889800Y-60776809D01*
X64889800Y-60336250D01*
X64731050Y-60177500D01*
X63931800Y-60177500D01*
X63931800Y-60197500D01*
X63677800Y-60197500D01*
X63677800Y-60177500D01*
X62878550Y-60177500D01*
X62719800Y-60336250D01*
X62719800Y-60776809D01*
X62816473Y-61010198D01*
X62957710Y-61151436D01*
X62903359Y-61186410D01*
X62758369Y-61398610D01*
X62707360Y-61650500D01*
X62707360Y-62850500D01*
X62751638Y-63085817D01*
X62890710Y-63301941D01*
X63068200Y-63423215D01*
X63068200Y-64391826D01*
X62650606Y-64670853D01*
X62430660Y-65000026D01*
X62210714Y-64670853D01*
X61728945Y-64348946D01*
X61160660Y-64235907D01*
X60592375Y-64348946D01*
X60404361Y-64474572D01*
X60386115Y-64447265D01*
X60279590Y-64340740D01*
X61150655Y-63469675D01*
X61150722Y-63469575D01*
X61310330Y-63230705D01*
X61366400Y-62948820D01*
X61366400Y-59513856D01*
X61825424Y-59324191D01*
X62719800Y-59324191D01*
X62719800Y-59764750D01*
X62878550Y-59923500D01*
X63677800Y-59923500D01*
X63677800Y-58974250D01*
X63931800Y-58974250D01*
X63931800Y-59923500D01*
X64731050Y-59923500D01*
X64889800Y-59764750D01*
X64889800Y-59324191D01*
X64793127Y-59090802D01*
X64614499Y-58912173D01*
X64381110Y-58815500D01*
X64090550Y-58815500D01*
X63931800Y-58974250D01*
X63677800Y-58974250D01*
X63519050Y-58815500D01*
X63228490Y-58815500D01*
X62995101Y-58912173D01*
X62816473Y-59090802D01*
X62719800Y-59324191D01*
X61825424Y-59324191D01*
X61837600Y-59319160D01*
X62438709Y-58719099D01*
X62764428Y-57934681D01*
X62765170Y-57085325D01*
X62440820Y-56300340D01*
X61840759Y-55699231D01*
X61056341Y-55373512D01*
X60206985Y-55372770D01*
X59422000Y-55697120D01*
X58820891Y-56297181D01*
X58495172Y-57081599D01*
X58494430Y-57930955D01*
X58818780Y-58715940D01*
X59418841Y-59317049D01*
X59893200Y-59514020D01*
X59893200Y-62643710D01*
X58843870Y-63693040D01*
X52331620Y-63693040D01*
X52049735Y-63749110D01*
X51810765Y-63908785D01*
X51403511Y-64316039D01*
X51000660Y-64235907D01*
X50432375Y-64348946D01*
X49950606Y-64670853D01*
X49730660Y-65000026D01*
X49510714Y-64670853D01*
X49028945Y-64348946D01*
X48460660Y-64235907D01*
X47892375Y-64348946D01*
X47410606Y-64670853D01*
X47190660Y-65000026D01*
X46970714Y-64670853D01*
X46657260Y-64461410D01*
X46657260Y-64056570D01*
X46832830Y-63881000D01*
X49131220Y-63881000D01*
X49413105Y-63824930D01*
X49652075Y-63665255D01*
X50032895Y-63284435D01*
X50089249Y-63200095D01*
X50192570Y-63045465D01*
X50208291Y-62966429D01*
X50347357Y-62940262D01*
X50563481Y-62801190D01*
X50611174Y-62731389D01*
X50647950Y-62788541D01*
X50860150Y-62933531D01*
X51112040Y-62984540D01*
X52312040Y-62984540D01*
X52547357Y-62940262D01*
X52763481Y-62801190D01*
X52908471Y-62588990D01*
X52928632Y-62489431D01*
X53033147Y-62489522D01*
X53376923Y-62347477D01*
X53640172Y-62084687D01*
X53782818Y-61741159D01*
X53783142Y-61369193D01*
X53641097Y-61025417D01*
X53540423Y-60924567D01*
X54551992Y-59912998D01*
X54691280Y-60250100D01*
X55291341Y-60851209D01*
X56075759Y-61176928D01*
X56925115Y-61177670D01*
X57710100Y-60853320D01*
X58311209Y-60253259D01*
X58636928Y-59468841D01*
X58637670Y-58619485D01*
X58313320Y-57834500D01*
X57713259Y-57233391D01*
X56928841Y-56907672D01*
X56079485Y-56906930D01*
X55294500Y-57231280D01*
X54693391Y-57831341D01*
X54496420Y-58305700D01*
X54380980Y-58305700D01*
X54099095Y-58361770D01*
X53871297Y-58513980D01*
X53860125Y-58521445D01*
X52597590Y-59783980D01*
X51501419Y-59783980D01*
X52282120Y-59461400D01*
X52883229Y-58861339D01*
X53208948Y-58076921D01*
X53209690Y-57227565D01*
X52885340Y-56442580D01*
X52285279Y-55841471D01*
X51500861Y-55515752D01*
X50651505Y-55515010D01*
X49866520Y-55839360D01*
X49265411Y-56439421D01*
X48939692Y-57223839D01*
X48938950Y-58073195D01*
X49263300Y-58858180D01*
X49863361Y-59459289D01*
X50645303Y-59783980D01*
X50111660Y-59783980D01*
X49829775Y-59840050D01*
X49590805Y-59999725D01*
X48991185Y-60599345D01*
X48857115Y-60799995D01*
X48676723Y-60833938D01*
X48460599Y-60973010D01*
X48315609Y-61185210D01*
X48264600Y-61437100D01*
X48264600Y-62337100D01*
X48277903Y-62407800D01*
X46527720Y-62407800D01*
X46245835Y-62463870D01*
X46006865Y-62623545D01*
X45399805Y-63230605D01*
X45240130Y-63469575D01*
X45184060Y-63751460D01*
X45184060Y-64461410D01*
X44870606Y-64670853D01*
X44650660Y-65000026D01*
X44430714Y-64670853D01*
X43948945Y-64348946D01*
X43380660Y-64235907D01*
X42812375Y-64348946D01*
X42330606Y-64670853D01*
X42110660Y-65000026D01*
X41890714Y-64670853D01*
X41408945Y-64348946D01*
X40840660Y-64235907D01*
X40272375Y-64348946D01*
X39790606Y-64670853D01*
X39570660Y-65000026D01*
X39350714Y-64670853D01*
X38868945Y-64348946D01*
X38300660Y-64235907D01*
X37732375Y-64348946D01*
X37250606Y-64670853D01*
X37030660Y-65000026D01*
X36810714Y-64670853D01*
X36328945Y-64348946D01*
X35760660Y-64235907D01*
X35192375Y-64348946D01*
X34710606Y-64670853D01*
X34490660Y-65000026D01*
X34270714Y-64670853D01*
X33788945Y-64348946D01*
X33220660Y-64235907D01*
X32652375Y-64348946D01*
X32170606Y-64670853D01*
X31950660Y-65000026D01*
X31730714Y-64670853D01*
X31248945Y-64348946D01*
X30680660Y-64235907D01*
X30112375Y-64348946D01*
X29630606Y-64670853D01*
X29410660Y-65000026D01*
X29190714Y-64670853D01*
X28708945Y-64348946D01*
X28140660Y-64235907D01*
X27572375Y-64348946D01*
X27090606Y-64670853D01*
X26870660Y-65000026D01*
X26650714Y-64670853D01*
X26168945Y-64348946D01*
X25600660Y-64235907D01*
X25032375Y-64348946D01*
X24550606Y-64670853D01*
X24330660Y-65000026D01*
X24110714Y-64670853D01*
X23628945Y-64348946D01*
X23060660Y-64235907D01*
X22492375Y-64348946D01*
X22010606Y-64670853D01*
X21790660Y-65000026D01*
X21570714Y-64670853D01*
X21088945Y-64348946D01*
X20520660Y-64235907D01*
X19952375Y-64348946D01*
X19470606Y-64670853D01*
X19441257Y-64714777D01*
X19368987Y-64540302D01*
X19190359Y-64361673D01*
X18956970Y-64265000D01*
X18266410Y-64265000D01*
X18107660Y-64423750D01*
X18107660Y-65623000D01*
X18127660Y-65623000D01*
X18127660Y-65877000D01*
X18107660Y-65877000D01*
X18107660Y-67076250D01*
X18266410Y-67235000D01*
X18956970Y-67235000D01*
X19190359Y-67138327D01*
X19368987Y-66959698D01*
X19441257Y-66785223D01*
X19470606Y-66829147D01*
X19952375Y-67151054D01*
X20520660Y-67264093D01*
X21088945Y-67151054D01*
X21570714Y-66829147D01*
X21790660Y-66499974D01*
X22010606Y-66829147D01*
X22492375Y-67151054D01*
X23060660Y-67264093D01*
X23628945Y-67151054D01*
X24110714Y-66829147D01*
X24330660Y-66499974D01*
X24550606Y-66829147D01*
X24864060Y-67038590D01*
X24864060Y-68638110D01*
X24632984Y-68869186D01*
X24554433Y-68869118D01*
X24210657Y-69011163D01*
X23947408Y-69273953D01*
X23804762Y-69617481D01*
X23804438Y-69989447D01*
X23946483Y-70333223D01*
X24209273Y-70596472D01*
X24552801Y-70739118D01*
X24924767Y-70739442D01*
X25268543Y-70597397D01*
X25531792Y-70334607D01*
X25674438Y-69991079D01*
X25674508Y-69911082D01*
X26121515Y-69464075D01*
X26127833Y-69454620D01*
X26281190Y-69225105D01*
X26337260Y-68943220D01*
X26337260Y-67038590D01*
X26650714Y-66829147D01*
X26870660Y-66499974D01*
X27090606Y-66829147D01*
X27137360Y-66860387D01*
X27137360Y-66995958D01*
X27081768Y-67051453D01*
X26939122Y-67394981D01*
X26938798Y-67766947D01*
X27080843Y-68110723D01*
X27343633Y-68373972D01*
X27687161Y-68516618D01*
X28059127Y-68516942D01*
X28402903Y-68374897D01*
X28666152Y-68112107D01*
X28808798Y-67768579D01*
X28809122Y-67396613D01*
X28707757Y-67151290D01*
X28708945Y-67151054D01*
X29190714Y-66829147D01*
X29410660Y-66499974D01*
X29630606Y-66829147D01*
X29840238Y-66969218D01*
X29817313Y-66969198D01*
X29473537Y-67111243D01*
X29210288Y-67374033D01*
X29067642Y-67717561D01*
X29067318Y-68089527D01*
X29209363Y-68433303D01*
X29472153Y-68696552D01*
X29815681Y-68839198D01*
X30187647Y-68839522D01*
X30531423Y-68697477D01*
X30794672Y-68434687D01*
X30937318Y-68091159D01*
X30937388Y-68011162D01*
X31201515Y-67747035D01*
X31361190Y-67508065D01*
X31417260Y-67226180D01*
X31417260Y-67038590D01*
X31730714Y-66829147D01*
X31950660Y-66499974D01*
X32170606Y-66829147D01*
X32484060Y-67038590D01*
X32484060Y-71287640D01*
X32540130Y-71569525D01*
X32699805Y-71808495D01*
X33370365Y-72479055D01*
X33609335Y-72638730D01*
X33891220Y-72694800D01*
X35305690Y-72694800D01*
X35526980Y-72916090D01*
X35526980Y-73362820D01*
X35583050Y-73644705D01*
X35742725Y-73883675D01*
X39344825Y-77485775D01*
X39583795Y-77645450D01*
X39808238Y-77690094D01*
X39624055Y-77726730D01*
X39385085Y-77886405D01*
X39229990Y-78041500D01*
X33680159Y-78041500D01*
X33398274Y-78097570D01*
X33159304Y-78257245D01*
X30139485Y-81277064D01*
X29979810Y-81516034D01*
X29943585Y-81698150D01*
X29610286Y-81920853D01*
X29390340Y-82250026D01*
X29170394Y-81920853D01*
X28688625Y-81598946D01*
X28120340Y-81485907D01*
X27552055Y-81598946D01*
X27070286Y-81920853D01*
X26850340Y-82250026D01*
X26630394Y-81920853D01*
X26148625Y-81598946D01*
X25580340Y-81485907D01*
X25012055Y-81598946D01*
X24530286Y-81920853D01*
X24310340Y-82250026D01*
X24090394Y-81920853D01*
X23608625Y-81598946D01*
X23040340Y-81485907D01*
X22472055Y-81598946D01*
X21990286Y-81920853D01*
X21762638Y-82261553D01*
X21695523Y-82118642D01*
X21267264Y-81728355D01*
X20857230Y-81558524D01*
X20627340Y-81679845D01*
X20627340Y-82873000D01*
X20647340Y-82873000D01*
X20647340Y-83127000D01*
X20627340Y-83127000D01*
X20627340Y-84320155D01*
X20857230Y-84441476D01*
X21267264Y-84271645D01*
X21695523Y-83881358D01*
X21762638Y-83738447D01*
X21990286Y-84079147D01*
X22472055Y-84401054D01*
X23040340Y-84514093D01*
X23608625Y-84401054D01*
X24090394Y-84079147D01*
X24310340Y-83749974D01*
X24530286Y-84079147D01*
X25012055Y-84401054D01*
X25580340Y-84514093D01*
X26148625Y-84401054D01*
X26630394Y-84079147D01*
X26850340Y-83749974D01*
X27070286Y-84079147D01*
X27396521Y-84297129D01*
X26415845Y-85277805D01*
X26256170Y-85516775D01*
X26200100Y-85798660D01*
X26200100Y-87122598D01*
X26035259Y-87228670D01*
X25890269Y-87440870D01*
X25839260Y-87692760D01*
X25839260Y-88892760D01*
X25883538Y-89128077D01*
X26022610Y-89344201D01*
X26090706Y-89390729D01*
X25948373Y-89533062D01*
X25851700Y-89766451D01*
X25851700Y-90207010D01*
X26010450Y-90365760D01*
X26809700Y-90365760D01*
X26809700Y-90345760D01*
X27063700Y-90345760D01*
X27063700Y-90365760D01*
X27862950Y-90365760D01*
X28021700Y-90207010D01*
X28021700Y-89766451D01*
X27925027Y-89533062D01*
X27783790Y-89391824D01*
X27838141Y-89356850D01*
X27983131Y-89144650D01*
X28034140Y-88892760D01*
X28034140Y-87692760D01*
X27989862Y-87457443D01*
X27850790Y-87241319D01*
X27673300Y-87120045D01*
X27673300Y-86103770D01*
X28511810Y-85265260D01*
X29171590Y-85265260D01*
X28864405Y-85572445D01*
X28704730Y-85811415D01*
X28648660Y-86093300D01*
X28648660Y-87117518D01*
X28483819Y-87223590D01*
X28338829Y-87435790D01*
X28287820Y-87687680D01*
X28287820Y-88887680D01*
X28332098Y-89122997D01*
X28471170Y-89339121D01*
X28539266Y-89385649D01*
X28396933Y-89527982D01*
X28300260Y-89761371D01*
X28300260Y-90201930D01*
X28459010Y-90360680D01*
X29258260Y-90360680D01*
X29258260Y-90340680D01*
X29512260Y-90340680D01*
X29512260Y-90360680D01*
X30311510Y-90360680D01*
X30470260Y-90201930D01*
X30470260Y-89761371D01*
X30373587Y-89527982D01*
X30232350Y-89386744D01*
X30286701Y-89351770D01*
X30431691Y-89139570D01*
X30482700Y-88887680D01*
X30482700Y-87687680D01*
X30438422Y-87452363D01*
X30299350Y-87236239D01*
X30121860Y-87114965D01*
X30121860Y-86398410D01*
X31348990Y-85171280D01*
X31759656Y-85171280D01*
X31193585Y-85737351D01*
X31033910Y-85976321D01*
X30977840Y-86258206D01*
X30977840Y-87125138D01*
X30812999Y-87231210D01*
X30668009Y-87443410D01*
X30617000Y-87695300D01*
X30617000Y-88895300D01*
X30661278Y-89130617D01*
X30800350Y-89346741D01*
X30868446Y-89393269D01*
X30726113Y-89535602D01*
X30629440Y-89768991D01*
X30629440Y-90209550D01*
X30788190Y-90368300D01*
X31587440Y-90368300D01*
X31587440Y-90348300D01*
X31841440Y-90348300D01*
X31841440Y-90368300D01*
X32640690Y-90368300D01*
X32799440Y-90209550D01*
X32799440Y-89768991D01*
X32702767Y-89535602D01*
X32561530Y-89394364D01*
X32615881Y-89359390D01*
X32760871Y-89147190D01*
X32811880Y-88895300D01*
X32811880Y-87695300D01*
X32767602Y-87459983D01*
X32628530Y-87243859D01*
X32451040Y-87122585D01*
X32451040Y-86563316D01*
X33521492Y-85492864D01*
X33502600Y-85587840D01*
X33502600Y-87097198D01*
X33337759Y-87203270D01*
X33192769Y-87415470D01*
X33141760Y-87667360D01*
X33141760Y-88867360D01*
X33186038Y-89102677D01*
X33325110Y-89318801D01*
X33393206Y-89365329D01*
X33250873Y-89507662D01*
X33154200Y-89741051D01*
X33154200Y-90181610D01*
X33312950Y-90340360D01*
X34112200Y-90340360D01*
X34112200Y-90320360D01*
X34366200Y-90320360D01*
X34366200Y-90340360D01*
X35165450Y-90340360D01*
X35324200Y-90181610D01*
X35324200Y-89741051D01*
X35227527Y-89507662D01*
X35086290Y-89366424D01*
X35140641Y-89331450D01*
X35285631Y-89119250D01*
X35336640Y-88867360D01*
X35336640Y-87667360D01*
X35292362Y-87432043D01*
X35153290Y-87215919D01*
X34975800Y-87094645D01*
X34975800Y-85892950D01*
X35103110Y-85765640D01*
X35971926Y-85765640D01*
X35875150Y-85910475D01*
X35819080Y-86192360D01*
X35819080Y-87074338D01*
X35654239Y-87180410D01*
X35509249Y-87392610D01*
X35458240Y-87644500D01*
X35458240Y-88844500D01*
X35502518Y-89079817D01*
X35641590Y-89295941D01*
X35709686Y-89342469D01*
X35567353Y-89484802D01*
X35470680Y-89718191D01*
X35470680Y-90158750D01*
X35629430Y-90317500D01*
X36428680Y-90317500D01*
X36428680Y-90297500D01*
X36682680Y-90297500D01*
X36682680Y-90317500D01*
X37481930Y-90317500D01*
X37625020Y-90174410D01*
X37750330Y-90299720D01*
X38549580Y-90299720D01*
X38549580Y-90279720D01*
X38803580Y-90279720D01*
X38803580Y-90299720D01*
X39602830Y-90299720D01*
X39761580Y-90140970D01*
X39761580Y-89700411D01*
X39664907Y-89467022D01*
X39523670Y-89325784D01*
X39578021Y-89290810D01*
X39723011Y-89078610D01*
X39774020Y-88826720D01*
X39774020Y-87626720D01*
X39733015Y-87408795D01*
X40404000Y-86737810D01*
X40635570Y-86737810D01*
X40917455Y-86681740D01*
X41156425Y-86522065D01*
X42583410Y-85095080D01*
X43203941Y-85095080D01*
X43485826Y-85039010D01*
X43724796Y-84879335D01*
X43881195Y-84722936D01*
X43965220Y-84597184D01*
X44040870Y-84483966D01*
X44077095Y-84301850D01*
X44410394Y-84079147D01*
X44630340Y-83749974D01*
X44850286Y-84079147D01*
X45163740Y-84288590D01*
X45163740Y-84907120D01*
X45219810Y-85189005D01*
X45379485Y-85427975D01*
X45461564Y-85510054D01*
X44821815Y-85244407D01*
X43296158Y-85243076D01*
X41886125Y-85825690D01*
X40806381Y-86903551D01*
X40221307Y-88312565D01*
X40219976Y-89838222D01*
X40802590Y-91248255D01*
X41865959Y-92313482D01*
X15686069Y-92312824D01*
X14471579Y-92076361D01*
X13492483Y-91427875D01*
X13054773Y-90778510D01*
X25851700Y-90778510D01*
X25851700Y-91219069D01*
X25948373Y-91452458D01*
X26127001Y-91631087D01*
X26360390Y-91727760D01*
X26650950Y-91727760D01*
X26809700Y-91569010D01*
X26809700Y-90619760D01*
X27063700Y-90619760D01*
X27063700Y-91569010D01*
X27222450Y-91727760D01*
X27513010Y-91727760D01*
X27746399Y-91631087D01*
X27925027Y-91452458D01*
X28021700Y-91219069D01*
X28021700Y-90778510D01*
X28016620Y-90773430D01*
X28300260Y-90773430D01*
X28300260Y-91213989D01*
X28396933Y-91447378D01*
X28575561Y-91626007D01*
X28808950Y-91722680D01*
X29099510Y-91722680D01*
X29258260Y-91563930D01*
X29258260Y-90614680D01*
X29512260Y-90614680D01*
X29512260Y-91563930D01*
X29671010Y-91722680D01*
X29961570Y-91722680D01*
X30194959Y-91626007D01*
X30373587Y-91447378D01*
X30470260Y-91213989D01*
X30470260Y-90781050D01*
X30629440Y-90781050D01*
X30629440Y-91221609D01*
X30726113Y-91454998D01*
X30904741Y-91633627D01*
X31138130Y-91730300D01*
X31428690Y-91730300D01*
X31587440Y-91571550D01*
X31587440Y-90622300D01*
X31841440Y-90622300D01*
X31841440Y-91571550D01*
X32000190Y-91730300D01*
X32290750Y-91730300D01*
X32524139Y-91633627D01*
X32702767Y-91454998D01*
X32799440Y-91221609D01*
X32799440Y-90781050D01*
X32771500Y-90753110D01*
X33154200Y-90753110D01*
X33154200Y-91193669D01*
X33250873Y-91427058D01*
X33429501Y-91605687D01*
X33662890Y-91702360D01*
X33953450Y-91702360D01*
X34112200Y-91543610D01*
X34112200Y-90594360D01*
X34366200Y-90594360D01*
X34366200Y-91543610D01*
X34524950Y-91702360D01*
X34815510Y-91702360D01*
X35048899Y-91605687D01*
X35227527Y-91427058D01*
X35324200Y-91193669D01*
X35324200Y-90753110D01*
X35301340Y-90730250D01*
X35470680Y-90730250D01*
X35470680Y-91170809D01*
X35567353Y-91404198D01*
X35745981Y-91582827D01*
X35979370Y-91679500D01*
X36269930Y-91679500D01*
X36428680Y-91520750D01*
X36428680Y-90571500D01*
X36682680Y-90571500D01*
X36682680Y-91520750D01*
X36841430Y-91679500D01*
X37131990Y-91679500D01*
X37365379Y-91582827D01*
X37544007Y-91404198D01*
X37619812Y-91221188D01*
X37688253Y-91386418D01*
X37866881Y-91565047D01*
X38100270Y-91661720D01*
X38390830Y-91661720D01*
X38549580Y-91502970D01*
X38549580Y-90553720D01*
X38803580Y-90553720D01*
X38803580Y-91502970D01*
X38962330Y-91661720D01*
X39252890Y-91661720D01*
X39486279Y-91565047D01*
X39664907Y-91386418D01*
X39761580Y-91153029D01*
X39761580Y-90712470D01*
X39602830Y-90553720D01*
X38803580Y-90553720D01*
X38549580Y-90553720D01*
X37750330Y-90553720D01*
X37607240Y-90696810D01*
X37481930Y-90571500D01*
X36682680Y-90571500D01*
X36428680Y-90571500D01*
X35629430Y-90571500D01*
X35470680Y-90730250D01*
X35301340Y-90730250D01*
X35165450Y-90594360D01*
X34366200Y-90594360D01*
X34112200Y-90594360D01*
X33312950Y-90594360D01*
X33154200Y-90753110D01*
X32771500Y-90753110D01*
X32640690Y-90622300D01*
X31841440Y-90622300D01*
X31587440Y-90622300D01*
X30788190Y-90622300D01*
X30629440Y-90781050D01*
X30470260Y-90781050D01*
X30470260Y-90773430D01*
X30311510Y-90614680D01*
X29512260Y-90614680D01*
X29258260Y-90614680D01*
X28459010Y-90614680D01*
X28300260Y-90773430D01*
X28016620Y-90773430D01*
X27862950Y-90619760D01*
X27063700Y-90619760D01*
X26809700Y-90619760D01*
X26010450Y-90619760D01*
X25851700Y-90778510D01*
X13054773Y-90778510D01*
X12836080Y-90454069D01*
X12588733Y-89236389D01*
X12589135Y-89200278D01*
X12584448Y-89175262D01*
X12589180Y-89151472D01*
X12589180Y-88804655D01*
X14641330Y-88804655D01*
X14965680Y-89589640D01*
X15565741Y-90190749D01*
X16350159Y-90516468D01*
X17199515Y-90517210D01*
X17984500Y-90192860D01*
X18585609Y-89592799D01*
X18911328Y-88808381D01*
X18911337Y-88797035D01*
X20912590Y-88797035D01*
X21236940Y-89582020D01*
X21837001Y-90183129D01*
X22621419Y-90508848D01*
X23470775Y-90509590D01*
X24255760Y-90185240D01*
X24856869Y-89585179D01*
X25182588Y-88800761D01*
X25183330Y-87951405D01*
X24858980Y-87166420D01*
X24258919Y-86565311D01*
X23474501Y-86239592D01*
X22625145Y-86238850D01*
X21840160Y-86563200D01*
X21239051Y-87163261D01*
X20913332Y-87947679D01*
X20912590Y-88797035D01*
X18911337Y-88797035D01*
X18912070Y-87959025D01*
X18587720Y-87174040D01*
X17987659Y-86572931D01*
X17203241Y-86247212D01*
X16353885Y-86246470D01*
X15568900Y-86570820D01*
X14967791Y-87170881D01*
X14642072Y-87955299D01*
X14641330Y-88804655D01*
X12589180Y-88804655D01*
X12589180Y-82970907D01*
X16475340Y-82970907D01*
X16475340Y-83029093D01*
X16588379Y-83597378D01*
X16910286Y-84079147D01*
X17392055Y-84401054D01*
X17960340Y-84514093D01*
X18528625Y-84401054D01*
X19010394Y-84079147D01*
X19238042Y-83738447D01*
X19305157Y-83881358D01*
X19733416Y-84271645D01*
X20143450Y-84441476D01*
X20373340Y-84320155D01*
X20373340Y-83127000D01*
X20353340Y-83127000D01*
X20353340Y-82873000D01*
X20373340Y-82873000D01*
X20373340Y-81679845D01*
X20143450Y-81558524D01*
X19733416Y-81728355D01*
X19305157Y-82118642D01*
X19238042Y-82261553D01*
X19010394Y-81920853D01*
X18528625Y-81598946D01*
X17960340Y-81485907D01*
X17392055Y-81598946D01*
X16910286Y-81920853D01*
X16588379Y-82402622D01*
X16475340Y-82970907D01*
X12589180Y-82970907D01*
X12589180Y-66035750D01*
X16495660Y-66035750D01*
X16495660Y-66726309D01*
X16592333Y-66959698D01*
X16770961Y-67138327D01*
X17004350Y-67235000D01*
X17694910Y-67235000D01*
X17853660Y-67076250D01*
X17853660Y-65877000D01*
X16654410Y-65877000D01*
X16495660Y-66035750D01*
X12589180Y-66035750D01*
X12589180Y-64773691D01*
X16495660Y-64773691D01*
X16495660Y-65464250D01*
X16654410Y-65623000D01*
X17853660Y-65623000D01*
X17853660Y-64423750D01*
X17694910Y-64265000D01*
X17004350Y-64265000D01*
X16770961Y-64361673D01*
X16592333Y-64540302D01*
X16495660Y-64773691D01*
X12589180Y-64773691D01*
X12589180Y-58941875D01*
X31694890Y-58941875D01*
X32019240Y-59726860D01*
X32619301Y-60327969D01*
X33403719Y-60653688D01*
X34253075Y-60654430D01*
X35038060Y-60330080D01*
X35639169Y-59730019D01*
X35964888Y-58945601D01*
X35965630Y-58096245D01*
X35641280Y-57311260D01*
X35041219Y-56710151D01*
X34256801Y-56384432D01*
X33407445Y-56383690D01*
X32622460Y-56708040D01*
X32021351Y-57308101D01*
X31695632Y-58092519D01*
X31694890Y-58941875D01*
X12589180Y-58941875D01*
X12589180Y-58376868D01*
X12833258Y-57123261D01*
X13481743Y-56144164D01*
X14455551Y-55487761D01*
X15671031Y-55240860D01*
X42139833Y-55240860D01*
X41886125Y-55345690D01*
G36*
X59209370Y-68429325D02*
X59491255Y-68485395D01*
X59596360Y-68485395D01*
X59956102Y-68845136D01*
X59833922Y-68895620D01*
X59576420Y-68895620D01*
X59256879Y-68959181D01*
X58996055Y-69133458D01*
X58985986Y-69140186D01*
X58914146Y-69212026D01*
X58733141Y-69482919D01*
X58682943Y-69735279D01*
X58678139Y-69738370D01*
X58533149Y-69950570D01*
X58482140Y-70202460D01*
X58482140Y-71402460D01*
X58526418Y-71637777D01*
X58592909Y-71741106D01*
X58591253Y-71742762D01*
X58494580Y-71976151D01*
X58494580Y-72416710D01*
X58653330Y-72575460D01*
X59377580Y-72575460D01*
X59377580Y-72555460D01*
X59631580Y-72555460D01*
X59631580Y-72575460D01*
X59651580Y-72575460D01*
X59651580Y-72829460D01*
X59631580Y-72829460D01*
X59631580Y-73778710D01*
X59790330Y-73937460D01*
X59950400Y-73937460D01*
X59950400Y-74043000D01*
X59974784Y-74172589D01*
X59950400Y-74293000D01*
X59950400Y-74693000D01*
X59974784Y-74822589D01*
X59950400Y-74943000D01*
X59950400Y-75343000D01*
X59974784Y-75472589D01*
X59950400Y-75593000D01*
X59950400Y-75706400D01*
X57880979Y-75706400D01*
X57439560Y-75264981D01*
X57439560Y-72988210D01*
X58494580Y-72988210D01*
X58494580Y-73428769D01*
X58591253Y-73662158D01*
X58769881Y-73840787D01*
X59003270Y-73937460D01*
X59218830Y-73937460D01*
X59377580Y-73778710D01*
X59377580Y-72829460D01*
X58653330Y-72829460D01*
X58494580Y-72988210D01*
X57439560Y-72988210D01*
X57439560Y-72725350D01*
X57442100Y-72712580D01*
X57442100Y-72631433D01*
X57446863Y-72624305D01*
X57580960Y-72423615D01*
X57637030Y-72141730D01*
X57637030Y-70652600D01*
X57757519Y-70532111D01*
X57788383Y-70485920D01*
X57917194Y-70293141D01*
X57933166Y-70212842D01*
X58028856Y-70117319D01*
X58171502Y-69773791D01*
X58171826Y-69401825D01*
X58029781Y-69058049D01*
X57766991Y-68794800D01*
X57423463Y-68652154D01*
X57051497Y-68651830D01*
X56707721Y-68793875D01*
X56678040Y-68823504D01*
X56678040Y-68333620D01*
X59066138Y-68333620D01*
X59209370Y-68429325D01*
X59209370Y-68429325D01*
G37*
X59209370Y-68429325D02*
X59491255Y-68485395D01*
X59596360Y-68485395D01*
X59956102Y-68845136D01*
X59833922Y-68895620D01*
X59576420Y-68895620D01*
X59256879Y-68959181D01*
X58996055Y-69133458D01*
X58985986Y-69140186D01*
X58914146Y-69212026D01*
X58733141Y-69482919D01*
X58682943Y-69735279D01*
X58678139Y-69738370D01*
X58533149Y-69950570D01*
X58482140Y-70202460D01*
X58482140Y-71402460D01*
X58526418Y-71637777D01*
X58592909Y-71741106D01*
X58591253Y-71742762D01*
X58494580Y-71976151D01*
X58494580Y-72416710D01*
X58653330Y-72575460D01*
X59377580Y-72575460D01*
X59377580Y-72555460D01*
X59631580Y-72555460D01*
X59631580Y-72575460D01*
X59651580Y-72575460D01*
X59651580Y-72829460D01*
X59631580Y-72829460D01*
X59631580Y-73778710D01*
X59790330Y-73937460D01*
X59950400Y-73937460D01*
X59950400Y-74043000D01*
X59974784Y-74172589D01*
X59950400Y-74293000D01*
X59950400Y-74693000D01*
X59974784Y-74822589D01*
X59950400Y-74943000D01*
X59950400Y-75343000D01*
X59974784Y-75472589D01*
X59950400Y-75593000D01*
X59950400Y-75706400D01*
X57880979Y-75706400D01*
X57439560Y-75264981D01*
X57439560Y-72988210D01*
X58494580Y-72988210D01*
X58494580Y-73428769D01*
X58591253Y-73662158D01*
X58769881Y-73840787D01*
X59003270Y-73937460D01*
X59218830Y-73937460D01*
X59377580Y-73778710D01*
X59377580Y-72829460D01*
X58653330Y-72829460D01*
X58494580Y-72988210D01*
X57439560Y-72988210D01*
X57439560Y-72725350D01*
X57442100Y-72712580D01*
X57442100Y-72631433D01*
X57446863Y-72624305D01*
X57580960Y-72423615D01*
X57637030Y-72141730D01*
X57637030Y-70652600D01*
X57757519Y-70532111D01*
X57788383Y-70485920D01*
X57917194Y-70293141D01*
X57933166Y-70212842D01*
X58028856Y-70117319D01*
X58171502Y-69773791D01*
X58171826Y-69401825D01*
X58029781Y-69058049D01*
X57766991Y-68794800D01*
X57423463Y-68652154D01*
X57051497Y-68651830D01*
X56707721Y-68793875D01*
X56678040Y-68823504D01*
X56678040Y-68333620D01*
X59066138Y-68333620D01*
X59209370Y-68429325D01*
G36*
X44870606Y-66829147D02*
X45352375Y-67151054D01*
X45907479Y-67261471D01*
X45306945Y-67862005D01*
X45147270Y-68100975D01*
X45091200Y-68382860D01*
X45091200Y-69780839D01*
X44926770Y-69668489D01*
X44674880Y-69617480D01*
X43734013Y-69617480D01*
X43707787Y-69591208D01*
X43364259Y-69448562D01*
X42992293Y-69448238D01*
X42648517Y-69590283D01*
X42385268Y-69853073D01*
X42242622Y-70196601D01*
X42242464Y-70378320D01*
X41778834Y-70378320D01*
X41757862Y-70266863D01*
X41618790Y-70050739D01*
X41406590Y-69905749D01*
X41154700Y-69854740D01*
X40404700Y-69854740D01*
X40281462Y-69877929D01*
X39969239Y-69748282D01*
X39597273Y-69747958D01*
X39253497Y-69890003D01*
X38990248Y-70152793D01*
X38847602Y-70496321D01*
X38847278Y-70868287D01*
X38989323Y-71212063D01*
X39252113Y-71475312D01*
X39595641Y-71617958D01*
X39675638Y-71618028D01*
X39680645Y-71623035D01*
X39757260Y-71674228D01*
X39757260Y-71702180D01*
X39801538Y-71937497D01*
X39868029Y-72040826D01*
X39866373Y-72042482D01*
X39769700Y-72275871D01*
X39769700Y-72716430D01*
X39928450Y-72875180D01*
X40652700Y-72875180D01*
X40652700Y-72855180D01*
X40906700Y-72855180D01*
X40906700Y-72875180D01*
X40926700Y-72875180D01*
X40926700Y-73129180D01*
X40906700Y-73129180D01*
X40906700Y-73149180D01*
X40652700Y-73149180D01*
X40652700Y-73129180D01*
X39928450Y-73129180D01*
X39769700Y-73287930D01*
X39769700Y-73597110D01*
X39555420Y-73382830D01*
X39555420Y-73131685D01*
X39555421Y-73131680D01*
X39499351Y-72849796D01*
X39418589Y-72728927D01*
X39418702Y-72598913D01*
X39276657Y-72255137D01*
X39013867Y-71991888D01*
X38670339Y-71849242D01*
X38298373Y-71848918D01*
X38081272Y-71938622D01*
X37963477Y-71653537D01*
X37700687Y-71390288D01*
X37357159Y-71247642D01*
X36985193Y-71247318D01*
X36641417Y-71389363D01*
X36378168Y-71652153D01*
X36368866Y-71674556D01*
X36131655Y-71437345D01*
X35892685Y-71277670D01*
X35610800Y-71221600D01*
X34196330Y-71221600D01*
X33957260Y-70982530D01*
X33957260Y-67038590D01*
X34270714Y-66829147D01*
X34490660Y-66499974D01*
X34710606Y-66829147D01*
X35192375Y-67151054D01*
X35760660Y-67264093D01*
X36328945Y-67151054D01*
X36810714Y-66829147D01*
X37030660Y-66499974D01*
X37250606Y-66829147D01*
X37732375Y-67151054D01*
X38300660Y-67264093D01*
X38868945Y-67151054D01*
X39350714Y-66829147D01*
X39570660Y-66499974D01*
X39790606Y-66829147D01*
X40272375Y-67151054D01*
X40840660Y-67264093D01*
X41408945Y-67151054D01*
X41890714Y-66829147D01*
X42110660Y-66499974D01*
X42330606Y-66829147D01*
X42812375Y-67151054D01*
X43380660Y-67264093D01*
X43948945Y-67151054D01*
X44430714Y-66829147D01*
X44650660Y-66499974D01*
X44870606Y-66829147D01*
X44870606Y-66829147D01*
G37*
X44870606Y-66829147D02*
X45352375Y-67151054D01*
X45907479Y-67261471D01*
X45306945Y-67862005D01*
X45147270Y-68100975D01*
X45091200Y-68382860D01*
X45091200Y-69780839D01*
X44926770Y-69668489D01*
X44674880Y-69617480D01*
X43734013Y-69617480D01*
X43707787Y-69591208D01*
X43364259Y-69448562D01*
X42992293Y-69448238D01*
X42648517Y-69590283D01*
X42385268Y-69853073D01*
X42242622Y-70196601D01*
X42242464Y-70378320D01*
X41778834Y-70378320D01*
X41757862Y-70266863D01*
X41618790Y-70050739D01*
X41406590Y-69905749D01*
X41154700Y-69854740D01*
X40404700Y-69854740D01*
X40281462Y-69877929D01*
X39969239Y-69748282D01*
X39597273Y-69747958D01*
X39253497Y-69890003D01*
X38990248Y-70152793D01*
X38847602Y-70496321D01*
X38847278Y-70868287D01*
X38989323Y-71212063D01*
X39252113Y-71475312D01*
X39595641Y-71617958D01*
X39675638Y-71618028D01*
X39680645Y-71623035D01*
X39757260Y-71674228D01*
X39757260Y-71702180D01*
X39801538Y-71937497D01*
X39868029Y-72040826D01*
X39866373Y-72042482D01*
X39769700Y-72275871D01*
X39769700Y-72716430D01*
X39928450Y-72875180D01*
X40652700Y-72875180D01*
X40652700Y-72855180D01*
X40906700Y-72855180D01*
X40906700Y-72875180D01*
X40926700Y-72875180D01*
X40926700Y-73129180D01*
X40906700Y-73129180D01*
X40906700Y-73149180D01*
X40652700Y-73149180D01*
X40652700Y-73129180D01*
X39928450Y-73129180D01*
X39769700Y-73287930D01*
X39769700Y-73597110D01*
X39555420Y-73382830D01*
X39555420Y-73131685D01*
X39555421Y-73131680D01*
X39499351Y-72849796D01*
X39418589Y-72728927D01*
X39418702Y-72598913D01*
X39276657Y-72255137D01*
X39013867Y-71991888D01*
X38670339Y-71849242D01*
X38298373Y-71848918D01*
X38081272Y-71938622D01*
X37963477Y-71653537D01*
X37700687Y-71390288D01*
X37357159Y-71247642D01*
X36985193Y-71247318D01*
X36641417Y-71389363D01*
X36378168Y-71652153D01*
X36368866Y-71674556D01*
X36131655Y-71437345D01*
X35892685Y-71277670D01*
X35610800Y-71221600D01*
X34196330Y-71221600D01*
X33957260Y-70982530D01*
X33957260Y-67038590D01*
X34270714Y-66829147D01*
X34490660Y-66499974D01*
X34710606Y-66829147D01*
X35192375Y-67151054D01*
X35760660Y-67264093D01*
X36328945Y-67151054D01*
X36810714Y-66829147D01*
X37030660Y-66499974D01*
X37250606Y-66829147D01*
X37732375Y-67151054D01*
X38300660Y-67264093D01*
X38868945Y-67151054D01*
X39350714Y-66829147D01*
X39570660Y-66499974D01*
X39790606Y-66829147D01*
X40272375Y-67151054D01*
X40840660Y-67264093D01*
X41408945Y-67151054D01*
X41890714Y-66829147D01*
X42110660Y-66499974D01*
X42330606Y-66829147D01*
X42812375Y-67151054D01*
X43380660Y-67264093D01*
X43948945Y-67151054D01*
X44430714Y-66829147D01*
X44650660Y-66499974D01*
X44870606Y-66829147D01*
G36*
X42927440Y-71964920D02*
X42947330Y-72070625D01*
X42939880Y-72088610D01*
X42939880Y-72156170D01*
X42968884Y-72185174D01*
X42971718Y-72200237D01*
X43028139Y-72287918D01*
X42939880Y-72287918D01*
X42939880Y-72328320D01*
X42360305Y-72328320D01*
X42360300Y-72328319D01*
X42078416Y-72384389D01*
X41987026Y-72445454D01*
X41968673Y-72445438D01*
X41789700Y-72519388D01*
X41789700Y-72275871D01*
X41693027Y-72042482D01*
X41691657Y-72041112D01*
X41751131Y-71954070D01*
X41771898Y-71851520D01*
X42927440Y-71851520D01*
X42927440Y-71964920D01*
X42927440Y-71964920D01*
G37*
X42927440Y-71964920D02*
X42947330Y-72070625D01*
X42939880Y-72088610D01*
X42939880Y-72156170D01*
X42968884Y-72185174D01*
X42971718Y-72200237D01*
X43028139Y-72287918D01*
X42939880Y-72287918D01*
X42939880Y-72328320D01*
X42360305Y-72328320D01*
X42360300Y-72328319D01*
X42078416Y-72384389D01*
X41987026Y-72445454D01*
X41968673Y-72445438D01*
X41789700Y-72519388D01*
X41789700Y-72275871D01*
X41693027Y-72042482D01*
X41691657Y-72041112D01*
X41751131Y-71954070D01*
X41771898Y-71851520D01*
X42927440Y-71851520D01*
X42927440Y-71964920D01*
G36*
X98969633Y-66619502D02*
X98872960Y-66852891D01*
X98872960Y-67293450D01*
X99031710Y-67452200D01*
X99755960Y-67452200D01*
X99755960Y-67432200D01*
X100009960Y-67432200D01*
X100009960Y-67452200D01*
X100734210Y-67452200D01*
X100892960Y-67293450D01*
X100892960Y-66852891D01*
X100796287Y-66619502D01*
X100662806Y-66486020D01*
X101720590Y-66486020D01*
X103469440Y-68234870D01*
X103469440Y-69146420D01*
X103525510Y-69428305D01*
X103685185Y-69667275D01*
X105400130Y-71382220D01*
X101342420Y-71382220D01*
X101342420Y-71243820D01*
X101298142Y-71008503D01*
X101159070Y-70792379D01*
X101139520Y-70779021D01*
X101392343Y-70674557D01*
X101655592Y-70411767D01*
X101798238Y-70068239D01*
X101798562Y-69696273D01*
X101656517Y-69352497D01*
X101393727Y-69089248D01*
X101050199Y-68946602D01*
X100964328Y-68946527D01*
X100905400Y-68907152D01*
X100905400Y-68879200D01*
X100861122Y-68643883D01*
X100794631Y-68540554D01*
X100796287Y-68538898D01*
X100892960Y-68305509D01*
X100892960Y-67864950D01*
X100734210Y-67706200D01*
X100009960Y-67706200D01*
X100009960Y-67726200D01*
X99755960Y-67726200D01*
X99755960Y-67706200D01*
X99031710Y-67706200D01*
X98872960Y-67864950D01*
X98872960Y-68305509D01*
X98969633Y-68538898D01*
X98971003Y-68540268D01*
X98911529Y-68627310D01*
X98860520Y-68879200D01*
X98860520Y-69904557D01*
X98667679Y-69824482D01*
X98295713Y-69824158D01*
X97951937Y-69966203D01*
X97895321Y-70022720D01*
X95707685Y-70022720D01*
X95707680Y-70022719D01*
X95425796Y-70078789D01*
X95186825Y-70238465D01*
X94823196Y-70602094D01*
X94794980Y-70596380D01*
X94781580Y-70596380D01*
X94781580Y-69871800D01*
X94725510Y-69589915D01*
X94565835Y-69350945D01*
X94117315Y-68902425D01*
X93878345Y-68742750D01*
X93596460Y-68686680D01*
X93401190Y-68686680D01*
X92831920Y-68117410D01*
X92831920Y-67202375D01*
X92902752Y-67131667D01*
X93045398Y-66788139D01*
X93045661Y-66486020D01*
X99103114Y-66486020D01*
X98969633Y-66619502D01*
X98969633Y-66619502D01*
G37*
X98969633Y-66619502D02*
X98872960Y-66852891D01*
X98872960Y-67293450D01*
X99031710Y-67452200D01*
X99755960Y-67452200D01*
X99755960Y-67432200D01*
X100009960Y-67432200D01*
X100009960Y-67452200D01*
X100734210Y-67452200D01*
X100892960Y-67293450D01*
X100892960Y-66852891D01*
X100796287Y-66619502D01*
X100662806Y-66486020D01*
X101720590Y-66486020D01*
X103469440Y-68234870D01*
X103469440Y-69146420D01*
X103525510Y-69428305D01*
X103685185Y-69667275D01*
X105400130Y-71382220D01*
X101342420Y-71382220D01*
X101342420Y-71243820D01*
X101298142Y-71008503D01*
X101159070Y-70792379D01*
X101139520Y-70779021D01*
X101392343Y-70674557D01*
X101655592Y-70411767D01*
X101798238Y-70068239D01*
X101798562Y-69696273D01*
X101656517Y-69352497D01*
X101393727Y-69089248D01*
X101050199Y-68946602D01*
X100964328Y-68946527D01*
X100905400Y-68907152D01*
X100905400Y-68879200D01*
X100861122Y-68643883D01*
X100794631Y-68540554D01*
X100796287Y-68538898D01*
X100892960Y-68305509D01*
X100892960Y-67864950D01*
X100734210Y-67706200D01*
X100009960Y-67706200D01*
X100009960Y-67726200D01*
X99755960Y-67726200D01*
X99755960Y-67706200D01*
X99031710Y-67706200D01*
X98872960Y-67864950D01*
X98872960Y-68305509D01*
X98969633Y-68538898D01*
X98971003Y-68540268D01*
X98911529Y-68627310D01*
X98860520Y-68879200D01*
X98860520Y-69904557D01*
X98667679Y-69824482D01*
X98295713Y-69824158D01*
X97951937Y-69966203D01*
X97895321Y-70022720D01*
X95707685Y-70022720D01*
X95707680Y-70022719D01*
X95425796Y-70078789D01*
X95186825Y-70238465D01*
X94823196Y-70602094D01*
X94794980Y-70596380D01*
X94781580Y-70596380D01*
X94781580Y-69871800D01*
X94725510Y-69589915D01*
X94565835Y-69350945D01*
X94117315Y-68902425D01*
X93878345Y-68742750D01*
X93596460Y-68686680D01*
X93401190Y-68686680D01*
X92831920Y-68117410D01*
X92831920Y-67202375D01*
X92902752Y-67131667D01*
X93045398Y-66788139D01*
X93045661Y-66486020D01*
X99103114Y-66486020D01*
X98969633Y-66619502D01*
G36*
X90792300Y-68222197D02*
X90745160Y-68212820D01*
X90323147Y-68212820D01*
X90228487Y-68148142D01*
X90325028Y-68086020D01*
X90792300Y-68086020D01*
X90792300Y-68222197D01*
X90792300Y-68222197D01*
G37*
X90792300Y-68222197D02*
X90745160Y-68212820D01*
X90323147Y-68212820D01*
X90228487Y-68148142D01*
X90325028Y-68086020D01*
X90792300Y-68086020D01*
X90792300Y-68222197D01*
G36*
X91175539Y-66625128D02*
X91113660Y-66612820D01*
X90323147Y-66612820D01*
X90228487Y-66548142D01*
X90325028Y-66486020D01*
X91175660Y-66486020D01*
X91175539Y-66625128D01*
X91175539Y-66625128D01*
G37*
X91175539Y-66625128D02*
X91113660Y-66612820D01*
X90323147Y-66612820D01*
X90228487Y-66548142D01*
X90325028Y-66486020D01*
X91175660Y-66486020D01*
X91175539Y-66625128D01*
M02*
