G04 #@! TF.FileFunction,Paste,Top*
%FSLAX46Y46*%
G04 Gerber Fmt 4.6, Leading zero omitted, Abs format (unit mm)*
G04 Created by KiCad (PCBNEW 4.0.7) date 06/06/18 19:33:03*
%MOMM*%
%LPD*%
G01*
G04 APERTURE LIST*
%ADD10C,0.100000*%
%ADD11R,1.448000X0.457000*%
%ADD12R,1.500000X0.450000*%
%ADD13R,0.750000X1.200000*%
%ADD14R,1.200000X0.900000*%
%ADD15R,1.100000X0.400000*%
%ADD16R,1.060000X0.650000*%
%ADD17R,0.900000X1.200000*%
G04 APERTURE END LIST*
D10*
D11*
X89217980Y-80949420D03*
X89217980Y-80149420D03*
X89217980Y-79349420D03*
X89217980Y-78549420D03*
X89217980Y-77749420D03*
X89217980Y-76949420D03*
X89218780Y-76149420D03*
X89217980Y-75349420D03*
X89217980Y-74549420D03*
X89217980Y-73749420D03*
X89217980Y-72949420D03*
X89217980Y-72149420D03*
X89217980Y-71349420D03*
X89217980Y-70549420D03*
X89217980Y-69749420D03*
X89217980Y-68949420D03*
X89217980Y-68149420D03*
X89217980Y-67349420D03*
X89217980Y-66549420D03*
X89217980Y-65749420D03*
X83045980Y-80949420D03*
X83045980Y-80149420D03*
X83045980Y-79349420D03*
X83045980Y-78549420D03*
X83045980Y-77749420D03*
X83045980Y-76949420D03*
X83045980Y-76149420D03*
X83045980Y-75349420D03*
X83045980Y-74549420D03*
X83045980Y-73749420D03*
X83045980Y-72949420D03*
X83045980Y-72149420D03*
X83045980Y-71349420D03*
X83045980Y-70549420D03*
X83045980Y-69749420D03*
X83045980Y-68949420D03*
X83045980Y-68149420D03*
X83045980Y-67349420D03*
X83045980Y-66549420D03*
X83045980Y-65749420D03*
D12*
X94044980Y-71468820D03*
X94044980Y-72118820D03*
X94044980Y-72768820D03*
X94044980Y-73418820D03*
X94044980Y-74068820D03*
X94044980Y-74718820D03*
X94044980Y-75368820D03*
X94044980Y-76018820D03*
X99944980Y-76018820D03*
X99944980Y-75368820D03*
X99944980Y-74718820D03*
X99944980Y-74068820D03*
X99944980Y-73418820D03*
X99944980Y-72768820D03*
X99944980Y-72118820D03*
X99944980Y-71468820D03*
D13*
X40779700Y-73002180D03*
X40779700Y-71102180D03*
X59504580Y-72702460D03*
X59504580Y-70802460D03*
X99882960Y-67579200D03*
X99882960Y-69479200D03*
D14*
X53230600Y-68640960D03*
X55430600Y-68640960D03*
X69189960Y-68549520D03*
X66989960Y-68549520D03*
D15*
X61147840Y-70593000D03*
X61147840Y-71243000D03*
X61147840Y-71893000D03*
X61147840Y-72543000D03*
X61147840Y-73193000D03*
X61147840Y-73843000D03*
X61147840Y-74493000D03*
X61147840Y-75143000D03*
X61147840Y-75793000D03*
X61147840Y-76443000D03*
X61147840Y-77093000D03*
X61147840Y-77743000D03*
X66847840Y-77743000D03*
X66847840Y-77093000D03*
X66847840Y-76443000D03*
X66847840Y-75793000D03*
X66847840Y-75143000D03*
X66847840Y-74493000D03*
X66847840Y-73843000D03*
X66847840Y-73193000D03*
X66847840Y-72543000D03*
X66847840Y-71893000D03*
X66847840Y-71243000D03*
X66847840Y-70593000D03*
D16*
X52925800Y-70655140D03*
X52925800Y-71605140D03*
X52925800Y-72555140D03*
X55125800Y-72555140D03*
X55125800Y-70655140D03*
X72930840Y-70520520D03*
X72930840Y-71470520D03*
X72930840Y-72420520D03*
X75130840Y-72420520D03*
X75130840Y-70520520D03*
D14*
X51712040Y-61887100D03*
X49512040Y-61887100D03*
D17*
X71975980Y-60050500D03*
X71975980Y-62250500D03*
X63804800Y-62250500D03*
X63804800Y-60050500D03*
X61145420Y-88994160D03*
X61145420Y-86794160D03*
X63690500Y-88958600D03*
X63690500Y-86758600D03*
D14*
X58613220Y-86804500D03*
X56413220Y-86804500D03*
X66118560Y-86746080D03*
X68318560Y-86746080D03*
D17*
X52712620Y-86921160D03*
X52712620Y-89121160D03*
X50579020Y-86938940D03*
X50579020Y-89138940D03*
X38676580Y-88226720D03*
X38676580Y-90426720D03*
X36555680Y-88244500D03*
X36555680Y-90444500D03*
X34239200Y-88267360D03*
X34239200Y-90467360D03*
X31714440Y-88295300D03*
X31714440Y-90495300D03*
X29385260Y-88287680D03*
X29385260Y-90487680D03*
X26936700Y-88292760D03*
X26936700Y-90492760D03*
D15*
X44124880Y-70464920D03*
X44124880Y-71114920D03*
X44124880Y-71764920D03*
X44124880Y-72414920D03*
X44124880Y-73064920D03*
X44124880Y-73714920D03*
X44124880Y-74364920D03*
X44124880Y-75014920D03*
X44124880Y-75664920D03*
X44124880Y-76314920D03*
X44124880Y-76964920D03*
X44124880Y-77614920D03*
X49824880Y-77614920D03*
X49824880Y-76964920D03*
X49824880Y-76314920D03*
X49824880Y-75664920D03*
X49824880Y-75014920D03*
X49824880Y-74364920D03*
X49824880Y-73714920D03*
X49824880Y-73064920D03*
X49824880Y-72414920D03*
X49824880Y-71764920D03*
X49824880Y-71114920D03*
X49824880Y-70464920D03*
M02*
