G04 #@! TF.FileFunction,Legend,Top*
%FSLAX46Y46*%
G04 Gerber Fmt 4.6, Leading zero omitted, Abs format (unit mm)*
G04 Created by KiCad (PCBNEW 4.0.7) date 06/06/18 19:33:03*
%MOMM*%
%LPD*%
G01*
G04 APERTURE LIST*
%ADD10C,0.100000*%
%ADD11C,0.150000*%
%ADD12C,0.120000*%
G04 APERTURE END LIST*
D10*
D11*
X90310980Y-83910420D02*
X90310980Y-82742020D01*
X83910180Y-83910420D02*
X90310980Y-83910420D01*
X82767180Y-82767420D02*
X83910180Y-83910420D01*
X90310980Y-63717420D02*
X90310980Y-63717420D01*
X90310980Y-62777620D02*
X90310980Y-63717420D01*
X83656180Y-62777620D02*
X90310980Y-62777620D01*
X82741780Y-63692020D02*
X83656180Y-62777620D01*
X82005180Y-65343020D02*
X82005180Y-64428620D01*
X82741780Y-63692020D02*
X82005180Y-64428620D01*
X82005180Y-65343020D02*
X82005180Y-65343020D01*
X82005180Y-82005420D02*
X82005180Y-65343020D01*
X82767180Y-82767420D02*
X82005180Y-82005420D01*
X90310980Y-63692020D02*
X90310980Y-82767420D01*
X94794980Y-76468820D02*
X99194980Y-76468820D01*
X93219980Y-70943820D02*
X99194980Y-70943820D01*
D12*
X40179700Y-72402180D02*
X40179700Y-71702180D01*
X41379700Y-71702180D02*
X41379700Y-72402180D01*
X58904580Y-72102460D02*
X58904580Y-71402460D01*
X60104580Y-71402460D02*
X60104580Y-72102460D01*
X100482960Y-68179200D02*
X100482960Y-68879200D01*
X99282960Y-68879200D02*
X99282960Y-68179200D01*
X54830600Y-69320960D02*
X53830600Y-69320960D01*
X53830600Y-67960960D02*
X54830600Y-67960960D01*
X67589960Y-67869520D02*
X68589960Y-67869520D01*
X68589960Y-69229520D02*
X67589960Y-69229520D01*
D11*
X66322840Y-70143000D02*
X66322840Y-70168000D01*
X66322840Y-78193000D02*
X66322840Y-78168000D01*
X61672840Y-78193000D02*
X61672840Y-78168000D01*
X60597840Y-70093000D02*
X66322840Y-70093000D01*
X61672840Y-78193000D02*
X66322840Y-78193000D01*
D12*
X53125800Y-73215140D02*
X54925800Y-73215140D01*
X54925800Y-69995140D02*
X52475800Y-69995140D01*
X73130840Y-73080520D02*
X74930840Y-73080520D01*
X74930840Y-69860520D02*
X72480840Y-69860520D01*
X50112040Y-61207100D02*
X51112040Y-61207100D01*
X51112040Y-62567100D02*
X50112040Y-62567100D01*
X71295980Y-61650500D02*
X71295980Y-60650500D01*
X72655980Y-60650500D02*
X72655980Y-61650500D01*
X64484800Y-60650500D02*
X64484800Y-61650500D01*
X63124800Y-61650500D02*
X63124800Y-60650500D01*
X60595420Y-89694160D02*
X61695420Y-89694160D01*
X61695420Y-89694160D02*
X61695420Y-87094160D01*
X60595420Y-89694160D02*
X60595420Y-87094160D01*
X63140500Y-89658600D02*
X64240500Y-89658600D01*
X64240500Y-89658600D02*
X64240500Y-87058600D01*
X63140500Y-89658600D02*
X63140500Y-87058600D01*
X57013220Y-86124500D02*
X58013220Y-86124500D01*
X58013220Y-87484500D02*
X57013220Y-87484500D01*
X67718560Y-87426080D02*
X66718560Y-87426080D01*
X66718560Y-86066080D02*
X67718560Y-86066080D01*
X52032620Y-88521160D02*
X52032620Y-87521160D01*
X53392620Y-87521160D02*
X53392620Y-88521160D01*
X49899020Y-88538940D02*
X49899020Y-87538940D01*
X51259020Y-87538940D02*
X51259020Y-88538940D01*
X37996580Y-89826720D02*
X37996580Y-88826720D01*
X39356580Y-88826720D02*
X39356580Y-89826720D01*
X35875680Y-89844500D02*
X35875680Y-88844500D01*
X37235680Y-88844500D02*
X37235680Y-89844500D01*
X33559200Y-89867360D02*
X33559200Y-88867360D01*
X34919200Y-88867360D02*
X34919200Y-89867360D01*
X31034440Y-89895300D02*
X31034440Y-88895300D01*
X32394440Y-88895300D02*
X32394440Y-89895300D01*
X28705260Y-89887680D02*
X28705260Y-88887680D01*
X30065260Y-88887680D02*
X30065260Y-89887680D01*
X26256700Y-89892760D02*
X26256700Y-88892760D01*
X27616700Y-88892760D02*
X27616700Y-89892760D01*
X110722100Y-77500480D02*
X110722100Y-67280480D01*
X110722100Y-67280480D02*
X115922100Y-67280480D01*
X115922100Y-67280480D02*
X115922100Y-80100480D01*
X115922100Y-80100480D02*
X113322100Y-80100480D01*
X113322100Y-80100480D02*
X113322100Y-77500480D01*
X113322100Y-77500480D02*
X110722100Y-77500480D01*
X110722100Y-78770480D02*
X110722100Y-80100480D01*
X110722100Y-80100480D02*
X111992100Y-80100480D01*
X77730660Y-67080000D02*
X77730660Y-64420000D01*
X19250660Y-67080000D02*
X77730660Y-67080000D01*
X19250660Y-64420000D02*
X77730660Y-64420000D01*
X19250660Y-67080000D02*
X19250660Y-64420000D01*
X17980660Y-67080000D02*
X16650660Y-67080000D01*
X16650660Y-67080000D02*
X16650660Y-65750000D01*
X16630340Y-81670000D02*
X16630340Y-84330000D01*
X75110340Y-81670000D02*
X16630340Y-81670000D01*
X75110340Y-84330000D02*
X16630340Y-84330000D01*
X75110340Y-81670000D02*
X75110340Y-84330000D01*
X76380340Y-81670000D02*
X77710340Y-81670000D01*
X77710340Y-81670000D02*
X77710340Y-83000000D01*
D11*
X49299880Y-70014920D02*
X49299880Y-70039920D01*
X49299880Y-78064920D02*
X49299880Y-78039920D01*
X44649880Y-78064920D02*
X44649880Y-78039920D01*
X43574880Y-69964920D02*
X49299880Y-69964920D01*
X44649880Y-78064920D02*
X49299880Y-78064920D01*
X85398385Y-62293761D02*
X85398385Y-61293761D01*
X85779338Y-61293761D01*
X85874576Y-61341380D01*
X85922195Y-61388999D01*
X85969814Y-61484237D01*
X85969814Y-61627094D01*
X85922195Y-61722332D01*
X85874576Y-61769951D01*
X85779338Y-61817570D01*
X85398385Y-61817570D01*
X86922195Y-62293761D02*
X86350766Y-62293761D01*
X86636480Y-62293761D02*
X86636480Y-61293761D01*
X86541242Y-61436618D01*
X86446004Y-61531856D01*
X86350766Y-61579475D01*
X96233075Y-69646201D02*
X96233075Y-70455725D01*
X96280694Y-70550963D01*
X96328313Y-70598582D01*
X96423551Y-70646201D01*
X96614028Y-70646201D01*
X96709266Y-70598582D01*
X96756885Y-70550963D01*
X96804504Y-70455725D01*
X96804504Y-69646201D01*
X97756885Y-69646201D02*
X97280694Y-69646201D01*
X97233075Y-70122391D01*
X97280694Y-70074772D01*
X97375932Y-70027153D01*
X97614028Y-70027153D01*
X97709266Y-70074772D01*
X97756885Y-70122391D01*
X97804504Y-70217630D01*
X97804504Y-70455725D01*
X97756885Y-70550963D01*
X97709266Y-70598582D01*
X97614028Y-70646201D01*
X97375932Y-70646201D01*
X97280694Y-70598582D01*
X97233075Y-70550963D01*
X41126683Y-75297326D02*
X41174302Y-75344945D01*
X41221921Y-75487802D01*
X41221921Y-75583040D01*
X41174302Y-75725898D01*
X41079064Y-75821136D01*
X40983826Y-75868755D01*
X40793350Y-75916374D01*
X40650492Y-75916374D01*
X40460016Y-75868755D01*
X40364778Y-75821136D01*
X40269540Y-75725898D01*
X40221921Y-75583040D01*
X40221921Y-75487802D01*
X40269540Y-75344945D01*
X40317159Y-75297326D01*
X41221921Y-74344945D02*
X41221921Y-74916374D01*
X41221921Y-74630660D02*
X40221921Y-74630660D01*
X40364778Y-74725898D01*
X40460016Y-74821136D01*
X40507635Y-74916374D01*
X59950623Y-75175406D02*
X59998242Y-75223025D01*
X60045861Y-75365882D01*
X60045861Y-75461120D01*
X59998242Y-75603978D01*
X59903004Y-75699216D01*
X59807766Y-75746835D01*
X59617290Y-75794454D01*
X59474432Y-75794454D01*
X59283956Y-75746835D01*
X59188718Y-75699216D01*
X59093480Y-75603978D01*
X59045861Y-75461120D01*
X59045861Y-75365882D01*
X59093480Y-75223025D01*
X59141099Y-75175406D01*
X59141099Y-74794454D02*
X59093480Y-74746835D01*
X59045861Y-74651597D01*
X59045861Y-74413501D01*
X59093480Y-74318263D01*
X59141099Y-74270644D01*
X59236337Y-74223025D01*
X59331575Y-74223025D01*
X59474432Y-74270644D01*
X60045861Y-74842073D01*
X60045861Y-74223025D01*
X101490103Y-68695866D02*
X101537722Y-68743485D01*
X101585341Y-68886342D01*
X101585341Y-68981580D01*
X101537722Y-69124438D01*
X101442484Y-69219676D01*
X101347246Y-69267295D01*
X101156770Y-69314914D01*
X101013912Y-69314914D01*
X100823436Y-69267295D01*
X100728198Y-69219676D01*
X100632960Y-69124438D01*
X100585341Y-68981580D01*
X100585341Y-68886342D01*
X100632960Y-68743485D01*
X100680579Y-68695866D01*
X100585341Y-68362533D02*
X100585341Y-67743485D01*
X100966293Y-68076819D01*
X100966293Y-67933961D01*
X101013912Y-67838723D01*
X101061531Y-67791104D01*
X101156770Y-67743485D01*
X101394865Y-67743485D01*
X101490103Y-67791104D01*
X101537722Y-67838723D01*
X101585341Y-67933961D01*
X101585341Y-68219676D01*
X101537722Y-68314914D01*
X101490103Y-68362533D01*
X57326234Y-69187321D02*
X56992900Y-68711130D01*
X56754805Y-69187321D02*
X56754805Y-68187321D01*
X57135758Y-68187321D01*
X57230996Y-68234940D01*
X57278615Y-68282559D01*
X57326234Y-68377797D01*
X57326234Y-68520654D01*
X57278615Y-68615892D01*
X57230996Y-68663511D01*
X57135758Y-68711130D01*
X56754805Y-68711130D01*
X58278615Y-69187321D02*
X57707186Y-69187321D01*
X57992900Y-69187321D02*
X57992900Y-68187321D01*
X57897662Y-68330178D01*
X57802424Y-68425416D01*
X57707186Y-68473035D01*
X64494114Y-69098421D02*
X64160780Y-68622230D01*
X63922685Y-69098421D02*
X63922685Y-68098421D01*
X64303638Y-68098421D01*
X64398876Y-68146040D01*
X64446495Y-68193659D01*
X64494114Y-68288897D01*
X64494114Y-68431754D01*
X64446495Y-68526992D01*
X64398876Y-68574611D01*
X64303638Y-68622230D01*
X63922685Y-68622230D01*
X64875066Y-68193659D02*
X64922685Y-68146040D01*
X65017923Y-68098421D01*
X65256019Y-68098421D01*
X65351257Y-68146040D01*
X65398876Y-68193659D01*
X65446495Y-68288897D01*
X65446495Y-68384135D01*
X65398876Y-68526992D01*
X64827447Y-69098421D01*
X65446495Y-69098421D01*
X63233395Y-78883261D02*
X63233395Y-79692785D01*
X63281014Y-79788023D01*
X63328633Y-79835642D01*
X63423871Y-79883261D01*
X63614348Y-79883261D01*
X63709586Y-79835642D01*
X63757205Y-79788023D01*
X63804824Y-79692785D01*
X63804824Y-78883261D01*
X64233395Y-78978499D02*
X64281014Y-78930880D01*
X64376252Y-78883261D01*
X64614348Y-78883261D01*
X64709586Y-78930880D01*
X64757205Y-78978499D01*
X64804824Y-79073737D01*
X64804824Y-79168975D01*
X64757205Y-79311832D01*
X64185776Y-79883261D01*
X64804824Y-79883261D01*
X53347715Y-73777861D02*
X53347715Y-74587385D01*
X53395334Y-74682623D01*
X53442953Y-74730242D01*
X53538191Y-74777861D01*
X53728668Y-74777861D01*
X53823906Y-74730242D01*
X53871525Y-74682623D01*
X53919144Y-74587385D01*
X53919144Y-73777861D01*
X54300096Y-73777861D02*
X54919144Y-73777861D01*
X54585810Y-74158813D01*
X54728668Y-74158813D01*
X54823906Y-74206432D01*
X54871525Y-74254051D01*
X54919144Y-74349290D01*
X54919144Y-74587385D01*
X54871525Y-74682623D01*
X54823906Y-74730242D01*
X54728668Y-74777861D01*
X54442953Y-74777861D01*
X54347715Y-74730242D01*
X54300096Y-74682623D01*
X73302135Y-73937841D02*
X73302135Y-74747365D01*
X73349754Y-74842603D01*
X73397373Y-74890222D01*
X73492611Y-74937841D01*
X73683088Y-74937841D01*
X73778326Y-74890222D01*
X73825945Y-74842603D01*
X73873564Y-74747365D01*
X73873564Y-73937841D01*
X74778326Y-74271174D02*
X74778326Y-74937841D01*
X74540230Y-73890222D02*
X74302135Y-74604508D01*
X74921183Y-74604508D01*
X53925174Y-62352181D02*
X53591840Y-61875990D01*
X53353745Y-62352181D02*
X53353745Y-61352181D01*
X53734698Y-61352181D01*
X53829936Y-61399800D01*
X53877555Y-61447419D01*
X53925174Y-61542657D01*
X53925174Y-61685514D01*
X53877555Y-61780752D01*
X53829936Y-61828371D01*
X53734698Y-61875990D01*
X53353745Y-61875990D01*
X54258507Y-61352181D02*
X54877555Y-61352181D01*
X54544221Y-61733133D01*
X54687079Y-61733133D01*
X54782317Y-61780752D01*
X54829936Y-61828371D01*
X54877555Y-61923610D01*
X54877555Y-62161705D01*
X54829936Y-62256943D01*
X54782317Y-62304562D01*
X54687079Y-62352181D01*
X54401364Y-62352181D01*
X54306126Y-62304562D01*
X54258507Y-62256943D01*
X72405501Y-57837366D02*
X71929310Y-58170700D01*
X72405501Y-58408795D02*
X71405501Y-58408795D01*
X71405501Y-58027842D01*
X71453120Y-57932604D01*
X71500739Y-57884985D01*
X71595977Y-57837366D01*
X71738834Y-57837366D01*
X71834072Y-57884985D01*
X71881691Y-57932604D01*
X71929310Y-58027842D01*
X71929310Y-58408795D01*
X71738834Y-56980223D02*
X72405501Y-56980223D01*
X71357882Y-57218319D02*
X72072168Y-57456414D01*
X72072168Y-56837366D01*
X64264801Y-57837366D02*
X63788610Y-58170700D01*
X64264801Y-58408795D02*
X63264801Y-58408795D01*
X63264801Y-58027842D01*
X63312420Y-57932604D01*
X63360039Y-57884985D01*
X63455277Y-57837366D01*
X63598134Y-57837366D01*
X63693372Y-57884985D01*
X63740991Y-57932604D01*
X63788610Y-58027842D01*
X63788610Y-58408795D01*
X63264801Y-56932604D02*
X63264801Y-57408795D01*
X63740991Y-57456414D01*
X63693372Y-57408795D01*
X63645753Y-57313557D01*
X63645753Y-57075461D01*
X63693372Y-56980223D01*
X63740991Y-56932604D01*
X63836230Y-56884985D01*
X64074325Y-56884985D01*
X64169563Y-56932604D01*
X64217182Y-56980223D01*
X64264801Y-57075461D01*
X64264801Y-57313557D01*
X64217182Y-57408795D01*
X64169563Y-57456414D01*
X61610501Y-91865675D02*
X60610501Y-91865675D01*
X60610501Y-91627580D01*
X60658120Y-91484722D01*
X60753358Y-91389484D01*
X60848596Y-91341865D01*
X61039072Y-91294246D01*
X61181930Y-91294246D01*
X61372406Y-91341865D01*
X61467644Y-91389484D01*
X61562882Y-91484722D01*
X61610501Y-91627580D01*
X61610501Y-91865675D01*
X61610501Y-90341865D02*
X61610501Y-90913294D01*
X61610501Y-90627580D02*
X60610501Y-90627580D01*
X60753358Y-90722818D01*
X60848596Y-90818056D01*
X60896215Y-90913294D01*
X64219081Y-91893615D02*
X63219081Y-91893615D01*
X63219081Y-91655520D01*
X63266700Y-91512662D01*
X63361938Y-91417424D01*
X63457176Y-91369805D01*
X63647652Y-91322186D01*
X63790510Y-91322186D01*
X63980986Y-91369805D01*
X64076224Y-91417424D01*
X64171462Y-91512662D01*
X64219081Y-91655520D01*
X64219081Y-91893615D01*
X63314319Y-90941234D02*
X63266700Y-90893615D01*
X63219081Y-90798377D01*
X63219081Y-90560281D01*
X63266700Y-90465043D01*
X63314319Y-90417424D01*
X63409557Y-90369805D01*
X63504795Y-90369805D01*
X63647652Y-90417424D01*
X64219081Y-90988853D01*
X64219081Y-90369805D01*
X57346554Y-88706881D02*
X57013220Y-88230690D01*
X56775125Y-88706881D02*
X56775125Y-87706881D01*
X57156078Y-87706881D01*
X57251316Y-87754500D01*
X57298935Y-87802119D01*
X57346554Y-87897357D01*
X57346554Y-88040214D01*
X57298935Y-88135452D01*
X57251316Y-88183071D01*
X57156078Y-88230690D01*
X56775125Y-88230690D01*
X58203697Y-87706881D02*
X58013220Y-87706881D01*
X57917982Y-87754500D01*
X57870363Y-87802119D01*
X57775125Y-87944976D01*
X57727506Y-88135452D01*
X57727506Y-88516405D01*
X57775125Y-88611643D01*
X57822744Y-88659262D01*
X57917982Y-88706881D01*
X58108459Y-88706881D01*
X58203697Y-88659262D01*
X58251316Y-88611643D01*
X58298935Y-88516405D01*
X58298935Y-88278310D01*
X58251316Y-88183071D01*
X58203697Y-88135452D01*
X58108459Y-88087833D01*
X57917982Y-88087833D01*
X57822744Y-88135452D01*
X57775125Y-88183071D01*
X57727506Y-88278310D01*
X70323414Y-87193381D02*
X69990080Y-86717190D01*
X69751985Y-87193381D02*
X69751985Y-86193381D01*
X70132938Y-86193381D01*
X70228176Y-86241000D01*
X70275795Y-86288619D01*
X70323414Y-86383857D01*
X70323414Y-86526714D01*
X70275795Y-86621952D01*
X70228176Y-86669571D01*
X70132938Y-86717190D01*
X69751985Y-86717190D01*
X70656747Y-86193381D02*
X71323414Y-86193381D01*
X70894842Y-87193381D01*
X53144681Y-91271386D02*
X52668490Y-91604720D01*
X53144681Y-91842815D02*
X52144681Y-91842815D01*
X52144681Y-91461862D01*
X52192300Y-91366624D01*
X52239919Y-91319005D01*
X52335157Y-91271386D01*
X52478014Y-91271386D01*
X52573252Y-91319005D01*
X52620871Y-91366624D01*
X52668490Y-91461862D01*
X52668490Y-91842815D01*
X52573252Y-90699958D02*
X52525633Y-90795196D01*
X52478014Y-90842815D01*
X52382776Y-90890434D01*
X52335157Y-90890434D01*
X52239919Y-90842815D01*
X52192300Y-90795196D01*
X52144681Y-90699958D01*
X52144681Y-90509481D01*
X52192300Y-90414243D01*
X52239919Y-90366624D01*
X52335157Y-90319005D01*
X52382776Y-90319005D01*
X52478014Y-90366624D01*
X52525633Y-90414243D01*
X52573252Y-90509481D01*
X52573252Y-90699958D01*
X52620871Y-90795196D01*
X52668490Y-90842815D01*
X52763729Y-90890434D01*
X52954205Y-90890434D01*
X53049443Y-90842815D01*
X53097062Y-90795196D01*
X53144681Y-90699958D01*
X53144681Y-90509481D01*
X53097062Y-90414243D01*
X53049443Y-90366624D01*
X52954205Y-90319005D01*
X52763729Y-90319005D01*
X52668490Y-90366624D01*
X52620871Y-90414243D01*
X52573252Y-90509481D01*
X51074581Y-91306946D02*
X50598390Y-91640280D01*
X51074581Y-91878375D02*
X50074581Y-91878375D01*
X50074581Y-91497422D01*
X50122200Y-91402184D01*
X50169819Y-91354565D01*
X50265057Y-91306946D01*
X50407914Y-91306946D01*
X50503152Y-91354565D01*
X50550771Y-91402184D01*
X50598390Y-91497422D01*
X50598390Y-91878375D01*
X51074581Y-90830756D02*
X51074581Y-90640280D01*
X51026962Y-90545041D01*
X50979343Y-90497422D01*
X50836486Y-90402184D01*
X50646010Y-90354565D01*
X50265057Y-90354565D01*
X50169819Y-90402184D01*
X50122200Y-90449803D01*
X50074581Y-90545041D01*
X50074581Y-90735518D01*
X50122200Y-90830756D01*
X50169819Y-90878375D01*
X50265057Y-90925994D01*
X50503152Y-90925994D01*
X50598390Y-90878375D01*
X50646010Y-90830756D01*
X50693629Y-90735518D01*
X50693629Y-90545041D01*
X50646010Y-90449803D01*
X50598390Y-90402184D01*
X50503152Y-90354565D01*
X38791337Y-92447306D02*
X38541337Y-92090163D01*
X38362765Y-92447306D02*
X38362765Y-91697306D01*
X38648480Y-91697306D01*
X38719908Y-91733020D01*
X38755623Y-91768734D01*
X38791337Y-91840163D01*
X38791337Y-91947306D01*
X38755623Y-92018734D01*
X38719908Y-92054449D01*
X38648480Y-92090163D01*
X38362765Y-92090163D01*
X39505623Y-92447306D02*
X39077051Y-92447306D01*
X39291337Y-92447306D02*
X39291337Y-91697306D01*
X39219908Y-91804449D01*
X39148480Y-91875877D01*
X39077051Y-91911591D01*
X39969909Y-91697306D02*
X40041337Y-91697306D01*
X40112766Y-91733020D01*
X40148480Y-91768734D01*
X40184194Y-91840163D01*
X40219909Y-91983020D01*
X40219909Y-92161591D01*
X40184194Y-92304449D01*
X40148480Y-92375877D01*
X40112766Y-92411591D01*
X40041337Y-92447306D01*
X39969909Y-92447306D01*
X39898480Y-92411591D01*
X39862766Y-92375877D01*
X39827051Y-92304449D01*
X39791337Y-92161591D01*
X39791337Y-91983020D01*
X39827051Y-91840163D01*
X39862766Y-91768734D01*
X39898480Y-91733020D01*
X39969909Y-91697306D01*
X36205617Y-92490486D02*
X35955617Y-92133343D01*
X35777045Y-92490486D02*
X35777045Y-91740486D01*
X36062760Y-91740486D01*
X36134188Y-91776200D01*
X36169903Y-91811914D01*
X36205617Y-91883343D01*
X36205617Y-91990486D01*
X36169903Y-92061914D01*
X36134188Y-92097629D01*
X36062760Y-92133343D01*
X35777045Y-92133343D01*
X36919903Y-92490486D02*
X36491331Y-92490486D01*
X36705617Y-92490486D02*
X36705617Y-91740486D01*
X36634188Y-91847629D01*
X36562760Y-91919057D01*
X36491331Y-91954771D01*
X37634189Y-92490486D02*
X37205617Y-92490486D01*
X37419903Y-92490486D02*
X37419903Y-91740486D01*
X37348474Y-91847629D01*
X37277046Y-91919057D01*
X37205617Y-91954771D01*
X33696097Y-92482686D02*
X33446097Y-92125543D01*
X33267525Y-92482686D02*
X33267525Y-91732686D01*
X33553240Y-91732686D01*
X33624668Y-91768400D01*
X33660383Y-91804114D01*
X33696097Y-91875543D01*
X33696097Y-91982686D01*
X33660383Y-92054114D01*
X33624668Y-92089829D01*
X33553240Y-92125543D01*
X33267525Y-92125543D01*
X34410383Y-92482686D02*
X33981811Y-92482686D01*
X34196097Y-92482686D02*
X34196097Y-91732686D01*
X34124668Y-91839829D01*
X34053240Y-91911257D01*
X33981811Y-91946971D01*
X35053240Y-91732686D02*
X34910383Y-91732686D01*
X34838954Y-91768400D01*
X34803240Y-91804114D01*
X34731811Y-91911257D01*
X34696097Y-92054114D01*
X34696097Y-92339829D01*
X34731811Y-92411257D01*
X34767526Y-92446971D01*
X34838954Y-92482686D01*
X34981811Y-92482686D01*
X35053240Y-92446971D01*
X35088954Y-92411257D01*
X35124669Y-92339829D01*
X35124669Y-92161257D01*
X35088954Y-92089829D01*
X35053240Y-92054114D01*
X34981811Y-92018400D01*
X34838954Y-92018400D01*
X34767526Y-92054114D01*
X34731811Y-92089829D01*
X34696097Y-92161257D01*
X31196737Y-92475246D02*
X30946737Y-92118103D01*
X30768165Y-92475246D02*
X30768165Y-91725246D01*
X31053880Y-91725246D01*
X31125308Y-91760960D01*
X31161023Y-91796674D01*
X31196737Y-91868103D01*
X31196737Y-91975246D01*
X31161023Y-92046674D01*
X31125308Y-92082389D01*
X31053880Y-92118103D01*
X30768165Y-92118103D01*
X31911023Y-92475246D02*
X31482451Y-92475246D01*
X31696737Y-92475246D02*
X31696737Y-91725246D01*
X31625308Y-91832389D01*
X31553880Y-91903817D01*
X31482451Y-91939531D01*
X32161023Y-91725246D02*
X32661023Y-91725246D01*
X32339594Y-92475246D01*
X28781197Y-92449846D02*
X28531197Y-92092703D01*
X28352625Y-92449846D02*
X28352625Y-91699846D01*
X28638340Y-91699846D01*
X28709768Y-91735560D01*
X28745483Y-91771274D01*
X28781197Y-91842703D01*
X28781197Y-91949846D01*
X28745483Y-92021274D01*
X28709768Y-92056989D01*
X28638340Y-92092703D01*
X28352625Y-92092703D01*
X29495483Y-92449846D02*
X29066911Y-92449846D01*
X29281197Y-92449846D02*
X29281197Y-91699846D01*
X29209768Y-91806989D01*
X29138340Y-91878417D01*
X29066911Y-91914131D01*
X29924054Y-92021274D02*
X29852626Y-91985560D01*
X29816911Y-91949846D01*
X29781197Y-91878417D01*
X29781197Y-91842703D01*
X29816911Y-91771274D01*
X29852626Y-91735560D01*
X29924054Y-91699846D01*
X30066911Y-91699846D01*
X30138340Y-91735560D01*
X30174054Y-91771274D01*
X30209769Y-91842703D01*
X30209769Y-91878417D01*
X30174054Y-91949846D01*
X30138340Y-91985560D01*
X30066911Y-92021274D01*
X29924054Y-92021274D01*
X29852626Y-92056989D01*
X29816911Y-92092703D01*
X29781197Y-92164131D01*
X29781197Y-92306989D01*
X29816911Y-92378417D01*
X29852626Y-92414131D01*
X29924054Y-92449846D01*
X30066911Y-92449846D01*
X30138340Y-92414131D01*
X30174054Y-92378417D01*
X30209769Y-92306989D01*
X30209769Y-92164131D01*
X30174054Y-92092703D01*
X30138340Y-92056989D01*
X30066911Y-92021274D01*
X26170077Y-92465086D02*
X25920077Y-92107943D01*
X25741505Y-92465086D02*
X25741505Y-91715086D01*
X26027220Y-91715086D01*
X26098648Y-91750800D01*
X26134363Y-91786514D01*
X26170077Y-91857943D01*
X26170077Y-91965086D01*
X26134363Y-92036514D01*
X26098648Y-92072229D01*
X26027220Y-92107943D01*
X25741505Y-92107943D01*
X26884363Y-92465086D02*
X26455791Y-92465086D01*
X26670077Y-92465086D02*
X26670077Y-91715086D01*
X26598648Y-91822229D01*
X26527220Y-91893657D01*
X26455791Y-91929371D01*
X27241506Y-92465086D02*
X27384363Y-92465086D01*
X27455791Y-92429371D01*
X27491506Y-92393657D01*
X27562934Y-92286514D01*
X27598649Y-92143657D01*
X27598649Y-91857943D01*
X27562934Y-91786514D01*
X27527220Y-91750800D01*
X27455791Y-91715086D01*
X27312934Y-91715086D01*
X27241506Y-91750800D01*
X27205791Y-91786514D01*
X27170077Y-91857943D01*
X27170077Y-92036514D01*
X27205791Y-92107943D01*
X27241506Y-92143657D01*
X27312934Y-92179371D01*
X27455791Y-92179371D01*
X27527220Y-92143657D01*
X27562934Y-92107943D01*
X27598649Y-92036514D01*
X58665787Y-60811161D02*
X58665787Y-61525447D01*
X58618167Y-61668304D01*
X58522929Y-61763542D01*
X58380072Y-61811161D01*
X58284834Y-61811161D01*
X59046739Y-60811161D02*
X59665787Y-60811161D01*
X59332453Y-61192113D01*
X59475311Y-61192113D01*
X59570549Y-61239732D01*
X59618168Y-61287351D01*
X59665787Y-61382590D01*
X59665787Y-61620685D01*
X59618168Y-61715923D01*
X59570549Y-61763542D01*
X59475311Y-61811161D01*
X59189596Y-61811161D01*
X59094358Y-61763542D01*
X59046739Y-61715923D01*
X80677427Y-56777381D02*
X80677427Y-57491667D01*
X80629807Y-57634524D01*
X80534569Y-57729762D01*
X80391712Y-57777381D01*
X80296474Y-57777381D01*
X81629808Y-56777381D02*
X81153617Y-56777381D01*
X81105998Y-57253571D01*
X81153617Y-57205952D01*
X81248855Y-57158333D01*
X81486951Y-57158333D01*
X81582189Y-57205952D01*
X81629808Y-57253571D01*
X81677427Y-57348810D01*
X81677427Y-57586905D01*
X81629808Y-57682143D01*
X81582189Y-57729762D01*
X81486951Y-57777381D01*
X81248855Y-57777381D01*
X81153617Y-57729762D01*
X81105998Y-57682143D01*
X30913747Y-60529221D02*
X30913747Y-61243507D01*
X30866127Y-61386364D01*
X30770889Y-61481602D01*
X30628032Y-61529221D01*
X30532794Y-61529221D01*
X31818509Y-60529221D02*
X31628032Y-60529221D01*
X31532794Y-60576840D01*
X31485175Y-60624459D01*
X31389937Y-60767316D01*
X31342318Y-60957792D01*
X31342318Y-61338745D01*
X31389937Y-61433983D01*
X31437556Y-61481602D01*
X31532794Y-61529221D01*
X31723271Y-61529221D01*
X31818509Y-61481602D01*
X31866128Y-61433983D01*
X31913747Y-61338745D01*
X31913747Y-61100650D01*
X31866128Y-61005411D01*
X31818509Y-60957792D01*
X31723271Y-60910173D01*
X31532794Y-60910173D01*
X31437556Y-60957792D01*
X31389937Y-61005411D01*
X31342318Y-61100650D01*
X53890587Y-55451761D02*
X53890587Y-56166047D01*
X53842967Y-56308904D01*
X53747729Y-56404142D01*
X53604872Y-56451761D01*
X53509634Y-56451761D01*
X54271539Y-55451761D02*
X54938206Y-55451761D01*
X54509634Y-56451761D01*
X63514647Y-55726081D02*
X63514647Y-56440367D01*
X63467027Y-56583224D01*
X63371789Y-56678462D01*
X63228932Y-56726081D01*
X63133694Y-56726081D01*
X64133694Y-56154652D02*
X64038456Y-56107033D01*
X63990837Y-56059414D01*
X63943218Y-55964176D01*
X63943218Y-55916557D01*
X63990837Y-55821319D01*
X64038456Y-55773700D01*
X64133694Y-55726081D01*
X64324171Y-55726081D01*
X64419409Y-55773700D01*
X64467028Y-55821319D01*
X64514647Y-55916557D01*
X64514647Y-55964176D01*
X64467028Y-56059414D01*
X64419409Y-56107033D01*
X64324171Y-56154652D01*
X64133694Y-56154652D01*
X64038456Y-56202271D01*
X63990837Y-56249890D01*
X63943218Y-56345129D01*
X63943218Y-56535605D01*
X63990837Y-56630843D01*
X64038456Y-56678462D01*
X64133694Y-56726081D01*
X64324171Y-56726081D01*
X64419409Y-56678462D01*
X64467028Y-56630843D01*
X64514647Y-56535605D01*
X64514647Y-56345129D01*
X64467028Y-56249890D01*
X64419409Y-56202271D01*
X64324171Y-56154652D01*
X110679907Y-88217761D02*
X110679907Y-88932047D01*
X110632287Y-89074904D01*
X110537049Y-89170142D01*
X110394192Y-89217761D01*
X110298954Y-89217761D01*
X111203716Y-89217761D02*
X111394192Y-89217761D01*
X111489431Y-89170142D01*
X111537050Y-89122523D01*
X111632288Y-88979666D01*
X111679907Y-88789190D01*
X111679907Y-88408237D01*
X111632288Y-88312999D01*
X111584669Y-88265380D01*
X111489431Y-88217761D01*
X111298954Y-88217761D01*
X111203716Y-88265380D01*
X111156097Y-88312999D01*
X111108478Y-88408237D01*
X111108478Y-88646332D01*
X111156097Y-88741570D01*
X111203716Y-88789190D01*
X111298954Y-88836809D01*
X111489431Y-88836809D01*
X111584669Y-88789190D01*
X111632288Y-88741570D01*
X111679907Y-88646332D01*
X15634437Y-90851741D02*
X15634437Y-91566027D01*
X15586817Y-91708884D01*
X15491579Y-91804122D01*
X15348722Y-91851741D01*
X15253484Y-91851741D01*
X16634437Y-91851741D02*
X16063008Y-91851741D01*
X16348722Y-91851741D02*
X16348722Y-90851741D01*
X16253484Y-90994598D01*
X16158246Y-91089836D01*
X16063008Y-91137455D01*
X17253484Y-90851741D02*
X17348723Y-90851741D01*
X17443961Y-90899360D01*
X17491580Y-90946979D01*
X17539199Y-91042217D01*
X17586818Y-91232693D01*
X17586818Y-91470789D01*
X17539199Y-91661265D01*
X17491580Y-91756503D01*
X17443961Y-91804122D01*
X17348723Y-91851741D01*
X17253484Y-91851741D01*
X17158246Y-91804122D01*
X17110627Y-91756503D01*
X17063008Y-91661265D01*
X17015389Y-91470789D01*
X17015389Y-91232693D01*
X17063008Y-91042217D01*
X17110627Y-90946979D01*
X17158246Y-90899360D01*
X17253484Y-90851741D01*
X21834577Y-90999061D02*
X21834577Y-91713347D01*
X21786957Y-91856204D01*
X21691719Y-91951442D01*
X21548862Y-91999061D01*
X21453624Y-91999061D01*
X22834577Y-91999061D02*
X22263148Y-91999061D01*
X22548862Y-91999061D02*
X22548862Y-90999061D01*
X22453624Y-91141918D01*
X22358386Y-91237156D01*
X22263148Y-91284775D01*
X23786958Y-91999061D02*
X23215529Y-91999061D01*
X23501243Y-91999061D02*
X23501243Y-90999061D01*
X23406005Y-91141918D01*
X23310767Y-91237156D01*
X23215529Y-91284775D01*
X112988767Y-80552861D02*
X112988767Y-81267147D01*
X112941147Y-81410004D01*
X112845909Y-81505242D01*
X112703052Y-81552861D01*
X112607814Y-81552861D01*
X113893529Y-80886194D02*
X113893529Y-81552861D01*
X113655433Y-80505242D02*
X113417338Y-81219528D01*
X114036386Y-81219528D01*
X15103041Y-66083333D02*
X15817327Y-66083333D01*
X15960184Y-66130953D01*
X16055422Y-66226191D01*
X16103041Y-66369048D01*
X16103041Y-66464286D01*
X16103041Y-65083333D02*
X16103041Y-65654762D01*
X16103041Y-65369048D02*
X15103041Y-65369048D01*
X15245898Y-65464286D01*
X15341136Y-65559524D01*
X15388755Y-65654762D01*
X78162721Y-83333333D02*
X78877007Y-83333333D01*
X79019864Y-83380953D01*
X79115102Y-83476191D01*
X79162721Y-83619048D01*
X79162721Y-83714286D01*
X78257959Y-82904762D02*
X78210340Y-82857143D01*
X78162721Y-82761905D01*
X78162721Y-82523809D01*
X78210340Y-82428571D01*
X78257959Y-82380952D01*
X78353197Y-82333333D01*
X78448435Y-82333333D01*
X78591292Y-82380952D01*
X79162721Y-82952381D01*
X79162721Y-82333333D01*
X46212975Y-68542301D02*
X46212975Y-69351825D01*
X46260594Y-69447063D01*
X46308213Y-69494682D01*
X46403451Y-69542301D01*
X46593928Y-69542301D01*
X46689166Y-69494682D01*
X46736785Y-69447063D01*
X46784404Y-69351825D01*
X46784404Y-68542301D01*
X47784404Y-69542301D02*
X47212975Y-69542301D01*
X47498689Y-69542301D02*
X47498689Y-68542301D01*
X47403451Y-68685158D01*
X47308213Y-68780396D01*
X47212975Y-68828015D01*
M02*
