G04 #@! TF.FileFunction,Soldermask,Top*
%FSLAX46Y46*%
G04 Gerber Fmt 4.6, Leading zero omitted, Abs format (unit mm)*
G04 Created by KiCad (PCBNEW 4.0.7) date 06/06/18 19:33:03*
%MOMM*%
%LPD*%
G01*
G04 APERTURE LIST*
%ADD10C,0.100000*%
%ADD11R,1.848000X0.857000*%
%ADD12C,1.600000*%
%ADD13R,1.900000X0.850000*%
%ADD14C,6.800000*%
%ADD15R,1.150000X1.600000*%
%ADD16R,1.600000X1.300000*%
%ADD17R,1.500000X0.800000*%
%ADD18R,1.460000X1.050000*%
%ADD19R,1.300000X1.600000*%
%ADD20C,3.400000*%
%ADD21R,2.100000X2.100000*%
%ADD22O,2.100000X2.100000*%
G04 APERTURE END LIST*
D10*
D11*
X89217980Y-80949420D03*
X89217980Y-80149420D03*
X89217980Y-79349420D03*
X89217980Y-78549420D03*
X89217980Y-77749420D03*
X89217980Y-76949420D03*
X89218780Y-76149420D03*
X89217980Y-75349420D03*
X89217980Y-74549420D03*
X89217980Y-73749420D03*
X89217980Y-72949420D03*
X89217980Y-72149420D03*
X89217980Y-71349420D03*
X89217980Y-70549420D03*
X89217980Y-69749420D03*
X89217980Y-68949420D03*
X89217980Y-68149420D03*
X89217980Y-67349420D03*
X89217980Y-66549420D03*
X89217980Y-65749420D03*
X83045980Y-80949420D03*
X83045980Y-80149420D03*
X83045980Y-79349420D03*
X83045980Y-78549420D03*
X83045980Y-77749420D03*
X83045980Y-76949420D03*
X83045980Y-76149420D03*
X83045980Y-75349420D03*
X83045980Y-74549420D03*
X83045980Y-73749420D03*
X83045980Y-72949420D03*
X83045980Y-72149420D03*
X83045980Y-71349420D03*
X83045980Y-70549420D03*
X83045980Y-69749420D03*
X83045980Y-68949420D03*
X83045980Y-68149420D03*
X83045980Y-67349420D03*
X83045980Y-66549420D03*
X83045980Y-65749420D03*
D12*
X88163980Y-82562920D03*
X88163980Y-64135920D03*
D13*
X94044980Y-71468820D03*
X94044980Y-72118820D03*
X94044980Y-72768820D03*
X94044980Y-73418820D03*
X94044980Y-74068820D03*
X94044980Y-74718820D03*
X94044980Y-75368820D03*
X94044980Y-76018820D03*
X99944980Y-76018820D03*
X99944980Y-75368820D03*
X99944980Y-74718820D03*
X99944980Y-74068820D03*
X99944980Y-73418820D03*
X99944980Y-72768820D03*
X99944980Y-72118820D03*
X99944980Y-71468820D03*
D14*
X101205640Y-58598740D03*
X44055640Y-58598740D03*
X100728780Y-87342980D03*
X44055640Y-89078740D03*
D15*
X40779700Y-73002180D03*
X40779700Y-71102180D03*
X59504580Y-72702460D03*
X59504580Y-70802460D03*
X99882960Y-67579200D03*
X99882960Y-69479200D03*
D16*
X53230600Y-68640960D03*
X55430600Y-68640960D03*
X69189960Y-68549520D03*
X66989960Y-68549520D03*
D17*
X61147840Y-70593000D03*
X61147840Y-71243000D03*
X61147840Y-71893000D03*
X61147840Y-72543000D03*
X61147840Y-73193000D03*
X61147840Y-73843000D03*
X61147840Y-74493000D03*
X61147840Y-75143000D03*
X61147840Y-75793000D03*
X61147840Y-76443000D03*
X61147840Y-77093000D03*
X61147840Y-77743000D03*
X66847840Y-77743000D03*
X66847840Y-77093000D03*
X66847840Y-76443000D03*
X66847840Y-75793000D03*
X66847840Y-75143000D03*
X66847840Y-74493000D03*
X66847840Y-73843000D03*
X66847840Y-73193000D03*
X66847840Y-72543000D03*
X66847840Y-71893000D03*
X66847840Y-71243000D03*
X66847840Y-70593000D03*
D18*
X52925800Y-70655140D03*
X52925800Y-71605140D03*
X52925800Y-72555140D03*
X55125800Y-72555140D03*
X55125800Y-70655140D03*
X72930840Y-70520520D03*
X72930840Y-71470520D03*
X72930840Y-72420520D03*
X75130840Y-72420520D03*
X75130840Y-70520520D03*
D16*
X51712040Y-61887100D03*
X49512040Y-61887100D03*
D19*
X71975980Y-60050500D03*
X71975980Y-62250500D03*
X63804800Y-62250500D03*
X63804800Y-60050500D03*
X61145420Y-88994160D03*
X61145420Y-86794160D03*
X63690500Y-88958600D03*
X63690500Y-86758600D03*
D16*
X58613220Y-86804500D03*
X56413220Y-86804500D03*
X66118560Y-86746080D03*
X68318560Y-86746080D03*
D19*
X52712620Y-86921160D03*
X52712620Y-89121160D03*
X50579020Y-86938940D03*
X50579020Y-89138940D03*
X38676580Y-88226720D03*
X38676580Y-90426720D03*
X36555680Y-88244500D03*
X36555680Y-90444500D03*
X34239200Y-88267360D03*
X34239200Y-90467360D03*
X31714440Y-88295300D03*
X31714440Y-90495300D03*
X29385260Y-88287680D03*
X29385260Y-90487680D03*
X26936700Y-88292760D03*
X26936700Y-90492760D03*
D20*
X56502300Y-59042300D03*
X81010760Y-60325000D03*
X33830260Y-58519060D03*
X51074320Y-57650380D03*
X60629800Y-57508140D03*
X115559840Y-88800940D03*
X16776700Y-88381840D03*
X23047960Y-88374220D03*
D21*
X112052100Y-78770480D03*
D22*
X114592100Y-78770480D03*
X112052100Y-76230480D03*
X114592100Y-76230480D03*
X112052100Y-73690480D03*
X114592100Y-73690480D03*
X112052100Y-71150480D03*
X114592100Y-71150480D03*
X112052100Y-68610480D03*
X114592100Y-68610480D03*
D21*
X17980660Y-65750000D03*
D22*
X20520660Y-65750000D03*
X23060660Y-65750000D03*
X25600660Y-65750000D03*
X28140660Y-65750000D03*
X30680660Y-65750000D03*
X33220660Y-65750000D03*
X35760660Y-65750000D03*
X38300660Y-65750000D03*
X40840660Y-65750000D03*
X43380660Y-65750000D03*
X45920660Y-65750000D03*
X48460660Y-65750000D03*
X51000660Y-65750000D03*
X53540660Y-65750000D03*
X56080660Y-65750000D03*
X58620660Y-65750000D03*
X61160660Y-65750000D03*
X63700660Y-65750000D03*
X66240660Y-65750000D03*
X68780660Y-65750000D03*
X71320660Y-65750000D03*
X73860660Y-65750000D03*
X76400660Y-65750000D03*
D21*
X76380340Y-83000000D03*
D22*
X73840340Y-83000000D03*
X71300340Y-83000000D03*
X68760340Y-83000000D03*
X66220340Y-83000000D03*
X63680340Y-83000000D03*
X61140340Y-83000000D03*
X58600340Y-83000000D03*
X56060340Y-83000000D03*
X53520340Y-83000000D03*
X50980340Y-83000000D03*
X48440340Y-83000000D03*
X45900340Y-83000000D03*
X43360340Y-83000000D03*
X40820340Y-83000000D03*
X38280340Y-83000000D03*
X35740340Y-83000000D03*
X33200340Y-83000000D03*
X30660340Y-83000000D03*
X28120340Y-83000000D03*
X25580340Y-83000000D03*
X23040340Y-83000000D03*
X20500340Y-83000000D03*
X17960340Y-83000000D03*
D17*
X44124880Y-70464920D03*
X44124880Y-71114920D03*
X44124880Y-71764920D03*
X44124880Y-72414920D03*
X44124880Y-73064920D03*
X44124880Y-73714920D03*
X44124880Y-74364920D03*
X44124880Y-75014920D03*
X44124880Y-75664920D03*
X44124880Y-76314920D03*
X44124880Y-76964920D03*
X44124880Y-77614920D03*
X49824880Y-77614920D03*
X49824880Y-76964920D03*
X49824880Y-76314920D03*
X49824880Y-75664920D03*
X49824880Y-75014920D03*
X49824880Y-74364920D03*
X49824880Y-73714920D03*
X49824880Y-73064920D03*
X49824880Y-72414920D03*
X49824880Y-71764920D03*
X49824880Y-71114920D03*
X49824880Y-70464920D03*
M02*
