M48
;DRILL file {KiCad 4.0.7} date 06/06/18 19:33:06
;FORMAT={-:-/ absolute / metric / decimal}
FMAT,2
METRIC,TZ
T1C0.400
T2C1.000
T3C1.200
T4C1.500
T5C3.200
%
G90
G05
M71
T1
X24.74Y-69.804
X25.961Y-90.815
X27.874Y-67.582
X28.445Y-90.775
X30.002Y-67.904
X30.729Y-91.011
X33.249Y-90.843
X35.6Y-90.747
X37.17Y-72.182
X38.484Y-72.784
X39.782Y-70.683
X39.803Y-72.603
X39.875Y-90.772
X42.154Y-73.381
X42.939Y-72.136
X43.177Y-70.383
X45.98Y-71.514
X47.582Y-76.101
X48.265Y-73.706
X48.278Y-74.871
X48.514Y-72.507
X49.299Y-69.455
X49.466Y-89.665
X50.454Y-69.196
X50.78Y-76.472
X50.955Y-72.997
X50.963Y-77.676
X50.996Y-75.367
X51.068Y-68.683
X51.166Y-71.455
X51.371Y-70.673
X51.704Y-68.199
X52.372Y-77.648
X52.405Y-74.62
X52.848Y-61.554
X53.162Y-73.452
X53.564Y-78.532
X53.772Y-89.654
X54.546Y-78.872
X54.77Y-74.892
X54.813Y-69.814
X55.291Y-79.59
X55.677Y-75.179
X55.921Y-85.799
X56.154Y-77.145
X56.497Y-69.892
X57.237Y-69.587
X57.856Y-85.263
X58.537Y-69.009
X59.718Y-85.09
X59.764Y-80.145
X60.025Y-88.527
X60.261Y-69.731
X60.764Y-80.178
X61.643Y-80.013
X62.2Y-76.03
X62.245Y-74.437
X62.286Y-77.478
X62.344Y-73.193
X62.807Y-71.89
X63.897Y-72.583
X63.897Y-74.483
X64.425Y-85.166
X64.463Y-69.444
X64.503Y-71.28
X64.531Y-67.991
X64.801Y-88.501
X64.96Y-59.286
X65.085Y-75.057
X65.225Y-76.322
X65.377Y-85.298
X65.71Y-74.455
X65.715Y-71.511
X65.748Y-73.094
X65.758Y-75.662
X65.758Y-77.043
X65.992Y-79.338
X66.558Y-69.431
X69.098Y-79.845
X69.162Y-87.851
X69.898Y-79.845
X70.539Y-79.365
X70.853Y-59.766
X73.083Y-75.89
X73.797Y-74.125
X73.99Y-71.634
X74.056Y-70.459
X74.996Y-64.369
X75.565Y-69.431
X76.167Y-63.881
X76.492Y-74.231
X76.558Y-73.233
X76.637Y-75.126
X77.239Y-63.279
X77.277Y-79.987
X77.597Y-75.847
X78.072Y-80.383
X78.956Y-75.819
X79.091Y-80.51
X79.4Y-76.568
X79.7Y-81.074
X80.223Y-76.599
X80.82Y-68.252
X80.848Y-71.11
X80.853Y-69.878
X80.863Y-66.345
X81.29Y-76.678
X83.911Y-57.292
X84.534Y-67.701
X84.574Y-71.092
X84.6Y-66.322
X84.64Y-81.46
X84.894Y-69.497
X85.275Y-79.299
X85.349Y-68.712
X86.246Y-79.267
X87.067Y-79.565
X87.823Y-79.827
X88.018Y-71.622
X88.074Y-69.954
X90.381Y-66.561
X90.513Y-71.756
X90.569Y-68.209
X90.78Y-79.032
X90.846Y-74.531
X91.166Y-70.442
X91.473Y-77.094
X92.045Y-71.465
X92.111Y-66.601
X92.126Y-70.434
X92.337Y-73.929
X92.535Y-77.117
X92.568Y-74.869
X92.761Y-71.864
X92.801Y-63.675
X92.913Y-73.316
X93.48Y-76.929
X94.577Y-76.7
X95.423Y-75.435
X95.951Y-72.189
X96.932Y-71.361
X97.732Y-71.361
X98.481Y-70.759
X98.994Y-66.629
X100.863Y-69.881
X106.487Y-71.427
X107.805Y-73.444
X108.956Y-72.441
X109.233Y-71.542
X109.304Y-75.255
X110.449Y-69.616
T2
X17.96Y-83.
X17.981Y-65.75
X20.5Y-83.
X20.521Y-65.75
X23.04Y-83.
X23.061Y-65.75
X25.58Y-83.
X25.601Y-65.75
X28.12Y-83.
X28.141Y-65.75
X30.66Y-83.
X30.681Y-65.75
X33.2Y-83.
X33.221Y-65.75
X35.74Y-83.
X35.761Y-65.75
X38.28Y-83.
X38.301Y-65.75
X40.82Y-83.
X40.841Y-65.75
X43.36Y-83.
X43.381Y-65.75
X45.9Y-83.
X45.921Y-65.75
X48.44Y-83.
X48.461Y-65.75
X50.98Y-83.
X51.001Y-65.75
X53.52Y-83.
X53.541Y-65.75
X56.06Y-83.
X56.081Y-65.75
X58.6Y-83.
X58.621Y-65.75
X61.14Y-83.
X61.161Y-65.75
X63.68Y-83.
X63.701Y-65.75
X66.22Y-83.
X66.241Y-65.75
X68.76Y-83.
X68.781Y-65.75
X71.3Y-83.
X71.321Y-65.75
X73.84Y-83.
X73.861Y-65.75
X76.38Y-83.
X76.401Y-65.75
X112.052Y-68.61
X112.052Y-71.15
X112.052Y-73.69
X112.052Y-76.23
X112.052Y-78.77
X114.592Y-68.61
X114.592Y-71.15
X114.592Y-73.69
X114.592Y-76.23
X114.592Y-78.77
T3
X88.164Y-64.136
X88.164Y-82.563
T4
X16.777Y-88.382
X23.048Y-88.374
X33.83Y-58.519
X51.074Y-57.65
X56.502Y-59.042
X60.63Y-57.508
X81.011Y-60.325
X115.56Y-88.801
T5
X44.056Y-58.599
X44.056Y-89.079
X100.729Y-87.343
X101.206Y-58.599
T0
M30
